<svg width="804" height="452" viewBox="0 0 804 452" fill="none" xmlns="http://www.w3.org/2000/svg">
<rect width="804" height="452" fill="url(#paint0_radial_498_9227)"/>
<path d="M311.42 288.714H313.839L311.844 287.345L311.42 287.964L311.844 287.345L311.844 287.345L311.843 287.344L311.839 287.342L311.823 287.331L311.759 287.287C311.735 287.27 311.705 287.249 311.671 287.226C311.627 287.195 311.574 287.158 311.514 287.117C311.302 286.969 310.997 286.756 310.626 286.493C309.886 285.969 308.886 285.25 307.847 284.472C306.806 283.693 305.734 282.859 304.846 282.104C303.933 281.328 303.289 280.696 303.034 280.312L303.017 280.287L302.999 280.263C302.138 279.169 301.461 277.493 301.006 275.125C300.551 272.767 300.327 269.782 300.327 266.125V228.908C300.327 220.369 299.686 214.198 298.49 210.462C297.167 206.211 295.028 202.96 292.056 200.778C289.084 198.596 285.346 197.531 280.912 197.531C272.187 197.531 263.24 203.585 254.063 215.263L253.472 216.015V153.569V152.416L252.418 152.884C251.95 153.091 251.489 153.295 251.033 153.495C245.269 156.027 239.009 157.213 232.692 157.213H151.03H150.304L150.28 157.939L149.25 189.599L150.672 189.956L150 189.623C150.672 189.956 150.672 189.956 150.672 189.956L150.673 189.955L150.674 189.953L150.679 189.943L150.697 189.905L150.772 189.755C150.837 189.624 150.934 189.43 151.059 189.183C151.308 188.688 151.669 187.976 152.113 187.114C153.002 185.387 154.225 183.056 155.564 180.633C156.904 178.209 158.355 175.702 159.699 173.621C161.065 171.506 162.259 169.931 163.082 169.275L163.099 169.262L163.116 169.247C166.494 166.219 172.929 164.657 182.825 164.657H192.63V262.377C192.63 266.35 192.342 269.658 191.808 272.308C191.274 274.957 190.503 276.904 189.565 278.205C188.998 278.909 187.824 279.833 186.288 280.851C184.767 281.859 182.968 282.91 181.239 283.867C179.511 284.822 177.862 285.678 176.645 286.295C176.036 286.604 175.536 286.852 175.188 287.024C175.014 287.109 174.879 287.176 174.787 287.22L174.682 287.271L174.656 287.284L174.649 287.287L174.648 287.288L174.647 287.288L174.972 287.964L174.647 287.288L174.972 288.714H223.373L223.683 287.281L223.373 287.964L223.683 287.281L223.683 287.281L223.681 287.28L223.675 287.277L223.649 287.265L223.547 287.219C223.507 287.2 223.458 287.178 223.4 287.151C223.331 287.119 223.25 287.082 223.157 287.039C222.819 286.883 222.333 286.656 221.741 286.375C220.556 285.814 218.95 285.038 217.261 284.178C215.57 283.317 213.803 282.376 212.296 281.485C210.782 280.59 209.597 279.783 208.99 279.182C206.606 276.414 205.329 271.737 205.329 264.832V164.787H214.748C219.694 164.787 224.484 164.945 228.458 165.468C230.445 165.73 232.21 166.081 233.68 166.541C235.157 167.003 236.289 167.562 237.049 168.212C237.241 168.376 237.431 168.532 237.617 168.686C238.804 169.662 239.88 170.547 240.763 172.867C241.813 175.627 242.571 180.417 242.567 189.623L242.567 190.373H242.575V265.995C242.575 269.592 242.383 272.551 241.99 274.884C241.598 277.216 241.016 278.853 240.286 279.88C239.856 280.39 239.031 281.105 237.977 281.918C236.925 282.73 235.696 283.601 234.519 284.404C233.343 285.207 232.227 285.938 231.404 286.469C230.992 286.734 230.655 286.949 230.42 287.098C230.384 287.121 230.349 287.143 230.318 287.162C230.249 287.206 230.192 287.242 230.15 287.268L230.079 287.313L230.061 287.324L230.057 287.326L230.056 287.327L230.056 287.327L230.453 287.964L230.056 287.327L227.833 288.714H230.453H266.109H268.832L266.493 287.319L266.109 287.964L266.493 287.319L266.493 287.319L266.492 287.319L266.487 287.316L266.47 287.306L266.402 287.265C266.342 287.229 266.253 287.176 266.14 287.107C265.912 286.97 265.586 286.771 265.188 286.527C264.393 286.038 263.316 285.367 262.188 284.637C261.059 283.905 259.885 283.118 258.893 282.396C257.882 281.661 257.121 281.037 256.766 280.626C254.637 278.131 253.472 273.465 253.472 266.125V224.75C260.599 214.589 267.453 209.604 274.003 209.239L274.005 209.239C279.265 208.928 283.081 210.624 285.625 214.236C288.212 217.909 289.559 223.666 289.559 231.621V266.125C289.559 273.328 288.396 278.118 286.274 280.615C285.876 281.04 285.092 281.667 284.085 282.395C283.085 283.118 281.914 283.906 280.792 284.638C279.672 285.369 278.606 286.041 277.821 286.529C277.428 286.774 277.106 286.972 276.882 287.109C276.77 287.178 276.683 287.231 276.623 287.267L276.556 287.308L276.539 287.319L276.535 287.321L276.534 287.322L276.533 287.322L276.922 287.964L276.533 287.322L274.235 288.714H276.922H311.42Z" fill="white" stroke="white" stroke-width="1.5"/>
<path d="M352.596 212.354L352.608 212.362L352.621 212.369C355.157 213.843 357.603 214.538 359.82 214.538C361.71 214.538 363.266 213.97 364.332 212.725C365.379 211.502 365.848 209.746 365.848 207.585C365.848 204.202 365.123 201.501 363.505 199.66C361.868 197.798 359.438 196.948 356.336 197.014C352.611 197.017 349.087 198.69 345.644 202.146L345.637 202.152L345.631 202.159C343.141 204.791 339.248 210.006 333.977 217.492L333.969 217.503L333.961 217.515L333.409 218.364V198.281V196.998L332.291 197.628L309.121 210.68L309.705 212.051C310.88 211.697 312.588 211.566 314.638 211.566C317.302 211.566 319.207 212.585 320.489 214.61C321.808 216.693 322.512 219.915 322.512 224.385V269.614C322.512 274.963 321.366 278.573 319.284 280.558C318.423 281.294 315.858 282.961 313.434 284.486C312.23 285.243 311.082 285.952 310.235 286.472C309.812 286.732 309.463 286.945 309.221 287.092L308.941 287.263L308.868 287.307L308.849 287.318L308.845 287.321L308.844 287.322L308.843 287.322L309.232 287.964L308.843 287.322L306.544 288.714H309.232H349.007L349.313 287.279L349.007 287.964L349.313 287.279L349.313 287.279L349.311 287.278L349.307 287.276L349.287 287.267L349.21 287.233C349.142 287.202 349.042 287.157 348.914 287.099C348.658 286.983 348.288 286.815 347.839 286.608C346.939 286.194 345.717 285.622 344.428 284.995C343.137 284.368 341.785 283.687 340.623 283.053C339.444 282.41 338.514 281.842 338.029 281.441L338.017 281.432L338.006 281.423C335.07 279.183 333.538 274.963 333.538 268.451L333.538 268.448L333.409 230.846C333.409 230.846 333.409 230.845 333.409 230.845C333.41 227.723 335.099 223.62 338.682 218.35C340.53 215.729 342.198 213.776 343.654 212.454C345.126 211.118 346.297 210.504 347.155 210.399C348.324 210.296 350.205 210.838 352.596 212.354Z" fill="white" stroke="white" stroke-width="1.5"/>
<path d="M427.617 273.912L427.617 273.912L427.623 273.903C433.754 264.606 436.886 254.383 436.886 242.864C436.886 228.783 433.378 217.479 426.151 209.036L426.147 209.031C418.914 200.714 409.433 196.626 397.905 196.626C386.972 196.626 377.876 201.271 370.793 210.488L370.791 210.492C364.113 219.298 360.726 230.06 360.726 242.864C360.726 256.309 364.24 267.596 371.315 276.54L371.316 276.541C378.53 285.627 387.624 290.135 398.678 290.135C410.668 290.135 420.285 284.69 427.617 273.912ZM417.093 216.253L417.093 216.253L417.097 216.26C422.535 224.766 425.217 235.47 425.217 248.42C425.217 261.505 422.148 270.826 416.179 276.568L416.173 276.574L416.168 276.579C412.067 280.696 406.983 282.691 401.252 282.691C391.852 282.691 384.475 277.139 379.277 265.938L379.274 265.93L379.27 265.923C374.699 256.618 372.526 245.499 372.782 232.929L372.782 232.923C372.909 223.105 375.572 215.562 380.672 210.312C385.17 205.926 390.516 203.683 396.747 203.683C405.063 203.683 411.795 207.769 417.093 216.253Z" fill="white" stroke="white" stroke-width="1.5"/>
<path d="M534.182 211.569L534.185 211.561L534.187 211.553C534.951 209.059 535.69 207.697 536.403 206.381C536.628 205.965 536.851 205.555 537.071 205.114C537.557 204.142 538.605 202.772 539.593 201.587C540.079 201.004 540.537 200.482 540.881 200.098C541.053 199.906 541.196 199.749 541.299 199.637C541.351 199.581 541.393 199.536 541.423 199.504C541.448 199.477 541.461 199.463 541.466 199.458C541.467 199.457 541.468 199.456 541.467 199.457L542.742 198.177H540.936H521.756H519.785L521.258 199.488L521.756 198.927L521.258 199.488L521.258 199.488L521.258 199.488L521.26 199.49L521.269 199.497L521.301 199.526L521.423 199.634L521.862 200.025C522.228 200.351 522.723 200.79 523.235 201.244C524.255 202.15 525.355 203.124 525.644 203.373C525.935 203.624 526.233 204.108 526.455 204.923C526.673 205.727 526.799 206.787 526.799 208.102C526.799 210.675 525.684 215.085 523.619 221.305L523.618 221.307L508.612 266.871L494.149 224.665C494.148 224.664 494.148 224.663 494.148 224.662C492.226 218.874 491.086 214.151 490.707 210.738C490.592 209.57 490.768 208.556 491.224 207.67C491.68 206.781 492.441 205.971 493.57 205.253C494.388 204.772 496.438 203.333 498.249 202.042C499.168 201.386 500.038 200.759 500.679 200.296C500.999 200.065 501.262 199.874 501.445 199.741L501.656 199.588L501.711 199.547L501.726 199.537L501.729 199.534L501.73 199.534L501.73 199.534C501.731 199.534 501.731 199.533 501.289 198.927L501.731 199.533L503.593 198.177H501.289H468.336H465.675L467.944 199.567L468.336 198.927L467.944 199.567L467.944 199.567L467.945 199.568L467.949 199.57L467.965 199.58L468.029 199.619L468.27 199.767C468.479 199.896 468.778 200.081 469.14 200.307C469.864 200.758 470.839 201.37 471.84 202.014C472.843 202.658 473.868 203.331 474.697 203.905C475.111 204.192 475.47 204.451 475.75 204.666C476.046 204.894 476.208 205.039 476.266 205.106L476.289 205.132L476.314 205.156C477.478 206.266 478.716 208.398 480.029 211.676C481.313 214.882 482.635 219.098 484.024 224.336L466.205 268.747C464.026 262.348 459.854 250.181 453.597 232.151L453.597 232.149C451.475 226.082 449.904 221.22 448.864 217.542C447.815 213.831 447.331 211.408 447.331 210.17C447.331 209.452 447.784 208.439 448.641 207.232C449.474 206.059 450.599 204.825 451.743 203.692C452.884 202.563 454.028 201.55 454.887 200.819C455.317 200.454 455.674 200.16 455.924 199.958C456.048 199.856 456.146 199.778 456.212 199.726L456.287 199.667L456.306 199.652L456.31 199.648L456.311 199.648L456.311 199.648L456.311 199.648L458.029 198.306H455.85H426.758H424.804L426.256 199.614L426.256 199.614L426.256 199.614L426.257 199.615L426.261 199.618L426.279 199.634L426.35 199.699C426.413 199.757 426.506 199.843 426.626 199.955C426.865 200.18 427.211 200.509 427.634 200.924C428.48 201.755 429.63 202.93 430.847 204.303C433.302 207.074 435.946 210.563 436.989 213.64C436.989 213.64 436.989 213.641 436.989 213.641L460.03 282.516L460.039 282.544L460.051 282.572L460.425 283.448C461.193 285.761 461.805 287.539 462.259 288.758C462.486 289.368 462.678 289.852 462.833 290.196C462.91 290.367 462.985 290.52 463.058 290.643C463.094 290.704 463.138 290.773 463.191 290.838C463.23 290.887 463.331 291.007 463.494 291.089L464.213 291.45L464.523 290.707L467.483 283.6L467.483 283.6L467.487 283.591L487.826 233.043L503.919 282.626L503.922 282.638L506.364 290.638L507.032 292.826L507.789 290.667L511.007 281.492L511.008 281.492L511.012 281.48L534.182 211.569Z" fill="white" stroke="white" stroke-width="1.5"/>
<path d="M508.441 307.348C508.766 308.023 508.766 308.023 508.767 308.023L508.767 308.023L508.77 308.022L508.778 308.018L508.811 308.001C508.84 307.987 508.883 307.966 508.939 307.939C509.051 307.884 509.215 307.803 509.427 307.696C509.85 307.484 510.463 307.17 511.226 306.767C512.751 305.961 514.877 304.794 517.281 303.348C522.069 300.469 528.002 296.462 532.485 291.987C539.24 286.373 544.198 280.127 548.351 272.703C552.634 265.534 556.131 257.206 558.848 247.469C561.568 238.625 563.633 227.725 565.18 215.042L565.18 215.042L565.182 215.031C566.467 203.031 567.11 182.725 567.117 154.393C568.737 153.478 570.144 152.776 571.441 152.184L572.879 151.528L571.461 150.829L557.559 143.98L556.331 143.375L556.482 144.735C556.991 149.338 557.121 159.236 557.25 174.507C557.25 190.638 556.478 204.428 554.939 215.755L554.938 215.766L554.937 215.776C553.781 226.603 552.242 235.999 550.322 243.968C547.759 253.229 544.692 261.044 541.258 267.044L541.243 267.07L541.231 267.097C537.792 274.385 533.337 280.646 527.99 286.013L527.978 286.025L527.967 286.038C525.274 288.999 520.263 294.191 515.917 298.651C513.746 300.879 511.743 302.921 510.283 304.407C509.553 305.15 508.959 305.753 508.548 306.171L508.073 306.652L507.949 306.778L507.918 306.81L507.91 306.818L507.908 306.82L507.907 306.82C507.907 306.821 507.907 306.821 508.441 307.348ZM508.441 307.348L508.766 308.023L507.907 306.821L508.441 307.348ZM589.86 143.99L588.466 143.252L588.774 144.799C589.404 147.963 589.66 151.908 589.918 156.82V288.351C589.918 290.392 590.325 292.292 590.997 294.047L591.022 294.112L591.058 294.171C592.113 295.891 593.346 297.429 595.04 298.425C595.846 298.937 597.088 299.41 598.663 299.834C600.262 300.264 602.256 300.657 604.595 300.983L604.607 300.985L604.619 300.986C608.259 301.377 613.566 301.636 620.661 301.636C625.046 301.636 629.703 301.507 634.497 300.988C638.789 300.725 642.441 300.071 645.707 299.153C648.718 298.307 650.686 296.971 652.663 295.582C653.337 295.108 653.866 294.641 654.222 294.107C654.594 293.551 654.75 292.966 654.75 292.316C654.75 291.228 654.394 290.323 653.732 289.554C653.092 288.81 652.189 288.219 651.129 287.686C649.489 286.799 648.742 286.105 648.465 285.641L648.418 285.561L648.353 285.496C647.904 285.046 647.541 284.242 647.541 282.665C647.541 277.647 646.861 269.793 646.186 263.221C645.848 259.929 645.509 256.949 645.256 254.792C645.129 253.714 645.023 252.841 644.949 252.237C644.912 251.935 644.883 251.701 644.863 251.542L644.84 251.361L644.834 251.314L644.833 251.303L644.832 251.3L644.832 251.299C644.832 251.299 644.832 251.299 644.088 251.393L644.832 251.299L643.34 251.344C642.18 268.943 641.152 279.857 640.139 284.308L640.135 284.327L640.131 284.347C639.623 287.282 638.763 288.954 637.736 289.676L637.725 289.684C636.427 290.632 634.615 291.373 632.374 291.876C629.326 292.257 625.379 292.512 620.532 292.512C613.596 292.512 608.797 291.994 605.948 291.123L605.875 291.101L605.8 291.094C603.173 290.843 601.447 290.098 600.596 289.244C599.905 288.55 599.527 287.377 599.527 285.508V154.647C601.156 154.151 602.684 153.561 604.183 152.982L604.197 152.977L605.732 152.384L604.277 151.614L589.86 143.99Z" fill="white" stroke="white" stroke-width="1.5"/>
<defs>
<radialGradient id="paint0_radial_498_9227" cx="0" cy="0" r="1" gradientUnits="userSpaceOnUse" gradientTransform="translate(-1.16164e-05 9.00003) rotate(29.0668) scale(911.843 1621.95)">
<stop stop-color="#31273E"/>
<stop offset="1" stop-color="#2E0053"/>
</radialGradient>
</defs>
</svg>
