<svg width="804" height="452" viewBox="0 0 804 452" fill="none" xmlns="http://www.w3.org/2000/svg">
<g clip-path="url(#clip0_502_11633)">
<rect width="804" height="452" fill="#CEDCED"/>
<path d="M249.88 271L258.152 247.864H263.096L271.368 271H266.712L264.824 265.64H256.488L254.568 271H249.88ZM257.544 261.56H263.688L260.632 252.36L257.544 261.56ZM280.919 271.32C279.383 271.32 278.012 270.979 276.807 270.296C275.601 269.613 274.652 268.637 273.959 267.368C273.276 266.088 272.935 264.563 272.935 262.792C272.935 261.085 273.265 259.581 273.927 258.28C274.588 256.979 275.516 255.965 276.711 255.24C277.916 254.504 279.319 254.136 280.919 254.136C282.305 254.136 283.5 254.419 284.503 254.984C285.516 255.549 286.311 256.312 286.887 257.272C287.473 258.232 287.809 259.304 287.895 260.488H284.007C283.932 260.051 283.777 259.619 283.543 259.192C283.308 258.755 282.977 258.397 282.551 258.12C282.124 257.832 281.591 257.688 280.951 257.688C279.863 257.688 278.977 258.109 278.295 258.952C277.623 259.784 277.287 261.053 277.287 262.76C277.287 264.371 277.617 265.651 278.279 266.6C278.94 267.539 279.863 268.008 281.047 268.008C281.676 268.008 282.199 267.853 282.615 267.544C283.041 267.235 283.372 266.867 283.607 266.44C283.841 266.003 283.991 265.597 284.055 265.224H287.847C287.772 266.365 287.441 267.4 286.855 268.328C286.268 269.245 285.468 269.976 284.455 270.52C283.452 271.053 282.273 271.32 280.919 271.32ZM298.388 271.32C296.852 271.32 295.481 270.979 294.276 270.296C293.07 269.613 292.121 268.637 291.428 267.368C290.745 266.088 290.404 264.563 290.404 262.792C290.404 261.085 290.734 259.581 291.396 258.28C292.057 256.979 292.985 255.965 294.18 255.24C295.385 254.504 296.788 254.136 298.388 254.136C299.774 254.136 300.969 254.419 301.972 254.984C302.985 255.549 303.78 256.312 304.356 257.272C304.942 258.232 305.278 259.304 305.364 260.488H301.476C301.401 260.051 301.246 259.619 301.012 259.192C300.777 258.755 300.446 258.397 300.02 258.12C299.593 257.832 299.06 257.688 298.42 257.688C297.332 257.688 296.446 258.109 295.764 258.952C295.092 259.784 294.756 261.053 294.756 262.76C294.756 264.371 295.086 265.651 295.748 266.6C296.409 267.539 297.332 268.008 298.516 268.008C299.145 268.008 299.668 267.853 300.084 267.544C300.51 267.235 300.841 266.867 301.076 266.44C301.31 266.003 301.46 265.597 301.524 265.224H305.316C305.241 266.365 304.91 267.4 304.324 268.328C303.737 269.245 302.937 269.976 301.924 270.52C300.921 271.053 299.742 271.32 298.388 271.32ZM315.872 271.32C314.251 271.32 312.838 270.973 311.632 270.28C310.438 269.587 309.51 268.605 308.848 267.336C308.198 266.067 307.872 264.563 307.872 262.824C307.872 261.085 308.198 259.565 308.848 258.264C309.51 256.963 310.438 255.949 311.632 255.224C312.838 254.499 314.256 254.136 315.888 254.136C317.52 254.136 318.934 254.493 320.128 255.208C321.323 255.912 322.246 256.915 322.896 258.216C323.547 259.517 323.872 261.053 323.872 262.824C323.872 264.488 323.552 265.96 322.912 267.24C322.283 268.509 321.371 269.507 320.176 270.232C318.992 270.957 317.558 271.32 315.872 271.32ZM315.888 267.848C316.71 267.848 317.371 267.608 317.872 267.128C318.374 266.648 318.736 266.019 318.96 265.24C319.184 264.451 319.296 263.592 319.296 262.664C319.296 261.789 319.195 260.963 318.992 260.184C318.79 259.405 318.438 258.776 317.936 258.296C317.435 257.816 316.752 257.576 315.888 257.576C315.067 257.576 314.4 257.805 313.888 258.264C313.387 258.712 313.019 259.325 312.784 260.104C312.55 260.872 312.432 261.725 312.432 262.664C312.432 263.528 312.539 264.36 312.752 265.16C312.966 265.949 313.323 266.595 313.824 267.096C314.326 267.597 315.014 267.848 315.888 267.848ZM333.034 271.32C332.266 271.32 331.508 271.203 330.762 270.968C330.026 270.733 329.354 270.387 328.746 269.928C328.138 269.469 327.647 268.904 327.274 268.232C326.911 267.56 326.73 266.781 326.73 265.896V254.456H331.402V265.304C331.402 266.072 331.652 266.701 332.154 267.192C332.655 267.683 333.391 267.928 334.362 267.928C335.279 267.928 336.004 267.693 336.538 267.224C337.082 266.744 337.354 266.077 337.354 265.224V254.456H341.978V271H338.458L337.914 267.72C337.722 268.691 337.359 269.437 336.826 269.96C336.303 270.472 335.7 270.824 335.018 271.016C334.346 271.219 333.684 271.32 333.034 271.32ZM346.062 271V254.456H350.655V256.792C350.911 256.387 351.241 255.997 351.647 255.624C352.063 255.24 352.585 254.925 353.215 254.68C353.844 254.435 354.591 254.312 355.455 254.312C356.468 254.312 357.412 254.509 358.287 254.904C359.172 255.299 359.887 255.923 360.431 256.776C360.975 257.619 361.247 258.723 361.247 260.088V271H356.575V260.664C356.575 259.768 356.308 259.096 355.775 258.648C355.241 258.2 354.591 257.976 353.823 257.976C353.311 257.976 352.815 258.067 352.335 258.248C351.865 258.429 351.481 258.701 351.183 259.064C350.884 259.427 350.735 259.875 350.735 260.408V271H346.062ZM371.574 271.176C370.112 271.176 368.982 270.989 368.182 270.616C367.392 270.243 366.843 269.72 366.534 269.048C366.235 268.376 366.086 267.597 366.086 266.712V257.704H363.398V254.456H366.23L367.414 249.464H370.742V254.44H374.422V257.704H370.742L370.774 266.52C370.774 266.925 370.822 267.229 370.918 267.432C371.024 267.624 371.184 267.752 371.398 267.816C371.622 267.869 371.904 267.896 372.246 267.896H374.47V270.776C374.246 270.872 373.91 270.963 373.462 271.048C373.014 271.133 372.384 271.176 371.574 271.176ZM394.233 271.32C393.081 271.32 391.955 271.176 390.857 270.888C389.758 270.6 388.755 270.168 387.849 269.592C386.942 269.016 386.195 268.296 385.609 267.432C385.033 266.568 384.686 265.555 384.569 264.392H389.353C389.513 265.096 389.817 265.688 390.265 266.168C390.723 266.648 391.31 267.016 392.025 267.272C392.75 267.528 393.577 267.656 394.505 267.656C395.241 267.656 395.939 267.549 396.601 267.336C397.262 267.123 397.801 266.797 398.217 266.36C398.633 265.923 398.841 265.373 398.841 264.712C398.841 263.923 398.553 263.331 397.977 262.936C397.401 262.531 396.617 262.211 395.625 261.976L391.289 261.032C390.062 260.776 388.99 260.381 388.073 259.848C387.166 259.304 386.467 258.6 385.977 257.736C385.486 256.861 385.241 255.8 385.241 254.552C385.241 253.112 385.635 251.869 386.425 250.824C387.225 249.779 388.307 248.979 389.673 248.424C391.049 247.859 392.59 247.576 394.297 247.576C396.227 247.576 397.854 247.891 399.177 248.52C400.51 249.139 401.529 249.981 402.233 251.048C402.937 252.104 403.294 253.283 403.305 254.584H398.633C398.547 253.784 398.302 253.144 397.897 252.664C397.491 252.173 396.969 251.821 396.329 251.608C395.699 251.384 394.979 251.272 394.169 251.272C392.771 251.272 391.753 251.555 391.113 252.12C390.473 252.685 390.153 253.341 390.153 254.088C390.153 254.792 390.393 255.363 390.873 255.8C391.363 256.227 392.147 256.552 393.225 256.776L397.241 257.64C398.734 257.928 399.945 258.387 400.873 259.016C401.801 259.635 402.478 260.387 402.905 261.272C403.331 262.157 403.545 263.149 403.545 264.248C403.545 265.645 403.145 266.877 402.345 267.944C401.555 269 400.462 269.827 399.065 270.424C397.667 271.021 396.057 271.32 394.233 271.32ZM414.538 271.32C412.895 271.32 411.45 270.979 410.202 270.296C408.964 269.603 407.999 268.627 407.306 267.368C406.612 266.109 406.266 264.627 406.266 262.92C406.266 261.267 406.58 259.779 407.21 258.456C407.85 257.123 408.767 256.072 409.962 255.304C411.156 254.525 412.602 254.136 414.298 254.136C415.983 254.136 417.396 254.493 418.538 255.208C419.679 255.912 420.543 256.899 421.13 258.168C421.716 259.427 422.01 260.883 422.01 262.536V263.8H410.89C410.89 264.643 411.028 265.379 411.306 266.008C411.583 266.627 411.983 267.107 412.506 267.448C413.039 267.779 413.679 267.944 414.426 267.944C415.226 267.944 415.924 267.773 416.522 267.432C417.119 267.091 417.54 266.531 417.786 265.752H421.994C421.802 266.925 421.332 267.928 420.586 268.76C419.839 269.592 418.932 270.227 417.866 270.664C416.799 271.101 415.69 271.32 414.538 271.32ZM410.89 261.016H417.642C417.642 260.355 417.514 259.747 417.258 259.192C417.012 258.637 416.639 258.2 416.138 257.88C415.647 257.56 415.028 257.4 414.282 257.4C413.567 257.4 412.954 257.576 412.442 257.928C411.94 258.269 411.551 258.717 411.274 259.272C411.007 259.827 410.879 260.408 410.89 261.016ZM432.575 271.32C431.039 271.32 429.668 270.979 428.463 270.296C427.258 269.613 426.308 268.637 425.615 267.368C424.932 266.088 424.591 264.563 424.591 262.792C424.591 261.085 424.922 259.581 425.583 258.28C426.244 256.979 427.172 255.965 428.367 255.24C429.572 254.504 430.975 254.136 432.575 254.136C433.962 254.136 435.156 254.419 436.159 254.984C437.172 255.549 437.967 256.312 438.543 257.272C439.13 258.232 439.466 259.304 439.551 260.488H435.663C435.588 260.051 435.434 259.619 435.199 259.192C434.964 258.755 434.634 258.397 434.207 258.12C433.78 257.832 433.247 257.688 432.607 257.688C431.519 257.688 430.634 258.109 429.951 258.952C429.279 259.784 428.943 261.053 428.943 262.76C428.943 264.371 429.274 265.651 429.935 266.6C430.596 267.539 431.519 268.008 432.703 268.008C433.332 268.008 433.855 267.853 434.271 267.544C434.698 267.235 435.028 266.867 435.263 266.44C435.498 266.003 435.647 265.597 435.711 265.224H439.503C439.428 266.365 439.098 267.4 438.511 268.328C437.924 269.245 437.124 269.976 436.111 270.52C435.108 271.053 433.93 271.32 432.575 271.32ZM448.846 271.32C448.078 271.32 447.321 271.203 446.574 270.968C445.838 270.733 445.166 270.387 444.558 269.928C443.95 269.469 443.459 268.904 443.086 268.232C442.723 267.56 442.542 266.781 442.542 265.896V254.456H447.214V265.304C447.214 266.072 447.465 266.701 447.966 267.192C448.467 267.683 449.203 267.928 450.174 267.928C451.091 267.928 451.817 267.693 452.35 267.224C452.894 266.744 453.166 266.077 453.166 265.224V254.456H457.79V271H454.27L453.726 267.72C453.534 268.691 453.171 269.437 452.638 269.96C452.115 270.472 451.513 270.824 450.83 271.016C450.158 271.219 449.497 271.32 448.846 271.32ZM461.875 271V254.456H466.371V258.376C466.638 257.533 467.011 256.797 467.491 256.168C467.982 255.528 468.574 255.032 469.267 254.68C469.96 254.317 470.744 254.136 471.619 254.136C471.768 254.136 471.907 254.147 472.035 254.168C472.174 254.179 472.275 254.2 472.339 254.232V258.68C472.243 258.637 472.126 258.611 471.987 258.6C471.859 258.589 471.742 258.579 471.635 258.568C470.718 258.493 469.934 258.52 469.283 258.648C468.632 258.776 468.104 258.995 467.699 259.304C467.294 259.613 467 259.992 466.819 260.44C466.638 260.888 466.547 261.389 466.547 261.944V271H461.875ZM475.111 271V254.456H479.575V271H475.111ZM475.062 252.088V247.88H479.607V252.088H475.062ZM490.73 271.176C489.268 271.176 488.138 270.989 487.338 270.616C486.548 270.243 485.999 269.72 485.69 269.048C485.391 268.376 485.242 267.597 485.242 266.712V257.704H482.554V254.456H485.386L486.57 249.464H489.898V254.44H493.578V257.704H489.898L489.93 266.52C489.93 266.925 489.978 267.229 490.074 267.432C490.18 267.624 490.34 267.752 490.554 267.816C490.778 267.869 491.06 267.896 491.402 267.896H493.626V270.776C493.402 270.872 493.066 270.963 492.618 271.048C492.17 271.133 491.54 271.176 490.73 271.176ZM499.498 276.28C498.368 276.28 497.568 276.184 497.098 275.992C496.629 275.811 496.394 275.72 496.394 275.72V272.744L498.042 272.808C498.757 272.851 499.333 272.813 499.77 272.696C500.208 272.589 500.538 272.445 500.762 272.264C500.986 272.083 501.146 271.891 501.242 271.688C501.349 271.496 501.424 271.341 501.466 271.224L501.77 270.312L495.338 254.456H499.962L503.93 265.24L507.93 254.456H512.506L505.802 271.096C505.226 272.504 504.613 273.581 503.962 274.328C503.322 275.075 502.629 275.587 501.882 275.864C501.146 276.141 500.352 276.28 499.498 276.28Z" fill="#192D4E"/>
<path d="M609.443 182.576L598.19 213.302L586.992 182.576H577.032L593.154 223.3H602.711L619 182.576H609.443Z" fill="#192D4E"/>
<path fill-rule="evenodd" clip-rule="evenodd" d="M528.667 203C528.667 191.069 538.181 182.286 550.7 182.286C563.247 182.286 572.748 191.304 572.748 203C572.748 214.697 563.233 223.715 550.7 223.715C538.167 223.715 528.667 214.932 528.667 203ZM538.181 202.945C538.143 209.928 543.806 215.624 550.839 215.678C554.184 215.649 557.378 214.292 559.709 211.911C562.04 209.529 563.314 206.32 563.247 203C563.318 199.678 562.046 196.466 559.714 194.081C557.383 191.697 554.187 190.338 550.839 190.309C547.467 190.298 544.23 191.628 541.852 194.002C539.473 196.376 538.151 199.597 538.181 202.945Z" fill="#192D4E"/>
<path d="M502.279 190.254C506.462 190.357 510.464 191.973 513.532 194.798L518.749 188.224C514.124 184.398 508.298 182.298 502.279 182.286C489.495 182.286 479.897 191.193 479.897 203C479.897 214.808 489.342 223.715 501.764 223.715C507.733 223.616 513.539 221.771 518.456 218.412V200.901H503.197V208.096H510.361V213.468C507.888 214.797 505.144 215.552 502.334 215.678C497.659 215.831 493.272 213.442 490.888 209.446C488.505 205.45 488.505 200.482 490.888 196.486C493.272 192.49 497.659 190.101 502.334 190.254H502.279Z" fill="#192D4E"/>
<path d="M467.503 213.026C466.084 212.989 464.714 213.543 463.724 214.552C462.734 215.561 462.213 216.936 462.287 218.343C462.187 220.254 463.158 222.064 464.811 223.05C466.463 224.035 468.529 224.035 470.182 223.05C471.835 222.064 472.805 220.254 472.706 218.343C472.792 216.935 472.278 215.555 471.287 214.543C470.297 213.532 468.923 212.981 467.503 213.026Z" fill="#192D4E"/>
<path d="M441.255 208.759L421.321 182.576H412.878V223.3H421.725V197.187L441.602 223.3H450.032V182.576H441.255V208.759Z" fill="#192D4E"/>
<rect x="389.383" y="182.576" width="9.26422" height="40.7243" fill="#192D4E"/>
<path d="M359.907 190.254C364.091 190.357 368.092 191.973 371.161 194.798L376.377 188.224C371.753 184.398 365.927 182.298 359.907 182.286C347.124 182.286 337.512 191.193 337.512 203C337.512 214.808 346.957 223.715 359.379 223.715C365.347 223.616 371.154 221.771 376.071 218.412V200.901H360.826V208.096H367.989V213.468C365.516 214.797 362.772 215.552 359.963 215.678C355.288 215.831 350.9 213.442 348.517 209.446C346.134 205.45 346.134 200.482 348.517 196.486C350.9 192.49 355.288 190.101 359.963 190.254H359.907Z" fill="#192D4E"/>
<path fill-rule="evenodd" clip-rule="evenodd" d="M284.639 203C284.639 191.069 294.154 182.286 306.673 182.286C319.22 182.286 328.707 191.304 328.707 203C328.707 214.697 319.22 223.715 306.673 223.715C294.126 223.715 284.639 214.932 284.639 203ZM294.126 203C294.118 209.962 299.772 215.624 306.784 215.678C310.134 215.656 313.335 214.303 315.672 211.92C318.009 209.538 319.287 206.325 319.22 203C319.276 199.683 317.993 196.481 315.657 194.107C313.321 191.734 310.126 190.386 306.784 190.365C303.411 190.353 300.174 191.683 297.796 194.057C295.418 196.432 294.096 199.652 294.126 203Z" fill="#192D4E"/>
<path d="M260.463 182.576H251.199V223.3H278.046V215.277H260.463V182.576Z" fill="#192D4E"/>
<path d="M224.547 174H207.979V232C223.698 225.095 229.193 216.147 230.584 213.357C230.845 212.824 230.978 212.238 230.973 211.645V180.38C230.973 178.688 230.296 177.065 229.091 175.869C227.886 174.672 226.251 174 224.547 174Z" fill="#B51E23"/>
<path d="M191.426 174C187.877 174 185 176.856 185 180.38V211.645C184.995 212.238 185.128 212.824 185.389 213.357C186.78 216.119 192.345 225.137 207.98 232V174H191.426Z" fill="#E21D3E"/>
<path d="M212.055 198.995C214.24 197.289 215.096 194.395 214.186 191.786C213.277 189.178 210.802 187.429 208.021 187.429C205.241 187.429 202.766 189.178 201.857 191.786C200.947 194.395 201.802 197.289 203.987 198.995C203.264 203.055 202.55 207.115 201.845 211.175C203.871 211.522 205.924 211.698 207.98 211.7C210.065 211.742 212.15 211.603 214.211 211.286C213.488 207.143 212.82 203.083 212.055 198.995Z" fill="white"/>
<g opacity="0.4">
<path opacity="0.5" fill-rule="evenodd" clip-rule="evenodd" d="M663.277 -2.44478C647.108 -2.44478 634 10.6628 634 26.8318C634 42.9952 647.099 56.0993 663.26 56.1083C647.099 56.1173 634 69.2214 634 85.3848C634 101.554 647.108 114.661 663.277 114.661H677.256L674.647 141.059C673.057 157.149 684.812 171.482 700.902 173.072C713.209 174.289 724.487 167.698 729.823 157.333C734.221 165.862 742.719 172.058 752.98 173.072C769.071 174.663 783.404 162.908 784.994 146.817L788.172 114.661H813.723C829.892 114.661 843 101.554 843 85.3848C843 69.2214 829.902 56.1173 813.74 56.1083C829.902 56.0993 843 42.9952 843 26.8318C843 10.6628 829.892 -2.44478 813.723 -2.44478H799.744L802.353 -28.8421C803.943 -44.9327 792.188 -59.2658 776.098 -60.8559C763.791 -62.0721 752.513 -55.4819 747.177 -45.1162C742.779 -53.6457 734.281 -59.8419 724.02 -60.8559C707.929 -62.4461 693.596 -50.6911 692.006 -34.6005L688.828 -2.44478H663.277ZM663.28 17.0695C657.89 17.0695 653.521 21.4387 653.521 26.8284C653.521 32.218 657.89 36.5872 663.28 36.5872H704.587L700.729 75.6226H663.28C657.89 75.6226 653.521 79.9918 653.521 85.3815C653.521 90.7711 657.89 95.1403 663.28 95.1403H698.801L694.074 142.975C693.543 148.338 697.462 153.116 702.825 153.646C708.189 154.176 712.967 150.258 713.497 144.894L718.413 95.1403H750.878L746.151 142.975C745.621 148.338 749.54 153.116 754.903 153.646C760.267 154.176 765.044 150.258 765.574 144.894L770.491 95.1403H813.727C819.117 95.1403 823.486 90.7711 823.486 85.3815C823.486 79.9918 819.117 75.6226 813.727 75.6226H772.42L776.278 36.5872H813.727C819.117 36.5872 823.486 32.218 823.486 26.8284C823.486 21.4387 819.117 17.0695 813.727 17.0695H778.206L782.934 -30.765C783.464 -36.1285 779.545 -40.9062 774.182 -41.4362C768.818 -41.9663 764.041 -38.048 763.511 -32.6844L758.594 17.0695H726.129L730.856 -30.765C731.386 -36.1285 727.468 -40.9062 722.104 -41.4362C716.741 -41.9663 711.963 -38.048 711.433 -32.6844L706.516 17.0695H663.28ZM720.342 75.6226L724.2 36.5872H756.665L752.807 75.6226H720.342Z" fill="#0071BB"/>
<g opacity="0.5">
<path d="M-67 60.3914C-66.3068 26.1024 -53.1604 -4.79503 -26.6327 -29.658C-8.36058 -46.9459 14.9019 -58.0884 39.8747 -61.5145C74.3561 -66.5198 105.924 -58.9299 133.944 -38.3121C159.661 -19.39 175.498 6.12788 182.112 37.2476C184.285 47.4454 185.824 57.8186 184.52 68.2035C182.171 86.9151 171.867 100.177 154.562 107.626C126.554 119.684 93.6939 102.305 87.7375 72.5422C87.0583 69.1189 86.6654 65.6453 86.5626 62.1573C86.1397 47.9014 75.3782 36.195 61.7619 35.3881C46.5948 34.4759 33.9301 44.2177 32.1796 58.9179C31.0047 68.6363 32.5908 78.3312 35.1989 87.7688C44.7033 122.163 66.05 146.067 99.3919 159.235C104.032 161.071 107.78 163.48 108.332 168.895C108.601 170.738 108.378 172.618 107.688 174.349C106.998 176.079 105.864 177.599 104.399 178.756C102.934 179.914 101.19 180.669 99.3401 180.945C97.4904 181.222 95.6003 181.011 93.8584 180.333C78.3159 174.929 64.0215 166.475 51.8228 155.47C34.2065 139.856 21.4159 119.575 14.9447 96.996C10.8211 82.7167 8.43614 68.145 10.8328 53.2576C14.1106 32.8971 31.9798 16.6064 52.5042 13.7879C77.0113 10.4082 102.117 26.7223 107.275 52.6729C108.121 56.9415 108.109 61.3621 108.673 65.7009C110.553 80.2257 121.749 89.909 136.423 89.6166C143.394 89.4578 150.034 86.6223 154.954 81.7031C159.874 76.7839 162.693 70.1618 162.821 63.2216C163.034 40.5254 155.748 18.3884 142.087 0.216495C128.425 -17.9554 109.144 -31.1556 87.2088 -37.3531C63.1717 -44.0659 39.3461 -42.6509 16.566 -32.2893C-14.2147 -18.2557 -33.8344 5.39107 -42.1757 38.0194C-46.5317 55.0644 -46.2885 72.9523 -41.4708 89.8738C-40.437 93.5694 -40.1903 97.2065 -42.5399 100.504C-43.6107 102.21 -45.1541 103.572 -46.9842 104.424C-48.8144 105.277 -50.8531 105.585 -52.855 105.311C-55.0809 105.13 -57.1874 104.233 -58.8571 102.757C-60.5268 101.28 -61.6694 99.3036 -62.1127 97.1246C-65.3581 85.1476 -67.0014 72.7965 -67 60.3914Z" fill="#0071BB"/>
<path d="M-28.5513 64.6601C-28.5513 31.3769 -14.2888 3.63698 17.1733 -14.1156C34.0277 -23.7963 53.8036 -27.1601 72.931 -23.6C107.001 -17.5188 129.934 2.03476 141.953 34.2304C145.139 43.0285 146.707 52.3263 146.581 61.6779C146.581 67.8878 142.646 72.3903 136.959 72.9166C130.792 73.4896 126.033 69.8876 125.023 63.5608C124.154 58.111 124.142 52.4859 122.861 47.1881C120.913 38.3739 117.077 30.082 111.615 22.8787C106.153 15.6754 99.1931 9.73034 91.2114 5.44964C80.9317 -0.2879 69.2867 -3.15655 57.5054 -2.85359C43.0041 -2.82564 28.9738 2.27408 17.8665 11.5543C0.24394 26.2078 -7.49822 45.048 -6.47611 67.9229C-5.41526 91.4658 1.36973 114.401 13.2963 134.758C14.4876 136.671 15.0413 138.91 14.8783 141.154C14.7153 143.399 13.8439 145.535 12.3886 147.257C10.9333 148.98 8.96851 150.2 6.7748 150.745C4.58109 151.289 2.27064 151.13 0.173418 150.289C-2.29324 149.181 -4.37434 147.37 -5.80649 145.085C-16.9353 126.062 -24.1779 105.038 -27.118 83.2196C-27.8229 77.84 -27.9521 72.3669 -28.5513 64.6601Z" fill="#0071BB"/>
<path d="M135.399 149.527C116.999 149.442 99.0887 143.616 84.1888 132.868C69.289 122.121 58.1496 106.994 52.3382 89.6148C49.5507 81.211 48.0728 72.4316 47.9561 63.5823C47.8269 54.4721 56.0272 49.034 63.8986 52.905C65.4554 53.628 66.7956 54.7431 67.7867 56.1399C68.7778 57.5367 69.3855 59.1668 69.5496 60.8691C70.1605 65.7692 70.2427 70.7863 71.3236 75.5811C76.5986 98.9706 90.4029 115.133 112.995 123.6C122.812 127.257 133.37 128.508 143.776 127.248C145.184 127.074 146.614 127.181 147.981 127.562C149.348 127.943 150.625 128.591 151.739 129.468C152.852 130.346 153.778 131.434 154.464 132.672C155.151 133.909 155.583 135.269 155.735 136.674C156.358 143.317 152.211 148.264 145.608 148.755L135.399 149.527Z" fill="#0071BB"/>
</g>
<g opacity="0.5">
<path fill-rule="evenodd" clip-rule="evenodd" d="M331.272 -119.89C329.285 -119.89 327.11 -118.137 327.11 -115.268V95.0309C327.11 97.8997 329.285 99.6529 331.272 99.6529H472.728C474.715 99.6529 476.89 97.8997 476.89 95.0309V-115.268C476.89 -118.137 474.715 -119.89 472.728 -119.89H331.272ZM304 -115.268C304 -130.268 315.899 -143 331.272 -143H472.728C488.101 -143 500 -130.268 500 -115.268V95.0309C500 110.031 488.101 122.763 472.728 122.763H331.272C315.899 122.763 304 110.031 304 95.0309V-115.268Z" fill="#0071BB"/>
<path d="M418.512 71.8125C418.512 80.9781 411.293 88.4083 402.387 88.4083C393.482 88.4083 386.263 80.9781 386.263 71.8125C386.263 62.647 393.482 55.2168 402.387 55.2168C411.293 55.2168 418.512 62.647 418.512 71.8125Z" fill="#0071BB"/>
</g>
<g opacity="0.5">
<path fill-rule="evenodd" clip-rule="evenodd" d="M711.972 293.877C711.131 287.781 706.294 283.936 701.368 283.986L701.261 283.987H669.595C666.787 283.991 663.987 285.226 661.923 287.594C659.854 289.968 658.753 293.243 659.027 296.63C662.344 329.213 672.934 360.494 689.914 387.943L689.961 388.02C705.388 413.447 725.947 434.963 750.149 451.07L750.231 451.125C776.231 468.783 805.783 479.794 836.518 483.311C839.298 483.55 842.141 482.579 844.352 480.455C846.607 478.288 847.983 475.114 847.97 471.676L847.97 471.636V438.465C847.97 438.382 847.971 438.299 847.973 438.216C848.122 431.926 843.803 427.164 838.809 426.405C827.873 424.89 817.141 422.087 806.818 418.052L806.793 418.043C803.123 416.598 798.908 417.451 795.927 420.525L782.541 434.543C779.163 438.082 773.787 438.816 769.584 436.313C741.491 419.583 718.293 395.26 702.386 365.962C700.211 361.957 700.871 357.006 704.018 353.709L717.403 339.692C720.415 336.488 721.481 331.561 719.89 327.128L719.882 327.105C716.057 316.371 713.405 305.224 711.972 293.877ZM701.212 263.001C717.446 262.866 730.636 275.266 732.774 291.11L732.786 291.202C734.028 301.063 736.33 310.741 739.646 320.051C743.847 331.769 741.209 345.046 732.644 354.117L732.604 354.159L724.602 362.54C737.067 383.217 753.703 400.723 773.293 413.841L780.812 405.966C789.549 396.918 802.714 393.891 814.466 398.51C823.278 401.953 832.427 404.339 841.739 405.625L841.837 405.639C858.013 408.029 869.272 422.489 868.955 438.578V471.618C868.984 480.625 865.394 489.339 858.892 495.587C852.363 501.86 843.495 505.051 834.458 504.196C834.43 504.193 834.401 504.19 834.373 504.187C834.335 504.183 834.298 504.179 834.261 504.175C800.078 500.285 767.274 488.059 738.48 468.512C711.695 450.677 689.023 426.917 672.043 398.944C653.366 368.737 641.761 334.381 638.139 298.658L638.125 298.501C637.352 289.548 640.194 280.585 646.103 273.806C652.03 267.006 660.532 263.012 669.576 263.001L669.588 263.001L701.212 263.001Z" fill="#0071BB"/>
</g>
<g opacity="0.5">
<path fill-rule="evenodd" clip-rule="evenodd" d="M138.006 419.877C138.947 416.501 138.995 411.487 135.463 407.277L53.1339 309.161C49.601 304.951 44.6551 304.128 41.1667 304.469C37.6188 304.815 34.3682 306.357 31.8139 308.501L-56.7386 382.805C-66.2718 390.804 -67.5153 405.017 -59.516 414.55L12.1129 499.914C20.1122 509.448 34.3251 510.691 43.8582 502.692L132.411 428.387C134.965 426.244 137.048 423.311 138.006 419.877ZM114.968 415.57L30.3398 486.581C29.7043 487.114 28.7568 487.031 28.2235 486.396L-43.4054 401.032C-43.9386 400.396 -43.8558 399.449 -43.2202 398.916L41.4076 327.904L114.968 415.57Z" fill="#0071BB"/>
<path fill-rule="evenodd" clip-rule="evenodd" d="M193.341 366.007C201.437 359.213 202.493 347.143 195.7 339.047L132.37 263.573C125.577 255.477 113.506 254.421 105.41 261.215L34.1458 321.013L122.077 425.804L193.341 366.007ZM178.371 351.114L124.669 396.175L63.7748 323.605L117.477 278.543L178.371 351.114Z" fill="#0071BB"/>
<path fill-rule="evenodd" clip-rule="evenodd" d="M134.056 339.266L131.481 336.197C130.589 335.134 128.52 335.401 126.86 336.794L88.3558 369.103L94.161 376.022L132.665 343.713C134.326 342.32 134.948 340.329 134.056 339.266Z" fill="#0071BB"/>
<path fill-rule="evenodd" clip-rule="evenodd" d="M122.453 325.412L119.877 322.343C118.985 321.28 116.917 321.548 115.256 322.941L76.752 355.25L82.5572 362.168L121.062 329.859C122.722 328.466 123.345 326.475 122.453 325.412Z" fill="#0071BB"/>
<path fill-rule="evenodd" clip-rule="evenodd" d="M152.575 347.292L150 344.223C149.108 343.16 147.046 343.422 145.394 344.808L99.9564 382.935L105.762 389.853L151.199 351.727C152.851 350.341 153.467 348.355 152.575 347.292Z" fill="#0071BB"/>
<path fill-rule="evenodd" clip-rule="evenodd" d="M117.764 305.782L115.189 302.713C114.297 301.65 112.234 301.912 110.582 303.299L65.1449 341.425L70.9501 348.344L116.388 310.217C118.04 308.831 118.656 306.845 117.764 305.782Z" fill="#0071BB"/>
</g>
<g opacity="0.5">
<path fill-rule="evenodd" clip-rule="evenodd" d="M308.608 344.946C307.69 344.946 306.946 345.69 306.946 346.608V383.867H496.428V346.608C496.428 345.69 495.684 344.946 494.766 344.946H308.608ZM516.374 346.608C516.374 334.674 506.7 325 494.766 325H308.608C296.674 325 287 334.674 287 346.608V476.392C287 488.326 296.674 498 308.608 498H494.766C506.7 498 516.374 488.326 516.374 476.392V346.608ZM496.428 403.813H306.946V476.392C306.946 477.31 307.69 478.054 308.608 478.054H494.766C495.684 478.054 496.428 477.31 496.428 476.392V403.813Z" fill="#0071BB"/>
</g>
</g>
</g>
<defs>
<clipPath id="clip0_502_11633">
<rect width="804" height="452" fill="white"/>
</clipPath>
</defs>
</svg>
