<svg width="804" height="452" viewBox="0 0 804 452" fill="none" xmlns="http://www.w3.org/2000/svg">
<g clip-path="url(#clip0_502_9448)">
<rect width="804" height="452" fill="#205493"/>
<g opacity="0.5">
<path fill-rule="evenodd" clip-rule="evenodd" d="M238.769 401.606C237.955 398.177 237.51 392.336 241.092 386.579L396.505 136.772C400.087 131.015 405.523 128.832 408.958 128.047C412.339 127.275 415.452 127.415 417.605 127.651C421.999 128.133 426.617 129.526 430.787 131.078C439.399 134.284 449.832 139.593 460.314 146.114L1278.81 655.329C1299.08 667.938 1305.29 694.589 1292.68 714.857L1155.7 935.039C1143.09 955.307 1116.44 961.515 1096.17 948.906L277.671 439.691C267.188 433.17 257.816 426.157 251.134 419.848C247.899 416.793 244.608 413.266 242.234 409.537C241.071 407.711 239.57 404.98 238.769 401.606ZM276.069 395.811C280.665 399.947 287.565 405.126 295.935 410.333L1114.44 919.548C1118.49 922.07 1123.82 920.828 1126.34 916.775L1263.32 696.592C1265.85 692.539 1264.6 687.208 1260.55 684.687L442.05 175.472C433.679 170.264 425.985 166.364 420.243 164.068L276.069 395.811Z" fill="#192D4E"/>
<path fill-rule="evenodd" clip-rule="evenodd" d="M93.9039 302.063C76.5109 291.242 71.1831 268.37 82.0038 250.977L201.552 58.8179C212.373 41.4249 235.245 36.097 252.638 46.9178L428.25 156.172L269.516 411.317L93.9039 302.063ZM111.361 269.242C110.628 270.421 110.989 271.972 112.168 272.705L258.423 363.695L380.628 167.265L234.373 76.2755C233.194 75.5419 231.644 75.9031 230.91 77.0823L111.361 269.242Z" fill="#192D4E"/>
<path fill-rule="evenodd" clip-rule="evenodd" d="M216.382 227.831L221.243 220.017C222.927 217.311 227.718 217.249 231.945 219.878L329.979 280.868L319.021 298.483L220.986 237.493C216.759 234.863 214.698 230.538 216.382 227.831Z" fill="#192D4E"/>
<path fill-rule="evenodd" clip-rule="evenodd" d="M238.299 192.604L243.16 184.79C244.844 182.084 249.636 182.021 253.862 184.651L351.897 245.641L340.938 263.256L242.904 202.266C238.677 199.636 236.615 195.31 238.299 192.604Z" fill="#192D4E"/>
<path fill-rule="evenodd" clip-rule="evenodd" d="M176.854 252.102L181.716 244.288C183.399 241.581 188.174 241.509 192.38 244.125L308.067 316.098L297.108 333.712L181.421 261.74C177.215 259.123 175.171 254.808 176.854 252.102Z" fill="#192D4E"/>
<path fill-rule="evenodd" clip-rule="evenodd" d="M242.604 146.415L247.465 138.601C249.149 135.895 253.924 135.822 258.13 138.439L373.816 210.411L362.858 228.026L247.171 156.053C242.965 153.437 240.92 149.121 242.604 146.415Z" fill="#192D4E"/>
<path d="M577.258 350.347C587.667 395.031 559.658 439.927 514.434 450.462C469.21 460.997 424.243 433.1 413.835 388.416C403.426 343.732 431.435 298.836 476.659 288.302C521.883 277.767 566.849 305.664 577.258 350.347Z" stroke="#192D4E" stroke-width="32"/>
</g>
<path d="M259.514 271.32C258.362 271.32 257.237 271.176 256.138 270.888C255.039 270.6 254.037 270.168 253.13 269.592C252.223 269.016 251.477 268.296 250.89 267.432C250.314 266.568 249.967 265.555 249.85 264.392H254.634C254.794 265.096 255.098 265.688 255.546 266.168C256.005 266.648 256.591 267.016 257.306 267.272C258.031 267.528 258.858 267.656 259.786 267.656C260.522 267.656 261.221 267.549 261.882 267.336C262.543 267.123 263.082 266.797 263.498 266.36C263.914 265.923 264.122 265.373 264.122 264.712C264.122 263.923 263.834 263.331 263.258 262.936C262.682 262.531 261.898 262.211 260.906 261.976L256.57 261.032C255.343 260.776 254.271 260.381 253.354 259.848C252.447 259.304 251.749 258.6 251.258 257.736C250.767 256.861 250.522 255.8 250.522 254.552C250.522 253.112 250.917 251.869 251.706 250.824C252.506 249.779 253.589 248.979 254.954 248.424C256.33 247.859 257.871 247.576 259.578 247.576C261.509 247.576 263.135 247.891 264.458 248.52C265.791 249.139 266.81 249.981 267.514 251.048C268.218 252.104 268.575 253.283 268.586 254.584H263.914C263.829 253.784 263.583 253.144 263.178 252.664C262.773 252.173 262.25 251.821 261.61 251.608C260.981 251.384 260.261 251.272 259.45 251.272C258.053 251.272 257.034 251.555 256.394 252.12C255.754 252.685 255.434 253.341 255.434 254.088C255.434 254.792 255.674 255.363 256.154 255.8C256.645 256.227 257.429 256.552 258.506 256.776L262.522 257.64C264.015 257.928 265.226 258.387 266.154 259.016C267.082 259.635 267.759 260.387 268.186 261.272C268.613 262.157 268.826 263.149 268.826 264.248C268.826 265.645 268.426 266.877 267.626 267.944C266.837 269 265.743 269.827 264.346 270.424C262.949 271.021 261.338 271.32 259.514 271.32ZM279.819 271.32C278.176 271.32 276.731 270.979 275.483 270.296C274.245 269.603 273.28 268.627 272.587 267.368C271.893 266.109 271.547 264.627 271.547 262.92C271.547 261.267 271.861 259.779 272.491 258.456C273.131 257.123 274.048 256.072 275.243 255.304C276.437 254.525 277.883 254.136 279.579 254.136C281.264 254.136 282.677 254.493 283.819 255.208C284.96 255.912 285.824 256.899 286.411 258.168C286.997 259.427 287.291 260.883 287.291 262.536V263.8H276.171C276.171 264.643 276.309 265.379 276.587 266.008C276.864 266.627 277.264 267.107 277.787 267.448C278.32 267.779 278.96 267.944 279.707 267.944C280.507 267.944 281.205 267.773 281.803 267.432C282.4 267.091 282.821 266.531 283.067 265.752H287.275C287.083 266.925 286.613 267.928 285.867 268.76C285.12 269.592 284.213 270.227 283.147 270.664C282.08 271.101 280.971 271.32 279.819 271.32ZM276.171 261.016H282.923C282.923 260.355 282.795 259.747 282.539 259.192C282.293 258.637 281.92 258.2 281.419 257.88C280.928 257.56 280.309 257.4 279.563 257.4C278.848 257.4 278.235 257.576 277.723 257.928C277.221 258.269 276.832 258.717 276.555 259.272C276.288 259.827 276.16 260.408 276.171 261.016ZM297.856 271.32C296.32 271.32 294.95 270.979 293.744 270.296C292.539 269.613 291.59 268.637 290.896 267.368C290.214 266.088 289.872 264.563 289.872 262.792C289.872 261.085 290.203 259.581 290.864 258.28C291.526 256.979 292.454 255.965 293.648 255.24C294.854 254.504 296.256 254.136 297.856 254.136C299.243 254.136 300.438 254.419 301.44 254.984C302.454 255.549 303.248 256.312 303.824 257.272C304.411 258.232 304.747 259.304 304.832 260.488H300.944C300.87 260.051 300.715 259.619 300.48 259.192C300.246 258.755 299.915 258.397 299.488 258.12C299.062 257.832 298.528 257.688 297.888 257.688C296.8 257.688 295.915 258.109 295.232 258.952C294.56 259.784 294.224 261.053 294.224 262.76C294.224 264.371 294.555 265.651 295.216 266.6C295.878 267.539 296.8 268.008 297.984 268.008C298.614 268.008 299.136 267.853 299.552 267.544C299.979 267.235 300.31 266.867 300.544 266.44C300.779 266.003 300.928 265.597 300.992 265.224H304.784C304.71 266.365 304.379 267.4 303.792 268.328C303.206 269.245 302.406 269.976 301.392 270.52C300.39 271.053 299.211 271.32 297.856 271.32ZM314.127 271.32C313.359 271.32 312.602 271.203 311.855 270.968C311.119 270.733 310.447 270.387 309.839 269.928C309.231 269.469 308.741 268.904 308.367 268.232C308.005 267.56 307.823 266.781 307.823 265.896V254.456H312.495V265.304C312.495 266.072 312.746 266.701 313.247 267.192C313.749 267.683 314.485 267.928 315.455 267.928C316.373 267.928 317.098 267.693 317.631 267.224C318.175 266.744 318.447 266.077 318.447 265.224V254.456H323.071V271H319.551L319.007 267.72C318.815 268.691 318.453 269.437 317.919 269.96C317.397 270.472 316.794 270.824 316.111 271.016C315.439 271.219 314.778 271.32 314.127 271.32ZM327.156 271V254.456H331.652V258.376C331.919 257.533 332.292 256.797 332.772 256.168C333.263 255.528 333.855 255.032 334.548 254.68C335.242 254.317 336.026 254.136 336.9 254.136C337.05 254.136 337.188 254.147 337.316 254.168C337.455 254.179 337.556 254.2 337.62 254.232V258.68C337.524 258.637 337.407 258.611 337.268 258.6C337.14 258.589 337.023 258.579 336.916 258.568C335.999 258.493 335.215 258.52 334.564 258.648C333.914 258.776 333.386 258.995 332.98 259.304C332.575 259.613 332.282 259.992 332.1 260.44C331.919 260.888 331.828 261.389 331.828 261.944V271H327.156ZM340.392 271V254.456H344.856V271H340.392ZM340.344 252.088V247.88H344.888V252.088H340.344ZM356.011 271.176C354.55 271.176 353.419 270.989 352.619 270.616C351.83 270.243 351.28 269.72 350.971 269.048C350.672 268.376 350.523 267.597 350.523 266.712V257.704H347.835V254.456H350.667L351.851 249.464H355.179V254.44H358.859V257.704H355.179L355.211 266.52C355.211 266.925 355.259 267.229 355.355 267.432C355.462 267.624 355.622 267.752 355.835 267.816C356.059 267.869 356.342 267.896 356.683 267.896H358.907V270.776C358.683 270.872 358.347 270.963 357.899 271.048C357.451 271.133 356.822 271.176 356.011 271.176ZM364.78 276.28C363.649 276.28 362.849 276.184 362.38 275.992C361.91 275.811 361.676 275.72 361.676 275.72V272.744L363.324 272.808C364.038 272.851 364.614 272.813 365.052 272.696C365.489 272.589 365.82 272.445 366.044 272.264C366.268 272.083 366.428 271.891 366.524 271.688C366.63 271.496 366.705 271.341 366.748 271.224L367.052 270.312L360.62 254.456H365.244L369.212 265.24L373.212 254.456H377.788L371.084 271.096C370.508 272.504 369.894 273.581 369.244 274.328C368.604 275.075 367.91 275.587 367.164 275.864C366.428 276.141 365.633 276.28 364.78 276.28ZM387.811 271V247.864H392.659V258.456L401.091 247.864H406.451L399.427 256.824L407.299 271H402.211L396.083 260.232L392.659 264.36V271H387.811ZM416.725 271.32C415.082 271.32 413.637 270.979 412.389 270.296C411.152 269.603 410.186 268.627 409.493 267.368C408.8 266.109 408.453 264.627 408.453 262.92C408.453 261.267 408.768 259.779 409.397 258.456C410.037 257.123 410.954 256.072 412.149 255.304C413.344 254.525 414.789 254.136 416.485 254.136C418.17 254.136 419.584 254.493 420.725 255.208C421.866 255.912 422.73 256.899 423.317 258.168C423.904 259.427 424.197 260.883 424.197 262.536V263.8H413.077C413.077 264.643 413.216 265.379 413.493 266.008C413.77 266.627 414.17 267.107 414.693 267.448C415.226 267.779 415.866 267.944 416.613 267.944C417.413 267.944 418.112 267.773 418.709 267.432C419.306 267.091 419.728 266.531 419.973 265.752H424.181C423.989 266.925 423.52 267.928 422.773 268.76C422.026 269.592 421.12 270.227 420.053 270.664C418.986 271.101 417.877 271.32 416.725 271.32ZM413.077 261.016H419.829C419.829 260.355 419.701 259.747 419.445 259.192C419.2 258.637 418.826 258.2 418.325 257.88C417.834 257.56 417.216 257.4 416.469 257.4C415.754 257.4 415.141 257.576 414.629 257.928C414.128 258.269 413.738 258.717 413.461 259.272C413.194 259.827 413.066 260.408 413.077 261.016ZM429.717 276.28C428.586 276.28 427.786 276.184 427.317 275.992C426.848 275.811 426.613 275.72 426.613 275.72V272.744L428.261 272.808C428.976 272.851 429.552 272.813 429.989 272.696C430.426 272.589 430.757 272.445 430.981 272.264C431.205 272.083 431.365 271.891 431.461 271.688C431.568 271.496 431.642 271.341 431.685 271.224L431.989 270.312L425.557 254.456H430.181L434.149 265.24L438.149 254.456H442.725L436.021 271.096C435.445 272.504 434.832 273.581 434.181 274.328C433.541 275.075 432.848 275.587 432.101 275.864C431.365 276.141 430.57 276.28 429.717 276.28ZM461.42 271.32C460.268 271.32 459.143 271.176 458.044 270.888C456.946 270.6 455.943 270.168 455.036 269.592C454.13 269.016 453.383 268.296 452.796 267.432C452.22 266.568 451.874 265.555 451.756 264.392H456.54C456.7 265.096 457.004 265.688 457.452 266.168C457.911 266.648 458.498 267.016 459.212 267.272C459.938 267.528 460.764 267.656 461.692 267.656C462.428 267.656 463.127 267.549 463.788 267.336C464.45 267.123 464.988 266.797 465.404 266.36C465.82 265.923 466.028 265.373 466.028 264.712C466.028 263.923 465.74 263.331 465.164 262.936C464.588 262.531 463.804 262.211 462.812 261.976L458.476 261.032C457.25 260.776 456.178 260.381 455.26 259.848C454.354 259.304 453.655 258.6 453.164 257.736C452.674 256.861 452.428 255.8 452.428 254.552C452.428 253.112 452.823 251.869 453.612 250.824C454.412 249.779 455.495 248.979 456.86 248.424C458.236 247.859 459.778 247.576 461.484 247.576C463.415 247.576 465.042 247.891 466.364 248.52C467.698 249.139 468.716 249.981 469.42 251.048C470.124 252.104 470.482 253.283 470.492 254.584H465.82C465.735 253.784 465.49 253.144 465.084 252.664C464.679 252.173 464.156 251.821 463.516 251.608C462.887 251.384 462.167 251.272 461.356 251.272C459.959 251.272 458.94 251.555 458.3 252.12C457.66 252.685 457.34 253.341 457.34 254.088C457.34 254.792 457.58 255.363 458.06 255.8C458.551 256.227 459.335 256.552 460.412 256.776L464.428 257.64C465.922 257.928 467.132 258.387 468.06 259.016C468.988 259.635 469.666 260.387 470.092 261.272C470.519 262.157 470.732 263.149 470.732 264.248C470.732 265.645 470.332 266.877 469.532 267.944C468.743 269 467.65 269.827 466.252 270.424C464.855 271.021 463.244 271.32 461.42 271.32ZM481.725 271.32C480.082 271.32 478.637 270.979 477.389 270.296C476.152 269.603 475.186 268.627 474.493 267.368C473.8 266.109 473.453 264.627 473.453 262.92C473.453 261.267 473.768 259.779 474.397 258.456C475.037 257.123 475.954 256.072 477.149 255.304C478.344 254.525 479.789 254.136 481.485 254.136C483.17 254.136 484.584 254.493 485.725 255.208C486.866 255.912 487.73 256.899 488.317 258.168C488.904 259.427 489.197 260.883 489.197 262.536V263.8H478.077C478.077 264.643 478.216 265.379 478.493 266.008C478.77 266.627 479.17 267.107 479.693 267.448C480.226 267.779 480.866 267.944 481.613 267.944C482.413 267.944 483.112 267.773 483.709 267.432C484.306 267.091 484.728 266.531 484.973 265.752H489.181C488.989 266.925 488.52 267.928 487.773 268.76C487.026 269.592 486.12 270.227 485.053 270.664C483.986 271.101 482.877 271.32 481.725 271.32ZM478.077 261.016H484.829C484.829 260.355 484.701 259.747 484.445 259.192C484.2 258.637 483.826 258.2 483.325 257.88C482.834 257.56 482.216 257.4 481.469 257.4C480.754 257.4 480.141 257.576 479.629 257.928C479.128 258.269 478.738 258.717 478.461 259.272C478.194 259.827 478.066 260.408 478.077 261.016ZM499.167 271.176C497.706 271.176 496.575 270.989 495.775 270.616C494.986 270.243 494.437 269.72 494.127 269.048C493.829 268.376 493.679 267.597 493.679 266.712V257.704H490.991V254.456H493.823L495.007 249.464H498.335V254.44H502.015V257.704H498.335L498.367 266.52C498.367 266.925 498.415 267.229 498.511 267.432C498.618 267.624 498.778 267.752 498.991 267.816C499.215 267.869 499.498 267.896 499.839 267.896H502.063V270.776C501.839 270.872 501.503 270.963 501.055 271.048C500.607 271.133 499.978 271.176 499.167 271.176ZM511.284 271.32C510.516 271.32 509.758 271.203 509.012 270.968C508.276 270.733 507.604 270.387 506.996 269.928C506.388 269.469 505.897 268.904 505.524 268.232C505.161 267.56 504.98 266.781 504.98 265.896V254.456H509.652V265.304C509.652 266.072 509.902 266.701 510.404 267.192C510.905 267.683 511.641 267.928 512.612 267.928C513.529 267.928 514.254 267.693 514.788 267.224C515.332 266.744 515.604 266.077 515.604 265.224V254.456H520.228V271H516.708L516.164 267.72C515.972 268.691 515.609 269.437 515.076 269.96C514.553 270.472 513.95 270.824 513.268 271.016C512.596 271.219 511.934 271.32 511.284 271.32ZM524.312 276.152V254.456H529.001L529.017 256.84C529.262 256.445 529.561 256.088 529.913 255.768C530.275 255.437 530.675 255.149 531.113 254.904C531.55 254.659 532.025 254.472 532.537 254.344C533.049 254.205 533.587 254.136 534.153 254.136C535.379 254.136 536.473 254.44 537.433 255.048C538.393 255.645 539.145 256.573 539.689 257.832C540.243 259.08 540.521 260.669 540.521 262.6C540.521 264.605 540.222 266.253 539.625 267.544C539.038 268.824 538.227 269.773 537.193 270.392C536.158 271.011 534.99 271.32 533.689 271.32C533.155 271.32 532.654 271.245 532.185 271.096C531.715 270.957 531.278 270.76 530.873 270.504C530.478 270.248 530.121 269.955 529.801 269.624C529.491 269.283 529.219 268.915 528.985 268.52V276.152H524.312ZM532.569 267.896C533.582 267.896 534.43 267.475 535.113 266.632C535.806 265.789 536.153 264.456 536.153 262.632C536.153 261.032 535.822 259.784 535.161 258.888C534.51 257.981 533.646 257.528 532.569 257.528C531.363 257.528 530.462 258.019 529.865 259C529.278 259.971 528.985 261.181 528.985 262.632C528.985 263.56 529.113 264.424 529.369 265.224C529.635 266.024 530.03 266.669 530.553 267.16C531.086 267.651 531.758 267.896 532.569 267.896Z" fill="#CEDCED"/>
<path d="M609.444 182.576L598.19 213.302L586.992 182.576H577.033L593.155 223.3H602.711L619 182.576H609.444Z" fill="white"/>
<path fill-rule="evenodd" clip-rule="evenodd" d="M528.667 203C528.667 191.069 538.181 182.286 550.701 182.286C563.248 182.286 572.748 191.303 572.748 203C572.748 214.697 563.234 223.714 550.701 223.714C538.167 223.714 528.667 214.931 528.667 203ZM538.181 202.945C538.143 209.928 543.806 215.624 550.84 215.677C554.185 215.648 557.379 214.292 559.71 211.91C562.041 209.529 563.315 206.32 563.248 203C563.318 199.678 562.046 196.465 559.715 194.081C557.383 191.696 554.187 190.338 550.84 190.309C547.467 190.298 544.23 191.628 541.852 194.002C539.473 196.376 538.152 199.596 538.181 202.945Z" fill="white"/>
<path d="M502.279 190.254C506.462 190.357 510.464 191.973 513.532 194.797L518.749 188.224C514.125 184.398 508.299 182.297 502.279 182.286C489.496 182.286 479.897 191.193 479.897 203C479.897 214.807 489.343 223.714 501.764 223.714C507.733 223.615 513.539 221.771 518.457 218.411V200.901H503.197V208.096H510.361V213.468C507.888 214.797 505.144 215.552 502.335 215.677C497.659 215.83 493.272 213.441 490.889 209.445C488.505 205.449 488.505 200.481 490.889 196.486C493.272 192.49 497.659 190.101 502.335 190.254H502.279Z" fill="white"/>
<path d="M467.503 213.026C466.084 212.989 464.715 213.542 463.724 214.552C462.734 215.561 462.213 216.935 462.287 218.342C462.187 220.254 463.158 222.064 464.811 223.049C466.464 224.034 468.529 224.034 470.182 223.049C471.835 222.064 472.805 220.254 472.706 218.342C472.793 216.934 472.278 215.555 471.288 214.543C470.297 213.531 468.924 212.98 467.503 213.026Z" fill="white"/>
<path d="M441.255 208.759L421.321 182.576H412.878V223.3H421.725V197.186L441.603 223.3H450.032V182.576H441.255V208.759Z" fill="white"/>
<rect x="389.383" y="182.576" width="9.26422" height="40.7243" fill="white"/>
<path d="M359.908 190.254C364.091 190.357 368.093 191.973 371.161 194.797L376.377 188.224C371.753 184.398 365.927 182.297 359.908 182.286C347.124 182.286 337.512 191.193 337.512 203C337.512 214.807 346.957 223.714 359.379 223.714C365.348 223.615 371.154 221.771 376.071 218.411V200.901H360.826V208.096H367.99V213.468C365.517 214.797 362.773 215.552 359.963 215.677C355.288 215.83 350.901 213.441 348.517 209.445C346.134 205.449 346.134 200.481 348.517 196.486C350.901 192.49 355.288 190.101 359.963 190.254H359.908Z" fill="white"/>
<path fill-rule="evenodd" clip-rule="evenodd" d="M284.639 203C284.639 191.069 294.154 182.286 306.673 182.286C319.22 182.286 328.707 191.303 328.707 203C328.707 214.697 319.22 223.714 306.673 223.714C294.126 223.714 284.639 214.931 284.639 203ZM294.126 203C294.118 209.962 299.772 215.624 306.784 215.677C310.134 215.656 313.335 214.302 315.672 211.92C318.009 209.538 319.287 206.325 319.22 203C319.276 199.682 317.993 196.48 315.657 194.107C313.321 191.733 310.127 190.386 306.784 190.364C303.412 190.353 300.175 191.683 297.796 194.057C295.418 196.431 294.096 199.652 294.126 203Z" fill="white"/>
<path d="M260.463 182.576H251.199V223.3H278.046V215.277H260.463V182.576Z" fill="white"/>
<path opacity="0.6" d="M224.547 174H207.98V232C223.698 225.095 229.193 216.147 230.584 213.357C230.845 212.824 230.979 212.238 230.973 211.645V180.38C230.973 178.688 230.296 177.065 229.091 175.869C227.886 174.672 226.251 174 224.547 174Z" fill="white"/>
<path d="M191.427 174C187.877 174 185 176.856 185 180.38V211.645C184.995 212.238 185.128 212.824 185.39 213.357C186.781 216.119 192.345 225.137 207.98 232V174H191.427Z" fill="white"/>
<path d="M212.056 198.995C214.241 197.289 215.096 194.395 214.186 191.786C213.277 189.178 210.802 187.429 208.022 187.429C205.241 187.429 202.766 189.178 201.857 191.786C200.947 194.395 201.803 197.289 203.988 198.995C203.264 203.055 202.55 207.115 201.845 211.175C203.872 211.522 205.924 211.698 207.98 211.7C210.065 211.742 212.15 211.603 214.212 211.286C213.488 207.143 212.821 203.083 212.056 198.995Z" fill="#205493"/>
</g>
<defs>
<clipPath id="clip0_502_9448">
<rect width="804" height="452" fill="white"/>
</clipPath>
</defs>
</svg>
