<svg width="804" height="452" viewBox="0 0 804 452" fill="none" xmlns="http://www.w3.org/2000/svg">
<g clip-path="url(#clip0_516_9809)">
<rect width="804" height="452" fill="#8B0A21"/>
<path fill-rule="evenodd" clip-rule="evenodd" d="M428.292 -84C456.78 -84 479.875 -60.9054 479.875 -32.4167V148.125H660.417C688.905 148.125 712 171.22 712 199.708V251.292C712 279.78 688.905 302.875 660.417 302.875H479.875V483.417C479.875 511.905 456.78 535 428.292 535H376.708C348.22 535 325.125 511.905 325.125 483.417V302.875H144.583C116.095 302.875 93 279.78 93 251.292V199.708C93 171.22 116.095 148.125 144.583 148.125H325.125V-32.4167C325.125 -60.9054 348.22 -84 376.708 -84H428.292Z" fill="#680617"/>
<path d="M250.592 271V247.864H255.248V257.144H265.376V247.864H270.048V271H265.376V261.064H255.248V271H250.592ZM281.788 271.32C280.145 271.32 278.7 270.979 277.452 270.296C276.214 269.603 275.249 268.627 274.556 267.368C273.862 266.109 273.516 264.627 273.516 262.92C273.516 261.267 273.83 259.779 274.46 258.456C275.1 257.123 276.017 256.072 277.212 255.304C278.406 254.525 279.852 254.136 281.548 254.136C283.233 254.136 284.646 254.493 285.788 255.208C286.929 255.912 287.793 256.899 288.38 258.168C288.966 259.427 289.26 260.883 289.26 262.536V263.8H278.14C278.14 264.643 278.278 265.379 278.556 266.008C278.833 266.627 279.233 267.107 279.756 267.448C280.289 267.779 280.929 267.944 281.676 267.944C282.476 267.944 283.174 267.773 283.772 267.432C284.369 267.091 284.79 266.531 285.036 265.752H289.244C289.052 266.925 288.582 267.928 287.836 268.76C287.089 269.592 286.182 270.227 285.116 270.664C284.049 271.101 282.94 271.32 281.788 271.32ZM278.14 261.016H284.892C284.892 260.355 284.764 259.747 284.508 259.192C284.262 258.637 283.889 258.2 283.388 257.88C282.897 257.56 282.278 257.4 281.532 257.4C280.817 257.4 280.204 257.576 279.692 257.928C279.19 258.269 278.801 258.717 278.524 259.272C278.257 259.827 278.129 260.408 278.14 261.016ZM297.905 271.288C296.689 271.288 295.724 271.144 295.009 270.856C294.294 270.568 293.766 270.189 293.425 269.72C293.084 269.24 292.865 268.712 292.769 268.136C292.673 267.549 292.625 266.957 292.625 266.36V247.224H297.201V265.784C297.201 266.392 297.329 266.888 297.585 267.272C297.852 267.645 298.348 267.875 299.073 267.96L299.857 268.008V270.888C299.537 270.995 299.212 271.085 298.881 271.16C298.55 271.245 298.225 271.288 297.905 271.288ZM303 276.152V254.456H307.688L307.704 256.84C307.949 256.445 308.248 256.088 308.6 255.768C308.963 255.437 309.363 255.149 309.8 254.904C310.237 254.659 310.712 254.472 311.224 254.344C311.736 254.205 312.275 254.136 312.84 254.136C314.067 254.136 315.16 254.44 316.12 255.048C317.08 255.645 317.832 256.573 318.376 257.832C318.931 259.08 319.208 260.669 319.208 262.6C319.208 264.605 318.909 266.253 318.312 267.544C317.725 268.824 316.915 269.773 315.88 270.392C314.845 271.011 313.677 271.32 312.376 271.32C311.843 271.32 311.341 271.245 310.872 271.096C310.403 270.957 309.965 270.76 309.56 270.504C309.165 270.248 308.808 269.955 308.488 269.624C308.179 269.283 307.907 268.915 307.672 268.52V276.152H303ZM311.256 267.896C312.269 267.896 313.117 267.475 313.8 266.632C314.493 265.789 314.84 264.456 314.84 262.632C314.84 261.032 314.509 259.784 313.848 258.888C313.197 257.981 312.333 257.528 311.256 257.528C310.051 257.528 309.149 258.019 308.552 259C307.965 259.971 307.672 261.181 307.672 262.632C307.672 263.56 307.8 264.424 308.056 265.224C308.323 266.024 308.717 266.669 309.24 267.16C309.773 267.651 310.445 267.896 311.256 267.896ZM339.579 271.32C337.424 271.32 335.563 270.819 333.995 269.816C332.427 268.813 331.216 267.405 330.363 265.592C329.52 263.779 329.099 261.661 329.099 259.24C329.099 256.808 329.52 254.723 330.363 252.984C331.205 251.235 332.411 249.891 333.979 248.952C335.547 248.013 337.413 247.544 339.579 247.544C341.317 247.544 342.864 247.896 344.219 248.6C345.584 249.293 346.683 250.243 347.515 251.448C348.357 252.653 348.853 254.013 349.003 255.528H344.107C343.957 254.728 343.685 254.019 343.291 253.4C342.896 252.771 342.379 252.28 341.739 251.928C341.099 251.565 340.331 251.384 339.435 251.384C338.357 251.384 337.429 251.645 336.651 252.168C335.872 252.691 335.275 253.533 334.859 254.696C334.443 255.859 334.235 257.395 334.235 259.304C334.235 262.184 334.693 264.269 335.611 265.56C336.539 266.84 337.813 267.48 339.435 267.48C340.331 267.48 341.099 267.277 341.739 266.872C342.379 266.456 342.896 265.912 343.291 265.24C343.685 264.557 343.957 263.811 344.107 263H349.003C348.864 264.099 348.597 265.149 348.203 266.152C347.808 267.144 347.248 268.029 346.523 268.808C345.797 269.587 344.864 270.2 343.722 270.648C342.581 271.096 341.2 271.32 339.579 271.32ZM360.194 271.32C358.551 271.32 357.106 270.979 355.858 270.296C354.62 269.603 353.655 268.627 352.962 267.368C352.268 266.109 351.922 264.627 351.922 262.92C351.922 261.267 352.236 259.779 352.866 258.456C353.506 257.123 354.423 256.072 355.618 255.304C356.812 254.525 358.258 254.136 359.954 254.136C361.639 254.136 363.052 254.493 364.194 255.208C365.335 255.912 366.199 256.899 366.786 258.168C367.372 259.427 367.666 260.883 367.666 262.536V263.8H356.546C356.546 264.643 356.684 265.379 356.962 266.008C357.239 266.627 357.639 267.107 358.162 267.448C358.695 267.779 359.335 267.944 360.082 267.944C360.882 267.944 361.58 267.773 362.178 267.432C362.775 267.091 363.196 266.531 363.442 265.752H367.65C367.458 266.925 366.988 267.928 366.242 268.76C365.495 269.592 364.588 270.227 363.522 270.664C362.455 271.101 361.346 271.32 360.194 271.32ZM356.546 261.016H363.298C363.298 260.355 363.17 259.747 362.914 259.192C362.668 258.637 362.295 258.2 361.794 257.88C361.303 257.56 360.684 257.4 359.938 257.4C359.223 257.4 358.61 257.576 358.098 257.928C357.596 258.269 357.207 258.717 356.93 259.272C356.663 259.827 356.535 260.408 356.546 261.016ZM371.031 271V254.456H375.623V256.792C375.879 256.387 376.21 255.997 376.615 255.624C377.031 255.24 377.554 254.925 378.183 254.68C378.813 254.435 379.559 254.312 380.423 254.312C381.437 254.312 382.381 254.509 383.255 254.904C384.141 255.299 384.855 255.923 385.399 256.776C385.943 257.619 386.215 258.723 386.215 260.088V271H381.543V260.664C381.543 259.768 381.277 259.096 380.743 258.648C380.21 258.2 379.559 257.976 378.791 257.976C378.279 257.976 377.783 258.067 377.303 258.248C376.834 258.429 376.45 258.701 376.151 259.064C375.853 259.427 375.703 259.875 375.703 260.408V271H371.031ZM396.542 271.176C395.081 271.176 393.95 270.989 393.15 270.616C392.361 270.243 391.812 269.72 391.502 269.048C391.204 268.376 391.054 267.597 391.054 266.712V257.704H388.366V254.456H391.198L392.382 249.464H395.71V254.44H399.39V257.704H395.71L395.742 266.52C395.742 266.925 395.79 267.229 395.886 267.432C395.993 267.624 396.153 267.752 396.366 267.816C396.59 267.869 396.873 267.896 397.214 267.896H399.438V270.776C399.214 270.872 398.878 270.963 398.43 271.048C397.982 271.133 397.353 271.176 396.542 271.176ZM409.788 271.32C408.145 271.32 406.7 270.979 405.452 270.296C404.214 269.603 403.249 268.627 402.556 267.368C401.862 266.109 401.516 264.627 401.516 262.92C401.516 261.267 401.83 259.779 402.46 258.456C403.1 257.123 404.017 256.072 405.212 255.304C406.406 254.525 407.852 254.136 409.548 254.136C411.233 254.136 412.646 254.493 413.788 255.208C414.929 255.912 415.793 256.899 416.38 258.168C416.966 259.427 417.26 260.883 417.26 262.536V263.8H406.14C406.14 264.643 406.278 265.379 406.556 266.008C406.833 266.627 407.233 267.107 407.756 267.448C408.289 267.779 408.929 267.944 409.676 267.944C410.476 267.944 411.174 267.773 411.772 267.432C412.369 267.091 412.79 266.531 413.036 265.752H417.244C417.052 266.925 416.582 267.928 415.836 268.76C415.089 269.592 414.182 270.227 413.116 270.664C412.049 271.101 410.94 271.32 409.788 271.32ZM406.14 261.016H412.892C412.892 260.355 412.764 259.747 412.508 259.192C412.262 258.637 411.889 258.2 411.388 257.88C410.897 257.56 410.278 257.4 409.532 257.4C408.817 257.4 408.204 257.576 407.692 257.928C407.19 258.269 406.801 258.717 406.524 259.272C406.257 259.827 406.129 260.408 406.14 261.016ZM420.625 271V254.456H425.121V258.376C425.388 257.533 425.761 256.797 426.241 256.168C426.732 255.528 427.324 255.032 428.017 254.68C428.71 254.317 429.494 254.136 430.369 254.136C430.518 254.136 430.657 254.147 430.785 254.168C430.924 254.179 431.025 254.2 431.089 254.232V258.68C430.993 258.637 430.876 258.611 430.737 258.6C430.609 258.589 430.492 258.579 430.385 258.568C429.468 258.493 428.684 258.52 428.033 258.648C427.382 258.776 426.854 258.995 426.449 259.304C426.044 259.613 425.75 259.992 425.569 260.44C425.388 260.888 425.297 261.389 425.297 261.944V271H420.625ZM441.623 271V247.864H451.383C453.229 247.864 454.738 248.157 455.911 248.744C457.085 249.331 457.949 250.147 458.503 251.192C459.058 252.227 459.335 253.421 459.335 254.776C459.335 255.992 459.143 257.021 458.759 257.864C458.386 258.696 457.89 259.389 457.271 259.944C456.663 260.499 455.997 260.952 455.271 261.304L459.575 271H454.727L450.967 262.088H446.279V271H441.623ZM446.279 258.488H450.551C451.799 258.488 452.786 258.152 453.511 257.48C454.247 256.808 454.615 255.944 454.615 254.888C454.615 253.821 454.263 252.979 453.559 252.36C452.855 251.741 451.965 251.432 450.887 251.432H446.279V258.488ZM470.319 271.32C468.676 271.32 467.231 270.979 465.983 270.296C464.745 269.603 463.78 268.627 463.087 267.368C462.393 266.109 462.047 264.627 462.047 262.92C462.047 261.267 462.361 259.779 462.991 258.456C463.631 257.123 464.548 256.072 465.743 255.304C466.937 254.525 468.383 254.136 470.079 254.136C471.764 254.136 473.177 254.493 474.319 255.208C475.46 255.912 476.324 256.899 476.911 258.168C477.497 259.427 477.791 260.883 477.791 262.536V263.8H466.671C466.671 264.643 466.809 265.379 467.087 266.008C467.364 266.627 467.764 267.107 468.287 267.448C468.82 267.779 469.46 267.944 470.207 267.944C471.007 267.944 471.705 267.773 472.303 267.432C472.9 267.091 473.321 266.531 473.567 265.752H477.775C477.583 266.925 477.113 267.928 476.367 268.76C475.62 269.592 474.713 270.227 473.647 270.664C472.58 271.101 471.471 271.32 470.319 271.32ZM466.671 261.016H473.423C473.423 260.355 473.295 259.747 473.039 259.192C472.793 258.637 472.42 258.2 471.919 257.88C471.428 257.56 470.809 257.4 470.063 257.4C469.348 257.4 468.735 257.576 468.223 257.928C467.721 258.269 467.332 258.717 467.055 259.272C466.788 259.827 466.66 260.408 466.671 261.016ZM487.412 271.32C485.194 271.32 483.466 270.557 482.228 269.032C480.991 267.496 480.372 265.363 480.372 262.632C480.372 260.904 480.623 259.405 481.124 258.136C481.626 256.867 482.367 255.885 483.348 255.192C484.33 254.488 485.53 254.136 486.948 254.136C487.546 254.136 488.1 254.205 488.612 254.344C489.135 254.472 489.61 254.653 490.036 254.888C490.463 255.123 490.836 255.395 491.156 255.704C491.476 256.013 491.738 256.344 491.94 256.696V247.224H496.628V271H493.236L492.708 267.608C492.548 268.067 492.335 268.515 492.068 268.952C491.812 269.389 491.476 269.789 491.06 270.152C490.644 270.504 490.132 270.787 489.524 271C488.927 271.213 488.223 271.32 487.412 271.32ZM488.436 267.96C489.61 267.96 490.484 267.549 491.06 266.728C491.647 265.907 491.94 264.52 491.94 262.568C491.93 261.437 491.796 260.499 491.54 259.752C491.284 259.005 490.9 258.451 490.388 258.088C489.887 257.715 489.247 257.528 488.468 257.528C487.455 257.528 486.612 257.917 485.94 258.696C485.268 259.464 484.932 260.755 484.932 262.568C484.932 264.413 485.247 265.773 485.876 266.648C486.506 267.523 487.359 267.96 488.436 267.96ZM508.225 271.32C506.582 271.32 505.137 270.979 503.889 270.296C502.652 269.603 501.686 268.627 500.993 267.368C500.3 266.109 499.953 264.627 499.953 262.92C499.953 261.267 500.268 259.779 500.897 258.456C501.537 257.123 502.454 256.072 503.649 255.304C504.844 254.525 506.289 254.136 507.985 254.136C509.67 254.136 511.084 254.493 512.225 255.208C513.366 255.912 514.23 256.899 514.817 258.168C515.404 259.427 515.697 260.883 515.697 262.536V263.8H504.577C504.577 264.643 504.716 265.379 504.993 266.008C505.27 266.627 505.67 267.107 506.193 267.448C506.726 267.779 507.366 267.944 508.113 267.944C508.913 267.944 509.612 267.773 510.209 267.432C510.806 267.091 511.228 266.531 511.473 265.752H515.681C515.489 266.925 515.02 267.928 514.273 268.76C513.526 269.592 512.62 270.227 511.553 270.664C510.486 271.101 509.377 271.32 508.225 271.32ZM504.577 261.016H511.329C511.329 260.355 511.201 259.747 510.945 259.192C510.7 258.637 510.326 258.2 509.825 257.88C509.334 257.56 508.716 257.4 507.969 257.4C507.254 257.4 506.641 257.576 506.129 257.928C505.628 258.269 505.238 258.717 504.961 259.272C504.694 259.827 504.566 260.408 504.577 261.016ZM525.687 271.32C524.535 271.32 523.426 271.133 522.359 270.76C521.303 270.376 520.402 269.779 519.655 268.968C518.919 268.147 518.455 267.085 518.263 265.784H522.295C522.445 266.371 522.701 266.835 523.063 267.176C523.437 267.517 523.858 267.763 524.327 267.912C524.797 268.051 525.245 268.12 525.671 268.12C526.567 268.12 527.287 267.981 527.831 267.704C528.386 267.416 528.663 266.979 528.663 266.392C528.663 265.944 528.498 265.587 528.167 265.32C527.847 265.053 527.314 264.851 526.567 264.712L523.655 264.104C522.194 263.795 521.015 263.272 520.119 262.536C519.234 261.789 518.786 260.733 518.775 259.368C518.765 258.376 519.021 257.485 519.543 256.696C520.077 255.907 520.861 255.283 521.895 254.824C522.941 254.365 524.215 254.136 525.719 254.136C527.757 254.136 529.383 254.584 530.599 255.48C531.826 256.376 532.45 257.64 532.471 259.272H528.567C528.45 258.632 528.13 258.141 527.607 257.8C527.095 257.448 526.445 257.272 525.655 257.272C524.855 257.272 524.194 257.416 523.671 257.704C523.149 257.992 522.887 258.429 522.887 259.016C522.887 259.453 523.101 259.8 523.527 260.056C523.954 260.301 524.615 260.515 525.511 260.696L528.199 261.304C529.127 261.528 529.879 261.837 530.455 262.232C531.042 262.616 531.495 263.037 531.815 263.496C532.135 263.955 532.354 264.419 532.471 264.888C532.599 265.347 532.663 265.763 532.663 266.136C532.663 267.235 532.37 268.173 531.783 268.952C531.197 269.72 530.381 270.307 529.335 270.712C528.29 271.117 527.074 271.32 525.687 271.32ZM535.954 271V254.456H540.418V271H535.954ZM535.906 252.088V247.88H540.45V252.088H535.906ZM551.993 276.472C549.049 276.472 546.809 276.099 545.273 275.352C543.747 274.605 542.985 273.624 542.985 272.408C542.985 271.843 543.129 271.368 543.417 270.984C543.715 270.6 544.062 270.296 544.457 270.072C544.862 269.837 545.23 269.661 545.561 269.544C545.902 269.416 546.115 269.331 546.201 269.288C546.03 269.192 545.779 269.053 545.449 268.872C545.129 268.68 544.835 268.424 544.569 268.104C544.302 267.773 544.169 267.347 544.169 266.824C544.169 266.237 544.446 265.693 545.001 265.192C545.566 264.691 546.419 264.344 547.561 264.152C546.473 263.64 545.641 262.947 545.065 262.072C544.499 261.197 544.217 260.301 544.217 259.384C544.217 258.296 544.558 257.363 545.241 256.584C545.923 255.805 546.857 255.213 548.041 254.808C549.225 254.403 550.563 254.2 552.057 254.2C553.187 254.2 554.115 254.323 554.841 254.568C555.577 254.803 556.254 255.112 556.873 255.496C557.118 255.4 557.438 255.277 557.833 255.128C558.238 254.968 558.675 254.797 559.145 254.616C559.625 254.424 560.089 254.237 560.537 254.056C560.985 253.864 561.385 253.693 561.737 253.544L561.705 257.16L558.857 257.624C558.963 257.912 559.049 258.221 559.113 258.552C559.177 258.883 559.208 259.155 559.208 259.368C559.208 260.328 558.926 261.224 558.361 262.056C557.806 262.888 556.974 263.56 555.865 264.072C554.755 264.584 553.374 264.84 551.72 264.84C551.529 264.84 551.262 264.835 550.921 264.824C550.579 264.813 550.302 264.797 550.089 264.776C549.47 264.808 549.038 264.888 548.793 265.016C548.558 265.144 548.441 265.293 548.441 265.464C548.441 265.72 548.681 265.891 549.161 265.976C549.641 266.051 550.366 266.12 551.337 266.184C551.689 266.205 552.169 266.232 552.777 266.264C553.385 266.296 554.051 266.339 554.777 266.392C556.803 266.531 558.313 267.032 559.305 267.896C560.307 268.749 560.809 269.827 560.809 271.128C560.809 272.675 560.073 273.949 558.601 274.952C557.139 275.965 554.937 276.472 551.993 276.472ZM552.745 273.864C554.035 273.864 554.958 273.704 555.513 273.384C556.078 273.064 556.361 272.605 556.361 272.008C556.361 271.507 556.142 271.101 555.705 270.792C555.278 270.472 554.659 270.285 553.849 270.232L550.057 269.976C549.555 269.955 549.118 270.029 548.745 270.2C548.371 270.371 548.078 270.605 547.865 270.904C547.662 271.203 547.561 271.523 547.561 271.864C547.561 272.557 547.982 273.064 548.825 273.384C549.667 273.704 550.974 273.864 552.745 273.864ZM551.865 262.232C552.75 262.232 553.459 261.992 553.993 261.512C554.526 261.021 554.793 260.36 554.793 259.528C554.793 258.664 554.526 257.971 553.993 257.448C553.459 256.925 552.75 256.664 551.865 256.664C550.979 256.664 550.265 256.925 549.721 257.448C549.177 257.971 548.905 258.664 548.905 259.528C548.905 260.349 549.166 261.005 549.689 261.496C550.222 261.987 550.947 262.232 551.865 262.232ZM564.438 271V254.456H569.03V256.792C569.286 256.387 569.616 255.997 570.022 255.624C570.438 255.24 570.96 254.925 571.59 254.68C572.219 254.435 572.966 254.312 573.83 254.312C574.843 254.312 575.787 254.509 576.662 254.904C577.547 255.299 578.262 255.923 578.806 256.776C579.35 257.619 579.622 258.723 579.622 260.088V271H574.95V260.664C574.95 259.768 574.683 259.096 574.15 258.648C573.616 258.2 572.966 257.976 572.198 257.976C571.686 257.976 571.19 258.067 570.71 258.248C570.24 258.429 569.856 258.701 569.558 259.064C569.259 259.427 569.11 259.875 569.11 260.408V271H564.438Z" fill="#FFF0F3"/>
<path d="M609.443 182.576L598.19 213.302L586.992 182.576H577.032L593.154 223.3H602.711L619 182.576H609.443Z" fill="white"/>
<path fill-rule="evenodd" clip-rule="evenodd" d="M528.667 203C528.667 191.069 538.181 182.286 550.7 182.286C563.247 182.286 572.748 191.303 572.748 203C572.748 214.697 563.233 223.714 550.7 223.714C538.167 223.714 528.667 214.931 528.667 203ZM538.181 202.945C538.143 209.928 543.806 215.624 550.839 215.677C554.184 215.648 557.378 214.292 559.709 211.91C562.04 209.529 563.314 206.32 563.247 203C563.318 199.678 562.046 196.465 559.714 194.081C557.383 191.696 554.187 190.338 550.839 190.309C547.467 190.298 544.23 191.628 541.852 194.002C539.473 196.376 538.151 199.596 538.181 202.945Z" fill="white"/>
<path d="M502.279 190.254C506.462 190.357 510.463 191.973 513.532 194.797L518.748 188.224C514.124 184.398 508.298 182.297 502.279 182.286C489.495 182.286 479.897 191.193 479.897 203C479.897 214.807 489.342 223.714 501.764 223.714C507.732 223.615 513.539 221.771 518.456 218.411V200.901H503.197V208.096H510.36V213.468C507.888 214.797 505.143 215.552 502.334 215.677C497.659 215.83 493.271 213.441 490.888 209.445C488.505 205.449 488.505 200.481 490.888 196.486C493.271 192.49 497.659 190.101 502.334 190.254H502.279Z" fill="white"/>
<path d="M467.503 213.026C466.084 212.989 464.714 213.542 463.724 214.552C462.734 215.561 462.213 216.935 462.287 218.342C462.187 220.254 463.158 222.064 464.811 223.049C466.463 224.034 468.529 224.034 470.182 223.049C471.835 222.064 472.805 220.254 472.706 218.342C472.792 216.934 472.278 215.555 471.287 214.543C470.297 213.531 468.923 212.98 467.503 213.026Z" fill="white"/>
<path d="M441.254 208.759L421.321 182.576H412.877V223.3H421.724V197.186L441.602 223.3H450.032V182.576H441.254V208.759Z" fill="white"/>
<rect x="389.383" y="182.576" width="9.26422" height="40.7243" fill="white"/>
<path d="M359.907 190.254C364.091 190.357 368.092 191.973 371.161 194.797L376.377 188.224C371.753 184.398 365.927 182.297 359.907 182.286C347.124 182.286 337.512 191.193 337.512 203C337.512 214.807 346.957 223.714 359.379 223.714C365.347 223.615 371.153 221.771 376.071 218.411V200.901H360.825V208.096H367.989V213.468C365.516 214.797 362.772 215.552 359.963 215.677C355.288 215.83 350.9 213.441 348.517 209.445C346.134 205.449 346.134 200.481 348.517 196.486C350.9 192.49 355.288 190.101 359.963 190.254H359.907Z" fill="white"/>
<path fill-rule="evenodd" clip-rule="evenodd" d="M284.639 203C284.639 191.069 294.154 182.286 306.673 182.286C319.22 182.286 328.707 191.303 328.707 203C328.707 214.697 319.22 223.714 306.673 223.714C294.126 223.714 284.639 214.931 284.639 203ZM294.126 203C294.118 209.962 299.772 215.624 306.784 215.677C310.134 215.656 313.335 214.302 315.672 211.92C318.009 209.538 319.287 206.325 319.22 203C319.276 199.682 317.993 196.48 315.657 194.107C313.321 191.733 310.127 190.386 306.784 190.364C303.412 190.353 300.175 191.683 297.796 194.057C295.418 196.431 294.096 199.652 294.126 203Z" fill="white"/>
<path d="M260.463 182.576H251.199V223.3H278.046V215.277H260.463V182.576Z" fill="white"/>
<path d="M224.547 174H207.98V232C223.699 225.095 229.193 216.147 230.584 213.357C230.845 212.824 230.979 212.238 230.974 211.645V180.38C230.974 178.688 230.297 177.065 229.091 175.869C227.886 174.672 226.252 174 224.547 174Z" fill="#F3B8BE"/>
<path d="M191.427 174C187.877 174 185 176.856 185 180.38V211.645C184.995 212.238 185.128 212.824 185.39 213.357C186.781 216.119 192.345 225.137 207.98 232V174H191.427Z" fill="white"/>
<path d="M212.055 198.995C214.24 197.289 215.096 194.395 214.186 191.786C213.277 189.178 210.802 187.429 208.021 187.429C205.241 187.429 202.766 189.178 201.857 191.786C200.947 194.395 201.802 197.289 203.987 198.995C203.264 203.055 202.55 207.115 201.845 211.175C203.871 211.522 205.924 211.698 207.98 211.7C210.065 211.742 212.15 211.603 214.211 211.286C213.488 207.143 212.82 203.083 212.055 198.995Z" fill="#B51E23"/>
</g>
<defs>
<clipPath id="clip0_516_9809">
<rect width="804" height="452" fill="white"/>
</clipPath>
</defs>
</svg>
