<svg width="804" height="452" viewBox="0 0 804 452" fill="none" xmlns="http://www.w3.org/2000/svg">
<rect width="804" height="452" fill="#192D4E"/>
<path d="M649.594 201.35L636.162 238.433L622.797 201.35H610.91L630.152 250.5H641.558L661 201.35H649.594Z" fill="white"/>
<path fill-rule="evenodd" clip-rule="evenodd" d="M553.183 226C553.183 211.6 564.539 201 579.481 201C594.457 201 605.796 211.883 605.796 226C605.796 240.117 594.44 251 579.481 251C564.522 251 553.183 240.4 553.183 226ZM564.539 225.933C564.493 234.361 571.252 241.236 579.647 241.3C583.64 241.265 587.452 239.628 590.234 236.754C593.016 233.879 594.537 230.007 594.457 226C594.541 221.99 593.023 218.113 590.24 215.235C587.457 212.358 583.642 210.718 579.647 210.683C575.622 210.67 571.758 212.275 568.92 215.14C566.081 218.005 564.503 221.892 564.539 225.933Z" fill="white"/>
<path d="M521.688 210.617C526.681 210.741 531.457 212.691 535.119 216.1L541.345 208.167C535.826 203.549 528.872 201.014 521.688 201C506.43 201 494.974 211.75 494.974 226C494.974 240.25 506.247 251 521.073 251C528.197 250.881 535.127 248.654 540.997 244.6V223.467H522.784V232.15H531.334V238.633C528.382 240.237 525.107 241.149 521.754 241.3C516.174 241.485 510.937 238.602 508.093 233.779C505.248 228.956 505.248 222.961 508.093 218.138C510.937 213.315 516.174 210.432 521.754 210.617H521.688Z" fill="white"/>
<path d="M480.181 238.1C478.488 238.056 476.853 238.723 475.671 239.942C474.489 241.16 473.867 242.818 473.955 244.516C473.837 246.823 474.995 249.008 476.968 250.197C478.94 251.386 481.406 251.386 483.378 250.197C485.351 249.008 486.51 246.823 486.391 244.516C486.494 242.817 485.88 241.152 484.698 239.931C483.516 238.71 481.877 238.045 480.181 238.1Z" fill="white"/>
<path d="M448.852 232.95L425.061 201.35H414.983V250.5H425.542V218.983L449.267 250.5H459.329V201.35H448.852V232.95Z" fill="white"/>
<rect x="386.941" y="201.35" width="11.0573" height="49.15" fill="white"/>
<path d="M351.761 210.617C356.754 210.741 361.53 212.691 365.192 216.1L371.418 208.167C365.899 203.549 358.945 201.014 351.761 201C336.503 201 325.031 211.75 325.031 226C325.031 240.25 336.304 251 351.13 251C358.253 250.881 365.184 248.654 371.053 244.6V223.467H352.856V232.15H361.407V238.633C358.455 240.237 355.18 241.149 351.827 241.3C346.247 241.485 341.01 238.602 338.166 233.779C335.321 228.956 335.321 222.961 338.166 218.138C341.01 213.315 346.247 210.432 351.827 210.617H351.761Z" fill="white"/>
<path fill-rule="evenodd" clip-rule="evenodd" d="M261.924 226C261.924 211.6 273.28 201 288.223 201C303.198 201 314.521 211.883 314.521 226C314.521 240.117 303.198 251 288.223 251C273.247 251 261.924 240.4 261.924 226ZM273.247 226C273.238 234.402 279.986 241.236 288.355 241.3C292.353 241.274 296.174 239.641 298.964 236.766C301.753 233.89 303.278 230.013 303.198 226C303.265 221.996 301.734 218.131 298.946 215.267C296.158 212.403 292.345 210.776 288.355 210.75C284.33 210.736 280.467 212.342 277.628 215.207C274.789 218.072 273.212 221.959 273.247 226Z" fill="white"/>
<path d="M233.069 201.35H222.012V250.5H254.055V240.817H233.069V201.35Z" fill="white"/>
<path d="M190.201 191H170.427V261C189.188 252.667 195.746 241.867 197.407 238.5C197.718 237.856 197.878 237.149 197.871 236.433V198.7C197.871 196.658 197.063 194.699 195.625 193.255C194.186 191.811 192.235 191 190.201 191Z" fill="#B51E23"/>
<path d="M150.67 191C146.434 191 143 194.447 143 198.7V236.433C142.994 237.149 143.153 237.856 143.465 238.5C145.125 241.833 151.766 252.717 170.427 261V191H150.67Z" fill="#E21D3E"/>
<path d="M175.292 221.166C177.9 219.107 178.921 215.614 177.835 212.466C176.75 209.318 173.796 207.207 170.477 207.207C167.159 207.207 164.205 209.318 163.119 212.466C162.033 215.614 163.054 219.107 165.662 221.166C164.799 226.066 163.947 230.966 163.106 235.866C165.524 236.285 167.973 236.497 170.427 236.5C172.916 236.55 175.405 236.382 177.865 236C177.002 231 176.205 226.1 175.292 221.166Z" fill="white"/>
</svg>
