<svg width="804" height="452" viewBox="0 0 804 452" fill="none" xmlns="http://www.w3.org/2000/svg">
<g clip-path="url(#clip0_502_11472)">
<rect width="804" height="452" fill="white"/>
<rect width="804" height="452" fill="#192D4E"/>
<path opacity="0.5" fill-rule="evenodd" clip-rule="evenodd" d="M663.277 -0.444779C647.108 -0.444779 634 12.6628 634 28.8318C634 44.9952 647.099 58.0993 663.26 58.1083C647.099 58.1173 634 71.2214 634 87.3848C634 103.554 647.108 116.661 663.277 116.661H677.256L674.647 143.059C673.057 159.149 684.812 173.482 700.902 175.072C713.209 176.289 724.487 169.698 729.823 159.333C734.221 167.862 742.719 174.058 752.98 175.072C769.071 176.663 783.404 164.908 784.994 148.817L788.172 116.661H813.723C829.892 116.661 843 103.554 843 87.3848C843 71.2214 829.902 58.1173 813.74 58.1083C829.902 58.0993 843 44.9952 843 28.8318C843 12.6628 829.892 -0.444779 813.723 -0.444779H799.744L802.353 -26.8421C803.943 -42.9327 792.188 -57.2658 776.098 -58.8559C763.791 -60.0721 752.513 -53.4819 747.177 -43.1162C742.779 -51.6457 734.281 -57.8419 724.02 -58.8559C707.929 -60.4461 693.596 -48.6911 692.006 -32.6005L688.828 -0.444779H663.277ZM663.28 19.0695C657.89 19.0695 653.521 23.4387 653.521 28.8284C653.521 34.2181 657.89 38.5872 663.28 38.5872H704.587L700.729 77.6226H663.28C657.89 77.6226 653.521 81.9918 653.521 87.3814C653.521 92.7711 657.89 97.1403 663.28 97.1403H698.801L694.074 144.975C693.543 150.338 697.462 155.116 702.825 155.646C708.189 156.176 712.967 152.258 713.497 146.894L718.413 97.1403H750.878L746.151 144.975C745.621 150.338 749.54 155.116 754.903 155.646C760.267 156.176 765.044 152.258 765.574 146.894L770.491 97.1403H813.727C819.117 97.1403 823.486 92.7711 823.486 87.3814C823.486 81.9918 819.117 77.6226 813.727 77.6226H772.42L776.278 38.5872H813.727C819.117 38.5872 823.486 34.2181 823.486 28.8284C823.486 23.4387 819.117 19.0695 813.727 19.0695H778.206L782.934 -28.765C783.464 -34.1285 779.545 -38.9062 774.182 -39.4362C768.818 -39.9663 764.041 -36.048 763.511 -30.6844L758.594 19.0695H726.129L730.856 -28.765C731.386 -34.1285 727.468 -38.9062 722.104 -39.4362C716.741 -39.9663 711.963 -36.048 711.433 -30.6844L706.516 19.0695H663.28ZM720.342 77.6226L724.2 38.5872H756.665L752.807 77.6226H720.342Z" fill="#0071BB"/>
<g opacity="0.5">
<path d="M-67 62.3909C-66.3068 28.102 -53.1604 -2.79552 -26.6327 -27.6585C-8.36058 -44.9464 14.9019 -56.0889 39.8747 -59.515C74.3561 -64.5203 105.924 -56.9304 133.944 -36.3126C159.661 -17.3905 175.498 8.12739 182.112 39.2471C184.285 49.4449 185.824 59.8181 184.52 70.2031C182.171 88.9146 171.867 102.176 154.562 109.626C126.554 121.683 93.6939 104.305 87.7375 74.5418C87.0583 71.1184 86.6654 67.6448 86.5626 64.1568C86.1397 49.901 75.3782 38.1945 61.7619 37.3876C46.5948 36.4754 33.9301 46.2172 32.1796 60.9174C31.0047 70.6358 32.5908 80.3307 35.1989 89.7683C44.7033 124.163 66.05 148.067 99.3919 161.235C104.032 163.071 107.78 165.48 108.332 170.895C108.601 172.737 108.378 174.618 107.688 176.348C106.998 178.078 105.864 179.598 104.399 180.756C102.934 181.913 101.19 182.668 99.3401 182.945C97.4904 183.221 95.6003 183.01 93.8584 182.332C78.3159 176.929 64.0215 168.474 51.8228 157.469C34.2065 141.855 21.4159 121.575 14.9447 98.9955C10.8211 84.7162 8.43614 70.1445 10.8328 55.2571C14.1106 34.8966 31.9798 18.6059 52.5042 15.7874C77.0113 12.4077 102.117 28.7218 107.275 54.6724C108.121 58.941 108.109 63.3616 108.673 67.7004C110.553 82.2252 121.749 91.9085 136.423 91.6161C143.394 91.4573 150.034 88.6218 154.954 83.7026C159.874 78.7834 162.693 72.1613 162.821 65.2211C163.034 42.5249 155.748 20.3879 142.087 2.21601C128.425 -15.9559 109.144 -29.1561 87.2088 -35.3536C63.1717 -42.0664 39.3461 -40.6514 16.566 -30.2898C-14.2147 -16.2562 -33.8344 7.39058 -42.1757 40.0189C-46.5317 57.064 -46.2885 74.9518 -41.4708 91.8734C-40.437 95.5689 -40.1903 99.206 -42.5399 102.504C-43.6107 104.21 -45.1541 105.571 -46.9842 106.424C-48.8144 107.277 -50.8531 107.584 -52.855 107.31C-55.0809 107.129 -57.1874 106.233 -58.8571 104.756C-60.5268 103.28 -61.6694 101.303 -62.1127 99.1241C-65.3581 87.1471 -67.0014 74.796 -67 62.3909Z" fill="#0071BB"/>
<path d="M-28.5513 66.6596C-28.5513 33.3764 -14.2888 5.63649 17.1733 -12.1161C34.0277 -21.7967 53.8036 -25.1606 72.931 -21.6005C107.001 -15.5193 129.934 4.03428 141.953 36.2299C145.139 45.028 146.707 54.3258 146.581 63.6775C146.581 69.8874 142.646 74.3898 136.959 74.9161C130.792 75.4891 126.033 71.8871 125.023 65.5603C124.154 60.1105 124.142 54.4854 122.861 49.1877C120.913 40.3734 117.077 32.0815 111.615 24.8782C106.153 17.6749 99.1931 11.7298 91.2114 7.44916C80.9317 1.71161 69.2867 -1.15704 57.5054 -0.854077C43.0041 -0.82613 28.9738 4.27359 17.8665 13.5538C0.24394 28.2073 -7.49822 47.0475 -6.47611 69.9224C-5.41526 93.4653 1.36973 116.4 13.2963 136.758C14.4876 138.671 15.0413 140.909 14.8783 143.154C14.7153 145.398 13.8439 147.535 12.3886 149.257C10.9333 150.979 8.96851 152.2 6.7748 152.744C4.58109 153.289 2.27064 153.129 0.173418 152.288C-2.29324 151.181 -4.37434 149.37 -5.80649 147.084C-16.9353 128.062 -24.1779 107.037 -27.118 85.2191C-27.8229 79.8396 -27.9521 74.3664 -28.5513 66.6596Z" fill="#0071BB"/>
<path d="M135.399 151.527C116.999 151.442 99.0887 145.616 84.1888 134.868C69.289 124.121 58.1496 108.994 52.3382 91.6148C49.5507 83.211 48.0728 74.4316 47.9561 65.5823C47.8269 56.4721 56.0272 51.034 63.8986 54.905C65.4554 55.628 66.7956 56.7431 67.7867 58.1399C68.7778 59.5367 69.3855 61.1668 69.5496 62.8691C70.1605 67.7692 70.2427 72.7863 71.3236 77.5811C76.5986 100.971 90.4029 117.133 112.995 125.6C122.812 129.257 133.37 130.508 143.776 129.248C145.184 129.074 146.614 129.181 147.981 129.562C149.348 129.943 150.625 130.591 151.739 131.468C152.852 132.346 153.778 133.434 154.464 134.672C155.151 135.909 155.583 137.269 155.735 138.674C156.358 145.317 152.211 150.264 145.608 150.755L135.399 151.527Z" fill="#0071BB"/>
</g>
<g opacity="0.5">
<path fill-rule="evenodd" clip-rule="evenodd" d="M331.272 -117.89C329.285 -117.89 327.11 -116.137 327.11 -113.268V97.0309C327.11 99.8997 329.285 101.653 331.272 101.653H472.728C474.715 101.653 476.89 99.8997 476.89 97.0309V-113.268C476.89 -116.137 474.715 -117.89 472.728 -117.89H331.272ZM304 -113.268C304 -128.268 315.899 -141 331.272 -141H472.728C488.101 -141 500 -128.268 500 -113.268V97.0309C500 112.031 488.101 124.763 472.728 124.763H331.272C315.899 124.763 304 112.031 304 97.0309V-113.268Z" fill="#0071BB"/>
<path d="M418.512 73.8121C418.512 82.9776 411.293 90.4078 402.387 90.4078C393.482 90.4078 386.263 82.9776 386.263 73.8121C386.263 64.6465 393.482 57.2163 402.387 57.2163C411.293 57.2163 418.512 64.6465 418.512 73.8121Z" fill="#0071BB"/>
</g>
<g opacity="0.5">
<path fill-rule="evenodd" clip-rule="evenodd" d="M711.972 295.877C711.131 289.781 706.294 285.936 701.368 285.986L701.261 285.987H669.595C666.787 285.991 663.987 287.226 661.923 289.594C659.854 291.968 658.753 295.243 659.027 298.63C662.344 331.213 672.934 362.494 689.914 389.943L689.961 390.02C705.388 415.447 725.947 436.963 750.149 453.07L750.231 453.125C776.231 470.783 805.783 481.794 836.518 485.311C839.298 485.55 842.141 484.579 844.352 482.455C846.607 480.288 847.983 477.114 847.97 473.676L847.97 473.636V440.465C847.97 440.382 847.971 440.299 847.973 440.216C848.122 433.926 843.803 429.164 838.809 428.405C827.873 426.89 817.141 424.087 806.818 420.052L806.793 420.043C803.123 418.598 798.908 419.451 795.927 422.525L782.541 436.543C779.163 440.082 773.787 440.816 769.584 438.313C741.491 421.583 718.293 397.26 702.386 367.962C700.211 363.957 700.871 359.006 704.018 355.709L717.403 341.692C720.415 338.488 721.481 333.561 719.89 329.128L719.882 329.105C716.057 318.371 713.405 307.224 711.972 295.877ZM701.212 265.001C717.446 264.866 730.636 277.266 732.774 293.11L732.786 293.202C734.028 303.063 736.33 312.741 739.646 322.051C743.847 333.769 741.209 347.046 732.644 356.117L732.604 356.159L724.602 364.54C737.067 385.217 753.703 402.723 773.293 415.841L780.812 407.966C789.549 398.918 802.714 395.891 814.466 400.51C823.278 403.953 832.427 406.339 841.739 407.625L841.837 407.639C858.013 410.029 869.272 424.489 868.955 440.578V473.618C868.984 482.625 865.394 491.339 858.892 497.587C852.363 503.86 843.495 507.051 834.458 506.196C834.43 506.193 834.401 506.19 834.373 506.187C834.335 506.183 834.298 506.179 834.261 506.175C800.078 502.285 767.274 490.059 738.48 470.512C711.695 452.677 689.023 428.917 672.043 400.944C653.366 370.737 641.761 336.381 638.139 300.658L638.125 300.501C637.352 291.548 640.194 282.585 646.103 275.806C652.03 269.006 660.532 265.012 669.576 265.001L669.588 265.001L701.212 265.001Z" fill="#0071BB"/>
</g>
<g opacity="0.5">
<path fill-rule="evenodd" clip-rule="evenodd" d="M138.006 421.877C138.947 418.501 138.995 413.487 135.463 409.277L53.1339 311.161C49.601 306.951 44.6551 306.128 41.1667 306.469C37.6188 306.815 34.3682 308.357 31.8139 310.501L-56.7386 384.805C-66.2718 392.804 -67.5153 407.017 -59.516 416.55L12.1129 501.914C20.1122 511.448 34.3251 512.691 43.8582 504.692L132.411 430.387C134.965 428.244 137.048 425.311 138.006 421.877ZM114.968 417.57L30.3398 488.581C29.7043 489.114 28.7568 489.031 28.2235 488.396L-43.4054 403.032C-43.9386 402.396 -43.8558 401.449 -43.2202 400.916L41.4076 329.904L114.968 417.57Z" fill="#0071BB"/>
<path fill-rule="evenodd" clip-rule="evenodd" d="M193.341 368.007C201.437 361.213 202.493 349.143 195.7 341.047L132.37 265.573C125.577 257.477 113.506 256.421 105.41 263.215L34.1458 323.013L122.077 427.804L193.341 368.007ZM178.371 353.114L124.669 398.175L63.7748 325.605L117.477 280.543L178.371 353.114Z" fill="#0071BB"/>
<path fill-rule="evenodd" clip-rule="evenodd" d="M134.056 341.266L131.481 338.197C130.589 337.134 128.52 337.402 126.86 338.795L88.3558 371.104L94.161 378.022L132.665 345.713C134.326 344.32 134.948 342.329 134.056 341.266Z" fill="#0071BB"/>
<path fill-rule="evenodd" clip-rule="evenodd" d="M122.453 327.412L119.877 324.343C118.985 323.28 116.917 323.548 115.256 324.941L76.752 357.25L82.5572 364.168L121.062 331.859C122.722 330.466 123.345 328.475 122.453 327.412Z" fill="#0071BB"/>
<path fill-rule="evenodd" clip-rule="evenodd" d="M152.575 349.292L150 346.223C149.108 345.16 147.046 345.422 145.394 346.808L99.9564 384.935L105.762 391.853L151.199 353.727C152.851 352.341 153.467 350.355 152.575 349.292Z" fill="#0071BB"/>
<path fill-rule="evenodd" clip-rule="evenodd" d="M117.764 307.783L115.189 304.714C114.297 303.651 112.234 303.913 110.582 305.299L65.1449 343.426L70.9501 350.344L116.388 312.217C118.04 310.831 118.656 308.846 117.764 307.783Z" fill="#0071BB"/>
</g>
<g opacity="0.5">
<path fill-rule="evenodd" clip-rule="evenodd" d="M308.608 346.946C307.69 346.946 306.946 347.69 306.946 348.608V385.867H496.428V348.608C496.428 347.69 495.684 346.946 494.766 346.946H308.608ZM516.374 348.608C516.374 336.674 506.7 327 494.766 327H308.608C296.674 327 287 336.674 287 348.608V478.392C287 490.326 296.674 500 308.608 500H494.766C506.7 500 516.374 490.326 516.374 478.392V348.608ZM496.428 405.813H306.946V478.392C306.946 479.31 307.69 480.054 308.608 480.054H494.766C495.684 480.054 496.428 479.31 496.428 478.392V405.813Z" fill="#0071BB"/>
</g>
<path d="M249.88 271L258.152 247.864H263.096L271.368 271H266.712L264.824 265.64H256.488L254.568 271H249.88ZM257.544 261.56H263.688L260.632 252.36L257.544 261.56ZM280.919 271.32C279.383 271.32 278.012 270.979 276.807 270.296C275.601 269.613 274.652 268.637 273.959 267.368C273.276 266.088 272.935 264.563 272.935 262.792C272.935 261.085 273.265 259.581 273.927 258.28C274.588 256.979 275.516 255.965 276.711 255.24C277.916 254.504 279.319 254.136 280.919 254.136C282.305 254.136 283.5 254.419 284.503 254.984C285.516 255.549 286.311 256.312 286.887 257.272C287.473 258.232 287.809 259.304 287.895 260.488H284.007C283.932 260.051 283.777 259.619 283.543 259.192C283.308 258.755 282.977 258.397 282.551 258.12C282.124 257.832 281.591 257.688 280.951 257.688C279.863 257.688 278.977 258.109 278.295 258.952C277.623 259.784 277.287 261.053 277.287 262.76C277.287 264.371 277.617 265.651 278.279 266.6C278.94 267.539 279.863 268.008 281.047 268.008C281.676 268.008 282.199 267.853 282.615 267.544C283.041 267.235 283.372 266.867 283.607 266.44C283.841 266.003 283.991 265.597 284.055 265.224H287.847C287.772 266.365 287.441 267.4 286.855 268.328C286.268 269.245 285.468 269.976 284.455 270.52C283.452 271.053 282.273 271.32 280.919 271.32ZM298.388 271.32C296.852 271.32 295.481 270.979 294.276 270.296C293.07 269.613 292.121 268.637 291.428 267.368C290.745 266.088 290.404 264.563 290.404 262.792C290.404 261.085 290.734 259.581 291.396 258.28C292.057 256.979 292.985 255.965 294.18 255.24C295.385 254.504 296.788 254.136 298.388 254.136C299.774 254.136 300.969 254.419 301.972 254.984C302.985 255.549 303.78 256.312 304.356 257.272C304.942 258.232 305.278 259.304 305.364 260.488H301.476C301.401 260.051 301.246 259.619 301.012 259.192C300.777 258.755 300.446 258.397 300.02 258.12C299.593 257.832 299.06 257.688 298.42 257.688C297.332 257.688 296.446 258.109 295.764 258.952C295.092 259.784 294.756 261.053 294.756 262.76C294.756 264.371 295.086 265.651 295.748 266.6C296.409 267.539 297.332 268.008 298.516 268.008C299.145 268.008 299.668 267.853 300.084 267.544C300.51 267.235 300.841 266.867 301.076 266.44C301.31 266.003 301.46 265.597 301.524 265.224H305.316C305.241 266.365 304.91 267.4 304.324 268.328C303.737 269.245 302.937 269.976 301.924 270.52C300.921 271.053 299.742 271.32 298.388 271.32ZM315.872 271.32C314.251 271.32 312.838 270.973 311.632 270.28C310.438 269.587 309.51 268.605 308.848 267.336C308.198 266.067 307.872 264.563 307.872 262.824C307.872 261.085 308.198 259.565 308.848 258.264C309.51 256.963 310.438 255.949 311.632 255.224C312.838 254.499 314.256 254.136 315.888 254.136C317.52 254.136 318.934 254.493 320.128 255.208C321.323 255.912 322.246 256.915 322.896 258.216C323.547 259.517 323.872 261.053 323.872 262.824C323.872 264.488 323.552 265.96 322.912 267.24C322.283 268.509 321.371 269.507 320.176 270.232C318.992 270.957 317.558 271.32 315.872 271.32ZM315.888 267.848C316.71 267.848 317.371 267.608 317.872 267.128C318.374 266.648 318.736 266.019 318.96 265.24C319.184 264.451 319.296 263.592 319.296 262.664C319.296 261.789 319.195 260.963 318.992 260.184C318.79 259.405 318.438 258.776 317.936 258.296C317.435 257.816 316.752 257.576 315.888 257.576C315.067 257.576 314.4 257.805 313.888 258.264C313.387 258.712 313.019 259.325 312.784 260.104C312.55 260.872 312.432 261.725 312.432 262.664C312.432 263.528 312.539 264.36 312.752 265.16C312.966 265.949 313.323 266.595 313.824 267.096C314.326 267.597 315.014 267.848 315.888 267.848ZM333.034 271.32C332.266 271.32 331.508 271.203 330.762 270.968C330.026 270.733 329.354 270.387 328.746 269.928C328.138 269.469 327.647 268.904 327.274 268.232C326.911 267.56 326.73 266.781 326.73 265.896V254.456H331.402V265.304C331.402 266.072 331.652 266.701 332.154 267.192C332.655 267.683 333.391 267.928 334.362 267.928C335.279 267.928 336.004 267.693 336.538 267.224C337.082 266.744 337.354 266.077 337.354 265.224V254.456H341.978V271H338.458L337.914 267.72C337.722 268.691 337.359 269.437 336.826 269.96C336.303 270.472 335.7 270.824 335.018 271.016C334.346 271.219 333.684 271.32 333.034 271.32ZM346.062 271V254.456H350.655V256.792C350.911 256.387 351.241 255.997 351.647 255.624C352.063 255.24 352.585 254.925 353.215 254.68C353.844 254.435 354.591 254.312 355.455 254.312C356.468 254.312 357.412 254.509 358.287 254.904C359.172 255.299 359.887 255.923 360.431 256.776C360.975 257.619 361.247 258.723 361.247 260.088V271H356.575V260.664C356.575 259.768 356.308 259.096 355.775 258.648C355.241 258.2 354.591 257.976 353.823 257.976C353.311 257.976 352.815 258.067 352.335 258.248C351.865 258.429 351.481 258.701 351.183 259.064C350.884 259.427 350.735 259.875 350.735 260.408V271H346.062ZM371.574 271.176C370.112 271.176 368.982 270.989 368.182 270.616C367.392 270.243 366.843 269.72 366.534 269.048C366.235 268.376 366.086 267.597 366.086 266.712V257.704H363.398V254.456H366.23L367.414 249.464H370.742V254.44H374.422V257.704H370.742L370.774 266.52C370.774 266.925 370.822 267.229 370.918 267.432C371.024 267.624 371.184 267.752 371.398 267.816C371.622 267.869 371.904 267.896 372.246 267.896H374.47V270.776C374.246 270.872 373.91 270.963 373.462 271.048C373.014 271.133 372.384 271.176 371.574 271.176ZM394.985 271.32C392.83 271.32 390.969 270.819 389.401 269.816C387.833 268.813 386.622 267.405 385.769 265.592C384.926 263.779 384.505 261.661 384.505 259.24C384.505 256.808 384.926 254.723 385.769 252.984C386.611 251.235 387.817 249.891 389.385 248.952C390.953 248.013 392.819 247.544 394.985 247.544C396.723 247.544 398.27 247.896 399.625 248.6C400.99 249.293 402.089 250.243 402.921 251.448C403.763 252.653 404.259 254.013 404.409 255.528H399.513C399.363 254.728 399.091 254.019 398.697 253.4C398.302 252.771 397.785 252.28 397.145 251.928C396.505 251.565 395.737 251.384 394.841 251.384C393.763 251.384 392.835 251.645 392.057 252.168C391.278 252.691 390.681 253.533 390.265 254.696C389.849 255.859 389.641 257.395 389.641 259.304C389.641 262.184 390.099 264.269 391.017 265.56C391.945 266.84 393.219 267.48 394.841 267.48C395.737 267.48 396.505 267.277 397.145 266.872C397.785 266.456 398.302 265.912 398.697 265.24C399.091 264.557 399.363 263.811 399.513 263H404.409C404.27 264.099 404.003 265.149 403.609 266.152C403.214 267.144 402.654 268.029 401.929 268.808C401.203 269.587 400.27 270.2 399.129 270.648C397.987 271.096 396.606 271.32 394.985 271.32ZM407.938 271V254.456H412.434V258.376C412.7 257.533 413.074 256.797 413.554 256.168C414.044 255.528 414.636 255.032 415.33 254.68C416.023 254.317 416.807 254.136 417.682 254.136C417.831 254.136 417.97 254.147 418.098 254.168C418.236 254.179 418.338 254.2 418.402 254.232V258.68C418.306 258.637 418.188 258.611 418.05 258.6C417.922 258.589 417.804 258.579 417.698 258.568C416.78 258.493 415.996 258.52 415.345 258.648C414.695 258.776 414.167 258.995 413.762 259.304C413.356 259.613 413.063 259.992 412.882 260.44C412.7 260.888 412.61 261.389 412.61 261.944V271H407.938ZM428.694 271.32C427.051 271.32 425.606 270.979 424.358 270.296C423.12 269.603 422.155 268.627 421.462 267.368C420.768 266.109 420.422 264.627 420.422 262.92C420.422 261.267 420.736 259.779 421.366 258.456C422.006 257.123 422.923 256.072 424.118 255.304C425.312 254.525 426.758 254.136 428.454 254.136C430.139 254.136 431.552 254.493 432.694 255.208C433.835 255.912 434.699 256.899 435.286 258.168C435.872 259.427 436.166 260.883 436.166 262.536V263.8H425.046C425.046 264.643 425.184 265.379 425.462 266.008C425.739 266.627 426.139 267.107 426.662 267.448C427.195 267.779 427.835 267.944 428.582 267.944C429.382 267.944 430.08 267.773 430.678 267.432C431.275 267.091 431.696 266.531 431.942 265.752H436.15C435.958 266.925 435.488 267.928 434.742 268.76C433.995 269.592 433.088 270.227 432.022 270.664C430.955 271.101 429.846 271.32 428.694 271.32ZM425.046 261.016H431.798C431.798 260.355 431.67 259.747 431.414 259.192C431.168 258.637 430.795 258.2 430.294 257.88C429.803 257.56 429.184 257.4 428.438 257.4C427.723 257.4 427.11 257.576 426.598 257.928C426.096 258.269 425.707 258.717 425.43 259.272C425.163 259.827 425.035 260.408 425.046 261.016ZM444.35 271.32C443.304 271.32 442.355 271.123 441.502 270.728C440.659 270.333 439.992 269.763 439.502 269.016C439.011 268.259 438.766 267.341 438.766 266.264C438.766 264.451 439.443 263.075 440.798 262.136C442.152 261.187 444.291 260.696 447.214 260.664L449.294 260.632V259.64C449.294 258.883 449.07 258.301 448.622 257.896C448.184 257.48 447.496 257.277 446.558 257.288C445.886 257.299 445.24 257.459 444.622 257.768C444.014 258.077 443.592 258.616 443.358 259.384H439.47C439.534 258.189 439.88 257.208 440.51 256.44C441.15 255.661 442.008 255.085 443.086 254.712C444.163 254.328 445.395 254.136 446.782 254.136C448.467 254.136 449.822 254.349 450.846 254.776C451.87 255.192 452.611 255.795 453.07 256.584C453.539 257.363 453.774 258.291 453.774 259.368V271H449.87L449.486 268.152C448.92 269.347 448.211 270.173 447.358 270.632C446.515 271.091 445.512 271.32 444.35 271.32ZM445.934 268.248C446.35 268.248 446.755 268.173 447.15 268.024C447.555 267.864 447.918 267.656 448.238 267.4C448.558 267.133 448.808 266.835 448.99 266.504C449.182 266.173 449.283 265.832 449.294 265.48V263.032L447.614 263.064C446.835 263.075 446.11 263.171 445.438 263.352C444.766 263.523 444.222 263.805 443.806 264.2C443.4 264.595 443.198 265.128 443.198 265.8C443.198 266.568 443.459 267.171 443.982 267.608C444.515 268.035 445.166 268.248 445.934 268.248ZM464.105 271.176C462.643 271.176 461.513 270.989 460.713 270.616C459.923 270.243 459.374 269.72 459.065 269.048C458.766 268.376 458.617 267.597 458.617 266.712V257.704H455.929V254.456H458.761L459.945 249.464H463.273V254.44H466.953V257.704H463.273L463.305 266.52C463.305 266.925 463.353 267.229 463.449 267.432C463.555 267.624 463.715 267.752 463.929 267.816C464.153 267.869 464.435 267.896 464.777 267.896H467.001V270.776C466.777 270.872 466.441 270.963 465.993 271.048C465.545 271.133 464.915 271.176 464.105 271.176ZM470.329 271V254.456H474.793V271H470.329ZM470.281 252.088V247.88H474.825V252.088H470.281ZM486.029 271.32C484.407 271.32 482.994 270.973 481.789 270.28C480.594 269.587 479.666 268.605 479.005 267.336C478.354 266.067 478.029 264.563 478.029 262.824C478.029 261.085 478.354 259.565 479.005 258.264C479.666 256.963 480.594 255.949 481.789 255.224C482.994 254.499 484.413 254.136 486.045 254.136C487.677 254.136 489.09 254.493 490.285 255.208C491.479 255.912 492.402 256.915 493.053 258.216C493.703 259.517 494.029 261.053 494.029 262.824C494.029 264.488 493.709 265.96 493.069 267.24C492.439 268.509 491.527 269.507 490.333 270.232C489.149 270.957 487.714 271.32 486.029 271.32ZM486.045 267.848C486.866 267.848 487.527 267.608 488.029 267.128C488.53 266.648 488.893 266.019 489.117 265.24C489.341 264.451 489.453 263.592 489.453 262.664C489.453 261.789 489.351 260.963 489.149 260.184C488.946 259.405 488.594 258.776 488.093 258.296C487.591 257.816 486.909 257.576 486.045 257.576C485.223 257.576 484.557 257.805 484.045 258.264C483.543 258.712 483.175 259.325 482.941 260.104C482.706 260.872 482.589 261.725 482.589 262.664C482.589 263.528 482.695 264.36 482.909 265.16C483.122 265.949 483.479 266.595 483.981 267.096C484.482 267.597 485.17 267.848 486.045 267.848ZM497.219 271V254.456H501.811V256.792C502.067 256.387 502.397 255.997 502.803 255.624C503.219 255.24 503.741 254.925 504.371 254.68C505 254.435 505.747 254.312 506.611 254.312C507.624 254.312 508.568 254.509 509.443 254.904C510.328 255.299 511.043 255.923 511.587 256.776C512.131 257.619 512.403 258.723 512.403 260.088V271H507.731V260.664C507.731 259.768 507.464 259.096 506.931 258.648C506.397 258.2 505.747 257.976 504.979 257.976C504.467 257.976 503.971 258.067 503.491 258.248C503.021 258.429 502.637 258.701 502.339 259.064C502.04 259.427 501.891 259.875 501.891 260.408V271H497.219Z" fill="#CEDCED"/>
<path d="M609.443 182.576L598.19 213.302L586.992 182.576H577.032L593.154 223.3H602.711L619 182.576H609.443Z" fill="white"/>
<path fill-rule="evenodd" clip-rule="evenodd" d="M528.667 203C528.667 191.069 538.181 182.286 550.7 182.286C563.247 182.286 572.748 191.303 572.748 203C572.748 214.697 563.233 223.714 550.7 223.714C538.167 223.714 528.667 214.931 528.667 203ZM538.181 202.945C538.143 209.928 543.806 215.624 550.839 215.677C554.184 215.648 557.378 214.292 559.709 211.91C562.04 209.529 563.314 206.32 563.247 203C563.318 199.678 562.046 196.465 559.714 194.081C557.383 191.696 554.187 190.338 550.839 190.309C547.467 190.298 544.23 191.628 541.852 194.002C539.473 196.376 538.151 199.596 538.181 202.945Z" fill="white"/>
<path d="M502.279 190.254C506.462 190.357 510.464 191.973 513.532 194.797L518.749 188.224C514.124 184.398 508.298 182.297 502.279 182.286C489.495 182.286 479.897 191.193 479.897 203C479.897 214.807 489.342 223.714 501.764 223.714C507.733 223.615 513.539 221.771 518.456 218.411V200.901H503.197V208.096H510.361V213.468C507.888 214.797 505.144 215.552 502.334 215.677C497.659 215.83 493.272 213.441 490.888 209.445C488.505 205.449 488.505 200.481 490.888 196.486C493.272 192.49 497.659 190.101 502.334 190.254H502.279Z" fill="white"/>
<path d="M467.503 213.026C466.084 212.989 464.714 213.542 463.724 214.552C462.734 215.561 462.213 216.935 462.287 218.342C462.187 220.254 463.158 222.064 464.811 223.049C466.463 224.034 468.529 224.034 470.182 223.049C471.835 222.064 472.805 220.254 472.706 218.342C472.792 216.934 472.278 215.555 471.287 214.543C470.297 213.531 468.923 212.98 467.503 213.026Z" fill="white"/>
<path d="M441.255 208.759L421.321 182.576H412.878V223.3H421.725V197.186L441.602 223.3H450.032V182.576H441.255V208.759Z" fill="white"/>
<rect x="389.383" y="182.576" width="9.26422" height="40.7243" fill="white"/>
<path d="M359.907 190.254C364.091 190.357 368.092 191.973 371.161 194.797L376.377 188.224C371.753 184.398 365.927 182.297 359.907 182.286C347.124 182.286 337.512 191.193 337.512 203C337.512 214.807 346.957 223.714 359.379 223.714C365.347 223.615 371.154 221.771 376.071 218.411V200.901H360.826V208.096H367.989V213.468C365.516 214.797 362.772 215.552 359.963 215.677C355.288 215.83 350.9 213.441 348.517 209.445C346.134 205.449 346.134 200.481 348.517 196.486C350.9 192.49 355.288 190.101 359.963 190.254H359.907Z" fill="white"/>
<path fill-rule="evenodd" clip-rule="evenodd" d="M284.639 203C284.639 191.069 294.154 182.286 306.673 182.286C319.22 182.286 328.707 191.303 328.707 203C328.707 214.697 319.22 223.714 306.673 223.714C294.126 223.714 284.639 214.931 284.639 203ZM294.126 203C294.118 209.962 299.772 215.624 306.784 215.677C310.134 215.656 313.335 214.302 315.672 211.92C318.009 209.538 319.287 206.325 319.22 203C319.276 199.682 317.993 196.48 315.657 194.107C313.321 191.733 310.126 190.386 306.784 190.364C303.411 190.353 300.174 191.683 297.796 194.057C295.418 196.431 294.096 199.652 294.126 203Z" fill="white"/>
<path d="M260.463 182.576H251.199V223.3H278.046V215.277H260.463V182.576Z" fill="white"/>
<path d="M224.547 174H207.979V232C223.698 225.095 229.193 216.147 230.584 213.357C230.845 212.824 230.978 212.238 230.973 211.645V180.38C230.973 178.688 230.296 177.065 229.091 175.869C227.886 174.672 226.251 174 224.547 174Z" fill="#B51E23"/>
<path d="M191.426 174C187.877 174 185 176.856 185 180.38V211.645C184.995 212.238 185.128 212.824 185.389 213.357C186.78 216.119 192.345 225.137 207.98 232V174H191.426Z" fill="#E21D3E"/>
<path d="M212.055 198.995C214.24 197.289 215.096 194.395 214.186 191.786C213.277 189.178 210.802 187.429 208.021 187.429C205.241 187.429 202.766 189.178 201.857 191.786C200.947 194.395 201.802 197.289 203.987 198.995C203.264 203.055 202.55 207.115 201.845 211.175C203.871 211.522 205.924 211.698 207.98 211.7C210.065 211.742 212.15 211.603 214.211 211.286C213.488 207.143 212.82 203.083 212.055 198.995Z" fill="white"/>
</g>
<defs>
<clipPath id="clip0_502_11472">
<rect width="804" height="452" fill="white"/>
</clipPath>
</defs>
</svg>
