<svg width="804" height="452" viewBox="0 0 804 452" fill="none" xmlns="http://www.w3.org/2000/svg">
<rect width="804" height="452" fill="#192D4E"/>
<path d="M609.443 205.576L598.19 236.302L586.992 205.576H577.033L593.155 246.3H602.711L619 205.576H609.443Z" fill="white"/>
<path fill-rule="evenodd" clip-rule="evenodd" d="M528.667 226C528.667 214.069 538.181 205.286 550.7 205.286C563.248 205.286 572.748 214.303 572.748 226C572.748 237.697 563.234 246.714 550.7 246.714C538.167 246.714 528.667 237.931 528.667 226ZM538.181 225.945C538.143 232.928 543.806 238.624 550.84 238.677C554.184 238.648 557.378 237.292 559.709 234.91C562.04 232.529 563.315 229.32 563.248 226C563.318 222.678 562.046 219.465 559.715 217.081C557.383 214.696 554.187 213.338 550.84 213.309C547.467 213.298 544.23 214.628 541.852 217.002C539.473 219.376 538.151 222.596 538.181 225.945Z" fill="white"/>
<path d="M502.279 213.254C506.462 213.357 510.464 214.973 513.532 217.797L518.749 211.224C514.125 207.398 508.298 205.297 502.279 205.286C489.495 205.286 479.897 214.193 479.897 226C479.897 237.807 489.342 246.714 501.764 246.714C507.733 246.615 513.539 244.771 518.457 241.411V223.901H503.197V231.096H510.361V236.468C507.888 237.797 505.144 238.552 502.335 238.677C497.659 238.83 493.272 236.441 490.889 232.445C488.505 228.449 488.505 223.481 490.889 219.486C493.272 215.49 497.659 213.101 502.335 213.254H502.279Z" fill="white"/>
<path d="M467.503 236.026C466.084 235.989 464.714 236.542 463.724 237.552C462.734 238.561 462.213 239.935 462.287 241.342C462.187 243.254 463.158 245.064 464.811 246.049C466.464 247.034 468.529 247.034 470.182 246.049C471.835 245.064 472.805 243.254 472.706 241.342C472.793 239.934 472.278 238.555 471.288 237.543C470.297 236.531 468.924 235.98 467.503 236.026Z" fill="white"/>
<path d="M441.255 231.759L421.321 205.576H412.878V246.3H421.725V220.186L441.602 246.3H450.032V205.576H441.255V231.759Z" fill="white"/>
<rect x="389.383" y="205.576" width="9.26422" height="40.7243" fill="white"/>
<path d="M359.907 213.254C364.091 213.357 368.092 214.973 371.161 217.797L376.377 211.224C371.753 207.398 365.927 205.297 359.907 205.286C347.124 205.286 337.512 214.193 337.512 226C337.512 237.807 346.957 246.714 359.379 246.714C365.347 246.615 371.154 244.771 376.071 241.411V223.901H360.826V231.096H367.989V236.468C365.516 237.797 362.772 238.552 359.963 238.677C355.288 238.83 350.9 236.441 348.517 232.445C346.134 228.449 346.134 223.481 348.517 219.486C350.9 215.49 355.288 213.101 359.963 213.254H359.907Z" fill="white"/>
<path fill-rule="evenodd" clip-rule="evenodd" d="M284.639 226C284.639 214.069 294.154 205.286 306.673 205.286C319.22 205.286 328.707 214.303 328.707 226C328.707 237.697 319.22 246.714 306.673 246.714C294.126 246.714 284.639 237.931 284.639 226ZM294.126 226C294.118 232.962 299.772 238.624 306.784 238.677C310.134 238.656 313.335 237.302 315.672 234.92C318.009 232.538 319.287 229.325 319.22 226C319.276 222.682 317.993 219.48 315.657 217.107C313.321 214.733 310.127 213.386 306.784 213.364C303.412 213.353 300.175 214.683 297.796 217.057C295.418 219.431 294.096 222.652 294.126 226Z" fill="white"/>
<path d="M260.463 205.576H251.199V246.3H278.046V238.277H260.463V205.576Z" fill="white"/>
<path d="M224.547 197H207.98V255C223.698 248.095 229.193 239.147 230.584 236.357C230.845 235.824 230.979 235.238 230.973 234.645V203.38C230.973 201.688 230.296 200.065 229.091 198.869C227.886 197.672 226.251 197 224.547 197Z" fill="#B51E23"/>
<path d="M191.427 197C187.877 197 185 199.856 185 203.38V234.645C184.995 235.238 185.128 235.824 185.39 236.357C186.781 239.119 192.345 248.137 207.98 255V197H191.427Z" fill="#E21D3E"/>
<path d="M212.055 221.995C214.241 220.289 215.096 217.395 214.186 214.786C213.277 212.178 210.802 210.429 208.021 210.429C205.241 210.429 202.766 212.178 201.857 214.786C200.947 217.395 201.802 220.289 203.988 221.995C203.264 226.055 202.55 230.115 201.845 234.175C203.872 234.522 205.924 234.698 207.98 234.7C210.065 234.742 212.15 234.603 214.212 234.286C213.488 230.143 212.821 226.083 212.055 221.995Z" fill="white"/>
</svg>
