<svg width="1398" height="718" viewBox="0 0 1398 718" fill="none" xmlns="http://www.w3.org/2000/svg">
<rect width="1398" height="718" fill="url(#paint0_linear)"/>
<path d="M1062.94 121.732C1062.94 121.732 969.52 172.062 873.584 172.062C691.819 172.005 691.819 113 510.112 113C424.341 113 336 161.732 336 161.732V594.727C336 594.727 424.341 545.995 510.112 545.995C691.877 545.995 691.877 605 873.584 605C969.52 605 1063 554.67 1063 554.67L1062.94 121.732Z" fill="#FFFF00"/>
<path d="M416.149 372.536C412.241 376.106 406.868 377.927 400.169 377.927C392.771 377.927 387.049 375.546 383.071 370.715C379.094 365.884 377 360.073 377 353.001C377 348.38 377.837 344.25 379.512 340.609C381.187 336.898 383.909 333.887 387.607 331.577C391.306 329.266 395.772 328.076 401.006 328.076C404.077 328.076 406.798 328.496 409.241 329.266C411.683 330.037 413.707 331.017 415.172 332.137C416.638 333.257 417.964 334.588 419.08 336.128C420.197 337.668 420.965 338.998 421.453 340.259C421.942 341.519 422.291 342.709 422.5 343.9H416.219C415.033 340.329 413.079 337.668 410.427 335.848C407.775 334.027 404.635 333.117 400.936 333.117C395.633 333.117 391.446 334.938 388.235 338.578C385.025 342.219 383.42 346.98 383.42 352.651C383.42 358.603 385.025 363.434 388.166 367.074C391.306 370.715 395.563 372.536 400.867 372.536C404.844 372.536 408.264 371.415 411.195 369.245C414.126 367.074 415.87 363.504 416.498 358.673H422.849C422.291 364.344 420.057 368.965 416.149 372.536Z" fill="black"/>
<path d="M433.456 369.735H427.594V322.265H433.456V369.735Z" fill="black"/>
<path d="M477.7 315.264L460.533 362.734H454.252L437.853 315.264H444.552L457.113 354.892H457.951L470.931 315.264H477.7V315.264Z" fill="black"/>
<path d="M487.819 355.732H481.957V308.262H487.819V355.732Z" fill="black"/>
<path d="M532.481 344.529C528.573 348.1 523.2 349.921 516.5 349.921C509.103 349.921 503.381 347.54 499.403 342.709C495.425 337.948 493.401 331.997 493.401 324.995C493.401 320.374 494.239 316.243 495.914 312.533C497.588 308.822 500.31 305.881 504.009 303.501C507.707 301.19 512.174 300 517.407 300C520.478 300 523.2 300.42 525.642 301.19C528.085 301.96 530.108 302.941 531.574 304.061C533.039 305.181 534.365 306.511 535.482 308.052C536.598 309.592 537.366 310.922 537.854 312.183C538.343 313.443 538.692 314.633 538.901 315.823H532.621C531.434 312.253 529.48 309.592 526.828 307.772C524.177 305.951 521.036 305.041 517.338 305.041C512.034 305.041 507.847 306.861 504.637 310.502C501.427 314.143 499.822 318.834 499.822 324.505C499.822 330.456 501.427 335.288 504.567 338.928C507.707 342.569 511.964 344.389 517.268 344.389C521.246 344.389 524.665 343.269 527.596 341.099C530.527 338.928 532.272 335.358 532.9 330.526H539.25C538.692 336.338 536.389 340.959 532.481 344.529Z" fill="black"/>
<path d="M564.024 348.73H558.162V301.189H588.519V306.581H564.094V320.934H586.844V326.325H564.024V348.73Z" fill="black"/>
<path d="M623.412 350.339V355.731H594.172V308.19H600.034V350.339H623.412Z" fill="black"/>
<path d="M655.094 348.241H636.601L631.506 362.734H625.365L642.393 315.264H649.371L666.399 362.734H660.258L655.094 348.241ZM638.624 342.92H653.07L646.371 321.915H645.324L638.624 342.92Z" fill="black"/>
<path d="M722.717 345.159V369.735H717.344V350.41H715.041C714.343 356.362 712.11 361.263 708.341 365.114C704.573 368.964 699.548 370.925 693.268 370.995C685.731 371.065 679.799 368.824 675.472 364.273C671.146 359.792 668.982 353.911 668.982 346.63C668.982 338.718 671.216 332.487 675.682 327.936C680.148 323.385 686.01 321.074 693.198 321.074C699.199 321.074 704.084 322.615 707.992 325.625C711.9 328.706 714.413 332.837 715.529 338.088H708.969C708.271 334.517 706.457 331.646 703.386 329.476C700.316 327.236 696.896 326.115 693.198 326.115C687.336 326.115 682.87 328.006 679.799 331.786C676.729 335.567 675.193 340.258 675.193 345.93C675.193 352.511 676.868 357.482 680.218 360.773C683.568 364.063 687.894 365.744 693.198 365.744C697.525 365.744 701.153 364.483 704.015 361.963C706.876 359.442 708.69 355.592 709.318 350.48H696.966V345.229H722.717V345.159Z" fill="black"/>
<path d="M747.979 383.739H742.257V336.269H762.704C767.798 336.269 771.636 337.319 774.358 339.419C777.01 341.52 778.336 344.95 778.336 349.711C778.336 354.612 776.94 358.183 774.149 360.354C771.357 362.524 767.31 363.644 762.076 363.644H747.979V383.739ZM762.006 358.043C765.635 358.043 768.356 357.413 770.101 356.223C771.846 355.033 772.753 352.792 772.753 349.501C772.753 344.18 769.613 341.59 763.402 341.59H747.979V358.043H762.006V358.043Z" fill="black"/>
<path d="M819.788 385.348V390.74H806.598L796.828 370.645H788.733V390.74H783.011V343.27H803.458C806.807 343.27 809.32 343.55 810.995 344.11C813.646 345.02 815.67 346.63 817.066 348.941C818.462 351.251 819.09 353.842 819.09 356.712C819.09 359.583 818.392 362.314 816.926 364.834C815.531 367.355 813.297 369.035 810.367 369.875C808.831 370.365 806.528 370.645 803.597 370.645L810.576 385.348H819.788ZM788.733 365.044H802.76C806.389 365.044 809.11 364.414 810.855 363.224C812.6 362.034 813.507 359.793 813.507 356.502C813.507 351.181 810.366 348.591 804.156 348.591H788.733V365.044Z" fill="black"/>
<path d="M863.402 391.858C859.215 396.619 853.353 398.999 845.816 398.999C838.698 398.999 832.906 396.689 828.579 392.138C824.253 387.517 822.02 381.495 822.02 374.074C822.02 369.873 822.717 366.092 824.043 362.801C825.439 359.511 827.253 356.92 829.556 354.96C831.859 352.999 834.371 351.599 837.093 350.619C839.815 349.639 842.746 349.148 845.746 349.148C852.585 349.148 858.238 351.319 862.774 355.73C867.31 360.141 869.543 366.092 869.543 373.584C869.683 381.005 867.589 387.097 863.402 391.858ZM858.447 359.581C855.307 355.94 851.05 354.19 845.816 354.19C840.233 354.19 835.907 356.08 832.906 359.931C829.835 363.782 828.37 368.473 828.37 374.074C828.37 377.504 828.998 380.725 830.184 383.666C831.371 386.606 833.325 389.057 836.046 391.017C838.768 392.978 842.048 393.958 845.816 393.958C848.817 393.958 851.469 393.398 853.772 392.208C856.075 391.017 857.959 389.407 859.285 387.447C860.68 385.486 861.657 383.246 862.286 380.935C862.914 378.555 863.263 376.174 863.263 373.654C863.263 367.842 861.657 363.221 858.447 359.581Z" fill="black"/>
<path d="M894.945 390.389C894.666 391.999 894.038 393.469 893.061 394.66C891.037 397.18 887.897 398.44 883.709 398.44C880.918 398.44 878.615 397.74 876.801 396.27C876.382 395.92 875.963 395.57 875.614 395.22C875.265 394.87 874.986 394.45 874.777 393.96C874.568 393.469 874.289 393.119 874.149 392.769C874.009 392.419 873.8 391.929 873.73 391.299C873.591 390.669 873.521 390.179 873.451 389.899C873.381 389.619 873.312 389.058 873.312 388.288C873.312 387.518 873.312 387.028 873.312 386.748V384.998V383.317H879.034V387.588C879.034 391.369 880.709 393.259 884.058 393.259C887.548 393.259 889.362 391.299 889.571 387.308V350.2H895.433V382.127C895.294 386.048 895.224 388.778 894.945 390.389Z" fill="black"/>
<path d="M902.692 343.27H935.281V348.661H908.414V363.574H933.886V368.965H908.344V385.348H935.979V390.74H902.622V343.27H902.692Z" fill="black"/>
<path d="M978.408 379.536C974.5 383.107 969.126 384.927 962.427 384.927C955.03 384.927 949.307 382.547 945.33 377.716C941.352 372.955 939.328 367.004 939.328 360.002C939.328 355.381 940.166 351.25 941.84 347.54C943.515 343.829 946.237 340.888 949.935 338.508C953.634 336.197 958.1 335.007 963.334 335.007C966.405 335.007 969.126 335.427 971.569 336.197C974.011 336.967 976.035 337.947 977.501 339.068C978.966 340.188 980.292 341.518 981.409 343.059C982.525 344.599 983.293 345.929 983.781 347.189C984.27 348.45 984.619 349.64 984.828 350.83H978.547C977.361 347.259 975.407 344.599 972.755 342.778C970.103 340.958 966.963 340.048 963.264 340.048C957.961 340.048 953.774 341.868 950.564 345.509C947.353 349.15 945.748 353.841 945.748 359.512C945.748 365.463 947.353 370.294 950.494 373.935C953.634 377.576 957.891 379.396 963.195 379.396C967.172 379.396 970.592 378.276 973.523 376.106C976.454 373.935 978.198 370.364 978.827 365.533H985.177C984.549 371.345 982.316 375.966 978.408 379.536Z" fill="black"/>
<path d="M1007.93 376.735H1002.13V334.586H986.99V329.195H1023V334.586H1007.93V376.735Z" fill="black"/>
<defs>
<linearGradient id="paint0_linear" x1="699" y1="0" x2="699" y2="718" gradientUnits="userSpaceOnUse">
<stop stop-color="#000303"/>
</linearGradient>
</defs>
</svg>
