<svg width="1398" height="718" viewBox="0 0 1398 718" fill="none" xmlns="http://www.w3.org/2000/svg">
<rect width="1398" height="718" fill="white"/>
<rect width="1398" height="718" fill="url(#paint0_linear)"/>
<path d="M405.561 360.316C396.309 357.674 385.736 356.022 375.493 354.37C355.668 351.397 336.834 348.424 330.556 337.523C325.6 328.603 324.608 317.702 328.243 308.122C332.208 297.22 341.46 288.962 354.016 284.667C369.215 279.382 392.014 277.399 410.517 287.31C422.743 293.917 430.673 304.158 434.307 318.032L437.612 317.041C433.647 302.175 425.056 291.274 412.169 284.337C392.675 273.766 368.554 276.078 353.024 281.364C339.477 285.988 329.565 294.908 325.269 306.8C321.304 317.371 322.295 329.594 327.913 339.174C335.182 351.397 354.677 354.37 375.162 357.674C385.075 359.325 395.648 360.647 404.57 363.29C436.29 372.539 436.29 387.074 436.29 399.958C436.29 418.788 429.351 437.617 376.815 437.617C327.252 437.617 321.635 404.913 321.304 403.261L318 403.922C318 404.253 319.652 413.502 327.582 422.422C334.851 430.68 349.39 440.921 376.815 440.921C420.43 440.921 439.594 428.368 439.594 399.958C439.594 387.405 439.594 370.227 405.561 360.316Z" fill="black"/>
<path d="M528.807 279.382C506.669 279.382 489.157 286.98 476.931 301.845C469.332 311.095 465.036 322.657 462.723 333.228V211H459.419V439.6H462.723V358.995C462.723 358.665 463.054 323.978 479.575 303.827C491.139 289.953 507.66 282.685 528.807 282.685C529.137 282.685 568.127 281.364 580.022 313.407C582.004 318.693 582.996 330.585 582.996 336.862V439.269H586.3V336.862C586.3 330.585 585.309 318.363 582.996 312.086C570.109 278.06 529.137 279.382 528.807 279.382Z" fill="black"/>
<path d="M730.361 377.163C730.361 393.02 723.753 408.546 711.858 419.778C702.606 428.697 686.085 438.938 658.661 437.617C612.732 435.635 612.402 393.35 612.402 391.368V283.015H609.098V391.368C609.098 391.699 609.098 438.938 658.661 440.92C659.982 440.92 661.634 440.92 662.956 440.92C688.729 440.92 704.919 430.679 714.171 422.09C721.44 415.153 727.057 406.234 730.361 396.654V439.268H733.666V283.015H730.361V377.163Z" fill="black"/>
<path d="M1058.14 296.89C1047.24 285.328 1032.04 279.382 1013.53 279.382C968.597 279.382 943.815 308.783 943.815 361.968C943.815 363.62 942.824 400.289 964.962 423.413C976.527 435.305 992.056 441.252 1011.22 441.252C1011.22 441.252 1011.55 441.252 1011.88 441.252C1017.17 441.252 1061.11 440.261 1077.3 405.244L1074.33 403.922C1058.14 438.939 1011.88 437.948 1011.55 437.948C993.378 437.948 978.509 432.332 967.605 421.1C948.772 401.61 947.45 370.888 947.119 363.62H1078.96V361.968C1078.96 360.317 1080.94 320.675 1058.14 296.89ZM947.119 359.986C947.45 330.255 956.702 282.355 1013.53 282.355C1031.05 282.355 1045.25 287.971 1055.5 298.872C1074.99 319.023 1075.65 352.388 1075.65 359.986H947.119Z" fill="black"/>
<path d="M850.636 349.747V443.565H853.94V287.311H920.355V443.565H923.659V221.572H891.278C868.809 221.572 850.636 239.741 850.636 262.205V284.008H821.559C799.091 284.008 780.918 302.177 780.918 324.64V346.443H755.476V349.747H780.918V506.001H784.222V349.747H850.636ZM784.222 346.443V324.64C784.222 304.159 801.073 287.311 821.559 287.311H850.636V346.443H784.222ZM920.355 284.008H853.94V262.205C853.94 241.723 870.792 224.876 891.278 224.876H920.355V284.008V284.008Z" fill="black"/>
<defs>
<linearGradient id="paint0_linear" x1="699" y1="0" x2="699" y2="718" gradientUnits="userSpaceOnUse">
<stop stop-color="#EEEFF3" stop-opacity="0.1"/>
<stop offset="0.535912" stop-color="white" stop-opacity="0"/>
<stop offset="1" stop-color="#EEEFF3"/>
</linearGradient>
</defs>
</svg>
