<svg width="1398" height="718" viewBox="0 0 1398 718" fill="none" xmlns="http://www.w3.org/2000/svg">
<rect width="1398" height="718" fill="#1568BD"/>
<path d="M338 295.701H365.928V397.183H417.499V422.899H338V295.701Z" fill="white"/>
<path d="M429.804 336.764H456.626V423.037H429.804V336.764ZM443.215 293.904C451.787 293.904 458.7 300.817 458.7 309.389C458.7 317.961 451.787 324.874 443.215 324.874C434.643 324.874 427.73 317.961 427.73 309.389C427.592 300.817 434.643 293.904 443.215 293.904Z" fill="white"/>
<path d="M568.477 295.701H595.299V371.743L625.578 336.626H658.483L623.366 376.582L657.792 422.899H624.057L595.576 380.315H595.299V422.899H568.477V295.701Z" fill="white"/>
<path d="M471.419 336.764H497.136V348.516H497.55C501.145 341.741 509.855 334.552 522.852 334.552C549.95 334.552 554.928 352.387 554.928 375.615V422.899H528.105V381.007C528.105 371.052 527.967 358.194 514.141 358.194C500.177 358.194 498.103 369.116 498.103 380.315V422.899H471.419V336.764Z" fill="white"/>
<path d="M714.893 369.808C715.032 360.821 708.119 353.355 698.441 353.355C686.689 353.355 680.19 361.374 679.499 369.808H714.893ZM737.568 407.967C728.996 418.889 714.893 425.111 700.929 425.111C674.107 425.111 652.677 407.276 652.677 379.624C652.677 351.972 674.107 334.137 700.929 334.137C725.954 334.137 741.577 351.972 741.577 379.624V388.058H679.499C681.573 398.289 689.316 404.787 699.685 404.787C708.395 404.787 714.34 400.363 718.765 394.279L737.568 407.967Z" fill="white"/>
<path d="M797.433 357.503C784.022 357.503 776.003 366.489 776.003 379.486C776.003 392.482 784.022 401.469 797.433 401.469C810.845 401.469 818.864 392.482 818.864 379.486C818.864 366.489 810.845 357.503 797.433 357.503ZM843.474 422.899H818.864V411.424H818.449C814.301 417.645 803.932 424.973 791.903 424.973C766.187 424.973 749.181 406.446 749.181 380.177C749.181 356.12 764.251 333.86 788.861 333.86C799.922 333.86 810.291 336.902 816.375 345.336H816.79V295.701H843.612V422.899H843.474Z" fill="white"/>
<path fill-rule="evenodd" clip-rule="evenodd" d="M1037.59 269.017H883.569C876.241 269.017 870.296 274.824 870.296 282.013V436.587C870.296 443.776 876.241 449.583 883.569 449.583H1037.59C1044.92 449.583 1051 443.776 1051 436.587V282.013C1051 274.824 1044.92 269.017 1037.59 269.017ZM897.118 336.764H923.94V423.037H897.118V336.764ZM910.529 293.904C919.101 293.904 926.014 300.817 926.014 309.389C926.014 317.961 919.101 324.874 910.529 324.874C901.957 324.874 895.044 317.961 895.044 309.389C894.906 300.817 901.819 293.904 910.529 293.904ZM966.386 336.764H940.669V422.899H967.492V380.315C967.492 369.116 969.565 358.194 983.53 358.194C997.355 358.194 997.494 371.052 997.494 381.007V422.899H1024.18V375.615C1024.18 352.387 1019.2 334.552 992.102 334.552C979.105 334.552 970.395 341.741 966.8 348.516H966.386V336.764Z" fill="white"/>
</svg>
