<?xml version="1.0" encoding="utf-8"?>
<!-- Generator: Adobe Illustrator 22.1.0, SVG Export Plug-In . SVG Version: 6.00 Build 0)  -->
<svg version="1.1" id="Layer_1" xmlns="http://www.w3.org/2000/svg" xmlns:xlink="http://www.w3.org/1999/xlink" x="0px" y="0px"
	 viewBox="0 0 1200 675" style="enable-background:new 0 0 1200 675;" xml:space="preserve">
<style type="text/css">
	.st0{fill:url(#SVGID_1_);}
	.st1{fill:#010000;}
</style>
<title>muse_hero</title>
<radialGradient id="SVGID_1_" cx="1156.5048" cy="18.2344" r="1227.7284" gradientTransform="matrix(1 0 0 -1 0 675)" gradientUnits="userSpaceOnUse">
	<stop  offset="0" style="stop-color:#FE0C60"/>
	<stop  offset="0.5168" style="stop-color:#FE9AB2"/>
	<stop  offset="1" style="stop-color:#FEF0D4"/>
</radialGradient>
<rect class="st0" width="1200" height="675"/>
<path class="st1" d="M398.7,223.1c39-0.2,37.4-39.1,74.9-39.3c-37.5,0.2-36.3-38.8-75.2-38.7s-37.4,39.1-74.9,39.3
	C361,184.2,359.7,223.3,398.7,223.1z"/>
<path class="st1" d="M362.7,259.4c-0.2-39-39.1-37.4-39.3-74.9c0.2,37.5-38.8,36.3-38.7,75.2c0.2,38.9,39.1,37.4,39.3,74.9
	C324,297.1,362.9,298.4,362.7,259.4z"/>
<path class="st1" d="M513.7,408.9c-0.2-39-39.1-37.4-39.3-74.9c0.2,37.5-38.8,36.3-38.7,75.2c0.2,38.9,39.1,37.4,39.3,74.9
	C474.8,446.6,513.8,447.9,513.7,408.9z"/>
<path class="st1" d="M399.4,373.3c39-0.2,37.4-39.1,74.9-39.3c-37.5,0.2-36.3-38.8-75.2-38.7c-38.9,0.2-37.3,39.1-74.9,39.3
	C361.7,334.5,360.4,373.4,399.4,373.3z"/>
<path class="st1" d="M513,258.7c0.1,21.6-17.3,39.1-38.8,39.2c-21.6,0.1-39.1-17.3-39.2-38.8l0,0c-0.2-39,38.8-37.7,38.7-75.2
	C473.8,221.3,512.8,219.7,513,258.7"/>
<path class="st1" d="M399.7,445.5c-39,0.2-37.4,39.1-74.9,39.3c37.5-0.2,36.3,38.8,75.2,38.7c38.9-0.2,37.4-39.1,74.9-39.3
	C437.5,484.4,438.7,445.3,399.7,445.5z"/>
<path class="st1" d="M285.4,409.9c-0.1-21.6,17.3-39.1,38.8-39.2c21.6-0.1,39.1,17.3,39.2,38.8c0.2,39-38.8,37.7-38.7,75.2
	C324.6,447.3,285.6,448.9,285.4,409.9"/>
<path class="st1" d="M589,331.2h-10.8l-0.3-54h10.4l23,39.8l22.5-40.1h10.4l0.3,54h-10.8l-0.2-31.4L615.8,331h-8.8l-18-31.3
	L589,331.2z"/>
<path class="st1" d="M702.7,276.6l0.1,29.1c0.1,14.8-10.6,25.1-25,25.2c-14.3,0.1-25.3-10.1-25.3-24.9l-0.2-29.1h10.8l0.1,29.1
	c0,8.8,6.3,14.2,14.4,14.2c8.2,0,14.2-5.5,14.2-14.2l-0.1-29.1L702.7,276.6z"/>
<path class="st1" d="M727.4,276.5c9.1,0,16.1,4.7,18,13.6l-9.8,4c-1.1-4.8-4.1-6.7-8.3-6.7c-4.4,0-6.6,2.1-6.6,4.8
	c0,3.9,4.2,4.9,10,6.7c7.3,2.4,14.2,5.9,14.2,16c0,10.1-7.5,15.7-17.4,15.8c-8.4,0-16.1-3.9-18.1-13.6l9.6-4.2c1.1,4.7,3.9,7,8.5,7
	c4.2,0,6.6-1.9,6.6-4.9c0-4-4.3-5.1-9.6-6.6c-6.8-2.2-14.5-5.7-14.6-16.1C710,282.2,717.4,276.5,727.4,276.5z"/>
<path class="st1" d="M787.2,276.2V287l-24.1,0.1v10.8l24.1-0.1v10.8l-24.1,0.1v10.8l24.1-0.1v10.8l-35,0.2l-0.3-54L787.2,276.2z"/>
<path class="st1" d="M845.1,275.9l0.1,29.1c0.1,14.8-10.6,25.1-25,25.2c-14.3,0.1-25.3-10.1-25.3-24.9l-0.1-29.1h10.8l0.1,29.1
	c0,8.8,6.3,14.2,14.4,14.2c8.2,0,14.2-5.5,14.2-14.2l-0.1-29.1L845.1,275.9z"/>
<path class="st1" d="M863.3,329.9h-10.8l-0.3-54h10.4l23,39.9l22.5-40.1h10.4l0.3,54H908l-0.2-31.4l-17.8,31.5h-8.8l-18-31.3
	L863.3,329.9z"/>
<path class="st1" d="M601.5,345c15.5-0.1,27.1,11.5,27.2,26.9s-11.5,27.1-26.9,27.2s-27.1-11.5-27.2-26.9S586.1,345,601.5,345z
	 M601.6,355.9c-9.5,0-16.1,6.8-16.1,16.3s6.8,16.1,16.3,16.1s16.1-6.8,16.1-16.3S611,355.8,601.6,355.9L601.6,355.9z"/>
<path class="st1" d="M670,344.7v10.8l-24.1,0.1v10.8l24.1-0.1v10.8l-24.1,0.1l0.1,21.7h-10.8l-0.3-54L670,344.7z"/>
<path class="st1" d="M716.3,344.5c9.1,0,16.1,4.7,18,13.6l-9.8,4c-1.1-4.8-4.1-6.7-8.3-6.7c-4.4,0-6.6,2.1-6.6,4.8
	c0,3.9,4.2,4.9,10,6.7c7.3,2.4,14.2,5.9,14.2,16s-7.5,15.7-17.4,15.8c-8.4,0-16.1-3.9-18.1-13.6l9.7-4.2c1.1,4.7,3.9,7,8.5,7
	c4.2,0,6.6-1.9,6.6-4.9c0-4-4.3-5.1-9.6-6.6c-6.8-2.2-14.5-5.7-14.6-16.1C699,350.3,706.4,344.6,716.3,344.5z"/>
<path class="st1" d="M775.2,344.3v10.8l-24.1,0.1V366l24.1-0.1v10.8l-24.1,0.1v10.8l24.1-0.1v10.8l-35,0.2l-0.3-54L775.2,344.3z"/>
<path class="st1" d="M780.3,398.3l21.8-27.2l-22-27l13.9-0.1l15,18.3l14.8-18.4l14-0.1l-21.8,27.2l22,27l-14,0.1l-14.9-18.3
	l-14.8,18.4L780.3,398.3z"/>
</svg>
