<?xml version="1.0" encoding="utf-8"?>
<!-- Generator: Adobe Illustrator 21.1.0, SVG Export Plug-In . SVG Version: 6.00 Build 0)  -->
<svg version="1.1" id="Layer_1" xmlns="http://www.w3.org/2000/svg" xmlns:xlink="http://www.w3.org/1999/xlink" x="0px" y="0px"
	 viewBox="0 0 1200 675" style="enable-background:new 0 0 1200 675;" xml:space="preserve">
<style type="text/css">
	.st0{fill:#FFFFFF;}
</style>
<title>muse_hero</title>
<rect width="1200" height="675"/>
<path class="st0" d="M388,217.2c41.1-0.2,39.4-41.2,78.9-41.4c-39.5,0.2-38.2-40.9-79.2-40.7s-39.4,41.2-78.9,41.4
	C348.3,176.3,346.9,217.4,388,217.2z"/>
<path class="st0" d="M350.1,255.4c-0.2-41.1-41.2-39.4-41.4-78.9c0.2,39.5-40.9,38.2-40.7,79.2s41.2,39.4,41.4,78.9
	C309.3,295.1,350.3,296.5,350.1,255.4z"/>
<path class="st0" d="M509,412.8c-0.2-41.1-41.2-39.4-41.4-78.9c0.2,39.5-40.9,38.2-40.7,79.2s41.2,39.4,41.4,78.9
	C468.1,452.5,509.2,453.9,509,412.8z"/>
<path class="st0" d="M388.7,375.4c41.1-0.2,39.4-41.2,78.9-41.4c-39.5,0.2-38.2-40.9-79.2-40.7s-39.3,41.2-78.9,41.4
	C349,334.5,347.6,375.5,388.7,375.4z"/>
<path class="st0" d="M508.3,254.7c0.1,22.7-18.2,41.2-40.9,41.3c-22.7,0.1-41.2-18.2-41.3-40.9l0,0c-0.2-41.1,40.8-39.7,40.7-79.2
	C467,215.3,508.1,213.6,508.3,254.7"/>
<path class="st0" d="M389,451.4c-41.1,0.2-39.4,41.2-78.9,41.4c39.5-0.2,38.2,40.9,79.2,40.7s39.4-41.2,78.9-41.4
	C428.8,492.3,430.1,451.2,389,451.4z"/>
<path class="st0" d="M268.7,413.9c-0.1-22.7,18.2-41.2,40.9-41.3s41.2,18.2,41.3,40.9c0.2,41.1-40.9,39.7-40.7,79.2
	C310,453.3,268.9,455,268.7,413.9"/>
<path class="st0" d="M588.3,331l-11.4,0l-0.3-56.9l11,0l24.2,41.9l23.7-42.2l11,0l0.3,56.9l-11.4,0l-0.2-33.1l-18.7,33.2h-9.3
	l-19-33L588.3,331z"/>
<path class="st0" d="M708,273.5l0.1,30.6c0.1,15.6-11.2,26.4-26.3,26.5s-26.6-10.6-26.6-26.2l-0.2-30.6l11.4,0l0.1,30.6
	c0,9.3,6.6,14.9,15.2,14.9s15-5.8,15-15l-0.1-30.6L708,273.5z"/>
<path class="st0" d="M734,273.4c9.6,0,16.9,5,19,14.3l-10.3,4.2c-1.2-5.1-4.3-7.1-8.7-7.1c-4.6,0-6.9,2.2-6.9,5.1
	c0,4.1,4.4,5.2,10.5,7.1c7.7,2.5,15,6.2,15,16.8s-7.9,16.5-18.3,16.6c-8.8,0-16.9-4.1-19.1-14.3l10.1-4.4c1.2,5,4.1,7.4,9,7.4
	c4.4,0,6.9-2,6.9-5.2c0-4.2-4.5-5.4-10.1-7c-7.2-2.3-15.3-6-15.4-16.9C715.7,279.5,723.5,273.4,734,273.4z"/>
<path class="st0" d="M797,273.1l0,11.4l-25.4,0.1l0,11.4l25.4-0.1l0,11.4l-25.4,0.1l0,11.4l25.4-0.1l0,11.4l-36.8,0.2l-0.3-56.9
	L797,273.1z"/>
<path class="st0" d="M858,272.8l0.1,30.6c0.1,15.6-11.2,26.4-26.3,26.5s-26.6-10.6-26.6-26.2l-0.1-30.6l11.4,0l0.1,30.6
	c0,9.3,6.6,14.9,15.2,14.9s15-5.8,15-15l-0.1-30.6L858,272.8z"/>
<path class="st0" d="M877.1,329.7l-11.4,0l-0.3-56.9l11,0l24.2,42l23.7-42.2l11,0l0.3,56.9l-11.4,0l-0.2-33.1l-18.7,33.2h-9.3
	l-19-33L877.1,329.7z"/>
<path class="st0" d="M601.5,345.6c16.3-0.1,28.5,12.1,28.6,28.3s-12.1,28.5-28.3,28.6s-28.5-12.1-28.6-28.3S585.3,345.6,601.5,345.6
	z M601.6,357c-10,0-17,7.2-17,17.2s7.2,17,17.2,17s17-7.2,17-17.2S611.5,356.9,601.6,357L601.6,357z"/>
<path class="st0" d="M673.6,345.2l0,11.4l-25.4,0.1l0,11.4l25.4-0.1l0,11.4l-25.4,0.1l0.1,22.8l-11.4,0l-0.3-56.9L673.6,345.2z"/>
<path class="st0" d="M722.4,345c9.6,0,16.9,5,19,14.3l-10.3,4.2c-1.2-5.1-4.3-7.1-8.7-7.1c-4.6,0-6.9,2.2-6.9,5.1
	c0,4.1,4.4,5.2,10.5,7.1c7.7,2.5,15,6.2,15,16.8s-7.9,16.5-18.3,16.6c-8.8,0-16.9-4.1-19.1-14.3l10.2-4.4c1.2,5,4.1,7.4,9,7.4
	c4.4,0,6.9-2,6.9-5.2c0-4.2-4.5-5.4-10.1-7c-7.2-2.3-15.3-6-15.4-16.9C704.1,351.1,711.9,345.1,722.4,345z"/>
<path class="st0" d="M784.4,344.8l0,11.4l-25.4,0.1l0,11.4l25.4-0.1l0,11.4l-25.4,0.1l0,11.4l25.4-0.1l0,11.4l-36.8,0.2l-0.3-56.9
	L784.4,344.8z"/>
<path class="st0" d="M789.7,401.7l22.9-28.6l-23.2-28.4l14.6-0.1l15.8,19.3l15.6-19.4l14.7-0.1l-22.9,28.6l23.2,28.4l-14.7,0.1
	L820,382.2l-15.6,19.4L789.7,401.7z"/>
</svg>
