<svg xmlns="http://www.w3.org/2000/svg" viewBox="0 0 192.36 192.36"><defs><style>.cls-1{fill:red;}.cls-2{fill:none;}</style></defs><title>muse_icon_1</title><g id="Layer_2" data-name="Layer 2"><g id="Layer_1-2" data-name="Layer 1"><path class="cls-1" d="M96.18,116c19.83,0,19.09-19.83,38.18-19.83-19.09,0-18.35-19.83-38.18-19.83S77.09,96.18,58,96.18C77.09,96.18,76.35,116,96.18,116Z"/><path class="cls-1" d="M96.18,39.66c19.83,0,19.09-19.83,38.18-19.83C115.27,19.83,116,0,96.18,0S77.09,19.83,58,19.83C77.09,19.83,76.35,39.66,96.18,39.66Z"/><path class="cls-1" d="M96.18,192.36c19.83,0,19.09-19.83,38.18-19.83-19.09,0-18.35-19.83-38.18-19.83S77.09,172.53,58,172.53C77.09,172.53,76.35,192.36,96.18,192.36Z"/><path class="cls-1" d="M38.18,58C38.18,77.84,58,77.09,58,96.18,58,77.09,77.84,77.84,77.83,58S58,38.92,58,19.83C58,38.92,38.18,38.17,38.18,58Z"/><path class="cls-1" d="M114.53,134.36c0,19.83,19.83,19.09,19.83,38.18,0-19.09,19.83-18.35,19.83-38.18s-19.83-19.09-19.83-38.18C134.36,115.27,114.53,114.53,114.53,134.36Z"/><path class="cls-1" d="M154.18,58a19.83,19.83,0,1,1-39.66,0c0-19.83,19.83-19.09,19.83-38.18C134.36,38.92,154.19,38.17,154.18,58Z"/><path class="cls-1" d="M38.18,134.36a19.83,19.83,0,1,1,39.66,0c0,19.83-19.83,19.09-19.83,38.18C58,153.44,38.17,154.19,38.18,134.36Z"/><rect class="cls-2" width="192.36" height="192.36"/></g></g></svg>