<svg xmlns="http://www.w3.org/2000/svg" xmlns:xlink="http://www.w3.org/1999/xlink" viewBox="0 0 193.32 320.22"><defs><style>.cls-1{fill:none;}.cls-2{clip-path:url(#clip-path);}.cls-3{stroke:#000;stroke-linejoin:round;stroke-width:0.5px;}</style><clipPath id="clip-path" transform="translate(-121.62 -58.17)"><rect class="cls-1" width="436.57" height="436.57"/></clipPath></defs><title>muse_logo_2</title><g id="Layer_2" data-name="Layer 2"><g id="Layer_1-2" data-name="Layer 1"><g class="cls-2"><path class="cls-3" d="M218.28,251.24c33,0,31.73-33,63.45-33-31.73,0-30.49-33-63.45-33s-31.73,33-63.45,33C186.56,218.28,185.32,251.24,218.28,251.24Z" transform="translate(-121.62 -58.17)"/><path class="cls-3" d="M218.28,124.34c33,0,31.73-33,63.45-33-31.73,0-30.49-33-63.45-33s-31.73,33-63.45,33C186.56,91.38,185.32,124.34,218.28,124.34Z" transform="translate(-121.62 -58.17)"/><path class="cls-3" d="M218.28,378.15c33,0,31.73-33,63.45-33-31.73,0-30.49-33-63.45-33s-31.73,33-63.45,33C186.56,345.19,185.32,378.15,218.28,378.15Z" transform="translate(-121.62 -58.17)"/><path class="cls-3" d="M121.87,154.83c0,33,33,31.73,33,63.45,0-31.73,33-30.49,33-63.45s-33-31.73-33-63.45C154.83,123.11,121.87,121.87,121.87,154.83Z" transform="translate(-121.62 -58.17)"/><path class="cls-3" d="M248.78,281.74c0,33,33,31.73,33,63.45,0-31.73,33-30.49,33-63.45s-33-31.73-33-63.45C281.74,250,248.78,248.78,248.78,281.74Z" transform="translate(-121.62 -58.17)"/><path class="cls-3" d="M314.69,154.83a33,33,0,1,1-65.91,0c0-33,33-31.73,33-63.45C281.74,123.11,314.7,121.87,314.69,154.83Z" transform="translate(-121.62 -58.17)"/><path class="cls-3" d="M121.87,281.74a33,33,0,1,1,65.91,0c0,33-33,31.73-33,63.45C154.83,313.46,121.87,314.7,121.87,281.74Z" transform="translate(-121.62 -58.17)"/></g></g></g></svg>