<svg xmlns="http://www.w3.org/2000/svg" viewBox="0 0 302.7 145.69"><title>muse_process_logo_02</title><g id="Layer_2" data-name="Layer 2"><g id="Layer_1-2" data-name="Layer 1"><path d="M271.88,22.61C262.38,12.53,250.55,0,227,0h0c-23.51,0-35.34,12.54-44.85,22.61-8.8,9.33-15.76,16.7-30.82,16.7s-22-7.37-30.82-16.7C111,12.53,99.2,0,75.69,0h0C52.15,0,40.32,12.54,30.82,22.61,22,31.94,15.06,39.31,0,39.31V56.36c22.41,0,33.47-11.71,43.22-22,9.1-9.64,16.29-17.26,32.45-17.26h0c16.16,0,23.35,7.62,32.44,17.26,9.75,10.33,20.81,22,43.22,22s33.47-11.71,43.22-22c9.1-9.64,16.29-17.26,32.45-17.26h0c16.16,0,23.35,7.62,32.44,17.26,9.75,10.33,20.8,22,43.22,22V39.31C287.64,39.31,280.69,31.94,271.88,22.61Z"/><path d="M271.9,72.67c-9.5-10.07-21.32-22.6-44.82-22.6h0c-23.5,0-35.33,12.53-44.83,22.6-8.8,9.32-15.75,16.69-30.8,16.69v-.12c-15.07,0-22-7.37-30.84-16.71-9.51-10.08-21.34-22.62-44.86-22.62h0c-23.52,0-35.36,12.54-44.87,22.62C22,81.87,15.07,89.24,0,89.24v17.05c15.07,0,22,7.37,30.84,16.71,9.51,10.08,21.35,22.62,44.88,22.62s35.36-12.54,44.87-22.62c8.81-9.33,15.77-16.71,30.84-16.71v.12c15.05,0,22,7.36,30.8,16.69,9.5,10.07,21.33,22.6,44.84,22.6s35.33-12.53,44.84-22.6c8.8-9.32,15.75-16.69,30.8-16.69V89.36C287.65,89.36,280.7,82,271.9,72.67ZM108.19,111.3c-9.11,9.65-16.3,17.27-32.47,17.27s-23.37-7.62-32.48-17.27c-4.37-4.63-9-9.53-14.78-13.53,5.79-4,10.41-8.91,14.78-13.53C52.34,74.59,59.53,67,75.71,67h0c16.17,0,23.36,7.62,32.46,17.27,4.37,4.63,9,9.53,14.78,13.53C117.18,101.77,112.55,106.67,108.19,111.3ZM227.06,67.12h0a35.25,35.25,0,0,1,15.51,3.19L227.07,85.83,211.55,70.31A35.26,35.26,0,0,1,227.06,67.12ZM179.88,97.88c5.78-4,10.39-8.89,14.75-13.51,1.14-1.21,2.25-2.38,3.35-3.52l17,17-17,17c-1.1-1.13-2.21-2.31-3.35-3.52C190.27,106.77,185.65,101.88,179.88,97.88Zm31.67,27.57,15.52-15.52,15.52,15.52a39.34,39.34,0,0,1-31,0Zm48-14.06c-1.14,1.21-2.25,2.38-3.35,3.52l-17-17,17-17c1.1,1.13,2.21,2.31,3.35,3.52,4.36,4.62,9,9.51,14.75,13.51C268.48,101.88,263.86,106.77,259.5,111.39Z"/></g></g></svg>