<svg width="804" height="452" viewBox="0 0 804 452" fill="none" xmlns="http://www.w3.org/2000/svg">
<rect width="804" height="452" fill="#252969"/>
<path fill-rule="evenodd" clip-rule="evenodd" d="M445.072 198.335C453.952 196.836 463.782 197.347 473.015 196.295C472.954 200.115 471.218 203.838 470.331 207.643L471.186 208.201L493.621 208.05L491.135 217.519L467.886 217.887C464.701 227.327 462.264 237.127 459.547 246.785C459.591 249.263 461.55 250.692 463.591 251.763C470.671 251.763 478.973 252.853 485.183 250.4L482.249 261.197L443.62 261.504C438.356 260.683 432.978 255.84 431.932 250.941L432.152 243.983C436.665 228.912 440.713 213.526 445.072 198.335ZM355.464 209.204C362.473 219.034 368.912 229.004 374.741 239.345C363.859 247.106 352.811 254.473 341.812 261.81L341.837 262.381L359.94 262.075L380.427 248.303C383.508 252.618 386.461 257.041 388.116 261.954L422.901 261.591C422.151 261.402 421.542 260.512 420.933 260.076L403.994 232.36L438.356 208.957L438.325 208.4L417.596 209.073C412.433 215.434 404.573 218.587 398.073 223.282C395.222 218.627 391.304 214.428 390.602 208.957L355.464 209.204ZM580.212 207.775L580.62 210.446L568.162 256.34L565.133 260.875H598.015L597.325 257.203L605.388 226.183C605.718 224.379 607.234 222.569 609.014 221.765C615.857 221.868 626.019 219.575 632.307 223.282L636.348 207.878C626.06 209.479 612.158 203.224 606.229 214.078C605.247 212.295 605.794 209.933 605.657 207.79L580.212 207.775ZM255.779 189.319L189.566 189.6L189.677 194.76L172.678 254.719L168 263.282L238.762 263.241C245.163 263.385 250.646 261.386 253.563 256.322C255.686 248.882 259.502 241.885 258.64 233.595C257.608 230.37 255.17 227.396 252.129 225.442C255.126 224.608 258.113 223.529 260.464 221.254C265.484 214.91 267.018 206.929 267.22 199.093C266.084 194.297 260.968 190.142 255.779 189.319ZM219.941 201.563L237.303 201.706C239.716 203.022 238.842 206.391 238.282 208.182C236.76 211.802 236.865 216.617 233.309 219.023L213.398 219.11L219.941 201.563ZM209.902 231.262L228.353 231.187C230.908 232.269 230.261 235.744 229.566 237.668C227.228 241.855 229.917 248.302 224.932 250.634L204.854 250.607C205.711 244.201 208.226 237.679 209.902 231.262ZM334.124 209.527L276.042 209.717L271.942 219.506C285.944 217.49 301.073 218.835 315.087 218.466C316.305 219.023 316.932 220.235 317.074 221.461C316.51 223.138 316.669 225.384 314.632 226.315L276.41 227.166L269.75 230.268C264.323 235.859 263.139 243.052 262.672 250.549C262.998 254.912 266.083 258.91 270.084 261.197C278.989 263.84 291.459 262.541 301.99 262.238C304.408 261.633 305.991 259.243 307.135 257.32C308.009 258.892 308.679 260.656 309.198 262.333L336.532 262.454L335.651 258.778L343.72 229.092C344.981 225.253 346.201 219.87 343.467 216.44C341.621 212.996 337.762 210.807 334.124 209.527ZM312.558 236.759L308.495 251.157L306.741 252.531L292.943 252.751C287.003 249.496 292.757 242.904 293.282 238.191L295.521 236.808L312.558 236.759ZM561.286 208.313L508.861 208.05C504.901 208.78 501.339 211.073 498.902 214.457C495.276 225.718 491.874 237.1 489.835 248.985C490.761 254.474 495.167 259.869 501.215 261.128L558.77 260.977L563.256 249.907L560.384 251.103L520.936 251.395L518.873 250.43C515.704 246.786 519.472 243.036 519.877 239.316L567.351 238.561C568.649 231.032 573.9 223.558 570.04 215.434C568.417 212.21 564.789 209.25 561.286 208.313ZM527.749 218.031L540.471 217.828C541.659 218.133 543.002 219.226 543.407 220.467C543.315 223.138 542.786 225.735 541.721 228.211L523.016 228.523C524.642 225.017 524.063 220.219 527.749 218.031Z" fill="white"/>
</svg>
