<svg width="1398" height="718" viewBox="0 0 1398 718" fill="none" xmlns="http://www.w3.org/2000/svg">
<rect width="1398" height="718" fill="url(#paint0_radial)"/>
<path d="M398.526 297.469L283.413 422.279C281.659 419.531 280.031 416.657 278.653 413.784L399.152 293.721C399.904 293.096 402.033 291.222 401.407 292.097C401.156 292.597 399.027 296.095 398.526 297.469ZM395.394 312.586C395.394 312.586 395.269 312.586 395.394 312.586L320.615 459.885C323.12 461.509 325.751 463.133 328.381 464.508L395.645 316.709C395.394 315.335 395.394 313.961 395.394 312.586ZM396.898 301.842C396.772 301.717 396.522 302.342 396.021 302.966L296.44 439.52C298.695 442.019 300.949 444.268 303.454 446.517L395.77 306.964C396.021 305.34 396.396 303.341 396.898 301.842ZM461.406 335.699L504.37 335.449C503.869 333.201 503.367 329.827 502.866 327.579L463.034 333.45C462.533 334.2 462.032 334.95 461.406 335.699ZM425.958 348.942L468.045 446.892C470.174 444.893 472.303 442.769 474.307 440.645L428.212 349.192C427.461 349.192 426.709 349.067 425.958 348.942ZM466.416 327.703C466.541 327.703 466.792 327.579 466.917 327.454L495.727 307.839C494.599 305.59 492.846 302.342 491.593 300.093L468.045 323.331C467.543 324.83 467.042 326.204 466.416 327.703ZM455.894 341.196C455.393 341.571 454.767 342.071 454.266 342.446L506.499 365.684C506.624 363.435 507 360.187 507 357.938L455.894 341.196ZM396.898 322.956L349.299 473.253C352.305 474.252 355.312 475.002 358.318 475.752L398.025 326.329C397.649 325.205 397.273 324.205 396.898 322.956ZM435.853 349.317L487.084 424.278C488.462 422.03 490.591 418.781 491.844 416.532L437.732 349.067C437.106 349.192 436.479 349.317 435.853 349.317ZM445.498 347.193L500.612 396.293C501.363 394.044 502.491 390.546 503.117 388.172L447.252 346.444C446.751 346.694 446.124 346.943 445.498 347.193ZM416.438 345.819L441.615 465.382C444.245 464.008 447.377 462.259 449.757 460.759L418.442 346.819C417.816 346.444 417.189 346.194 416.438 345.819ZM407.92 340.197L411.929 476.126C415.06 475.377 418.192 474.627 421.323 473.753L410.05 341.946C409.298 341.321 408.547 340.822 407.92 340.197ZM380.489 478.875C382.242 479 384.121 479 386 479C387.253 479 388.505 479 389.883 478.875L403.035 334.825C402.409 334.075 401.908 333.201 401.282 332.326L380.489 478.875ZM429.59 275.356H430.091C430.843 275.356 431.719 275.231 432.471 275.231C453.013 275.231 469.673 291.847 469.673 312.336C469.673 314.46 469.422 316.584 469.172 318.708C469.548 318.708 469.923 318.458 470.049 318.208L479.318 282.477C477.439 280.228 475.059 277.105 472.93 274.981L470.049 300.593C469.548 298.968 468.796 297.344 467.293 294.221C466.792 293.221 466.166 292.097 465.414 291.097L456.27 260.488C453.139 258.24 449.882 256.116 446.5 254.117L458.4 282.977C456.27 280.978 454.141 279.229 453.013 278.229L427.836 245.496C423.828 243.997 419.695 242.748 415.436 241.623L445.999 275.855L445.247 275.73L395.895 238.5C392.639 238.25 389.257 238 385.875 238C384.998 238 383.996 238 383.119 238.125L431.845 270.608L364.205 239.999C360.322 240.749 356.564 241.623 352.806 242.623L426.208 271.358L333.391 249.994C329.884 251.743 326.502 253.492 323.12 255.616L417.189 272.732L306.461 267.86C303.955 270.108 300.198 273.607 297.943 276.105L412.805 275.481L285.542 291.722C283.413 294.846 281.534 298.094 279.655 301.342L409.048 278.854L270.887 321.832C269.885 324.955 269.008 328.078 268.257 331.327L406.167 282.352L265.251 352.066C265.125 354.19 265.125 356.314 265.125 358.438C265.125 359.312 265 361.311 265 362.186L404.163 285.85L267.756 383.3C268.382 386.423 269.259 389.421 270.136 392.545L403.912 288.849C404.538 288.099 405.29 287.349 405.916 286.6C407.419 285.226 409.549 283.351 411.929 281.602C416.688 278.229 424.079 275.98 429.59 275.356Z" fill="white"/>
<path d="M568 311H576V397H568V311Z" fill="white"/>
<path d="M598 311H606.206V347.803H652.794V311H661V397H652.794V355.391H606.333V397H598.126V311H598Z" fill="white"/>
<path d="M678 375.687L685.295 373.07C689.068 384.911 697.746 390.894 709.821 390.894C722.649 390.894 730.951 385.036 730.951 375.563C730.951 366.713 726.674 362.226 708.563 356.492C690.2 350.759 680.767 345.897 680.767 331.813C680.767 319.722 691.709 310 707.305 310C723.404 310 732.586 318.102 736.61 329.444L729.693 332.685C725.417 321.717 717.87 317.354 707.179 317.354C695.734 317.354 688.817 323.462 688.817 331.189C688.817 340.662 694.476 343.903 712.462 349.637C730.322 355.246 739 361.104 739 374.815C739 388.9 726.423 397.999 709.318 397.999C693.47 398.123 682.151 389.398 678 375.687Z" fill="white"/>
<path d="M780 311H790.727L819.5 386.25H819.752L848.147 311H859V397H850.797V324.912H850.671C849.535 328.706 847.39 334.397 845.371 339.962L823.16 396.874H815.588L793.377 339.962C791.232 334.397 789.843 330.729 788.077 324.659H787.824V397H780V311Z" fill="white"/>
<path d="M876 382.909C876 370.837 886.326 362.161 917.304 357.383V354.239C917.304 345.814 912.896 341.79 904.963 341.79C895.393 341.79 888.593 345.814 882.17 351.347L877.889 346.317C885.193 339.653 893.63 335 905.718 335C919.318 335 925.237 342.293 925.237 354.365V382.028C925.237 389.447 925.741 393.974 927 396.992H918.815C918.059 394.477 917.43 391.837 917.43 388.316C910.378 394.729 902.444 397.998 893.378 397.998C882.296 398.124 876 392.339 876 382.909ZM917.304 382.028V363.041C891.111 367.442 883.807 373.855 883.807 381.903C883.807 388.316 888.089 391.585 894.889 391.585C903.452 391.585 911.007 387.938 917.304 382.028Z" fill="white"/>
<path d="M943 336.132H950.993V348.205H951.246C956.067 340.659 963.425 335 975.604 335H977L976.239 342.42C976.239 342.42 974.082 342.294 973.828 342.294C963.806 342.294 955.813 347.828 951.119 357.385V397H943.127V336.132H943Z" fill="white"/>
<path d="M989 311H996.956V368.038L1026.13 335.788H1035.47L1015.52 357.415L1038 397H1029.29L1010.22 363.485L996.956 377.65V397H989V311Z" fill="white"/>
<path d="M1051 313H1059V321.602H1051V313ZM1051.24 335.771H1058.76V397H1051.24V335.771Z" fill="white"/>
<path d="M1082.82 382.842V342.8H1072V335.979H1082.82V314H1090.84V335.979H1106.87V342.8H1090.84V381.2C1090.84 387.642 1093 391.179 1100.51 391.179C1102.8 391.179 1105.22 390.926 1107 390.421V397.242C1105.09 397.621 1101.91 398 1099.11 398C1087.27 397.874 1082.82 393.453 1082.82 382.842Z" fill="white"/>
<path d="M1118 337C1118 335.875 1118.13 334.875 1118.51 334C1118.89 333.125 1119.4 332.375 1120.04 331.875C1120.67 331.375 1121.44 330.875 1122.33 330.5C1123.22 330.25 1124.11 330 1125 330C1126.02 330 1126.91 330.125 1127.67 330.5C1128.56 330.75 1129.33 331.25 1129.96 331.875C1130.6 332.5 1131.11 333.125 1131.49 334C1131.87 334.875 1132 335.875 1132 337C1132 338.125 1131.87 339.125 1131.49 340C1131.11 340.875 1130.6 341.625 1129.96 342.125C1129.33 342.75 1128.56 343.125 1127.67 343.5C1126.78 343.75 1125.89 344 1125 344C1123.98 344 1123.09 343.875 1122.2 343.5C1121.31 343.25 1120.67 342.75 1120.04 342.125C1119.4 341.5 1118.89 340.875 1118.51 340C1118.13 339.125 1118 338.125 1118 337ZM1119.65 337C1119.65 337.875 1119.78 338.625 1120.04 339.375C1120.29 340 1120.67 340.625 1121.18 341C1121.69 341.5 1122.2 341.75 1122.84 342C1123.47 342.25 1124.24 342.375 1124.87 342.375C1125.64 342.375 1126.27 342.25 1127.04 342C1127.67 341.75 1128.31 341.5 1128.69 341C1129.2 340.5 1129.58 340 1129.84 339.375C1130.09 338.75 1130.22 337.875 1130.22 337C1130.22 336.125 1130.09 335.375 1129.84 334.625C1129.58 334 1129.2 333.375 1128.69 333C1128.18 332.5 1127.67 332.25 1127.04 332C1126.4 331.75 1125.76 331.625 1125 331.625C1124.24 331.625 1123.47 331.75 1122.84 332C1122.2 332.25 1121.56 332.5 1121.18 333C1120.67 333.5 1120.29 334 1120.04 334.625C1119.78 335.25 1119.65 336.125 1119.65 337ZM1122.2 333.625C1122.45 333.5 1122.84 333.5 1123.35 333.375C1123.85 333.375 1124.36 333.25 1124.75 333.25C1125.51 333.25 1126.15 333.375 1126.65 333.75C1127.16 334 1127.42 334.625 1127.42 335.375C1127.42 335.875 1127.29 336.375 1126.91 336.625C1126.53 336.875 1126.15 337.125 1125.64 337.125L1126.4 337.5L1128.31 340.375H1126.65L1124.75 337.625L1123.47 337.25V340.375H1122.07L1122.2 333.625ZM1124.62 334.5C1124.36 334.5 1124.24 334.5 1124.11 334.5C1123.98 334.5 1123.85 334.5 1123.73 334.625V336.5H1124.62C1125.13 336.5 1125.51 336.375 1125.76 336.25C1126.02 336.125 1126.15 335.875 1126.15 335.5C1126.15 334.875 1125.64 334.5 1124.62 334.5Z" fill="white"/>
<defs>
<radialGradient id="paint0_radial" cx="0" cy="0" r="1" gradientUnits="userSpaceOnUse" gradientTransform="translate(65 40) rotate(26.5035) scale(1456.58 1645.24)">
<stop stop-color="#328F8A"/>
<stop offset="1" stop-color="#08AC4B"/>
</radialGradient>
</defs>
</svg>
