<svg width="1398" height="718" viewBox="0 0 1398 718" fill="none" xmlns="http://www.w3.org/2000/svg">
<rect width="1398" height="718" fill="url(#paint0_radial)"/>
<path d="M376.906 293.664L253.707 427.278C251.83 424.336 250.087 421.26 248.612 418.184L377.576 289.652C378.38 288.983 380.659 286.977 379.989 287.913C379.721 288.448 377.442 292.193 376.906 293.664ZM373.554 309.848C373.554 309.848 373.42 309.848 373.554 309.848L293.522 467.537C296.203 469.275 299.018 471.014 301.833 472.485L373.822 314.261C373.554 312.79 373.554 311.319 373.554 309.848ZM375.163 298.345C375.029 298.212 374.761 298.88 374.225 299.549L267.649 445.736C270.062 448.411 272.475 450.818 275.156 453.225L373.957 303.829C374.225 302.09 374.627 299.95 375.163 298.345ZM444.203 334.591L490.185 334.323C489.649 331.916 489.112 328.305 488.576 325.897L445.946 332.184C445.409 332.986 444.873 333.788 444.203 334.591ZM406.264 348.768L451.308 453.627C453.587 451.487 455.866 449.213 458.011 446.939L408.678 349.036C407.873 349.036 407.069 348.902 406.264 348.768ZM449.565 326.031C449.699 326.031 449.967 325.897 450.101 325.764L480.935 304.765C479.728 302.358 477.851 298.88 476.511 296.473L451.308 321.35C450.772 322.955 450.236 324.426 449.565 326.031ZM438.304 340.476C437.768 340.877 437.098 341.412 436.562 341.813L492.464 366.691C492.598 364.283 493 360.806 493 358.398L438.304 340.476ZM375.163 320.949L324.221 481.848C327.438 482.918 330.656 483.72 333.873 484.523L376.37 324.56C375.967 323.356 375.565 322.286 375.163 320.949ZM416.855 349.17L471.685 429.418C473.159 427.011 475.438 423.533 476.779 421.126L418.866 348.902C418.196 349.036 417.525 349.17 416.855 349.17ZM427.178 346.896L486.163 399.459C486.967 397.051 488.174 393.306 488.844 390.765L429.054 346.093C428.518 346.361 427.848 346.628 427.178 346.896ZM396.076 345.425L423.022 473.421C425.837 471.95 429.188 470.078 431.736 468.473L398.221 346.495C397.551 346.093 396.88 345.826 396.076 345.425ZM386.96 339.406L391.25 484.924C394.601 484.121 397.953 483.319 401.304 482.383L389.239 341.278C388.435 340.61 387.63 340.075 386.96 339.406ZM357.601 487.866C359.478 488 361.489 488 363.5 488C364.841 488 366.181 488 367.656 487.866L381.732 333.655C381.062 332.852 380.525 331.916 379.855 330.98L357.601 487.866ZM410.152 269.991H410.688C411.493 269.991 412.431 269.857 413.236 269.857C435.221 269.857 453.051 287.645 453.051 309.58C453.051 311.854 452.783 314.128 452.514 316.401C452.917 316.401 453.319 316.134 453.453 315.866L463.373 277.614C461.362 275.207 458.815 271.863 456.536 269.589L453.453 297.008C452.917 295.269 452.112 293.53 450.504 290.187C449.967 289.117 449.297 287.913 448.493 286.843L438.707 254.075C435.355 251.667 431.87 249.393 428.25 247.253L440.986 278.149C438.707 276.009 436.428 274.137 435.221 273.067L408.275 238.025C403.986 236.42 399.562 235.082 395.004 233.879L427.714 270.526L426.909 270.392L374.091 230.535C370.605 230.267 366.986 230 363.366 230C362.428 230 361.355 230 360.417 230.134L412.565 264.908L340.174 232.14C336.018 232.942 331.996 233.879 327.975 234.949L406.533 265.711L307.196 242.84C303.442 244.712 299.822 246.585 296.203 248.858L396.88 267.182L278.373 261.966C275.692 264.373 271.67 268.118 269.257 270.793L392.188 270.124L255.986 287.512C253.707 290.855 251.696 294.333 249.685 297.81L388.167 273.736L240.301 319.745C239.228 323.089 238.29 326.432 237.486 329.91L385.083 277.481L234.268 352.112C234.134 354.386 234.134 356.659 234.134 358.933C234.134 359.869 234 362.009 234 362.946L382.938 281.226L236.949 385.549C237.62 388.893 238.558 392.103 239.496 395.446L382.67 284.435C383.341 283.633 384.145 282.83 384.815 282.028C386.424 280.557 388.703 278.551 391.25 276.678C396.344 273.067 404.254 270.659 410.152 269.991Z" fill="white"/>
<path d="M559 308H567V400H559V308Z" fill="white"/>
<path d="M591 308H599.727V347.371H649.273V308H658V400H649.273V355.488H599.862V400H591.134V308H591Z" fill="white"/>
<path d="M677 377.166L684.773 374.37C688.794 387.019 698.041 393.409 710.907 393.409C724.577 393.409 733.423 387.152 733.423 377.033C733.423 367.58 728.866 362.787 709.567 356.662C690 350.538 679.948 345.345 679.948 330.3C679.948 317.385 691.608 307 708.227 307C725.381 307 735.165 315.654 739.454 327.77L732.082 331.232C727.526 319.515 719.485 314.855 708.093 314.855C695.897 314.855 688.526 321.379 688.526 329.634C688.526 339.753 694.557 343.215 713.722 349.339C732.753 355.331 742 361.588 742 376.234C742 391.279 728.598 400.999 710.371 400.999C693.485 401.132 681.423 391.812 677 377.166Z" fill="white"/>
<path d="M786 308H797.406L828 388.5H828.268L858.46 308H870V400H861.278V322.882H861.144C859.936 326.941 857.655 333.029 855.508 338.982L831.891 399.865H823.84L800.224 338.982C797.942 333.029 796.466 329.106 794.588 322.612H794.32V400H786V308Z" fill="white"/>
<path d="M889 384.95C889 372.113 899.933 362.885 932.733 357.804V354.46C932.733 345.501 928.067 341.221 919.667 341.221C909.533 341.221 902.333 345.501 895.533 351.385L891 346.036C898.733 338.948 907.667 334 920.467 334C934.867 334 941.133 341.756 941.133 354.594V384.014C941.133 391.904 941.667 396.719 943 399.928H934.333C933.533 397.253 932.867 394.445 932.867 390.701C925.4 397.521 917 400.998 907.4 400.998C895.667 401.132 889 394.98 889 384.95ZM932.733 384.014V363.821C905 368.502 897.267 375.322 897.267 383.881C897.267 390.701 901.8 394.178 909 394.178C918.067 394.178 926.067 390.3 932.733 384.014Z" fill="white"/>
<path d="M960 335.205H968.698V348.057H968.974C974.22 340.024 982.228 334 995.481 334H997L996.172 341.899C996.172 341.899 993.825 341.765 993.549 341.765C982.642 341.765 973.944 347.655 968.836 357.83V400H960.138V335.205H960Z" fill="white"/>
<path d="M1009 308H1017.61V369.018L1049.16 334.518H1059.27L1037.69 357.653L1062 400H1052.57L1031.95 364.147L1017.61 379.3V400H1009V308Z" fill="white"/>
<path d="M1076 310H1084V319.217H1076V310ZM1076.24 334.398H1083.76V400H1076.24V334.398Z" fill="white"/>
<path d="M1109.75 384.759V341.857H1098V334.549H1109.75V311H1118.45V334.549H1135.86V341.857H1118.45V383C1118.45 389.902 1120.8 393.692 1128.95 393.692C1131.44 393.692 1134.07 393.421 1136 392.88V400.188C1133.93 400.594 1130.47 401 1127.43 401C1114.58 400.865 1109.75 396.128 1109.75 384.759Z" fill="white"/>
<path d="M1148 335.5C1148 334.295 1148.14 333.223 1148.55 332.286C1148.95 331.348 1149.5 330.545 1150.18 330.009C1150.86 329.473 1151.68 328.938 1152.64 328.536C1153.59 328.268 1154.55 328 1155.5 328C1156.59 328 1157.55 328.134 1158.36 328.536C1159.32 328.804 1160.14 329.339 1160.82 330.009C1161.5 330.679 1162.05 331.348 1162.45 332.286C1162.86 333.223 1163 334.295 1163 335.5C1163 336.705 1162.86 337.777 1162.45 338.714C1162.05 339.652 1161.5 340.455 1160.82 340.991C1160.14 341.661 1159.32 342.062 1158.36 342.464C1157.41 342.732 1156.45 343 1155.5 343C1154.41 343 1153.45 342.866 1152.5 342.464C1151.55 342.196 1150.86 341.661 1150.18 340.991C1149.5 340.321 1148.95 339.652 1148.55 338.714C1148.14 337.777 1148 336.705 1148 335.5ZM1149.77 335.5C1149.77 336.438 1149.91 337.241 1150.18 338.045C1150.45 338.714 1150.86 339.384 1151.41 339.786C1151.95 340.321 1152.5 340.589 1153.18 340.857C1153.86 341.125 1154.68 341.259 1155.36 341.259C1156.18 341.259 1156.86 341.125 1157.68 340.857C1158.36 340.589 1159.05 340.321 1159.45 339.786C1160 339.25 1160.41 338.714 1160.68 338.045C1160.95 337.375 1161.09 336.438 1161.09 335.5C1161.09 334.563 1160.95 333.759 1160.68 332.955C1160.41 332.286 1160 331.616 1159.45 331.214C1158.91 330.679 1158.36 330.411 1157.68 330.143C1157 329.875 1156.32 329.741 1155.5 329.741C1154.68 329.741 1153.86 329.875 1153.18 330.143C1152.5 330.411 1151.82 330.679 1151.41 331.214C1150.86 331.75 1150.45 332.286 1150.18 332.955C1149.91 333.625 1149.77 334.563 1149.77 335.5ZM1152.5 331.884C1152.77 331.75 1153.18 331.75 1153.73 331.616C1154.27 331.616 1154.82 331.482 1155.23 331.482C1156.05 331.482 1156.73 331.616 1157.27 332.018C1157.82 332.286 1158.09 332.955 1158.09 333.759C1158.09 334.295 1157.95 334.83 1157.55 335.098C1157.14 335.366 1156.73 335.634 1156.18 335.634L1157 336.036L1159.05 339.116H1157.27L1155.23 336.17L1153.86 335.768V339.116H1152.36L1152.5 331.884ZM1155.09 332.821C1154.82 332.821 1154.68 332.821 1154.55 332.821C1154.41 332.821 1154.27 332.821 1154.14 332.955V334.964H1155.09C1155.64 334.964 1156.05 334.83 1156.32 334.696C1156.59 334.562 1156.73 334.295 1156.73 333.893C1156.73 333.223 1156.18 332.821 1155.09 332.821Z" fill="white"/>
<defs>
<radialGradient id="paint0_radial" cx="0" cy="0" r="1" gradientUnits="userSpaceOnUse" gradientTransform="translate(65 40) rotate(26.5035) scale(1456.58 1645.24)">
<stop stop-color="#328F8A"/>
<stop offset="1" stop-color="#08AC4B"/>
</radialGradient>
</defs>
</svg>
