<?xml version="1.0" encoding="utf-8"?>
<!-- Generator: Adobe Illustrator 22.1.0, SVG Export Plug-In . SVG Version: 6.00 Build 0)  -->
<svg version="1.1" id="Layer_1" xmlns="http://www.w3.org/2000/svg" xmlns:xlink="http://www.w3.org/1999/xlink" x="0px" y="0px"
	 viewBox="0 0 1200 675" style="enable-background:new 0 0 1200 675;" xml:space="preserve">
<polygon points="82.2,322.6 82.2,322.6 82.2,250.9 132.8,250.9 "/>
<polygon points="247.7,353.1 247.7,353.1 247.7,424.7 197.1,424.7 "/>
<polygon points="492.2,353.1 492.2,353.1 492.2,424.7 441.6,424.7 "/>
<polygon points="492.2,322.7 492.2,322.7 492.2,251.1 441.6,251.1 "/>
<polygon points="247.2,251.1 204.1,251.1 82.9,425 126,425 "/>
<polygon points="737,322.6 737,322.6 737,250.9 686.4,250.9 "/>
<polygon points="571.4,353.1 571.4,353.1 571.4,424.7 622,424.7 "/>
<polygon points="571.9,251.1 615,251.1 736.2,425 693.1,425 "/>
<polygon points="981.5,322.6 981.5,322.6 981.5,250.9 930.9,250.9 "/>
<polygon points="815.9,353.1 815.9,353.1 815.9,424.7 866.6,424.7 "/>
<polygon points="816.4,251.1 859.6,251.1 980.8,425 937.6,425 "/>
<polygon points="399.2,337.5 431.2,383.5 431.2,291.5 "/>
<rect x="326.8" y="251.1" width="38.7" height="173.9"/>
<rect x="1060.5" y="251.1" width="38.7" height="173.9"/>
</svg>
