<svg width="1398" height="718" viewBox="0 0 1398 718" fill="none" xmlns="http://www.w3.org/2000/svg">
<rect width="1398" height="718" fill="url(#paint0_linear)"/>
<path d="M190 357.7V286H240.6L190 357.7Z" fill="white"/>
<path d="M355.6 388.2V459.8H305L355.6 388.2Z" fill="white"/>
<path d="M600.1 388.2V459.8H549.4L600.1 388.2Z" fill="white"/>
<path d="M600.1 357.8V286.2H549.4L600.1 357.8Z" fill="white"/>
<path d="M355.1 286.2H311.9L190.7 460.1H233.9L355.1 286.2Z" fill="white"/>
<path d="M844.8 357.7V286H794.2L844.8 357.7Z" fill="white"/>
<path d="M679.2 388.2V459.8H729.9L679.2 388.2Z" fill="white"/>
<path d="M679.7 286.2H722.9L844.1 460.1H800.9L679.7 286.2Z" fill="white"/>
<path d="M1089.4 357.7V286H1038.7L1089.4 357.7Z" fill="white"/>
<path d="M923.8 388.2V459.8H974.4L923.8 388.2Z" fill="white"/>
<path d="M924.3 286.2H967.4L1088.6 460.1H1045.5L924.3 286.2Z" fill="white"/>
<path d="M507.1 372.6L539 418.6V326.6L507.1 372.6Z" fill="white"/>
<path d="M473.4 286.2H434.7V460.1H473.4V286.2Z" fill="white"/>
<path d="M1207.1 286.2H1168.4V460.1H1207.1V286.2Z" fill="white"/>
<defs>
<linearGradient id="paint0_linear" x1="699" y1="0" x2="699" y2="718" gradientUnits="userSpaceOnUse">
<stop stop-color="#0099A7"/>
</linearGradient>
</defs>
</svg>
