<svg id="Layer_1" data-name="Layer 1" xmlns="http://www.w3.org/2000/svg" viewBox="0 0 1296.91 558.64"><defs><style>.cls-1{fill-rule:evenodd;}</style></defs><path d="M600.69,161.6c-.19-2.13-.19-3.68-.19-5,0-1.55,0-2.52.19-5.24-10.47.58-32.18,1-48.86,1-16.28,0-38-.39-49.05-1,.2,2.72.2,3.69.2,5.24a49.45,49.45,0,0,1-.2,5c8.54-1.35,26.18-2.52,41.69-2.52.39,7.57.58,17.66.58,23.1v43.27c0,17.47-.58,43.08-1.55,58.61,1.94-.19,5.62-.39,8.33-.39,2.53,0,6.21.2,8.15.39-1-15.53-1.55-41.34-1.55-58.61V182.18c0-5.24.19-15.34.58-23.1C574.71,159.08,592.16,160.25,600.69,161.6Z"/><path d="M644.38,284.06c-1-15.53-1.55-41.34-1.55-58.61v-19.4c0-17.47.58-39.21,1.55-54.73-1.94.19-5.62.39-8.14.39-2.72,0-6.4-.2-8.53-.39,1,15.52,1.55,37.26,1.55,54.73v19.4c0,17.47-.58,43.08-1.55,58.61,2.13-.19,5.81-.39,8.53-.39C638.76,283.67,642.44,283.87,644.38,284.06ZM627.71,140.65l.38.58h4.27c6.4-6.21,18.22-17.86,24-23.68,1.36-1.36,2.52-2.71,2.52-4.07,0-3.3-3.1-4.27-6.2-4.27s-4.46,1.94-6,4.46C643,119.3,634.69,131.14,627.71,140.65Z"/><path d="M789,283.67c-9.5-19.21-39.94-91.21-56.22-135.46h-2.14c-19.38,45.22-41.1,90.83-63.2,135.46l.39.39a52.59,52.59,0,0,1,6.59-.39c1.94,0,4.27.2,6.4.39,3.68-12.42,11.24-31.44,20.35-53,8.54-.19,15.51-.19,23.46-.19,8.73,0,19.58,0,26.37.19,7.56,19,15.32,39.2,19.19,53,2.52-.19,5.63-.39,8.53-.39,2.53,0,7.57.2,9.7.39Zm-40.91-60.16c-5.43.2-14.93.2-22.29.2-7,0-15.9,0-21.72-.2,6.21-14.55,17.84-40.17,23.66-52.59C733.52,185.28,744.18,212.84,748.06,223.51Z"/><path d="M602,319.46c-10.48-5.24-25.41-8.93-41.31-8.93-42.28,0-72.15,23.88-72.15,68s29.48,69.72,69.82,69.72c17.84,0,33.94-5.44,40.92-11.65.78-2.33,1.55-8.74,1.75-11.46l-1.56-.39c-8,9.13-20.75,15.53-38.59,15.53-29.87,0-55.66-17.08-55.66-61.55,0-43.89,24.05-61.75,54.88-61.75,18.82,0,31.23,8,34.72,18.25l2.91-.39A100,100,0,0,1,602,319.46Z"/><path d="M735.2,445.29c-9.51-19.22-40-91.26-56.25-135.54h-2.13C657.43,355,635.71,400.63,613.6,445.29l.38.39a52.91,52.91,0,0,1,6.6-.39c1.94,0,4.26.2,6.4.39,3.68-12.43,11.25-31.46,20.36-53,8.53-.19,15.52-.19,23.47-.19,8.73,0,19.59,0,26.37.19,7.57,19,15.33,39.22,19.2,53,2.53-.19,5.63-.39,8.54-.39,2.52,0,7.56.2,9.69.39ZM694.28,385.1c-5.44.19-14.94.19-22.31.19-7,0-15.9,0-21.72-.19,6.21-14.57,17.84-40.2,23.66-52.63C679.73,346.84,690.4,374.42,694.28,385.1Z"/><path d="M853.37,444.71c-12.22-12.43-48.48-53.4-57.6-64.86,19.4-1.74,41.31-11.45,41.31-36.89,0-23.11-18.42-30.29-40.34-30.29-2.91,0-6.4.19-10.08.19-3.49.19-7,.39-10.28.39-4.27,0-8.34-.2-13.58-.39.78,15.53,1,37.28,1,54.76V387c0,17.47-.58,43.11-1.55,58.64,2.13-.19,5.63-.39,8.15-.39,2.71,0,6.4.2,8.34.39-1-15.53-1.56-41.55-1.56-58.84v-6c1.56,0,2.91.2,3.5.78,16.67,17.67,44.21,52.82,52.75,64.47a101.74,101.74,0,0,1,11.25-.78c2.32,0,4.46,0,8.14.2Zm-32-100c0,25.82-18.23,30.87-37.23,30.87h-7v-7.77c0-12.23.2-35.92,1-48a52.33,52.33,0,0,1,10.48-1C803.92,318.88,821.37,322.76,821.37,344.71Z"/><path d="M1026.42,445.68c-4.27-20-10.87-79.81-15.52-135.15h-2.13c-18.62,36.12-47.52,89.91-58.19,109.13h-.77c-11.25-20.39-40.73-77.09-57-109.33h-2.13c-4.08,39.62-11.83,92.44-19.59,135.35,2.13-.19,4.85-.39,6.79-.39a64.64,64.64,0,0,1,6.59.39c0-21.94,4.46-64.27,9.5-101.75h.78c.58,1.16,1.36,2.91,1.94,4.27,10.86,19,38,71.66,48.48,97.09h2.14c12-28.54,41.89-84.08,52.36-101.36h.78c3.88,35.73,7.75,77.87,8.92,101.75,3.3-.19,6-.39,8.53-.39S1024.48,445.49,1026.42,445.68Z"/><path d="M1125.53,445.68c-.19-2.52-.19-4.08-.19-5.24,0-1,0-2.72.19-5.63-14,2.52-29.28,3.3-47.32,3.3-.39-7.19-.77-33.79-.77-51.27v-7.38c23.66,0,36.26.39,43.44,1.56a45.9,45.9,0,0,1-.2-5.24,51.21,51.21,0,0,1,.2-5.44c-7.18,1-19.78,1.94-43.44,1.94v-6.41c0-15.53.38-36.7.77-45.44,19.4,0,38,1,46.35,2.72a50.08,50.08,0,0,1-.19-5.24,46.58,46.58,0,0,1,.19-5.05c-12.8.39-30.83.58-43.63.58-6,0-14.36-.39-18.62-.58,1,15.53,1.55,37.28,1.55,54.76V387c0,17.47-.58,43.11-1.55,58.64,4.46-.19,14.93-.58,19.78-.58C1098.57,445.1,1113.7,445.49,1125.53,445.68Z"/><path d="M1269,446.26c-.39-11.06-.78-29.71-.78-49.51V381.21c0-23.3,1-52.82,2.52-68.35-2.52.19-5.23.39-7,.39-2.13,0-4.26-.2-6.2-.39,1.94,15.53,3.1,45.05,3.1,68.35v35.73l-.39.2c-1.16-1.36-2.33-2.72-3.29-3.89-25-27-71-77.28-92.71-101.94h-2.13c.39,9.51.77,31.84.77,56.31v9.71c0,23.3-1,52.82-2.71,68.35,2.52-.19,5-.39,7-.39,1.75,0,4.66.2,6.21.39-2.14-15.53-3.3-45.05-3.3-68.35V339.27l.58-.2a29.85,29.85,0,0,0,3.49,4.28c38,40.78,79.52,86.41,92.71,102.91Z"/><path class="cls-1" d="M218.12,527.21c103.83,0,188-114.17,188-255s-84.17-255-188-255-188,114.16-188,255S114.29,527.21,218.12,527.21Zm0-5c92.78,0,168-111.93,168-250s-75.22-250-168-250-168,111.93-168,250S125.33,522.21,218.12,522.21Z"/><path d="M334.8,368.73a41.33,41.33,0,0,1-9,8.28c-14.22,10.07-44.09,21.41-105.63,21.41-58.12,0-127.76-7.2-127.76-69.1s69.46-69.1,127.76-69.1c88.53,0,111.21,23.39,116.79,32.75l-9,23.93H325.8c-4-26.45-39.95-50.2-105.63-50.2-64.6,0-107.79,21.23-107.79,62.44s43.19,62.62,107.79,62.62c65.86,0,101.67-23.75,105.63-50.2H328Z"/><path d="M227.73,152.61v-1.26H203.44v1.26c3.6,22.68,5.22,63.53,5.22,103.47v43.55c0,35.09-1.26,109.23-5.22,144.32v1.26h24.29V444c-4-35.27-5.22-109.23-5.22-144.32V256.08C223.05,216.14,224.49,175.47,227.73,152.61Z"/><path d="M92.41,236.83v-25.2s1.62,3.06,13.49-1.44,34.73-15.83,53.09-15.83,31.67,3.6,55.6,16c23.93,12.6,34.37,19.08,54.88,19.08s38.87-2.88,69.28-32.75v25.91s-.18-4.32-21.05,3.6-30.59,13.13-48.59,13.13-42.46-10.25-55.06-17.27-28.61-18-55.06-18S112.38,215.77,92.41,236.83Z"/><path d="M214.43,134a1.92,1.92,0,0,0,2.18-.11c27-25.78,39.29-38.6,49.12-51.79,2.68-3.72,4-4.91,4-9.71,0-4.2-1.75-7.17-10.19-5.32-5.8,1.26-9.33,5.35-13.36,11.38-6.67,9.93-21.64,34.19-32.17,53.44A1.64,1.64,0,0,0,214.43,134Z"/></svg>