<svg width="1440" height="720" viewBox="0 0 1440 720" fill="none" xmlns="http://www.w3.org/2000/svg">
<g clip-path="url(#clip0_119_1097)">
<rect width="1440" height="720" fill="#F5F3EE"/>
<line x1="1633" y1="161.019" x2="-193" y2="161.019" stroke="#E0E0E0" stroke-width="0.951042"/>
<line x1="1633" y1="599.449" x2="-193" y2="599.449" stroke="#E0E0E0" stroke-width="0.951042"/>
<line x1="1633" y1="242.808" x2="-193" y2="242.808" stroke="#E0E0E0" stroke-width="0.951042"/>
<line x1="1633" y1="369.297" x2="-193" y2="369.297" stroke="#E0E0E0" stroke-width="0.951042"/>
<line x1="1633" y1="394.024" x2="-193" y2="394.024" stroke="#E0E0E0" stroke-width="0.951042"/>
<line x1="1633" y1="522.414" x2="-193" y2="522.414" stroke="#E0E0E0" stroke-width="0.951042"/>
<line x1="1633" y1="116.32" x2="-193" y2="116.32" stroke="#E0E0E0" stroke-width="0.951042"/>
<line x1="131.78" y1="738.777" x2="131.78" y2="-85.7765" stroke="#E0E0E0" stroke-width="0.951042"/>
<line x1="488.421" y1="738.777" x2="488.421" y2="-85.7765" stroke="#E0E0E0" stroke-width="0.951042"/>
<line x1="424.702" y1="738.777" x2="424.702" y2="-85.7765" stroke="#E0E0E0" stroke-width="0.951042"/>
<line x1="189.794" y1="738.777" x2="189.794" y2="-85.7765" stroke="#E0E0E0" stroke-width="0.951042"/>
<line x1="580.673" y1="738.777" x2="580.673" y2="-85.7765" stroke="#E0E0E0" stroke-width="0.951042"/>
<line x1="673.874" y1="738.777" x2="673.874" y2="-85.7765" stroke="#E0E0E0" stroke-width="0.951042"/>
<path d="M673.942 252.221C673.757 250.191 673.757 248.714 673.757 247.422C673.757 245.946 673.757 245.023 673.942 242.439C663.985 242.993 643.334 243.362 627.477 243.362C611.989 243.362 591.338 242.993 580.828 242.439C581.013 245.023 581.013 245.946 581.013 247.422C581.013 248.714 581.013 250.191 580.828 252.221C588.941 250.929 605.72 249.822 620.471 249.822C620.839 257.02 621.024 266.617 621.024 271.785V312.942C621.024 329.553 620.471 353.915 619.549 368.68C621.392 368.496 624.896 368.311 627.477 368.311C629.874 368.311 633.377 368.496 635.221 368.68C634.299 353.915 633.746 329.368 633.746 312.942V271.785C633.746 266.802 633.931 257.204 634.299 249.822C649.234 249.822 665.829 250.929 673.942 252.221Z" fill="black"/>
<path d="M715.491 368.68C714.57 353.915 714.016 329.368 714.016 312.942V294.486C714.016 277.875 714.57 257.204 715.491 242.439C713.648 242.624 710.144 242.808 707.747 242.808C705.166 242.808 701.663 242.624 699.634 242.439C700.556 257.204 701.11 277.875 701.11 294.486V312.942C701.11 329.553 700.556 353.915 699.634 368.68C701.663 368.496 705.166 368.311 707.747 368.311C710.144 368.311 713.648 368.496 715.491 368.68ZM699.634 232.288L700.003 232.842H704.06C710.144 226.936 721.392 215.862 726.923 210.325C728.214 209.033 729.32 207.741 729.32 206.45C729.32 203.312 726.37 202.389 723.42 202.389C720.47 202.389 719.179 204.235 717.704 206.634C714.201 211.986 706.272 223.245 699.634 232.288Z" fill="black"/>
<path d="M853.003 368.311C843.968 350.039 815.02 281.567 799.531 239.486H797.503C779.065 282.489 758.414 325.862 737.394 368.311L737.763 368.68C738.869 368.496 741.635 368.311 744.032 368.311C745.876 368.311 748.088 368.496 750.117 368.68C753.62 356.868 760.811 338.781 769.477 318.295C777.59 318.11 784.228 318.11 791.787 318.11C800.085 318.11 810.41 318.11 816.863 318.295C824.054 336.382 831.43 355.576 835.117 368.68C837.514 368.496 840.465 368.311 843.23 368.311C845.627 368.311 850.421 368.496 852.449 368.68L853.003 368.311ZM814.098 311.097C808.935 311.281 799.9 311.281 792.894 311.281C786.256 311.281 777.774 311.281 772.243 311.097C778.143 297.254 789.206 272.892 794.737 261.08C800.269 274.738 810.41 300.946 814.098 311.097Z" fill="black"/>
<path d="M675.155 402.35C665.195 397.363 650.992 393.854 635.868 393.854C595.659 393.854 567.254 416.57 567.254 458.492C567.254 500.414 595.29 524.791 633.654 524.791C650.623 524.791 665.932 519.62 672.572 513.71C673.31 511.494 674.048 505.4 674.232 502.814L672.757 502.445C665.195 511.125 653.021 517.219 636.052 517.219C607.648 517.219 583.116 500.968 583.116 458.676C583.116 416.939 605.988 399.949 635.314 399.949C653.206 399.949 665.01 407.521 668.33 417.309L671.097 416.939C672.388 411.029 673.495 406.597 675.155 402.35Z" fill="black"/>
<path d="M801.863 522.021C792.825 503.738 763.867 435.222 748.374 393.116H746.345C727.9 436.146 707.242 479.545 686.216 522.021L686.585 522.39C687.691 522.206 690.458 522.021 692.856 522.021C694.7 522.021 696.913 522.206 698.942 522.39C702.447 510.571 709.64 492.473 718.309 471.973C726.425 471.789 733.065 471.789 740.627 471.789C748.927 471.789 759.256 471.789 765.712 471.973C772.905 490.072 780.283 509.278 783.972 522.39C786.37 522.206 789.321 522.021 792.088 522.021C794.485 522.021 799.281 522.206 801.31 522.39L801.863 522.021ZM762.945 464.771C757.781 464.955 748.743 464.955 741.734 464.955C735.094 464.955 726.609 464.955 721.076 464.771C726.978 450.92 738.045 426.542 743.578 414.723C749.112 428.389 759.256 454.614 762.945 464.771Z" fill="black"/>
<path d="M914.254 521.467C902.634 509.648 868.143 470.68 859.474 459.784C877.918 458.122 898.761 448.888 898.761 424.696C898.761 402.719 881.238 395.886 860.396 395.886C857.629 395.886 854.309 396.071 850.805 396.071C847.485 396.255 844.165 396.44 841.029 396.44C836.971 396.44 833.098 396.255 828.118 396.071C828.856 410.845 829.04 431.529 829.04 448.15V466.618C829.04 483.239 828.487 507.616 827.564 522.39C829.593 522.206 832.913 522.021 835.311 522.021C837.893 522.021 841.398 522.206 843.242 522.39C842.32 507.616 841.767 482.869 841.767 466.433V460.708C843.242 460.708 844.533 460.893 845.087 461.447C860.949 478.252 887.14 511.679 895.256 522.76C897.469 522.39 903.372 522.021 905.954 522.021C908.167 522.021 910.196 522.021 913.701 522.206L914.254 521.467ZM883.82 426.358C883.82 450.92 866.483 455.722 848.407 455.722H841.767V448.334C841.767 436.7 841.951 414.169 842.689 402.719C846.193 401.98 849.882 401.796 852.649 401.796C867.22 401.796 883.82 405.489 883.82 426.358Z" fill="black"/>
<path d="M1078.82 522.39C1074.77 503.369 1068.5 446.488 1064.07 393.854H1062.04C1044.33 428.205 1016.85 479.36 1006.71 497.643H1005.97C995.27 478.252 967.235 424.326 951.741 393.67H949.712C945.839 431.344 938.461 481.576 931.083 522.39C933.112 522.206 935.694 522.021 937.539 522.021C939.568 522.021 942.334 522.206 943.81 522.39C943.81 501.522 948.052 461.262 952.848 425.619H953.586C954.139 426.727 954.877 428.389 955.43 429.682C965.759 447.78 991.581 497.828 1001.54 522.021H1003.57C1015.01 494.873 1043.41 442.055 1053.37 425.619H1054.11C1057.8 459.6 1061.49 499.675 1062.59 522.39C1065.73 522.206 1068.31 522.021 1070.71 522.021C1073.11 522.021 1076.98 522.206 1078.82 522.39Z" fill="black"/>
<path d="M1173.09 522.39C1172.9 519.99 1172.9 518.512 1172.9 517.404C1172.9 516.481 1172.9 514.819 1173.09 512.048C1159.81 514.449 1145.24 515.188 1128.08 515.188C1127.71 508.355 1127.34 483.054 1127.34 466.433V459.415C1149.85 459.415 1161.84 459.784 1168.66 460.893C1168.48 459.046 1168.48 457.753 1168.48 455.906C1168.48 454.244 1168.48 452.582 1168.66 450.735C1161.84 451.659 1149.85 452.582 1127.34 452.582V446.488C1127.34 431.713 1127.71 411.584 1128.08 403.273C1146.53 403.273 1164.23 404.196 1172.17 405.859C1171.98 404.012 1171.98 402.534 1171.98 400.872C1171.98 399.21 1171.98 397.917 1172.17 396.071C1159.99 396.44 1142.84 396.625 1130.66 396.625C1124.95 396.625 1117.02 396.255 1112.96 396.071C1113.88 410.845 1114.43 431.529 1114.43 448.15V466.618C1114.43 483.239 1113.88 507.616 1112.96 522.39C1117.2 522.206 1127.16 521.836 1131.77 521.836C1147.45 521.836 1161.84 522.206 1173.09 522.39Z" fill="black"/>
<path d="M1309.49 522.944C1309.12 512.418 1308.75 494.689 1308.75 475.851V461.077C1308.75 438.916 1309.68 410.845 1311.15 396.071C1308.75 396.255 1306.17 396.44 1304.51 396.44C1302.48 396.44 1300.45 396.255 1298.61 396.071C1300.45 410.845 1301.56 438.916 1301.56 461.077V495.058L1301.19 495.243C1300.09 493.95 1298.98 492.657 1298.06 491.549C1274.26 465.879 1230.55 418.047 1209.89 394.593H1207.86C1208.23 403.642 1208.6 424.88 1208.6 448.15V457.384C1208.6 479.545 1207.68 507.616 1206.02 522.39C1208.42 522.206 1210.81 522.021 1212.66 522.021C1214.32 522.021 1217.08 522.206 1218.56 522.39C1216.53 507.616 1215.42 479.545 1215.42 457.384V421.187L1215.98 421.002C1217.27 422.849 1218.19 423.957 1219.3 425.065C1255.45 463.847 1294.92 507.247 1307.46 522.944H1309.49Z" fill="black"/>
<path d="M581.059 252.115C580.875 250.084 580.875 248.608 580.875 247.316C580.875 245.839 580.875 244.917 581.059 242.333C571.102 242.886 550.451 243.256 534.594 243.256C519.106 243.256 498.455 242.886 487.945 242.333C488.13 244.917 488.13 245.839 488.13 247.316C488.13 248.608 488.13 250.084 487.945 252.115C496.058 250.823 512.837 249.715 527.588 249.715C527.957 256.913 528.141 266.511 528.141 271.678V312.836C528.141 329.446 527.588 353.809 526.666 368.574C528.51 368.389 532.013 368.205 534.594 368.205C536.991 368.205 540.495 368.389 542.338 368.574C541.417 353.809 540.863 329.262 540.863 312.836V271.678C540.863 266.695 541.048 257.098 541.417 249.715C556.352 249.715 572.946 250.823 581.059 252.115Z" fill="#E0E0E0"/>
<path d="M674.262 125.626C674.078 123.596 674.078 122.119 674.078 120.827C674.078 119.351 674.078 118.428 674.262 115.844C664.305 116.398 643.654 116.767 627.797 116.767C612.309 116.767 591.658 116.398 581.148 115.844C581.333 118.428 581.333 119.351 581.333 120.827C581.333 122.119 581.333 123.596 581.148 125.626C589.261 124.334 606.04 123.227 620.791 123.227C621.16 130.425 621.344 140.022 621.344 145.19V186.347C621.344 202.958 620.791 227.32 619.869 242.085C621.713 241.901 625.216 241.716 627.797 241.716C630.194 241.716 633.698 241.901 635.542 242.085C634.62 227.32 634.066 202.773 634.066 186.347V145.19C634.066 140.207 634.251 130.609 634.62 123.227C649.555 123.227 666.149 124.334 674.262 125.626Z" fill="#E0E0E0"/>
<path d="M310.102 114.893C408.848 114.893 488.897 223.471 488.897 357.409C488.897 491.347 408.848 599.925 310.102 599.925C211.356 599.924 131.307 491.346 131.307 357.409C131.307 223.472 211.356 114.894 310.102 114.893ZM310.102 119.649C221.861 119.65 150.327 226.098 150.327 357.409C150.327 488.72 221.86 595.169 310.102 595.17C398.343 595.17 469.877 488.72 469.877 357.409C469.877 226.098 398.343 119.649 310.102 119.649Z" fill="black"/>
<path d="M421.065 449.205C419.183 451.601 416.444 454.339 412.508 457.078C398.988 466.661 370.58 477.443 312.051 477.443C256.773 477.443 190.543 470.598 190.543 411.726C190.543 352.855 256.602 346.01 312.051 346.01C396.25 346.01 417.813 368.257 423.119 377.157L414.562 399.918H412.508C408.743 374.761 374.516 352.17 312.051 352.17C250.612 352.17 209.539 372.365 209.539 411.555C209.539 450.746 250.612 471.111 312.051 471.111C374.687 471.111 408.743 448.521 412.508 423.364H414.562L421.065 449.205Z" fill="black"/>
<path d="M319.242 243.672V242.474H318.387C314.964 242.474 310.685 242.474 308.118 242.474C304.696 242.474 299.561 242.474 296.994 242.474H296.139V243.672C299.561 265.235 301.102 304.083 301.102 342.076V383.491C301.102 416.863 299.904 487.371 296.139 520.743V521.941H296.994C299.561 521.941 304.696 521.941 308.118 521.941C310.685 521.941 314.964 521.941 318.387 521.941H319.242V520.743C315.477 487.2 314.279 416.863 314.279 383.491V342.076C314.793 304.083 316.162 265.406 319.242 243.672Z" fill="black"/>
<path d="M190.543 323.76V299.801C190.543 299.801 192.083 302.71 203.378 298.432C214.673 294.153 236.408 283.372 253.864 283.372C271.32 283.372 283.984 286.795 306.745 298.603C329.507 310.583 339.432 316.744 358.942 316.744C378.452 316.744 395.908 314.005 424.83 285.597V310.24C424.83 310.24 424.659 306.133 404.807 313.663C384.955 321.193 375.714 326.156 358.6 326.156C341.486 326.156 318.211 316.401 306.232 309.727C294.252 303.053 279.021 292.613 253.864 292.613C228.707 292.613 209.539 303.737 190.543 323.76Z" fill="black"/>
<path d="M306.59 225.984C307.201 226.376 308.074 226.361 308.669 225.881C334.324 201.365 346.029 189.178 355.377 176.628C357.933 173.093 359.143 171.958 359.143 167.399C359.143 163.398 357.48 160.58 349.454 162.331C343.937 163.535 340.581 167.42 336.753 173.16C330.406 182.602 316.172 205.676 306.152 223.978C305.76 224.589 305.942 225.425 306.59 225.984Z" fill="black"/>
</g>
<defs>
<clipPath id="clip0_119_1097">
<rect width="1440" height="720" fill="white"/>
</clipPath>
</defs>
</svg>
