<svg width="1200" height="1200" viewBox="0 0 1200 1200" fill="none" xmlns="http://www.w3.org/2000/svg">
<g clip-path="url(#clip0_423_51)">
<rect width="1200" height="1200" fill="white"/>
<g opacity="0.25">
<line x1="1189" y1="352.5" x2="12" y2="352.5" stroke="url(#paint0_linear_423_51)"/>
<line x1="1189" y1="230.5" x2="12" y2="230.5" stroke="url(#paint1_linear_423_51)"/>
<line x1="1189" y1="139.5" x2="12" y2="139.5" stroke="url(#paint2_linear_423_51)"/>
<line x1="1189" y1="1060.5" x2="12" y2="1060.5" stroke="url(#paint3_linear_423_51)"/>
<line x1="1189" y1="383.5" x2="12" y2="383.5" stroke="url(#paint4_linear_423_51)"/>
<line x1="1189" y1="912.5" x2="12" y2="912.5" stroke="url(#paint5_linear_423_51)"/>
<line x1="1189" y1="460.5" x2="12" y2="460.5" stroke="url(#paint6_linear_423_51)"/>
<line x1="1189" y1="542.5" x2="12" y2="542.5" stroke="url(#paint7_linear_423_51)"/>
<line x1="1189" y1="579.5" x2="12" y2="579.5" stroke="url(#paint8_linear_423_51)"/>
<line x1="1189" y1="829.5" x2="12" y2="829.5" stroke="url(#paint9_linear_423_51)"/>
</g>
<path opacity="0.1" d="M601 139L1190 139V1060L601 1060L715.951 1028.31L837.115 922.036L909.192 746.785L920.997 598.879L897.386 409.334L837.115 285.664L722.164 171.316L601 139Z" fill="url(#paint10_linear_423_51)"/>
<path d="M1023.44 587.072C1023.41 586.532 1023.41 586.208 1023.41 585.992C1023.41 585.776 1023.41 585.452 1023.44 584.876C1020.85 585.344 1018.01 585.488 1014.84 585.488C1014.77 584.084 1014.7 579.44 1014.7 576.236V574.868C1018.91 574.868 1021.25 574.94 1022.58 575.156C1022.54 574.796 1022.54 574.4 1022.54 574.076C1022.54 573.752 1022.54 573.392 1022.58 572.996C1021.25 573.176 1018.91 573.356 1014.7 573.356V572.204C1014.7 569.324 1014.77 565.688 1014.84 564.032C1018.26 564.032 1021.72 564.212 1023.26 564.536C1023.23 564.176 1023.23 563.78 1023.23 563.492C1023.23 563.168 1023.23 562.844 1023.26 562.448C1020.89 562.52 1017.25 562.556 1014.88 562.556C1013.76 562.556 1012.14 562.484 1011.31 562.448C1011.49 565.328 1011.6 569.36 1011.6 572.6V576.2C1011.6 579.44 1011.49 584.192 1011.31 587.072C1012.14 587.036 1014.16 586.964 1015.06 586.964C1018.12 586.964 1021.21 587.036 1023.44 587.072ZM1051.47 587C1049.67 583.22 1044.34 570.152 1041.1 561.764H1040.52C1036.81 570.116 1032.64 578.828 1028.64 587L1028.71 587.072C1029.04 587.036 1029.61 587 1030.08 587C1030.48 587 1030.98 587.036 1031.38 587.072C1032.03 584.84 1033.39 581.204 1034.94 577.532C1036.42 577.496 1037.79 577.496 1039.26 577.496C1040.85 577.496 1042.79 577.496 1044.05 577.532C1045.35 580.916 1046.68 584.624 1047.4 587.072C1048.01 587.036 1048.66 587 1049.2 587C1049.77 587 1050.75 587.036 1051.36 587.072L1051.47 587ZM1043.47 575.984C1042.47 576.02 1040.74 576.02 1039.41 576.02C1038.18 576.02 1036.6 576.02 1035.55 575.984C1036.63 573.356 1038.72 568.712 1039.8 566.408C1040.92 569.144 1042.75 574.004 1043.47 575.984ZM1075.56 586.892C1073.33 584.48 1067.03 577.064 1065.34 574.832C1068.79 574.472 1072.57 572.744 1072.57 568.028C1072.57 563.744 1069.22 562.412 1065.16 562.412C1064.62 562.412 1063.9 562.448 1063.14 562.448C1062.42 562.484 1061.7 562.52 1061.09 562.52C1060.26 562.52 1059.36 562.484 1058.17 562.448C1058.32 565.328 1058.35 569.36 1058.35 572.6V576.2C1058.35 579.44 1058.24 584.192 1058.06 587.072C1058.6 587.036 1059.32 587 1059.9 587C1060.48 587 1061.2 587.036 1061.66 587.072C1061.48 584.192 1061.38 579.404 1061.38 576.2V575.084C1061.7 575.084 1061.92 575.12 1062.02 575.264C1064.83 578.36 1069.66 584.768 1071.24 587.144C1071.78 587.072 1073.11 587 1073.69 587C1074.19 587 1074.7 587 1075.45 587.036L1075.56 586.892ZM1069.15 568.424C1069.15 573.14 1065.95 574.004 1062.64 574.004H1061.38V572.6C1061.38 570.368 1061.41 566.084 1061.56 563.888C1062.2 563.78 1062.89 563.744 1063.39 563.744C1066.06 563.744 1069.15 564.428 1069.15 568.424ZM1096.71 564.572C1096.67 564.104 1096.67 563.78 1096.67 563.492C1096.67 563.204 1096.67 562.952 1096.71 562.448C1094.62 562.556 1090.59 562.592 1087.49 562.592C1084.47 562.592 1080.44 562.556 1078.28 562.448C1078.31 562.952 1078.31 563.204 1078.31 563.492C1078.31 563.78 1078.31 564.104 1078.28 564.572C1079.93 564.32 1083.24 564.068 1085.84 564.068C1085.91 565.472 1085.94 567.344 1085.94 568.352V576.2C1085.94 579.44 1085.84 584.192 1085.66 587.072C1086.16 587.036 1086.92 587 1087.49 587C1088.07 587 1088.79 587.036 1089.33 587.072C1089.15 584.192 1089.04 579.404 1089.04 576.2V568.352C1089.04 567.38 1089.08 565.508 1089.15 564.068C1091.78 564.068 1095.09 564.32 1096.71 564.572ZM1123.68 587.072C1123.5 584.192 1123.4 579.44 1123.4 576.2V572.6C1123.4 569.36 1123.5 565.328 1123.68 562.448C1123.18 562.484 1122.42 562.52 1121.85 562.52C1121.27 562.52 1120.55 562.484 1120.01 562.448C1120.19 565.328 1120.3 568.244 1120.3 571.484V572.96C1118.82 572.996 1115.66 572.996 1113.46 572.996C1111.3 572.996 1108.06 572.996 1106.58 572.96V571.484C1106.58 568.244 1106.69 565.328 1106.87 562.448C1106.37 562.484 1105.61 562.52 1105.07 562.52C1104.5 562.52 1103.74 562.484 1103.2 562.448C1103.38 565.328 1103.49 569.36 1103.49 572.6V576.2C1103.49 579.44 1103.38 584.192 1103.2 587.072C1103.74 587.036 1104.5 587 1105.07 587C1105.61 587 1106.37 587.036 1106.87 587.072C1106.69 584.192 1106.58 579.44 1106.58 576.236V574.616C1108.06 574.58 1110.98 574.58 1113.46 574.58C1115.94 574.58 1118.82 574.58 1120.3 574.616V576.236C1120.3 579.476 1120.19 584.192 1120.01 587.072C1120.55 587.036 1121.27 587 1121.85 587C1122.42 587 1123.18 587.036 1123.68 587.072Z" fill="black"/>
<path opacity="0.1" d="M688 231L-6.5 231V353H593.508L688 231Z" fill="url(#paint11_linear_423_51)"/>
<path opacity="0.3" d="M687 542H-593V461H503.699L687 542Z" fill="url(#paint12_linear_423_51)"/>
<path opacity="0.2" d="M596 580H-593V829H591.028L516.443 815.928L428.185 778.577L400.837 700.765L428.185 631.045L508.985 595.562L596 580Z" fill="url(#paint13_linear_423_51)"/>
<path fill-rule="evenodd" clip-rule="evenodd" d="M600.751 1060C788.255 1060 940.257 853.827 940.257 599.5C940.257 345.173 788.255 139 600.751 139C413.247 139 261.245 345.173 261.245 599.5C261.245 853.827 413.247 1060 600.751 1060ZM600.751 1050.97C768.307 1050.97 904.139 848.839 904.139 599.499C904.139 350.158 768.307 148.028 600.751 148.028C433.194 148.028 297.362 350.158 297.362 599.499C297.362 848.839 433.194 1050.97 600.751 1050.97Z" fill="black"/>
<path d="M811.456 775.611C807.881 780.161 802.682 785.36 795.208 790.56C769.536 808.758 715.592 829.23 604.454 829.23C499.491 829.23 373.73 816.232 373.73 704.444C373.73 592.657 499.166 579.658 604.454 579.658C764.336 579.658 805.282 621.903 815.356 638.802L799.107 682.022H795.208C788.059 634.252 723.066 591.357 604.454 591.357C487.792 591.357 409.801 629.703 409.801 704.119C409.801 778.536 487.792 817.207 604.454 817.207C723.391 817.207 788.059 774.311 795.208 726.542H799.107L811.456 775.611Z" fill="black"/>
<path d="M618.11 385.334V383.059H616.485C609.986 383.059 601.862 383.059 596.987 383.059C590.488 383.059 580.739 383.059 575.865 383.059H574.24V385.334C580.739 426.279 583.664 500.046 583.664 572.188V650.829C583.664 714.197 581.389 848.082 574.24 911.45V913.725H575.865C580.739 913.725 590.488 913.725 596.987 913.725C601.862 913.725 609.986 913.725 616.485 913.725H618.11V911.45C610.961 847.757 608.686 714.197 608.686 650.829V572.188C609.661 500.046 612.26 426.604 618.11 385.334Z" fill="black"/>
<path d="M373.73 537.411V491.916C373.73 491.916 376.655 497.441 398.102 489.317C419.55 481.192 460.82 460.72 493.967 460.72C527.113 460.72 551.16 467.219 594.38 489.641C637.6 512.389 656.448 524.088 693.494 524.088C730.54 524.088 763.686 518.888 818.605 464.944V511.739C818.605 511.739 818.28 503.94 780.584 518.238C742.889 532.537 725.341 541.961 692.844 541.961C660.348 541.961 616.153 523.438 593.405 510.764C570.658 498.091 541.736 478.268 493.967 478.268C446.197 478.268 409.801 499.39 373.73 537.411Z" fill="black"/>
<path d="M594.087 351.745C595.247 352.49 596.904 352.461 598.035 351.549C646.75 304.998 668.975 281.856 686.725 258.026C691.58 251.312 693.877 249.157 693.877 240.5C693.877 232.904 690.72 227.552 675.48 230.877C665.003 233.163 658.63 240.541 651.362 251.44C639.309 269.37 612.282 313.184 593.255 347.935C592.511 349.096 592.857 350.683 594.087 351.745Z" fill="black"/>
<path d="M88.264 287.536C88.228 287.068 88.228 286.744 88.228 286.528C88.228 286.276 88.228 285.988 88.264 285.448C85.888 285.52 82.252 285.556 79.876 285.556C78.76 285.556 77.14 285.484 76.312 285.448C76.492 288.328 76.6 292.36 76.6 295.6V299.2C76.6 302.44 76.492 307.192 76.312 310.072C76.852 310.036 77.608 310 78.184 310C78.724 310 79.48 310.036 79.984 310.072C79.804 307.192 79.696 302.44 79.696 299.236V297.868C83.908 297.868 86.248 297.94 87.58 298.156C87.544 297.616 87.544 297.292 87.544 297.076C87.544 296.86 87.544 296.536 87.58 295.996C86.248 296.176 83.908 296.356 79.696 296.356V295.24C79.696 292.396 79.768 288.652 79.84 287.032C83.26 287.032 86.716 287.212 88.264 287.536ZM99.5984 310.072C99.4184 307.192 99.3104 302.404 99.3104 299.2V295.6C99.3104 292.36 99.4184 288.328 99.5984 285.448C99.0944 285.484 98.3384 285.52 97.7984 285.52C97.2224 285.52 96.4664 285.484 95.9264 285.448C96.1064 288.328 96.2144 292.36 96.2144 295.6V299.2C96.2144 302.44 96.1064 307.192 95.9264 310.072C96.4664 310.036 97.2224 310 97.7984 310C98.3384 310 99.0944 310.036 99.5984 310.072ZM126.603 309.892C124.371 307.48 118.071 300.064 116.379 297.832C119.835 297.472 123.615 295.744 123.615 291.028C123.615 286.744 120.267 285.412 116.199 285.412C115.659 285.412 114.939 285.448 114.183 285.448C113.463 285.484 112.743 285.52 112.131 285.52C111.303 285.52 110.403 285.484 109.215 285.448C109.359 288.328 109.395 292.36 109.395 295.6V299.2C109.395 302.44 109.287 307.192 109.107 310.072C109.647 310.036 110.367 310 110.943 310C111.519 310 112.239 310.036 112.707 310.072C112.527 307.192 112.419 302.404 112.419 299.2V298.084C112.743 298.084 112.959 298.12 113.067 298.264C115.875 301.36 120.699 307.768 122.283 310.144C122.823 310.072 124.155 310 124.731 310C125.235 310 125.739 310 126.495 310.036L126.603 309.892ZM120.195 291.424C120.195 296.14 116.991 297.004 113.679 297.004H112.419V295.6C112.419 293.368 112.455 289.084 112.599 286.888C113.247 286.78 113.931 286.744 114.435 286.744C117.099 286.744 120.195 287.428 120.195 291.424ZM145.107 310.072C145.071 309.532 145.071 309.208 145.071 308.992C145.071 308.776 145.071 308.452 145.107 307.876C142.515 308.344 139.671 308.488 136.503 308.488C136.431 307.084 136.359 302.44 136.359 299.236V297.868C140.571 297.868 142.911 297.94 144.243 298.156C144.207 297.796 144.207 297.4 144.207 297.076C144.207 296.752 144.207 296.392 144.243 295.996C142.911 296.176 140.571 296.356 136.359 296.356V295.204C136.359 292.324 136.431 288.688 136.503 287.032C139.923 287.032 143.379 287.212 144.927 287.536C144.891 287.176 144.891 286.78 144.891 286.492C144.891 286.168 144.891 285.844 144.927 285.448C142.551 285.52 138.915 285.556 136.539 285.556C135.423 285.556 133.803 285.484 132.975 285.448C133.155 288.328 133.263 292.36 133.263 295.6V299.2C133.263 302.44 133.155 307.192 132.975 310.072C133.803 310.036 135.819 309.964 136.719 309.964C139.779 309.964 142.875 310.036 145.107 310.072Z" fill="black"/>
<path d="M96.184 515C94.384 511.22 89.056 498.152 85.816 489.764H85.24C81.532 498.116 77.356 506.828 73.36 515L73.432 515.072C73.756 515.036 74.332 515 74.8 515C75.196 515 75.7 515.036 76.096 515.072C76.744 512.84 78.112 509.204 79.66 505.532C81.136 505.496 82.504 505.496 83.98 505.496C85.564 505.496 87.508 505.496 88.768 505.532C90.064 508.916 91.396 512.624 92.116 515.072C92.728 515.036 93.376 515 93.916 515C94.492 515 95.464 515.036 96.076 515.072L96.184 515ZM88.192 503.984C87.184 504.02 85.456 504.02 84.124 504.02C82.9 504.02 81.316 504.02 80.272 503.984C81.352 501.356 83.44 496.712 84.52 494.408C85.636 497.144 87.472 502.004 88.192 503.984ZM106.454 515.072C106.274 512.192 106.166 507.404 106.166 504.2V500.6C106.166 497.36 106.274 493.328 106.454 490.448C105.95 490.484 105.194 490.52 104.654 490.52C104.078 490.52 103.322 490.484 102.782 490.448C102.962 493.328 103.07 497.36 103.07 500.6V504.2C103.07 507.44 102.962 512.192 102.782 515.072C103.322 515.036 104.078 515 104.654 515C105.194 515 105.95 515.036 106.454 515.072ZM133.459 514.892C131.227 512.48 124.927 505.064 123.235 502.832C126.691 502.472 130.471 500.744 130.471 496.028C130.471 491.744 127.123 490.412 123.055 490.412C122.515 490.412 121.795 490.448 121.039 490.448C120.319 490.484 119.599 490.52 118.987 490.52C118.159 490.52 117.259 490.484 116.071 490.448C116.215 493.328 116.251 497.36 116.251 500.6V504.2C116.251 507.44 116.143 512.192 115.963 515.072C116.503 515.036 117.223 515 117.799 515C118.375 515 119.095 515.036 119.563 515.072C119.383 512.192 119.275 507.404 119.275 504.2V503.084C119.599 503.084 119.815 503.12 119.923 503.264C122.731 506.36 127.555 512.768 129.139 515.144C129.679 515.072 131.011 515 131.587 515C132.091 515 132.595 515 133.351 515.036L133.459 514.892ZM127.051 496.424C127.051 501.14 123.847 502.004 120.535 502.004H119.275V500.6C119.275 498.368 119.311 494.084 119.455 491.888C120.103 491.78 120.787 491.744 121.291 491.744C123.955 491.744 127.051 492.428 127.051 496.424Z" fill="black"/>
<path d="M108.64 693.52L108.568 693.448C108.244 693.484 107.524 693.52 107.164 693.52C106.768 693.52 106.264 693.484 105.94 693.448C104.788 698.416 101.368 709.576 99.82 714.22H99.712C97.984 709.612 94.78 699.856 92.908 693.448C92.512 693.484 92.044 693.52 91.648 693.52C91.252 693.52 90.784 693.484 90.316 693.448C88.696 698.992 85.312 709.504 83.656 714.22H83.584C81.64 708.388 78.94 698.992 77.536 693.448C76.996 693.484 76.384 693.52 75.844 693.52C75.304 693.52 74.62 693.52 73.792 693.448L73.684 693.52C75.7 699.1 79.552 711.592 81.352 718.072C81.748 718.036 82.252 718 82.684 718C83.08 718 83.728 718.036 83.98 718.072C86.068 711.7 88.876 703.42 90.892 697.912H90.964C92.764 702.844 95.752 712.096 97.516 718.072C97.876 718.036 98.416 718 98.848 718C99.28 718 99.82 718.036 100.18 718.072C102.268 711.592 106.732 698.56 108.64 693.52ZM134.642 718C132.842 714.22 127.514 701.152 124.274 692.764H123.698C119.99 701.116 115.814 709.828 111.818 718L111.89 718.072C112.214 718.036 112.79 718 113.258 718C113.654 718 114.158 718.036 114.554 718.072C115.202 715.84 116.57 712.204 118.118 708.532C119.594 708.496 120.962 708.496 122.438 708.496C124.022 708.496 125.966 708.496 127.226 708.532C128.522 711.916 129.854 715.624 130.574 718.072C131.186 718.036 131.834 718 132.374 718C132.95 718 133.922 718.036 134.534 718.072L134.642 718ZM126.65 706.984C125.642 707.02 123.914 707.02 122.582 707.02C121.358 707.02 119.774 707.02 118.73 706.984C119.81 704.356 121.898 699.712 122.978 697.408C124.094 700.144 125.93 705.004 126.65 706.984ZM154.644 695.572C154.608 695.104 154.608 694.78 154.608 694.492C154.608 694.204 154.608 693.952 154.644 693.448C152.556 693.556 148.524 693.592 145.428 693.592C142.404 693.592 138.372 693.556 136.212 693.448C136.248 693.952 136.248 694.204 136.248 694.492C136.248 694.78 136.248 695.104 136.212 695.572C137.868 695.32 141.18 695.068 143.772 695.068C143.844 696.472 143.88 698.344 143.88 699.352V707.2C143.88 710.44 143.772 715.192 143.592 718.072C144.096 718.036 144.852 718 145.428 718C146.004 718 146.724 718.036 147.264 718.072C147.084 715.192 146.976 710.404 146.976 707.2V699.352C146.976 698.38 147.012 696.508 147.084 695.068C149.712 695.068 153.024 695.32 154.644 695.572ZM173.268 718.072C173.232 717.532 173.232 717.208 173.232 716.992C173.232 716.776 173.232 716.452 173.268 715.876C170.676 716.344 167.832 716.488 164.664 716.488C164.592 715.084 164.52 710.44 164.52 707.236V705.868C168.732 705.868 171.072 705.94 172.404 706.156C172.368 705.796 172.368 705.4 172.368 705.076C172.368 704.752 172.368 704.392 172.404 703.996C171.072 704.176 168.732 704.356 164.52 704.356V703.204C164.52 700.324 164.592 696.688 164.664 695.032C168.084 695.032 171.54 695.212 173.088 695.536C173.052 695.176 173.052 694.78 173.052 694.492C173.052 694.168 173.052 693.844 173.088 693.448C170.712 693.52 167.076 693.556 164.7 693.556C163.584 693.556 161.964 693.484 161.136 693.448C161.316 696.328 161.424 700.36 161.424 703.6V707.2C161.424 710.44 161.316 715.192 161.136 718.072C161.964 718.036 163.98 717.964 164.88 717.964C167.94 717.964 171.036 718.036 173.268 718.072ZM198.914 717.892C196.682 715.48 190.382 708.064 188.69 705.832C192.146 705.472 195.926 703.744 195.926 699.028C195.926 694.744 192.578 693.412 188.51 693.412C187.97 693.412 187.25 693.448 186.494 693.448C185.774 693.484 185.054 693.52 184.442 693.52C183.614 693.52 182.714 693.484 181.526 693.448C181.67 696.328 181.706 700.36 181.706 703.6V707.2C181.706 710.44 181.598 715.192 181.418 718.072C181.958 718.036 182.678 718 183.254 718C183.83 718 184.55 718.036 185.018 718.072C184.838 715.192 184.73 710.404 184.73 707.2V706.084C185.054 706.084 185.27 706.12 185.378 706.264C188.186 709.36 193.01 715.768 194.594 718.144C195.134 718.072 196.466 718 197.042 718C197.546 718 198.05 718 198.806 718.036L198.914 717.892ZM192.506 699.424C192.506 704.14 189.302 705.004 185.99 705.004H184.73V703.6C184.73 701.368 184.766 697.084 184.91 694.888C185.558 694.78 186.242 694.744 186.746 694.744C189.41 694.744 192.506 695.428 192.506 699.424Z" fill="black"/>
</g>
<defs>
<linearGradient id="paint0_linear_423_51" x1="12" y1="351.5" x2="1189" y2="351.5" gradientUnits="userSpaceOnUse">
<stop stop-color="#7A7A7A" stop-opacity="0"/>
<stop offset="0.455" stop-color="#7A7A7A"/>
<stop offset="1" stop-color="#7A7A7A" stop-opacity="0"/>
</linearGradient>
<linearGradient id="paint1_linear_423_51" x1="12" y1="229.5" x2="1189" y2="229.5" gradientUnits="userSpaceOnUse">
<stop stop-color="#7A7A7A" stop-opacity="0"/>
<stop offset="0.455" stop-color="#7A7A7A"/>
<stop offset="1" stop-color="#7A7A7A" stop-opacity="0"/>
</linearGradient>
<linearGradient id="paint2_linear_423_51" x1="12" y1="138.5" x2="1189" y2="138.5" gradientUnits="userSpaceOnUse">
<stop stop-color="#7A7A7A" stop-opacity="0"/>
<stop offset="0.455" stop-color="#7A7A7A"/>
<stop offset="1" stop-color="#7A7A7A" stop-opacity="0"/>
</linearGradient>
<linearGradient id="paint3_linear_423_51" x1="12" y1="1059.5" x2="1189" y2="1059.5" gradientUnits="userSpaceOnUse">
<stop stop-color="#7A7A7A" stop-opacity="0"/>
<stop offset="0.455" stop-color="#7A7A7A"/>
<stop offset="1" stop-color="#7A7A7A" stop-opacity="0"/>
</linearGradient>
<linearGradient id="paint4_linear_423_51" x1="12" y1="382.5" x2="1189" y2="382.5" gradientUnits="userSpaceOnUse">
<stop stop-color="#7A7A7A" stop-opacity="0"/>
<stop offset="0.455" stop-color="#7A7A7A"/>
<stop offset="1" stop-color="#7A7A7A" stop-opacity="0"/>
</linearGradient>
<linearGradient id="paint5_linear_423_51" x1="12" y1="911.5" x2="1189" y2="911.5" gradientUnits="userSpaceOnUse">
<stop stop-color="#7A7A7A" stop-opacity="0"/>
<stop offset="0.455" stop-color="#7A7A7A"/>
<stop offset="1" stop-color="#7A7A7A" stop-opacity="0"/>
</linearGradient>
<linearGradient id="paint6_linear_423_51" x1="12" y1="459.5" x2="1189" y2="459.5" gradientUnits="userSpaceOnUse">
<stop stop-color="#7A7A7A" stop-opacity="0"/>
<stop offset="0.455" stop-color="#7A7A7A"/>
<stop offset="1" stop-color="#7A7A7A" stop-opacity="0"/>
</linearGradient>
<linearGradient id="paint7_linear_423_51" x1="12" y1="541.5" x2="1189" y2="541.5" gradientUnits="userSpaceOnUse">
<stop stop-color="#7A7A7A" stop-opacity="0"/>
<stop offset="0.455" stop-color="#7A7A7A"/>
<stop offset="1" stop-color="#7A7A7A" stop-opacity="0"/>
</linearGradient>
<linearGradient id="paint8_linear_423_51" x1="12" y1="578.5" x2="1189" y2="578.5" gradientUnits="userSpaceOnUse">
<stop stop-color="#7A7A7A" stop-opacity="0"/>
<stop offset="0.455" stop-color="#7A7A7A"/>
<stop offset="1" stop-color="#7A7A7A" stop-opacity="0"/>
</linearGradient>
<linearGradient id="paint9_linear_423_51" x1="12" y1="828.5" x2="1189" y2="828.5" gradientUnits="userSpaceOnUse">
<stop stop-color="#7A7A7A" stop-opacity="0"/>
<stop offset="0.455" stop-color="#7A7A7A"/>
<stop offset="1" stop-color="#7A7A7A" stop-opacity="0"/>
</linearGradient>
<linearGradient id="paint10_linear_423_51" x1="934.046" y1="598.878" x2="1198" y2="598.878" gradientUnits="userSpaceOnUse">
<stop stop-color="#66544D"/>
<stop offset="1" stop-color="#66544D" stop-opacity="0"/>
</linearGradient>
<linearGradient id="paint11_linear_423_51" x1="668.131" y1="292" x2="-5.99998" y2="292" gradientUnits="userSpaceOnUse">
<stop offset="0.510417" stop-color="#E79F72"/>
<stop offset="1" stop-color="#E79F72" stop-opacity="0"/>
</linearGradient>
<linearGradient id="paint12_linear_423_51" x1="701.913" y1="461" x2="7.50001" y2="461" gradientUnits="userSpaceOnUse">
<stop stop-color="#CFD9D1"/>
<stop offset="1" stop-color="#CFD9D1" stop-opacity="0"/>
</linearGradient>
<linearGradient id="paint13_linear_423_51" x1="418.24" y1="704.5" x2="1.99997" y2="704.5" gradientUnits="userSpaceOnUse">
<stop stop-color="#AEA1B4"/>
<stop offset="1" stop-color="#AEA1B4" stop-opacity="0"/>
</linearGradient>
<clipPath id="clip0_423_51">
<rect width="1200" height="1200" fill="white"/>
</clipPath>
</defs>
</svg>
