<svg width="1200" height="1200" viewBox="0 0 1200 1200" fill="none" xmlns="http://www.w3.org/2000/svg">
<rect width="1200" height="1200" rx="600" fill="#FFD0BC"/>
<path fill-rule="evenodd" clip-rule="evenodd" d="M600.751 1060C788.255 1060 940.257 853.827 940.257 599.5C940.257 345.173 788.255 139 600.751 139C413.247 139 261.245 345.173 261.245 599.5C261.245 853.827 413.247 1060 600.751 1060ZM600.751 1050.97C768.307 1050.97 904.139 848.839 904.139 599.499C904.139 350.158 768.307 148.028 600.751 148.028C433.194 148.028 297.362 350.158 297.362 599.499C297.362 848.839 433.194 1050.97 600.751 1050.97Z" fill="black"/>
<path d="M811.456 775.611C807.881 780.161 802.682 785.36 795.208 790.56C769.536 808.758 715.592 829.23 604.454 829.23C499.491 829.23 373.73 816.232 373.73 704.444C373.73 592.657 499.166 579.658 604.454 579.658C764.336 579.658 805.282 621.903 815.356 638.802L799.107 682.022H795.208C788.059 634.252 723.066 591.357 604.454 591.357C487.792 591.357 409.801 629.703 409.801 704.119C409.801 778.536 487.792 817.207 604.454 817.207C723.391 817.207 788.059 774.311 795.208 726.542H799.107L811.456 775.611Z" fill="black"/>
<path d="M618.11 385.334V383.059H616.485C609.986 383.059 601.862 383.059 596.987 383.059C590.488 383.059 580.739 383.059 575.865 383.059H574.24V385.334C580.739 426.279 583.664 500.046 583.664 572.188V650.829C583.664 714.197 581.389 848.082 574.24 911.45V913.725H575.865C580.739 913.725 590.488 913.725 596.987 913.725C601.862 913.725 609.986 913.725 616.485 913.725H618.11V911.45C610.961 847.757 608.686 714.197 608.686 650.829V572.188C609.661 500.046 612.26 426.604 618.11 385.334Z" fill="black"/>
<path d="M373.73 537.411V491.916C373.73 491.916 376.655 497.441 398.102 489.317C419.55 481.192 460.82 460.72 493.967 460.72C527.113 460.72 551.16 467.219 594.38 489.641C637.6 512.389 656.448 524.088 693.494 524.088C730.54 524.088 763.686 518.888 818.605 464.944V511.739C818.605 511.739 818.28 503.94 780.584 518.238C742.889 532.537 725.341 541.961 692.844 541.961C660.348 541.961 616.153 523.438 593.405 510.764C570.658 498.091 541.736 478.268 493.967 478.268C446.197 478.268 409.801 499.39 373.73 537.411Z" fill="black"/>
<path d="M594.087 351.745C595.247 352.49 596.904 352.461 598.035 351.549C646.75 304.998 668.975 281.856 686.725 258.026C691.58 251.312 693.877 249.157 693.877 240.5C693.877 232.904 690.72 227.552 675.48 230.877C665.003 233.163 658.63 240.541 651.362 251.44C639.309 269.37 612.282 313.184 593.255 347.935C592.511 349.096 592.857 350.683 594.087 351.745Z" fill="black"/>
</svg>
