<svg id="Layer_1" data-name="Layer 1" xmlns="http://www.w3.org/2000/svg" viewBox="0 0 648.19 872.29"><path d="M324.43,64.64c-150.86,0-273.15,165.88-273.15,370.5s122.29,370.5,273.15,370.5,273.15-165.88,273.15-370.5S475.29,64.64,324.43,64.64Zm0,733.74c-134.81,0-244.09-162.63-244.09-363.24S189.62,71.91,324.43,71.91,568.52,234.53,568.52,435.14,459.24,798.38,324.43,798.38Z"/><path d="M399.05,374.47c-25.86,0-40.71-7.09-66.89-20.92,1.2-36.28,3.16-69,6.24-90.72V261H303.1v1.83c3,19.18,5.11,47.32,6.31,78.94-28.78-14-46.87-18.29-70.89-18.29-26.67,0-59.88,16.48-77.13,23s-19.61,2.09-19.61,2.09v36.61c29-30.59,58.3-47.59,96.74-47.59,32.7,0,54.42,11.55,71.45,21.28.48,17.65.71,36,.71,54.29v6.16c-80.7,1.55-168.9,16.16-168.9,100.25,0,83,86.19,98.31,165.87,100.18-1.13,25.66-2.62,49.22-4.55,66.36V688h35.3v-1.83c-1.93-17.16-3.42-40.63-4.54-66.18,85.06-.77,126.87-16.79,147-31.08a59.65,59.65,0,0,0,13.07-12L484,537.35h-3.14c-5.63,37.62-55.59,71.47-147.43,72.9-1.93-48.36-2.64-102.05-2.64-133.81V428.61c93.27.81,144.39,34.95,150.07,72.93H484l13.07-34.78c-8-13.47-40.48-47-166.28-47.57v-6c.2-14.33.47-28.71.84-42.76,19.29,9,46.06,18.44,66.87,18.44,26.15,0,40.27-7.58,70.6-19.09s30.59-5.23,30.59-5.23V326.88C455.52,370.28,428.85,374.47,399.05,374.47ZM170.8,519.31c0-56.24,55.37-86.87,139.88-90.38v47.51c0,31.65-.7,85.16-2.61,133.39C225,605.77,170.8,575,170.8,519.31Z"/><path d="M322.24,235.65c39.2-37.45,57.08-56.07,71.36-75.24,3.91-5.41,5.76-7.14,5.76-14.1,0-6.12-2.55-10.42-14.81-7.75-8.43,1.84-13.55,7.78-19.4,16.55-9.7,14.42-31.44,49.67-46.75,77.63a2.38,2.38,0,0,0,.67,3.07A2.78,2.78,0,0,0,322.24,235.65Z"/></svg>