<svg width="1200" height="1200" viewBox="0 0 1200 1200" fill="none" xmlns="http://www.w3.org/2000/svg">
<path fill-rule="evenodd" clip-rule="evenodd" d="M600.153 1028C774.627 1028 916.067 836.154 916.067 599.5C916.067 362.846 774.627 171 600.153 171C425.679 171 284.239 362.846 284.239 599.5C284.239 836.154 425.679 1028 600.153 1028ZM600.153 1019.6C756.066 1019.6 882.459 831.513 882.459 599.499C882.459 367.485 756.066 179.401 600.153 179.401C444.239 179.401 317.847 367.485 317.847 599.499C317.847 831.513 444.239 1019.6 600.153 1019.6Z" fill="#242221"/>
<path d="M796.216 763.373C792.89 767.607 788.052 772.445 781.097 777.283C757.209 794.216 707.014 813.267 603.599 813.267C505.93 813.267 388.908 801.171 388.908 697.152C388.908 593.132 505.627 581.037 603.599 581.037C752.371 581.037 790.471 620.347 799.845 636.071L784.726 676.287H781.097C774.445 631.837 713.968 591.923 603.599 591.923C495.044 591.923 422.472 627.604 422.472 696.849C422.472 766.095 495.044 802.078 603.599 802.078C714.271 802.078 774.445 762.164 781.097 717.714H784.726L796.216 763.373Z" fill="#242221"/>
<path d="M616.306 400.216V398.1H614.794C608.746 398.1 601.187 398.1 596.651 398.1C590.603 398.1 581.532 398.1 576.996 398.1H575.484V400.216C581.532 438.316 584.253 506.957 584.253 574.086V647.262C584.253 706.227 582.137 830.808 575.484 889.773V891.889H576.996C581.532 891.889 590.603 891.889 596.651 891.889C601.187 891.889 608.746 891.889 614.794 891.889H616.306V889.773C609.654 830.506 607.537 706.227 607.537 647.262V574.086C608.444 506.957 610.863 438.619 616.306 400.216Z" fill="#242221"/>
<path d="M388.908 541.725V499.392C388.908 499.392 391.629 504.532 411.586 496.973C431.544 489.413 469.946 470.363 500.789 470.363C531.632 470.363 554.008 476.411 594.225 497.275C634.442 518.442 651.98 529.328 686.452 529.328C720.923 529.328 751.766 524.49 802.869 474.294V517.837C802.869 517.837 802.566 510.58 767.49 523.885C732.414 537.19 716.085 545.959 685.847 545.959C655.609 545.959 614.485 528.723 593.318 516.93C572.151 505.137 545.239 486.692 500.789 486.692C456.339 486.692 422.472 506.347 388.908 541.725Z" fill="#242221"/>
<path d="M593.952 368.962C595.031 369.655 596.573 369.628 597.626 368.779C642.955 325.463 663.635 303.929 680.153 281.755C684.67 275.508 686.808 273.502 686.808 265.447C686.808 258.379 683.869 253.399 669.689 256.493C659.94 258.62 654.009 265.485 647.247 275.626C636.031 292.31 610.882 333.08 593.178 365.416C592.485 366.496 592.807 367.973 593.952 368.962Z" fill="#242221"/>
</svg>
