<svg xmlns="http://www.w3.org/2000/svg" viewBox="0 0 192.58 192.36"><defs><style>.cls-1{fill:red;}.cls-2{fill:none;}</style></defs><title>bfc_icon</title><g id="Layer_2" data-name="Layer 2"><g id="Layer_1-2" data-name="Layer 1"><path class="cls-1" d="M110.54,77.34c-.92,10.06-2,12.76-2.71,13.26-1.46,1-4.26,1.5-8.32,1.5H85.65V63.24c0-5.22.15-6.24,1.84-6.24h42.42a1.06,1.06,0,0,1,.82,1.74l-3.88,4.69h2.67l.1-.11A43,43,0,0,1,137,57l.12-.07.54-2.27H66.11V56l.32,0,2.92.15c4,.19,8.9.43,9.54,1.27s1.27,5.36,1.27,10.65L80,124.7c0,5.4-.54,10-1.27,11-.52.68-3.43.72-6.51.77-1.5,0-3.19,0-4.87.14l-.32,0v1.57H103.2v-1.57l-.32,0c-1.68-.1-3.83-.12-6.11-.15-3.79,0-9.53-.1-10-.76-.72-1-1.24-5.6-1.24-11L85.65,95H99.5c4.06,0,6.86.51,8.32,1.51.73.5,1.8,3.21,2.71,13.26l0,.31h1.52V77h-1.52Z"/><path class="cls-1" d="M188.56,115.59a19.25,19.25,0,0,1-8.41,15c-5.11,3.41-9.52,6.35-21.23,5.49-8.63-.63-16.49-4.73-21-11-5.69-7.8-8.7-17.72-8.7-28.68s3-20.88,8.7-28.68a26.55,26.55,0,0,1,21.69-11c13.11,0,23.35,4,30.68,23.42l.08.22,2,0L183.67,54.6h-1.74l1.47,7.27c-5.83-4.49-15-7.25-24.11-7.25a34.45,34.45,0,0,0-26.83,12c-7.06,8-10.65,18-10.65,29.75s3.58,21.78,10.65,29.75a34.46,34.46,0,0,0,26.83,12c17.29,0,29-7.55,32.93-21.25l.08-.29-3.72-1.55Z"/><path class="cls-1" d="M68.12,100.93c-3.57-3.72-11.11-6.57-17.6-8,6-1.16,12.78-2.86,15.9-5.73a15.79,15.79,0,0,0,5.18-12.13c0-7.09-3-12.4-8.79-15.79C57.31,56.15,49.86,54.6,40,54.6H0v1.73l.32,0c1.39.08,2.84.13,4.25.18,3.72.13,7.95.27,8.53,1,1,1.26,1.35,7.31,1.35,20.86v33.76c0,17.87-.46,21.86-1.31,23-.59.78-4.92.94-8.74,1.08-1.36.05-2.75.1-4.08.18l-.32,0v1.75H42c8,0,16.37-.66,22.93-5.46A21,21,0,0,0,74,115,19.86,19.86,0,0,0,68.12,100.93ZM19.57,94.65H44.12c6.42,0,14.34,2.84,18,6.46A20.19,20.19,0,0,1,62,129.2c-4,3.79-12.59,6.64-20.1,6.64H21.44c-.46,0-1.87,0-1.87-3.25Zm22.14-2.88H19.57V60.2c0-3.25,1.41-3.25,1.87-3.25H40c16.35,0,25.36,6.46,25.36,18.18C65.38,85.24,56.09,91.78,41.71,91.78Z"/><rect class="cls-2" x="0.22" width="192.36" height="192.36"/></g></g></svg>