<svg xmlns="http://www.w3.org/2000/svg" xmlns:xlink="http://www.w3.org/1999/xlink" viewBox="0 0 729.89 428"><defs><style>.cls-1{fill:url(#radial-gradient);}.cls-2{fill:none;}</style><radialGradient id="radial-gradient" cx="29" cy="-543.39" r="607.47" gradientTransform="matrix(1, 0, 0, -1, 0, -428)" gradientUnits="userSpaceOnUse"><stop offset="0" stop-color="#df2123"/><stop offset="0.43" stop-color="#bf1c31"/><stop offset="0.82" stop-color="#3c096b"/><stop offset="1" stop-color="#000086"/></radialGradient></defs><title>BFC_logo</title><g id="Layer_2" data-name="Layer 2"><g id="Layer_1-2" data-name="Layer 1"><g id="Layer_2-2" data-name="Layer 2"><g id="Layer_1-2-2" data-name="Layer 1-2"><path class="cls-1" d="M108.1,253.52c-9.9,7.24-22.42,8.92-37.56,8.92H1.76v-1.79c9.16-.53,20.1-.33,21.6-2.3s2.28-8,2.28-38.31v-55.8c0-25.27-.85-32.82-2.35-34.8s-12.38-1.7-21.54-2.22v-1.81H67.32c15.4,0,27.85,2.28,37.34,7.79s14.25,14,14.25,25.6a25.44,25.44,0,0,1-8.37,19.63c-5.6,5.12-18.67,8.05-28.9,9.87,11.29,2,25.27,6.91,31.69,13.54s9.56,14.28,9.56,22.91Q122.89,242.66,108.1,253.52ZM67.32,128.19H36.62q-3.65,0-3.65,5.94v52.75H70.11c23.24,0,39.67-10.28,39.67-28.07C109.77,140.6,96.52,128.19,67.32,128.19Zm37,73.14c-6.32-6.17-19.58-10.83-30.21-10.83H33v63.23q0,5.94,3.65,5.94H70.5c12.75,0,27.15-5,33.6-11.13s9.67-14.11,9.67-23.81Q113.76,210.59,104.3,201.33Z"/><path class="cls-1" d="M169.27,190.92c2.5,2.34,4.66,3.52,6.44,3.52,4,0,5.87-1.81,5.87-5.7a7.45,7.45,0,0,0-2.65-5.76c-1.78-1.62-5.51-3-9.78-3a26.69,26.69,0,0,0-13.94,4c-4.16,2.59-7.37,6.4-10.6,10.23l-1.66,2V180.53h-2.74l-17.37,13v.53h3c2.42,0,6.6-5.26,9.2-3.51,1.57,1.05.93,8,.93,10.53v48.26c0,3.89-1.05,6.61-3,8.11s-5.11,2.27-10.13,2.8v1.05H156v-1.05c-5-.52-8.33-1.43-10.13-2.8-2-1.5-3-4.21-3-8.11V198.69l.15-.23c3.05-3.56,6.08-7.1,9.33-8.92a18.28,18.28,0,0,1,9.31-2.65C163.9,186.89,166.38,188.21,169.27,190.92Z"/><path class="cls-1" d="M219.32,180.53c-11.39,0-20.85,4-28.1,12s-11,18-11,29.75,3.64,21.82,11,29.8,16.71,12,28.1,12,20.85-4,28.1-12,10.91-18,10.91-29.8-3.7-21.79-11-29.77S230.72,180.53,219.32,180.53Zm29.77,61.9a27.37,27.37,0,0,1-18.57,18,28.17,28.17,0,0,1-25.62-5.2c-6.71-5.41-10.84-13.69-13.88-24.47s-4.21-20.45-1.47-28.6a27.37,27.37,0,0,1,18.56-18,28.17,28.17,0,0,1,25.62,5.2c6.71,5.41,10.84,13.69,13.88,24.47S251.88,234.27,249.1,242.43Z"/><path class="cls-1" d="M380.5,188.81a14.74,14.74,0,0,1,8.42-4.47v-1.12H357.63v1.05c8.7.65,14.45,4.71,14.45,10.12a26.25,26.25,0,0,1-2.22,9.33l-19,48.21L329.75,202c-2.21-5.79-3.3-9.42-3.3-11.11,0-4.21,4.76-6,12.73-6.6v-1.05h-35.9v1.05a18.06,18.06,0,0,1,8.83,2.79c2.34,1.64,5.18,5.8,7,9.48l.19.39-22.18,55.45-21-50.41c-2.11-5.18-3.16-8.7-3.16-10.75a6.17,6.17,0,0,1,3.25-5.66c1.87-1.05,5.58-1.05,9.84-1.31V183.2H252.34v1.05c4.11.58,7.08,1.95,8.84,4.09s4,6.65,6.71,13.63l23.41,59.38h4.82l24.66-61.19,23.77,61.19h5L373,202C375.75,195.62,378.19,191.31,380.5,188.81Z"/><path class="cls-1" d="M455,202.19v47.19c0,3.89-1.05,6.61-3,8.11s-5.11,2.27-10.12,2.8v1.05h32.86v-1.05c-5-.52-8.33-1.43-10.12-2.8-2-1.5-3-4.21-3-8.11V202a24.39,24.39,0,0,0-2.23-10.79c-1.46-3-4.21-5.11-6.64-6.59a24.22,24.22,0,0,0-7.16-3,29.53,29.53,0,0,0-7.46-1.05c-8.63,0-18,3-27.71,8.83l-1.43.86v-9.69H409l-20,13v.53h6.05c2.42,0,4.21.53,5.26,1.6s1.74,2.87,1.74,5.44v48.26c0,3.89-1.05,6.61-3,8.11s-5.11,2.27-10.13,2.8v1.05h33.17v-1.05c-5-.52-8.33-1.43-10.13-2.8-2-1.5-3-4.21-3-8.11V192.79l.42-.28c8.84-5.94,21-10,28.87-9.56C446.54,183.49,455,190.61,455,202.19Z"/><path class="cls-1" d="M596.63,254.53a4.07,4.07,0,0,1,5.55,0,3.62,3.62,0,0,1,1.18,2.78,4,4,0,1,1-7.91,0A3.62,3.62,0,0,1,596.63,254.53Z"/><path class="cls-1" d="M721.47,254.53a4.07,4.07,0,0,1,5.55,0,3.62,3.62,0,0,1,1.18,2.78,4,4,0,1,1-7.91,0A3.62,3.62,0,0,1,721.47,254.53Z"/><path class="cls-1" d="M716.43,165.83h-2.18c-11.95-31.66-28.94-39-51.21-39a44.58,44.58,0,0,0-36.29,18.35c-8.7,11.92-14.48,27.83-14.48,47.72s5.79,35.8,14.48,47.72,19.85,17.13,32.07,18c19,1.38,29.48-2.81,38.53-8.84a32.35,32.35,0,0,0,14.15-25.18l4.93,2.11c-6.68,23.16-26.1,34.74-53.87,34.74q-26.45,0-43.9-19.7t-17.44-48.86q0-29.08,17.45-48.78t43.9-19.74c14.63,0,30.64,4.39,40.7,12.82l-2.61-12.82h1.79Z"/><path class="cls-1" d="M576.14,127.19H543.78c-3.54,0-3.6,2.71-3.6,10.87v48.26h23.45q10.29,0,14.07-2.58c2.53-1.73,3.95-13.81,4.73-22.33h1.43v53.5h-1.43c-.78-8.52-2.21-20.6-4.73-22.33S570.49,190,563.63,190H540.18L540,239.55c0,8,.72,16.57,2.16,18.51s18.4,1.22,27.07,1.74v1.5H510.57v-1.5c8.93-.52,17.74.21,19.23-1.74S532,247.53,532,239.55l.23-93.52c0-8-.74-16-2.22-17.9s-12.08-2.11-21-2.57v-1.21H625.89l-.67,2.83A70.78,70.78,0,0,0,613,137.81h-3l5.65-6.82a2.33,2.33,0,0,0-1.79-3.8Z"/><path class="cls-1" d="M7.63,287c3.16,0,5,1.86,5,4.39a3.62,3.62,0,0,1-2.41,3.5,3.85,3.85,0,0,1,2.87,3.86c0,2.64-2,4.55-5,4.55H1.76V287Zm-.48,6.74a2,2,0,0,0,2.33-2c0-1.24-.8-2-2.35-2H4.92v4.07Zm.33,6.92c1.54,0,2.46-.8,2.46-2.11a2.11,2.11,0,0,0-2.41-2.18H4.92v4.3Z"/><path class="cls-1" d="M48.23,297H46.57v6.32H43.41V287h6.32a4.9,4.9,0,0,1,5.19,4.58q0,.22,0,.43a4.62,4.62,0,0,1-3.47,4.62l3.5,6.66H51.42Zm.92-2.74a2.28,2.28,0,1,0,0-4.53H46.57v4.53Z"/><path class="cls-1" d="M92.62,286.63a8.5,8.5,0,1,1-8.37,8.62s0-.08,0-.11a8.22,8.22,0,0,1,7.93-8.5Zm0,13.91a5.44,5.44,0,1,0-5.07-5.79q0,.18,0,.37a5,5,0,0,0,4.63,5.41h.46Z"/><path class="cls-1" d="M149.08,287h3.24l-4.51,16.31h-3.26l-3.73-11.58-3.73,11.58h-3.31L129.26,287h3.36l3,11.22L139.22,287h3.28l3.63,11.27Z"/><path class="cls-1" d="M192.62,303.28l-7.37-11.58v11.58h-3.16V287H186l6.78,10.78V287H196v16.31Z"/><path class="cls-1" d="M260.54,303.28V287h10.3v3h-7.13v4H270v2.92h-6.32v6.32Z"/><path class="cls-1" d="M301.06,303.28V287h3.22v16.31Z"/><path class="cls-1" d="M346.16,303.28l-7.37-11.58v11.58h-3.16V287h4l6.78,10.78V287h3.16v16.31Z"/><path class="cls-1" d="M390.52,299.55h-6.57l-1.36,3.73h-3.36L385.49,287h3.67l6.21,16.31h-3.45Zm-5.52-2.9h4.51l-2.25-6.16Z"/><path class="cls-1" d="M435.54,303.28l-7.37-11.58v11.58H425V287h4l6.78,10.78V287h3.16v16.31Z"/><path class="cls-1" d="M469.23,295.14a8.23,8.23,0,0,1,8-8.5h.34c4.51,0,6.83,2.76,7.48,5.4l-3,.95a4.21,4.21,0,0,0-4.49-3.28c-2.43,0-5,1.75-5,5.45a5,5,0,0,0,4.67,5.37h.38a4.53,4.53,0,0,0,4.58-3.34l3,.89a7.37,7.37,0,0,1-7.54,5.54,8.14,8.14,0,0,1-8.35-7.92Q469.22,295.42,469.23,295.14Z"/><path class="cls-1" d="M515.39,303.28V287H525.6v3h-7v3.73h6.32v2.83h-6.32v3.77h7v3Z"/><path class="cls-1" d="M588.67,295.14a8.23,8.23,0,0,1,8-8.5H597c4.51,0,6.83,2.76,7.48,5.4l-3,.95A4.21,4.21,0,0,0,597,289.7c-2.43,0-5,1.75-5,5.45a5,5,0,0,0,4.67,5.37H597a4.53,4.53,0,0,0,4.58-3.34l3,.89a7.37,7.37,0,0,1-7.54,5.54,8.14,8.14,0,0,1-8.35-7.92Q588.66,295.42,588.67,295.14Z"/><path class="cls-1" d="M634.79,303.28V287H638v13.27h7.26v3Z"/><path class="cls-1" d="M674.87,297.51V287H678v10.3c0,2.11,1.2,3.26,3.08,3.26a2.91,2.91,0,0,0,3.11-3.26V287h3.16v10.53c0,4-2.78,6.14-6.32,6.14S674.87,301.51,674.87,297.51Z"/><path class="cls-1" d="M724.41,287c3.16,0,5,1.86,5,4.39a3.62,3.62,0,0,1-2.37,3.5,3.85,3.85,0,0,1,2.87,3.86c0,2.64-2,4.55-5,4.55h-6.32V287Zm-.48,6.74a2,2,0,0,0,2.33-2c0-1.24-.8-2-2.35-2h-2.23v4.07Zm.33,6.92c1.54,0,2.46-.8,2.46-2.11a2.11,2.11,0,0,0-2.41-2.18h-2.62v4.3Z"/></g></g><rect class="cls-2" width="729.89" height="428"/></g></g></svg>