<svg xmlns="http://www.w3.org/2000/svg" xmlns:xlink="http://www.w3.org/1999/xlink" viewBox="0 0 691.57 170.29"><defs><style>.cls-1{fill:url(#radial-gradient);}</style><radialGradient id="radial-gradient" cx="25.87" cy="-8.51" r="576.97" gradientUnits="userSpaceOnUse"><stop offset="0" stop-color="#df2123"/><stop offset="0.43" stop-color="#bf1c31"/><stop offset="0.82" stop-color="#3c096b"/><stop offset="1" stop-color="#000086"/></radialGradient></defs><title>BFC_logo</title><g id="Layer_2" data-name="Layer 2"><g id="Layer_1-2" data-name="Layer 1"><path class="cls-1" d="M101,122.68c-9.4,6.88-21.29,8.47-35.67,8.47H0v-1.7c8.7-.5,19.09-.31,20.52-2.18s2.17-7.64,2.17-36.39v-53c0-24-.81-31.17-2.23-33.05S8.7,3.22,0,2.72V1H62.27C76.9,1,88.72,3.17,97.74,8.4s13.53,13.34,13.53,24.31a24.16,24.16,0,0,1-7.95,18.64C98,56.21,85.59,59,75.87,60.72c10.72,1.89,24,6.56,30.1,12.86s9.08,13.56,9.08,21.76Q115.05,112.37,101,122.68ZM62.27,3.64H33.11q-3.47,0-3.47,5.64v50.1H64.92c22.07,0,37.68-9.76,37.68-26.66C102.59,15.43,90,3.64,62.27,3.64ZM97.39,73.11c-6-5.86-18.6-10.29-28.69-10.29H29.64v60.06q0,5.64,3.47,5.64H65.29c12.11,0,25.79-4.71,31.91-10.57s9.18-13.4,9.18-22.61Q106.38,81.91,97.39,73.11Z"/><path class="cls-1" d="M159.1,63.22c2.37,2.22,4.43,3.34,6.12,3.34,3.81,0,5.58-1.72,5.58-5.41a7.08,7.08,0,0,0-2.52-5.47c-1.69-1.54-5.23-2.82-9.29-2.82a25.35,25.35,0,0,0-13.24,3.76c-3.95,2.46-7,6.08-10.07,9.72l-1.58,1.87V53.36h-2.6L115,65.72v.5h2.82c2.3,0,6.27-5,8.74-3.33,1.49,1,.88,7.58.88,10v45.84c0,3.69-1,6.28-2.82,7.7-1.7,1.29-4.85,2.16-9.62,2.66v1h31.54v-1c-4.76-.49-7.91-1.36-9.62-2.66-1.87-1.42-2.82-4-2.82-7.7V70.6l.14-.22c2.9-3.38,5.77-6.74,8.86-8.47a17.36,17.36,0,0,1,8.84-2.52C154,59.4,156.35,60.65,159.1,63.22Z"/><path class="cls-1" d="M206.64,53.36c-10.82,0-19.8,3.83-26.69,11.38S169.54,81.82,169.54,93,173,113.72,180,121.3s15.87,11.38,26.69,11.38,19.8-3.83,26.69-11.38S243.74,104.21,243.74,93s-3.51-20.7-10.42-28.28S217.46,53.36,206.64,53.36Zm28.28,58.79a26,26,0,0,1-17.64,17.08,26.76,26.76,0,0,1-24.33-4.94c-6.37-5.14-10.3-13-13.18-23.24s-4-19.42-1.4-27.16A26,26,0,0,1,196,56.81a26.76,26.76,0,0,1,24.33,4.94c6.37,5.14,10.3,13,13.18,23.24S237.56,104.4,234.92,112.15Z"/><path class="cls-1" d="M359.72,61.22a14,14,0,0,1,8-4.25V55.91H338v1c8.26.62,13.72,4.47,13.72,9.61a24.93,24.93,0,0,1-2.11,8.86l-18.09,45.79-20-47.44c-2.1-5.5-3.13-8.95-3.13-10.55,0-4,4.52-5.67,12.09-6.27v-1H286.38v1a17.15,17.15,0,0,1,8.39,2.65c2.22,1.56,4.92,5.51,6.68,9l.18.37-21.07,52.67L260.62,73.72c-2-4.92-3-8.26-3-10.21a5.86,5.86,0,0,1,3.09-5.38c1.78-1,5.3-1,9.35-1.24v-1H238v1c3.9.55,6.72,1.85,8.4,3.88s3.81,6.32,6.37,12.95L275,130.12h4.58L303,72l22.58,58.12h4.74l22.27-56.35C355.21,67.69,357.53,63.59,359.72,61.22Z"/><path class="cls-1" d="M430.53,73.93v44.82c0,3.69-1,6.28-2.83,7.7-1.7,1.29-4.85,2.16-9.61,2.66v1H449.3v-1c-4.76-.49-7.91-1.36-9.61-2.66-1.88-1.42-2.83-4-2.83-7.7v-45a23.17,23.17,0,0,0-2.12-10.25c-1.39-2.83-4-4.85-6.31-6.26a23,23,0,0,0-6.8-2.89,28.05,28.05,0,0,0-7.09-1c-8.2,0-17.08,2.82-26.32,8.39l-1.36.82V53.36h-.06l-19,12.36v.5h5.75c2.3,0,4,.5,5,1.52s1.65,2.73,1.65,5.17v45.84c0,3.69-1,6.28-2.82,7.7-1.7,1.29-4.85,2.16-9.62,2.66v1h31.5v-1c-4.76-.49-7.91-1.36-9.62-2.66-1.87-1.42-2.82-4-2.82-7.7V65l.4-.27c8.4-5.64,19.9-9.54,27.42-9.08C422.45,56.17,430.53,62.93,430.53,73.93Z"/><path class="cls-1" d="M565,123.64a3.87,3.87,0,0,1,5.27,0,3.44,3.44,0,0,1,1.12,2.64,3.76,3.76,0,1,1-7.51,0A3.44,3.44,0,0,1,565,123.64Z"/><path class="cls-1" d="M683.57,123.64a3.87,3.87,0,0,1,5.27,0,3.44,3.44,0,0,1,1.12,2.64,3.76,3.76,0,1,1-7.51,0A3.44,3.44,0,0,1,683.57,123.64Z"/><path class="cls-1" d="M678.79,39.39l-2.07,0C665.37,9.32,649.23,2.33,628.08,2.33a42.34,42.34,0,0,0-34.47,17.43c-8.26,11.32-13.75,26.43-13.75,45.32s5.5,34,13.75,45.32,18.85,16.27,30.46,17.12c18,1.31,28-2.67,36.6-8.4A30.73,30.73,0,0,0,674.11,95.2l4.68,2c-6.34,22-24.79,33-51.17,33q-25.12,0-41.7-18.71T569.36,65.08q0-27.62,16.57-46.33T627.63,0c13.9,0,29.1,4.17,38.66,12.18L663.81,0h1.7Z"/><path class="cls-1" d="M545.54,2.69H514.81c-3.36,0-3.42,2.57-3.42,10.32V58.85h22.27q9.77,0,13.36-2.45c2.4-1.64,3.75-13.12,4.49-21.21h1.36V86h-1.36c-.74-8.09-2.1-19.57-4.49-21.21s-6.85-2.46-13.36-2.46H511.39l-.22,47.08c0,7.62.68,15.74,2.05,17.58s17.48,1.16,25.71,1.65v1.42H483.26v-1.42c8.48-.49,16.85.2,18.26-1.65s2.11-10,2.11-17.58l.22-88.82c0-7.62-.7-15.2-2.11-17s-11.47-2-19.95-2.44V0h111l-.64,2.69a67.23,67.23,0,0,0-11.64,10.09h-2.82l5.37-6.48a2.21,2.21,0,0,0-1.7-3.61Z"/><path class="cls-1" d="M5.57,154.46c3,0,4.72,1.77,4.72,4.17A3.44,3.44,0,0,1,8,161.95a3.66,3.66,0,0,1,2.73,3.67c0,2.51-1.88,4.32-4.78,4.32H0V154.46Zm-.46,6.4a1.94,1.94,0,0,0,2.21-1.94c0-1.18-.76-1.92-2.23-1.92H3v3.87Zm.31,6.57c1.46,0,2.34-.76,2.34-2a2,2,0,0,0-2.29-2.07H3v4.08Z"/><path class="cls-1" d="M44.14,164H42.56v6h-3V154.46h6a4.65,4.65,0,0,1,4.94,4.76,4.39,4.39,0,0,1-3.3,4.39l3.32,6.33H47.17Zm.87-2.6a2.17,2.17,0,1,0,0-4.3H42.56v4.3Z"/><path class="cls-1" d="M86.3,154.13a8.07,8.07,0,1,1-7.95,8.08A7.81,7.81,0,0,1,86.3,154.13Zm0,13.21a5.17,5.17,0,1,0-4.83-5.15A4.78,4.78,0,0,0,86.3,167.34Z"/><path class="cls-1" d="M139.92,154.46H143l-4.28,15.49h-3.1l-3.54-11-3.54,11H125.4l-4.3-15.49h3.19l2.84,10.66,3.43-10.66h3.12l3.45,10.7Z"/><path class="cls-1" d="M181.28,169.94l-7-11v11h-3V154.46H175l6.44,10.24V154.46h3v15.49Z"/><path class="cls-1" d="M245.79,169.94V154.46h9.78v2.86H248.8v3.82h6v2.77h-6v6Z"/><path class="cls-1" d="M284.27,169.94V154.46h3.06v15.49Z"/><path class="cls-1" d="M327.11,169.94l-7-11v11h-3V154.46h3.76l6.44,10.24V154.46h3v15.49Z"/><path class="cls-1" d="M369.24,166.4H363l-1.29,3.54h-3.19l5.94-15.49h3.49l5.9,15.49h-3.28ZM364,163.65h4.28l-2.14-5.85Z"/><path class="cls-1" d="M412,169.94l-7-11v11h-3V154.46h3.76l6.44,10.24V154.46h3v15.49Z"/><path class="cls-1" d="M444,162.21a7.82,7.82,0,0,1,7.88-8.08c4.28,0,6.49,2.62,7.1,5.13l-2.84.9a4,4,0,0,0-4.26-3.12c-2.31,0-4.76,1.66-4.76,5.18a4.78,4.78,0,0,0,4.8,5.11,4.3,4.3,0,0,0,4.35-3.17l2.82.85a7,7,0,0,1-7.16,5.26A7.73,7.73,0,0,1,444,162.21Z"/><path class="cls-1" d="M487.84,169.94V154.46h9.7v2.84h-6.68v3.54h6v2.69h-6v3.58h6.68v2.84Z"/><path class="cls-1" d="M557.44,162.21a7.82,7.82,0,0,1,7.88-8.08c4.28,0,6.49,2.62,7.1,5.13l-2.84.9a4,4,0,0,0-4.26-3.12c-2.31,0-4.76,1.66-4.76,5.18a4.78,4.78,0,0,0,4.8,5.11,4.3,4.3,0,0,0,4.35-3.17l2.82.85a7,7,0,0,1-7.16,5.26A7.73,7.73,0,0,1,557.44,162.21Z"/><path class="cls-1" d="M601.25,169.94V154.46h3v12.6h6.9v2.88Z"/><path class="cls-1" d="M639.31,164.46v-10h3v9.78c0,2,1.14,3.1,2.93,3.1s2.95-1.07,2.95-3.1v-9.78h3v10c0,3.8-2.64,5.83-6,5.83S639.31,168.26,639.31,164.46Z"/><path class="cls-1" d="M686.37,154.46c3,0,4.72,1.77,4.72,4.17a3.44,3.44,0,0,1-2.25,3.32,3.66,3.66,0,0,1,2.73,3.67c0,2.51-1.88,4.32-4.78,4.32h-6V154.46Zm-.46,6.4a1.94,1.94,0,0,0,2.21-1.94c0-1.18-.76-1.92-2.23-1.92h-2.12v3.87Zm.31,6.57c1.46,0,2.34-.76,2.34-2a2,2,0,0,0-2.29-2.07h-2.49v4.08Z"/></g></g></svg>