<svg xmlns="http://www.w3.org/2000/svg" xmlns:xlink="http://www.w3.org/1999/xlink" viewBox="0 0 923 540.92"><defs><style>.cls-1{fill:url(#linear-gradient);}.cls-2{fill:url(#radial-gradient);}.cls-3{fill:#fff;}.cls-4{fill:url(#linear-gradient-2);}.cls-5{fill:url(#linear-gradient-3);}.cls-6{fill:url(#linear-gradient-4);}.cls-7{fill:url(#linear-gradient-6);}.cls-8{fill:url(#linear-gradient-7);}.cls-9{fill:url(#linear-gradient-9);}.cls-10{fill:url(#linear-gradient-10);}.cls-11{fill:url(#linear-gradient-11);}.cls-12{fill:url(#linear-gradient-25);}.cls-13{fill:url(#radial-gradient-2);}.cls-14{fill:url(#linear-gradient-27);}.cls-15{fill:url(#linear-gradient-28);}.cls-16{fill:url(#linear-gradient-29);}.cls-17,.cls-18{fill:none;stroke-miterlimit:10;}.cls-17{stroke:url(#linear-gradient-30);}.cls-18{stroke:#fff;}</style><linearGradient id="linear-gradient" y1="416.26" x2="923" y2="416.26" gradientUnits="userSpaceOnUse"><stop offset="0" stop-color="#df2123"/><stop offset="0.43" stop-color="#bf1c31"/><stop offset="0.82" stop-color="#3c096b"/><stop offset="1" stop-color="#000086"/></linearGradient><radialGradient id="radial-gradient" cx="43.63" cy="97.16" r="879.52" gradientTransform="translate(0 50.36) scale(1 0.48)" xlink:href="#linear-gradient"/><linearGradient id="linear-gradient-2" x1="207.61" y1="401.57" x2="451.11" y2="401.57" xlink:href="#linear-gradient"/><linearGradient id="linear-gradient-3" x1="207.61" y1="418.85" x2="451.11" y2="418.85" xlink:href="#linear-gradient"/><linearGradient id="linear-gradient-4" x1="207.61" y1="419.88" x2="451.11" y2="419.88" xlink:href="#linear-gradient"/><linearGradient id="linear-gradient-6" x1="207.61" y1="419.01" x2="451.11" y2="419.01" xlink:href="#linear-gradient"/><linearGradient id="linear-gradient-7" x1="207.61" y1="442.56" x2="451.11" y2="442.56" xlink:href="#linear-gradient"/><linearGradient id="linear-gradient-9" x1="207.61" y1="400.87" x2="451.11" y2="400.87" xlink:href="#linear-gradient"/><linearGradient id="linear-gradient-10" x1="207.61" y1="400.86" x2="451.11" y2="400.86" xlink:href="#linear-gradient"/><linearGradient id="linear-gradient-11" x1="78.5" y1="463.3" x2="536.51" y2="463.3" xlink:href="#linear-gradient"/><linearGradient id="linear-gradient-25" x1="78.5" y1="463.42" x2="536.51" y2="463.42" xlink:href="#linear-gradient"/><radialGradient id="radial-gradient-2" cx="43.63" cy="97.16" r="879.11" xlink:href="#linear-gradient"/><linearGradient id="linear-gradient-27" x1="689.62" y1="396.85" x2="859.71" y2="437.51" xlink:href="#linear-gradient"/><linearGradient id="linear-gradient-28" x1="693.47" y1="380.75" x2="863.56" y2="421.41" xlink:href="#linear-gradient"/><linearGradient id="linear-gradient-29" x1="685.12" y1="415.68" x2="855.21" y2="456.34" xlink:href="#linear-gradient"/><linearGradient id="linear-gradient-30" x1="617.98" y1="409.41" x2="675.3" y2="423.12" xlink:href="#linear-gradient"/></defs><title>BFC_logo_var</title><g id="Layer_2" data-name="Layer 2"><g id="Layer_1-2" data-name="Layer 1"><path class="cls-1" d="M922,292.61V539.92H1V292.61H922m1-1H0V540.92H923V291.61Z"/><rect class="cls-2" width="646.64" height="249.32"/><path class="cls-3" d="M146.69,148.45c-6.39,4.68-14.48,5.76-24.26,5.76H78v-1.16c5.92-.34,13-.21,14-1.48s1.47-5.2,1.47-24.75v-36c0-16.31-.55-21.2-1.52-22.48s-8-1.1-13.91-1.44V65.73h42.35c10,0,18,1.44,24.13,5s9.2,9.07,9.2,16.54a16.43,16.43,0,0,1-5.4,12.67c-3.6,3.3-12.06,5.17-18.67,6.37,7.29,1.29,16.35,4.46,20.47,8.75a20.75,20.75,0,0,1,6.18,14.8Q156.27,141.44,146.69,148.45Zm-26.32-81H100.54q-2.36,0-2.36,3.84V105.4h24c15,0,25.62-6.64,25.62-18.13C147.8,75.51,139.21,67.49,120.37,67.49Zm23.89,47.25c-4.08-4-12.65-7-19.51-7H98.18v40.85q0,3.83,2.36,3.83h21.89c8.24,0,17.54-3.2,21.7-7.19a20.36,20.36,0,0,0,6.24-15.38A20.27,20.27,0,0,0,144.26,114.74Z"/><path class="cls-3" d="M186.23,108c1.61,1.51,3,2.27,4.16,2.27,2.59,0,3.79-1.17,3.79-3.68a4.81,4.81,0,0,0-1.71-3.72,10,10,0,0,0-6.32-1.92,17.24,17.24,0,0,0-9,2.55c-2.68,1.67-4.75,4.13-6.85,6.61l-1.08,1.27V101.3h-1.77l-11.22,8.41V110h1.92c1.57,0,4.26-3.42,5.94-2.26,1,.7.6,5.15.6,6.81v31.18c0,2.51-.65,4.27-1.92,5.24s-3.3,1.47-6.54,1.81v.69h21.45v-.69c-3.24-.33-5.38-.93-6.54-1.81s-1.92-2.73-1.92-5.24V113l.09-.15c2-2.3,3.93-4.58,6-5.76a11.81,11.81,0,0,1,6-1.71C182.76,105.41,184.36,106.26,186.23,108Z"/><path class="cls-3" d="M218.56,101.3A23.56,23.56,0,0,0,200.41,109c-4.7,5.15-7.08,11.62-7.08,19.23s2.38,14.08,7.08,19.23a25.15,25.15,0,0,0,36.3,0c4.7-5.15,7.08-11.62,7.08-19.23s-2.38-14.08-7.08-19.23A23.56,23.56,0,0,0,218.56,101.3Zm19.23,40a17.69,17.69,0,0,1-12,11.62,18.2,18.2,0,0,1-16.55-3.36c-4.33-3.5-7-8.81-9-15.8s-2.75-13.2-1-18.47a17.68,17.68,0,0,1,12-11.62A18.2,18.2,0,0,1,227.88,107c4.33,3.5,7,8.81,9,15.8S239.59,136,237.79,141.29Z"/><path class="cls-3" d="M322.67,106.65a9.5,9.5,0,0,1,5.46-2.89V103H307.91v.67c5.61.42,9.33,3,9.33,6.54a17,17,0,0,1-1.43,6l-12.3,31.14-13.58-32.26c-1.43-3.74-2.13-6.09-2.13-7.17,0-2.74,3.07-3.86,8.23-4.26V103H272.79v.68a11.66,11.66,0,0,1,5.71,1.8c1.51,1.06,3.34,3.75,4.54,6.15l.13.25-14.33,35.82-13.56-32.59c-1.35-3.34-2-5.62-2-6.95a4,4,0,0,1,2.1-3.66c1.21-.7,3.6-.66,6.36-.84V103H239.88v.7c2.65.37,4.57,1.26,5.71,2.64s2.59,4.3,4.33,8.8l15.14,38.32h3.11l16-39.53,15.36,39.53h3.22l15.15-38.32C319.61,111.05,321.18,108.26,322.67,106.65Z"/><path class="cls-3" d="M370.83,115.3v30.48c0,2.51-.65,4.27-1.92,5.24s-3.3,1.47-6.54,1.81v.69H383.6v-.69c-3.24-.33-5.38-.93-6.54-1.81s-1.92-2.73-1.92-5.24v-30.6a15.75,15.75,0,0,0-1.44-7,11.13,11.13,0,0,0-4.29-4.26,15.63,15.63,0,0,0-4.62-2,19.08,19.08,0,0,0-4.82-.67c-5.58,0-11.61,1.92-17.9,5.71l-.93.56V101.3h0l-12.92,8.41V110h3.91a4.83,4.83,0,0,1,3.43,1,4.61,4.61,0,0,1,1.12,3.52v31.18c0,2.51-.65,4.27-1.92,5.24s-3.3,1.47-6.54,1.81v.69h21.42v-.69c-3.24-.33-5.38-.93-6.54-1.81s-1.92-2.73-1.92-5.24V109.24l.27-.18c5.72-3.84,13.53-6.49,18.65-6.17C365.34,103.22,370.83,107.82,370.83,115.3Z"/><path class="cls-3" d="M462.26,149.1a2.63,2.63,0,0,1,3.59,0,2.34,2.34,0,0,1,.76,1.79,2.56,2.56,0,1,1-5.11,0A2.34,2.34,0,0,1,462.26,149.1Z"/><path class="cls-3" d="M542.92,149.1a2.63,2.63,0,0,1,3.59,0,2.34,2.34,0,0,1,.76,1.79,2.56,2.56,0,1,1-5.11,0A2.34,2.34,0,0,1,542.92,149.1Z"/><path class="cls-3" d="M539.68,91.81l-1.41,0c-7.72-20.47-18.7-25.23-33.08-25.23a28.79,28.79,0,0,0-23.44,11.86c-5.62,7.7-9.35,18-9.35,30.82s3.74,23.12,9.35,30.82a27,27,0,0,0,20.72,11.64c12.26.89,19-1.81,24.89-5.72a20.9,20.9,0,0,0,9.14-16.27l3.19,1.33c-4.31,14.95-16.86,22.42-34.8,22.42a36.27,36.27,0,0,1-28.36-12.72q-11.27-12.72-11.27-31.51t11.27-31.51A36.27,36.27,0,0,1,504.88,65c9.45,0,19.79,2.84,26.29,8.28L529.49,65h1.15Z"/><path class="cls-3" d="M449.05,66.85h-20.9c-2.28,0-2.32,1.75-2.32,7V105H441q6.64,0,9.09-1.67c1.63-1.11,2.55-8.93,3.05-14.42H454v34.59h-.92c-.5-5.5-1.42-13.31-3.05-14.42s-4.66-1.67-9.09-1.67H425.83l-.15,32c0,5.18.47,10.7,1.39,12s11.89.79,17.49,1.12v1H406.7v-1c5.77-.33,11.46.13,12.42-1.12s1.43-6.78,1.43-12l.15-60.41c0-5.18-.48-10.34-1.43-11.59s-7.8-1.33-13.57-1.66V65h75.5l-.43,1.83a45.73,45.73,0,0,0-7.92,6.86h-1.92l3.65-4.4a1.5,1.5,0,0,0-1.15-2.46Z"/><path class="cls-3" d="M80.7,166.36c2.05,0,3.21,1.2,3.21,2.84a2.34,2.34,0,0,1-1.53,2.26,2.49,2.49,0,0,1,1.86,2.5A3,3,0,0,1,81,176.89H76.91V166.36Zm-.31,4.35a1.32,1.32,0,0,0,1.5-1.32c0-.8-.52-1.31-1.51-1.31H78.93v2.63Zm.21,4.47c1,0,1.59-.52,1.59-1.37a1.37,1.37,0,0,0-1.56-1.41H78.93v2.78Z"/><path class="cls-3" d="M106.93,172.83h-1.07v4.06H103.8V166.36h4.11a3.16,3.16,0,0,1,3.36,3.24,3,3,0,0,1-2.24,3l2.26,4.31H109Zm.59-1.77a1.47,1.47,0,1,0,0-2.93h-1.66v2.93Z"/><path class="cls-3" d="M135.61,166.13a5.49,5.49,0,1,1-5.41,5.5A5.31,5.31,0,0,1,135.61,166.13Zm0,9a3.51,3.51,0,1,0-3.28-3.51A3.25,3.25,0,0,0,135.61,175.12Z"/><path class="cls-3" d="M172.08,166.36h2.09l-2.91,10.53h-2.11l-2.41-7.5-2.41,7.5H162.2l-2.93-10.53h2.17l1.93,7.25,2.33-7.25h2.12l2.35,7.28Z"/><path class="cls-3" d="M200.21,176.89l-4.78-7.47v7.47h-2.05V166.36h2.55l4.38,7v-7h2.05v10.53Z"/><path class="cls-3" d="M244.08,176.89V166.36h6.65v1.95h-4.6v2.6h4.1v1.89h-4.08v4.1Z"/><path class="cls-3" d="M270.25,176.89V166.36h2.08v10.53Z"/><path class="cls-3" d="M299.39,176.89l-4.78-7.47v7.47h-2.05V166.36h2.55l4.38,7v-7h2.05v10.53Z"/><path class="cls-3" d="M328,174.48h-4.28l-.88,2.41h-2.17l4-10.53h2.38l4,10.53h-2.23Zm-3.59-1.87h2.91l-1.46-4Z"/><path class="cls-3" d="M357.16,176.89l-4.78-7.47v7.47h-2.05V166.36h2.55l4.38,7v-7h2.05v10.53Z"/><path class="cls-3" d="M378.91,171.63a5.32,5.32,0,0,1,5.36-5.5,4.64,4.64,0,0,1,4.83,3.49l-1.93.61a2.75,2.75,0,0,0-2.9-2.12,3.51,3.51,0,0,0,0,7,2.93,2.93,0,0,0,3-2.15l1.92.58a4.79,4.79,0,0,1-4.87,3.58A5.26,5.26,0,0,1,378.91,171.63Z"/><path class="cls-3" d="M408.71,176.89V166.36h6.6v1.93h-4.55v2.41h4.11v1.83h-4.11V175h4.55v1.93Z"/><path class="cls-3" d="M456,171.63a5.32,5.32,0,0,1,5.36-5.5,4.64,4.64,0,0,1,4.83,3.49l-1.93.61a2.75,2.75,0,0,0-2.9-2.12,3.51,3.51,0,0,0,0,7,2.93,2.93,0,0,0,3-2.15l1.92.58a4.79,4.79,0,0,1-4.87,3.58A5.26,5.26,0,0,1,456,171.63Z"/><path class="cls-3" d="M485.84,176.89V166.36h2.05v8.57h4.69v2Z"/><path class="cls-3" d="M511.73,173.16v-6.8h2.05V173a2,2,0,1,0,4,0v-6.65h2.05v6.8a4,4,0,0,1-8.1,0Z"/><path class="cls-3" d="M543.74,166.36c2.05,0,3.21,1.2,3.21,2.84a2.34,2.34,0,0,1-1.53,2.26,2.49,2.49,0,0,1,1.86,2.5,3,3,0,0,1-3.25,2.94h-4.07V166.36Zm-.31,4.35a1.32,1.32,0,0,0,1.5-1.32c0-.8-.52-1.31-1.52-1.31H542v2.63Zm.21,4.47c1,0,1.59-.52,1.59-1.37a1.37,1.37,0,0,0-1.56-1.41H542v2.78Z"/><path class="cls-4" d="M146.69,440.06c-6.39,4.68-14.48,5.76-24.26,5.76H78v-1.16c5.92-.34,13-.21,14-1.48s1.47-5.2,1.47-24.75v-36c0-16.31-.55-21.2-1.52-22.48s-8-1.1-13.91-1.44v-1.14h42.35c10,0,18,1.44,24.13,5s9.2,9.07,9.2,16.54a16.43,16.43,0,0,1-5.4,12.67c-3.6,3.3-12.06,5.17-18.67,6.37,7.29,1.29,16.35,4.46,20.47,8.75a20.75,20.75,0,0,1,6.18,14.8Q156.27,433,146.69,440.06Zm-26.32-81H100.54q-2.36,0-2.36,3.84V397h24c15,0,25.62-6.64,25.62-18.13C147.8,367.12,139.21,359.1,120.37,359.1Zm23.89,47.25c-4.08-4-12.65-7-19.51-7H98.18V440.2q0,3.83,2.36,3.83h21.89c8.24,0,17.54-3.2,21.7-7.19a21.91,21.91,0,0,0,.13-30.5Z"/><path class="cls-5" d="M186.23,399.62c1.61,1.51,3,2.27,4.16,2.27,2.59,0,3.79-1.17,3.79-3.68a4.81,4.81,0,0,0-1.71-3.72,10,10,0,0,0-6.32-1.92,17.24,17.24,0,0,0-9,2.55c-2.68,1.67-4.75,4.13-6.85,6.61L169.22,403V392.91h-1.77l-11.22,8.41v.34h1.92c1.57,0,4.26-3.42,5.94-2.26,1,.7.6,5.15.6,6.81v31.18c0,2.51-.65,4.27-1.92,5.24s-3.3,1.47-6.54,1.81v.69h21.45v-.69c-3.24-.33-5.38-.93-6.54-1.81s-1.92-2.73-1.92-5.24V404.64l.09-.15c2-2.3,3.93-4.58,6-5.76a11.81,11.81,0,0,1,6-1.71C182.76,397,184.36,397.87,186.23,399.62Z"/><path class="cls-6" d="M218.56,392.91a23.56,23.56,0,0,0-18.15,7.74c-4.7,5.15-7.08,11.62-7.08,19.23s2.38,14.08,7.08,19.23a25.15,25.15,0,0,0,36.3,0c4.7-5.15,7.08-11.62,7.08-19.23s-2.38-14.08-7.08-19.23A23.56,23.56,0,0,0,218.56,392.91Zm19.23,40a17.69,17.69,0,0,1-12,11.62,18.2,18.2,0,0,1-16.55-3.36c-4.33-3.5-7-8.81-9-15.8s-2.75-13.2-1-18.47a17.68,17.68,0,0,1,12-11.62,18.2,18.2,0,0,1,16.55,3.36c4.33,3.5,7,8.81,9,15.8S239.59,427.63,237.79,432.89Z"/><path class="cls-6" d="M322.67,398.26a9.5,9.5,0,0,1,5.46-2.89v-.72H307.91v.67c5.61.42,9.33,3,9.33,6.54a17,17,0,0,1-1.43,6L303.5,439l-13.58-32.26c-1.43-3.74-2.13-6.09-2.13-7.17,0-2.74,3.07-3.86,8.23-4.26v-.67H272.79v.68a11.66,11.66,0,0,1,5.71,1.8c1.51,1.06,3.34,3.75,4.54,6.15l.13.25-14.33,35.82-13.56-32.59c-1.35-3.34-2-5.62-2-6.95a4,4,0,0,1,2.1-3.66c1.21-.7,3.6-.66,6.36-.84v-.67H239.88v.7c2.65.37,4.57,1.26,5.71,2.64s2.59,4.3,4.33,8.8l15.14,38.32h3.11l16-39.53,15.36,39.53h3.22l15.15-38.32C319.61,402.66,321.18,399.87,322.67,398.26Z"/><path class="cls-7" d="M370.83,406.9v30.48c0,2.51-.65,4.27-1.92,5.24s-3.3,1.47-6.54,1.81v.69H383.6v-.69c-3.24-.33-5.38-.93-6.54-1.81s-1.92-2.73-1.92-5.24v-30.6a15.75,15.75,0,0,0-1.44-7,11.13,11.13,0,0,0-4.29-4.26,15.63,15.63,0,0,0-4.62-2,19.08,19.08,0,0,0-4.82-.67c-5.58,0-11.61,1.92-17.9,5.71l-.93.56v-6.27h0l-12.92,8.41v.34h3.91a4.83,4.83,0,0,1,3.43,1,4.61,4.61,0,0,1,1.12,3.52v31.18c0,2.51-.65,4.27-1.92,5.24s-3.3,1.47-6.54,1.81v.69h21.42v-.69c-3.24-.33-5.38-.93-6.54-1.81s-1.92-2.73-1.92-5.24V400.85l.27-.18c5.72-3.84,13.53-6.49,18.65-6.17C365.34,394.82,370.83,399.42,370.83,406.9Z"/><path class="cls-8" d="M462.26,440.71a2.63,2.63,0,0,1,3.59,0,2.34,2.34,0,0,1,.76,1.79,2.56,2.56,0,1,1-5.11,0A2.34,2.34,0,0,1,462.26,440.71Z"/><path class="cls-8" d="M542.92,440.71a2.63,2.63,0,0,1,3.59,0,2.34,2.34,0,0,1,.76,1.79,2.56,2.56,0,1,1-5.11,0A2.34,2.34,0,0,1,542.92,440.71Z"/><path class="cls-9" d="M539.68,383.41l-1.41,0c-7.72-20.47-18.7-25.23-33.08-25.23a28.79,28.79,0,0,0-23.44,11.86c-5.62,7.7-9.35,18-9.35,30.82s3.74,23.12,9.35,30.82a27,27,0,0,0,20.72,11.64c12.26.89,19-1.81,24.89-5.72a20.9,20.9,0,0,0,9.14-16.27l3.19,1.33c-4.31,14.95-16.86,22.42-34.8,22.42a36.27,36.27,0,0,1-28.36-12.72q-11.27-12.72-11.27-31.51t11.27-31.51a36.27,36.27,0,0,1,28.36-12.73c9.45,0,19.79,2.84,26.29,8.28l-1.68-8.31h1.15Z"/><path class="cls-10" d="M449.05,358.45h-20.9c-2.28,0-2.32,1.75-2.32,7v31.17H441q6.64,0,9.09-1.67c1.63-1.11,2.55-8.93,3.05-14.42H454v34.59h-.92c-.5-5.5-1.42-13.31-3.05-14.42S445.4,399,441,399H425.83l-.15,32c0,5.18.47,10.7,1.39,12s11.89.79,17.49,1.12v1H406.7v-1c5.77-.33,11.46.13,12.42-1.12s1.43-6.78,1.43-12l.15-60.41c0-5.18-.48-10.34-1.43-11.59s-7.8-1.33-13.57-1.66v-.78h75.5l-.43,1.83a45.73,45.73,0,0,0-7.92,6.86h-1.92l3.65-4.4a1.5,1.5,0,0,0-1.15-2.46Z"/><path class="cls-11" d="M81.81,458c2.05,0,3.21,1.2,3.21,2.84a2.34,2.34,0,0,1-1.53,2.26,2.49,2.49,0,0,1,1.86,2.5,3,3,0,0,1-3.25,2.94H78V458Zm-.31,4.35a1.32,1.32,0,0,0,1.5-1.32c0-.8-.52-1.31-1.51-1.31H80v2.63Zm.21,4.47c1,0,1.59-.52,1.59-1.37a1.37,1.37,0,0,0-1.56-1.41H80v2.78Z"/><path class="cls-11" d="M108,464.51H107v4.06h-2.06V458H109a3.16,3.16,0,0,1,3.36,3.24,3,3,0,0,1-2.24,3l2.26,4.31h-2.29Zm.59-1.77a1.47,1.47,0,1,0,0-2.93H107v2.93Z"/><path class="cls-11" d="M136.72,457.81a5.49,5.49,0,1,1-5.41,5.5A5.31,5.31,0,0,1,136.72,457.81Zm0,9a3.51,3.51,0,1,0-3.28-3.51A3.25,3.25,0,0,0,136.72,466.8Z"/><path class="cls-11" d="M173.19,458h2.09l-2.91,10.53h-2.11l-2.41-7.5-2.41,7.5h-2.14L160.38,458h2.17l1.93,7.25,2.33-7.25h2.12l2.35,7.28Z"/><path class="cls-11" d="M201.32,468.57l-4.78-7.47v7.47h-2.05V458H197l4.38,7v-7h2.05v10.53Z"/><path class="cls-11" d="M245.19,468.57V458h6.65V460h-4.6v2.6h4.1v1.89h-4.08v4.1Z"/><path class="cls-11" d="M271.36,468.57V458h2.08v10.53Z"/><path class="cls-11" d="M300.51,468.57l-4.78-7.47v7.47h-2.05V458h2.55l4.38,7v-7h2.05v10.53Z"/><path class="cls-11" d="M329.16,466.16h-4.28l-.88,2.41h-2.17l4-10.53h2.38l4,10.53H330Zm-3.59-1.87h2.91l-1.46-4Z"/><path class="cls-11" d="M358.27,468.57l-4.78-7.47v7.47h-2.05V458H354l4.38,7v-7h2.05v10.53Z"/><path class="cls-11" d="M380,463.31a5.32,5.32,0,0,1,5.36-5.5,4.64,4.64,0,0,1,4.83,3.49l-1.93.61a2.75,2.75,0,0,0-2.9-2.12,3.51,3.51,0,0,0,0,7,2.93,2.93,0,0,0,3-2.15l1.92.58a4.79,4.79,0,0,1-4.87,3.58A5.26,5.26,0,0,1,380,463.31Z"/><path class="cls-11" d="M409.82,468.57V458h6.6V460h-4.55v2.41H416v1.83h-4.11v2.44h4.55v1.93Z"/><path class="cls-11" d="M457.16,463.31a5.32,5.32,0,0,1,5.36-5.5,4.64,4.64,0,0,1,4.83,3.49l-1.93.61a2.75,2.75,0,0,0-2.9-2.12,3.51,3.51,0,0,0,0,7,2.93,2.93,0,0,0,3-2.15l1.92.58a4.79,4.79,0,0,1-4.87,3.58A5.26,5.26,0,0,1,457.16,463.31Z"/><path class="cls-11" d="M487,468.57V458H489v8.57h4.69v2Z"/><path class="cls-12" d="M512.84,464.84V458h2.05v6.65a2,2,0,1,0,4,0V458h2.05v6.8a4,4,0,0,1-8.1,0Z"/><path class="cls-11" d="M544.85,458c2.05,0,3.21,1.2,3.21,2.84a2.34,2.34,0,0,1-1.53,2.26,2.49,2.49,0,0,1,1.86,2.5,3,3,0,0,1-3.25,2.94h-4.07V458Zm-.31,4.35a1.32,1.32,0,0,0,1.5-1.32c0-.8-.52-1.31-1.52-1.31h-1.44v2.63Zm.21,4.47c1,0,1.59-.52,1.59-1.37a1.37,1.37,0,0,0-1.56-1.41h-1.69v2.78Z"/><rect class="cls-13" x="646.64" width="276.36" height="249.32"/><path class="cls-3" d="M796,87.05h-20.9c-2.28,0-2.32,1.75-2.32,7v31.17H788q6.64,0,9.09-1.67c1.63-1.11,2.55-8.93,3.05-14.42H801v34.59h-.92c-.5-5.5-1.42-13.31-3.05-14.42s-4.66-1.67-9.09-1.67H772.81l-.15,32c0,5.18.47,10.7,1.39,12s11.89.79,17.49,1.12v1H753.68v-1c5.77-.33,11.46.13,12.42-1.12s1.43-6.78,1.43-12l.15-60.41c0-5.18-.48-10.34-1.43-11.59s-7.8-1.33-13.57-1.66v-.78h75.5l-.43,1.83a45.73,45.73,0,0,0-7.92,6.86h-1.92l3.65-4.4A1.5,1.5,0,0,0,820.41,87Z"/><path class="cls-3" d="M886.55,112l-1.41,0c-7.72-20.47-18.7-25.23-33.08-25.23a28.79,28.79,0,0,0-23.44,11.86c-5.62,7.7-9.35,18-9.35,30.82s3.74,23.12,9.35,30.82,14.83,11.28,22.72,11.85c12.26.89,17-2,22.89-5.92A20.9,20.9,0,0,0,883.37,150l3.19,1.33c-4.31,14.95-16.86,22.42-34.8,22.42A36.27,36.27,0,0,1,823.4,161q-11.27-12.72-11.27-31.51T823.4,98a36.27,36.27,0,0,1,28.36-12.73c9.45,0,19.79,2.84,26.29,8.28l-1.68-8.31h1.15Z"/><path class="cls-3" d="M750.79,167.95c-6.39,4.68-14.48,5.76-24.26,5.76H682.13v-1.16c5.92-.34,13-.21,14-1.48s1.47-5.2,1.47-24.75v-36c0-16.31-.55-21.2-1.52-22.48s-8-1.1-13.91-1.44V85.22h42.35c10,0,18,1.44,24.13,5s9.2,9.07,9.2,16.54a16.43,16.43,0,0,1-5.4,12.67c-3.6,3.3-12.06,5.17-18.67,6.37,7.29,1.29,16.35,4.46,20.47,8.75a20.75,20.75,0,0,1,6.18,14.8Q760.38,160.93,750.79,167.95ZM724.48,87H704.65q-2.36,0-2.36,3.84v34.07h24c15,0,25.62-6.64,25.62-18.13C751.9,95,743.31,87,724.48,87Zm23.89,47.25c-4.08-4-12.65-7-19.51-7H702.29v40.85q0,3.83,2.36,3.83h21.89c8.24,0,17.54-3.2,21.7-7.19a21.91,21.91,0,0,0,.13-30.5Z"/><path class="cls-14" d="M796,378.66h-20.9c-2.28,0-2.32,1.75-2.32,7v31.17H788q6.64,0,9.09-1.67c1.63-1.11,2.55-8.93,3.05-14.42H801v34.59h-.92c-.5-5.5-1.42-13.31-3.05-14.42s-4.66-1.67-9.09-1.67H772.81l-.15,32c0,5.18.47,10.7,1.39,12s11.89.79,17.49,1.12v1H753.68v-1c5.77-.33,11.46.13,12.42-1.12s1.43-6.78,1.43-12l.15-60.41c0-5.18-.48-10.34-1.43-11.59s-7.8-1.33-13.57-1.66v-.78h75.5l-.43,1.83a45.73,45.73,0,0,0-7.92,6.86h-1.92l3.65-4.4a1.5,1.5,0,0,0-1.15-2.46Z"/><path class="cls-15" d="M886.55,403.62l-1.41,0c-7.72-20.47-18.7-25.23-33.08-25.23a28.79,28.79,0,0,0-23.44,11.86c-5.62,7.7-9.35,18-9.35,30.82s3.74,23.12,9.35,30.82,14.83,11.28,22.72,11.85c12.26.89,17-2,22.89-5.92a20.9,20.9,0,0,0,9.14-16.27l3.19,1.33c-4.31,14.95-16.86,22.42-34.8,22.42a36.27,36.27,0,0,1-28.36-12.72q-11.27-12.72-11.27-31.51t11.27-31.51a36.27,36.27,0,0,1,28.36-12.73c9.45,0,19.79,2.84,26.29,8.28l-1.68-8.31h1.15Z"/><path class="cls-16" d="M750.79,459.55c-6.39,4.68-14.48,5.76-24.26,5.76H682.13v-1.16c5.92-.34,13-.21,14-1.48s1.47-5.2,1.47-24.75v-36c0-16.31-.55-21.2-1.52-22.48s-8-1.1-13.91-1.44v-1.14h42.35c10,0,18,1.44,24.13,5s9.2,9.07,9.2,16.54A16.43,16.43,0,0,1,752.4,411c-3.6,3.3-12.06,5.17-18.67,6.37,7.29,1.29,16.35,4.46,20.47,8.75a20.75,20.75,0,0,1,6.18,14.8Q760.38,452.54,750.79,459.55Zm-26.32-81H704.65q-2.36,0-2.36,3.84V416.5h24c15,0,25.62-6.64,25.62-18.13C751.9,386.61,743.31,378.59,724.48,378.59Zm23.89,47.25c-4.08-4-12.65-7-19.51-7H702.29v40.85q0,3.83,2.36,3.83h21.89c8.24,0,17.54-3.2,21.7-7.19a21.91,21.91,0,0,0,.13-30.5Z"/><line class="cls-17" x1="646.64" y1="540.92" x2="646.64" y2="291.61"/><line class="cls-18" x1="646.64" y1="249.32" x2="646.64"/></g></g></svg>