<svg xmlns="http://www.w3.org/2000/svg" viewBox="0 0 751.18 429.21"><defs><style>.cls-1{font-size:104.48px;font-family:NHaasGroteskDSPro-95Blk, Neue Haas Grotesk Display Pro;letter-spacing:-0.08em;}.cls-2{letter-spacing:-0.02em;}.cls-3{letter-spacing:-0.06em;}.cls-4{letter-spacing:0em;}.cls-5{letter-spacing:-0.05em;}.cls-6{letter-spacing:-0.09em;}.cls-7{letter-spacing:-0.02em;}.cls-8{letter-spacing:-0.01em;}.cls-9{letter-spacing:-0.03em;}.cls-10{fill:#e84128;}.cls-11{fill:none;}</style></defs><title>collab_wvf_logo_1</title><g id="Layer_2" data-name="Layer 2"><g id="Layer_1-2" data-name="Layer 1"><text class="cls-1" transform="translate(105.09 160.66)">W<tspan class="cls-2" x="92.36" y="0">or</tspan><tspan class="cls-3" x="193.49" y="0">k</tspan><tspan class="cls-2" x="247.2" y="0">e</tspan><tspan class="cls-4" x="305.7" y="0">r</tspan><tspan class="cls-5" x="349.48" y="0">’</tspan><tspan class="cls-2" x="368.7" y="0">s</tspan><tspan class="cls-6"><tspan x="0" y="94.03">V</tspan><tspan class="cls-7" x="61.96" y="94.03">o</tspan><tspan class="cls-8" x="120.36" y="94.03">ting</tspan></tspan><tspan class="cls-9"><tspan x="0" y="188.06">F</tspan><tspan class="cls-2" x="60.08" y="188.06">und</tspan></tspan></text><path class="cls-10" d="M553.35,271.37v53.18c0,.14.06.37-.16.3H447.31c-.14,0-.1-.1-.1-.19V218.73a3.83,3.83,0,0,1,.57,0H498v20.8l44.36-25.62,12.08-7-12.08-7L498,174.31v20.8H423.65s0,0,0,0V348.43s0,0,.06,0H576.91s0,0,0,0v-77Z"/><path class="cls-10" d="M454.16,265.61l23.31,23.31L491.59,303l7.06,7.06,1.76,1.76.44.44.22.22.06.06s0,0,.05,0l.1-.12.83-.93,3.31-3.74,46-52.05,83.15-90.21,15.59,13.78,12.95-63.88-61.8,20.7,15.59,13.78-83.15,90.21L502.08,275.9l-1.55,1.75-.39.44c-.06.13-.13,0-.2-.06l-.21-.21-.83-.83-3.31-3.31L489,267.08l-18.15-18.15Z"/><rect class="cls-11" width="751.18" height="429.21"/></g></g></svg>