<svg xmlns="http://www.w3.org/2000/svg" viewBox="0 0 840.47 559.34"><defs><style>.cls-1{fill:none;}.cls-2{fill:#0a0000;}</style></defs><title>collab_logo_p_2</title><g id="Layer_2" data-name="Layer 2"><g id="Layer_1-2" data-name="Layer 1"><rect class="cls-1" width="840.47" height="559.34"/><path class="cls-2" d="M484.39,445.34a33.52,33.52,0,1,0,33.52,33.52A33.52,33.52,0,0,0,484.39,445.34Zm13.17,61.77c-11.92,5.56-27.49-2.58-34.76-18.18s-3.51-32.76,8.42-38.32,27.49,2.58,34.76,18.18S509.49,501.54,497.57,507.1Z"/><path class="cls-2" d="M450.88,428.64v-14.4l-5.71,5.71a51.43,51.43,0,0,0-82.49,41c0,31.83,23,51.43,51.43,51.43a51.27,51.27,0,0,0,36.36-15.06l-3.32-1.88a32.73,32.73,0,0,1-12.29,10c-19.72,9.2-45-3.27-56.46-27.84s-4.76-52,15-61.15c16-7.45,38-2.66,57.4,28.12Z"/><polygon class="cls-2" points="531.02 409.51 515.41 418.14 523.2 418.14 523.2 504.93 515.41 512.37 523.2 512.37 538.15 512.37 531.02 505.02 531.02 409.51"/><polygon class="cls-2" points="556.23 409.51 540.63 418.14 548.41 418.14 548.41 504.93 540.63 512.37 548.41 512.37 563.37 512.37 556.23 505.02 556.23 409.51"/><path class="cls-2" d="M684.73,445.34a33.46,33.46,0,0,0-27.06,13.75V418.27h8.91l-15.79-8.76-.31.31V503l-9.32,9.32h16.52V498.62a33.51,33.51,0,1,0,27.06-53.28ZM697.9,507.1c-11.92,5.56-27.49-2.58-34.76-18.18s-3.51-32.76,8.42-38.32,27.49,2.58,34.76,18.18S709.82,501.54,697.9,507.1Z"/><path class="cls-2" d="M629.14,488.26h0v-9.42h0a33.52,33.52,0,0,0-57.21-23.66l7.07,5c7.23-9.41,18-14,27.29-10.59,8.48,3.09,13.61,11.95,14.1,22.43-6.13-4.83-15-7.86-24.76-7.86-18.51,0-33.52,10.8-33.52,24.12s15,24.12,33.52,24.12c9.87,0,18.74-3.07,24.87-8v8h18L629.14,503Zm-20.62,19.49c-11.67,3.84-26.91-1-34-12.26s-3.43-22.91,8.24-26.75,26.91,1,34,12.26S620.19,503.91,608.52,507.75Z"/><path class="cls-2" d="M484.39,70.31a33.52,33.52,0,1,0,33.52,33.52A33.52,33.52,0,0,0,484.39,70.31Zm13.17,61.77c-11.92,5.56-27.49-2.58-34.76-18.18s-3.51-32.76,8.42-38.32S498.71,78.15,506,93.75,509.49,126.51,497.57,132.07Z"/><path class="cls-2" d="M450.88,53.61V39.21l-5.71,5.71a51.43,51.43,0,0,0-82.49,41c0,31.83,23,51.43,51.43,51.43a51.27,51.27,0,0,0,36.36-15.06l-3.32-1.88a32.73,32.73,0,0,1-12.29,10c-19.72,9.2-45-3.27-56.46-27.84s-4.76-52,15-61.15c16-7.45,38-2.66,57.4,28.12Z"/><polygon class="cls-2" points="531.02 34.48 515.41 43.11 523.2 43.11 523.2 129.9 515.41 137.34 523.2 137.34 538.15 137.34 531.02 130 531.02 34.48"/><polygon class="cls-2" points="556.23 34.48 540.63 43.11 548.41 43.11 548.41 129.9 540.63 137.34 548.41 137.34 563.37 137.34 556.23 130 556.23 34.48"/><path class="cls-2" d="M629.14,113.23h0v-9.42h0a33.52,33.52,0,0,0-57.21-23.66l7.07,5c7.23-9.41,18-14,27.29-10.59,8.48,3.09,13.61,11.95,14.1,22.43-6.13-4.83-15-7.86-24.76-7.86-18.51,0-33.52,10.8-33.52,24.12s15,24.12,33.52,24.12c9.87,0,18.74-3.07,24.87-8v8h18L629.14,128Zm-20.62,19.49c-11.67,3.84-26.91-1-34-12.26S571,97.55,582.72,93.71s26.91,1,34,12.26S620.19,128.88,608.52,132.72Z"/><path class="cls-2" d="M657.32,80.12l-.13.14v-10h-6.72l-9.32,9.32h9.32V128l-9.32,9.32h25.34L657.19,128V90.58c1.89-7.58,6.48-13.61,13.17-16,12.36-4.5,27.16,5,33,21.14l1.31-15.55A33.52,33.52,0,0,0,657.32,80.12Z"/><path class="cls-2" d="M484.39,257.82a33.52,33.52,0,1,0,33.52,33.52A33.52,33.52,0,0,0,484.39,257.82Zm13.17,61.77c-11.92,5.56-27.49-2.58-34.76-18.18s-3.51-32.76,8.42-38.32,27.49,2.58,34.76,18.18S509.49,314,497.57,319.59Z"/><path class="cls-2" d="M570.32,257.82a33.52,33.52,0,1,0,33.52,33.52A33.52,33.52,0,0,0,570.32,257.82Zm13.17,61.77C571.57,325.15,556,317,548.73,301.4s-3.51-32.76,8.42-38.32,27.49,2.58,34.76,18.18S595.42,314,583.5,319.59Z"/><path class="cls-2" d="M450.88,241.13v-14.4l-5.71,5.71a51.43,51.43,0,0,0-82.49,41c0,31.83,23,51.43,51.43,51.43a51.27,51.27,0,0,0,36.36-15.06l-3.32-1.88a32.73,32.73,0,0,1-12.29,10c-19.72,9.2-45-3.27-56.46-27.84s-4.76-52,15-61.15c16-7.45,38-2.66,57.4,28.12Z"/><polygon class="cls-2" points="531.02 221.99 515.41 230.62 523.2 230.62 523.2 317.42 515.41 324.85 523.2 324.85 538.15 324.85 531.02 317.51 531.02 221.99"/><path class="cls-2" d="M621.83,267.64l-.13.14v-10H615l-9.32,9.32H615v48.39l-9.32,9.32H631l-9.31-9.31V278.09c1.89-7.58,6.48-13.61,13.17-16,12.36-4.5,27.16,5,33,21.14l1.31-15.55A33.52,33.52,0,0,0,621.83,267.64Z"/><polygon class="cls-2" points="215.94 273.4 174.48 221.85 209.86 221.85 251.31 273.4 292.76 221.85 328.14 221.85 286.69 273.4 286.69 273.4 245.23 324.95 209.86 324.95 251.31 273.4 215.94 273.4"/><polygon class="cls-2" points="180.55 273.4 139.1 324.95 174.47 324.95 215.93 273.4 180.55 273.4"/><polygon class="cls-2" points="180.55 273.4 139.1 221.85 103.72 221.85 145.18 273.4 180.55 273.4"/><polygon class="cls-2" points="328.14 437.15 328.14 475.65 272.04 520.77 272.04 482.27 328.14 437.15"/><polygon class="cls-2" points="215.93 437.15 215.93 475.65 159.83 520.77 159.83 482.27 215.93 437.15"/><polygon class="cls-2" points="215.93 398.65 215.93 437.15 272.04 482.27 272.04 443.77 215.93 398.65"/><polygon class="cls-2" points="103.72 398.65 103.72 437.15 159.83 482.27 159.83 443.77 103.72 398.65"/><polygon class="cls-2" points="103.72 72.53 103.72 34.03 159.83 79.15 159.83 79.15 135.89 98.4 103.72 72.53"/><polygon class="cls-2" points="272.03 79.15 272.04 79.15 272.04 79.15 215.93 34.03 215.93 72.53 248.09 98.39 272.03 79.15"/><polygon class="cls-2" points="272.03 117.64 272.04 117.65 272.04 117.64 272.03 117.64"/><polygon class="cls-2" points="159.83 117.64 159.83 117.65 183.77 136.89 215.93 111.03 215.93 72.53 159.83 117.64"/><polygon class="cls-2" points="272.04 117.64 272.04 117.65 295.98 136.89 328.14 111.03 328.14 72.53 272.04 117.64"/></g></g></svg>