<svg xmlns="http://www.w3.org/2000/svg" viewBox="0 0 790.1 449.95"><defs><style>.cls-1{fill:#281e1e;}.cls-2{fill:#fff;}.cls-3{fill:#002f87;}.cls-4{fill:#dcddde;}.cls-5{fill:#ff434c;}.cls-6{fill:#ff96aa;}.cls-7{fill:#3c0014;}.cls-8{fill:#e54129;}.cls-9{fill:#faff95;}.cls-10{fill:#f1c421;}.cls-11{fill:#70d649;}.cls-12{fill:#dfffd4;}.cls-13{fill:gray;}.cls-14{fill:#f16e00;}.cls-15{fill:#ffc853;}.cls-16{fill:#6b5f4e;}.cls-17{fill:#0a0000;}</style></defs><title>collab_cc_3</title><g id="Layer_2" data-name="Layer 2"><g id="Layer_1-2" data-name="Layer 1"><polygon class="cls-1" points="143.32 0 0 0 0 143.32 143.32 143.32 256.7 143.32 256.7 0 143.32 0"/><path class="cls-2" d="M151.08,75.81h-1.58l-1.09-4.23-.26-1.05h0l-.25,1.05-1.07,4.23h-1.62l-1.84-7.31h1.55L146,73.56h0l1.3-5.06H149l1.27,5.13h0l1.15-5.13h1.53Z"/><path class="cls-2" d="M156.66,72.58c0-.59-.2-1.08-.9-1.08s-1.13.39-1.13,1.52v2.79h-1.43V68.5h1.43v2.72h0a2,2,0,0,1,1.58-.83,1.81,1.81,0,0,1,1.5.61,2.52,2.52,0,0,1,.37,1.63v3.18h-1.43Z"/><path class="cls-2" d="M158.91,69.75V68.5h1.43v1.25Zm0,6.06v-5.3h1.43v5.3Z"/><path class="cls-2" d="M162.85,68.69v1.83h1v1.05h-1v2.72c0,.31.15.46.5.46a2,2,0,0,0,.5-.08l.06,1.1a5.13,5.13,0,0,1-1,.13c-.85,0-1.49-.42-1.49-1.25V71.57h-.77V70.52h.77V69.23Z"/><path class="cls-2" d="M166.55,70.4c1.65,0,2.56,1.16,2.56,2.92,0,.07,0,.15,0,.23h-3.67c0,.88.5,1.33,1.23,1.33a1,1,0,0,0,1-.72l1.34.11a2.31,2.31,0,0,1-2.39,1.68A2.5,2.5,0,0,1,164,73.2,2.56,2.56,0,0,1,166.55,70.4Zm-1.1,2.25h2.23a1.07,1.07,0,0,0-1.1-1.18A1.13,1.13,0,0,0,165.45,72.64Z"/><path class="cls-2" d="M175.3,76a3.42,3.42,0,0,1-3.46-3.75c0-2.19,1.28-3.84,3.49-3.84a2.9,2.9,0,0,1,3.07,2.38l-1.51.17a1.53,1.53,0,0,0-1.56-1.25c-1.27,0-1.91,1-1.91,2.48s.64,2.5,1.89,2.5c.89,0,1.46-.58,1.65-1.59l1.49.22A3.05,3.05,0,0,1,175.3,76Z"/><path class="cls-2" d="M181.49,70.4a2.61,2.61,0,0,1,2.74,2.77,2.64,2.64,0,0,1-2.74,2.78,2.59,2.59,0,0,1-2.73-2.81A2.62,2.62,0,0,1,181.49,70.4Zm0,4.44c.86,0,1.29-.72,1.29-1.67s-.43-1.66-1.29-1.66-1.29.72-1.29,1.67S180.63,74.83,181.49,74.83Z"/><path class="cls-2" d="M184.81,75.81V68.5h1.43v7.31Z"/><path class="cls-2" d="M187.06,75.81V68.5h1.43v7.31Z"/><path class="cls-2" d="M193.85,71.89v2.2a4.11,4.11,0,0,0,.26,1.73h-1.43a3.66,3.66,0,0,1-.14-.54,2.33,2.33,0,0,1-1.71.67A1.57,1.57,0,0,1,189,74.37c0-1.07.77-1.47,1.86-1.64a4.52,4.52,0,0,0,1.54-.37v-.23c0-.58-.34-.73-1-.73a.85.85,0,0,0-.94.73L189.2,72c.18-1.2,1.1-1.64,2.38-1.64S193.85,70.79,193.85,71.89Zm-1.74,2.79a1.22,1.22,0,0,0,.34-1v-.41a4.12,4.12,0,0,1-1,.27c-.5.1-1,.23-1,.76s.38.7.84.7A1.37,1.37,0,0,0,192.11,74.68Z"/><path class="cls-2" d="M198.1,70.55l-.21,1.29a1.37,1.37,0,0,0-.59-.14c-1,0-1.19.92-1.19,1.81v2.31h-1.42v-5.3H196v.87h0a1.67,1.67,0,0,1,1.42-1A1.36,1.36,0,0,1,198.1,70.55Z"/><path class="cls-2" d="M207.75,75.81h-1.58l-1.09-4.23-.26-1.05h0l-.25,1.05-1.07,4.23h-1.62L200,68.5h1.55l1.13,5.06h0L204,68.5h1.63l1.27,5.13h0l1.15-5.13h1.53Z"/><path class="cls-2" d="M211.9,70.4a2.61,2.61,0,0,1,2.74,2.77,2.64,2.64,0,0,1-2.74,2.78,2.59,2.59,0,0,1-2.73-2.81A2.62,2.62,0,0,1,211.9,70.4Zm0,4.44c.86,0,1.29-.72,1.29-1.67s-.43-1.66-1.29-1.66-1.29.72-1.29,1.67S211,74.83,211.9,74.83Z"/><path class="cls-2" d="M218.64,70.55l-.21,1.29a1.37,1.37,0,0,0-.59-.14c-1,0-1.19.92-1.19,1.81v2.31h-1.42v-5.3h1.34v.87h0a1.67,1.67,0,0,1,1.42-1A1.36,1.36,0,0,1,218.64,70.55Z"/><path class="cls-2" d="M218.8,75.81V68.5h1.42v3.9L222,70.52h1.73l-1.91,1.94,2.08,3.35h-1.64l-1.39-2.37-.61.61v1.76Z"/><path class="cls-2" d="M226.22,70.4c1.65,0,2.56,1.16,2.56,2.92,0,.07,0,.15,0,.23H225.1c0,.88.5,1.33,1.23,1.33a1,1,0,0,0,1-.72l1.34.11a2.31,2.31,0,0,1-2.39,1.68,2.49,2.49,0,0,1-2.64-2.75A2.56,2.56,0,0,1,226.22,70.4Zm-1.1,2.25h2.23a1.07,1.07,0,0,0-1.1-1.18A1.13,1.13,0,0,0,225.12,72.64Z"/><path class="cls-2" d="M232.78,70.55l-.21,1.29a1.37,1.37,0,0,0-.59-.14c-1,0-1.19.92-1.19,1.81v2.31h-1.42v-5.3h1.34v.87h0a1.67,1.67,0,0,1,1.42-1A1.36,1.36,0,0,1,232.78,70.55Z"/><path class="cls-2" d="M232.59,74.2l1.39-.1a1,1,0,0,0,1.12.86c.63,0,1-.25,1-.61s-.18-.42-.67-.54l-1.15-.3c-.8-.23-1.52-.54-1.52-1.45,0-1.09.93-1.66,2.26-1.66s2.16.43,2.34,1.54l-1.35.12c-.08-.49-.44-.69-1-.69s-.89.15-.89.48.17.36.51.45l1,.26c1,.23,1.85.51,1.85,1.58,0,.87-.61,1.81-2.41,1.81C233.76,76,232.74,75.4,232.59,74.2Z"/><polygon class="cls-2" points="117.16 62.26 117.16 77.92 94.33 96.27 94.33 80.61 117.16 62.26"/><polygon class="cls-2" points="71.51 62.26 71.51 77.92 48.68 96.27 48.68 80.61 71.51 62.26"/><polygon class="cls-2" points="71.51 46.59 71.51 62.26 94.33 80.61 94.33 64.95 71.51 46.59"/><polygon class="cls-2" points="25.86 46.59 25.86 62.26 48.68 80.61 48.68 64.95 25.86 46.59"/><rect class="cls-3" y="306.63" width="256.7" height="143.32"/><path class="cls-4" d="M144,382.44v-7.31h3.22c1.31,0,2.54.42,2.54,1.85a1.63,1.63,0,0,1-1,1.53,1.77,1.77,0,0,1,1.37,1.81c0,1.42-1.17,2.12-2.51,2.12Zm3.37-4.39a.86.86,0,0,0,.9-.85c0-.58-.38-.84-1.16-.84h-1.58v1.7Zm0,3.15c.61,0,1.13-.28,1.13-1s-.64-1-1.25-1h-1.76v2Z"/><path class="cls-4" d="M150.78,382.44v-7.31h1.43v7.31Z"/><path class="cls-4" d="M154.46,377.15v3.17c0,.62.17,1.16.9,1.16s1.13-.67,1.13-1.35v-3h1.43v5.3h-1.35v-.77h0a2,2,0,0,1-1.67.9c-1.31,0-1.85-.72-1.85-2v-3.38Z"/><path class="cls-4" d="M161.08,377c1.65,0,2.55,1.16,2.55,2.92,0,.07,0,.15,0,.23H160c0,.88.5,1.33,1.23,1.33a1,1,0,0,0,1-.72l1.34.11a2.31,2.31,0,0,1-2.39,1.68,2.5,2.5,0,0,1-2.64-2.75A2.56,2.56,0,0,1,161.08,377Zm-1.1,2.25h2.23a1.07,1.07,0,0,0-1.1-1.18A1.13,1.13,0,0,0,160,379.28Z"/><path class="cls-4" d="M169.83,382.59a3.42,3.42,0,0,1-3.46-3.75c0-2.19,1.28-3.84,3.49-3.84a2.9,2.9,0,0,1,3.07,2.38l-1.51.17a1.53,1.53,0,0,0-1.56-1.25c-1.27,0-1.91,1-1.91,2.48s.64,2.5,1.89,2.5c.89,0,1.46-.58,1.65-1.59l1.49.22A3.06,3.06,0,0,1,169.83,382.59Z"/><path class="cls-4" d="M176,377a2.61,2.61,0,0,1,2.74,2.77,2.64,2.64,0,0,1-2.74,2.78,2.58,2.58,0,0,1-2.73-2.81A2.62,2.62,0,0,1,176,377Zm0,4.44c.86,0,1.29-.72,1.29-1.67s-.43-1.66-1.29-1.66-1.29.72-1.29,1.67S175.15,381.46,176,381.46Z"/><path class="cls-4" d="M179.34,382.44v-7.31h1.43v7.31Z"/><path class="cls-4" d="M181.59,382.44v-7.31H183v7.31Z"/><path class="cls-4" d="M188.38,378.52v2.2a4.14,4.14,0,0,0,.26,1.73H187.2a3.78,3.78,0,0,1-.14-.54,2.33,2.33,0,0,1-1.71.67,1.57,1.57,0,0,1-1.78-1.57c0-1.07.77-1.47,1.86-1.64A4.51,4.51,0,0,0,187,379v-.23c0-.58-.34-.73-1-.73a.85.85,0,0,0-.94.73l-1.36-.11c.18-1.2,1.1-1.64,2.38-1.64S188.38,377.43,188.38,378.52Zm-1.74,2.79a1.22,1.22,0,0,0,.34-1v-.41a4.06,4.06,0,0,1-1,.27c-.5.1-1,.23-1,.76s.38.7.84.7A1.37,1.37,0,0,0,186.64,381.31Z"/><path class="cls-4" d="M192.63,377.18l-.21,1.29a1.38,1.38,0,0,0-.59-.14c-1,0-1.19.92-1.19,1.81v2.31h-1.42v-5.3h1.34V378h0a1.66,1.66,0,0,1,1.42-1A1.36,1.36,0,0,1,192.63,377.18Z"/><path class="cls-4" d="M202.28,382.44H200.7l-1.09-4.23-.25-1.05h0l-.25,1.05L198,382.44h-1.62l-1.84-7.31h1.55l1.13,5.06h0l1.3-5.06h1.64l1.27,5.13h0l1.16-5.13h1.53Z"/><path class="cls-4" d="M206.43,377a2.61,2.61,0,0,1,2.74,2.77,2.64,2.64,0,0,1-2.74,2.78,2.59,2.59,0,0,1-2.73-2.81A2.62,2.62,0,0,1,206.43,377Zm0,4.44c.86,0,1.29-.72,1.29-1.67s-.43-1.66-1.29-1.66-1.29.72-1.29,1.67S205.57,381.46,206.43,381.46Z"/><path class="cls-4" d="M213.17,377.18l-.21,1.29a1.38,1.38,0,0,0-.59-.14c-1,0-1.19.92-1.19,1.81v2.31h-1.42v-5.3h1.34V378h0a1.66,1.66,0,0,1,1.42-1A1.36,1.36,0,0,1,213.17,377.18Z"/><path class="cls-4" d="M213.32,382.44v-7.31h1.42V379l1.74-1.88h1.73l-1.91,1.94,2.09,3.35h-1.64l-1.39-2.37-.61.61v1.76Z"/><path class="cls-4" d="M220.75,377c1.65,0,2.56,1.16,2.56,2.92,0,.07,0,.15,0,.23h-3.67c0,.88.5,1.33,1.23,1.33a1,1,0,0,0,1-.72l1.34.11a2.31,2.31,0,0,1-2.39,1.68,2.5,2.5,0,0,1-2.64-2.75A2.56,2.56,0,0,1,220.75,377Zm-1.1,2.25h2.23a1.07,1.07,0,0,0-1.1-1.18A1.13,1.13,0,0,0,219.65,379.28Z"/><path class="cls-4" d="M227.31,377.18l-.21,1.29a1.37,1.37,0,0,0-.59-.14c-1,0-1.19.92-1.19,1.81v2.31h-1.42v-5.3h1.34V378h0a1.67,1.67,0,0,1,1.42-1A1.35,1.35,0,0,1,227.31,377.18Z"/><path class="cls-4" d="M227.11,380.83l1.39-.1a1,1,0,0,0,1.13.86c.63,0,1-.25,1-.61s-.18-.42-.66-.54l-1.14-.3c-.8-.23-1.52-.54-1.52-1.45,0-1.09.93-1.66,2.26-1.66s2.16.43,2.34,1.54l-1.35.12c-.08-.49-.44-.69-1-.69s-.89.15-.89.48.17.36.51.45l1,.26c1,.23,1.85.51,1.85,1.58,0,.87-.61,1.81-2.41,1.81C228.29,382.59,227.27,382,227.11,380.83Z"/><polygon class="cls-4" points="116.8 368.89 116.8 384.55 93.97 402.9 93.97 387.24 116.8 368.89"/><polygon class="cls-4" points="71.15 368.89 71.15 384.55 48.32 402.9 48.32 387.24 71.15 368.89"/><polygon class="cls-4" points="71.15 353.22 71.15 368.89 93.97 387.24 93.97 371.58 71.15 353.22"/><polygon class="cls-4" points="25.5 353.22 25.5 368.89 48.32 387.24 48.32 371.58 25.5 353.22"/><rect class="cls-5" x="266.7" y="153.32" width="256.7" height="143.32"/><path class="cls-6" d="M412.27,226.44v2.69h-1.53v-7.31h3.34a2.21,2.21,0,0,1,2.36,2.3,2.29,2.29,0,0,1-2.48,2.32Zm1.31-1.25c1,0,1.33-.5,1.33-1.06s-.35-1.06-1.32-1.06h-1.32v2.13Z"/><path class="cls-6" d="M416.78,223.07v-1.25h1.43v1.25Zm0,6.06v-5.3h1.43v5.3Z"/><path class="cls-6" d="M422.5,225.93c0-.6-.25-1.11-.9-1.11a1,1,0,0,0-1,.68,3.77,3.77,0,0,0-.1,1v2.59H419v-5.3h1.34v.77h0a2,2,0,0,1,1.68-.89c1.46,0,1.86.85,1.86,2.15v3.27H422.5Z"/><path class="cls-6" d="M424.75,229.13v-7.31h1.42v3.89l1.74-1.88h1.73l-1.91,1.94,2.08,3.35h-1.63l-1.39-2.37-.61.61v1.76Z"/><path class="cls-6" d="M435.66,229.27a3.42,3.42,0,0,1-3.47-3.75c0-2.19,1.28-3.84,3.49-3.84a2.9,2.9,0,0,1,3.07,2.38l-1.51.17a1.53,1.53,0,0,0-1.56-1.25c-1.27,0-1.91,1-1.91,2.48s.64,2.5,1.89,2.5c.89,0,1.46-.58,1.65-1.59l1.49.22A3.05,3.05,0,0,1,435.66,229.27Z"/><path class="cls-6" d="M441.84,223.71a2.61,2.61,0,0,1,2.74,2.77,2.64,2.64,0,0,1-2.74,2.78,2.59,2.59,0,0,1-2.73-2.81A2.62,2.62,0,0,1,441.84,223.71Zm0,4.44c.86,0,1.29-.72,1.29-1.67s-.43-1.66-1.29-1.66-1.29.72-1.29,1.67S441,228.15,441.84,228.15Z"/><path class="cls-6" d="M445.17,229.13v-7.31h1.43v7.31Z"/><path class="cls-6" d="M447.42,229.13v-7.31h1.43v7.31Z"/><path class="cls-6" d="M454.21,225.2v2.2a4.14,4.14,0,0,0,.26,1.73H453a3.8,3.8,0,0,1-.14-.54,2.33,2.33,0,0,1-1.71.67,1.58,1.58,0,0,1-1.78-1.57c0-1.07.77-1.47,1.86-1.64a4.51,4.51,0,0,0,1.54-.37v-.23c0-.58-.34-.73-1-.73a.85.85,0,0,0-.94.73l-1.36-.11c.18-1.2,1.1-1.64,2.38-1.64S454.21,224.11,454.21,225.2ZM452.47,228a1.22,1.22,0,0,0,.34-1v-.41a4.06,4.06,0,0,1-1,.27c-.5.1-1,.23-1,.76s.38.7.84.7A1.37,1.37,0,0,0,452.47,228Z"/><path class="cls-6" d="M458.46,223.86l-.21,1.29a1.37,1.37,0,0,0-.59-.14c-1,0-1.19.92-1.19,1.81v2.31H455v-5.3h1.34v.87h0a1.66,1.66,0,0,1,1.42-1A1.37,1.37,0,0,1,458.46,223.86Z"/><path class="cls-6" d="M468.11,229.13h-1.58l-1.09-4.23-.25-1.05h0l-.25,1.05-1.07,4.23h-1.62l-1.84-7.31h1.55l1.13,5.06h0l1.3-5.06H466l1.27,5.13h0l1.16-5.13H470Z"/><path class="cls-6" d="M472.26,223.71a2.61,2.61,0,0,1,2.74,2.77,2.64,2.64,0,0,1-2.74,2.78,2.59,2.59,0,0,1-2.73-2.81A2.62,2.62,0,0,1,472.26,223.71Zm0,4.44c.86,0,1.29-.72,1.29-1.67s-.43-1.66-1.29-1.66-1.29.72-1.29,1.67S471.4,228.15,472.26,228.15Z"/><path class="cls-6" d="M479,223.86l-.21,1.29a1.37,1.37,0,0,0-.59-.14c-1,0-1.19.92-1.19,1.81v2.31h-1.42v-5.3h1.34v.87h0a1.66,1.66,0,0,1,1.42-1A1.37,1.37,0,0,1,479,223.86Z"/><path class="cls-6" d="M479.15,229.13v-7.31h1.42v3.89l1.74-1.88H484l-1.91,1.94,2.09,3.35h-1.64l-1.39-2.37-.61.61v1.76Z"/><path class="cls-6" d="M486.58,223.71c1.65,0,2.56,1.16,2.56,2.92,0,.07,0,.15,0,.23h-3.67c0,.88.5,1.33,1.23,1.33a1,1,0,0,0,1-.72l1.34.11a2.31,2.31,0,0,1-2.39,1.68,2.5,2.5,0,0,1-2.64-2.75A2.56,2.56,0,0,1,486.58,223.71Zm-1.1,2.25h2.23a1.07,1.07,0,0,0-1.1-1.17A1.13,1.13,0,0,0,485.48,226Z"/><path class="cls-6" d="M493.14,223.86l-.21,1.29a1.37,1.37,0,0,0-.59-.14c-1,0-1.19.92-1.19,1.81v2.31h-1.42v-5.3h1.34v.87h0a1.67,1.67,0,0,1,1.42-1A1.36,1.36,0,0,1,493.14,223.86Z"/><path class="cls-6" d="M492.95,227.51l1.39-.1a1,1,0,0,0,1.13.86c.63,0,1-.25,1-.61s-.18-.42-.66-.54-.79-.19-1.14-.3c-.8-.24-1.52-.54-1.52-1.45,0-1.09.93-1.66,2.26-1.66s2.16.43,2.34,1.54l-1.35.12c-.08-.49-.44-.69-1-.69s-.89.15-.89.48.17.36.51.45l1,.26c1,.23,1.85.51,1.85,1.58,0,.87-.61,1.81-2.41,1.81C494.12,229.27,493.1,228.72,492.95,227.51Z"/><polygon class="cls-6" points="383.17 215.57 383.17 231.23 360.35 249.59 360.35 233.93 383.17 215.57"/><polygon class="cls-6" points="337.52 215.57 337.52 231.23 314.69 249.59 314.69 233.93 337.52 215.57"/><polygon class="cls-6" points="337.52 199.91 337.52 215.57 360.35 233.93 360.35 218.26 337.52 199.91"/><polygon class="cls-6" points="291.87 199.91 291.87 215.57 314.69 233.93 314.69 218.26 291.87 199.91"/><rect class="cls-7" y="153.32" width="256.7" height="143.32"/><path class="cls-8" d="M147.47,221.82c1.37,0,2.6.61,2.6,2a1.88,1.88,0,0,1-1.56,1.93,3.49,3.49,0,0,1,.54.34c.83.71.71,2.12,1.49,3h-1.79c-.6-.67-.52-1.8-1.07-2.52a1.27,1.27,0,0,0-1.12-.44h-1v3H144v-7.31Zm-1.89,1.25v2h1a9.4,9.4,0,0,0,1.09,0,.87.87,0,0,0,.85-1c0-.6-.39-1-1.1-1Z"/><path class="cls-8" d="M153,223.71c1.65,0,2.56,1.16,2.56,2.92,0,.07,0,.15,0,.23h-3.67c0,.88.5,1.33,1.23,1.33a1,1,0,0,0,1-.72l1.34.11a2.31,2.31,0,0,1-2.39,1.68,2.5,2.5,0,0,1-2.64-2.75A2.56,2.56,0,0,1,153,223.71Zm-1.1,2.25h2.23a1.07,1.07,0,0,0-1.1-1.17A1.13,1.13,0,0,0,151.86,226Z"/><path class="cls-8" d="M159.7,228.4h0a1.88,1.88,0,0,1-1.62.86c-1.54,0-2.3-1.37-2.3-2.81s.78-2.74,2.29-2.74a1.9,1.9,0,0,1,1.55.76h0v-2.65H161v7.31H159.7Zm-1.27-3.61c-.81,0-1.23.66-1.23,1.63s.31,1.74,1.24,1.74,1.21-.68,1.21-1.67S159.25,224.79,158.44,224.79Z"/><path class="cls-8" d="M167.48,229.27a3.42,3.42,0,0,1-3.47-3.75c0-2.19,1.28-3.84,3.49-3.84a2.9,2.9,0,0,1,3.07,2.38l-1.51.17a1.53,1.53,0,0,0-1.56-1.25c-1.27,0-1.91,1-1.91,2.48s.64,2.5,1.89,2.5c.89,0,1.46-.58,1.65-1.59l1.49.22A3.05,3.05,0,0,1,167.48,229.27Z"/><path class="cls-8" d="M173.66,223.71a2.61,2.61,0,0,1,2.74,2.77,2.64,2.64,0,0,1-2.74,2.78,2.59,2.59,0,0,1-2.73-2.81A2.62,2.62,0,0,1,173.66,223.71Zm0,4.44c.86,0,1.29-.72,1.29-1.67s-.43-1.66-1.29-1.66-1.29.72-1.29,1.67S172.8,228.15,173.66,228.15Z"/><path class="cls-8" d="M177,229.13v-7.31h1.43v7.31Z"/><path class="cls-8" d="M179.24,229.13v-7.31h1.43v7.31Z"/><path class="cls-8" d="M186,225.2v2.2a4.12,4.12,0,0,0,.25,1.73h-1.43a3.68,3.68,0,0,1-.14-.54,2.33,2.33,0,0,1-1.71.67,1.57,1.57,0,0,1-1.78-1.57c0-1.07.77-1.47,1.86-1.64a4.52,4.52,0,0,0,1.54-.37v-.23c0-.58-.34-.73-1-.73a.85.85,0,0,0-.94.73l-1.36-.11c.18-1.2,1.1-1.64,2.38-1.64S186,224.11,186,225.2ZM184.29,228a1.22,1.22,0,0,0,.34-1v-.41a4.09,4.09,0,0,1-1,.27c-.5.1-1,.23-1,.76s.38.7.84.7A1.37,1.37,0,0,0,184.29,228Z"/><path class="cls-8" d="M190.27,223.86l-.21,1.29a1.37,1.37,0,0,0-.59-.14c-1,0-1.19.92-1.19,1.81v2.31h-1.42v-5.3h1.34v.87h0a1.66,1.66,0,0,1,1.42-1A1.37,1.37,0,0,1,190.27,223.86Z"/><path class="cls-8" d="M199.93,229.13h-1.58l-1.09-4.23-.26-1.05h0l-.25,1.05-1.07,4.23H194l-1.84-7.31h1.55l1.13,5.06h0l1.3-5.06h1.64L199.1,227h0l1.16-5.13h1.53Z"/><path class="cls-8" d="M204.07,223.71a2.61,2.61,0,0,1,2.74,2.77,2.64,2.64,0,0,1-2.74,2.78,2.59,2.59,0,0,1-2.73-2.81A2.62,2.62,0,0,1,204.07,223.71Zm0,4.44c.86,0,1.29-.72,1.29-1.67s-.43-1.66-1.29-1.66-1.29.72-1.29,1.67S203.22,228.15,204.07,228.15Z"/><path class="cls-8" d="M210.82,223.86l-.21,1.29A1.37,1.37,0,0,0,210,225c-1,0-1.19.92-1.19,1.81v2.31H207.4v-5.3h1.34v.87h0a1.66,1.66,0,0,1,1.42-1A1.37,1.37,0,0,1,210.82,223.86Z"/><path class="cls-8" d="M211,229.13v-7.31h1.42v3.89l1.74-1.88h1.73l-1.91,1.94,2.08,3.35H214.4L213,226.76l-.61.61v1.76Z"/><path class="cls-8" d="M218.4,223.71c1.65,0,2.56,1.16,2.56,2.92,0,.07,0,.15,0,.23h-3.67c0,.88.5,1.33,1.23,1.33a1,1,0,0,0,1-.72l1.34.11a2.31,2.31,0,0,1-2.39,1.68,2.5,2.5,0,0,1-2.64-2.75A2.56,2.56,0,0,1,218.4,223.71Zm-1.1,2.25h2.23a1.07,1.07,0,0,0-1.1-1.17A1.13,1.13,0,0,0,217.29,226Z"/><path class="cls-8" d="M225,223.86l-.21,1.29a1.37,1.37,0,0,0-.59-.14c-1,0-1.19.92-1.19,1.81v2.31h-1.42v-5.3h1.34v.87h0a1.66,1.66,0,0,1,1.42-1A1.37,1.37,0,0,1,225,223.86Z"/><path class="cls-8" d="M224.76,227.51l1.39-.1a1,1,0,0,0,1.13.86c.63,0,1-.25,1-.61s-.18-.42-.67-.54-.79-.19-1.14-.3c-.8-.24-1.52-.54-1.52-1.45,0-1.09.93-1.66,2.26-1.66s2.16.43,2.34,1.54l-1.35.12c-.08-.49-.44-.69-1-.69s-.89.15-.89.48.17.36.51.45l1,.26c1,.23,1.85.51,1.85,1.58,0,.87-.61,1.81-2.41,1.81C225.94,229.27,224.92,228.72,224.76,227.51Z"/><polygon class="cls-8" points="116.47 216.43 116.47 232.09 93.64 250.44 93.64 234.78 116.47 216.43"/><polygon class="cls-8" points="70.82 216.43 70.82 232.09 47.99 250.44 47.99 234.78 70.82 216.43"/><polygon class="cls-8" points="70.82 200.76 70.82 216.43 93.64 234.78 93.64 219.12 70.82 200.76"/><polygon class="cls-8" points="25.17 200.76 25.17 216.43 47.99 234.78 47.99 219.12 25.17 200.76"/><rect class="cls-9" x="266.7" y="306.63" width="256.7" height="143.32"/><path class="cls-10" d="M417.13,377.34l-1.5.14a1.54,1.54,0,0,0-1.6-1.19c-1.32,0-2,1-2,2.46s.7,2.52,2,2.52c.91,0,1.71-.44,1.76-1.23v-.33h-1.69v-1.22h3.16v1.56a3.06,3.06,0,0,1-3.29,2.52c-2,0-3.52-1.4-3.52-3.79A3.57,3.57,0,0,1,414,375,2.93,2.93,0,0,1,417.13,377.34Z"/><path class="cls-10" d="M420.55,377a2.61,2.61,0,0,1,2.74,2.77,2.64,2.64,0,0,1-2.74,2.78,2.58,2.58,0,0,1-2.73-2.81A2.62,2.62,0,0,1,420.55,377Zm0,4.44c.86,0,1.29-.72,1.29-1.67s-.43-1.66-1.29-1.66-1.29.72-1.29,1.67S419.69,381.46,420.55,381.46Z"/><path class="cls-10" d="M423.88,382.45v-7.31h1.43v7.31Z"/><path class="cls-10" d="M429.83,381.72h0a1.88,1.88,0,0,1-1.63.86c-1.54,0-2.3-1.37-2.3-2.81s.78-2.74,2.29-2.74a1.9,1.9,0,0,1,1.55.76h0v-2.65h1.42v7.31h-1.34Zm-1.27-3.61c-.81,0-1.23.66-1.23,1.63s.31,1.74,1.24,1.74,1.21-.69,1.21-1.67S429.38,378.11,428.56,378.11Z"/><path class="cls-10" d="M437.61,382.59a3.42,3.42,0,0,1-3.47-3.75c0-2.19,1.28-3.84,3.49-3.84a2.9,2.9,0,0,1,3.07,2.38l-1.51.17a1.53,1.53,0,0,0-1.56-1.25c-1.27,0-1.91,1-1.91,2.48s.64,2.5,1.89,2.5c.89,0,1.46-.58,1.65-1.59l1.49.22A3.05,3.05,0,0,1,437.61,382.59Z"/><path class="cls-10" d="M443.79,377a2.61,2.61,0,0,1,2.74,2.77,2.64,2.64,0,0,1-2.74,2.78,2.59,2.59,0,0,1-2.73-2.81A2.62,2.62,0,0,1,443.79,377Zm0,4.44c.86,0,1.29-.72,1.29-1.67s-.43-1.66-1.29-1.66-1.29.72-1.29,1.67S442.93,381.46,443.79,381.46Z"/><path class="cls-10" d="M447.11,382.45v-7.31h1.43v7.31Z"/><path class="cls-10" d="M449.36,382.45v-7.31h1.43v7.31Z"/><path class="cls-10" d="M456.15,378.52v2.2a4.11,4.11,0,0,0,.26,1.73H455a3.66,3.66,0,0,1-.14-.54,2.33,2.33,0,0,1-1.71.67,1.57,1.57,0,0,1-1.78-1.57c0-1.07.77-1.47,1.86-1.64a4.52,4.52,0,0,0,1.54-.37v-.23c0-.58-.34-.73-1-.73a.85.85,0,0,0-.94.73l-1.36-.11c.18-1.2,1.1-1.64,2.38-1.64S456.15,377.43,456.15,378.52Zm-1.74,2.79a1.22,1.22,0,0,0,.34-1v-.41a4.12,4.12,0,0,1-1,.27c-.5.1-1,.23-1,.76s.38.7.84.7A1.37,1.37,0,0,0,454.42,381.31Z"/><path class="cls-10" d="M460.4,377.18l-.21,1.29a1.37,1.37,0,0,0-.59-.14c-1,0-1.19.92-1.19,1.81v2.31H457v-5.3h1.34V378h0a1.67,1.67,0,0,1,1.42-1A1.36,1.36,0,0,1,460.4,377.18Z"/><path class="cls-10" d="M470.06,382.45h-1.58l-1.09-4.23-.26-1.05h0l-.25,1.05-1.07,4.23h-1.62l-1.84-7.31h1.55L465,380.2h0l1.3-5.06H468l1.27,5.13h0l1.15-5.13h1.53Z"/><path class="cls-10" d="M474.2,377a2.61,2.61,0,0,1,2.74,2.77,2.64,2.64,0,0,1-2.74,2.78,2.59,2.59,0,0,1-2.73-2.81A2.62,2.62,0,0,1,474.2,377Zm0,4.44c.86,0,1.29-.72,1.29-1.67s-.43-1.66-1.29-1.66-1.29.72-1.29,1.67S473.34,381.46,474.2,381.46Z"/><path class="cls-10" d="M480.94,377.18l-.21,1.29a1.37,1.37,0,0,0-.59-.14c-1,0-1.19.92-1.19,1.81v2.31h-1.42v-5.3h1.34V378h0a1.67,1.67,0,0,1,1.42-1A1.36,1.36,0,0,1,480.94,377.18Z"/><path class="cls-10" d="M481.1,382.45v-7.31h1.42V379l1.74-1.88H486l-1.91,1.94,2.08,3.35h-1.64l-1.39-2.37-.61.61v1.76Z"/><path class="cls-10" d="M488.52,377c1.65,0,2.56,1.16,2.56,2.92,0,.07,0,.15,0,.23H487.4c0,.88.5,1.33,1.23,1.33a1,1,0,0,0,1-.72l1.34.11a2.31,2.31,0,0,1-2.39,1.68,2.49,2.49,0,0,1-2.64-2.75A2.56,2.56,0,0,1,488.52,377Zm-1.1,2.25h2.23a1.07,1.07,0,0,0-1.1-1.18A1.13,1.13,0,0,0,487.42,379.28Z"/><path class="cls-10" d="M495.08,377.18l-.21,1.29a1.37,1.37,0,0,0-.59-.14c-1,0-1.19.92-1.19,1.81v2.31h-1.42v-5.3H493V378h0a1.67,1.67,0,0,1,1.42-1A1.36,1.36,0,0,1,495.08,377.18Z"/><path class="cls-10" d="M494.89,380.83l1.39-.1a1,1,0,0,0,1.12.86c.63,0,1-.25,1-.61s-.18-.42-.67-.54l-1.15-.3c-.8-.23-1.52-.54-1.52-1.45,0-1.09.93-1.66,2.26-1.66s2.16.43,2.34,1.54l-1.35.12c-.08-.49-.44-.69-1-.69s-.89.15-.89.48.17.36.51.45l1,.26c1,.23,1.85.51,1.85,1.58,0,.87-.61,1.81-2.41,1.81C496.07,382.59,495,382,494.89,380.83Z"/><polygon class="cls-10" points="384.01 369.74 384.01 385.4 361.19 403.76 361.19 388.1 384.01 369.74"/><polygon class="cls-10" points="338.36 369.74 338.36 385.4 315.53 403.76 315.53 388.1 338.36 369.74"/><polygon class="cls-10" points="338.36 354.08 338.36 369.74 361.19 388.1 361.19 372.43 338.36 354.08"/><polygon class="cls-10" points="292.71 354.08 292.71 369.74 315.53 388.1 315.53 372.43 292.71 354.08"/><rect class="cls-11" x="533.4" y="306.63" width="256.7" height="143.32"/><path class="cls-12" d="M683.83,377.34l-1.5.14a1.54,1.54,0,0,0-1.59-1.19c-1.32,0-2,1-2,2.46s.7,2.52,2,2.52c.91,0,1.71-.44,1.76-1.23v-.33h-1.69v-1.22h3.16v1.56a3.06,3.06,0,0,1-3.29,2.52c-2,0-3.52-1.4-3.52-3.79a3.57,3.57,0,0,1,3.62-3.8A2.93,2.93,0,0,1,683.83,377.34Z"/><path class="cls-12" d="M688.17,377.18l-.21,1.29a1.37,1.37,0,0,0-.59-.14c-1,0-1.19.92-1.19,1.81v2.31h-1.42v-5.3h1.34V378h0a1.67,1.67,0,0,1,1.42-1A1.36,1.36,0,0,1,688.17,377.18Z"/><path class="cls-12" d="M690.56,377c1.65,0,2.55,1.16,2.55,2.92,0,.07,0,.15,0,.23h-3.67c0,.88.5,1.33,1.23,1.33a1,1,0,0,0,1-.72l1.34.11a2.31,2.31,0,0,1-2.39,1.68,2.5,2.5,0,0,1-2.64-2.75A2.56,2.56,0,0,1,690.56,377Zm-1.1,2.25h2.23a1.07,1.07,0,0,0-1.1-1.18A1.13,1.13,0,0,0,689.45,379.28Z"/><path class="cls-12" d="M695.93,377c1.65,0,2.55,1.16,2.55,2.92,0,.07,0,.15,0,.23H694.8c0,.88.5,1.33,1.23,1.33a1,1,0,0,0,1-.72l1.34.11a2.31,2.31,0,0,1-2.39,1.68,2.5,2.5,0,0,1-2.64-2.75A2.56,2.56,0,0,1,695.93,377Zm-1.1,2.25h2.23a1.07,1.07,0,0,0-1.1-1.18A1.13,1.13,0,0,0,694.82,379.28Z"/><path class="cls-12" d="M702.54,379.25c0-.6-.24-1.11-.9-1.11a1,1,0,0,0-1,.69,3.73,3.73,0,0,0-.1,1v2.59h-1.43v-5.3h1.34v.77h0a2,2,0,0,1,1.68-.89c1.46,0,1.86.85,1.86,2.15v3.27h-1.43Z"/><path class="cls-12" d="M710.4,382.59a3.42,3.42,0,0,1-3.46-3.75c0-2.19,1.28-3.84,3.49-3.84a2.9,2.9,0,0,1,3.07,2.38l-1.51.17a1.53,1.53,0,0,0-1.56-1.25c-1.27,0-1.91,1-1.91,2.48s.64,2.5,1.89,2.5c.89,0,1.46-.58,1.65-1.59l1.49.22A3.06,3.06,0,0,1,710.4,382.59Z"/><path class="cls-12" d="M716.58,377a2.61,2.61,0,0,1,2.74,2.77,2.64,2.64,0,0,1-2.74,2.78,2.58,2.58,0,0,1-2.73-2.81A2.62,2.62,0,0,1,716.58,377Zm0,4.44c.86,0,1.29-.72,1.29-1.67s-.43-1.66-1.29-1.66-1.29.72-1.29,1.67S715.73,381.46,716.58,381.46Z"/><path class="cls-12" d="M719.91,382.45v-7.31h1.43v7.31Z"/><path class="cls-12" d="M722.16,382.45v-7.31h1.43v7.31Z"/><path class="cls-12" d="M729,378.52v2.2a4.12,4.12,0,0,0,.25,1.73h-1.43a3.66,3.66,0,0,1-.14-.54,2.33,2.33,0,0,1-1.71.67,1.57,1.57,0,0,1-1.78-1.57c0-1.07.77-1.47,1.86-1.64a4.52,4.52,0,0,0,1.54-.37v-.23c0-.58-.34-.73-1-.73a.85.85,0,0,0-.94.73l-1.36-.11c.18-1.2,1.1-1.64,2.38-1.64S729,377.43,729,378.52Zm-1.74,2.79a1.22,1.22,0,0,0,.34-1v-.41a4.11,4.11,0,0,1-1,.27c-.5.1-1,.23-1,.76s.38.7.84.7A1.37,1.37,0,0,0,727.21,381.31Z"/><path class="cls-12" d="M733.2,377.18l-.21,1.29a1.37,1.37,0,0,0-.59-.14c-1,0-1.19.92-1.19,1.81v2.31h-1.42v-5.3h1.34V378h0a1.67,1.67,0,0,1,1.42-1A1.36,1.36,0,0,1,733.2,377.18Z"/><path class="cls-12" d="M742.85,382.45h-1.58l-1.09-4.23-.26-1.05h0l-.25,1.05-1.07,4.23H737l-1.84-7.31h1.55l1.13,5.06h0l1.3-5.06h1.64l1.27,5.13h0l1.16-5.13h1.53Z"/><path class="cls-12" d="M747,377a2.61,2.61,0,0,1,2.74,2.77,2.64,2.64,0,0,1-2.74,2.78,2.58,2.58,0,0,1-2.73-2.81A2.62,2.62,0,0,1,747,377Zm0,4.44c.86,0,1.29-.72,1.29-1.67s-.43-1.66-1.29-1.66-1.29.72-1.29,1.67S746.14,381.46,747,381.46Z"/><path class="cls-12" d="M753.74,377.18l-.21,1.29a1.38,1.38,0,0,0-.59-.14c-1,0-1.19.92-1.19,1.81v2.31h-1.42v-5.3h1.34V378h0a1.66,1.66,0,0,1,1.42-1A1.36,1.36,0,0,1,753.74,377.18Z"/><path class="cls-12" d="M753.9,382.45v-7.31h1.42V379l1.74-1.88h1.73l-1.91,1.94,2.08,3.35h-1.63l-1.39-2.37-.61.61v1.76Z"/><path class="cls-12" d="M761.32,377c1.65,0,2.56,1.16,2.56,2.92,0,.07,0,.15,0,.23H760.2c0,.88.5,1.33,1.23,1.33a1,1,0,0,0,1-.72l1.34.11a2.31,2.31,0,0,1-2.39,1.68,2.5,2.5,0,0,1-2.64-2.75A2.56,2.56,0,0,1,761.32,377Zm-1.1,2.25h2.23a1.07,1.07,0,0,0-1.1-1.18A1.13,1.13,0,0,0,760.22,379.28Z"/><path class="cls-12" d="M767.88,377.18l-.21,1.29a1.38,1.38,0,0,0-.59-.14c-1,0-1.19.92-1.19,1.81v2.31h-1.42v-5.3h1.34V378h0a1.66,1.66,0,0,1,1.42-1A1.36,1.36,0,0,1,767.88,377.18Z"/><path class="cls-12" d="M767.69,380.83l1.39-.1a1,1,0,0,0,1.13.86c.63,0,1-.25,1-.61s-.18-.42-.67-.54l-1.14-.3c-.8-.23-1.52-.54-1.52-1.45,0-1.09.93-1.66,2.26-1.66s2.16.43,2.34,1.54l-1.35.12c-.08-.49-.44-.69-1-.69s-.89.15-.89.48.17.36.51.45l1,.26c1,.23,1.85.51,1.85,1.58,0,.87-.61,1.81-2.41,1.81C768.86,382.59,767.84,382,767.69,380.83Z"/><polygon class="cls-12" points="650.71 369.74 650.71 385.4 627.89 403.76 627.89 388.1 650.71 369.74"/><polygon class="cls-12" points="605.06 369.74 605.06 385.4 582.23 403.76 582.23 388.1 605.06 369.74"/><polygon class="cls-12" points="605.06 354.08 605.06 369.74 627.89 388.1 627.89 372.43 605.06 354.08"/><polygon class="cls-12" points="559.41 354.08 559.41 369.74 582.23 388.1 582.23 372.43 559.41 354.08"/><polygon class="cls-4" points="410.02 0 266.7 0 266.7 143.32 410.02 143.32 523.4 143.32 523.4 0 410.02 0"/><path class="cls-13" d="M417.13,70.71l-1.5.14A1.54,1.54,0,0,0,414,69.67c-1.32,0-2,1-2,2.46s.7,2.52,2,2.52c.91,0,1.71-.44,1.76-1.23v-.33h-1.69V71.88h3.16v1.56A3.06,3.06,0,0,1,413.94,76c-2,0-3.52-1.4-3.52-3.79a3.57,3.57,0,0,1,3.62-3.8A2.93,2.93,0,0,1,417.13,70.71Z"/><path class="cls-13" d="M421.47,70.55l-.21,1.29a1.37,1.37,0,0,0-.59-.14c-1,0-1.19.92-1.19,1.81v2.31h-1.42v-5.3h1.34v.87h0a1.67,1.67,0,0,1,1.42-1A1.36,1.36,0,0,1,421.47,70.55Z"/><path class="cls-13" d="M426.06,71.89v2.2a4.14,4.14,0,0,0,.26,1.73h-1.43a3.78,3.78,0,0,1-.14-.54,2.33,2.33,0,0,1-1.71.67,1.57,1.57,0,0,1-1.78-1.57c0-1.07.77-1.47,1.86-1.64a4.51,4.51,0,0,0,1.54-.37v-.23c0-.58-.34-.73-1-.73a.85.85,0,0,0-.94.73L421.41,72c.18-1.2,1.1-1.64,2.38-1.64S426.06,70.79,426.06,71.89Zm-1.74,2.79a1.22,1.22,0,0,0,.34-1v-.41a4.08,4.08,0,0,1-1,.27c-.5.1-1,.23-1,.76s.38.7.84.7A1.37,1.37,0,0,0,424.33,74.68Z"/><path class="cls-13" d="M428.89,74.26h0l.22-.73,1-3h1.47l-2.21,6a1.75,1.75,0,0,1-1.9,1.31,5.66,5.66,0,0,1-.83-.08l-.08-1.13a5,5,0,0,0,.77.06c.47,0,.76-.23.76-.7a2.1,2.1,0,0,0-.14-.69l-1.8-4.76h1.52l1,3Z"/><path class="cls-13" d="M437.45,76A3.42,3.42,0,0,1,434,72.2c0-2.19,1.28-3.84,3.49-3.84a2.9,2.9,0,0,1,3.07,2.38l-1.51.17a1.53,1.53,0,0,0-1.56-1.25c-1.27,0-1.91,1-1.91,2.48s.64,2.5,1.89,2.5c.89,0,1.46-.58,1.65-1.59l1.49.22A3.05,3.05,0,0,1,437.45,76Z"/><path class="cls-13" d="M443.63,70.4a2.61,2.61,0,0,1,2.74,2.77,2.64,2.64,0,0,1-2.74,2.78,2.59,2.59,0,0,1-2.73-2.81A2.62,2.62,0,0,1,443.63,70.4Zm0,4.44c.86,0,1.29-.72,1.29-1.67s-.43-1.66-1.29-1.66-1.29.72-1.29,1.67S442.77,74.83,443.63,74.83Z"/><path class="cls-13" d="M447,75.81V68.5h1.43v7.31Z"/><path class="cls-13" d="M449.21,75.81V68.5h1.43v7.31Z"/><path class="cls-13" d="M456,71.89v2.2a4.11,4.11,0,0,0,.26,1.73h-1.43a3.66,3.66,0,0,1-.14-.54,2.33,2.33,0,0,1-1.71.67,1.57,1.57,0,0,1-1.78-1.57c0-1.07.77-1.47,1.86-1.64a4.52,4.52,0,0,0,1.54-.37v-.23c0-.58-.34-.73-1-.73a.85.85,0,0,0-.94.73L451.35,72c.18-1.2,1.1-1.64,2.38-1.64S456,70.79,456,71.89Zm-1.74,2.79a1.22,1.22,0,0,0,.34-1v-.41a4.12,4.12,0,0,1-1,.27c-.5.1-1,.23-1,.76s.38.7.84.7A1.37,1.37,0,0,0,454.26,74.68Z"/><path class="cls-13" d="M460.25,70.55,460,71.84a1.37,1.37,0,0,0-.59-.14c-1,0-1.19.92-1.19,1.81v2.31h-1.42v-5.3h1.34v.87h0a1.67,1.67,0,0,1,1.42-1A1.36,1.36,0,0,1,460.25,70.55Z"/><path class="cls-13" d="M469.9,75.81h-1.58l-1.09-4.23L467,70.53h0l-.25,1.05-1.07,4.23H464l-1.84-7.31h1.55l1.13,5.06h0l1.3-5.06h1.63l1.27,5.13h0l1.15-5.13h1.53Z"/><path class="cls-13" d="M474,70.4a2.61,2.61,0,0,1,2.74,2.77A2.64,2.64,0,0,1,474,75.95a2.59,2.59,0,0,1-2.73-2.81A2.62,2.62,0,0,1,474,70.4Zm0,4.44c.86,0,1.29-.72,1.29-1.67s-.43-1.66-1.29-1.66-1.29.72-1.29,1.67S473.19,74.83,474,74.83Z"/><path class="cls-13" d="M480.79,70.55l-.21,1.29a1.37,1.37,0,0,0-.59-.14c-1,0-1.19.92-1.19,1.81v2.31h-1.42v-5.3h1.34v.87h0a1.67,1.67,0,0,1,1.42-1A1.36,1.36,0,0,1,480.79,70.55Z"/><path class="cls-13" d="M480.94,75.81V68.5h1.42v3.9l1.74-1.88h1.73l-1.91,1.94L486,75.81h-1.64L483,73.44l-.61.61v1.76Z"/><path class="cls-13" d="M488.37,70.4c1.65,0,2.56,1.16,2.56,2.92,0,.07,0,.15,0,.23h-3.67c0,.88.5,1.33,1.23,1.33a1,1,0,0,0,1-.72l1.34.11a2.31,2.31,0,0,1-2.39,1.68,2.49,2.49,0,0,1-2.64-2.75A2.56,2.56,0,0,1,488.37,70.4Zm-1.1,2.25h2.23a1.07,1.07,0,0,0-1.1-1.18A1.13,1.13,0,0,0,487.27,72.64Z"/><path class="cls-13" d="M494.93,70.55l-.21,1.29a1.37,1.37,0,0,0-.59-.14c-1,0-1.19.92-1.19,1.81v2.31h-1.42v-5.3h1.34v.87h0a1.67,1.67,0,0,1,1.42-1A1.36,1.36,0,0,1,494.93,70.55Z"/><path class="cls-13" d="M494.74,74.2l1.39-.1a1,1,0,0,0,1.12.86c.63,0,1-.25,1-.61s-.18-.42-.67-.54l-1.15-.3c-.8-.23-1.52-.54-1.52-1.45,0-1.09.93-1.66,2.26-1.66s2.16.43,2.34,1.54l-1.35.12c-.08-.49-.44-.69-1-.69s-.89.15-.89.48.17.36.51.45l1,.26c1,.23,1.85.51,1.85,1.58,0,.87-.61,1.81-2.41,1.81C495.91,76,494.89,75.4,494.74,74.2Z"/><polygon class="cls-13" points="384.01 65.26 384.01 80.93 361.18 99.28 361.18 83.62 384.01 65.26"/><polygon class="cls-13" points="338.36 65.26 338.36 80.93 315.53 99.28 315.53 83.62 338.36 65.26"/><polygon class="cls-13" points="338.36 49.6 338.36 65.26 361.18 83.62 361.18 67.95 338.36 49.6"/><polygon class="cls-13" points="292.71 49.6 292.71 65.26 315.53 83.62 315.53 67.95 292.71 49.6"/><rect class="cls-14" x="533.4" y="153.32" width="256.7" height="143.32"/><path class="cls-15" d="M677.13,225.51c0-2.08,1.22-3.83,3.57-3.83a3.8,3.8,0,0,1,0,7.6A3.45,3.45,0,0,1,677.13,225.51Zm5.57,0c0-1.47-.66-2.5-2-2.5s-2,1-2,2.51c0,.87.33,2.48,2,2.48C682,228,682.7,226.93,682.7,225.48Z"/><path class="cls-15" d="M688.31,223.86l-.21,1.29a1.37,1.37,0,0,0-.59-.14c-1,0-1.19.92-1.19,1.81v2.31h-1.42v-5.3h1.34v.87h0a1.67,1.67,0,0,1,1.42-1A1.36,1.36,0,0,1,688.31,223.86Z"/><path class="cls-15" d="M692.9,225.2v2.2a4.11,4.11,0,0,0,.26,1.73h-1.43a3.68,3.68,0,0,1-.14-.54,2.33,2.33,0,0,1-1.71.67,1.57,1.57,0,0,1-1.78-1.57c0-1.07.77-1.47,1.86-1.64a4.52,4.52,0,0,0,1.54-.37v-.23c0-.58-.34-.73-1-.73a.85.85,0,0,0-.94.73l-1.36-.11c.18-1.2,1.1-1.64,2.38-1.64S692.9,224.11,692.9,225.2ZM691.16,228a1.22,1.22,0,0,0,.34-1v-.41a4.1,4.1,0,0,1-1,.27c-.5.1-1,.23-1,.76s.38.7.84.7A1.37,1.37,0,0,0,691.16,228Z"/><path class="cls-15" d="M697.2,225.93c0-.6-.24-1.11-.9-1.11a1,1,0,0,0-1,.68,3.74,3.74,0,0,0-.1,1v2.59h-1.43v-5.3h1.34v.77h0a2,2,0,0,1,1.68-.89c1.46,0,1.86.85,1.86,2.15v3.27H697.2Z"/><path class="cls-15" d="M699.42,229.46l1.52.09c.05.24.19.63.94.63s1.18-.47,1.18-1.23v-.74h0a1.84,1.84,0,0,1-1.59.84c-1.51,0-2.22-1.3-2.22-2.67s.78-2.68,2.26-2.68a1.78,1.78,0,0,1,1.59.85h0v-.73h1.35v4.86c0,1.74-.78,2.51-2.62,2.51C699.74,231.2,699.45,230,699.42,229.46Zm3.65-3c0-1-.4-1.62-1.22-1.62s-1.17.61-1.17,1.54.39,1.6,1.15,1.6S703.07,227.32,703.07,226.41Z"/><path class="cls-15" d="M707.6,223.71c1.65,0,2.56,1.16,2.56,2.92,0,.07,0,.15,0,.23h-3.67c0,.88.5,1.33,1.23,1.33a1,1,0,0,0,1-.72l1.34.11a2.31,2.31,0,0,1-2.39,1.68,2.5,2.5,0,0,1-2.64-2.75A2.56,2.56,0,0,1,707.6,223.71ZM706.5,226h2.23a1.07,1.07,0,0,0-1.1-1.17A1.13,1.13,0,0,0,706.5,226Z"/><path class="cls-15" d="M716.36,229.27a3.42,3.42,0,0,1-3.46-3.75c0-2.19,1.28-3.84,3.49-3.84a2.9,2.9,0,0,1,3.07,2.38l-1.51.17a1.53,1.53,0,0,0-1.56-1.25c-1.27,0-1.91,1-1.91,2.48s.64,2.5,1.89,2.5c.89,0,1.46-.58,1.65-1.59l1.49.22A3.05,3.05,0,0,1,716.36,229.27Z"/><path class="cls-15" d="M722.54,223.71a2.61,2.61,0,0,1,2.74,2.77,2.64,2.64,0,0,1-2.74,2.78,2.59,2.59,0,0,1-2.73-2.81A2.62,2.62,0,0,1,722.54,223.71Zm0,4.44c.86,0,1.29-.72,1.29-1.67s-.43-1.66-1.29-1.66-1.29.72-1.29,1.67S721.68,228.15,722.54,228.15Z"/><path class="cls-15" d="M725.86,229.13v-7.31h1.43v7.31Z"/><path class="cls-15" d="M728.12,229.13v-7.31h1.43v7.31Z"/><path class="cls-15" d="M734.91,225.2v2.2a4.14,4.14,0,0,0,.26,1.73h-1.43a3.8,3.8,0,0,1-.14-.54,2.33,2.33,0,0,1-1.71.67,1.58,1.58,0,0,1-1.78-1.57c0-1.07.77-1.47,1.86-1.64a4.51,4.51,0,0,0,1.54-.37v-.23c0-.58-.34-.73-1-.73a.85.85,0,0,0-.94.73l-1.36-.11c.18-1.2,1.1-1.64,2.38-1.64S734.91,224.11,734.91,225.2ZM733.17,228a1.22,1.22,0,0,0,.34-1v-.41a4.06,4.06,0,0,1-1,.27c-.5.1-1,.23-1,.76s.38.7.84.7A1.37,1.37,0,0,0,733.17,228Z"/><path class="cls-15" d="M739.15,223.86l-.21,1.29a1.37,1.37,0,0,0-.59-.14c-1,0-1.19.92-1.19,1.81v2.31h-1.42v-5.3h1.34v.87h0a1.66,1.66,0,0,1,1.42-1A1.37,1.37,0,0,1,739.15,223.86Z"/><path class="cls-15" d="M748.81,229.13h-1.58l-1.09-4.23-.25-1.05h0l-.25,1.05-1.07,4.23h-1.62l-1.84-7.31h1.55l1.13,5.06h0l1.3-5.06h1.64L748,227h0l1.16-5.13h1.53Z"/><path class="cls-15" d="M753,223.71a2.61,2.61,0,0,1,2.74,2.77,2.64,2.64,0,0,1-2.74,2.78,2.59,2.59,0,0,1-2.73-2.81A2.62,2.62,0,0,1,753,223.71Zm0,4.44c.86,0,1.29-.72,1.29-1.67s-.43-1.66-1.29-1.66-1.29.72-1.29,1.67S752.1,228.15,753,228.15Z"/><path class="cls-15" d="M759.7,223.86l-.21,1.29a1.37,1.37,0,0,0-.59-.14c-1,0-1.19.92-1.19,1.81v2.31h-1.42v-5.3h1.34v.87h0a1.67,1.67,0,0,1,1.42-1A1.36,1.36,0,0,1,759.7,223.86Z"/><path class="cls-15" d="M759.85,229.13v-7.31h1.42v3.89l1.74-1.88h1.73l-1.91,1.94,2.09,3.35h-1.64l-1.39-2.37-.61.61v1.76Z"/><path class="cls-15" d="M767.28,223.71c1.65,0,2.56,1.16,2.56,2.92,0,.07,0,.15,0,.23h-3.67c0,.88.5,1.33,1.23,1.33a1,1,0,0,0,1-.72l1.34.11a2.31,2.31,0,0,1-2.39,1.68,2.5,2.5,0,0,1-2.64-2.75A2.56,2.56,0,0,1,767.28,223.71Zm-1.1,2.25h2.23a1.07,1.07,0,0,0-1.1-1.17A1.13,1.13,0,0,0,766.17,226Z"/><path class="cls-15" d="M773.83,223.86l-.21,1.29A1.37,1.37,0,0,0,773,225c-1,0-1.19.92-1.19,1.81v2.31h-1.42v-5.3h1.34v.87h0a1.66,1.66,0,0,1,1.42-1A1.37,1.37,0,0,1,773.83,223.86Z"/><path class="cls-15" d="M773.64,227.51l1.39-.1a1,1,0,0,0,1.13.86c.63,0,1-.25,1-.61s-.18-.42-.67-.54-.79-.19-1.14-.3c-.8-.24-1.52-.54-1.52-1.45,0-1.09.93-1.66,2.26-1.66s2.16.43,2.34,1.54l-1.35.12c-.08-.49-.44-.69-1-.69s-.89.15-.89.48.17.36.51.45l1,.26c1,.23,1.85.51,1.85,1.58,0,.87-.61,1.81-2.41,1.81C774.82,229.27,773.8,228.72,773.64,227.51Z"/><polygon class="cls-15" points="650.71 218.58 650.71 234.24 627.89 252.6 627.89 236.93 650.71 218.58"/><polygon class="cls-15" points="605.06 218.58 605.06 234.24 582.23 252.6 582.23 236.93 605.06 218.58"/><polygon class="cls-15" points="605.06 202.92 605.06 218.58 627.89 236.93 627.89 221.27 605.06 202.92"/><polygon class="cls-15" points="559.41 202.92 559.41 218.58 582.23 236.93 582.23 221.27 559.41 202.92"/><rect class="cls-16" x="533.4" width="256.7" height="143.32"/><path class="cls-17" d="M677.43,75.81V68.5h3.22c1.31,0,2.54.42,2.54,1.85a1.63,1.63,0,0,1-1,1.53,1.77,1.77,0,0,1,1.37,1.81c0,1.42-1.17,2.12-2.51,2.12Zm3.37-4.39a.86.86,0,0,0,.9-.85c0-.58-.38-.84-1.15-.84H679v1.7Zm0,3.15c.61,0,1.13-.28,1.13-1s-.64-1-1.25-1H679v2Z"/><path class="cls-17" d="M684.18,75.81V68.5h1.43v7.31Z"/><path class="cls-17" d="M691,71.89v2.2a4.14,4.14,0,0,0,.26,1.73h-1.43a3.78,3.78,0,0,1-.14-.54,2.33,2.33,0,0,1-1.71.67,1.57,1.57,0,0,1-1.78-1.57c0-1.07.77-1.47,1.86-1.64a4.51,4.51,0,0,0,1.54-.37v-.23c0-.58-.34-.73-1-.73a.85.85,0,0,0-.94.73L686.31,72c.18-1.2,1.1-1.64,2.38-1.64S691,70.79,691,71.89Zm-1.74,2.79a1.22,1.22,0,0,0,.34-1v-.41a4.08,4.08,0,0,1-1,.27c-.5.1-1,.23-1,.76s.38.7.84.7A1.37,1.37,0,0,0,689.23,74.68Z"/><path class="cls-17" d="M694.06,75.95a2.78,2.78,0,0,1,0-5.55,2.2,2.2,0,0,1,2.43,1.84l-1.4.12a1,1,0,0,0-1-.87c-.82,0-1.2.69-1.2,1.65s.38,1.7,1.19,1.7c.6,0,1-.36,1.08-1l1.39.11A2.32,2.32,0,0,1,694.06,75.95Z"/><path class="cls-17" d="M697.1,75.81V68.5h1.42v3.9l1.74-1.88H702l-1.91,1.94,2.09,3.35h-1.64l-1.39-2.37-.61.61v1.76Z"/><path class="cls-17" d="M708,76a3.42,3.42,0,0,1-3.46-3.75c0-2.19,1.28-3.84,3.49-3.84a2.9,2.9,0,0,1,3.07,2.38l-1.51.17A1.53,1.53,0,0,0,708,69.67c-1.27,0-1.91,1-1.91,2.48s.64,2.5,1.89,2.5c.89,0,1.46-.58,1.65-1.59l1.49.22A3.05,3.05,0,0,1,708,76Z"/><path class="cls-17" d="M714.19,70.4a2.61,2.61,0,0,1,2.74,2.77,2.64,2.64,0,0,1-2.74,2.78,2.58,2.58,0,0,1-2.73-2.81A2.62,2.62,0,0,1,714.19,70.4Zm0,4.44c.86,0,1.29-.72,1.29-1.67s-.43-1.66-1.29-1.66-1.29.72-1.29,1.67S713.33,74.83,714.19,74.83Z"/><path class="cls-17" d="M717.52,75.81V68.5h1.43v7.31Z"/><path class="cls-17" d="M719.77,75.81V68.5h1.43v7.31Z"/><path class="cls-17" d="M726.56,71.89v2.2a4.14,4.14,0,0,0,.26,1.73h-1.43a3.78,3.78,0,0,1-.14-.54,2.33,2.33,0,0,1-1.71.67,1.57,1.57,0,0,1-1.78-1.57c0-1.07.77-1.47,1.86-1.64a4.51,4.51,0,0,0,1.54-.37v-.23c0-.58-.34-.73-1-.73a.85.85,0,0,0-.94.73L721.91,72c.18-1.2,1.1-1.64,2.38-1.64S726.56,70.79,726.56,71.89Zm-1.74,2.79a1.22,1.22,0,0,0,.34-1v-.41a4.08,4.08,0,0,1-1,.27c-.5.1-1,.23-1,.76s.38.7.84.7A1.37,1.37,0,0,0,724.82,74.68Z"/><path class="cls-17" d="M730.8,70.55l-.21,1.29a1.38,1.38,0,0,0-.59-.14c-1,0-1.19.92-1.19,1.81v2.31h-1.42v-5.3h1.34v.87h0a1.66,1.66,0,0,1,1.42-1A1.36,1.36,0,0,1,730.8,70.55Z"/><path class="cls-17" d="M740.46,75.81h-1.58l-1.09-4.23-.25-1.05h0l-.25,1.05-1.07,4.23h-1.62l-1.84-7.31h1.55l1.13,5.06h0l1.3-5.06h1.64l1.27,5.13h0l1.16-5.13h1.53Z"/><path class="cls-17" d="M744.61,70.4a2.61,2.61,0,0,1,2.74,2.77,2.64,2.64,0,0,1-2.74,2.78,2.59,2.59,0,0,1-2.73-2.81A2.62,2.62,0,0,1,744.61,70.4Zm0,4.44c.86,0,1.29-.72,1.29-1.67s-.43-1.66-1.29-1.66-1.29.72-1.29,1.67S743.75,74.83,744.61,74.83Z"/><path class="cls-17" d="M751.35,70.55l-.21,1.29a1.37,1.37,0,0,0-.59-.14c-1,0-1.19.92-1.19,1.81v2.31h-1.42v-5.3h1.34v.87h0a1.67,1.67,0,0,1,1.42-1A1.35,1.35,0,0,1,751.35,70.55Z"/><path class="cls-17" d="M751.5,75.81V68.5h1.42v3.9l1.74-1.88h1.73l-1.91,1.94,2.09,3.35h-1.64l-1.39-2.37-.61.61v1.76Z"/><path class="cls-17" d="M758.93,70.4c1.65,0,2.56,1.16,2.56,2.92,0,.07,0,.15,0,.23H757.8c0,.88.5,1.33,1.23,1.33a1,1,0,0,0,1-.72l1.34.11A2.31,2.31,0,0,1,759,75.95a2.5,2.5,0,0,1-2.64-2.75A2.56,2.56,0,0,1,758.93,70.4Zm-1.1,2.25h2.23a1.07,1.07,0,0,0-1.1-1.18A1.13,1.13,0,0,0,757.82,72.64Z"/><path class="cls-17" d="M765.49,70.55l-.21,1.29a1.38,1.38,0,0,0-.59-.14c-1,0-1.19.92-1.19,1.81v2.31h-1.42v-5.3h1.34v.87h0a1.66,1.66,0,0,1,1.42-1A1.36,1.36,0,0,1,765.49,70.55Z"/><path class="cls-17" d="M765.29,74.2l1.39-.1a1,1,0,0,0,1.13.86c.63,0,1-.25,1-.61s-.18-.42-.67-.54L767,73.5c-.8-.23-1.52-.54-1.52-1.45,0-1.09.93-1.66,2.26-1.66s2.16.43,2.34,1.54l-1.35.12c-.08-.49-.44-.69-1-.69s-.89.15-.89.48.17.36.51.45l1,.26c1,.23,1.85.51,1.85,1.58,0,.87-.61,1.81-2.41,1.81C766.47,76,765.45,75.4,765.29,74.2Z"/><polygon class="cls-17" points="650.71 64.21 650.71 79.87 627.88 98.22 627.88 82.56 650.71 64.21"/><polygon class="cls-17" points="605.06 64.21 605.06 79.87 582.23 98.22 582.23 82.56 605.06 64.21"/><polygon class="cls-17" points="605.06 48.55 605.06 64.21 627.88 82.56 627.88 66.9 605.06 48.55"/><polygon class="cls-17" points="559.41 48.55 559.41 64.21 582.23 82.56 582.23 66.9 559.41 48.55"/></g></g></svg>