<svg xmlns="http://www.w3.org/2000/svg" viewBox="0 0 840.47 559.34"><defs><style>.cls-1{fill:none;}.cls-2{fill:#0a0000;}</style></defs><title>collab_letters_1</title><g id="Layer_2" data-name="Layer 2"><g id="Layer_1-2" data-name="Layer 1"><rect class="cls-1" width="840.47" height="559.34"/><path class="cls-2" d="M333.28,54.41a25.15,25.15,0,1,0,25.15,25.15A25.15,25.15,0,0,0,333.28,54.41Zm9.89,46.35c-8.95,4.17-20.63-1.94-26.09-13.64s-2.63-24.58,6.32-28.75S344,60.3,349.48,72,352.11,96.59,343.16,100.76Z"/><path class="cls-2" d="M538.5,54.41a25.15,25.15,0,1,0,25.15,25.15A25.15,25.15,0,0,0,538.5,54.41Zm9.89,46.35c-8.95,4.17-20.63-1.94-26.09-13.64s-2.63-24.58,6.32-28.75S549.24,60.3,554.7,72,557.34,96.59,548.39,100.76Z"/><path class="cls-2" d="M308.13,41.88V31.07l-4.29,4.29a38.59,38.59,0,0,0-61.9,30.76c0,23.89,17.28,38.59,38.59,38.59a38.47,38.47,0,0,0,27.28-11.3L305.32,92a24.56,24.56,0,0,1-9.22,7.5c-14.8,6.9-33.77-2.45-42.37-20.89s-3.57-39,11.23-45.89c12-5.59,28.54-2,43.07,21.1Z"/><polygon class="cls-2" points="368.27 27.53 356.55 34 362.39 34 362.39 99.13 356.55 104.71 362.39 104.71 373.62 104.71 368.27 99.2 368.27 27.53"/><polygon class="cls-2" points="387.19 27.53 375.47 34 381.31 34 381.31 99.13 375.47 104.71 381.31 104.71 392.54 104.71 387.19 99.2 387.19 27.53"/><path class="cls-2" d="M677.43,29V51.48h35.19v2.93H677.43V77.3a27.82,27.82,0,0,0,5.49,16.8c4.4,5.82,11.86,10.88,23.89,6.66,7.33-2.57,10.29-12,8.7-21.2h6.57a25.15,25.15,0,0,1-50.3,0V54.41H661.35l10.42-5.72V34Z"/><path class="cls-2" d="M483.61,54.41A25.11,25.11,0,0,0,463.3,64.73V34.1H470l-11.85-6.57-.23.23v70l-7,7H463.3V94.39a25.15,25.15,0,1,0,20.31-40Zm9.89,46.35c-8.95,4.17-20.63-1.94-26.09-13.64s-2.63-24.58,6.32-28.75S494.35,60.3,499.81,72,502.44,96.59,493.49,100.76Z"/><path class="cls-2" d="M441.89,86.62h0V79.53h0A25.15,25.15,0,0,0,399,61.78l5.3,3.75c5.42-7.06,13.47-10.49,20.48-7.94,6.36,2.32,10.21,9,10.58,16.83-4.6-3.63-11.22-5.9-18.58-5.9-13.89,0-25.15,8.1-25.15,18.1s11.26,18.1,25.15,18.1c7.4,0,14.06-2.3,18.66-6v6h13.48l-7-7Zm-15.47,14.62c-8.76,2.88-20.19-.77-25.54-9.2S398.3,74.86,407.06,72s20.19.77,25.54,9.2S435.18,98.36,426.42,101.24Z"/><path class="cls-2" d="M664,86.62h0V79.53h0A25.15,25.15,0,0,0,621.1,61.78l5.3,3.75c5.42-7.06,13.47-10.49,20.48-7.94,6.36,2.32,10.21,9,10.58,16.83-4.6-3.63-11.22-5.9-18.58-5.9-13.89,0-25.15,8.1-25.15,18.1s11.26,18.1,25.15,18.1c7.4,0,14.06-2.3,18.66-6v6H671l-7-7Zm-15.47,14.62c-8.76,2.88-20.19-.77-25.54-9.2S620.45,74.86,629.21,72s20.19.77,25.54,9.2S657.32,98.36,648.56,101.24Z"/><path class="cls-2" d="M578.16,61.78l-.1.11V54.41h-5l-7,7h7V97.72l-7,7h19l-7-7V69.62c1.42-5.69,4.86-10.22,9.88-12,9.28-3.38,20.38,3.73,24.8,15.87l1-11.67A25.15,25.15,0,0,0,578.16,61.78Z"/><path class="cls-2" d="M777.43,74.95,771,78.09c2.22,9.79-1,19.21-8.4,22.67-8.61,4-19.74-1.49-25.43-12.33l38.92-18.16a25.09,25.09,0,1,0,1.35,4.68ZM742.82,58.36c8.61-4,19.74,1.49,25.43,12.33L735.92,85.77C731.27,74.44,734.21,62.37,742.82,58.36Z"/><path class="cls-2" d="M82.49,167.54h4.25V174h6v-6.5H97V184.7H92.77v-7.15h-6v7.15H82.49Z"/><path class="cls-2" d="M98.21,178.54a6.19,6.19,0,0,1,6.31-6.48,6,6,0,0,1,4.2,1.54,7.81,7.81,0,0,1,2.16,6h-8.83c.24,1.66,1.15,2.69,2.76,2.69a2,2,0,0,0,2-1.22h3.82a5,5,0,0,1-2.06,2.9,6.5,6.5,0,0,1-3.84,1.13A6.22,6.22,0,0,1,98.21,178.54Zm8.71-1.3a2.37,2.37,0,0,0-2.33-2.4c-1.49,0-2.26.94-2.52,2.4Z"/><path class="cls-2" d="M111.27,181.27c0-2.71,2.16-3.53,4.7-3.86,2.3-.29,3.12-.53,3.12-1.37s-.5-1.32-1.68-1.32-1.87.55-2,1.58h-3.6c.1-2.28,1.85-4.22,5.57-4.22a6.4,6.4,0,0,1,4,1,4.07,4.07,0,0,1,1.56,3.5v6.19c0,1,.1,1.54.43,1.75v.17h-3.79a3.42,3.42,0,0,1-.41-1.37h0a4,4,0,0,1-3.65,1.68C113,185,111.27,183.7,111.27,181.27Zm7.92-1v-1.46a9.47,9.47,0,0,1-2,.65c-1.51.34-2.14.72-2.14,1.66s.72,1.37,1.68,1.37A2.23,2.23,0,0,0,119.19,180.31Z"/><path class="cls-2" d="M123.92,178.56c0-3.84,2.21-6.5,5.38-6.5a3.83,3.83,0,0,1,3.43,1.75h.07v-6.26h3.91V184.7H133V183h0a4,4,0,0,1-3.62,2C126.15,185.09,123.92,182.66,123.92,178.56Zm9,0c0-2.06-.84-3.55-2.54-3.55s-2.47,1.44-2.47,3.5.91,3.48,2.42,3.48S132.89,180.58,132.89,178.56Z"/><path class="cls-2" d="M137.67,178.54a6.19,6.19,0,0,1,6.31-6.48,6,6,0,0,1,4.2,1.54,7.82,7.82,0,0,1,2.16,6h-8.83c.24,1.66,1.15,2.69,2.76,2.69a2,2,0,0,0,2-1.22h3.82a5,5,0,0,1-2.06,2.9,6.5,6.5,0,0,1-3.84,1.13A6.22,6.22,0,0,1,137.67,178.54Zm8.71-1.3a2.37,2.37,0,0,0-2.33-2.4c-1.49,0-2.26.94-2.52,2.4Z"/><path class="cls-2" d="M151.3,172.42H155v1.92h.07a3.63,3.63,0,0,1,3.36-2.11,2.06,2.06,0,0,1,.77.1v3.36h-.1c-2.4-.34-3.94.84-3.94,3.5v5.52H151.3Z"/><path class="cls-2" d="M159.39,180.72h3.7a2,2,0,0,0,2.26,1.82c1.18,0,1.92-.43,1.92-1.22,0-1.1-1.49-1.22-3.12-1.51-2.14-.36-4.42-.94-4.42-3.82,0-2.59,2.4-3.94,5.3-3.94,3.48,0,5.35,1.51,5.54,3.94H167c-.14-1.1-.89-1.44-2-1.44s-1.7.36-1.7,1.13,1.39,1,3,1.27c2.16.36,4.7.91,4.7,4.06,0,2.69-2.38,4.08-5.59,4.08C161.76,185.09,159.51,183.43,159.39,180.72Z"/><path class="cls-2" d="M71.53,28.59h4.25V42.16h7.7v3.6h-12Z"/><path class="cls-2" d="M83.82,39.64a6.56,6.56,0,0,1,13.13,0,6.56,6.56,0,0,1-13.13,0Zm9.17,0c0-2.23-.91-3.74-2.62-3.74s-2.59,1.51-2.59,3.74.89,3.72,2.59,3.72S93,41.87,93,39.64Z"/><path class="cls-2" d="M97.62,46h3.79c.22.65.86,1.2,2.16,1.2a2.08,2.08,0,0,0,2.35-2.35V43.67h-.1a3.92,3.92,0,0,1-3.14,1.42c-2.76,0-5.33-2.06-5.33-5.83,0-3.6,2.11-6.14,5.16-6.14A3.94,3.94,0,0,1,106,34.79h0V33.47h3.74V44.56a5.27,5.27,0,0,1-1.63,4.08A6.72,6.72,0,0,1,103.62,50C100.24,50,98,48.61,97.62,46Zm8.47-6.94c0-1.66-.86-3-2.5-3-1.46,0-2.42,1.2-2.42,3.07s1,3,2.42,3C105.3,42.18,106.09,40.84,106.09,39.11Z"/><path class="cls-2" d="M110.72,39.64a6.56,6.56,0,0,1,13.13,0,6.56,6.56,0,0,1-13.13,0Zm9.17,0c0-2.23-.91-3.74-2.62-3.74s-2.59,1.51-2.59,3.74.89,3.72,2.59,3.72S119.89,41.87,119.89,39.64Z"/><path class="cls-2" d="M125.53,42.52v-6.6H123.9V33.47h1.63V29.58h3.82v3.89h2.23v2.45h-2.23v5.76c0,1,.53,1.2,1.37,1.2l.86,0v2.86a9,9,0,0,1-2.14.19C127.16,45.9,125.53,45.16,125.53,42.52Z"/><path class="cls-2" d="M133.4,46.76h1.34c1.15,0,1.61-.46,1.61-1.3a8.24,8.24,0,0,0-.74-2.54L132,33.47h4.13l1.66,5.23c.38,1.2.77,2.83.77,2.83h0s.34-1.63.72-2.83l1.61-5.23h3.91l-4.25,12.46c-1,2.88-2.16,3.89-4.63,3.89H133.4Z"/><path class="cls-2" d="M145.33,33.47h3.74V35h.07a4.47,4.47,0,0,1,3.72-1.85c3.26,0,5.26,2.81,5.26,6.5,0,4-2.14,6.53-5.35,6.53a4.09,4.09,0,0,1-3.48-1.66h0v5.33h-3.91Zm8.83,6.29c0-2.11-.79-3.5-2.47-3.5s-2.57,1.51-2.57,3.5,1,3.36,2.64,3.36C153.25,43.12,154.16,41.84,154.16,39.76Z"/><path class="cls-2" d="M158.53,39.59a6.19,6.19,0,0,1,6.31-6.48,6,6,0,0,1,4.2,1.54,7.82,7.82,0,0,1,2.16,6h-8.83c.24,1.66,1.15,2.69,2.76,2.69a2,2,0,0,0,2-1.22H171a5,5,0,0,1-2.06,2.9,6.5,6.5,0,0,1-3.84,1.13A6.22,6.22,0,0,1,158.53,39.59Zm8.71-1.3a2.37,2.37,0,0,0-2.33-2.4c-1.49,0-2.26.94-2.52,2.4Z"/><path class="cls-2" d="M67.35,410h8.28a6.18,6.18,0,0,1,4,1.18,4.07,4.07,0,0,1,1.49,3.29,3.37,3.37,0,0,1-2.4,3.36v.07a4.24,4.24,0,0,1,3.07,4.2A4.54,4.54,0,0,1,80,425.94a6.7,6.7,0,0,1-4.22,1.22H67.35ZM75,416.79c1.22,0,2.06-.6,2.06-1.73s-.79-1.7-2-1.7H71.55v3.43Zm.34,7a2,2,0,0,0,2.26-2,2,2,0,0,0-2.3-2.06H71.55v4.08Z"/><path class="cls-2" d="M82.54,421a6.56,6.56,0,1,1,6.58,6.5A6.3,6.3,0,0,1,82.54,421Zm9.17,0c0-2.23-.91-3.74-2.62-3.74S86.5,418.81,86.5,421s.89,3.72,2.59,3.72S91.71,423.27,91.71,421Z"/><path class="cls-2" d="M96.08,421c0-3.84,2.21-6.5,5.38-6.5a3.83,3.83,0,0,1,3.43,1.75H105V410h3.91v17.16h-3.74V425.5h0a4,4,0,0,1-3.62,2C98.31,427.54,96.08,425.12,96.08,421Zm9,0c0-2.06-.84-3.55-2.54-3.55S100,418.9,100,421s.91,3.48,2.42,3.48S105.05,423,105.05,421Z"/><path class="cls-2" d="M110.79,428.17h1.34c1.15,0,1.61-.46,1.61-1.3a8.24,8.24,0,0,0-.74-2.54l-3.62-9.46h4.13l1.66,5.23c.38,1.2.77,2.83.77,2.83h0s.34-1.63.72-2.83l1.61-5.23h3.91L118,427.33c-1,2.88-2.16,3.89-4.63,3.89h-2.54Z"/><path class="cls-2" d="M130.54,413.6h-5V410h14.28v3.6h-5v13.56h-4.25Z"/><path class="cls-2" d="M137.38,421a6.19,6.19,0,0,1,6.31-6.48,6,6,0,0,1,4.2,1.54,7.81,7.81,0,0,1,2.16,6h-8.83c.24,1.66,1.15,2.69,2.76,2.69a2,2,0,0,0,2-1.22h3.82a5,5,0,0,1-2.06,2.9,6.5,6.5,0,0,1-3.84,1.13A6.22,6.22,0,0,1,137.38,421Zm8.71-1.3a2.37,2.37,0,0,0-2.33-2.4c-1.49,0-2.26.94-2.52,2.4Z"/><path class="cls-2" d="M153.68,420.7l-3.86-5.83h4.46L156.1,418h0l1.73-3.17H162l-3.65,5.78,4.18,6.5H158l-2-3.67h0l-2.23,3.67H149.4Z"/><path class="cls-2" d="M163.73,423.92v-6.6H162.1v-2.45h1.63V411h3.82v3.89h2.23v2.45h-2.23v5.76c0,1,.53,1.2,1.37,1.2l.86,0v2.86a9,9,0,0,1-2.14.19C165.36,427.3,163.73,426.56,163.73,423.92Z"/><path class="cls-2" d="M244.95,166.46h14.63L276,194.61h.14V166.46h14.14v50.06H275.12l-15.89-28.35h-.14v28.35H244.95Z"/><path class="cls-2" d="M293.46,198.6c0-10.78,7.77-19,19-19a18.71,18.71,0,0,1,13.16,4.83c4.34,4,6.37,10.36,6.23,17.43H306.41c.77,4.13,3,6.65,7,6.65a5.28,5.28,0,0,0,5-2.66h12.81c-.77,3.22-3.29,6.37-6.79,8.61a20.14,20.14,0,0,1-11.41,3C301.3,217.5,293.46,209.52,293.46,198.6Zm13-3.71h12.32c-.56-4-2.8-6.37-6-6.37C309.14,188.52,307.11,191,306.41,194.89Z"/><path class="cls-2" d="M358.28,216.52V211.9h-.21a13,13,0,0,1-11.13,5.74c-8.54,0-12.74-5.6-12.74-13.79v-23h13.23V200.7c0,3.71,1.61,5.67,4.76,5.67,3.43,0,5.46-2.45,5.46-6.3V180.82h13.23v35.7Z"/><path class="cls-2" d="M373.47,198.6c0-10.78,7.77-19,19-19a18.71,18.71,0,0,1,13.16,4.83c4.34,4,6.37,10.36,6.23,17.43H386.42c.77,4.13,3,6.65,7,6.65a5.28,5.28,0,0,0,5-2.66H411.2c-.77,3.22-3.29,6.37-6.79,8.61a20.14,20.14,0,0,1-11.41,3C381.31,217.5,373.47,209.52,373.47,198.6Zm13-3.71h12.32c-.56-4-2.8-6.37-6-6.37C389.15,188.52,387.12,191,386.42,194.89Z"/><path class="cls-2" d="M424.85,166.46h14.63v18.34h15.4V166.46h14.63v50.06H454.88v-19.6h-15.4v19.6H424.85Z"/><path class="cls-2" d="M495.41,212.6h-.14c-2.38,3.29-6.16,4.83-10.78,4.83-6.86,0-11.9-3.71-11.9-10.71,0-7.91,6.09-10.22,13-11,7.56-.84,9.59-1.75,9.59-4,0-2-.91-3.43-3.78-3.43s-4.34,1.68-4.69,4.27H474.13c.28-7.07,5.74-12.88,16.94-12.88,5.46,0,9,.7,11.69,2.38,3.71,2.31,5.53,6,5.53,10.71v17.85c0,3,.21,4.62,1.33,5.32v.56h-13A10.37,10.37,0,0,1,495.41,212.6Zm.07-9v-3.15a21.74,21.74,0,0,1-5.11,1.68c-3.85.84-5,2-5,4.06,0,2.38,2,3.43,4.13,3.43C492.54,209.59,495.48,207.84,495.48,203.57Z"/><path class="cls-2" d="M533.84,212.6h-.14c-2.38,3.29-6.16,4.83-10.78,4.83-6.86,0-11.9-3.71-11.9-10.71,0-7.91,6.09-10.22,13-11,7.56-.84,9.59-1.75,9.59-4,0-2-.91-3.43-3.78-3.43s-4.34,1.68-4.69,4.27H512.56c.28-7.07,5.74-12.88,16.94-12.88,5.46,0,9,.7,11.69,2.38,3.71,2.31,5.53,6,5.53,10.71v17.85c0,3,.21,4.62,1.33,5.32v.56H535A10.37,10.37,0,0,1,533.84,212.6Zm.07-9v-3.15a21.74,21.74,0,0,1-5.11,1.68c-3.85.84-5,2-5,4.06,0,2.38,2,3.43,4.13,3.43C531,209.59,533.91,207.84,533.91,203.57Z"/><path class="cls-2" d="M549,205h12.67c.21,2.94,2,4.69,5.39,4.69,2.59,0,4.55-.91,4.55-3.08,0-2.94-4.13-3.29-8.75-4-6-.91-13-2.52-13-11.48,0-7.35,7.49-11.41,16.24-11.41,10.85,0,16.52,4.06,17,11.06H570.66c-.35-2.66-2.31-3.22-4.48-3.22-2,0-3.78.77-3.78,2.59,0,2,3.29,2.45,7.35,3,6.51.91,14.77,2.38,14.77,12.32,0,8.54-7.77,12.25-17.57,12.25C556.38,217.71,549,213.16,549,205Z"/><path class="cls-2" d="M597.33,166.46h25.9c4.9,0,8.54,1.19,11.2,3.22a12.08,12.08,0,0,1,4.76,9.87c0,4.76-2,7.77-6.23,9.59v.21a12.13,12.13,0,0,1,8.61,12c0,5.39-2.17,9.45-5.74,12-3,2.1-6.93,3.15-12.11,3.15H597.33Zm23.45,19.46c2.8,0,4.69-1.33,4.69-4s-2-4.13-4.76-4.13h-9v8.12ZM622.11,205c3.15,0,5.32-1.89,5.32-4.9,0-3.22-2.38-4.83-5.39-4.83H611.68V205Z"/><path class="cls-2" d="M643.95,166.46h13.58v50.06H643.95Z"/><path class="cls-2" d="M682.8,212.6h-.14c-2.38,3.29-6.16,4.83-10.78,4.83-6.86,0-11.9-3.71-11.9-10.71,0-7.91,6.09-10.22,13-11,7.56-.84,9.59-1.75,9.59-4,0-2-.91-3.43-3.78-3.43S674.4,190,674,192.58H661.51c.28-7.07,5.74-12.88,16.94-12.88,5.46,0,9,.7,11.69,2.38,3.71,2.31,5.53,6,5.53,10.71v17.85c0,3,.21,4.62,1.33,5.32v.56H684A10.35,10.35,0,0,1,682.8,212.6Zm.07-9v-3.15a21.75,21.75,0,0,1-5.11,1.68c-3.85.84-5,2-5,4.06,0,2.38,2,3.43,4.13,3.43C679.93,209.59,682.87,207.84,682.87,203.57Z"/><path class="cls-2" d="M698.54,198.74c0-10.85,7.84-19,19.6-19,10.08,0,16.8,6,17.71,14.28H723.12c-.7-3.22-2.24-5-5.11-5-4.06,0-6,3.71-6,9.73s2.1,9.59,6.16,9.59c3.22,0,4.83-2.17,5.18-6.23h12.74c0,8.82-7.21,15.54-17.92,15.54C706.38,217.64,698.54,209.59,698.54,198.74Z"/><path class="cls-2" d="M754.2,203.71l-2.73,3v9.8h-13V166.46h13v25l8.61-10.64h14.84L763,194l13.3,22.54h-15Z"/><path class="cls-2" d="M245.37,234.46h12.46l14.84,25.13c.77,1.4,3.43,6.37,3.43,6.37h.14s-.14-6-.14-7.77V234.46h12.11v50.06H275.75l-14.7-24.78c-.84-1.33-3.57-6.72-3.57-6.72h-.14s.14,6.44.14,8.19v23.31H245.37Z"/><path class="cls-2" d="M292.06,266.53c0-10.71,7.49-18.9,18.41-18.9a17.62,17.62,0,0,1,12.25,4.48c4.27,3.92,6.37,10.15,6.3,17.43H303.26c.7,4.83,3.36,7.84,8.05,7.84,3,0,5-1.33,6-3.57h11.13a14.59,14.59,0,0,1-6,8.47,19,19,0,0,1-11.2,3.29C299.34,285.57,292.06,277.38,292.06,266.53Zm25.41-3.78c-.42-4.27-3.08-7-6.79-7-4.34,0-6.58,2.73-7.35,7Z"/><path class="cls-2" d="M331.89,272.2V248.68h11.34v21.14c0,3.92,1.75,6.09,5.39,6.09,3.92,0,6.3-2.94,6.3-7.21v-20h11.41v35.84H355.41v-4.41h-.21a12.25,12.25,0,0,1-10.71,5.46C336.23,285.57,331.89,280.18,331.89,272.2Z"/><path class="cls-2" d="M369.48,266.53c0-10.71,7.49-18.9,18.41-18.9a17.62,17.62,0,0,1,12.25,4.48c4.27,3.92,6.37,10.15,6.3,17.43H380.68c.7,4.83,3.36,7.84,8.05,7.84,3,0,5-1.33,6-3.57h11.13a14.59,14.59,0,0,1-6,8.47,19,19,0,0,1-11.2,3.29C376.76,285.57,369.48,277.38,369.48,266.53Zm25.41-3.78c-.42-4.27-3.08-7-6.79-7-4.34,0-6.58,2.73-7.35,7Z"/><path class="cls-2" d="M420.44,234.46h12.39v19H450.4v-19h12.39v50.06H450.4V263.66H432.83v20.86H420.44Z"/><path class="cls-2" d="M466.57,274.51c0-7.91,6.3-10.29,13.72-11.27,6.72-.84,9.1-1.54,9.1-4s-1.47-3.85-4.9-3.85c-3.64,0-5.46,1.61-5.81,4.62h-10.5c.28-6.65,5.39-12.32,16.24-12.32,5.39,0,9,1,11.62,2.94,3.08,2.24,4.55,5.74,4.55,10.22v18.06c0,2.87.28,4.48,1.26,5.11v.49H490.79a10,10,0,0,1-1.19-4h-.14c-2.1,3-5.25,4.9-10.64,4.9C471.68,285.43,466.57,281.58,466.57,274.51Zm23.1-2.8v-4.27a27.65,27.65,0,0,1-5.88,1.89c-4.41,1-6.23,2.1-6.23,4.83s2.1,4,4.9,4C486.73,278.15,489.67,275.56,489.67,271.71Z"/><path class="cls-2" d="M503.74,274.51c0-7.91,6.3-10.29,13.72-11.27,6.72-.84,9.1-1.54,9.1-4s-1.47-3.85-4.9-3.85c-3.64,0-5.46,1.61-5.81,4.62h-10.5c.28-6.65,5.39-12.32,16.24-12.32,5.39,0,9,1,11.62,2.94,3.08,2.24,4.55,5.74,4.55,10.22v18.06c0,2.87.28,4.48,1.26,5.11v.49H528a10,10,0,0,1-1.19-4h-.14c-2.1,3-5.25,4.9-10.64,4.9C508.85,285.43,503.74,281.58,503.74,274.51Zm23.1-2.8v-4.27a27.67,27.67,0,0,1-5.88,1.89c-4.41,1-6.23,2.1-6.23,4.83s2.1,4,4.9,4C523.9,278.15,526.84,275.56,526.84,271.71Z"/><path class="cls-2" d="M540.41,272.9H551.2c.42,3.57,2.8,5.32,6.58,5.32,3.43,0,5.6-1.26,5.6-3.57,0-3.22-4.34-3.57-9.1-4.41-6.23-1.05-12.88-2.73-12.88-11.13,0-7.56,7-11.48,15.47-11.48,10.15,0,15.61,4.41,16.17,11.48h-10.5c-.42-3.22-2.59-4.2-5.74-4.2-2.8,0-5,1.05-5,3.29,0,2.52,4.06,2.87,8.61,3.71,6.3,1,13.72,2.66,13.72,11.83,0,7.84-6.93,11.9-16.31,11.9C547.35,285.64,540.76,280.81,540.41,272.9Z"/><path class="cls-2" d="M588,234.46h24.15c5.18,0,9,1.26,11.69,3.43a11.88,11.88,0,0,1,4.34,9.59c0,5-2.59,8.12-7,9.8v.21a12.38,12.38,0,0,1,9,12.25c0,5-1.82,8.68-5.11,11.2-2.94,2.31-7.07,3.57-12.32,3.57H588Zm22.33,19.81c3.57,0,6-1.75,6-5s-2.31-5-6-5H600.27v10Zm1,20.3c4.06,0,6.58-2.31,6.58-5.88,0-4-2.94-6-6.72-6H600.27v11.9Z"/><path class="cls-2" d="M632.67,266.67c0-10.78,7.7-19,19.18-19s19.11,8.19,19.11,19-7.56,19-19.11,19S632.67,277.45,632.67,266.67Zm26.74,0c0-6.51-2.66-10.92-7.63-10.92s-7.56,4.41-7.56,10.92,2.59,10.85,7.56,10.85S659.42,273.18,659.42,266.67Z"/><path class="cls-2" d="M674.18,234.46h11.55v50.06H674.18Z"/><path class="cls-2" d="M689,266.6c0-11.2,6.44-19,15.68-19a11.17,11.17,0,0,1,10,5.11h.21V234.46h11.41v50.06H715.35v-4.83h-.14a11.81,11.81,0,0,1-10.57,6C695.46,285.64,689,278.57,689,266.6Zm26.18,0c0-6-2.45-10.36-7.42-10.36-4.55,0-7.21,4.2-7.21,10.22,0,6.23,2.66,10.15,7.07,10.15C712.33,276.61,715.13,272.48,715.13,266.6Z"/><path class="cls-2" d="M245.79,302.46h10.29l16.66,27.93c1.61,2.73,3.5,7,3.5,7h.14s-.28-5.18-.28-8.68V302.46h10v50.06h-9.8l-17.08-27.65c-1.61-2.66-3.57-6.93-3.57-6.93h-.14s.28,5.25.28,8.75v25.83h-10Z"/><path class="cls-2" d="M290.59,334.53c0-10.64,7.21-18.9,17.71-18.9,11.55,0,17.71,8.82,17.71,21.63H300c.7,5.53,3.78,9,9.17,9,3.71,0,5.88-1.68,6.93-4.41h9.38c-1.33,6.37-7,11.76-16.24,11.76C297.31,353.57,290.59,345.24,290.59,334.53Zm9.52-3.85h16c-.28-4.55-3.29-7.7-7.63-7.7C303.4,323,300.95,326,300.11,330.68Z"/><path class="cls-2" d="M352.4,352.52v-4.2h-.21a11.53,11.53,0,0,1-10.29,5.18c-8,0-12.46-5.11-12.46-13V316.61h9.45v22.33c0,4.2,1.89,6.51,6,6.51,4.48,0,7.21-3.36,7.21-8.12V316.61h9.52v35.91Z"/><path class="cls-2" d="M365.28,334.53c0-10.64,7.21-18.9,17.71-18.9,11.55,0,17.71,8.82,17.71,21.63h-26c.7,5.53,3.78,9,9.17,9,3.71,0,5.88-1.68,6.93-4.41h9.38c-1.33,6.37-7,11.76-16.24,11.76C372,353.57,365.28,345.24,365.28,334.53Zm9.52-3.85h16c-.28-4.55-3.29-7.7-7.63-7.7C378.09,323,375.64,326,374.8,330.68Z"/><path class="cls-2" d="M416.24,302.46h10.15v19.6h19.67v-19.6h10.15v50.06H446.06V330.47H426.39v22.05H416.24Z"/><path class="cls-2" d="M483.93,348.53h-.14c-1.82,2.73-4.41,4.83-10.57,4.83-7.35,0-12.53-3.85-12.53-11,0-7.91,6.44-10.43,14.42-11.55,6-.84,8.68-1.33,8.68-4.06s-2-4.27-6-4.27c-4.48,0-6.65,1.61-6.93,5h-8.47c.28-6.3,5-11.83,15.47-11.83,10.78,0,15.12,4.83,15.12,13.23V347.2c0,2.73.42,4.34,1.26,5v.35H485A9.73,9.73,0,0,1,483.93,348.53Zm.07-8.68v-5.39a26.54,26.54,0,0,1-6.65,2.1c-5,1.12-7.42,2.24-7.42,5.6s2.24,4.55,5.6,4.55C481,346.71,484,343.35,484,339.85Z"/><path class="cls-2" d="M519.77,348.53h-.14c-1.82,2.73-4.41,4.83-10.57,4.83-7.35,0-12.53-3.85-12.53-11,0-7.91,6.44-10.43,14.42-11.55,6-.84,8.68-1.33,8.68-4.06s-2-4.27-6-4.27c-4.48,0-6.65,1.61-6.93,5h-8.47c.28-6.3,5-11.83,15.47-11.83,10.78,0,15.12,4.83,15.12,13.23V347.2c0,2.73.42,4.34,1.26,5v.35h-9.17A9.73,9.73,0,0,1,519.77,348.53Zm.07-8.68v-5.39a26.52,26.52,0,0,1-6.65,2.1c-5,1.12-7.42,2.24-7.42,5.6s2.24,4.55,5.6,4.55C516.83,346.71,519.84,343.35,519.84,339.85Z"/><path class="cls-2" d="M531.87,340.9h8.82c.63,4.13,3.57,6,7.84,6s6.58-1.61,6.58-4.13c0-3.43-4.55-3.78-9.45-4.76-6.44-1.26-12.74-3-12.74-10.85s6.44-11.48,14.63-11.48c9.45,0,14.7,4.69,15.4,11.9h-8.61c-.42-3.85-2.87-5.25-6.93-5.25-3.71,0-6.16,1.4-6.16,4,0,3.08,4.76,3.36,9.87,4.41,6,1.26,12.67,2.94,12.67,11.34,0,7.21-6.16,11.55-15.12,11.55C538.25,353.57,532.44,348.53,531.87,340.9Z"/><path class="cls-2" d="M579.19,302.46h14.28l7.07,25.13c1.75,6.3,3.15,13.51,3.15,13.51h.14s1.33-7.21,3.08-13.51L614,302.46h14.49v50.06H619v-28.7c0-4.06.42-10.36.42-10.36h-.14s-1.12,5.88-2.17,9.52l-8.61,29.54H598.8L590.39,323c-1-3.64-2.17-9.52-2.17-9.52h-.14s.42,6.3.42,10.36v28.7h-9.31Z"/><path class="cls-2" d="M633,334.53c0-10.64,7.21-18.9,17.71-18.9,11.55,0,17.71,8.82,17.71,21.63h-26c.7,5.53,3.78,9,9.17,9,3.71,0,5.88-1.68,6.93-4.41h9.38c-1.33,6.37-7,11.76-16.24,11.76C639.67,353.57,633,345.24,633,334.53Zm9.52-3.85h16c-.28-4.55-3.29-7.7-7.63-7.7C645.76,323,643.31,326,642.47,330.68Z"/><path class="cls-2" d="M670.33,334.6c0-11.2,6.37-19,15.33-19a11.39,11.39,0,0,1,10.15,5.32H696V302.46h9.52v50.06h-9.17v-4.69h-.14a12,12,0,0,1-10.71,5.74C676.49,353.57,670.33,346.22,670.33,334.6Zm25.9.21c0-6.86-2.24-11.48-8.33-11.48-5.25,0-7.91,4.62-7.91,11.27,0,6.93,2.73,11,7.63,11C693.29,345.59,696.24,341.39,696.24,334.81Z"/><path class="cls-2" d="M710.44,342.37h10.22v10.15H710.44Z"/><path class="cls-2" d="M277.64,438.46V409.34h10.5v28.91A38.07,38.07,0,0,1,287,449.1c-1.4,4.41-5.88,11.27-19.53,11.27s-18-6.86-19.39-11.27a38.11,38.11,0,0,1-1.19-10.85V409.34h10.5v29.12c0,6.44,1.05,13,10.15,13S277.64,444.9,277.64,438.46Z"/><path class="cls-2" d="M319.57,437.48c0-4.13-1.68-7.63-6.16-7.63a7,7,0,0,0-7.07,4.69,25.7,25.7,0,0,0-.7,7.14v17.71h-9.8V423.13H305v5.25h.14a13.52,13.52,0,0,1,11.48-6.09c10,0,12.74,5.81,12.74,14.7v22.4h-9.8Z"/><path class="cls-2" d="M336.37,417.88v-8.54h9.8v8.54Zm0,41.51V423.13h9.8v36.26Z"/><path class="cls-2" d="M370.25,422.29c10.43,0,18.76,6.86,18.76,19,0,10-6.58,19-18.76,19-12.39,0-18.69-8.47-18.69-19.25C351.56,429.78,359.47,422.29,370.25,422.29Zm0,30.38c5.88,0,8.82-4.9,8.82-11.41s-2.94-11.34-8.82-11.34-8.82,4.9-8.82,11.41S364.37,452.67,370.25,452.67Z"/><path class="cls-2" d="M418.13,437.48c0-4.13-1.68-7.63-6.16-7.63a7,7,0,0,0-7.07,4.69,25.7,25.7,0,0,0-.7,7.14v17.71h-9.8V423.13h9.17v5.25h.14a13.52,13.52,0,0,1,11.48-6.09c10,0,12.74,5.81,12.74,14.7v22.4h-9.8Z"/><path class="cls-2" d="M453.13,459.39V409.34h22.05c9,0,17.43,2.87,17.43,12.67,0,4.83-2.59,8.47-6.93,10.5,6.16,1.75,9.38,6.37,9.38,12.39,0,9.73-8,14.49-17.22,14.49Zm23.1-30c3.08-.21,6.16-2,6.16-5.81s-2.59-5.74-7.91-5.74H463.7v11.62Zm.28,21.56c4.2,0,7.77-1.89,7.77-6.79,0-5.39-4.41-6.72-8.54-6.72l-12-.07v13.58Z"/><path class="cls-2" d="M517.74,422.29c10.43,0,18.76,6.86,18.76,19,0,10-6.58,19-18.76,19-12.39,0-18.69-8.47-18.69-19.25C499,429.78,507,422.29,517.74,422.29Zm0,30.38c5.88,0,8.82-4.9,8.82-11.41s-2.94-11.34-8.82-11.34-8.82,4.9-8.82,11.41S511.86,452.67,517.74,452.67Z"/><path class="cls-2" d="M541.89,459.39V409.34h9.8v50.06Z"/><path class="cls-2" d="M584,454.42H584a12.89,12.89,0,0,1-11.13,5.88c-10.57,0-15.75-9.38-15.75-19.25,0-10.08,5.32-18.76,15.68-18.76a13,13,0,0,1,10.64,5.18h.07V409.34h9.73v50.06H584Zm-8.68-24.71c-5.53,0-8.4,4.55-8.4,11.13,0,5.81,2.1,11.9,8.47,11.9,5.46,0,8.26-4.69,8.26-11.41C583.68,434.19,580.95,429.71,575.35,429.71Z"/><path class="cls-2" d="M247.26,507.79V477.34h6.65v30.45c0,9.17,3.22,14.84,13.3,14.84,9.87,0,13.23-5.67,13.23-14.84V477.34h6.65v30.45c0,14.14-7.07,20.58-19.81,20.58C254.26,528.37,247.26,522.21,247.26,507.79Z"/><path class="cls-2" d="M319.57,503.1c0-4.83-2.59-7.49-7.42-7.49-6.79,0-10.22,4.48-10.22,11.69v20.09h-6V491.13h5.53v5.46h.07c2.59-4.13,6.44-6.23,11.69-6.23,9.66,0,12.39,6.16,12.39,14v23h-6Z"/><path class="cls-2" d="M334,477.34h6.09v7.14H334Zm0,13.79h6.09v36.26H334Z"/><path class="cls-2" d="M345.82,509.33c0-8.12,4.06-19,17.29-19,11.76,0,17.29,8.82,17.29,18.69,0,9.59-4.9,19.18-17.29,19.18C352.19,528.23,345.82,520.53,345.82,509.33Zm17.29,13.72c6.23,0,11-4.69,11-13.86,0-8.89-4.83-13.72-11-13.72s-10.92,4.69-10.92,13.86C352.19,518.29,356.95,523.05,363.11,523.05Z"/><path class="cls-2" d="M409.8,503.1c0-4.83-2.59-7.49-7.42-7.49-6.79,0-10.22,4.48-10.22,11.69v20.09h-6V491.13h5.53v5.46h.07c2.59-4.13,6.44-6.23,11.69-6.23,9.66,0,12.39,6.16,12.39,14v23h-6Z"/><path class="cls-2" d="M461.95,477.34c11.41,0,16.73,5.46,16.73,13.58,0,6.79-4,11.69-11.41,12.81l1.89.77c3.92,1.61,5.53,5.81,6.65,9.45,1.47,4.83,3.15,10.08,6,13.44H474.2c-2.1-2-3.92-7.07-4.76-11.34-1.26-6.65-4.55-10.43-11.41-10.43H445.92v21.77h-6.65V477.34Zm-1.4,22.61c7.63,0,11.34-2.66,11.34-8.68,0-5.18-2.94-8.33-9.8-8.33H445.92v17Z"/><path class="cls-2" d="M516.62,507.37a31.55,31.55,0,0,1-.07,3.57H489.46c.07,7.21,4.13,12.11,11.06,12.11,4.76,0,8.12-2.24,9.59-7.28l6.09.42c-1.89,7.84-7.42,12-15.68,12-10.78,0-17.36-7.77-17.36-18.83,0-8.68,4.76-19,17-19C510.46,490.36,516.27,498,516.62,507.37Zm-27-1.54h20.51c-.21-5.11-3.36-10.36-10.15-10.36C493.94,495.47,490,499.88,489.67,505.83Z"/><path class="cls-2" d="M552.39,523.4c0,4.83-.63,8.47-1.82,10.92-2.45,5-7.42,7.77-14.84,7.77s-14.28-3.29-14.56-11.2l6,.49c.49,4.2,4.83,5.81,8.82,5.81,7.14,0,10-3.92,10.43-10.08.07-1,.14-2.8.14-5.18h-.07a12.3,12.3,0,0,1-10.71,5.67c-10.71,0-15.89-8.68-15.89-18.55,0-9.31,5.11-18.69,15.89-18.69,4.83,0,8.54,1.89,11,5.6h.07v-4.83h5.6Zm-5.81-14.7c0-7.63-3.64-13.23-10.15-13.23s-10.29,5.39-10.29,13.23c0,8.05,3.36,13.72,10.08,13.72S546.58,516.75,546.58,508.7Z"/><path class="cls-2" d="M584.1,511.08v-20h6.09v36.26h-5.53v-5.53h-.07a12.93,12.93,0,0,1-11.69,6.37c-7,0-10.57-3.43-11.9-8.4a22.91,22.91,0,0,1-.49-5.53V491.13h6V511c0,2.45.07,4.34.21,5.74.42,3.85,3,6.23,7.21,6.23C581,523,584.1,517.66,584.1,511.08Z"/><path class="cls-2" d="M598.58,477.34h6.09v50.06h-6.09Z"/><path class="cls-2" d="M627.63,490.36c8,0,13.93,3.78,13.93,10.29v18.06c0,2.8-.28,4.34,1.12,4.34a3.11,3.11,0,0,0,1-.21l.49,4.48a14.9,14.9,0,0,1-3.43.49c-3.92.21-4.9-2.94-4.9-5.11-3.92,4.27-8.05,5.53-13,5.53-7.28,0-12.18-3.92-12.18-10.64s5.25-10.08,13.23-10.64c7-.49,10.5-2.1,11.62-3.92a12,12,0,0,0,.07-1.54c0-4.41-3.22-6.16-8.47-6.16s-8.47,1.89-9.24,7.14l-6-.49C612.93,493.86,618.6,490.36,627.63,490.36Zm7.77,18.41c-2.24,1.33-6.09,2.24-10.36,2.66-5,.49-7.91,2-7.91,6.16,0,3.57,2.94,5.53,7.14,5.53,5.6,0,9.17-2.66,10.57-6a10.71,10.71,0,0,0,.7-4.13v-4.27Z"/><path class="cls-2" d="M669.36,491.34l-1.12,6a9.23,9.23,0,0,0-2.73-.42c-9.45,0-9.52,8.47-9.52,14.91v15.61h-6V491.13h5.53v6.79h.28c2.31-5,5-6.86,8.4-7.28A9.76,9.76,0,0,1,669.36,491.34Z"/></g></g></svg>