<svg xmlns="http://www.w3.org/2000/svg" xmlns:xlink="http://www.w3.org/1999/xlink" viewBox="0 0 840.47 559.34"><defs><style>.cls-1{fill:none;}.cls-2{fill:#0a0000;}.cls-3{fill:url(#linear-gradient);}</style><linearGradient id="linear-gradient" x1="147.78" y1="120.28" x2="148.15" y2="120.28" gradientUnits="userSpaceOnUse"><stop offset="0" stop-color="#fff"/><stop offset="0.11" stop-color="#e6e6e6"/><stop offset="0.22" stop-color="#83ee6e"/><stop offset="0.34" stop-color="#ffe800"/><stop offset="0.36" stop-color="#fcd905"/><stop offset="0.41" stop-color="#f5b211"/><stop offset="0.45" stop-color="#ed8a1d"/><stop offset="0.48" stop-color="#ec7b1e"/><stop offset="0.52" stop-color="#e85320"/><stop offset="0.58" stop-color="#e31c24"/><stop offset="0.61" stop-color="#e82333"/><stop offset="0.67" stop-color="#f4355a"/><stop offset="0.72" stop-color="#ff4680"/><stop offset="0.73" stop-color="#f04481"/><stop offset="0.76" stop-color="#c84082"/><stop offset="0.81" stop-color="#883a85"/><stop offset="0.86" stop-color="#303188"/><stop offset="0.86" stop-color="#2e3188"/><stop offset="0.88" stop-color="#292c79"/><stop offset="0.93" stop-color="#1b1d51"/><stop offset="0.98" stop-color="#060612"/><stop offset="1"/></linearGradient></defs><title>collab_collar_1</title><g id="Layer_2" data-name="Layer 2"><g id="Layer_1-2" data-name="Layer 1"><rect class="cls-1" width="840.47" height="559.34"/><path class="cls-2" d="M333.65,401.66c4.47,1.12,11,2.62,19.2,4.13A131,131,0,0,1,357,373.47Z"/><path class="cls-2" d="M228,514.61,374.9,336.93h0l.22-.27h0l2-2.47h0l.06-.07.1-.12h0l6.38-7.73a15.09,15.09,0,0,0,2.9-14.14,15.57,15.57,0,0,0-10.24-10.39,492.06,492.06,0,0,1-137.85-71.47c-37.7-27.95-74.59-57.09-89.1-84.9-6,47.3-17.36,132.65-25.14,171.42C115.21,362.06,208.18,488.37,228,514.61Z"/><path class="cls-3" d="M147.92,120.25h-.14v0l.37,0Z"/><path class="cls-2" d="M439.44,366.47A19.07,19.07,0,1,0,420.37,385,18.85,18.85,0,0,0,439.44,366.47Z"/><path class="cls-2" d="M506.77,401.63l-74.5-90.46a91.84,91.84,0,0,0-47.56,28.74l-.11.13h0l-2,2.45-.22.28c-13.33,16.83-20,38.61-20,64.64C398.5,413.1,451.16,416.13,506.77,401.63Zm-115-35.16c0-15.38,12.84-27.9,28.62-27.9S449,351.09,449,366.47s-12.84,27.89-28.62,27.89S391.75,381.85,391.75,366.47Z"/><path class="cls-2" d="M691.66,147.65c-12.41,23.8-42.66,51.1-91.59,82.78-70.24,45.49-137.22,70.67-157.89,77.9l170,206.37C630.07,491.83,707.69,390,716.8,330.82,715.74,322.35,704.07,229.44,691.66,147.65Z"/><path class="cls-2" d="M679.84,103.48C652.55,74.65,565.66,60,421.58,60c-121.17,0-266.2,10.47-269,60.35h0v.13h0c-1.72,33,56.81,76.41,91.77,102.32a482.28,482.28,0,0,0,135.11,70.06,25.19,25.19,0,0,1,16.36,16.61,24.22,24.22,0,0,1,1,7.27c15.31-10.31,30-14.15,35.77-15.06l.21-.06c.78-.25,79.06-25.25,162-79,60.14-38.94,91.67-71.32,93.72-96.25C689.21,117.88,686.38,110.37,679.84,103.48Z"/></g></g></svg>