<svg xmlns="http://www.w3.org/2000/svg" viewBox="0 0 667.94 595.23"><title>collab_logo_both_1</title><g id="Layer_2" data-name="Layer 2"><g id="Layer_2-2" data-name="Layer 2"><polygon points="667.94 114.58 667.94 229.17 500.96 363.44 500.96 248.86 667.94 114.58"/><polygon points="333.97 114.58 333.97 229.17 166.99 363.44 166.99 248.86 333.97 114.58"/><polygon points="333.97 0 333.97 114.59 500.96 248.86 500.96 134.28 333.97 0"/><polygon points="0 0 0 114.59 166.99 248.86 166.99 134.28 0 0"/><path d="M226.48,470.51a62.36,62.36,0,1,0,62.36,62.36A62.36,62.36,0,0,0,226.48,470.51ZM251,585.44c-22.19,10.35-51.14-4.8-64.68-33.83s-6.53-60.95,15.66-71.3,51.14,4.8,64.68,33.83S273.17,575.09,251,585.44Z"/><path d="M164.12,439.45v-26.8l-10.63,10.63A95.69,95.69,0,0,0,0,499.54c0,59.23,42.84,95.69,95.69,95.69a95.39,95.39,0,0,0,67.65-28l-6.18-3.5a60.89,60.89,0,0,1-22.86,18.61c-36.7,17.11-83.74-6.08-105.06-51.8s-8.85-96.66,27.85-113.78c29.73-13.86,70.75-5,106.8,52.33Z"/><polygon points="317.88 403.85 288.84 419.91 303.32 419.91 303.32 581.4 288.84 595.23 303.32 595.23 331.14 595.23 317.88 581.57 317.88 403.85"/><polygon points="364.34 403.85 335.29 419.91 349.77 419.91 349.77 581.4 335.29 595.23 349.77 595.23 377.6 595.23 364.34 581.57 364.34 403.85"/><path d="M605.58,470.51a62.26,62.26,0,0,0-50.35,25.58V420.15H571.8l-29.37-16.3-.58.58V577.89L524.5,595.23h30.73V569.65a62.36,62.36,0,1,0,50.35-99.14Zm24.51,114.92c-22.19,10.35-51.14-4.8-64.68-33.83s-6.53-60.95,15.66-71.3,51.14,4.8,64.68,33.83S652.28,575.09,630.09,585.44Z"/><path d="M500,550.37V532.8h0a62.36,62.36,0,0,0-106.45-44l13.15,9.29c13.45-17.51,33.41-26,50.78-19.69,15.78,5.74,25.32,22.23,26.23,41.73-11.4-9-27.82-14.63-46.07-14.63-34.44,0-62.36,20.09-62.36,44.88s27.92,44.88,62.36,44.88c18.36,0,34.86-5.71,46.27-14.8v14.8h33.43L500,577.89Zm-38.36,36.26c-21.72,7.14-50.07-1.91-63.32-22.8s-6.39-42.62,15.33-49.77,50.07,1.91,63.32,22.8S483.33,579.49,461.61,586.64Z"/></g></g></svg>