<svg xmlns="http://www.w3.org/2000/svg" viewBox="0 0 931.65 408.35"><defs><style>.cls-1{fill:#00c864;}.cls-2{fill:none;}</style></defs><title>cornell_sus_logo</title><g id="Layer_2" data-name="Layer 2"><g id="Layer_1-2" data-name="Layer 1"><g id="Layer_2-2" data-name="Layer 2"><g id="Layer_1-2-2" data-name="Layer 1-2"><path class="cls-1" d="M382.59,138.61c0-15.26,11.54-25,24.37-25,13.24,0,20.05,8.1,21.94,15.88l-8.78,2.77c-1.14-4.59-4.86-9.66-13.16-9.66-7.15,0-14.72,5.13-14.72,16,0,10.17,7.17,15.8,14.84,15.8,8.17,0,12.15-5.33,13.43-9.79l8.71,2.65c-1.82,7.36-8.71,16.27-22.14,16.27S382.59,153.86,382.59,138.61Z"/><path class="cls-1" d="M467.66,145.9c0,10.19-7.49,17.62-17.42,17.62s-17.42-7.43-17.42-17.62,7.49-17.62,17.42-17.62S467.66,135.64,467.66,145.9Zm-9,0c0-6.28-4.05-9.45-8.44-9.45s-8.44,3.17-8.44,9.45,4.05,9.45,8.44,9.45,8.46-3.18,8.46-9.45Z"/><path class="cls-1" d="M492.3,138.21a13.54,13.54,0,0,0-2.7-.27c-4.59,0-8.6,2.23-8.6,9.38v15.22h-8.95V129.28h8.71v4.93c2-4.39,6.62-5.2,9.45-5.2a20.52,20.52,0,0,1,2.09.13Z"/><path class="cls-1" d="M505.4,162.51h-9V129.28h8.71v4.12c2-3.44,6-5,9.58-5,8.23,0,12,5.88,12,13.16v20.93h-9V143.14c0-3.71-1.82-6.62-6.14-6.62-3.92,0-6.21,3-6.21,6.88Z"/><path class="cls-1" d="M562.92,153c-1.69,5.74-7,10.53-15.12,10.53-9.11,0-17.15-6.55-17.15-17.76,0-10.59,7.83-17.49,16.34-17.49,10.26,0,16.41,6.55,16.41,17.21,0,1.28-.13,2.65-.13,2.77H539.49a8.09,8.09,0,0,0,8.37,7.56c4.18,0,6.48-2.09,7.56-5.06Zm-8.37-10.87c-.13-3.31-2.3-6.55-7.43-6.55a7.19,7.19,0,0,0-7.43,6.55Z"/><path class="cls-1" d="M567.78,162.51V113.63h9v48.88Z"/><path class="cls-1" d="M583.64,162.51V113.63h9v48.88Z"/><path class="cls-1" d="M409.26,189.66c-.47-2.65-2.65-6.75-8.71-6.75-4.52,0-7.49,2.91-7.49,6.08,0,2.65,1.69,4.73,5.2,5.4l6.68,1.28c8.71,1.69,13.37,7.36,13.37,14.11,0,7.36-6.14,14.79-17.28,14.79-12.69,0-18.29-8.17-19-15l8.64-2.3c.4,4.73,3.71,9,10.46,9,5,0,7.76-2.5,7.76-5.87,0-2.77-2.09-4.93-5.8-5.67l-6.68-1.32c-7.63-1.56-12.57-6.48-12.57-13.71,0-8.5,7.63-15,16.68-15,11.61,0,16.07,7,17.15,12.42Z"/><path class="cls-1" d="M443.42,219.95c-1.82,3.1-5.67,4.45-9.18,4.45-8,0-12.63-5.87-12.63-13.1v-21h9v19.19c0,3.71,1.89,6.68,6.08,6.68,4,0,6.28-2.7,6.28-6.55V190.33h9v27.21a54.59,54.59,0,0,0,.34,6h-8.6A22.73,22.73,0,0,1,443.42,219.95Z"/><path class="cls-1" d="M463.68,212.61c.21,2.65,2.16,5.06,6.08,5.06,3,0,4.39-1.56,4.39-3.31,0-1.48-1-2.7-3.58-3.24l-4.39-1c-6.41-1.42-9.32-5.29-9.32-9.93,0-6,5.29-10.87,12.42-10.87,9.45,0,12.63,6,13,9.59l-7.49,1.69c-.27-2-1.69-4.45-5.47-4.45-2.36,0-4.26,1.42-4.26,3.31,0,1.62,1.22,2.65,3,3l4.73,1c6.55,1.32,9.85,5.33,9.85,10.19,0,5.4-4.19,10.94-12.89,10.94-10,0-13.43-6.48-13.84-10.26Z"/><path class="cls-1" d="M500,190.33h6.68v7.94H500v13.9c0,2.91,1.32,3.85,3.92,3.85a13,13,0,0,0,2.77-.27v7.43a13.32,13.32,0,0,1-5.06.81c-6.48,0-10.53-3.85-10.53-10.26V198.3h-6v-7.94h1.69c3.51,0,5.13-2.3,5.13-5.29v-4.63H500Z"/><path class="cls-1" d="M519.71,204.44l8.17-1.22c1.89-.27,2.5-1.22,2.5-2.36,0-2.36-1.82-4.32-5.61-4.32s-6.08,2.5-6.35,5.4l-7.94-1.69c.54-5.2,5.33-10.94,14.24-10.94,10.53,0,14.45,6,14.45,12.63v16.34a37.24,37.24,0,0,0,.4,5.29h-8.25a22.5,22.5,0,0,1-.34-4c-1.69,2.65-4.86,4.93-9.79,4.93-7.09,0-11.41-4.79-11.41-10C509.79,208.56,514.18,205.25,519.71,204.44Zm10.67,5.67v-1.48l-7.49,1.14c-2.3.34-4.12,1.62-4.12,4.18,0,2,1.42,3.85,4.32,3.85,3.77,0,7.28-1.83,7.28-7.69Z"/><path class="cls-1" d="M550,173.86a5.53,5.53,0,1,1-.07,0Zm-4.45,49.69V190.33h9v33.22Z"/><path class="cls-1" d="M570.34,223.55h-9V190.33h8.71v4.12c2-3.44,6-5,9.58-5,8.23,0,12,5.88,12,13.16v20.93h-9V204.17c0-3.71-1.82-6.62-6.14-6.62-3.92,0-6.21,3-6.21,6.88Z"/><path class="cls-1" d="M606,204.44l8.17-1.22c1.89-.27,2.5-1.22,2.5-2.36,0-2.36-1.82-4.32-5.61-4.32s-6.08,2.5-6.35,5.4l-7.94-1.69c.54-5.2,5.33-10.94,14.24-10.94,10.53,0,14.45,6,14.45,12.63v16.34a37.24,37.24,0,0,0,.4,5.29H617.6a22.5,22.5,0,0,1-.34-4c-1.69,2.65-4.86,4.93-9.79,4.93-7.09,0-11.41-4.79-11.41-10C596.06,208.56,600.45,205.25,606,204.44Zm10.67,5.67v-1.48l-7.49,1.14c-2.3.34-4.12,1.62-4.12,4.18,0,2,1.42,3.85,4.32,3.85,3.77,0,7.28-1.83,7.28-7.69Z"/><path class="cls-1" d="M631.77,223.55V174.67h8.84V194c1.48-2.36,5.13-4.52,10.06-4.52,9.72,0,15.33,7.49,15.33,17.35,0,10.06-6.21,17.55-15.67,17.55-4.59,0-8.1-2-9.85-4.86v4.05Zm17-26.06c-4.52,0-8.31,3.31-8.31,9.38s3.78,9.45,8.31,9.45S657,213,657,206.88s-3.65-9.38-8.24-9.38Z"/><path class="cls-1" d="M674.85,173.86a5.53,5.53,0,1,1-.07,0Zm-4.45,49.69V190.33h9v33.22Z"/><path class="cls-1" d="M686.26,223.55V174.67h9v48.88Z"/><path class="cls-1" d="M706.58,173.86a5.53,5.53,0,1,1-.07,0Zm-4.45,49.69V190.33h9v33.22Z"/><path class="cls-1" d="M729.06,190.33h6.68v7.94h-6.68v13.9c0,2.91,1.32,3.85,3.92,3.85a13,13,0,0,0,2.77-.27v7.43a13.32,13.32,0,0,1-5.06.81c-6.48,0-10.53-3.85-10.53-10.26V198.3h-6v-7.94h1.69c3.51,0,5.13-2.3,5.13-5.29v-4.63h8.1Z"/><path class="cls-1" d="M743.77,236.65l7.83-17.28-14.11-29h10.06l8.84,19.44,8.17-19.44h9.58l-20.86,46.33Z"/><path class="cls-1" d="M382.59,260.69c0-15.26,11.54-25,24.37-25,13.24,0,20.05,8.1,21.94,15.88l-8.76,2.77c-1.14-4.59-4.86-9.66-13.16-9.66-7.15,0-14.72,5.13-14.72,16,0,10.19,7.15,15.8,14.85,15.8,8.17,0,12.15-5.33,13.43-9.79l8.71,2.65c-1.82,7.36-8.71,16.27-22.14,16.27S382.59,275.94,382.59,260.69Z"/><path class="cls-1" d="M467.66,268c0,10.19-7.49,17.62-17.42,17.62s-17.41-7.41-17.41-17.62,7.49-17.59,17.42-17.59S467.66,257.72,467.66,268Zm-9,0c0-6.28-4.05-9.45-8.44-9.45s-8.44,3.17-8.44,9.45,4.05,9.45,8.44,9.45,8.46-3.18,8.46-9.45Z"/><path class="cls-1" d="M481,284.59h-9V251.37h8.71v4.12c2-3.44,6-5,9.58-5,8.23,0,12,5.86,12,13.14v20.93h-9V265.21c0-3.71-1.82-6.62-6.14-6.62-3.92,0-6.21,3-6.21,6.88Z"/><path class="cls-1" d="M513.63,273.65c.21,2.65,2.16,5.06,6.08,5.06,3,0,4.39-1.56,4.39-3.31,0-1.48-1-2.7-3.58-3.24l-4.39-1c-6.41-1.42-9.32-5.29-9.32-9.93,0-6,5.29-10.87,12.42-10.87,9.45,0,12.63,6,13,9.59l-7.49,1.7c-.27-2-1.69-4.45-5.47-4.45-2.36,0-4.26,1.42-4.26,3.31,0,1.62,1.22,2.65,3,3l4.73,1c6.55,1.32,9.85,5.33,9.85,10.19,0,5.4-4.19,10.94-12.89,10.94-10,0-13.43-6.48-13.84-10.26Z"/><path class="cls-1" d="M558.39,281c-1.82,3.1-5.67,4.45-9.18,4.45-8,0-12.63-5.87-12.63-13.1v-21h9v19.19c0,3.71,1.89,6.68,6.08,6.68,4,0,6.28-2.7,6.28-6.55V251.37h9v27.21a54.59,54.59,0,0,0,.34,6h-8.6A22.73,22.73,0,0,1,558.39,281Z"/><path class="cls-1" d="M573.79,284.59V235.71h9v48.88Z"/><path class="cls-1" d="M600.72,251.37h6.68v7.94h-6.68v13.9c0,2.91,1.32,3.85,3.92,3.85a13,13,0,0,0,2.77-.27v7.43a13.32,13.32,0,0,1-5.06.81c-6.48,0-10.53-3.85-10.53-10.26V259.34h-6V251.4h1.69c3.51,0,5.13-2.3,5.13-5.29v-4.63h8.1Z"/><path class="cls-1" d="M621.38,265.48l8.17-1.19c1.89-.27,2.5-1.22,2.5-2.36,0-2.36-1.82-4.32-5.61-4.32s-6.08,2.5-6.35,5.4l-7.94-1.69c.54-5.2,5.33-10.94,14.24-10.94,10.53,0,14.45,6,14.45,12.63v16.34a37.24,37.24,0,0,0,.4,5.29H633a22.5,22.5,0,0,1-.34-4c-1.69,2.65-4.86,4.93-9.79,4.93-7.09,0-11.41-4.79-11.41-10C611.46,269.58,615.84,266.27,621.38,265.48Zm10.67,5.67v-1.48l-7.49,1.14c-2.3.34-4.12,1.62-4.12,4.18,0,2,1.42,3.85,4.32,3.85,3.77,0,7.28-1.82,7.28-7.69Z"/><path class="cls-1" d="M656.15,284.59h-9V251.37h8.71v4.12c2-3.44,6-5,9.58-5,8.23,0,12,5.88,12,13.16v20.93h-9V265.21c0-3.71-1.82-6.62-6.14-6.62-3.92,0-6.21,3-6.21,6.88Z"/><path class="cls-1" d="M695,251.37h6.68v7.94H695v13.9c0,2.91,1.32,3.85,3.92,3.85a13,13,0,0,0,2.77-.27v7.43a13.32,13.32,0,0,1-5.06.81c-6.48,0-10.53-3.85-10.53-10.26V259.34h-6V251.4h1.68c3.51,0,5.13-2.3,5.13-5.29v-4.63H695Z"/><path class="cls-1" d="M712.17,273.65c.21,2.65,2.16,5.06,6.08,5.06,3,0,4.39-1.56,4.39-3.31,0-1.48-1-2.7-3.58-3.24l-4.39-1c-6.41-1.42-9.32-5.29-9.32-9.93,0-6,5.29-10.87,12.42-10.87,9.45,0,12.63,6,13,9.59l-7.48,1.7c-.27-2-1.69-4.45-5.47-4.45-2.36,0-4.26,1.42-4.26,3.31,0,1.62,1.22,2.65,3,3l4.73,1c6.55,1.32,9.85,5.33,9.85,10.19,0,5.4-4.19,10.94-12.89,10.94-10,0-13.43-6.48-13.84-10.26Z"/><path class="cls-1" d="M198.65,239.5A70.15,70.15,0,1,1,276,124.64a17.34,17.34,0,1,0-.64-24.51l0,0a12.85,12.85,0,0,1-18.66-17.68,43,43,0,1,1,1.63,60.85A44.46,44.46,0,1,0,260,206.2a12.85,12.85,0,1,1,18.66,17.68h0A70.3,70.3,0,0,1,198.65,239.5Z"/><path class="cls-1" d="M185.94,335.44A43,43,0,1,1,233.42,265a44.46,44.46,0,1,0-1.68-62.87,12.85,12.85,0,0,1-18.65-17.66,70.15,70.15,0,1,1,2.65,99.19,17.34,17.34,0,1,0,.64,24.51l0,0a12.85,12.85,0,1,1,18.66,17.68A43.12,43.12,0,0,1,185.94,335.44Z"/></g></g><rect class="cls-2" width="931.65" height="408.35"/></g></g></svg>