<svg xmlns="http://www.w3.org/2000/svg" viewBox="0 0 192.36 192.36"><defs><style>.cls-1{fill:red;}</style></defs><title>epigenia_icon</title><g id="Layer_2" data-name="Layer 2"><g id="Layer_1-2" data-name="Layer 1"><path class="cls-1" d="M96.18,0a96.18,96.18,0,1,0,96.18,96.18A96.18,96.18,0,0,0,96.18,0ZM5.85,96.18A90.33,90.33,0,0,1,96.18,5.85c2.05,0,4.1.07,6.13.21l12.86,12.86L87,47.11V87.53h35.29l-13.9-13.9,19.86-19.86,16.1,16.1V91h-10.5l-21.29,21.29,13.06,13.06v18.36L94.28,112.37v22.23L82.45,146.44,63.3,127.3v32.23l26.78,26.78A90.33,90.33,0,0,1,5.85,96.18Zm154.21,63.87a89.7,89.7,0,0,1-61.53,26.43L69.15,157.1V141.42l13.3,13.3L100.13,137V126.49l31.31,31.31V122.9L120.8,112.26l15.44-15.44h13.92V67.45L128.23,45.51,100.1,73.64l8,8H92.82V49.54l30.62-30.62L111.69,7.17a90.35,90.35,0,0,1,48.37,152.89Z"/></g></g></svg>