<svg xmlns="http://www.w3.org/2000/svg" viewBox="0 0 192.36 192.36"><defs><style>.cls-1{fill:red;}.cls-2{fill:none;}</style></defs><title>er_icon_1</title><g id="Layer_2" data-name="Layer 2"><g id="Layer_1-2" data-name="Layer 1"><path class="cls-1" d="M147.79,51.61H44.57a44.57,44.57,0,1,0,0,89.14H147.79a44.57,44.57,0,1,0,0-89.14ZM6,99.11h18.3a44.19,44.19,0,0,0,4.59,16.94H11.42A38.38,38.38,0,0,1,6,99.11ZM140.6,93.25A44.19,44.19,0,0,0,136,76.3h21a38.38,38.38,0,0,1,5.41,16.94Zm-5.86,0H99.11V76.3h30.22A38.38,38.38,0,0,1,134.74,93.25ZM99.11,70.44V57.62A38.58,38.58,0,0,1,125,70.44Zm-5.86,0H67.35A38.58,38.58,0,0,1,93.25,57.62Zm0,5.86V93.25H57.62A38.38,38.38,0,0,1,63,76.3ZM51.76,93.25H30.18A38.38,38.38,0,0,1,35.59,76.3H56.34A44.19,44.19,0,0,0,51.76,93.25Zm-27.44,0H6A38.38,38.38,0,0,1,11.42,76.3H28.9A44.19,44.19,0,0,0,24.31,93.25Zm5.86,5.86H51.76a44.19,44.19,0,0,0,4.59,16.94H35.59A38.38,38.38,0,0,1,30.18,99.11Zm27.44,0H93.25v16.94H63A38.38,38.38,0,0,1,57.62,99.11Zm35.63,22.81v12.82a38.58,38.58,0,0,1-25.89-12.82Zm5.86,0H125a38.58,38.58,0,0,1-25.89,12.82Zm0-5.86V99.11h35.63a38.38,38.38,0,0,1-5.41,16.94ZM140.6,99.11h21.8A38.38,38.38,0,0,1,157,116.06H136A44.19,44.19,0,0,0,140.6,99.11Zm27.66,0h18.08a38.38,38.38,0,0,1-5.41,16.94H163.68A44.19,44.19,0,0,0,168.26,99.11Zm0-5.86a44.19,44.19,0,0,0-4.59-16.94h17.26a38.38,38.38,0,0,1,5.41,16.94ZM147.79,57.47a38.58,38.58,0,0,1,28.83,13H160.16a44.86,44.86,0,0,0-14.31-13Zm-23.95,0a38.58,38.58,0,0,1,28.83,13H132.5a44.86,44.86,0,0,0-14.31-13Zm-49.67,0a44.86,44.86,0,0,0-14.31,13H39.91a38.58,38.58,0,0,1,28.83-13Zm-29.6,0h2.15a44.86,44.86,0,0,0-14.31,13H15.75A38.58,38.58,0,0,1,44.57,57.47Zm0,77.41a38.58,38.58,0,0,1-28.83-13H32.42a44.86,44.86,0,0,0,14.31,13Zm24.17,0a38.58,38.58,0,0,1-28.83-13H59.86a44.86,44.86,0,0,0,14.31,13Zm49.45,0a44.86,44.86,0,0,0,14.31-13h20.16a38.58,38.58,0,0,1-28.83,13Zm29.6,0h-1.94a44.86,44.86,0,0,0,14.31-13h16.45A38.58,38.58,0,0,1,147.79,134.89Z"/><rect class="cls-2" width="192.36" height="192.36"/></g></g></svg>