<svg width="600" height="339" viewBox="0 0 600 339" fill="none" xmlns="http://www.w3.org/2000/svg">
<rect width="600" height="338.053" fill="#4469B0"/>
<path d="M144.3 152.7V158.8H136V169H144.3V199.8H156.7V168.9H166L167 158.7H156.7V152.4C156.7 148.6 157.8 146.9 161.7 146.9H167.2V137.4C165.4 137.2 162.5 137 160 137C148.5 137 144.3 142.4 144.3 152.7Z" fill="white"/>
<path d="M196.5 165.1C194.7 161.1 190.9 158 184.7 158C173.3 158 167.9 166.6 167.9 178V180.6C167.9 192.1 173.3 200.7 184.7 200.7C190.9 200.7 194.8 197.6 196.5 193.6V199.8H208.4V158.8H196.5V165.1ZM196 181.3C196 187.1 193.4 190.9 188.3 190.9C182.5 190.9 180.3 186.9 180.3 180.7V177.8C180.3 171.7 182.5 167.6 188.3 167.6C193.4 167.6 196 171.3 196 177.2V181.3Z" fill="white"/>
<path d="M235 167.6C238.3 167.6 241.4 168.5 243.3 169.5L246.1 160.7C243.6 159 239 157.9 234.2 157.9C219.6 157.9 213 165.7 213 178.3V180.2C213 192.8 219.6 200.6 234.2 200.6C239 200.6 243.6 199.6 246.1 197.8L243.3 189C241.4 189.9 238.3 190.9 235 190.9C228.3 190.9 225.4 187 225.4 180.4V178C225.4 171.4 228.3 167.6 235 167.6Z" fill="white"/>
<path d="M267.8 157.9C254.3 157.9 247.7 165.6 247.7 177.2V180.8C247.7 192.8 253.5 200.7 269.2 200.7C275.1 200.7 281.9 199.4 285.1 197.7L282.9 189.2C279.3 190.7 274.4 191.7 269.7 191.7C262.8 191.7 260.3 189.2 260.1 183.6H286.2V177C286.1 165.7 280.6 157.9 267.8 157.9ZM275.1 175.5H260.1C260.1 170 262.2 166.5 267.8 166.5C273.2 166.5 275 170 275 174.5V175.5H275.1Z" fill="white"/>
<path d="M315.2 157.9C309.4 157.9 305.5 160.8 303.7 164.4V137.1L291.3 138.2V199.7H303V193.5C304.7 197.5 309 200.6 315.2 200.6C326.6 200.6 332.1 192 332.1 180.6V178C332.1 166.5 326.6 157.9 315.2 157.9ZM319.7 180.8C319.7 186.6 317.5 190.9 311.5 190.9C306.4 190.9 303.7 187.3 303.7 181.4V177.1C303.7 171.3 306.5 167.6 311.5 167.6C317.4 167.6 319.7 171.9 319.7 177.7V180.8Z" fill="white"/>
<path d="M356.6 157.9C342.9 157.9 336.2 166.4 336.2 178.2V180.3C336.2 192.1 342.9 200.6 356.6 200.6C370.3 200.6 377 192.1 377 180.3V178.2C377 166.4 370.3 157.9 356.6 157.9ZM364.6 181.1C364.6 186.5 362.4 190.8 356.6 190.8C350.8 190.8 348.6 186.5 348.6 181.1V177.3C348.6 171.9 350.8 167.6 356.6 167.6C362.4 167.6 364.6 171.9 364.6 177.3V181.1Z" fill="white"/>
<path d="M401.5 157.9C387.8 157.9 381.1 166.4 381.1 178.2V180.3C381.1 192.1 387.8 200.6 401.5 200.6C415.2 200.6 421.9 192.1 421.9 180.3V178.2C421.9 166.4 415.2 157.9 401.5 157.9ZM409.5 181.1C409.5 186.5 407.3 190.8 401.5 190.8C395.7 190.8 393.5 186.5 393.5 181.1V177.3C393.5 171.9 395.7 167.6 401.5 167.6C407.3 167.6 409.5 171.9 409.5 177.3V181.1Z" fill="white"/>
<path d="M464.4 158.8H451.2L439 178.3V137.1L426.6 138.2V199.7H439V179.7L451.7 199.7H464.9L451.5 179L464.4 158.8Z" fill="white"/>
</svg>
