<svg xmlns="http://www.w3.org/2000/svg" xmlns:xlink="http://www.w3.org/1999/xlink" viewBox="0 0 481.16 239.61"><defs><style>.cls-1{fill:url(#grad_sat);}</style><radialGradient id="grad_sat" cx="8.62" cy="233.43" r="442.64" gradientUnits="userSpaceOnUse"><stop offset="0" stop-color="#ffa488"/><stop offset="0.29" stop-color="#ff7d70"/><stop offset="1" stop-color="#ff1f35"/></radialGradient></defs><title>flare_logo</title><g id="Layer_2" data-name="Layer 2"><g id="Layer_1-2" data-name="Layer 1"><path class="cls-1" d="M464.14,40l-40-40-40.3,40.3A56.64,56.64,0,0,0,367.17,81a57.61,57.61,0,0,0,17,40.28l40,40,15.42-15.42L407,113.21l23.68-23.68a12.61,12.61,0,0,0,0-17.84l-6.5-6.5L392.79,96.57A35.1,35.1,0,0,1,389,78.93a35.61,35.61,0,0,1,10.51-23.44l24.65-24.65,24.65,24.65a35.59,35.59,0,0,1,10.52,23.84A35,35,0,0,1,449,105.5l-7.71,7.71,15.42,15.42,7.71-7.71a56.64,56.64,0,0,0,16.7-40.67A57.61,57.61,0,0,0,464.14,40Z"/><path class="cls-1" d="M254.77,122.5h-4.45A38.3,38.3,0,0,0,212,160.66v54.05h-.1v22.47h40.53V214.71h-18V160.66A15.82,15.82,0,0,1,250.32,145h4.45a15.78,15.78,0,0,1,15.69,15.69v22.47h22.47V160.66A38.12,38.12,0,0,0,254.77,122.5Z"/><path class="cls-1" d="M194.31,212.37V158.54c0-22.47-18.44-36-38.15-36h-2.33c-23.44,0-38.35,15.8-38.35,42.27h15.89l6.78,0V158c.06-8.66,6.38-13.06,15-13.06h3c10,0,15.69,4.88,15.69,12.51,0,8.27-22.26,11.45-26.07,12.51-14.63,4.45-32.43,11.23-32.43,33.49v4.45c0,18.23,14.84,31.58,33.7,31.58h4.45A46.47,46.47,0,0,0,177.36,231,20.5,20.5,0,0,0,192,237.18h11.23V214.71h-6.67A2.29,2.29,0,0,1,194.31,212.37Zm-22.47-11.23c0,9.54-9.33,15.9-20.35,15.9H147c-8.05,0-11.23-5.94-11.23-10.17v-3.39c0-4.66,3.18-10,9.75-12.72,8.48-3.6,16.32-3.82,26.28-8.9Z"/><path class="cls-1" d="M344.87,122.5H340.2a38.26,38.26,0,0,0-38.15,38.15v40.48a38.31,38.31,0,0,0,38.15,38.37h4.66a38.41,38.41,0,0,0,36.88-28.4l1.27-5.72h-23.1c-.21,1.27-3.82,11.66-15,11.66H340.2a15.83,15.83,0,0,1-15.69-15.9v-8.9H383V160.66A38.27,38.27,0,0,0,344.87,122.5Zm15.69,47.27h-36v-9.11A15.65,15.65,0,0,1,340.2,145h4.66a15.65,15.65,0,0,1,15.69,15.69Z"/><polygon class="cls-1" points="86.54 82.82 82.23 82.82 82.23 105.29 82.23 217.15 71.61 217.15 71.61 239.61 82.23 239.61 104.7 239.61 104.7 219.25 104.7 217.15 104.7 89.39 104.7 82.82 97.92 82.82 86.54 82.82"/><path class="cls-1" d="M33.11,121A15.83,15.83,0,0,1,49,105.29H68.73V82.82H49A38.3,38.3,0,0,0,10.64,121v18.75H0v22.47H10.64v55H0v22.47H44V217.15H33.11v-55h7.61v-.1H68.3V139.62H33.11Z"/></g></g></svg>