<svg xmlns="http://www.w3.org/2000/svg" xmlns:xlink="http://www.w3.org/1999/xlink" viewBox="0 0 622.41 202.04"><defs><style>.cls-1{fill:none;}.cls-1,.cls-3{stroke:#ff1f35;stroke-miterlimit:10;}.cls-2{fill:url(#grad_sat);}.cls-3{fill:#ff1f35;}</style><radialGradient id="grad_sat" cx="550.55" cy="197.13" r="197" gradientUnits="userSpaceOnUse"><stop offset="0" stop-color="#ffa488"/><stop offset="0.29" stop-color="#ff7d70"/><stop offset="1" stop-color="#ff1f35"/></radialGradient></defs><title>flare_logo_parts</title><g id="Layer_2" data-name="Layer 2"><g id="Layer_1-2" data-name="Layer 1"><path class="cls-1" d="M121.17,50.45,71.43.71,21.28,50.86A70.48,70.48,0,0,0,.5,101.47,71.69,71.69,0,0,0,21.69,151.6l49.73,49.73,19.19-19.19L50.06,141.59l29.46-29.46a15.7,15.7,0,0,0,0-22.2l-8.09-8.09-39,39a43.68,43.68,0,0,1-4.7-22A44.31,44.31,0,0,1,40.76,69.76L71.43,39.09l30.68,30.68A44.3,44.3,0,0,1,115.2,99.43,43.55,43.55,0,0,1,102.4,132l-9.59,9.59L112,160.78l9.59-9.59a70.48,70.48,0,0,0,20.78-50.61A71.69,71.69,0,0,0,121.17,50.45Z"/><path class="cls-2" d="M601.22,50.45,551.48.71,501.33,50.86a70.48,70.48,0,0,0-20.78,50.61,71.69,71.69,0,0,0,21.19,50.13l49.73,49.73,19.19-19.19-40.56-40.56,29.46-29.46a15.7,15.7,0,0,0,0-22.2l-8.09-8.09-39,39a43.68,43.68,0,0,1-4.7-22,44.31,44.31,0,0,1,13.08-29.17l30.67-30.67,30.68,30.68a44.3,44.3,0,0,1,13.09,29.66A43.55,43.55,0,0,1,582.45,132l-9.59,9.59L592,160.78l9.59-9.59a70.48,70.48,0,0,0,20.78-50.61A71.69,71.69,0,0,0,601.22,50.45Z"/><path class="cls-3" d="M52.24,19.9l-31,31A70.48,70.48,0,0,0,.5,101.47,71.69,71.69,0,0,0,21.69,151.6l49.73,49.73,19.19-19.19L50.06,141.59l29.46-29.46a15.7,15.7,0,0,0,0-22.2l-8.09-8.09-39,39a43.68,43.68,0,0,1-4.7-22A44.31,44.31,0,0,1,40.76,69.76L71.43,39.09Z"/><path class="cls-1" d="M361.2,50.45,311.46.71,261.3,50.86a70.48,70.48,0,0,0-20.78,50.61,71.69,71.69,0,0,0,21.19,50.13l49.73,49.73,19.19-19.19-40.56-40.56,29.46-29.46a15.7,15.7,0,0,0,0-22.2l-8.09-8.09-39,39a43.68,43.68,0,0,1-4.7-22,44.31,44.31,0,0,1,13.08-29.17l30.67-30.67,30.68,30.68a44.3,44.3,0,0,1,13.09,29.66A43.55,43.55,0,0,1,342.42,132l-9.59,9.59L352,160.78l9.59-9.59a70.48,70.48,0,0,0,20.78-50.61A71.69,71.69,0,0,0,361.2,50.45Z"/><path class="cls-3" d="M352,160.78l-19.19-19.19,9.59-9.59a43.55,43.55,0,0,0,12.8-32.57,44.3,44.3,0,0,0-13.09-29.66L311.46,39.09,280.79,69.76a44.31,44.31,0,0,0-13.08,29.17,43.68,43.68,0,0,0,4.7,22l39-39,8.09,8.09a15.7,15.7,0,0,1,0,22.2l-29.46,29.46,40.56,40.56Z"/></g></g></svg>