<svg xmlns="http://www.w3.org/2000/svg" viewBox="0 0 191.01 191.01"><defs><style>.cls-1{fill:red;}</style></defs><title>ihs</title><g id="Layer_2" data-name="Layer 2"><g id="Layer_1-2" data-name="Layer 1"><path class="cls-1" d="M92.41,117.35c.35-1.27.78-2.52,1.11-3.79s.59-2.7.92-4c.24-1,.53-2,.81-2.94.41-1.42.87-2.82,1.25-4.25.34-1.27.59-2.57.9-3.85.24-1,.51-2,.79-2.94.4-1.42.85-2.83,1.22-4.26.58-2.23,1.08-4.48,1.68-6.71s1.31-4.48,1.91-6.74c.55-2.11.93-4.27,1.55-6.35-.35-.76-.66-1.53-.95-2.32-.14.36-.27.72-.38,1.09-.83,2.7-1.62,5.42-2.44,8.13q-.38,1.27-.81,2.53c-.38,1.15-.81,2.29-1.17,3.45-.59,1.88-1.15,3.78-1.72,5.67-.26.85-.5,1.7-.78,2.54-.39,1.18-.82,2.35-1.2,3.54s-.61,2.22-1,3.31c-.6,1.85-1.27,3.67-1.85,5.52s-1.11,3.93-1.73,5.88c-.84,2.63-1.76,5.23-2.62,7.86-.75,2.31-1.47,4.63-2.2,7s-1.47,4.63-2.19,7c-.29.91-.55,1.83-.82,2.74-.36,1.22-.71,2.45-1.1,3.67-.59,1.88-1.23,3.74-1.82,5.62s-1.08,3.73-1.67,5.58S76.84,154,76.2,156c-.29.87-.55,1.76-.82,2.64-.34,1.13-.64,2.28-1,3.41-.59,1.85-1.21,3.69-1.82,5.53-.27.81-.55,1.61-.79,2.43-.32,1.1-.55,2.23-.9,3.32-.62,1.94-1.32,3.85-2,5.78-.73,2.25-1.42,4.51-2.15,6.76a2,2,0,0,0-.11.74q3.44,1.09,7,1.92a1.08,1.08,0,0,0,.06-.18c.31-1.22.58-2.44.9-3.65.39-1.49.83-3,1.21-4.47.34-1.31.63-2.63,1-3.93s.65-2.48,1-3.71.82-2.71,1.17-4.07c.58-2.23,1.11-4.48,1.66-6.71.25-1,.49-2,.76-3,.63-2.25,1.29-4.49,1.91-6.74.45-1.61.87-3.24,1.29-4.86q.48-1.82.93-3.64c.33-1.34.63-2.68,1-4s.83-2.84,1.23-4.26c.27-.95.5-1.9.74-2.86.33-1.31.64-2.62,1-3.93.24-1,.52-1.91.78-2.86.39-1.43.79-2.85,1.16-4.28S92,118.68,92.41,117.35Z"/><path class="cls-1" d="M71,133.05c.83-1.8,1.62-3.61,2.44-5.41,1.08-2.37,2.18-4.73,3.25-7.1.88-1.95,1.71-3.91,2.59-5.86S81,110.92,81.91,109q1.7-3.72,3.39-7.45c.57-1.26,1.15-2.51,1.71-3.77s1.21-2.77,1.84-4.14c.83-1.83,1.7-3.64,2.52-5.47s1.64-3.74,2.49-5.6,1.76-3.66,2.59-5.52S98,73.26,98.9,71.38c1.1-2.41,2.31-4.78,3.39-7.2A30.43,30.43,0,0,1,101.9,61l-3.1,6.09-3.29,6.52c-.88,1.73-1.77,3.45-2.64,5.18s-1.63,3.31-2.46,4.95c-1.09,2.14-2.21,4.26-3.29,6.41-.87,1.73-1.67,3.49-2.55,5.22-1.09,2.15-2.24,4.27-3.32,6.42-1.86,3.68-3.69,7.38-5.53,11.07q-2,4-4,8c-1.09,2.15-2.19,4.28-3.28,6.43q-1.3,2.56-2.58,5.12c-.79,1.56-1.56,3.13-2.36,4.68-1.12,2.2-2.27,4.38-3.37,6.58-1.31,2.62-2.56,5.26-3.88,7.88s-2.77,5.36-4.14,8.05C51,161.81,50,164,48.93,166.07c-1.58,3.11-3.21,6.2-4.8,9.3a1.76,1.76,0,0,0-.18.53q2.93,1.88,6,3.56a1.79,1.79,0,0,0,.36-.55c.19-.42.3-.88.49-1.3.86-1.85,1.74-3.69,2.59-5.55s1.74-3.91,2.61-5.86q1.63-3.65,3.28-7.29,1.25-2.78,2.52-5.56c1.11-2.43,2.23-4.85,3.32-7.29s2-4.71,3.1-7C69.13,137,70.09,135.05,71,133.05Z"/><path class="cls-1" d="M50.86,106.1c2.69-2.93,5.42-5.82,8.11-8.75q9.15-10,18.28-19.92c4.47-4.85,9-9.66,13.45-14.51,4.3-4.68,8.61-9.36,12.84-14.1a30.18,30.18,0,0,1,1.74-4l-.28.29Q90.78,59.36,76.55,73.59,65.9,84.24,55.22,94.87c-4.49,4.47-9,8.9-13.5,13.36q-8.47,8.41-16.91,16.85Q17.87,132,10.94,138.94a2,2,0,0,0-.31.39q1.73,3.34,3.71,6.51a2.85,2.85,0,0,0,.53-.47l7.95-8.62q7.74-8.41,15.46-16.84C42.48,115.31,46.65,110.69,50.86,106.1Z"/><path class="cls-1" d="M52.17,131.74c2-3,4-5.94,5.93-8.91q3.93-5.9,7.84-11.8c2.09-3.17,4.15-6.37,6.25-9.54,2.2-3.34,4.44-6.66,6.64-10,3.42-5.18,6.81-10.39,10.22-15.57,1.69-2.57,3.43-5.1,5.12-7.67,2.4-3.64,4.71-7.34,7.18-10.93.2-.29.39-.59.56-.89a30.32,30.32,0,0,1,.6-4C100,56,97.42,59.64,94.83,63.23c-2.28,3.17-4.65,6.27-7,9.42C85.4,76,83,79.46,80.5,82.86c-3,4.16-6,8.33-9,12.47q-6.64,9.15-13.32,18.28c-3,4.11-6,8.2-9,12.32-3.21,4.41-6.39,8.85-9.59,13.27l-10.87,15c-1.18,1.63-2.39,3.24-3.56,4.88-.12.18-.28.36-.39.54q2.59,2.85,5.4,5.49a3.1,3.1,0,0,0,.37-.44c1.28-1.92,2.55-3.86,3.82-5.79l10.88-16.57C47.55,138.82,49.85,135.27,52.17,131.74Z"/><path class="cls-1" d="M172.08,73.27c-4.65.68-9.3,1.4-14,2l-.41.08c-.42.65-.87,1.29-1.33,1.91a2.59,2.59,0,0,0,.45,0L179,77.25l9.45-.06a2.08,2.08,0,0,0,.78-.12q-.6-3.07-1.4-6.08a4.46,4.46,0,0,0-1.22.12c-2.57.44-5.16.81-7.75,1.19C176.6,72.64,174.34,72.94,172.08,73.27Z"/><path class="cls-1" d="M27.6,103.77c4.58-3.54,9.2-7,13.77-10.59C46.62,89.1,51.84,85,57.08,80.87c3.78-2.95,7.61-5.85,11.39-8.8s7.38-5.82,11.09-8.7c5.12-4,10.27-7.92,15.39-11.9q4.51-3.5,9-7.06c1-.77,2-1.51,2.95-2.26a30.37,30.37,0,0,1,55.69,16.77c0,.57,0,1.13,0,1.69a1.38,1.38,0,0,0,.29-.48c.54-2,1-4.1,1.57-6.15s1.13-4.21,1.72-6.31c.41-1.46.84-2.92,1.26-4.38.65-2.25,1.3-4.51,1.93-6.77a10,10,0,0,0,.34-1.25q-2.43-3-5.09-5.78a.78.78,0,0,0-.07.22q-.36,3.21-.7,6.42c-.33,3.13-.65,6.26-1,9.39a13.67,13.67,0,0,1-.29,1.77c-.05.22-.29.39-.45.59-.17-.17-.43-.31-.5-.52-.73-2.16-1.42-4.33-2.13-6.49q-1.57-4.75-3.17-9.48c-1.45-4.26-2.88-8.52-4.41-12.75a3.51,3.51,0,0,0-.17-.39q-3.69-2.69-7.65-5a1.2,1.2,0,0,0,.07.45c.78,1.78,1.58,3.55,2.38,5.32l2.66,5.86c.88,2,1.77,3.91,2.63,5.87a5.18,5.18,0,0,1,.22,1l-.27.11a6.65,6.65,0,0,1-.54-.5q-4.5-5.25-9-10.5-5.93-6.9-11.9-13.76c-.24-.27-.48-.56-.74-.83a94.75,94.75,0,0,0-10-3.19l21.66,22.72-.21.29a3.68,3.68,0,0,1-.71-.3q-2.45-1.7-4.87-3.43-8-5.66-16-11.32c-4.08-2.89-8.22-5.7-12.27-8.64a17.14,17.14,0,0,0-3.37-2C101.08.13,98.31,0,95.5,0L94.25,0V0l37.94,24.24-.14.32a5.51,5.51,0,0,1-.86-.22c-.7-.3-1.38-.64-2.07-1l-9.44-4.18q-3.81-1.68-7.63-3.33c-2.37-1-4.75-2-7.11-3-1.93-.85-3.83-1.77-5.75-2.63s-4-1.76-6.05-2.64L87.14,5c-1.9-.84-3.79-1.7-5.7-2.52a20.45,20.45,0,0,0-2.53-1q-4.46.78-8.78,2L125.53,25l-.07.36a10.74,10.74,0,0,1-1.57-.15c-2.48-.59-4.94-1.27-7.42-1.83-3.84-.86-7.7-1.65-11.55-2.47q-1.64-.35-3.28-.75c-1.57-.39-3.12-.83-4.69-1.19s-3.11-.61-4.66-1c-1.92-.43-3.84-.9-5.76-1.34-1.32-.31-2.64-.58-4-.91-1.56-.39-3.11-.84-4.68-1.2s-3.1-.63-4.65-1c-1.1-.23-2.19-.49-3.29-.75-1.73-.41-3.45-.85-5.18-1.25-1.35-.31-2.71-.58-4.06-.88-2.09-.47-4.17-1-6.28-1.39l-.19,0q-4.06,1.95-7.91,4.26c.39,0,.78.06,1.17.11.69.09,1.37.19,2.05.31,2,.38,4.08.81,6.13,1.16s4.11.63,6.17,1c1.37.22,2.73.49,4.09.74,2.2.42,4.4.86,6.6,1.26,1.85.33,3.72.61,5.57.92,1.43.24,2.86.48,4.29.75,2,.38,4,.83,6,1.19s3.92.64,5.87,1c1.47.25,2.93.5,4.4.78,2,.38,4,.81,6,1.19,1.82.34,3.65.65,5.48,1,2.71.46,5.42.9,8.12,1.37a6.88,6.88,0,0,1,1,.34l0,.29a7.52,7.52,0,0,1-.92.13c-.83,0-1.66,0-2.49,0q-13.17-.57-26.34-1.17c-6.49-.3-13-.68-19.47-1-7-.32-14-.58-21-.85C47,24,44.85,24,42.69,23.86c-3.24-.16-6.48-.4-9.72-.53h0q-3.5,3-6.7,6.4H27c9.48-.16,19-.4,28.44-.45,19.34-.12,38.68-.14,58-.19a18.6,18.6,0,0,1,1.88.13,2.57,2.57,0,0,1,.57.2,3.1,3.1,0,0,1-1.26.42l-4.73.61c-2,.27-4,.59-6,.82-2.79.33-5.6.58-8.39.91q-5.41.65-10.81,1.38c-3.24.44-6.48.94-9.72,1.37-3.83.51-7.67,1-11.51,1.45s-7.81,1-11.72,1.42c-3.26.38-6.52.69-9.77,1.09-3.08.38-6.16.86-9.24,1.24-2.46.31-4.93.54-7.4.81-.23,0-.46.08-.69.11-2.75.4-5.5.78-8.24,1.21l-.24.05q-2.37,3.53-4.43,7.27a1.08,1.08,0,0,0,.27,0c2.06-.32,4.12-.64,6.17-1s4.28-.82,6.43-1.2c1.86-.33,3.72-.6,5.58-.9,1.14-.19,2.27-.4,3.41-.6,1.69-.3,3.39-.59,5.08-.9,2.2-.41,4.4-.85,6.61-1.24,1.91-.34,3.83-.63,5.75-.95,1.14-.19,2.28-.4,3.42-.6,1.59-.29,3.19-.56,4.78-.86,2.21-.41,4.41-.87,6.62-1.26,2-.35,4-.6,6-.93,2.34-.4,4.67-.84,7-1.26,1.72-.31,3.46-.58,5.18-.91,1.94-.37,3.87-.84,5.81-1.18s4.11-.61,6.17-.92c.23,0,.45-.12.68-.16,1.91-.39,3.82-.79,5.74-1.14q4-.73,8-1.38a12.37,12.37,0,0,1,1.93,0l0,.26a3.77,3.77,0,0,1-.58.3c-1.47.47-3,.91-4.42,1.39s-3,1.07-4.59,1.54c-2.77.83-5.55,1.6-8.33,2.42-.94.28-1.87.63-2.8.93-1.19.39-2.38.77-3.58,1.14s-2.15.61-3.22,1c-1.91.61-3.8,1.29-5.72,1.88s-4,1.16-6.05,1.79S69.22,46,67.27,46.65c-2.64.82-5.3,1.58-7.94,2.39-3.09.95-6.16,1.92-9.25,2.87-.91.28-1.83.52-2.73.82-1.94.64-3.86,1.32-5.81,1.93s-3.85,1.13-5.77,1.7q-1.33.39-2.64.82c-1.91.62-3.81,1.27-5.73,1.86s-3.84,1.13-5.76,1.7c-.88.26-1.75.56-2.62.85-1.15.39-2.29.81-3.45,1.16s-2.28.61-3.42,1c-2.2.67-4.41,1.33-6.58,2.08a5.37,5.37,0,0,0-1,.45q-1.12,3.48-2,7.07c.12.1.25.17.31.14,1.45-.51,2.88-1.09,4.33-1.64,1.6-.6,3.2-1.21,4.82-1.77s3.49-1.14,5.22-1.75,3.32-1.27,5-1.86c2.38-.84,4.8-1.6,7.17-2.45s4.67-1.8,7-2.64,4.95-1.62,7.4-2.49c2.3-.82,4.55-1.76,6.84-2.58,3.1-1.1,6.22-2.13,9.33-3.19.87-.3,1.72-.61,2.58-.94s1.89-.77,2.86-1.1c1.71-.59,3.43-1.13,5.14-1.73,2.45-.87,4.89-1.77,7.34-2.66,1.68-.6,3.36-1.19,5-1.79S86.35,43.63,88,43s3.44-1.14,5.14-1.75c2.35-.84,4.69-1.72,7-2.57,1.92-.69,3.83-1.38,5.76-2,1-.33,1.92-.59,2.88-.88l.14.4c-1.75.88-3.49,1.77-5.24,2.64-2.42,1.2-4.85,2.36-7.27,3.56-2.18,1.08-4.34,2.2-6.52,3.29S85.55,47.86,83.33,49L77,52.13c-1.7.86-3.39,1.74-5.11,2.58C69.6,55.83,67.3,56.9,65,58s-4.22,2.15-6.34,3.21c-1.74.87-3.5,1.69-5.24,2.55C51.21,64.89,49,66,46.73,67.14s-4.33,2.1-6.49,3.18c-1.71.85-3.38,1.77-5.1,2.62-2.78,1.37-5.59,2.69-8.37,4.06-2.21,1.09-4.4,2.23-6.61,3.33s-4.44,2.2-6.66,3.3l-8.16,4C3.72,88.45,2.07,89.2.46,90a2.21,2.21,0,0,0-.31.2C.05,92,0,93.73,0,95.5Q0,96.77,0,98c.42-.19.85-.38,1.27-.6,1.5-.83,3-1.69,4.49-2.51l11.39-6.23C20,87.1,22.9,85.5,25.77,83.93l11.3-6.18c3.36-1.84,6.7-3.71,10.06-5.56C50,70.61,52.92,69,55.8,67.45c1.85-1,3.67-2.1,5.53-3.11,3.93-2.15,7.89-4.27,11.82-6.43,1.86-1,3.67-2.11,5.53-3.12,2.93-1.59,5.89-3.12,8.81-4.72,2.43-1.33,4.83-2.71,7.24-4.06,3.33-1.87,6.67-3.74,10-5.59a5.21,5.21,0,0,1,1.15-.33l.17.4c-1.12.84-2.24,1.69-3.38,2.5q-6.25,4.47-12.52,8.91Q83,57,75.79,62.17c-4,2.85-7.94,5.73-11.91,8.59l-13,9.3c-4.17,3-8.32,6-12.5,9-3.91,2.79-7.84,5.54-11.74,8.33-4.11,2.95-8.2,5.94-12.31,8.89q-5.92,4.26-11.88,8.47a2.2,2.2,0,0,0-.44.4q.76,3.61,1.78,7.12,5.71-4.42,11.41-8.84C19.35,110.21,23.46,107,27.6,103.77Z"/><path class="cls-1" d="M160.33,70.32A5.06,5.06,0,0,0,161,70l9.51-6.51c3.8-2.6,7.6-5.2,11.42-7.77a2.1,2.1,0,0,0,.33-.27q-1.45-3.14-3.13-6.16c-.23.2-.4.35-.55.5l-4.3,4.27q-6.35,6.31-12.68,12.63A30.13,30.13,0,0,1,160.33,70.32Z"/><path class="cls-1" d="M121.52,164.31q-.76-8.57-1.44-17.14c-.38-4.62-.69-9.25-1.09-13.87-.6-6.9-1.26-13.79-1.87-20.69-.48-5.48-.93-11-1.38-16.45-.34-4.14-.63-8.28-1-12.41-.6-.43-1.19-.87-1.76-1.33,0,.84.12,1.69.14,2.53q.51,17.6,1,35.2c.39,13,.81,26,1.2,39,.27,9,.49,18,.74,26.94h.12c0,.66,0,1.33,0,2a3.35,3.35,0,0,0,0,.69q3.71-.82,7.3-1.92c0-.45-.08-1.15-.18-2.33C122.78,177.77,122.11,171,121.52,164.31Z"/><path class="cls-1" d="M187.78,118.56c-1.83-1.31-3.61-2.7-5.41-4-4-3-8.09-6-12.11-9L145,86.47h0q-.73.34-1.48.64l.05.07c.94.89,1.92,1.73,2.89,2.59l14.75,13.19,15.34,13.72q4.63,4.14,9.28,8.27a3,3,0,0,0,.46.35q1-3.15,1.85-6.4A1.92,1.92,0,0,0,187.78,118.56Z"/><path class="cls-1" d="M172.32,132.63l-16.45-20.56-9.31-11.64q-4.64-5.79-9.3-11.57-.8.14-1.62.23l0,0c.39.62.81,1.21,1.22,1.82q7.5,10.93,15,21.87,6.53,9.55,13,19.13,5.15,7.55,10.32,15.09a2.25,2.25,0,0,0,.39.46q1.93-3,3.64-6.08a3,3,0,0,0-.46-.72C176.61,138,174.48,135.32,172.32,132.63Z"/><path class="cls-1" d="M107.36,76.39q-.7,5.6-1.38,11.19c0,.2-.08.39-.11.59-.42,2.61-.85,5.21-1.25,7.82-.12.82-.12,1.65-.23,2.47-.44,3.21-.9,6.41-1.35,9.62,0,.33-.06.66-.12,1-.37,2.24-.77,4.48-1.12,6.73-.23,1.47-.39,2.95-.59,4.42s-.39,3.16-.62,4.73c-.32,2.16-.72,4.3-1,6.46-.36,2.76-.65,5.52-1,8.28,0,.16-.07.32-.1.49-.4,2.54-.85,5.08-1.2,7.64s-.58,5-.89,7.48c-.19,1.5-.42,3-.64,4.5,0,.29-.12.58-.17.88-.19,1.14-.38,2.28-.54,3.42-.09.62-.13,1.25-.22,1.87-.39,2.52-.83,5-1.17,7.54s-.58,5.12-.93,7.67q-.62,4.57-1.36,9.12a1.54,1.54,0,0,0,0,.62c1.36.06,2.73.09,4.1.09,1,0,2,0,3-.05a3.68,3.68,0,0,0,.13-.83c.3-4,.57-7.93.94-11.88.35-3.72.81-7.44,1.19-11.16.25-2.4.44-4.8.66-7.21.24-2.67.51-5.34.73-8,.37-4.52.66-9.05,1.07-13.57.35-3.79.85-7.56,1.23-11.34.25-2.43.38-4.88.61-7.32.5-5.24,1.05-10.48,1.53-15.73.42-4.59.77-9.18,1.18-13.77q.52-5.9,1.1-11.8C108.33,77.72,107.83,77.06,107.36,76.39Z"/><path class="cls-1" d="M191,94.88a1.47,1.47,0,0,0-.34-.15c-1.2-.36-2.38-.8-3.58-1.19L179,90.88l-9.7-3.21c-2.67-.88-5.34-1.72-8-2.6-3.11-1-6.21-2.09-9.33-3.08-.45.39-.92.77-1.39,1.13l.12.06c2.12.93,4.22,1.9,6.34,2.84l7.61,3.38,8.89,4,10.88,4.83c2,.9,4.06,1.79,6.07,2.71a1.35,1.35,0,0,0,.41.12c.1-1.82.16-3.66.16-5.51C191,95.29,191,95.09,191,94.88Z"/><path class="cls-1" d="M143.23,166.2c-.64-2.3-1.23-4.6-1.85-6.9s-1.2-4.33-1.78-6.51-1.16-4.47-1.77-6.7-1.29-4.44-1.9-6.67-1.12-4.42-1.73-6.62c-1.08-3.89-2.22-7.75-3.28-11.64-.86-3.12-1.62-6.26-2.48-9.38-1.09-4-2.25-7.88-3.33-11.83s-2.1-8-3.17-12c0-.17-.1-.35-.15-.52-.62-.23-1.22-.48-1.82-.74a1.49,1.49,0,0,0,0,.17,6.56,6.56,0,0,0,.29,1.15c.37,1.71.75,3.43,1.1,5.14s.64,3.37,1,5.05c.64,3,1.32,6,2,9,.59,2.78,1.13,5.58,1.71,8.36.67,3.21,1.36,6.41,2,9.62.53,2.53,1,5.06,1.57,7.58.63,2.91,1.32,5.81,1.93,8.72s1.12,5.78,1.73,8.66c.83,3.92,1.73,7.82,2.57,11.73q1.9,8.88,3.74,17.78a1.83,1.83,0,0,0,.15.46q3.27-1.71,6.38-3.66c-.34-1.3-.64-2.47-1-3.63C144.52,170.65,143.85,168.43,143.23,166.2Z"/><path class="cls-1" d="M160.47,150.59c-2.3-4.58-4.65-9.14-6.94-13.73-2.8-5.59-5.56-11.2-8.36-16.79q-4.62-9.23-9.29-18.45c-2.09-4.16-4.17-8.32-6.3-12.46-.67-.06-1.33-.13-2-.23.13.25.26.5.37.76,1,2.43,2.06,4.87,3.1,7.29.92,2.16,1.87,4.3,2.8,6.46l3.26,7.56c.82,1.91,1.66,3.81,2.48,5.73s1.63,4,2.48,5.95c1.09,2.55,2.23,5.09,3.33,7.64s2.15,5.12,3.25,7.67,2.26,5.15,3.36,7.74c1.32,3.1,2.6,6.22,3.92,9.33,1.42,3.34,2.86,6.67,4.27,10a1.46,1.46,0,0,0,.27.44q2.55-2.36,4.92-4.91a.62.62,0,0,0,0-.12Q163,155.51,160.47,150.59Z"/></g></g></svg>