<svg xmlns="http://www.w3.org/2000/svg" viewBox="0 0 192.36 192.9"><defs><style>.cls-1{fill:red;}.cls-2{fill:none;}</style></defs><title>kompakt</title><g id="Layer_2" data-name="Layer 2"><g id="Layer_1-2" data-name="Layer 1"><path class="cls-1" d="M72.63,74.36a4.7,4.7,0,0,1,.24.53c.41,1.31.81,2.61,1.31,3.89a5.71,5.71,0,0,1,.29,1.1c.21,1.23.4,2.47.6,3.7a5.13,5.13,0,0,1,.06.53q.09,1.61.16,3.22c.05,1.17.08,2.35.16,3.53a28.46,28.46,0,0,0,.56,4,16.22,16.22,0,0,1,.39,3.19,3.6,3.6,0,0,0,.07.61,24.45,24.45,0,0,1,.38,4.66c0,1,0,2.1,0,3.15-.12,1.84-.14,3.68-.35,5.51a20.08,20.08,0,0,0-.14,2.68,10.81,10.81,0,0,1-.55,3.69c-.51,1.48-1,3-1.64,4.4a6.29,6.29,0,0,1-1.35,1.94A10.78,10.78,0,0,1,69.29,127c-.43.18-.86.4-1.29.57a4.81,4.81,0,0,1-.73.22,3.6,3.6,0,0,0-1.45.48,1.93,1.93,0,0,1-.46.18c-.76.3-1.53.6-2.29.92-.32.14-.62.34-.93.5a4.08,4.08,0,0,0-1.65,1.7c-.43.76-.87,1.51-1.3,2.27a2.33,2.33,0,0,1-1.4,1.18,1.92,1.92,0,0,1-1,0c-.55-.12-1.09-.27-1.64-.35-1-.13-2-.25-3-.32a8.54,8.54,0,0,1-3.85-1.21,5.5,5.5,0,0,1-.53-.37,2.28,2.28,0,0,1-.88-1.67c-.06-.61-.1-1.22-.15-1.83s-.07-1-.13-1.45a10,10,0,0,1-.16-2,1.55,1.55,0,0,0,0-.46c-.31-1.34-.61-2.68-1-4a13.87,13.87,0,0,1-.37-1.87,19.57,19.57,0,0,0-.61-3.15c-.3-1-.58-2.11-.88-3.15-.25-.85-.54-1.69-.8-2.54a13.7,13.7,0,0,1-.48-3,7.2,7.2,0,0,1,.1-1.37,13.75,13.75,0,0,1,.92-3.69c.22-.54.47-1.06.68-1.6a.56.56,0,0,1,.6-.4c.28,0,.56,0,.84,0a4.46,4.46,0,0,0,2.2-.63,1.73,1.73,0,0,0,.45-.36c.28-.31.55-.62.8-1a.6.6,0,0,1,.6-.3,5,5,0,0,0,1.59-.14,3.51,3.51,0,0,0,1.39-.68,5.73,5.73,0,0,0,2.19-4.49A7.77,7.77,0,0,0,54,89.24a4.33,4.33,0,0,0-1.31-1.56,12,12,0,0,0-3-1.77,7.67,7.67,0,0,1-.76-.39,1.52,1.52,0,0,1-.25-.23,1.14,1.14,0,0,1,.06-.25c.87-1.55,1.53-3.22,2.28-4.83a61.89,61.89,0,0,0,2.4-5.8c.54-1.56,1.21-3,1.81-4.57a8.87,8.87,0,0,0,.65-2.18c0-.23.06-.46.07-.69a13.71,13.71,0,0,1,.94-4.3,23.47,23.47,0,0,0,1.3-4.84,7.59,7.59,0,0,1,.49-1.92,10.68,10.68,0,0,0,.74-3.73,8.62,8.62,0,0,0-.94-4.42L58,46.89a5,5,0,0,0-2-2.06c-.51-.3-1-.57-1.55-.86A1.37,1.37,0,0,0,53,44a5.39,5.39,0,0,0-1,.74,21.4,21.4,0,0,0-2.27,2.6,8,8,0,0,0-1,1.68c-.33.76-.71,1.49-1.06,2.23a1.94,1.94,0,0,0-.2.49,13.88,13.88,0,0,1-1.13,3.12,4.21,4.21,0,0,0-.29.7A13.6,13.6,0,0,1,45,58.08c-.21.48-.45.94-.68,1.42a4.2,4.2,0,0,1-.74,1.11,3.54,3.54,0,0,0-.79,1.34c-.13.38-.27.77-.37,1.16-.21.76-.4,1.52-.6,2.29A3,3,0,0,0,41.71,67a2.77,2.77,0,0,1,0,.72l-.21,0c0,.17,0,.34,0,.51a3.56,3.56,0,0,1-.1,1.06,2.19,2.19,0,0,0-.06.76,7.21,7.21,0,0,1-.13,1.83A24.63,24.63,0,0,0,40.91,75c0,.61-.09,1.22-.16,1.83-.12,1-.27,1.92-.39,2.88a4.4,4.4,0,0,1-.64,1.77c-.29.47-.54,1-.83,1.42a1.27,1.27,0,0,0,0,1.37A14.27,14.27,0,0,1,39.67,86l.41,1a8,8,0,0,0,2,2.72,2.88,2.88,0,0,0,.53.37,14.71,14.71,0,0,0,2.63,1.22,5.83,5.83,0,0,1,2.34,1.47,3.77,3.77,0,0,1,.86,4.13,4.29,4.29,0,0,1-.43.87,2,2,0,0,1-1.77,1c-.3,0-.6,0-.9,0-.13,0-.32,0-.39-.11-.26-.32-.57-.21-.89-.23A5.39,5.39,0,0,1,42.43,98a19.09,19.09,0,0,1-2.13-1.12,3.45,3.45,0,0,1-1.13-1.12,7.59,7.59,0,0,1-1-1.66,2.23,2.23,0,0,0-.78-1c-.47-.38-.94-.76-1.43-1.1a14,14,0,0,1-3.15-3.21,1,1,0,0,1-.18-.85c.08-.37.15-.75.2-1.13a1.28,1.28,0,0,0-.3-1.13,1.31,1.31,0,0,1-.31-.75,2.29,2.29,0,0,0-.55-1.3,1,1,0,0,1-.23-.85c.06-.64.13-1.27.21-1.9a16.64,16.64,0,0,0,0-3.29c-.09-1.17-.14-2.35-.21-3.52a3.5,3.5,0,0,1,0-.61,18.76,18.76,0,0,0,0-3.75c-.06-.76-.05-1.53-.05-2.3a1.15,1.15,0,0,1,.15-.57,1.24,1.24,0,0,0,.16-.72c0-1.35-.08-2.71,0-4.06a2.67,2.67,0,0,0-.12-1,6.43,6.43,0,0,1-.23-2,29.57,29.57,0,0,0-.08-3.6,1.67,1.67,0,0,1,0-.38,27.87,27.87,0,0,0,.1-3.37,17.94,17.94,0,0,1,.12-3.14,8.88,8.88,0,0,1,.24-1.12,3.53,3.53,0,0,0,.05-2.11,4.07,4.07,0,0,1-.14-1.29,5.78,5.78,0,0,0-.22-2,4.24,4.24,0,0,1-.13-.83c-.1-.91-.22-1.82-.23-2.75,0-1.3,0-2.61-.15-3.91s-.07-2.3-.1-3.45c0-.48-.07-1-.1-1.45s0-1.07-.06-1.61-.06-1.12-.08-1.68-.07-1.23,0-1.84A5,5,0,0,1,31.69,22a2.26,2.26,0,0,1,.24-.28A19.79,19.79,0,0,0,34,19.4a4.27,4.27,0,0,1,1.38-1,48.08,48.08,0,0,0,4.36-2.88c1.12-.82,2.28-1.58,3.33-2.51a8,8,0,0,0,.63-.6A10.58,10.58,0,0,1,45.21,11a11.14,11.14,0,0,0,1.56-1.4,17.77,17.77,0,0,1,2.39-2.1c.3-.23.6-.48.89-.73q.76-.67,1.5-1.36a1.28,1.28,0,0,1,.69-.34,7.58,7.58,0,0,0,2.3-.84,20.72,20.72,0,0,1,1.93-.89,3.67,3.67,0,0,1,1.93-.08,12.48,12.48,0,0,1,1.5.35,5.26,5.26,0,0,1,1.9,1.1,2.58,2.58,0,0,1,.81,1.65c.18,1.06.34,2.11.51,3.17a5.24,5.24,0,0,0,1.32,2.82,2.66,2.66,0,0,0,.91.68,2.26,2.26,0,0,1,1.08,1,15.51,15.51,0,0,0,1.43,2.07,8.38,8.38,0,0,1,.77,1.18,6.19,6.19,0,0,0,.91,1.25A12.4,12.4,0,0,1,71.34,21l0,.06L73,24.15l0,.07c.55,1.76,1.38,3.4,1.79,5.24.31,1.39.67,2.77.9,4.18a28.23,28.23,0,0,1,.31,5c0,.46,0,.92,0,1.38a16.12,16.12,0,0,1-.33,3.58,1.61,1.61,0,0,1-.07.3,6.41,6.41,0,0,0-.1,3.55,16.55,16.55,0,0,1,.2,2A6.5,6.5,0,0,1,75,52.47a16.19,16.19,0,0,0-1.19,4.47c-.07.48-.17,1-.27,1.42s-.21.89-.32,1.33a1.24,1.24,0,0,1-.08.29,5,5,0,0,0-.44,1.92A29.28,29.28,0,0,1,71.92,66a39.22,39.22,0,0,0-.93,4.8c-.05.41-.13.81-.18,1.21-.13,1-.29,2-.37,3a48.55,48.55,0,0,1-.82,5.76,19.8,19.8,0,0,0-.45,4.49c0,.61-.11,1.22-.1,1.83a13.88,13.88,0,0,1,0,1.76c0,.48-.08,1-.11,1.45-.08,1-.17,2-.23,3-.07,1.3-.09,2.61-.19,3.91s-.06,2.87-.13,4.29c-.17,3.12,0,6.24-.15,9.36-.06,1.77-.05,3.53-.11,5.29a12.71,12.71,0,0,1-.52,3.16c-.08.27-.18.53-.23.8a1.29,1.29,0,0,0,0,.53.44.44,0,0,0,.77.24,2.33,2.33,0,0,0,.34-.57,11.1,11.1,0,0,0,.94-4.14c.06-1.43.05-2.87.17-4.29.19-2.2.11-4.4.1-6.6,0-.56-.11-1.12-.1-1.68,0-1.1.09-2.2.18-3.29s.25-2.44.24-3.67c0-.61.1-1.22.16-1.83,0-.36.07-.71.08-1.07a11.37,11.37,0,0,1,.18-1.91,4.28,4.28,0,0,0,.08-.61c.07-1.15.11-2.3.19-3.45.09-1.38.2-2.75.31-4.13,0-.15,0-.31,0-.46a4.83,4.83,0,0,1,.21-1.35,8.39,8.39,0,0,0,.27-1.19c.23-1.31.46-2.61.67-3.92.13-.8.21-1.61.31-2.41ZM55.51,32.29a5.87,5.87,0,0,0,1.93-.19,1.89,1.89,0,0,0,1.48-1.53,1.16,1.16,0,0,1,.08-.21c.3-.83.09-1.13-.73-1.05a4.93,4.93,0,0,0-1.82.48A2.07,2.07,0,0,1,55,30a2.45,2.45,0,0,0-.9,0c-.32.05-.63.17-.95.25a1.77,1.77,0,0,0-1.33,1.41c-.13.52-.23,1-.35,1.56a4.58,4.58,0,0,1-.14,1.58,2.06,2.06,0,0,0,0,.38c.1.76.19,1.52.3,2.28a3.1,3.1,0,0,1,0,1.22,2.93,2.93,0,0,0-.07,1.06A8.68,8.68,0,0,1,51.47,42a2.32,2.32,0,0,1-.32.92,7.26,7.26,0,0,1-1.55,1.85c-.78.6-1.54,1.24-2.31,1.84a5.75,5.75,0,0,0-1.77,2.22,23.6,23.6,0,0,1-1.24,2.48c-.2.34-.35.72-.55,1.07A14,14,0,0,1,43,53.59a11.88,11.88,0,0,0-1.44,2.34,5.74,5.74,0,0,1-1.86,2.13l-.12.07c-.62.31-1,.17-1.32-.5a4.32,4.32,0,0,1-.22-.56,4.24,4.24,0,0,1-.08-1.9A13.57,13.57,0,0,1,39,51.64c.19-.44.41-.86.59-1.31A8.52,8.52,0,0,0,40.15,46c-.14-1-.33-2-.52-2.94a16.21,16.21,0,0,1-.27-3,5.3,5.3,0,0,1,1.45-3.77A14.62,14.62,0,0,1,42.19,35a4.73,4.73,0,0,0,1.29-1.78A10.36,10.36,0,0,1,44,32.07a3,3,0,0,0,.4-1.68c0-.56,0-1.13,0-1.69a2.05,2.05,0,0,1,.42-1.35,6.24,6.24,0,0,1,.63-.71c.28-.27.61-.48.88-.76a13.78,13.78,0,0,1,1.87-1.59,6.38,6.38,0,0,0,1.65-1.74c.55-.86,1.06-1.74,1.59-2.62.3-.49.6-1,.87-1.48a3.63,3.63,0,0,0,.3-.85.53.53,0,0,0-.17-.55c-.12-.1-.29,0-.49.16l-.1.11c-1,1.07-1.93,2.14-2.89,3.22a19.76,19.76,0,0,1-2.83,2.71,12.18,12.18,0,0,0-.94.79c-.37.35-.74.7-1.08,1.08a3.62,3.62,0,0,0-.86,2,8.57,8.57,0,0,0,0,1.91,4,4,0,0,1-.54,2.49c-.23.38-.48.76-.68,1.16a6.51,6.51,0,0,1-1.49,1.91,6.45,6.45,0,0,0-.73.81,8.9,8.9,0,0,0-1.61,3.87A6.84,6.84,0,0,0,38,40.78a16.63,16.63,0,0,0,.21,1.75c.13.88.29,1.76.38,2.65A10.6,10.6,0,0,1,38.57,48a17.1,17.1,0,0,1-1.21,4.07,12.16,12.16,0,0,0-.87,3.38A3.56,3.56,0,0,0,36.56,57c.13.41.26.82.42,1.22a2.64,2.64,0,0,0,1.44,1.56,1.72,1.72,0,0,0,2.4-.86,4.25,4.25,0,0,1,1.06-1.3.93.93,0,0,0,.35-.55,4.13,4.13,0,0,1,.6-1.29,17.45,17.45,0,0,1,1.89-2.55,3.59,3.59,0,0,0,.88-1.79c.1-.5.22-1,.37-1.48a2.84,2.84,0,0,1,.37-.82,9.18,9.18,0,0,1,2.43-2.39A15.44,15.44,0,0,0,51,44.88a2.32,2.32,0,0,0,.6-.92,5.36,5.36,0,0,1,.53-1.07,2.32,2.32,0,0,0,.35-1.07c0-.41.11-.81.11-1.22a14.26,14.26,0,0,0,.09-2.68.93.93,0,0,1,0-.38,2.58,2.58,0,0,0,0-1.14c-.07-.35-.11-.71-.16-1.06a1.73,1.73,0,0,1,.09-.9c.17-.42.33-.85.51-1.26a1.29,1.29,0,0,1,1.2-.89Z"/><path class="cls-1" d="M90.27,86.82l-.43.27c-.38.25-.76.49-1.12.76A3.91,3.91,0,0,0,87.4,89.7c-.18.53-.37,1-.52,1.59a11.3,11.3,0,0,1-.75,1.9,3.94,3.94,0,0,1-.3.52,1.47,1.47,0,0,1-1.65.69l-.68-.14a4,4,0,0,0-1.59,0c-.53.1-1,.23-1.58.3a6.57,6.57,0,0,1-1.18.06,1.54,1.54,0,0,1-1.29-1.2c-.09-.42-.16-.85-.28-1.27a13.29,13.29,0,0,1-.42-3.56,17.51,17.51,0,0,0-.41-3.8,3.28,3.28,0,0,1-.11-.52,3.79,3.79,0,0,0-.52-1.8,2.46,2.46,0,0,1-.22-.8,19.9,19.9,0,0,0-.76-2.71c-.32-.93-.56-1.9-.83-2.85a3.84,3.84,0,0,1-.07-1.45,3,3,0,0,0-.06-1.06c-.12-.49-.25-1-.34-1.49A2.18,2.18,0,0,0,73.35,71a1.74,1.74,0,0,1-.21-.3.48.48,0,0,1,0-.5c.09-.15.09-.28-.07-.38,0,0,0-.05,0-.06.32-.43,0-1,.26-1.46a7.5,7.5,0,0,0,.31-1.56,2.92,2.92,0,0,1,.13-.52,18.41,18.41,0,0,0,.68-2.58c.13-.57.28-1.14.45-1.69a23.2,23.2,0,0,0,.93-4.33,12.48,12.48,0,0,1,.68-3c.28-.76.57-1.52.82-2.28a7.2,7.2,0,0,0,.43-2.78,10.62,10.62,0,0,0-.28-1.81,4.61,4.61,0,0,1-.1-3.23c.08-.45.17-.9.24-1.36A.53.53,0,0,1,78,42.6c.35,0,.69-.11,1-.16a4.77,4.77,0,0,0,3.18-2,6.76,6.76,0,0,1,.51-.63,11.57,11.57,0,0,0,1.49-2,4.76,4.76,0,0,0,.59-1.55c.16-.77.29-1.55.43-2.33a7.45,7.45,0,0,0,0-1.5c-.17-.07-.21,0-.26.12-.23.36-.44.72-.68,1.07A18.19,18.19,0,0,0,83,36.07a9,9,0,0,1-1.54,2.45c-.25.26-.45.58-.68.87a2.71,2.71,0,0,1-1.61,1c-.39.08-.76.2-1.15.3a1.13,1.13,0,0,1-.24,0,4.76,4.76,0,0,1-.06-.52c0-.56,0-1.13,0-1.69A37,37,0,0,0,77.44,34c-.07-.61-.08-1.23-.17-1.83s-.21-1.15-.34-1.72-.33-1.44-.51-2.15c-.27-1.09-.53-2.17-.83-3.25a10.68,10.68,0,0,0-1.07-2.32c-.24-.44-.47-.88-.72-1.31s-.66-1.12-1-1.64a17.28,17.28,0,0,0-2.06-2.49,15.72,15.72,0,0,1-1.19-1.18c-.66-.79-1.29-1.6-1.91-2.43a4.35,4.35,0,0,1-.7-1.34,3,3,0,0,1,.33-.3,6.31,6.31,0,0,1,2.18-1c1.09-.23,2.19-.43,3.29-.64l1.16-.26c1.43-.33,2.86-.68,4.29-1A13.65,13.65,0,0,1,79.62,9a16.28,16.28,0,0,1,1.94-.17c1.11,0,2.22.08,3.33.16a5.35,5.35,0,0,1,2.61,1,6.79,6.79,0,0,1,1.91,1.77,8.71,8.71,0,0,1,1,2.58c0,.07,0,.16,0,.23a12.8,12.8,0,0,1,.35,3.33,2.77,2.77,0,0,1-.12.83,4.2,4.2,0,0,0,.18,1.88.8.8,0,0,0,.09.2c.3.5.68.51,1,0a1.67,1.67,0,0,1,.51-.62,1.47,1.47,0,0,0,.66-1.35,8.09,8.09,0,0,0-.08-1.3c-.05-.4-.17-.8-.25-1.2s0-.55.35-.61a14.54,14.54,0,0,1,1.73-.21,16.19,16.19,0,0,0,2.43-.14,1.14,1.14,0,0,1,.74,0,.25.25,0,0,1,0,.35l-.45.48a2.75,2.75,0,0,0-.83,1.79.39.39,0,0,1,0,.07l-.23,1c.2.46.37.94.61,1.37a3.43,3.43,0,0,0,1.17,1.06.84.84,0,0,0,.47.09c.32,0,.65,0,1-.06l1.59-.18a1,1,0,0,1,.66.18c.42.27.85.53,1.25.83a3.22,3.22,0,0,0,1.58.55,1.11,1.11,0,0,0,.48-.07,3,3,0,0,0,1.5-1.05,16.52,16.52,0,0,0,1.45-2.25c.34-.67.74-1.3,1.13-1.93.25-.41.32-.4.76-.27l3.5,1c.13,0,.27.07.4.11,1.28.46,2.59.81,3.9,1.15a2.8,2.8,0,0,1,.89.42c.64.45,1.27.94,1.89,1.43a12,12,0,0,1,2.06,1.93,1.42,1.42,0,0,0,.27.23,3.12,3.12,0,0,1,.71.73,2.49,2.49,0,0,0,.94.89,1.22,1.22,0,0,1,.52.6,4.15,4.15,0,0,0,.62,1,2.35,2.35,0,0,1,.52,1.05,1.16,1.16,0,0,1-.31-.11c-.5-.41-1-.85-1.5-1.24a8.24,8.24,0,0,0-2.84-1.41,9,9,0,0,0-2.62-.37c-.39,0-.79,0-1.18,0a22,22,0,0,0-4.22.42l-2.19.42a9.19,9.19,0,0,0-1.36.32,14.13,14.13,0,0,1-1.63.36c-1.2.27-2.41.54-3.61.84a3.6,3.6,0,0,0-1,.38,13.43,13.43,0,0,1-2.54,1,28.84,28.84,0,0,0-4,1.71c-.94.5-1.87,1-2.8,1.53a16.34,16.34,0,0,0-2.92,2.21A23.53,23.53,0,0,0,88.93,37a18.06,18.06,0,0,0-3,5.07q-.94,2.61-1.63,5.3c-.24.93-.41,1.89-.59,2.84a5.4,5.4,0,0,0-.07.76,41.74,41.74,0,0,1-.79,6.3,13.51,13.51,0,0,1-1.53,4,2.74,2.74,0,0,0-.36,1c-.06.41.2.65.54.49A1.79,1.79,0,0,0,82,62.4a6.83,6.83,0,0,0,1.9-3.51q.25-1.24.42-2.49c.15-1.11.27-2.23.39-3.35,0-.3,0-.61,0-.92a6.51,6.51,0,0,1,.46-2.39,18,18,0,0,0,.88-2.91,35.58,35.58,0,0,1,1.51-4.78A16.93,16.93,0,0,1,89.92,38,16.64,16.64,0,0,1,92,35.68a26.08,26.08,0,0,1,2.74-2.23A16.36,16.36,0,0,1,98,31.65c1.13-.46,2.25-1,3.37-1.45a6.41,6.41,0,0,1,1.74-.54,2.82,2.82,0,0,0,.54-.12c1.33-.46,2.72-.63,4.07-1a12.06,12.06,0,0,1,2.89-.41c.69,0,1.39-.13,2.08-.2l.14,0a6.55,6.55,0,0,0,2.74-.76,3.67,3.67,0,0,1,1.82-.4c.46,0,.93,0,1.39,0a6.29,6.29,0,0,1,3.6,1,18.92,18.92,0,0,0,1.93,1.05,4.68,4.68,0,0,1,1.47,1.14A12.06,12.06,0,0,0,126.83,31a5.67,5.67,0,0,1,1.11,1.15,7.86,7.86,0,0,0,.77.88,33.62,33.62,0,0,1,2.7,3.7c.37.56.71,1.14,1,1.73A5.29,5.29,0,0,1,133.1,41a26.82,26.82,0,0,1-.34,4.58,4.89,4.89,0,0,0-.07.69,15.36,15.36,0,0,1-1,4.92,20.12,20.12,0,0,0-.91,3c-.13.68-.22,1.36-.39,2a20.63,20.63,0,0,0-.34,2.65,8.7,8.7,0,0,0,.14,2.37,12.41,12.41,0,0,1,.14,2c0,.51.08,1,.1,1.53.06,1.46,0,2.91-.12,4.37a11.38,11.38,0,0,1-.15,2.06c-.18.74-.33,1.49-.52,2.22a3,3,0,0,1-.32.68c-.32.57-.64,1.13-1,1.69a3.08,3.08,0,0,0-.23.47,8,8,0,0,1-.81,1.69,11.92,11.92,0,0,1-1.27,2.45c-.74,1.42-1.38,2.89-2,4.38s-1.24,2.69-1.87,4c-.37.77-.74,1.53-1.13,2.29-.17.33-.36.66-.55,1-.71,1.17-1.43,2.33-2.12,3.51a8.7,8.7,0,0,0-.61,1.29,21,21,0,0,1-2.67,4.92c-.71,1-1.41,2-2.07,3a27.47,27.47,0,0,1-2.79,3.52,17.59,17.59,0,0,1-3.61,3,5.69,5.69,0,0,1-2.79.87c-.72,0-1.44,0-2.16,0a4.41,4.41,0,0,1-2-.54,10.43,10.43,0,0,0-1-.48,7.62,7.62,0,0,1-2-1.23,2.17,2.17,0,0,1-.42-.5,2.6,2.6,0,0,0-.8-.84,1.23,1.23,0,0,1-.56-.84,34.63,34.63,0,0,1-.88-5c0-.43-.08-.86-.14-1.3a19.78,19.78,0,0,1,0-5.43A21.46,21.46,0,0,0,94,91a23.19,23.19,0,0,0-1.11-5.61c-.58-1.73-1.25-3.42-1.9-5.12a16,16,0,0,1-1-3.67,11.4,11.4,0,0,1,.13-3,16.42,16.42,0,0,1,1.41-4.4,10.84,10.84,0,0,1,.87-1.48A24.71,24.71,0,0,1,94,65.49a10.36,10.36,0,0,0,1.63-2.93,2.31,2.31,0,0,0,.14-.51,8.4,8.4,0,0,0-.13-3.12,1.56,1.56,0,0,0-.47-.83.37.37,0,0,0-.56,0,1.23,1.23,0,0,0-.32.82,3.71,3.71,0,0,0,0,.61c0,.33.12.65.17,1a2.93,2.93,0,0,1-.4,2.19,48.2,48.2,0,0,1-2.76,4,10.64,10.64,0,0,0-1.54,2.73c-.37.91-.72,1.83-1,2.77a9.53,9.53,0,0,0-.43,4.16,10.9,10.9,0,0,1,0,1.68,6.88,6.88,0,0,0,.46,3.15c.18.41.36.83.52,1.26a10,10,0,0,1,.55,2c.11.65.26,1.3.39,1.95A3.22,3.22,0,0,1,90.27,86.82Zm22.43,6c.48-.39.53-.45.62-.85s.12-.65.2-1c.12-.52.26-1,.36-1.56.13-.68.22-1.36.33-2a20,20,0,0,1,.86-3.32c.3-.89.62-1.76.87-2.67a16.2,16.2,0,0,0,.62-3.06c0-.48.16-1,.24-1.43a.43.43,0,0,1,.43-.41h.14a5.66,5.66,0,0,0,2.94-1.29,14.44,14.44,0,0,0,3.17-3.53,15.63,15.63,0,0,0,2-3.91,17.58,17.58,0,0,0,.9-2.73,3.55,3.55,0,0,0,.14-.67c.08-.73.16-1.47.22-2.21a13.07,13.07,0,0,0,0-1.38c0-.64-.07-1.28-.11-1.91,0-.18,0-.36,0-.54,0-.47-.23-.66-.64-.53a2.74,2.74,0,0,0-.81.42c-1.31,1-2.61,2-3.92,3-.15.11-.3.21-.54.37,0-.23.06-.35.08-.46q.27-1.31.55-2.61c.08-.37.15-.75.26-1.11a3.68,3.68,0,0,1,.3-.69c.15-.29.32-.56.49-.83a5.85,5.85,0,0,1,2.69-2.55c.29-.11.56-.24.85-.35a6.13,6.13,0,0,0,2.57-2,2.76,2.76,0,0,0,.4-.8.39.39,0,0,0-.45-.55,2.32,2.32,0,0,0-.71.3c-1.23.77-2.45,1.56-3.68,2.33-.44.28-.91.5-1.36.76-.27.15-.54.3-.79.48a5.26,5.26,0,0,0-1.93,2.83c-.25.79-.42,1.62-.62,2.44s-.29,1.34-.46,2c-.36,1.32-.75,2.64-1.1,4a13.79,13.79,0,0,0-.35,1.72,23.07,23.07,0,0,1-.58,2.92c-.38,1.42-.77,2.84-1.14,4.27-.11.42-.18.85-.26,1.27-.15.77-.28,1.56-.46,2.32s-.46,1.77-.7,2.65c-.12.44-.27.87-.38,1.32-.31,1.28-.65,2.56-.91,3.86-.3,1.47-.53,3-.78,4.44a12.59,12.59,0,0,0-.24,2.13A1.25,1.25,0,0,0,112.7,92.85ZM111.26,64c0-.41,0-.9-.07-1.38a22.35,22.35,0,0,0-1-4.32A14.23,14.23,0,0,0,108.76,55c-.46-.74-.9-1.49-1.34-2.24a16.33,16.33,0,0,0-2.13-2.83,4.07,4.07,0,0,0-1.45-1,4.13,4.13,0,0,1-1-.62,2.79,2.79,0,0,0-.67-.39c-.43-.18-.83.17-.72.68a2,2,0,0,1,0,.83A26.06,26.06,0,0,0,100.9,54c0,.26,0,.51,0,.77a55.18,55.18,0,0,0,.13,5.74.76.76,0,0,0,0,.08c.11.76.24,1.51.32,2.27a21.48,21.48,0,0,0,2.21,7.46,6,6,0,0,0,3,2.88,2.08,2.08,0,0,0,2.75-1.07q.34-.67.66-1.35a10.38,10.38,0,0,0,.87-2.42A26.42,26.42,0,0,0,111.26,64ZM116,52.1a6.38,6.38,0,0,0-1.33-4.3,3.79,3.79,0,0,1-.25-.37,13.69,13.69,0,0,0-1.64-2.18,8.5,8.5,0,0,1-.81-.95,11.41,11.41,0,0,0-3.1-2.81,7.78,7.78,0,0,0-3.4-1.27L103,39.89c-.53-.07-1.06-.16-1.59-.22a2.15,2.15,0,0,0-.55,0,.34.34,0,0,0-.22.56,2.22,2.22,0,0,0,.57.54A9.41,9.41,0,0,0,104,42c.72.18,1.45.33,2.17.55a7.85,7.85,0,0,1,4,2.88,15.25,15.25,0,0,0,1.38,1.72,4.18,4.18,0,0,1,.68,1c.34.6.74,1.17,1.09,1.77a2.9,2.9,0,0,1,.35.83,10.56,10.56,0,0,1,.2,4.63,4.64,4.64,0,0,0-.1,1,.7.7,0,0,0,.61.79.46.46,0,0,0,.38-.1,2.14,2.14,0,0,0,.56-1c.08-.32.19-.63.26-1A12.52,12.52,0,0,0,116,52.1Zm-5.85,38.6a2.25,2.25,0,0,0-.51-1.71,37.55,37.55,0,0,0-2.44-3.23c-.13-.14-.23-.32-.35-.47a5.83,5.83,0,0,0-.44-.49.78.78,0,0,0-.3-.18.28.28,0,0,0-.26,0,.55.55,0,0,0-.11.34.83.83,0,0,0,.12.35q.2.36.43.7c.71,1.07,1.42,2.14,2.14,3.2a2.1,2.1,0,0,1,.42,1.41,2,2,0,0,0,.08.68.57.57,0,0,0,.67.41c.29,0,.46-.18.51-.52S110.13,90.81,110.14,90.7Z"/><path class="cls-1" d="M120.88,114c.14,0,.19,0,.22.07a13.92,13.92,0,0,0,2.4,1.83c.45.31.89.64,1.33,1a2.22,2.22,0,0,1,.9,2c0,.43,0,.87-.08,1.3a1.32,1.32,0,0,0,.07.67c.07.16.24.23.34.1a5.2,5.2,0,0,0,1.05-1.87,2.54,2.54,0,0,0-.79-2.54,6.15,6.15,0,0,0-.87-.76c-.73-.54-1.48-1.05-2.23-1.57a5.8,5.8,0,0,1-1.54-1.42,3.58,3.58,0,0,1-.61-2.59,11.93,11.93,0,0,1,.86-2.83,14.79,14.79,0,0,0,.49-1.43,2.58,2.58,0,0,0,.07-.76,1.06,1.06,0,0,0-.32-.74c-.27-.27-.62-.2-.71.18a29,29,0,0,1-1.11,3.06,9.17,9.17,0,0,0-.66,3.5,18,18,0,0,1-.14,2.22,2.63,2.63,0,0,1-.2.73,7.33,7.33,0,0,1-1.3,2.17c-1.09,1.22-2.23,2.39-3.32,3.61-.7.78-1.35,1.62-2,2.46s-1.47,2-2.18,3a23.22,23.22,0,0,0-2.53,4.4c0,.07-.06.14-.09.21a35.56,35.56,0,0,0-1.8,6.36c-.1.73-.16,1.47-.21,2.21a12.51,12.51,0,0,0,.21,2.36q.24,1.82.51,3.64a1.35,1.35,0,0,1-.21.94c-.45.75-.91,1.49-1.34,2.24-1.05,1.84-2.2,3.61-3.35,5.38-.32.5-.72.94-1.07,1.41s-.84,1.16-1.25,1.74a31.8,31.8,0,0,1-3,3.46.72.72,0,0,1-.16.09c-.2-.24-.12-.57-.18-.85s0-.62-.11-.91a1.08,1.08,0,0,1,.09-.78,8,8,0,0,1-.41-1c-.4-1.66-.84-3.3-1.36-4.92-.16-.51-.27-1-.4-1.55s-.21-1-.39-1.47c-.49-1.33-.8-2.73-1.19-4.09a4.82,4.82,0,0,1-.07-2.5,10.06,10.06,0,0,0,.24-1.43,5.25,5.25,0,0,1,.45-1.6c.26-.6.52-1.2.76-1.81a3.4,3.4,0,0,0,.35-1.54.87.87,0,0,1,.09-.36c.16-.4.32-.79.5-1.18a1.65,1.65,0,0,0,.2-.65,1,1,0,0,1,.14-.42,7.82,7.82,0,0,0,.63-1.61,5.63,5.63,0,0,1,.55-1.23A5,5,0,0,0,96.8,128q.16-1.48.39-3c.1-.63.26-1.25.41-1.86a11.45,11.45,0,0,0,.3-2.2c0-1.2.14-2.4.21-3.6,0-.38,0-.77,0-1.15s-.07-.92-.08-1.38a8.91,8.91,0,0,0-.18-1.9,2,2,0,0,1,0-.34,1.06,1.06,0,0,1,.39-.11,4.07,4.07,0,0,1,.81.2,10.2,10.2,0,0,0,2.8.58c.42,0,.83.1,1.25.12a11.18,11.18,0,0,0,4.31-.75,4.47,4.47,0,0,0,.94-.49,17.6,17.6,0,0,0,3.4-2.91c.24-.28.46-.58.69-.87a47.76,47.76,0,0,0,2.76-3.95q2.36-3.66,4.73-7.31c.76-1.16,1.54-2.3,2.32-3.45a20.34,20.34,0,0,0,1.74-3,1.18,1.18,0,0,1,.27-.44,2.47,2.47,0,0,0,.65-1.06c.63-1.45,1.29-2.89,1.91-4.35.29-.7.6-1.38.94-2.05a1.11,1.11,0,0,1,1-.7h.21c.72,0,1.43-.11,2.15-.14a9.62,9.62,0,0,1,4.61,1A13.79,13.79,0,0,1,139.9,86,14.64,14.64,0,0,1,141,87.39q.7,1,1.36,1.95c.33.49.63,1,.94,1.52s.57,1,.88,1.47a10.44,10.44,0,0,1,1.29,3c.05.2.13.39.18.58a4.7,4.7,0,0,1,.22,1c0,1.18.33,2.32.45,3.49.1,1,.27,1.92.38,2.89a10.16,10.16,0,0,1-.37,4c-.29,1-.6,1.94-.86,2.92a13.77,13.77,0,0,0-.39,2.1,12.45,12.45,0,0,1-.85,3.7c-.23.53-.38,1.1-.58,1.65-.07.19-.14.38-.22.57a.71.71,0,0,1-.58.47c-.39.07-.77.18-1.16.27a6.94,6.94,0,0,0-2.24,1,14.2,14.2,0,0,0-2.25,1.66,7.16,7.16,0,0,0-1.73,2.66,10.43,10.43,0,0,1-1.36,2.67,15.71,15.71,0,0,1-1.62,1.79,9,9,0,0,0-2.68,5.08,4.07,4.07,0,0,0-.06.61c0,1.1,0,2.2,0,3.3a25.17,25.17,0,0,1-.07,3.22,1,1,0,0,0,0,.45,1.19,1.19,0,0,1,0,.89,4.87,4.87,0,0,1-.29.7,19.48,19.48,0,0,0-1,2,11.28,11.28,0,0,1-.63,1.19c0,.09-.11.16-.16.25a17.46,17.46,0,0,1-2.77,3.73c-.58.62-1.11,1.3-1.64,2a17.84,17.84,0,0,1-2.26,2.49,9.63,9.63,0,0,0-.71.74c-1.17,1.28-2.33,2.57-3.5,3.85a38,38,0,0,0-2.65,3.45,14.1,14.1,0,0,0-2.27,5.71c-.08.42-.14.86-.2,1.29a16,16,0,0,1-1.14,4.17,5.87,5.87,0,0,1-1.36,2,12.66,12.66,0,0,0-1,1.18,4.57,4.57,0,0,1-.42.38,3.23,3.23,0,0,1,0-.53,4,4,0,0,0-1.16-3.87l-1-1-.41-.41a2.74,2.74,0,0,1-.63-2.47,1.49,1.49,0,0,1,.42-.78,7.81,7.81,0,0,1,1.89-1.55c.33-.19.66-.38,1-.55a4.29,4.29,0,0,0,2-2.32,7.78,7.78,0,0,1,.59-1.12,4.05,4.05,0,0,0,.51-1,11.67,11.67,0,0,0,.61-4.37c-.09-1-.27-2-.47-3-.16-.8-.4-1.58-.59-2.37q-.51-2.12-1-4.24c-.25-1.09-.52-2.18-.74-3.28s-.42-2.36-.68-3.53a9.4,9.4,0,0,1-.08-3.58c.16-1,.25-2,.49-2.94a25.57,25.57,0,0,1,1.15-3.61,1.36,1.36,0,0,1,.06-.14c.57-1,1.13-2,1.71-3.07a3.29,3.29,0,0,1,.4-.53c.31-.35.62-.69.93-1a23.23,23.23,0,0,0,1.93-2.41,17.63,17.63,0,0,1,1.92-2.32,22.94,22.94,0,0,0,2.85-3.66,11.52,11.52,0,0,0,.61-1A5.93,5.93,0,0,0,120.88,114Z"/><path class="cls-1" d="M51.25,136.15c.17-.06.23-.11.29-.1a33.49,33.49,0,0,1,3.59.46l1,.19a3.15,3.15,0,0,0,2.88-1,8.75,8.75,0,0,0,.74-.91c.46-.61.9-1.23,1.35-1.85a7.39,7.39,0,0,1,2.27-2c.47-.28,1-.5,1.45-.75s.88-.46,1.33-.67c.23-.11.48-.18.72-.27l1.18-.45c.48-.19,1-.39,1.44-.56a.29.29,0,0,1,.43.24,4.32,4.32,0,0,1,.14.9c0,.48,0,1-.06,1.46s0,.82,0,1.23.07,1.07.13,1.6a30.5,30.5,0,0,1,.09,4.06c0,.43-.08.87-.12,1.3a33.61,33.61,0,0,1-.76,4.91,26.86,26.86,0,0,0-.67,4.69c-.07,1-.1,2-.09,3.07,0,.26,0,.51,0,.76a3.52,3.52,0,0,1,0,.68,2.15,2.15,0,0,0,.23,1.33c.25.49.51,1,.77,1.46a.34.34,0,0,0,.53.18c.6-.27.78-.79.74-1.73a1,1,0,0,0-.09-.37,4.17,4.17,0,0,1-.27-1.65,18.5,18.5,0,0,1,.09-2.6c.11-.94.13-1.89.18-2.83a4.82,4.82,0,0,1,.06-.92c.32-1.23.31-2.53.63-3.76a10.18,10.18,0,0,0,.15-1.52c.11-1.09.21-2.19.34-3.28a12.72,12.72,0,0,0,0-2.68,31.62,31.62,0,0,1-.24-3.52,9.66,9.66,0,0,0-.58-3.37c-.05-.14-.1-.29-.14-.43a.22.22,0,0,1,0-.07c0-.05,0-.12.06-.14a9.55,9.55,0,0,0,1.38-1.16,10.16,10.16,0,0,1,1-.74,4.85,4.85,0,0,0,1.58-1.59,4,4,0,0,0,.43-1.12,7.68,7.68,0,0,1,.75-2.14c.08-.16.14-.32.22-.48a12,12,0,0,0,1.1-3.86c.19-1.26.34-2.53.43-3.81a4,4,0,0,0,0-.69,12.13,12.13,0,0,1,.14-3.21,29.6,29.6,0,0,0,.5-5.8,11,11,0,0,1,.13-2A20.41,20.41,0,0,0,78.95,97c0-.15,0-.3,0-.45a.75.75,0,0,1,.22,0,4.93,4.93,0,0,0,2-.16c.32-.08.64-.15,1-.2a3.72,3.72,0,0,1,1.59.07,7.5,7.5,0,0,0,1,.21,3,3,0,0,0,2.76-1.15A2.58,2.58,0,0,0,88,94.15c.16-.61.33-1.23.47-1.85a4.29,4.29,0,0,1,1.6-2.52,1.57,1.57,0,0,1,.64-.39c.06.06.12.08.13.12A40.28,40.28,0,0,1,91.67,94c.1.78,0,1.58.06,2.38a6.54,6.54,0,0,1-.34,2.18,9,9,0,0,0-.4,2.56c0,.82-.12,1.63-.18,2.45a6.28,6.28,0,0,0,.76,3.89c.12.19.21.4.32.59a1.81,1.81,0,0,0,.26.45,13.64,13.64,0,0,0,2.06,2c.59.36,1.13.81,1.69,1.21a.59.59,0,0,1,.27.51c0,1.07,0,2.15-.07,3.22a14.41,14.41,0,0,1-.2,1.52,27.38,27.38,0,0,0-.26,3.36,14.88,14.88,0,0,1-.35,2.88,12.48,12.48,0,0,0-.37,2.57,2.31,2.31,0,0,1-.05.46A26.43,26.43,0,0,1,93,132a26.56,26.56,0,0,0-1,2.53c-.29.83-.58,1.67-1,2.47a5.84,5.84,0,0,0-.39,1.23,3.34,3.34,0,0,0-.21,1.35.48.48,0,0,1-.07.29,3,3,0,0,0-.25,1.11c-.07.5-.13,1-.17,1.52a1.28,1.28,0,0,0,.05.6,2,2,0,0,1,.11,1.2,2.81,2.81,0,0,0,.2,1.49,16,16,0,0,1,.51,1.59c.14.51.27,1,.36,1.56a31.3,31.3,0,0,0,1.67,5.2,9.42,9.42,0,0,1,.71,3.11,1.27,1.27,0,0,0,.06.45,4.08,4.08,0,0,1,.13,2.19,11.9,11.9,0,0,1-.74,2.79c-.45,1.13-.84,2.28-1.23,3.43a18,18,0,0,1-1.46,3.14,9.54,9.54,0,0,1-4.14,4,27.52,27.52,0,0,1-2.94,1.18l-1,.34a3.16,3.16,0,0,0-1.12.59,1,1,0,0,1-1,.24,12.16,12.16,0,0,1-3-1.08A11.91,11.91,0,0,1,75.26,173c-.22-.19-.43-.4-.65-.57A40.6,40.6,0,0,1,71,169.1a33.92,33.92,0,0,0-3.22-2.8,6.65,6.65,0,0,0-.85-.53,2.54,2.54,0,0,1-1-.94l-1.64-2.76a3.71,3.71,0,0,1-.26-.54c-.85-2.19-2-4.23-3-6.31-.36-.72-.81-1.37-1.19-2.07a43.76,43.76,0,0,1-2.2-4.71c-.22-.56-.46-1.12-.72-1.66-1.22-2.59-2.49-5.15-3.9-7.62-.44-.78-.94-1.52-1.41-2.28C51.51,136.67,51.41,136.45,51.25,136.15Z"/><path class="cls-1" d="M149.77,147a.4.4,0,0,0,.52.17,8.42,8.42,0,0,0,.94-.28,2.43,2.43,0,0,0,.53-.34c.46-.34.91-.71,1.37-1a4.53,4.53,0,0,1,1.82-.73c.53-.1,1-.23,1.57-.35a4.47,4.47,0,0,0,1.24-.49c.18-.11.38-.19.58-.29.39.3.79.56,1.14.88a2.19,2.19,0,0,1,.34,2.83c-.52.53-1,1-1.83.88a4.57,4.57,0,0,0-2.47.21,6.78,6.78,0,0,0-2.15,1.24,2,2,0,0,0-.69,1.13.41.41,0,0,0,.33.55,1.45,1.45,0,0,0,.87-.19,2.13,2.13,0,0,0,.42-.27,5.44,5.44,0,0,1,2.39-1l2-.45a1.52,1.52,0,0,1,1.55,1c0,.07,0,.15.05.22a2.89,2.89,0,0,1-1.47,3.55c-.53.31-1.08.59-1.63.85a6.06,6.06,0,0,0-1.48,1,1.42,1.42,0,0,0-.42.85,8.26,8.26,0,0,1-1.14,3.18,2.41,2.41,0,0,1-.27.35c-.85.87-1.71,1.73-2.57,2.58-.26.26-.55.47-.83.7a3.39,3.39,0,0,0-1,1.1,1.18,1.18,0,0,1-.51.5c-1,.6-2.1,1.2-3.14,1.82-.51.3-1,.66-1.5,1l-.85.53a3.69,3.69,0,0,0-.36.23L141.78,170l-.4.31a24.13,24.13,0,0,0-2.92,2.59c-.41.42-.84.81-1.24,1.24a22.79,22.79,0,0,0-2.94,4,13.33,13.33,0,0,0-.7,1.41,51.76,51.76,0,0,1-4.5,8.11,8.13,8.13,0,0,1-2.32,2.29,6.36,6.36,0,0,1-3.18,1,15.06,15.06,0,0,1-3.6-.36,11.5,11.5,0,0,0-2.56-.27c-.25,0-.51,0-.76,0a7.22,7.22,0,0,0-.83,0,2.49,2.49,0,0,1-1.37-.15,1.49,1.49,0,0,0-.61-.11c-.58,0-1.16,0-1.74,0s-1.38.13-2.08.22a7.43,7.43,0,0,1-2.56-.17c-.32-.07-.63-.17-.94-.26a2.15,2.15,0,0,1-1.31-1.07c-.24-.44-.51-.86-.72-1.32a4.47,4.47,0,0,1-.33-1.08,10.38,10.38,0,0,1-.13-1.45,1.51,1.51,0,0,1,.13-.66,3.58,3.58,0,0,1,1.56-1.79c.7-.35,1.39-.71,2.1-1a1.45,1.45,0,0,0,.75-.75c.35-.72.73-1.42,1.1-2.13a1.62,1.62,0,0,1,.2-.31l1.45-1.64a1.64,1.64,0,0,0,.2-.21,28.07,28.07,0,0,0,1.59-2.42,7.62,7.62,0,0,0,.61-2.82c0-.54,0-1.07.08-1.61a7.51,7.51,0,0,1,1.77-4.24A13,13,0,0,0,117,163a4.72,4.72,0,0,1,.26-.54,26.68,26.68,0,0,1,1.89-2.65c.75-.85,1.59-1.56,2.38-2.35l.89-.86,2.68-2.68c.24-.24.47-.5.69-.75.8-.92,1.58-1.88,2.4-2.77a8.66,8.66,0,0,0,1.51-2.56,5.76,5.76,0,0,1,.22-.56,11.4,11.4,0,0,0,.89-2.33c.25-.85.51-1.7.78-2.54a3.79,3.79,0,0,0,.08-2,3.83,3.83,0,0,1,0-1.51c.21-1.2.33-2.43.48-3.64a1.17,1.17,0,0,0,0-.38,4.71,4.71,0,0,1,0-1.6,3.71,3.71,0,0,1,.7-1.73c.21-.3.42-.61.63-.91A7.72,7.72,0,0,1,134,130q.63-.71,1.29-1.4a2.93,2.93,0,0,0,.72-1.29,6.68,6.68,0,0,1,.69-1.67,6.11,6.11,0,0,0,.51-1.26,3.85,3.85,0,0,1,1.12-1.72,6.8,6.8,0,0,1,2.07-1.39c.35-.14.66-.36,1-.53a1,1,0,0,1,.39-.14,20.87,20.87,0,0,1,2.9-.19,4.44,4.44,0,0,1,2.93,1.43,5.71,5.71,0,0,1,1.39,2.26,10.61,10.61,0,0,1,.4,2.49,5,5,0,0,1-.9,3,4,4,0,0,1-.89,1.07,2.2,2.2,0,0,0-.36.36,15.82,15.82,0,0,1-1.78,1.72,12.72,12.72,0,0,0-2.57,2.89,2,2,0,0,1-.21.31,4.05,4.05,0,0,0-1.06,2.51,1.35,1.35,0,0,1-.23.71.48.48,0,0,0,.14.71.69.69,0,0,0,.6.14,1.3,1.3,0,0,0,.73-.42,8.77,8.77,0,0,0,.65-.8c.51-.76,1.13-1.42,1.57-2.24a3.38,3.38,0,0,1,1.13-1.12,12.45,12.45,0,0,0,3.31-3.46c.32-.49.54-1.07.82-1.6a8.49,8.49,0,0,1,.46-.77.44.44,0,0,1,.49-.2,7.48,7.48,0,0,1,1.66.55,1.45,1.45,0,0,1,.58.53,5.51,5.51,0,0,1,.67,1.68,2.11,2.11,0,0,1,0,1.06,15.27,15.27,0,0,1-1,2.67,6,6,0,0,1-1.73,2c-.54.43-1.11.83-1.68,1.23a2.64,2.64,0,0,1-.51.25,6.68,6.68,0,0,0-2.63,2.21,3.82,3.82,0,0,0-.76,1.87,2,2,0,0,0,0,.53.36.36,0,0,0,.42.32c.5-.16,1-.25,1.31-.87a4.57,4.57,0,0,1,2.34-2.29,1.85,1.85,0,0,0,.5-.39,4.15,4.15,0,0,1,1-.77c.68-.33,1.35-.69,2-1a3.39,3.39,0,0,0,1.11-.77.94.94,0,0,1,.81-.34c.37,0,.74,0,1.11,0a1.56,1.56,0,0,1,1.47,1,4.26,4.26,0,0,1,.29,2.54,1.23,1.23,0,0,1-.44.76,2.91,2.91,0,0,1-1.29.72l-1,.21a8.87,8.87,0,0,0-3.63,1.48A8.27,8.27,0,0,0,149.77,147Zm-9.91,9.5a2.57,2.57,0,0,1,.83-.4,6.58,6.58,0,0,0,1.75-.93,27,27,0,0,0,3.1-2.58,1,1,0,0,0,.36-.79c0-.23,0-.46,0-.69s0-.35-.17-.38-.25.07-.37.13a.78.78,0,0,0-.16.15,19.52,19.52,0,0,1-4.69,3.26,7.94,7.94,0,0,1-3.9,1c-.56,0-1.11,0-1.67,0a9,9,0,0,1-4.85-1.41,1.84,1.84,0,0,0-.44-.22.53.53,0,0,0-.58.16.57.57,0,0,0-.05.64,2.08,2.08,0,0,0,.34.57,3.54,3.54,0,0,0,.67.54,8.11,8.11,0,0,0,2.26,1,11.42,11.42,0,0,0,3.45.35c.86,0,1.72,0,2.57,0a.64.64,0,0,1,.62.4c.21.4.42.8.65,1.18.63,1,1.27,2.08,1.93,3.1a12.83,12.83,0,0,0,2.52,2.84,3.55,3.55,0,0,0,.86.49c.23.1.41,0,.47-.3a1.09,1.09,0,0,0-.18-.94c-.1-.14-.23-.25-.34-.38a25.94,25.94,0,0,1-2.34-2.73c-.81-1.18-1.64-2.35-2.45-3.53A2.55,2.55,0,0,1,139.86,156.45Z"/><path class="cls-1" d="M117.83,6.21a1.49,1.49,0,0,0,0-.31.73.73,0,0,1,.22-.62,10.29,10.29,0,0,1,1.74-1.65c.4-.26.78-.56,1.17-.83a2.16,2.16,0,0,1,2.39-.15A10.76,10.76,0,0,1,126,4.44a4.46,4.46,0,0,0,3.12,1.28,11,11,0,0,0,3.23-.52,7.88,7.88,0,0,1,3-.23c.71.08,1.42.24,2.13.36.53.09,1.06.14,1.58.24.31.06.62.18,1,.3a2.3,2.3,0,0,1,1.47-.3A9.48,9.48,0,0,0,144.88,5a19.36,19.36,0,0,1,2.67-.52c.87-.14,1.75-.22,2.62-.4a3.22,3.22,0,0,1,2.92.86l.27.24A4.44,4.44,0,0,1,155,8.35a5.68,5.68,0,0,1-.23,2.11c-.09.32-.21.62-.33.93a3.81,3.81,0,0,0,.32,3.44,19,19,0,0,0,2,2.77c.3.35.58.73.86,1.11a3.92,3.92,0,0,1,.71,2.2,9.18,9.18,0,0,1-.6,3.44c-.43,1.25-.8,2.51-1.15,3.78a22.21,22.21,0,0,0-.62,3.54c-.07.69-.12,1.37-.18,2.06,0,.2-.06.4-.08.61-.06.42-.21.59-.69.52a3.14,3.14,0,0,1-.53-.17c-.46-.16-.93-.33-1.39-.48a1.7,1.7,0,0,0-.55-.09,4.69,4.69,0,0,0-3.1,1.19,4,4,0,0,0-1.24,3.5c.09.89.23,1.77.35,2.66.09.66.18,1.32.25,2a4,4,0,0,1,0,.84c-.05.46-.12.91-.2,1.36a14.74,14.74,0,0,0-.13,3.06,9.49,9.49,0,0,1-.59,3.9,7.51,7.51,0,0,0-.44,4c0,.22,0,.46,0,.69a11.35,11.35,0,0,1-.79,4.86c-.35.95-.71,1.89-1.06,2.84a6.71,6.71,0,0,0-.22.8,10.92,10.92,0,0,1-.82,2.36c-.11.22-.25.42-.37.63-.25-.11-.18-.32-.18-.48a10.37,10.37,0,0,0-.75-3.49,10.91,10.91,0,0,0-1.4-2.38c-.46-.61-.93-1.21-1.44-1.77a13.52,13.52,0,0,1-2.7-4.61,7.48,7.48,0,0,1-.13-4.66c.25-.9.52-1.8.77-2.71a6.17,6.17,0,0,0,.23-1.66,3.93,3.93,0,0,1,0-.54,8.53,8.53,0,0,0-.48-4.06c-.49-1.36-1-2.7-1.49-4.06a7.5,7.5,0,0,1-.48-2.23c0-.79-.15-1.58-.22-2.37,0-.28,0-.56,0-.84,0-1.33,0-2.66,0-4a21.33,21.33,0,0,1,.26-3.21q.16-1.1.28-2.2a4.84,4.84,0,0,0-.46-2.45c-.14-.32-.29-.63-.43-.92a.24.24,0,0,1,.3-.18l1.87.19c.27,0,.37.17.35.46,0,.79-.08,1.58-.08,2.37,0,.53,0,1.07.1,1.6a3.54,3.54,0,0,1-.12,1.36,10.31,10.31,0,0,0-.41,3.71,6,6,0,0,0,.78,2.75,13.54,13.54,0,0,1,.61,1.29c.14.29.28.59.43.87a.37.37,0,0,0,.48.19l.13,0c.81-.43.92-.46.59-1.44a6.91,6.91,0,0,0-.51-1.09,6.12,6.12,0,0,1-.75-2.21,3,3,0,0,1,.21-1.72,4.52,4.52,0,0,0,.31-2.76,7.45,7.45,0,0,1-.05-1.07c0-.54,0-1.08,0-1.61a13.87,13.87,0,0,0-.29-2.81.91.91,0,0,0-.44-.66,2,2,0,0,0-.85-.3c-.58-.07-1.15-.13-1.72-.25s-1.32-.3-2-.49a4.83,4.83,0,0,0-1.17-.19c-1.14,0-2.27-.09-3.4-.16a9.93,9.93,0,0,1-3.15-.92q-2.9-1.19-5.81-2.36a4.48,4.48,0,0,0-.95-.23.88.88,0,0,0-.4.09.24.24,0,0,0-.07.33,1.33,1.33,0,0,0,.32.29c.35.19.71.37,1.08.54l1.93.88.51.24a25.07,25.07,0,0,1,3.25,1.56,6.64,6.64,0,0,0,1,.43,3.21,3.21,0,0,0,1.36.27c.42,0,.84,0,1.25,0s.79.07,1.18.09.65,0,1,0,.65,0,1,.06a.69.69,0,0,1,.54.43c.23.45.47.88.71,1.32a4.1,4.1,0,0,1,.48,2.87c-.14.7-.27,1.4-.43,2.09a15.08,15.08,0,0,0-.45,3.33,24.52,24.52,0,0,0,.23,4c0,.23,0,.23-.1.61a2.51,2.51,0,0,1-.43-.19,10.64,10.64,0,0,0-3.46-1.56l-.07,0c-.8-.24-1-.46-1-1.39,0-.36,0-.71,0-1.07a2.43,2.43,0,0,0-.15-.66,28.54,28.54,0,0,0-1.49-3.29,8.06,8.06,0,0,0-.91-1.25c-.49-.58-1-1.14-1.53-1.68A21.82,21.82,0,0,0,121,19.19c-.41-.25-.8-.52-1.2-.77s-.66-.38-1-.55a1,1,0,0,0-.74-.13,1.86,1.86,0,0,1-1-.09c-1.22-.32-2.43-.67-3.66-1-.79-.18-1.6-.27-2.41-.4l-.33-.07c.19-.49.21-.51.77-.89a4.21,4.21,0,0,0,2.15.36,9.82,9.82,0,0,0,2.35-.22,12.63,12.63,0,0,0,1.86-.63c.22-.08.43-.19.65-.28a2.59,2.59,0,0,0,1.14-.85,3.12,3.12,0,0,1,1.7-1.13l.53-.18a1.1,1.1,0,0,1,1.07.14l.36.24a8.5,8.5,0,0,0,4.2,1.7c.76.09,1.53.16,2.28.32s1.72.43,2.57.69a10.3,10.3,0,0,0,3.7.63c.81-.05,1.61-.23,2.41-.35l.14,0a3.29,3.29,0,0,1,2.18.16c.8.33,1.64.56,2.46.84l.59.23a5.88,5.88,0,0,1-.35,1.83,13.54,13.54,0,0,0-.65,2.18c-.06.32-.09.66-.13,1s-.06.61-.09.91a4.56,4.56,0,0,0,0,.61c0,.81.09,1.63.15,2.44a2.82,2.82,0,0,0,.16.67,14,14,0,0,1,.65,3.52,4.64,4.64,0,0,1-.68,2.69,11.94,11.94,0,0,0-1.34,3.76,5.77,5.77,0,0,0,0,1.14,2.66,2.66,0,0,1,0,.53,6.77,6.77,0,0,0,.23,2.65c.09.52.26,1,.39,1.55a10.15,10.15,0,0,0,.62,2.11.62.62,0,0,1,.06.22,11.57,11.57,0,0,0,.56,2.21A1.83,1.83,0,0,0,145,48.48a.83.83,0,0,0,.95-.47c.16-.39.31-.82-.07-1.19a.43.43,0,0,1-.09-.2c-.15-.64-.33-1.28-.45-1.93a14.53,14.53,0,0,0-.55-2,5,5,0,0,1-.26-1.81c0-.33,0-.67,0-1a4.92,4.92,0,0,0-.29-1.88,4.9,4.9,0,0,1-.27-1.65,4.09,4.09,0,0,1,.34-1.63c.27-.65.56-1.3.77-2a10.71,10.71,0,0,0,.37-1.71,10.68,10.68,0,0,0,.19-2.29q-.07-.92-.17-1.83a2.4,2.4,0,0,0-.16-.5l-.81-2.28a1.52,1.52,0,0,1,0-.83,21,21,0,0,1,.83-3.08l.05-.14a1.92,1.92,0,0,1,.84-1.07,1.44,1.44,0,0,0,.7-1.24,1,1,0,0,0-.08-.52,2.94,2.94,0,0,1-.32-1.24c-.08-.62-.41-.95-1-1a1.83,1.83,0,0,0-.48.08,2,2,0,0,1-1.23-.08l-2.58-.93a3,3,0,0,0-1.63-.2,16.94,16.94,0,0,1-4.22.36,6.77,6.77,0,0,1-1.24-.19,12.55,12.55,0,0,1-1.6-.52,13.41,13.41,0,0,0-3.39-.83c-.55-.07-1.1-.17-1.65-.24a6.39,6.39,0,0,1-2.61-1,4.34,4.34,0,0,0-.56-.31,3.53,3.53,0,0,0-2.58-.2,15.49,15.49,0,0,0-3.45,1.41,14.16,14.16,0,0,1-3.3,1.43,1.71,1.71,0,0,1-1.23,0c-.13-.06-.26-.09-.4-.14a4.6,4.6,0,0,0-4.1.51,19.44,19.44,0,0,0-3.4,2.52c-.79.75-1.59,1.49-2.38,2.25a5.93,5.93,0,0,1-1.77,1.19,3.84,3.84,0,0,1-1.08.28,11.75,11.75,0,0,1-1.25,0,1.16,1.16,0,0,1-.78-.29A1,1,0,0,1,98.23,19a2,2,0,0,1,.66-1.14c.82-.69,1.48-1.55,2.22-2.32a4.59,4.59,0,0,0,1-1.49c.2-.49.43-1,.6-1.47A2.46,2.46,0,0,1,104.11,11a6.87,6.87,0,0,1,2.09-.54,11.61,11.61,0,0,0,2.92-.67,26.36,26.36,0,0,1,4.35-1c.34-.06.69-.13,1-.23a1.35,1.35,0,0,0,.87-.71,1.9,1.9,0,0,1,1-.89C116.87,6.73,117.34,6.46,117.83,6.21Z"/><path class="cls-1" d="M71.18,178.9l-1.14.18a4.78,4.78,0,0,0-3.11,1.86c-.39.51-.75,1-1.13,1.56-.14.2-.23.45-.53.55-.13-.07-.3-.15-.45-.25a5.18,5.18,0,0,0-2-.79c-.46-.07-.92-.17-1.38-.22a3.43,3.43,0,0,0-.9,0,7.29,7.29,0,0,0-2.45.83l-.37.2a.46.46,0,0,1-.63-.12l-.1-.11a5.48,5.48,0,0,0-4.22-1.82,8.48,8.48,0,0,0-1.87.17,4,4,0,0,0-2.38,1.61c-.16.22-.26.49-.57.59a2.2,2.2,0,0,1-.35-.17c-2.11-1.53-4.18-1.14-6.22.18A5.43,5.43,0,0,0,40,184.56a3.75,3.75,0,0,0-.64,1.52c0,.2-.11.38-.17.6-.48,0-.94-.07-1.39-.13a4.8,4.8,0,0,0-2.27.19l-.2.06c-.53.22-.64,0-.57-.59.11-.91.13-1.84.25-2.75s.08-2,.14-3a24.32,24.32,0,0,1,.3-2.51,6.35,6.35,0,0,1,.38-1.15c.25-.69.53-1.37.78-2.05a34.4,34.4,0,0,0,1.15-4.58c.17-.8.34-1.6.45-2.4s.2-1.67.26-2.51c.09-1.22.15-2.45.21-3.67,0-.18,0-.36,0-.53a7.58,7.58,0,0,1,0-.84c.25-2.93.25-5.88.25-8.82,0-1.07,0-2.15-.11-3.22-.08-.89,0-1.79,0-2.68a2.25,2.25,0,0,1,.27-1,2.41,2.41,0,0,0,.24-1.26,3.63,3.63,0,0,1,.06-.91,5.33,5.33,0,0,0,.06-1.83,2.94,2.94,0,0,1,0-.76,5.59,5.59,0,0,0-.31-2.78c-.35-.89-.65-1.81-1-2.71a3,3,0,0,1-.14-.43,19.27,19.27,0,0,1-.47-3.33c0-.61-.06-1.22-.09-1.84,0-.18,0-.36,0-.54,0-1,.08-2,.11-3a5.49,5.49,0,0,0-.3-2c-.4-1.2-.74-2.42-1.21-3.59a2.68,2.68,0,0,1-.23-1.78,8.55,8.55,0,0,1,0-1.6,14.37,14.37,0,0,1,.58-3.15,3.94,3.94,0,0,1,1.23-2,1.51,1.51,0,0,1,1-.39h.28a3.84,3.84,0,0,0,2-.24,1.74,1.74,0,0,1,.2.33c.38,1.18.78,2.35,1.12,3.55.44,1.54.83,3.09,1.23,4.64s.74,2.85,1.09,4.28c.13.52.22,1,.32,1.57.13.67.28,1.35.39,2a8.74,8.74,0,0,1,.11,1.3c0,1,0,2,0,3.07a3.48,3.48,0,0,0,1.54,3.22,1,1,0,0,0,.18.12A5.8,5.8,0,0,1,48.91,136a2.06,2.06,0,0,1,.27.35c.57.93,1.17,1.84,1.7,2.81s1.09,2.2,1.62,3.31l1.73,3.59c.6,1.24,1.22,2.47,1.76,3.74a42.61,42.61,0,0,0,2.87,5.61c.5.82.91,1.72,1.37,2.58.24.46.52.91.74,1.39s.39,1,.56,1.48c.3.89.87,1.62,1.22,2.49a12.24,12.24,0,0,0,2.14,3.38A6,6,0,0,1,66,168.84c.31.94.64,1.87.92,2.81a9.75,9.75,0,0,1,.4,2.48,7.58,7.58,0,0,0,.13,1.14A2.74,2.74,0,0,0,68.53,177c.29.22.6.38.9.57l1.49,1A2,2,0,0,1,71.18,178.9ZM45.83,153.77c-.22.24-.17.53-.19.81a26.12,26.12,0,0,0,.17,4.06,17.52,17.52,0,0,1,0,2.9c-.12,1.37-.23,2.75-.29,4.13a37.09,37.09,0,0,0,.3,4.82,43.83,43.83,0,0,1,.24,5.44,12.56,12.56,0,0,0,0,1.53,7.45,7.45,0,0,0,.27,1.42.33.33,0,0,0,.64.06,6.81,6.81,0,0,0,.51-1.25,13.71,13.71,0,0,0,.38-4.41c-.07-1.33-.16-2.65-.26-4-.05-.76-.15-1.53-.2-2.29,0-.48,0-1,0-1.46,0-.66.06-1.33.1-2,0-.33.05-.66.07-1,.05-.84.16-1.69.13-2.52a40.18,40.18,0,0,0-.39-4.19,4.16,4.16,0,0,0-.55-1.56A.91.91,0,0,0,45.83,153.77Zm10.83,18.15c-.07-.64-.12-1.18-.18-1.71a37.24,37.24,0,0,0-1-4.64c-.33-1.28-.72-2.54-1.05-3.82a50.75,50.75,0,0,1-1.1-5.7c-.18-1.29-.37-2.58-.43-3.88a31.48,31.48,0,0,0-.76-5.37,1.39,1.39,0,0,0-.16-.42.32.32,0,0,0-.23-.12s-.13.08-.14.14a4.88,4.88,0,0,0-.12.9c0,1.15.06,2.3.1,3.45s.05,2.1.17,3.14a51.57,51.57,0,0,0,.76,5.15c.43,2,.83,3.94,1.43,5.85a32.53,32.53,0,0,1,1.07,4.21c.17,1,.42,2,.68,3.05a2.65,2.65,0,0,0,.2.57.27.27,0,0,0,.53,0C56.56,172.42,56.61,172.12,56.66,171.93ZM47.1,141.07a3.8,3.8,0,0,0,0-1.22,1.83,1.83,0,0,0-.48-1.24,12.76,12.76,0,0,0-2-2,5.47,5.47,0,0,1-1.12-1,7.29,7.29,0,0,1-1.57-4.41c0-.66,0-1.33.06-2a1.22,1.22,0,0,0,0-.45.6.6,0,0,0-.27-.31c-.14-.06-.27.07-.33.21a11.75,11.75,0,0,0-.56,1.4,8.27,8.27,0,0,0-.25,3,9.63,9.63,0,0,0,.29,1.81,4.55,4.55,0,0,0,1.32,2.22,11.12,11.12,0,0,0,.93.81,9.06,9.06,0,0,1,1.73,1.65c.2.24.38.51.58.77a1.69,1.69,0,0,0,.89.71A5.05,5.05,0,0,0,47.1,141.07Z"/><path class="cls-1" d="M155.92,131.78l-.33-.59c-.26-.46-.5-.92-.77-1.37a4.38,4.38,0,0,0-2.58-1.83c-.29-.09-.58-.16-.9-.25a3.73,3.73,0,0,1,0-.47c0-.36.1-.71.13-1.06a6.1,6.1,0,0,0-.81-3.66A8.69,8.69,0,0,0,148,119.6a3.27,3.27,0,0,0-.69-.37,8.91,8.91,0,0,0-2.36-.64.52.52,0,0,1-.27-.07.36.36,0,0,1-.12-.24.73.73,0,0,1,.1-.28,21.81,21.81,0,0,0,1.48-4.54,4.83,4.83,0,0,0,.09-.53,10.93,10.93,0,0,1,.57-2.52c.24-.72.41-1.47.59-2.21a24.15,24.15,0,0,0,.71-3.6,12.73,12.73,0,0,0,0-1.84c0-.79-.14-1.58-.21-2.37l-.3-3.13a14.14,14.14,0,0,0-1.69-5.49,30.7,30.7,0,0,0-3-4.72c-.08-.1-.14-.2-.22-.3a.76.76,0,0,1-.17-.7.71.71,0,0,0,0-.23c-.08-.86-.14-1.73-.26-2.59a2.3,2.3,0,0,0-.31-.76c-.2-.37-.45-.71-.65-1.09a7.86,7.86,0,0,1-.46-1,1.73,1.73,0,0,1,.24-1.66,7.72,7.72,0,0,1,1.9-1.78,1.35,1.35,0,0,1,.52-.2,6.21,6.21,0,0,0,1.57-.62l1.22-.61c.26-.34.5-.65.74-1l1.53-1.89c.29-.36.58-.73.89-1.08a7.84,7.84,0,0,0,1.88-3.87c.31-1.65.65-3.3,1-5a3.11,3.11,0,0,1,1-1.85A8.51,8.51,0,0,0,155.57,58a3.32,3.32,0,0,0,0-2.94l-.06-.14A5.94,5.94,0,0,1,155,51.4c.07-.63.18-1.26.28-1.89s.23-1.31.33-2a5.84,5.84,0,0,0-.13-2.36,3.19,3.19,0,0,0-.35-.74.22.22,0,0,0-.36,0,1,1,0,0,0-.16.72c0,.36.07.71.14,1.06a4.76,4.76,0,0,1,0,1.83c-.13.62-.24,1.25-.34,1.88-.13.81-.25,1.61-.34,2.43a3.87,3.87,0,0,0,.37,2.3c.16.31.31.63.48.94a2,2,0,0,1,0,2.1,8.59,8.59,0,0,1-1.32,2c-.39.4-.76.82-1.15,1.22a3.81,3.81,0,0,0-.88,1.63c-.31,1-.63,2.08-1,3.12-.21.68-.43,1.35-.64,2a13.53,13.53,0,0,1-1.55,3.25q-.84,1.32-1.76,2.58c-.36.5-.78.95-1.17,1.42a1.14,1.14,0,0,1-1.33.38,4.55,4.55,0,0,1-.78-.32.66.66,0,0,1-.3-.71,3,3,0,0,1,.69-1.65,9,9,0,0,0,.78-1.17q.86-1.35,1.77-2.66a7.52,7.52,0,0,0,.93-1.7,25.09,25.09,0,0,0,1.13-3.55c.08-.4.15-.8.21-1.2s.13-.91.24-1.36a7.12,7.12,0,0,0,.19-1.67c0-1.48,0-3,0-4.45a4,4,0,0,1,.3-1.48c.25-.66.46-1.34.66-2a4.88,4.88,0,0,0,.14-1.52,10.85,10.85,0,0,1,.21-2.28q.25-1.43.43-2.88a4.53,4.53,0,0,0,0-1.14c-.17-1.26-.37-2.53-.56-3.79a2.91,2.91,0,0,1,.19-1.79,2.27,2.27,0,0,1,1.89-1.36,3.56,3.56,0,0,1,1.52.13c.22.07.45.11.68.18a1.84,1.84,0,0,0,2.31-.87.46.46,0,0,1,.1-.1l.11,0a1.93,1.93,0,0,1,.3.23,5.62,5.62,0,0,1,.46.57,4.12,4.12,0,0,0,1.07,1.09,2.25,2.25,0,0,1,.87,1.25,25.45,25.45,0,0,1,1,4.16,20.77,20.77,0,0,1,.05,4.74c-.22,2.34-.57,4.66-.94,7-.22,1.42-.58,2.79-.87,4.19a6.58,6.58,0,0,1-.39,1.23,10.66,10.66,0,0,0-.68,2.33,15.19,15.19,0,0,1-.64,2.43c-.25.71-.44,1.46-.7,2.17a31.38,31.38,0,0,1-1.62,3.65q-.91,1.76-1.77,3.56a15.76,15.76,0,0,0-1.22,3.58c0,.22-.14.43-.2.65a1.94,1.94,0,0,0-.15.59,3.73,3.73,0,0,1-.33,1.47,5.7,5.7,0,0,0-.19.89c-.19,1.05-.42,2.1-.57,3.16a8.64,8.64,0,0,0,.07,3.28,13.38,13.38,0,0,0,1.24,3.32,1.35,1.35,0,0,0,.76.74,1.41,1.41,0,0,1,.78.83,1.79,1.79,0,0,0,.37.55,2.22,2.22,0,0,1,.26.36l2.37,3.6c.18.27.37.52.55.79a21.54,21.54,0,0,1,2.46,5.4c.73,2.27,1.29,4.59,1.84,6.92a12.37,12.37,0,0,1,.21,1.52c0,.43.08.87.09,1.3s0,.61,0,.92a11.84,11.84,0,0,1-.57,3.23,7.84,7.84,0,0,0-.17.9,12.45,12.45,0,0,1-.69,3,29.77,29.77,0,0,1-1.92,3.91,1.22,1.22,0,0,0-.17,1.27,1,1,0,0,1,0,.44.83.83,0,0,1-.09.29c-.47.95-.75,2-1.14,3-.15.38-.32.74-.49,1.1A3.24,3.24,0,0,1,155.92,131.78Z"/><path class="cls-1" d="M131.08,33.86a6.75,6.75,0,0,1,1.85.91q.5.35,1,.73a2.08,2.08,0,0,1,.87,1.49,9.18,9.18,0,0,0,.66,2.18c.57,1.51,1.13,3,1.64,4.57a8.71,8.71,0,0,1,.44,3.55,15.66,15.66,0,0,1-.6,3.38,13.82,13.82,0,0,0-.56,2.53,5.92,5.92,0,0,0,0,1.3,12.55,12.55,0,0,0,1,3.67,19.77,19.77,0,0,0,2.56,4.37,9.26,9.26,0,0,1,1.9,3.88,2.53,2.53,0,0,0,.48,1.1,1.64,1.64,0,0,1,.33,1.07c0,.77,0,1.54,0,2.3a2.07,2.07,0,0,1-.45,1.26,2.81,2.81,0,0,0-.49,1.33,2.23,2.23,0,0,0,.41,1.8c.24.3.23.46,0,.71-.61.56-1.23,1.09-1.84,1.64a3.16,3.16,0,0,0-1.07,2.24,3.67,3.67,0,0,0,.4,1.77c.14.3.31.57.45.86a5.06,5.06,0,0,1,.59,2,2.45,2.45,0,0,1-.34-.17,22.56,22.56,0,0,0-4.68-2.69,11.89,11.89,0,0,0-3.17-.86A16.36,16.36,0,0,0,129,80.7s0,0-.11-.06a1.69,1.69,0,0,1,.09-.32c.29-.58.6-1.15.88-1.74.2-.4.34-.84.54-1.24s.33-.61.51-.91a10.83,10.83,0,0,0,1.21-3.25,7.44,7.44,0,0,0,.08-2.29,6.65,6.65,0,0,1,0-1.14,9.3,9.3,0,0,0,0-2.07,5.08,5.08,0,0,1,0-.69c0-.95,0-1.89,0-2.84a17.18,17.18,0,0,0-.22-2.9,15.14,15.14,0,0,1-.06-3.22,5.81,5.81,0,0,1,.35-1.32c.29-.92.6-1.83.89-2.74a2.7,2.7,0,0,0,.1-.6,21.94,21.94,0,0,1,.45-2.64c.12-.57.18-1.16.27-1.74a8.68,8.68,0,0,1,.52-2.06,1.81,1.81,0,0,0,.14-.51c.06-.66.13-1.32.16-2a18.45,18.45,0,0,0-.26-4,3.6,3.6,0,0,0-.19-.73,17.34,17.34,0,0,0-1.51-2.93c-.53-.81-1-1.65-1.53-2.48A4.27,4.27,0,0,1,131.08,33.86Z"/><path class="cls-1" d="M49.52,51.38l.38-.11v-.65a.57.57,0,0,1,.15-.1.63.63,0,0,0,.43-.54,2.75,2.75,0,0,1,.7-1.3c.56-.65,1.11-1.3,1.68-1.94a1.43,1.43,0,0,1,.39-.32,2.93,2.93,0,0,1,3.4.42,4,4,0,0,1,1,1.87,11.32,11.32,0,0,1,.47,3.09A16.73,16.73,0,0,1,58,54.93c0,.15,0,.31-.08.45-.36,1.32-.62,2.68-1.08,4-.16.45-.29.92-.42,1.38-.44,1.62-.86,3.24-1.3,4.86-.25.91-.52,1.8-.78,2.7a4.62,4.62,0,0,1-.25.63,34.72,34.72,0,0,0-1.7,4.54,24.87,24.87,0,0,1-1.77,4.08,2.26,2.26,0,0,1-.53.85,2.25,2.25,0,0,1-.19-.31,7.9,7.9,0,0,1-.6-2.67,28.31,28.31,0,0,1,.07-4.29c.09-.84.12-1.68.16-2.53a4.26,4.26,0,0,1,.24-1.35A6.1,6.1,0,0,0,50.14,65,18.42,18.42,0,0,0,50,62.16a1.64,1.64,0,0,1,0-.23c0-1.77-.21-3.52-.38-5.27-.06-.67-.19-1.31-.3-2s-.18-1.16-.24-1.74a1.58,1.58,0,0,1,.09-.59C49.26,52,49.39,51.74,49.52,51.38Z"/><path class="cls-1" d="M44.13,62a6,6,0,0,1,.24,2.25,21.77,21.77,0,0,1-.25,2.9,1.94,1.94,0,0,1-.06.3,1.36,1.36,0,0,0,0,1.1,1.75,1.75,0,0,1,0,.68c0,1,0,2.1,0,3.15a18.83,18.83,0,0,0,.13,2.14c.18,1.34.4,2.67.63,4a8.82,8.82,0,0,1,.1,1.68,9.33,9.33,0,0,0,.13,2.21,5.85,5.85,0,0,0,1.33,2.73,7.52,7.52,0,0,0,2.83,2,8.91,8.91,0,0,1,2.16,1.22A3.67,3.67,0,0,1,52.59,90a11.25,11.25,0,0,1,.6,1.88,4.1,4.1,0,0,1,0,1.6,2.9,2.9,0,0,0-.05.3,4.12,4.12,0,0,1-1.5,2.75.88.88,0,0,1-.23.18,4,4,0,0,1-1.52.41,3.1,3.1,0,0,1,0-.38c0-.28.09-.55.13-.83a3.36,3.36,0,0,0-.49-2.26,10.83,10.83,0,0,0-1.92-2.2,1.22,1.22,0,0,0-.3-.19l-1.07-.55a2.62,2.62,0,0,0-.52-.2A9.78,9.78,0,0,1,43,89.32a4.42,4.42,0,0,1-1.69-1.88,15.92,15.92,0,0,1-1-2.55,1.87,1.87,0,0,1,.26-1.73A11.79,11.79,0,0,0,41.76,81a6.53,6.53,0,0,0,.57-2.12c.1-1.2.19-2.39.27-3.59.06-.89.08-1.79.17-2.68a13.69,13.69,0,0,1,.32-1.8,17.78,17.78,0,0,0,.34-2.5,28,28,0,0,0,.12-3.22,10.08,10.08,0,0,1,.06-1.3A16.83,16.83,0,0,1,44.13,62Z"/><path class="cls-1" d="M71.41,190.81c-.26,0-.77-.11-1.27-.22a4.61,4.61,0,0,1-1.65-1c-.12-.09-.21-.21-.32-.29A1.75,1.75,0,0,1,67.5,188a8.13,8.13,0,0,0-1-3.33.88.88,0,0,1,0-.93,9.2,9.2,0,0,1,1.67-2.44,3.39,3.39,0,0,1,2.87-.87,4.25,4.25,0,0,1,.62.12,9.81,9.81,0,0,1,3.69,1.73A3.78,3.78,0,0,1,76.74,186a6.16,6.16,0,0,1-1.25,3A4.69,4.69,0,0,1,71.41,190.81Z"/><path class="cls-1" d="M49.43,187.63a6.44,6.44,0,0,0-.42-2.72,1,1,0,0,1,.12-1,2.77,2.77,0,0,1,2.23-1.36,8.12,8.12,0,0,1,1.39,0,3.26,3.26,0,0,1,2.05.84A4.69,4.69,0,0,1,55.93,185a12.1,12.1,0,0,1,.41,1.22c.17.58.31,1.18.48,1.76a1,1,0,0,1-.11.87,2.72,2.72,0,0,1-1.47,1.1,5.24,5.24,0,0,1-1.16.21c-.53.06-1.06.1-1.59.13a5.38,5.38,0,0,1-1.86-.14,2.48,2.48,0,0,1-.59-.22,1.11,1.11,0,0,1-.61-1C49.44,188.53,49.43,188.15,49.43,187.63Z"/><path class="cls-1" d="M48,56a6.91,6.91,0,0,1-.13,1.27,24.24,24.24,0,0,0,0,4.21,31.69,31.69,0,0,1,0,4.06c-.1,1.2-.22,2.39-.33,3.58,0,.28,0,.56,0,.84,0,.95,0,1.89,0,2.84,0,.48-.08,1-.11,1.45A9.12,9.12,0,0,0,48,78.15a5.51,5.51,0,0,0,1.21,2,5.1,5.1,0,0,1-.53,1.41c-.15.46-.3.92-.47,1.36a8.5,8.5,0,0,1-.55,1.45,1.31,1.31,0,0,1-.36-.2,2.94,2.94,0,0,1-.76-2.44,3.41,3.41,0,0,1,.07-.38,6.07,6.07,0,0,0,0-2.88,19.57,19.57,0,0,1-.51-4.4c0-.66,0-1.32,0-2s0-1.38-.06-2.07a33.9,33.9,0,0,1,.06-4.6,12.92,12.92,0,0,0,0-2.76,8.93,8.93,0,0,1,.06-2.82A6.52,6.52,0,0,1,46.83,58c.24-.41.42-.85.61-1.28.11-.25.24-.49.36-.73Z"/><path class="cls-1" d="M41.54,189a1.83,1.83,0,0,1,.08-.29.65.65,0,0,0-.06-.71,9.08,9.08,0,0,1-.69-1.67.75.75,0,0,1,.08-.73,2.67,2.67,0,0,1,.35-.48,5.85,5.85,0,0,1,2.08-1.36,3.16,3.16,0,0,1,3,.46.87.87,0,0,1,.22.19,4.35,4.35,0,0,1,1,2.24c0,.71.06,1.43.09,2.14a.53.53,0,0,1-.2.46,4.38,4.38,0,0,1-.76.53,16.89,16.89,0,0,1-1.76.71,3.33,3.33,0,0,1-1.86,0A2.09,2.09,0,0,1,41.54,189Z"/><path class="cls-1" d="M62.33,189.75c-.59-.07-1.17-.12-1.74-.23a4.3,4.3,0,0,1-1.7-.83,1.18,1.18,0,0,1-.52-1.1,7.69,7.69,0,0,0-.27-2.57c-.16-.65-.11-.76.46-.93a8.16,8.16,0,0,1,2.6-.47,10.49,10.49,0,0,1,1.31.15,1.91,1.91,0,0,1,1.23.79,4.43,4.43,0,0,1,.71,1.22,7,7,0,0,0,.4,1,4.69,4.69,0,0,1,.39,1.69.67.67,0,0,1-.22.61,1.74,1.74,0,0,1-.93.49Z"/><path class="cls-1" d="M134.21,4.15l-.93.09c-.28,0-.43-.16-.41-.47a1.47,1.47,0,0,1,.05-.3,5.35,5.35,0,0,0,.1-2.27c-.13-.91.07-1.14.9-1.19a4.08,4.08,0,0,1,2.69.85c.46.34.94.65,1.42,1a1,1,0,0,1,.49.61c.13.52.26,1,.36,1.56a.34.34,0,0,1-.34.45,4.52,4.52,0,0,1-.55,0l-1.45-.11Z"/><path class="cls-1" d="M111,14.43a4.62,4.62,0,0,1-.24.5c-.34.52-.71,1-1,1.54-.66,1-1.3,2.11-2,3.17a8.41,8.41,0,0,1-1.58,1.93,2.2,2.2,0,0,1-1.5.47,1.11,1.11,0,0,1-.58-.23c-.4-.26-.77-.56-1.13-.83a.33.33,0,0,1,.19-.4,7.41,7.41,0,0,0,1.5-1.36c.16-.18.36-.32.53-.49a6.25,6.25,0,0,0,.71-.74,8.82,8.82,0,0,1,2-1.9l1.39-1a4,4,0,0,1,1.34-.63A2.06,2.06,0,0,1,111,14.43Z"/><path class="cls-1" d="M35.82,192.36c-.46-.08-.95-.15-1.42-.26a1.9,1.9,0,0,1-.63-.3.72.72,0,0,1-.3-.4,1.93,1.93,0,0,1,.48-1.95,2.61,2.61,0,0,1,1.83-.79,6,6,0,0,0,.62-.05c.46,0,.92-.07,1.38-.09a1.08,1.08,0,0,1,.79.23.36.36,0,0,0,.18.1c.5,0,.69.45.89.85a8.25,8.25,0,0,1,.31.77c.11.3.09.48-.16.66a6.62,6.62,0,0,1-1.09.66,4.24,4.24,0,0,1-1,.28C37.08,192.18,36.46,192.26,35.82,192.36Z"/><path class="cls-1" d="M143.49,76.16l-.1.06,0,0,.09-.06Z"/><polygon class="cls-1" points="128.09 31.05 128.09 30.99 128.13 31.02 128.09 31.05"/><polygon class="cls-1" points="127.89 31.54 127.93 31.5 127.94 31.55 127.89 31.54"/><path class="cls-1" d="M117.05,75.53a6.83,6.83,0,0,1,.26-1.75c.15-.67.34-1.33.54-2a24.38,24.38,0,0,0,.66-2.74c.16-.83.34-1.65.51-2.47a1.42,1.42,0,0,1,.39-.8,11,11,0,0,0,1.25-1.64,9.21,9.21,0,0,1,1.43-1.56c.62-.53,1.21-1.11,1.82-1.66s1-.87,1.47-1.29a3.33,3.33,0,0,1,.34-.22,1.4,1.4,0,0,1,.12.37c0,1.1,0,2.2,0,3.3a6.94,6.94,0,0,1-.26,1.5,19.3,19.3,0,0,1-3.81,7.5,18.62,18.62,0,0,1-2.31,2.32,5.66,5.66,0,0,1-2,1.08A3.18,3.18,0,0,1,117.05,75.53Zm1.16-2.19c0,.07,0,.09,0,.12s.06.33.23.32a.41.41,0,0,0,.28-.18c.19-.28.37-.58.54-.88a1.15,1.15,0,0,0,.12-.35.5.5,0,0,0-.29-.54c-.18-.08-.31,0-.42.16A2.44,2.44,0,0,0,118.21,73.35Z"/><path class="cls-1" d="M110,63.59c-.05.68-.1,1.34-.16,2,0,.41-.12.81-.15,1.22a15.09,15.09,0,0,1-1.2,4.31c-.16.4-.31.8-.48,1.19a2.32,2.32,0,0,1-.21.4.32.32,0,0,1-.37.15,1.53,1.53,0,0,1-.27-.08,4.4,4.4,0,0,1-2.52-2.88,44.28,44.28,0,0,1-1.35-5.95c-.14-1-.24-1.92-.35-2.89s-.22-2.13-.35-3.2a35.16,35.16,0,0,1-.19-5.66c0-.71.07-1.43.11-2.14a3.35,3.35,0,0,1,0-.38c0-.17.17-.28.31-.22a1.9,1.9,0,0,1,.48.28,17.76,17.76,0,0,1,3.15,3.55c.22.33.46.64.69,1A14.2,14.2,0,0,1,109.58,60a12.9,12.9,0,0,1,.28,2.43C109.85,62.79,109.92,63.19,110,63.59ZM107,69.74c0,.33.11.51.24.53a.35.35,0,0,0,.36-.19,11,11,0,0,0,.58-1,1,1,0,0,0,.07-.51.36.36,0,0,0-.31-.36.47.47,0,0,0-.37.14A2.53,2.53,0,0,0,107,69.74Z"/><rect class="cls-2" y="0.54" width="192.36" height="192.36"/></g></g></svg>