<svg xmlns="http://www.w3.org/2000/svg" viewBox="0 0 191.98 191.38"><defs><style>.cls-1{fill:red;}</style></defs><title>manzanar_icon</title><g id="Layer_2" data-name="Layer 2"><g id="Layer_1-2" data-name="Layer 1"><path class="cls-1" d="M189.26,110.41a56.65,56.65,0,0,1,.48-9H175.46a59.72,59.72,0,0,1,.48,9V174c0,2.22-.67,2.61-3.86,2.61-2.9,0-8.49-.19-11.87-.48a45.47,45.47,0,0,1,3.47,13.7c2.41.1,4.25.1,5.5.1,3.18,0,7.62-.19,10.13-.48,3.28-.29,4.82-.87,6.47-2,2.51-1.84,3.47-4.73,3.47-10.14ZM172.56,167a59.93,59.93,0,0,1-.29-6.66v-46a56.85,56.85,0,0,1,.29-6.56H159.15c.19,2.61.29,4.05.29,6.56V160.4a43.74,43.74,0,0,1-.39,6.56Zm-26.83-30.59a59.36,59.36,0,0,1-2.12,11.19,75,75,0,0,0-5.69-5.79c1.16-2.61,1.35-3.28,2.12-5.4ZM121.22,124.6c.58-1.64.77-2.12,1.25-3.38a30.16,30.16,0,0,0,1.35-3.86c.77-2.32,1.83-5.69,2.12-7.14a6.63,6.63,0,0,1,.39-1.26v8a48.52,48.52,0,0,1,5.21-.29,58.43,58.43,0,0,1-10.33,27.6Zm29.92-7.91a37,37,0,0,1,6.37.29v-13.9a57.73,57.73,0,0,1-9.46.48H135.7a59.34,59.34,0,0,1-9.36-.48v1l-12.45-4.82c-2.41,14.77-7.82,27.51-15.15,36.09,2.12,5.5,3.09,9.07,4.54,17.37a58.12,58.12,0,0,0,4.44-5.89c-.1,2.8-.1,4.92-.1,8.69v23.84a104.58,104.58,0,0,1-.58,11.19H121.7a104.75,104.75,0,0,1-.48-11.29v-30a81.28,81.28,0,0,1,5.5,11.29,61.85,61.85,0,0,0,4.92-6.76,75,75,0,0,1,6.47,7.34,56.12,56.12,0,0,1-16.7,18.82,43.2,43.2,0,0,1,10,11.48c7.72-6.95,12.74-12.93,16.7-19.79,5.5-9.75,8.2-19.21,10.42-37,.29-2.22.39-3.09.68-4.63l-4.73-6.76a55.65,55.65,0,0,1-6.56.29h-4.34a66,66,0,0,0,1.06-6.85ZM71,127.2a79.74,79.74,0,0,1,.39,9.65v37.06c0,2.32-.58,2.7-3.86,2.7-3.48,0-6.37-.19-11.58-.67A52.34,52.34,0,0,1,60,189.84c6.95.1,6.95.1,8,.1,9.07,0,12-.58,14.77-2.8,2.22-1.83,3-4.54,3-10.52V137.24a73.53,73.53,0,0,1,.48-10Zm-19.69,2.41a84.82,84.82,0,0,1,.39,9.17v22a93,93,0,0,1-.39,9.75H66.09a88.49,88.49,0,0,1-.39-9.94V138.88a79.64,79.64,0,0,1,.39-9.26Zm-30.5,10.33H32v4.34H20.83Zm0,15.63H32v4.34H20.83Zm0,15.63H32v4.25c0,1.64-.38,2-2.12,2a46,46,0,0,1-5.41-.39,48.33,48.33,0,0,1,3.19,12.64c2,.1,3.57.1,4.63.1,11.1,0,13.7-2.22,13.7-11.29v-42c0-4.73.1-6.76.29-9.17a81.29,81.29,0,0,1-8.4.29H15.13c-3.76,0-6.18-.1-8.78-.29a63.58,63.58,0,0,1,.39,8.78v42.66a98.28,98.28,0,0,1-.58,11.58H21.31a80.14,80.14,0,0,1-.48-10.52ZM13.68,110.7a71.08,71.08,0,0,1-11-.58V124.4a81.07,81.07,0,0,1,11-.48H79a76.92,76.92,0,0,1,10.91.48V110.12A65.49,65.49,0,0,1,79,110.7H68.89A71.71,71.71,0,0,0,74.1,103L58.37,99.41a43.15,43.15,0,0,1-6.08,11.29H40.22a93.63,93.63,0,0,0-6.85-11.48L18.22,103a46.36,46.36,0,0,1,5.31,7.72ZM155,18.92c12,15.15,18.63,34.17,19.69,55.78L192,68.34c-2.7-23.36-9.75-41-22.29-56.17ZM106.66,8.69a67.18,67.18,0,0,1,.39,6.85c.19,13.42.58,21.52,1.06,28.28C109.37,59.17,112,68.82,117,76c3.76,5.5,8.4,8.3,13.8,8.3,5.89,0,11.1-3.48,14.67-9.84a81.5,81.5,0,0,0,7.34-18.63c-6.37-4.63-9-6.85-13.42-12.16a98,98,0,0,1-5,16.7c-1,2.51-2,3.76-3.09,3.76-4.05,0-7.14-16.31-7.14-37.93A120.48,120.48,0,0,1,125.2,8.69ZM12,86.76a52.66,52.66,0,0,0,6.85-11.29,61.73,61.73,0,0,0,4.34-11.39L10.91,58.29A50.11,50.11,0,0,1,0,78ZM63,26.73h7.43v4.63H63Zm-20.46,0H49.8v4.63H42.56ZM29.24,31.37H22.29V26.74h6.95Zm13.32,10H49.8V45H42.56Zm0-28.57H49.8V16.5H42.56Zm-13.32,0V16.5H18.92c-6.08,0-8.2-.1-10.81-.29a74.49,74.49,0,0,1,.39,8.59V33.3a71,71,0,0,1-.39,8.4c3-.19,4.92-.29,10.81-.29H29.24V45H13.42a97.66,97.66,0,0,1-11.48-.58V57.52a96.51,96.51,0,0,1,11.48-.58H50.09l-8.78,4.25c3.67,3.76,5.4,6,9.46,12.16l8.11-4.83c-.58,4.05-1,5.41-2,6.27s-1.93,1.06-12,1.06c-4.92,0-5.89-.48-5.89-3V66.69a49.61,49.61,0,0,1,.39-7.53H24A44.35,44.35,0,0,1,24.51,67V78.27c0,4.44,1,6.66,3.48,7.82,3,1.45,8,2,17.28,2,17.66,0,22-1,24.51-5.31,1.45-2.51,2.22-5.69,3-12,2.8,4.82,4.25,8,7.24,15.63l12.35-8c-5.21-10.62-6.95-13.32-13-20.94L67.66,63.7a51.61,51.61,0,0,1,4.73,6.66c-5.89-1-7.72-1.54-11.39-3.19l1.74-1.06A56.58,56.58,0,0,0,54,56.94H79a92,92,0,0,1,11.29.58V44.39A88.73,88.73,0,0,1,79,45H63V41.4H73.83c4.83,0,8.11.1,10.52.29A74.65,74.65,0,0,1,84,33.3V24.8a67.71,67.71,0,0,1,.39-8.59c-2.51.19-4.73.29-10.91.29H63V12.84H77.89c4.44,0,7.62.19,11.29.48V0A98.13,98.13,0,0,1,77.11.58H15.54A104.88,104.88,0,0,1,3.48,0V13.32A108.44,108.44,0,0,1,15,12.84Z"/></g></g></svg>