<svg xmlns="http://www.w3.org/2000/svg" viewBox="0 0 861.77 551.74" preserveAspectRatio="none"><defs><style>.cls-1{fill:#000000;}</style></defs><title>mos</title><g id="Layer_2" data-name="Layer 2"><g id="Layer_1-2" data-name="Layer 1"><path class="cls-1" d="M75.09,248.43c-24.66,0-31-4.11-31-34v-167h.74l75.46,207.33h4.49L201,43h.75V214.43c0,29.51-6.73,34.37-31.76,34v6.35h93.76v-6.35c-20.92,0-26.89-6-26.89-34V40c0-27.27,5.23-33.62,26.89-33.62V0h-62l-68,187.91H133L65,0H0V6.35C24.65,6.35,29.88,12.7,29.88,40V214.43c0,28.77-6,34-29.88,34v6.35H75.09Z"/><path class="cls-1" d="M322.24,260c42.21,0,72.1-38.11,72.1-91.9,0-52.67-28.77-89.28-69.86-89.28-42.21,0-72.47,37.36-72.47,90.78C252,223.39,280.77,260,322.24,260ZM321.11,91.15c25.78,0,38.48,29.14,38.48,88.16,0,39.6-7.84,68.36-34.36,68.36-28.39,0-38.48-38.85-38.48-88.91C286.75,119.17,294.59,91.15,321.11,91.15Z"/><path class="cls-1" d="M453.87,196.12c10.46,10.46,13.45,18.68,13.45,27.27,0,14.2-9.72,25.4-21.67,25.4-19.43,0-34-20.54-37-51.55h-6.35v57.53H409c0-1.5,2.61-3.74,4.86-3.74,4.48,0,17.93,9,33.25,9,25.78,0,45.57-21.3,45.57-48.94,0-14.57-2.24-23.16-22-43-12.32-12.33-33.62-31-36.6-34-7.85-7.84-11.59-16.81-11.59-23.91,0-10.83,9-20.17,19.8-20.17C458.35,90,471.43,106.85,477,136h6.73V82.56H477c-1.5,2.62-3,3.74-6,3.74-4.86,0-15.69-7.47-29.89-7.47-23.16,0-39.22,19.06-39.22,46.33,0,14.19,4.11,26.15,17.18,39.22C424.73,170,447.89,190.15,453.87,196.12Z"/><path class="cls-1" d="M843.84,224.89V128.13c0-32.5-13.07-49.31-36.61-49.31-16.81,0-31,10.09-47.06,34.37h-.75V78.82h-6l-43.71,21.3,1.5,5.6a25.53,25.53,0,0,1,8.22-1.5c7.09,0,10.08,4.49,10.08,12V220c0,18.3-5.6,28-19.8,28.39v6.35h71.35v-6.35c-14.2,0-21.67-6.73-21.67-28.39V123.65c10.83-15.69,21.67-22.79,33.25-22.79,14.2,0,21.3,9,21.3,27.27V220c0,19.8-7.1,28.39-21.67,28.39v6.35h69.48v-6.35C850.94,248.43,843.84,239.46,843.84,224.89Z"/><path class="cls-1" d="M225.65,408.66H139V415c20.54.37,25.78,9,25.78,29.51V520c-14.57,12.7-30.26,18.68-47.82,18.68-52.3,0-72.1-61.26-72.1-119.54,0-72.85,29.13-120.28,74.71-120.28,32.5,0,64.63,23.91,68.36,67.24h6.35l-4.49-80.32h-6c-.37,11.21-3,16.44-9.34,16.44-7.47,0-24.65-16.44-59.77-16.44C44.47,285.76,3,357.11,3,424c0,75.08,48.19,127.75,116.18,127.75,28.77,0,54.91-9.34,80.69-28.39V449c0-24.65,4.86-34,25.78-34Z"/><path class="cls-1" d="M307.44,370.18c-15.69,0-28,12-39.22,35.87h-.74V370.18h-6.35l-45.58,20.92,1.5,6.35a21.94,21.94,0,0,1,7.47-1.5c9,0,13.07,6.73,13.07,16.44v99c0,19.43-6.35,28.77-23.16,28.39v6.35h81.43v-6.35c-21.67,0-28.39-6-28.39-28.39V419.12c9-16.81,15.31-23.16,22.78-23.16,7.84,0,10.83,12,21.67,12a17.46,17.46,0,0,0,17.18-17.56C329.11,378.78,319.77,370.18,307.44,370.18Z"/><path class="cls-1" d="M345.53,298.46a18.68,18.68,0,1,0,18.68-18.68A18.5,18.5,0,0,0,345.53,298.46Z"/><path class="cls-1" d="M613.74,511.39V370.18h-5.22c-4.11,2.62-8.59,3.74-17.56,3.74H529.32V339.18c0-29.51,10.09-46.32,27.65-46.32,20.3,0,20.38,21.11,29,30.58,3.85,5.07,10.48,8.29,18.43,8.29,23.54,0,41.84-22.41,52.67-64.25l39.22-153.16c4.49-17.19,7.47-21.3,17.56-25.4V82.56h-39.6v6.35c9.34.37,12.7,3,12.7,9.34,0,5.23-1.87,10.46-2.61,13.45l-23.16,90.4h-.74L630.55,111a28.89,28.89,0,0,1-1.87-9.71c0-8.22,4.86-12,17.19-12.33V82.56h-102V28h-6.35c-8.59,28.39-22,45.95-44.82,59v7.1H514V217.42c0,30.26,13.83,42.58,30.63,42.58,17.56,0,33.25-14.2,40.35-35.49h-7.1Q571.72,238,560,238c-12.7,0-16.06-11.21-16.06-31.75V94.14h28.46A29.63,29.63,0,0,1,600.56,114l.1.29,46.7,140.46c-4.11,20.92-13.07,46.32-26.16,46.32-4.68,0-9.39-1.48-15.27-5.22-10.37-6.6-22.31-16.09-39.63-16.09-17.52,0-32.32,5.84-43.53,16.36-6.11-9.65-20.38-16.36-37.16-16.36-37.35,0-65,30.26-65,73.22v20.92H399.69V385.5h20.92V511.39c0,21.35-7.41,27.92-19.75,28.32-12.8-.41-21-7.89-21-25V370.18h-6.35l-35.87,17.59V396c7.84,0,12.33,7.47,12.33,17.19v98.24c0,20.92-7.84,28.77-23.54,28.39v6.35H633.54v-6.35C621.59,539.79,613.74,533.06,613.74,511.39Zm-114.31,0c0,18.68-9.34,28-22.78,28.39-18.3,1.12-26.15-9-26.15-25V385.5h48.93Zm.75-165.09a123.73,123.73,0,0,0-.75,13.8v13.82H450.5v-45.2c0-21.67,5.6-35.87,21.67-35.87,9.17,0,14.35,5,18.42,10.9C499.11,316.13,501.86,331.37,500.19,346.3Zm83.67,165.09c0,18.3-5.23,28-21.29,28.39H551.36c-19-.38-22-14.95-22-25.78V385.5h34.74c16.07,0,19.8,4.11,19.8,22.78Z"/><path class="cls-1" d="M706.38,515.88q-6.16,13.44-17.93,13.45c-12.7,0-16.06-11.21-16.06-31.75V385.5h46.69V373.92H672.39V319.38H666c-8.59,28.39-22,45.95-44.82,59v7.1H642.5V508.78c0,30.26,13.83,42.58,30.63,42.58,17.55,0,33.25-14.2,40.35-35.49Z"/><path class="cls-1" d="M842.72,511.39V420.62c0-28.39-11.21-50.44-36.61-50.44-16.07,0-28,6-47.44,33.63h-.74v-124h-6.35l-45.2,20.54,2.24,6a20.38,20.38,0,0,1,6-1.12c9.72,0,13.45,6,13.45,21.67V511.39c0,21.3-7.85,28.39-20.55,28.39v6.35h72.1v-6.35c-13.83-.38-21.67-9-21.67-26.16V415c13.45-17.56,21.29-22.79,33.25-22.79,15.31,0,21.67,10.09,21.67,35.11v84.05c0,20.92-7.47,28.39-22,28.39v6.35H861v-6.35C849.45,539,842.72,528.57,842.72,511.39Z"/></g></g></svg>