<svg xmlns="http://www.w3.org/2000/svg" viewBox="0 0 303.24 103.18"><title>muse_process_logo_01</title><g id="Layer_2" data-name="Layer 2"><g id="Layer_1-2" data-name="Layer 1"><polygon points="62 48.49 62 0 52.65 0 32.28 35.81 11.85 0 2.5 0 2.5 48.49 12.19 48.49 12.19 20.3 28.27 48.49 36.23 48.49 52.3 20.3 52.3 48.49 62 48.49"/><path d="M91,48.49c12.89,0,22.51-9.14,22.51-22.45V0h-9.7V26c0,7.9-5.47,12.75-12.82,12.75S78.07,33.94,78.07,26V0h-9.7V26C68.37,39.35,78.07,48.49,91,48.49Z"/><path d="M134,38.79c-4.16,0-6.65-2-7.62-6.3l-8.66,3.74c1.87,8.66,8.73,12.26,16.21,12.26,8.87,0,15.66-5,15.66-14.06s-6.17-12.19-12.75-14.34c-5.13-1.66-8.87-2.63-8.87-6.1,0-2.42,1.94-4.3,5.89-4.3s6.44,1.73,7.41,6.1l8.8-3.53c-1.73-8-8-12.26-16.14-12.26C125,0,118.24,5.13,118.24,13.92c0,9.28,6.93,12.54,13,14.48,4.78,1.46,8.59,2.43,8.59,6C139.85,37.13,137.71,38.79,134,38.79Z"/><polygon points="186.68 38.79 165.06 38.79 165.06 29.1 186.68 29.1 186.68 19.4 165.06 19.4 165.06 9.7 186.68 9.7 186.68 0 155.37 0 155.37 48.49 186.68 48.49 186.68 38.79"/><path d="M214.32,48.49c12.88,0,22.51-9.14,22.51-22.45V0h-9.7V26c0,7.9-5.47,12.75-12.82,12.75S201.43,33.94,201.43,26V0h-9.7V26C191.73,39.35,201.43,48.49,214.32,48.49Z"/><polygon points="252.9 20.3 268.97 48.49 276.93 48.49 293.01 20.3 293.01 48.49 302.7 48.49 302.7 0 293.35 0 272.99 35.81 252.55 0 243.2 0 243.2 48.49 252.9 48.49 252.9 20.3"/><path d="M24.25,54.68C10.39,54.68,0,65.08,0,78.93s10.39,24.25,24.25,24.25S48.49,92.79,48.49,78.93,38.1,54.68,24.25,54.68Zm0,38.79c-8.52,0-14.55-6.1-14.55-14.55s6-14.55,14.55-14.55,14.55,6,14.55,14.55S32.7,93.48,24.25,93.48Z"/><path d="M289,66.27c-4.68-5-10.49-11.12-22.14-11.12h0c-11.64,0-17.46,6.17-22.14,11.12-4.27,4.53-7.36,7.8-14.28,7.8s-10-3.27-14.28-7.8c-4.67-5-10.49-11.12-22.14-11.12h0c-11.64,0-17.46,6.17-22.14,11.12-4.27,4.53-7.36,7.8-14.28,7.8H105l1.06-1.12c4.25-4.51,7.61-8.07,15.06-8.07h0a15.5,15.5,0,0,1,10.89,4L135.74,72l6.3-7.42-3.71-3.15a25.19,25.19,0,0,0-17.2-6.27h0c-11.64,0-17.46,6.17-22.14,11.12-4.27,4.53-7.36,7.8-14.28,7.8v0H63.1v-9.7H84.72v-9.7H53.41v48.49h9.7V83.78H84.72v0h52.54l-1.06,1.12c-4.25,4.51-7.61,8.07-15.06,8.07a15.51,15.51,0,0,1-10.9-4l-3.71-3.15-6.3,7.42,3.71,3.15a25.2,25.2,0,0,0,17.2,6.27c11.65,0,17.47-6.17,22.14-11.12,4.27-4.53,7.36-7.8,14.28-7.8s10,3.27,14.28,7.8c4.68,5,10.49,11.12,22.14,11.12a25.2,25.2,0,0,0,17.2-6.27l3.71-3.15-6.3-7.42L204.87,89A15.51,15.51,0,0,1,194,93c-7.45,0-10.81-3.56-15.06-8.07l-1.06-1.12H230.4c6.92,0,10,3.27,14.28,7.8,4.68,5,10.49,11.12,22.14,11.12S284.28,96.55,289,91.59c4.27-4.53,7.36-7.8,14.28-7.8V74.06C296.32,74.06,293.23,70.79,289,66.27Zm-111.11,7.8,1.06-1.12c4.25-4.51,7.61-8.07,15.06-8.07h0c7.45,0,10.81,3.56,15.06,8.07l1.06,1.12Zm75,12-1.07-1.13a49.68,49.68,0,0,0-6.39-6,49.7,49.7,0,0,0,6.39-6l1.07-1.13,7.11,7.11Zm14,6.94a16.85,16.85,0,0,1-6.13-1l6.13-6.13,6.13,6.13A16.85,16.85,0,0,1,266.82,93Zm0-20.93-6.13-6.13a16.85,16.85,0,0,1,6.12-1h0a16.84,16.84,0,0,1,6.12,1Zm15.06,12.87L280.81,86l-7.11-7.11,7.11-7.11,1.07,1.13a49.67,49.67,0,0,0,6.39,6A49.68,49.68,0,0,0,281.88,84.91Z"/></g></g></svg>