<svg xmlns="http://www.w3.org/2000/svg" viewBox="0 0 649.7 649.7"><defs><style>.cls-1{fill:#fff;}</style></defs><title>muse_logo_ext_2</title><g id="Layer_2" data-name="Layer 2"><g id="Layer_1-2" data-name="Layer 1"><rect class="cls-1" width="649.7" height="649.7"/><path d="M159.63,356.11c31.26,0,30.09-31.26,60.19-31.26-30.09,0-28.92-31.27-60.19-31.26s-30.09,31.26-60.19,31.26C129.54,324.85,128.37,356.11,159.63,356.11Z"/><path d="M159.63,235.74c31.26,0,30.09-31.26,60.19-31.26-30.09,0-28.92-31.27-60.19-31.26s-30.09,31.26-60.19,31.26C129.54,204.48,128.37,235.74,159.63,235.74Z"/><path d="M159.63,476.48c31.26,0,30.09-31.26,60.19-31.26-30.09,0-28.92-31.27-60.19-31.26s-30.09,31.26-60.19,31.26C129.54,445.22,128.37,476.48,159.63,476.48Z"/><path d="M68.19,264.66c0,31.26,31.26,30.09,31.26,60.19,0-30.09,31.27-28.92,31.26-60.19s-31.26-30.09-31.26-60.19C99.45,234.57,68.19,233.4,68.19,264.66Z"/><path d="M188.56,385c0,31.26,31.26,30.09,31.26,60.19,0-30.09,31.27-28.92,31.26-60.19s-31.26-30.09-31.26-60.19C219.82,354.94,188.56,353.77,188.56,385Z"/><path d="M251.08,264.66a31.26,31.26,0,1,1-62.52,0c0-31.26,31.26-30.09,31.26-60.19C219.82,234.57,251.09,233.4,251.08,264.66Z"/><path d="M68.19,385a31.26,31.26,0,1,1,62.52,0c0,31.26-31.26,30.09-31.26,60.19C99.45,415.13,68.18,416.3,68.19,385Z"/><path d="M295.09,324.78l-9.56,0L285.31,277l9.22,0,20.31,35.22,19.92-35.4,9.22,0,.22,47.81-9.56,0-.13-27.8-15.72,27.87-7.85,0L295,297Z"/><path d="M394.72,276.52l.12,25.68c.06,13.11-9.39,22.17-22.1,22.23s-22.31-8.91-22.37-22l-.12-25.68,9.56,0,.12,25.68c0,7.79,5.52,12.54,12.76,12.51s12.61-4.84,12.58-12.62l-.12-25.68Z"/><path d="M414.86,276.43c8.06,0,14.22,4.17,16,12L422.17,292c-1-4.3-3.58-6-7.34-6s-5.8,1.87-5.79,4.26c0,3.41,3.71,4.35,8.77,6,6.5,2.09,12.59,5.2,12.63,14.08s-6.63,13.89-15.37,13.93c-7.38,0-14.15-3.49-16-12l8.52-3.73c1,4.23,3.44,6.2,7.54,6.18,3.69,0,5.8-1.67,5.79-4.33,0-3.55-3.78-4.49-8.5-5.9-6-1.89-12.86-5.06-12.9-14.22C399.45,281.56,406.05,276.47,414.86,276.43Z"/><path d="M466.9,276.2l0,9.56-21.31.1,0,9.56,21.31-.1,0,9.56-21.31.1,0,9.56,21.31-.1,0,9.56-30.87.14L436,276.34Z"/><path d="M516.35,276l.12,25.68c.06,13.11-9.39,22.17-22.1,22.23s-22.31-8.91-22.37-22l-.12-25.68,9.56,0,.12,25.68c0,7.79,5.52,12.54,12.76,12.51s12.61-4.84,12.58-12.62L506.78,276Z"/><path d="M532.4,323.71l-9.56,0-.22-47.81,9.22,0,20.31,35.22,19.92-35.4,9.22,0,.22,47.81-9.56,0-.13-27.8L556.1,323.6l-7.85,0-16-27.73Z"/><path d="M307,339.52c13.66-.06,24,10.14,24,23.8s-10.14,24-23.8,24-24-10.14-24-23.8S293.38,339.58,307,339.52Zm0,9.56c-8.4,0-14.32,6-14.28,14.41s6,14.32,14.41,14.28,14.32-6.08,14.28-14.41S315.42,349,307.08,349.08Z"/><path d="M366.66,339.25l0,9.56-21.31.1,0,9.56,21.31-.1,0,9.56-21.31.1.09,19.12-9.56,0-.22-47.81Z"/><path d="M414.86,339.09c8.06,0,14.23,4.17,16,12l-8.66,3.52c-1-4.3-3.58-6-7.34-6s-5.8,1.87-5.79,4.26c0,3.41,3.71,4.35,8.77,6,6.5,2.09,12.59,5.2,12.63,14.08s-6.63,13.9-15.37,13.93c-7.38,0-14.15-3.49-16-12l8.52-3.73c1,4.23,3.44,6.2,7.54,6.18,3.69,0,5.8-1.66,5.79-4.33,0-3.55-3.78-4.49-8.5-5.9-6-1.88-12.86-5.06-12.9-14.22C399.45,344.22,406.05,339.13,414.86,339.09Z"/><path d="M466.9,338.86l0,9.56-21.31.1,0,9.56L467,358l0,9.56-21.31.1,0,9.56,21.31-.1,0,9.56-30.87.14L436,339Z"/><path d="M468.75,386.66l19.22-24-19.44-23.82,12.29-.06L494.09,355l13.11-16.31,12.36-.06-19.22,24,19.44,23.82-12.36.06-13.19-16.2L481.12,386.6Z"/></g></g></svg>