<svg id="Layer_1" data-name="Layer 1" xmlns="http://www.w3.org/2000/svg" viewBox="0 0 1200 675"><defs><style>.cls-1{fill:#fff;}</style></defs><title>muse_hero</title><rect width="1200" height="675"/><path class="cls-1" d="M388,217.23c41.07-.19,39.35-41.25,78.88-41.42-39.53.18-38.18-40.9-79.25-40.71s-39.35,41.25-78.88,41.42C348.26,176.34,346.91,217.42,388,217.23Z"/><path class="cls-1" d="M350.15,255.4c-.19-41.07-41.25-39.35-41.42-78.88.18,39.53-40.9,38.18-40.71,79.25s41.25,39.35,41.42,78.88C309.27,295.12,350.34,296.47,350.15,255.4Z"/><path class="cls-1" d="M509,412.82c-.19-41.07-41.25-39.35-41.42-78.88.18,39.53-40.9,38.18-40.71,79.25s41.25,39.35,41.42,78.88C468.11,452.54,509.18,453.89,509,412.82Z"/><path class="cls-1" d="M388.7,375.36c41.07-.19,39.35-41.25,78.88-41.42-39.53.18-38.18-40.9-79.25-40.71S349,334.47,309.45,334.65C349,334.47,347.63,375.55,388.7,375.36Z"/><path class="cls-1" d="M508.29,254.69a41.07,41.07,0,0,1-82.14.37C426,214,467,215.34,466.86,175.81c.18,39.53,41.25,37.81,41.42,78.88"/><path class="cls-1" d="M389,451.37c-41.07.19-39.35,41.25-78.88,41.42,39.53-.18,38.18,40.9,79.25,40.71s39.35-41.25,78.88-41.42C428.76,492.26,430.11,451.18,389,451.37Z"/><path class="cls-1" d="M268.74,413.91a41.07,41.07,0,0,1,82.14-.37c.19,41.07-40.89,39.72-40.71,79.25-.18-39.53-41.25-37.81-41.42-78.88"/><path class="cls-1" d="M588.3,331l-11.39.05-.26-56.94,11-.05L611.82,316l23.73-42.16,11-.05.26,56.94-11.39.05-.15-33.11-18.72,33.2-9.35,0-19-33Z"/><path class="cls-1" d="M708,273.49l.14,30.58c.07,15.62-11.19,26.41-26.32,26.47s-26.57-10.62-26.64-26.23L655,273.73l11.39-.05.14,30.58c0,9.27,6.58,14.94,15.2,14.89s15-5.76,15-15l-.14-30.58Z"/><path class="cls-1" d="M734,273.38c9.6,0,16.94,5,19,14.31l-10.31,4.19c-1.17-5.12-4.26-7.13-8.74-7.11-4.64,0-6.9,2.22-6.89,5.07,0,4.07,4.42,5.18,10.45,7.11,7.74,2.49,15,6.19,15,16.77s-7.9,16.55-18.31,16.6c-8.78,0-16.86-4.15-19.1-14.31l10.14-4.44c1.17,5,4.1,7.39,9,7.37,4.39,0,6.9-2,6.89-5.16,0-4.23-4.5-5.35-10.12-7-7.17-2.26-15.32-6-15.37-16.94C715.67,279.48,723.54,273.42,734,273.38Z"/><path class="cls-1" d="M797,273.1l.05,11.39-25.38.12.05,11.38,25.38-.12.05,11.39-25.38.12.05,11.38,25.38-.12.05,11.39-36.77.17-.26-56.94Z"/><path class="cls-1" d="M855.95,272.83l.14,30.58c.07,15.62-11.18,26.41-26.31,26.48s-26.57-10.62-26.64-26.24L803,273.07l11.39-.05.14,30.58c0,9.27,6.58,14.94,15.2,14.9s15-5.76,15-15l-.14-30.58Z"/><path class="cls-1" d="M877.1,329.69l-11.39.05-.26-56.94,11-.05,24.19,41.95,23.73-42.16,11-.05.26,56.94-11.39.05L924,296.37l-18.72,33.2-9.35,0-19-33Z"/><path class="cls-1" d="M601.54,345.56c16.27-.07,28.53,12.07,28.6,28.34s-12.07,28.53-28.34,28.61-28.53-12.07-28.6-28.34S585.27,345.63,601.54,345.56Zm.05,11.39c-10,0-17.05,7.16-17,17.16s7.16,17,17.16,17,17.05-7.24,17-17.16S611.51,356.91,601.59,356.95Z"/><path class="cls-1" d="M673.58,345.24l.05,11.39-25.38.12.05,11.38,25.38-.12.05,11.39-25.38.12.11,22.78-11.39.05-.26-56.94Z"/><path class="cls-1" d="M722.42,345.05c9.6,0,16.94,5,19,14.31l-10.31,4.19c-1.17-5.12-4.26-7.13-8.74-7.11-4.64,0-6.9,2.22-6.89,5.07,0,4.07,4.42,5.18,10.45,7.11,7.74,2.49,15,6.19,15,16.77s-7.9,16.55-18.31,16.6c-8.78,0-16.86-4.15-19.1-14.31l10.15-4.44c1.16,5,4.1,7.39,9,7.37,4.39,0,6.9-2,6.89-5.16,0-4.23-4.5-5.35-10.12-7-7.17-2.26-15.32-6-15.37-16.94C704.06,351.15,711.92,345.09,722.42,345.05Z"/><path class="cls-1" d="M786.42,344.77l.05,11.39-25.38.12.05,11.38,25.38-.12.05,11.39-25.38.12.05,11.38,25.38-.12.05,11.39-36.77.17-.26-56.94Z"/><path class="cls-1" d="M789.65,401.7l22.89-28.58-23.15-28.36,14.64-.07L819.82,364l15.61-19.43,14.72-.07-22.89,28.57,23.15,28.37-14.72.07L820,382.2l-15.61,19.43Z"/></svg>