<svg xmlns="http://www.w3.org/2000/svg" viewBox="0 0 192.36 192.36"><defs><style>.cls-1{fill:none;}.cls-2{fill:red;}</style></defs><title>politicoin_1</title><g id="Layer_2" data-name="Layer 2"><g id="Layer_1-2" data-name="Layer 1"><rect class="cls-1" width="192.36" height="192.36"/><path class="cls-2" d="M83.89.67c2-.07,4-.21,6-.2,1.64,0,3.28.15,4.92.3s3.08.33,4.6.59c1.26.21,2.5.57,3.74.85.92.21,1.86.37,2.77.63,1.07.3,2.14.62,3.17,1q2.34.9,4.64,1.93c1.34.6,2.67,1.24,4,1.94,1.14.61,2.25,1.26,3.32,2,1.34.89,2.67,1.82,3.94,2.81,2,1.57,4,3.12,5.93,4.82a74.55,74.55,0,0,1,5.51,5.48c1.71,1.9,3.25,3.95,4.83,6,1.18,1.51,2.39,3,3.42,4.64,1.51,2.36,2.91,4.79,4.31,7.22a59.37,59.37,0,0,1,2.84,5.22c1.5,3.33,2.87,6.71,4.26,10.09.69,1.67,1.32,3.37,1.93,5.08.31.86.48,1.76.76,2.63s.62,1.71.9,2.57c.15.46.22.94.34,1.41s.24.9.38,1.35c.31,1,.67,1.92,1,2.9.17.59.21,1.21.35,1.81s.38,1.44.56,2.17c.12.46.23.92.31,1.39.12.79.18,1.58.32,2.37s.37,1.62.56,2.43a1.71,1.71,0,0,1,0,.22c.1,1,.19,2,.3,3,.19,1.75.41,3.49.6,5.24.12,1.16.21,2.33.28,3.5.16,2.52.31,5,.43,7.56,0,.53-.13,1.08-.1,1.61.13,2.41-.07,4.83-.05,7.24,0,1.83-.17,3.67-.29,5.51-.06.9-.17,1.79-.28,2.68-.19,1.53-.38,3.05-.6,4.58-.17,1.2-.35,2.41-.6,3.6s-.6,2.29-.85,3.44-.37,2.25-.64,3.35c-.22.91-.57,1.79-.83,2.69s-.4,1.64-.65,2.44c-.31,1-.68,1.89-1,2.83s-.66,2-1,2.93c-.73,1.91-1.4,3.85-2.26,5.71-1.37,3-2.79,5.93-4.33,8.81-1.1,2.06-2.4,4-3.69,6a59.15,59.15,0,0,1-3.79,5.26c-1.58,1.89-3.32,3.65-5.06,5.39-1.27,1.27-2.63,2.47-4,3.63a52.25,52.25,0,0,1-10.17,6.7c-2,1-4.12,1.86-6.22,2.67a26.43,26.43,0,0,1-3.49.95c-1.37.32-2.75.59-4.12.89s-2.5.63-3.77.85-2.3.12-3.42.36c-2.59.54-5.2.21-7.8.24a31.59,31.59,0,0,1-4.31-.52c-.81-.11-1.63-.19-2.43-.34s-1.33-.34-2-.51c-.84-.22-1.7-.41-2.53-.67-1-.33-2.08-.69-3.11-1.07s-2.25-.79-3.33-1.3c-1.87-.89-3.71-1.86-5.54-2.84-1.13-.6-2.22-1.26-3.31-1.93-.79-.49-1.55-1-2.3-1.6-.95-.71-1.89-1.44-2.79-2.21-1.49-1.26-3-2.5-4.42-3.85-1.81-1.72-3.59-3.48-5.28-5.31-1.29-1.4-2.43-2.94-3.62-4.42-.79-1-1.59-2-2.33-3q-1.65-2.31-3.2-4.69c-.79-1.2-1.59-2.41-2.26-3.68-1.57-3-3.1-5.93-4.58-8.93-1-2.08-2-4.2-2.86-6.34-.6-1.42-1-2.91-1.57-4.36-.47-1.3-1-2.59-1.43-3.9-.37-1.12-.61-2.27-.94-3.4-.25-.85-.59-1.68-.83-2.54s-.42-1.89-.65-2.84-.54-2-.79-3.06c-.14-.55-.28-1.11-.37-1.67-.13-.73-.18-1.48-.32-2.21s-.39-1.47-.55-2.21-.23-1.22-.31-1.84c-.12-1-.19-2-.32-3s-.36-2.23-.55-3.34c0-.07,0-.15,0-.22-.1-1.53-.22-3.07-.3-4.6-.13-2.52-.25-5-.36-7.58-.08-1.77-.21-3.54-.19-5.31,0-2.31.15-4.63.27-6.94.06-1.2.17-2.39.29-3.58.18-1.71.37-3.43.59-5.13.17-1.29.35-2.58.59-3.86s.58-2.55.85-3.83c.15-.7.18-1.43.34-2.13.23-1,.53-2,.8-3,.13-.48.24-1,.37-1.45q.56-2,1.13-4c.31-1.11.6-2.23,1-3.31s.94-2.44,1.41-3.66,1-2.68,1.54-4c.8-1.82,1.64-3.62,2.54-5.4q1.48-2.92,3.12-5.76c.71-1.22,1.53-2.39,2.33-3.55.93-1.35,1.82-2.73,2.85-4q2.18-2.68,4.55-5.22a57.27,57.27,0,0,1,4.48-4.41,61.78,61.78,0,0,1,5.46-4.15A54.87,54.87,0,0,1,66.26,6c1.66-.87,3.42-1.55,5.16-2.26,1.28-.53,2.57-1,3.89-1.43a29.82,29.82,0,0,1,2.94-.64c1.43-.29,2.87-.59,4.31-.85a7.73,7.73,0,0,1,1.33,0ZM74,109.87c.45.11.7.19,1,.23l4.88.66c.75.1,1.5.22,2.25.34,1.62.26,3.23.55,4.85.79s3.21.43,4.81.67c2.35.35,4.68.9,7,1a70.55,70.55,0,0,0,7.3-.18,15.87,15.87,0,0,0,5.89-1.59,23.87,23.87,0,0,0,11.21-10.33,40.66,40.66,0,0,0,4.39-12.78c.37-2.09.68-4.21.87-6.32s.22-4,.28-6a13.67,13.67,0,0,0-.16-1.53c-.21-2.52-.33-5-.64-7.56a66.38,66.38,0,0,0-1.19-6.62,34.71,34.71,0,0,0-1.59-5.2,33.86,33.86,0,0,0-4.91-8.72,29.68,29.68,0,0,0-8.43-7.17,22.74,22.74,0,0,0-6.49-2.44,29.51,29.51,0,0,0-6.77-.83c-3.28,0-6.56.16-9.84.24l-12.43.3c-5.11.11-10.21.23-15.32.31-.72,0-1,.16-1,.94q.16,10.51.24,21,.17,25.74.3,51.49c0,7.39,0,14.77.06,22.16,0,.26,0,.52,0,.94L46.16,130.6a1.92,1.92,0,0,0-.08.35c0,5.11,0,10.23.06,15.34a.88.88,0,0,0,.54.6c1.21.35,2.45.62,3.67.95,1.73.46,3.46,1,5.19,1.41,2.09.54,4.21,1,6.3,1.56s4.16,1.15,6.25,1.69c1.92.5,3.85,1,5.9,1.45Z"/><path class="cls-2" d="M74,93.16c.75,0,1.39.05,2,.12,2.33.26,4.67.56,7,.83,1.15.13,2.3.22,3.44.34l2.78.31c2.11.26,4.22.58,6.34.78a14.07,14.07,0,0,0,6-.82,12.63,12.63,0,0,0,6.2-4.8,20.86,20.86,0,0,0,3.5-11.1,41.8,41.8,0,0,0-.46-10.07,26.83,26.83,0,0,0-1.88-6.24,13.66,13.66,0,0,0-4.59-5.67,14.47,14.47,0,0,0-8-2.37c-5.59-.23-11.2-.24-16.79-.33-1.53,0-3.06,0-4.59,0-1,0-1,0-1,1q0,18.52,0,37C74,92.48,74,92.77,74,93.16Z"/><path class="cls-2" d="M74,93.16c0-.38,0-.68,0-1q0-18.52,0-37c0-1,0-1,1-1,1.53,0,3.06,0,4.59,0,5.6.09,11.2.11,16.79.33a14.47,14.47,0,0,1,8,2.37,13.66,13.66,0,0,1,4.59,5.67,26.83,26.83,0,0,1,1.88,6.24,41.8,41.8,0,0,1,.46,10.07,20.86,20.86,0,0,1-3.5,11.1,12.63,12.63,0,0,1-6.2,4.8,14.07,14.07,0,0,1-6,.82c-2.12-.2-4.22-.52-6.34-.78l-2.78-.31c-1.15-.12-2.3-.21-3.44-.34-2.33-.27-4.67-.56-7-.83C75.37,93.21,74.73,93.2,74,93.16Z"/></g></g></svg>