<svg xmlns="http://www.w3.org/2000/svg" viewBox="0 0 192.48 192.48"><defs><style>.cls-1{fill:red;}</style></defs><title>raid_icon</title><g id="Layer_2" data-name="Layer 2"><g id="Layer_1-2" data-name="Layer 1"><path class="cls-1" d="M125.83,26.73q-1,3-2.89,2.44-1.43-.46-1.11-3.17.16-1.39.18-1.8a5.68,5.68,0,0,0-.12-1.81A3.48,3.48,0,0,0,119.31,20q-.58-.19-1.91-.55l-1.59,4.94a1.45,1.45,0,0,0,0,1.17,1.77,1.77,0,0,0,1,.64l.68.22-.19.6-5.16-1.66.19-.6L113,25a1.28,1.28,0,0,0,1.84-.89L118,14.33a1.73,1.73,0,0,0,0-1.25,1.58,1.58,0,0,0-1-.67l-.68-.22.19-.6,6.89,2.22a6.13,6.13,0,0,1,3,1.93,3,3,0,0,1,.54,2.92q-.92,2.85-5.29,2,1.78,1.48,1.41,4.64a8,8,0,0,0,0,2,.87.87,0,0,0,.57.72.92.92,0,0,0,.94-.3,3,3,0,0,0,.78-1.19Zm-.08-8.41q.91-2.81-2.59-3.94l-2.31-.74a1.34,1.34,0,0,0-1.9,1l-1.32,4.1q1.34.52,2.12.77a10.09,10.09,0,0,0,3.67.65A2.46,2.46,0,0,0,125.75,18.32Z"/><path class="cls-1" d="M130.78,32.63l-4.71-2.34.28-.57.83.41a1.09,1.09,0,0,0,1.63-.63L133.55,20a1.09,1.09,0,0,0-.49-1.68l-.83-.41.28-.57,4.71,2.34-.28.57-.83-.41a1.09,1.09,0,0,0-1.63.63L129.75,30a1.09,1.09,0,0,0,.49,1.68l.83.41Z"/><path class="cls-1" d="M143.11,36.15a3.53,3.53,0,0,1-2.78,1.66,5.21,5.21,0,0,1-3.38-1,6.07,6.07,0,0,1-1.62-1.53,6.58,6.58,0,0,1-1-2.41l-1.61.84-.33-.22,2.84-4.42.44.25q-1.79,4.65,1.64,7a4.22,4.22,0,0,0,2.52.76,2.68,2.68,0,0,0,2.28-1.19,2.84,2.84,0,0,0,.15-3,21.5,21.5,0,0,0-1.84-2.59,13,13,0,0,1-1.86-2.83,3.22,3.22,0,0,1,.29-3.14,3.37,3.37,0,0,1,2.44-1.54,4.5,4.5,0,0,1,3.08.86,5.33,5.33,0,0,1,2.35,3.6l1.44-.89.37.25L146,30.7l-.44-.3A7,7,0,0,0,146,27a4.19,4.19,0,0,0-1.95-2.77,4,4,0,0,0-2.24-.75,2.44,2.44,0,0,0-2.07,1.15,2.41,2.41,0,0,0,0,2.62,28.06,28.06,0,0,0,1.71,2.3,16.77,16.77,0,0,1,2.08,3.06A3.65,3.65,0,0,1,143.11,36.15Z"/><path class="cls-1" d="M156.52,44.15a7.13,7.13,0,0,1-5,2.47,7,7,0,0,1-5-2.3l-4.6-4.5.44-.45.45.44a1.61,1.61,0,0,0,1.07.57,1.64,1.64,0,0,0,1.08-.62l7.08-7.24a1.64,1.64,0,0,0,.6-1.1,1.61,1.61,0,0,0-.59-1.05l-.45-.44.44-.45,4.75,4.65q2.49,2.44,2.39,4.88T156.52,44.15ZM155.84,43q4.52-4.61.67-8.38L154.84,33q-.9-.89-1.94.17l-7.17,7.33q-1,1.06-.13,1.94l1.49,1.46Q151.12,47.86,155.84,43Z"/><path class="cls-1" d="M163.28,68.17l-2.38-4.4.54-.29.26.48q.62,1.15,1.35.76a3.85,3.85,0,0,0,.71-.72l1.75-2-2.93-5.42-2.06.27a5.1,5.1,0,0,0-1.45.33.73.73,0,0,0-.41.75,4.58,4.58,0,0,0,.62,1.58l-.54.29-2.29-4.23.54-.29a2.88,2.88,0,0,0,1.12,1,3.44,3.44,0,0,0,1.44,0l12.85-1.7.31.58L164,65.36a2.06,2.06,0,0,0-.19,2.53ZM166,61.44l5.19-6.05-7.9,1.06Z"/><path class="cls-1" d="M170.27,78.12a3.53,3.53,0,0,1-3.21-.41,5.21,5.21,0,0,1-2-2.87,6.08,6.08,0,0,1-.33-2.2,6.58,6.58,0,0,1,.7-2.51l-1.79-.34-.12-.38,5-1.72.19.47q-4.28,2.54-3,6.48a4.22,4.22,0,0,0,1.51,2.15,2.68,2.68,0,0,0,2.52.48,2.84,2.84,0,0,0,2-2.27,21.51,21.51,0,0,0,.16-3.17,13,13,0,0,1,.29-3.37,3.22,3.22,0,0,1,2.17-2.29,3.38,3.38,0,0,1,2.87.3A4.5,4.5,0,0,1,179,69.06a5.33,5.33,0,0,1-.38,4.29l1.68.19.14.42-4.52,1.67-.16-.5a7,7,0,0,0,2.48-2.43,4.19,4.19,0,0,0,.18-3.38,4,4,0,0,0-1.3-2,2.44,2.44,0,0,0-2.34-.38A2.41,2.41,0,0,0,173.18,69a28,28,0,0,0-.08,2.86,16.74,16.74,0,0,1-.26,3.69A3.65,3.65,0,0,1,170.27,78.12Z"/><path class="cls-1" d="M167.92,86.12,167,81l.62-.11.16.91q.21,1.16,1.48.94l10.47-1.87q1.27-.23,1.06-1.39l-.16-.91.62-.11.92,5.17-.62.11-.16-.91q-.21-1.16-1.47-.94l-10.47,1.87q-1.27.23-1.06,1.39l.16.91Z"/><path class="cls-1" d="M168.71,101.78l-.11-5h.61v.55q0,1.31.85,1.29a3.83,3.83,0,0,0,1-.32l2.49-1-.13-6.16-2-.7A5.11,5.11,0,0,0,170,90a.73.73,0,0,0-.71.48,4.59,4.59,0,0,0-.17,1.69h-.61l-.1-4.81H169a2.88,2.88,0,0,0,.52,1.45,3.44,3.44,0,0,0,1.28.67L183,93.88v.65l-12.38,5.08a2.07,2.07,0,0,0-1.33,2.16ZM174.18,97l7.38-3-7.51-2.67Z"/><path class="cls-1" d="M179.4,120l.17-.89q.24-1.22-1.13-1.49l-12.51-2.44.1-.5L180.54,108l-10.46-2q-1.37-.27-1.6.91l-.17.87-.62-.12.93-4.76.62.12-.17.89q-.24,1.22,1.13,1.49l10.33,2a1.56,1.56,0,0,0,1.06-.05,1.43,1.43,0,0,0,.44-.93l.17-.89.62.12-.54,2.75L168,114.93,178.58,117q1.35.26,1.58-.92l.17-.87.6.12-.93,4.76Z"/><path class="cls-1" d="M160.28,130l2.28-4.73.57.27-.4.84a1.09,1.09,0,0,0,.65,1.62l9.58,4.61a1.09,1.09,0,0,0,1.67-.51l.4-.84.57.27-2.28,4.73-.57-.27.4-.84a1.09,1.09,0,0,0-.65-1.62l-9.58-4.61a1.09,1.09,0,0,0-1.67.51l-.4.84Z"/><path class="cls-1" d="M163,151.29l.52-.75q.71-1-.44-1.82l-10.48-7.25.29-.42,15.94-.23L160,134.76q-1.14-.79-1.83.2l-.5.73-.52-.36,2.76-4,.52.36-.52.75q-.71,1,.44,1.82l8.66,6a1.56,1.56,0,0,0,1,.38q.35-.06.77-.67l.52-.75.52.36-1.6,2.31-15.7.22,8.87,6.14q1.13.78,1.81-.21l.5-.73.5.35-2.76,4Z"/><path class="cls-1" d="M148.87,158.95l.3-.29a9.35,9.35,0,0,0,2.87,1.82,2.63,2.63,0,0,0,2.62-.85q1.45-1.42.52-2.37l-7.31-7.49a1.56,1.56,0,0,0-1-.58,1.65,1.65,0,0,0-1,.57l-.54.53-.43-.44,3.91-3.82.43.44-.53.52a1.6,1.6,0,0,0-.59,1,1.5,1.5,0,0,0,.54,1l7.31,7.49q.93,1,2.38-.46a2.62,2.62,0,0,0,.91-2.6,8.74,8.74,0,0,0-1.76-2.92l.3-.29,3.39,3.92-8.42,8.23Z"/><path class="cls-1" d="M134.48,163.83l-2.55-4.41,10-6.75.35.52-.52.35a1.58,1.58,0,0,0-.75.92,1.6,1.6,0,0,0,.38,1.17l5.76,8.51a1.22,1.22,0,0,0,1.91.41l.63-.43.35.52-9.78,6.62-3-3.92.35-.24a7.28,7.28,0,0,0,3,2.2q1.07.19,3.08-1.17l2.11-1.43a1.61,1.61,0,0,0,.75-.89,1.5,1.5,0,0,0-.35-1.12L143.7,161l-2.17,1.47q-1.14.77-1.17,1.48a4.18,4.18,0,0,0,.93,2.12l-.47.32-3.52-5.21.47-.32a4.24,4.24,0,0,0,1.61,1.66,2.3,2.3,0,0,0,1.8-.58l2.17-1.47-2.85-4.21a1.64,1.64,0,0,0-1-.81,1.6,1.6,0,0,0-1.12.38l-2.62,1.77a3.75,3.75,0,0,0-1.94,2.66,8.31,8.31,0,0,0,1,3.38Z"/><path class="cls-1" d="M119.35,168.17q-1.19-3,.59-3.74,1.38-.59,2.91,1.68.79,1.16,1,1.48a5.69,5.69,0,0,0,1.28,1.29,3.48,3.48,0,0,0,3.5.1q.56-.24,1.8-.83l-2-4.78a1.45,1.45,0,0,0-.75-.9,1.77,1.77,0,0,0-1.18.18l-.66.28-.25-.58,5-2.12.25.58-.64.27a1.28,1.28,0,0,0-.81,1.88l4,9.44a1.73,1.73,0,0,0,.78,1,1.58,1.58,0,0,0,1.18-.13L136,173l.25.58-6.66,2.83a6.13,6.13,0,0,1-3.56.52,3,3,0,0,1-2.32-1.86q-1.17-2.76,2.67-5-2.32,0-4.1-2.59a8.07,8.07,0,0,0-1.27-1.55.87.87,0,0,0-.9-.17.92.92,0,0,0-.52.84,3,3,0,0,0,.19,1.41Zm5.56,6.3q1.15,2.72,4.53,1.29l2.23-.95a1.34,1.34,0,0,0,.78-2l-1.68-4q-1.35.48-2.11.8a10.08,10.08,0,0,0-3.2,1.91A2.46,2.46,0,0,0,124.91,174.48Z"/><path class="cls-1" d="M107.47,171.63a3.53,3.53,0,0,1,.71-3.16,5.21,5.21,0,0,1,3-1.77,6.07,6.07,0,0,1,2.22-.12,6.59,6.59,0,0,1,2.43.93l.5-1.75.39-.09,1.26,5.1-.49.15q-2.14-4.5-6.18-3.61a4.22,4.22,0,0,0-2.28,1.3,2.69,2.69,0,0,0-.71,2.47,2.84,2.84,0,0,0,2.08,2.18,21.55,21.55,0,0,0,3.15.45,13,13,0,0,1,3.33.6,3.23,3.23,0,0,1,2.08,2.37,3.38,3.38,0,0,1-.57,2.83,4.5,4.5,0,0,1-2.75,1.64,5.33,5.33,0,0,1-4.23-.77l-.35,1.65-.43.1-1.24-4.65.52-.11a7,7,0,0,0,2.19,2.69,4.19,4.19,0,0,0,3.35.49,4,4,0,0,0,2.09-1.11,2.44,2.44,0,0,0,.6-2.29,2.41,2.41,0,0,0-1.93-1.78,28.19,28.19,0,0,0-2.84-.35,16.76,16.76,0,0,1-3.65-.6A3.65,3.65,0,0,1,107.47,171.63Z"/><path class="cls-1" d="M93.38,173.86l.14-5.1,12-.51,0,.63-.63,0a1.58,1.58,0,0,0-1.12.39,1.6,1.6,0,0,0-.29,1.19l.43,10.27q.06,1.41,1.41,1.36l.76,0,0,.63-11.8.5-.48-4.9.42,0a7.28,7.28,0,0,0,1.43,3.47q.81.73,3.24.62l2.55-.11a1.61,1.61,0,0,0,1.1-.36,1.5,1.5,0,0,0,.29-1.13l-.19-4.53-2.61.11a2.16,2.16,0,0,0-1.77.64A4.18,4.18,0,0,0,98,179.3l-.57,0L97.19,173l.57,0a4.23,4.23,0,0,0,.5,2.26,2.3,2.3,0,0,0,1.84.45l2.61-.11-.22-5.08a1.64,1.64,0,0,0-.39-1.19,1.6,1.6,0,0,0-1.15-.27l-3.16.13a3.75,3.75,0,0,0-3.05,1.25,8.32,8.32,0,0,0-1,3.38Z"/><path class="cls-1" d="M79.51,171.76a6.86,6.86,0,0,1,2.36-3.44,5.1,5.1,0,0,1,3.83-.85,6.07,6.07,0,0,1,4.41,2.73,7.32,7.32,0,0,1,1.1,5.31,8.77,8.77,0,0,1-2.46,5.19,5.81,5.81,0,0,1-5.14,1.7,4.66,4.66,0,0,1-3.43-2.12l-1,1.38-.54-.08.56-5.63.59.08q.37,5.25,3.86,5.74a4.55,4.55,0,0,0,4.33-2,9,9,0,0,0,1.93-4.5,7.22,7.22,0,0,0-.7-4.53,5,5,0,0,0-3.91-2.66,4.13,4.13,0,0,0-3.11.78,6.08,6.08,0,0,0-2.07,3Z"/><path class="cls-1" d="M64.68,171.8l.4.13a9.35,9.35,0,0,0-.3,3.39,2.62,2.62,0,0,0,2,1.94q1.92.63,2.34-.63l3.28-9.94a1.56,1.56,0,0,0,0-1.16,1.64,1.64,0,0,0-1-.66l-.72-.24.19-.58,5.19,1.71-.19.58-.7-.23a1.6,1.6,0,0,0-1.18-.06,1.5,1.5,0,0,0-.67,1L70.07,177q-.42,1.26,1.51,1.9a2.62,2.62,0,0,0,2.73-.39,8.76,8.76,0,0,0,1.78-2.9l.4.13-1.92,4.81-11.18-3.69Z"/><path class="cls-1" d="M61.89,160l4.71,2.32-.28.57-.83-.41a1.09,1.09,0,0,0-1.63.63l-4.7,9.54a1.09,1.09,0,0,0,.49,1.68l.83.41-.28.57L55.49,173l.28-.57.83.41a1.09,1.09,0,0,0,1.63-.63l4.7-9.54a1.09,1.09,0,0,0-.49-1.68l-.83-.41Z"/><path class="cls-1" d="M45.94,158.26a8.08,8.08,0,0,1,4.33-3.35,6.39,6.39,0,0,1,8.14,5.56,9,9,0,0,1-5.89,8.62,6.43,6.43,0,0,1-8.14-5.56A8.11,8.11,0,0,1,45.94,158.26Zm1,.71a8.38,8.38,0,0,0-1.58,4.49,4.83,4.83,0,0,0,6.79,4.64A8.56,8.56,0,0,0,55.78,165a8.45,8.45,0,0,0,1.59-4.46,4.81,4.81,0,0,0-6.79-4.64A8.34,8.34,0,0,0,47,159Z"/><path class="cls-1" d="M29.55,151.3l.63.65q.87.89,1.87-.08L41.16,143l.35.36L38.72,159l7.62-7.45q1-1,.15-1.83l-.62-.63.45-.44,3.39,3.47-.45.44-.63-.65q-.87-.89-1.87.08l-7.53,7.36a1.56,1.56,0,0,0-.56.9,1.42,1.42,0,0,0,.51.89l.63.65-.45.44-2-2,2.77-15.46-7.71,7.54q-1,1-.14,1.82l.62.63-.44.43-3.39-3.47Z"/><path class="cls-1" d="M30.13,134.14a3.53,3.53,0,0,1,3.2-.49,5.21,5.21,0,0,1,2.76,2.19,6.08,6.08,0,0,1,.92,2,6.59,6.59,0,0,1,0,2.6l1.81-.17.22.33-4.3,3-.32-.4q3.41-3.63,1.11-7.07a4.22,4.22,0,0,0-2-1.65,2.69,2.69,0,0,0-2.56.24,2.84,2.84,0,0,0-1.27,2.73,21.44,21.44,0,0,0,.72,3.09,13,13,0,0,1,.65,3.32,3.23,3.23,0,0,1-1.45,2.8,3.38,3.38,0,0,1-2.84.5,4.5,4.5,0,0,1-2.53-2,5.33,5.33,0,0,1-.82-4.22l-1.67.28-.25-.37,3.88-2.85.29.44a7,7,0,0,0-1.71,3,4.19,4.19,0,0,0,.76,3.3,4,4,0,0,0,1.79,1.54,2.44,2.44,0,0,0,2.35-.28,2.41,2.41,0,0,0,1-2.44,28.21,28.21,0,0,0-.71-2.77,16.77,16.77,0,0,1-.77-3.62A3.65,3.65,0,0,1,30.13,134.14Z"/><path class="cls-1" d="M18.69,113.78l1.9,6,6.07-1.93.25.78-6.07,1.93,1.9,6-.8.26-1.9-6-6,1.89-.25-.78,6-1.89-1.9-6Z"/><path class="cls-1" d="M16.79,90.23A7.13,7.13,0,0,1,22,92a7,7,0,0,1,1.88,5.15l0,6.44h-.63V103a1.61,1.61,0,0,0-.35-1.16,1.64,1.64,0,0,0-1.21-.33l-10.13.08a1.64,1.64,0,0,0-1.2.35,1.61,1.61,0,0,0-.33,1.16v.63H9.48l-.05-6.65q0-3.48,1.77-5.14T16.79,90.23Zm-.31,1.27q-6.46,0-6.41,5.43l0,2.34q0,1.27,1.49,1.25l10.25-.08q1.48,0,1.47-1.28l0-2.09Q23.23,91.45,16.48,91.5Z"/><path class="cls-1" d="M24.91,84l-.7,5.21-.63-.08.12-.92q.16-1.17-1.12-1.34L12,85.48q-1.27-.17-1.43,1l-.12.92-.63-.08.7-5.21.63.08-.12.92q-.16,1.17,1.12,1.34l10.54,1.42q1.28.17,1.43-1l.12-.92Z"/><path class="cls-1" d="M29,68.68l-1.42,4.79L27,73.3l.16-.53q.37-1.25-.42-1.49a3.83,3.83,0,0,0-1,0L23,71.51l-1.75,5.91,1.65,1.26a5.1,5.1,0,0,0,1.26.79.73.73,0,0,0,.82-.24,4.59,4.59,0,0,0,.68-1.56l.59.17-1.37,4.61-.59-.17a2.87,2.87,0,0,0-.05-1.53,3.45,3.45,0,0,0-1-1L12.93,71.84l.19-.63,13.34-1.06a2.07,2.07,0,0,0,1.92-1.65Zm-6.66,2.86-8,.61L20.7,77Z"/><path class="cls-1" d="M31.19,56.53a3.53,3.53,0,0,1,2,2.57,5.22,5.22,0,0,1-.59,3.47,6.08,6.08,0,0,1-1.33,1.78A6.59,6.59,0,0,1,29,65.63l1,1.51-.18.36-4.72-2.31.2-.47Q30.1,66,32,62.28a4.22,4.22,0,0,0,.46-2.59A2.68,2.68,0,0,0,31,57.57a2.84,2.84,0,0,0-3,.2,21.45,21.45,0,0,0-2.36,2.12,13,13,0,0,1-2.6,2.17,3.23,3.23,0,0,1-3.15.07,3.37,3.37,0,0,1-1.81-2.25,4.5,4.5,0,0,1,.5-3.16A5.33,5.33,0,0,1,21.91,54l-1-1.33.2-.39,4.37,2-.24.47a7,7,0,0,0-3.47,0A4.19,4.19,0,0,0,19.19,57a4,4,0,0,0-.49,2.31,2.44,2.44,0,0,0,1.38,1.93,2.41,2.41,0,0,0,2.6-.34,28.1,28.1,0,0,0,2.09-2,16.78,16.78,0,0,1,2.8-2.42A3.65,3.65,0,0,1,31.19,56.53Z"/><path class="cls-1" d="M34.07,41.2q3.23,2.47-.29,7.08-.45.59-1.82,2.46l3.42,2.61a1.51,1.51,0,0,0,1.1.44q.41-.05,1-.76l.42-.55.5.38-3.28,4.29-.5-.38.42-.55a1.71,1.71,0,0,0,.48-1.12q0-.4-.73-.93L26.63,48a1.73,1.73,0,0,0-1.16-.46,1.51,1.51,0,0,0-1,.69l-.42.55-.5-.38,3.82-5Q30.9,38.78,34.07,41.2Zm-.8,1a2.93,2.93,0,0,0-3-.6,5.84,5.84,0,0,0-2.17,1.93L27,45a1.37,1.37,0,0,0,.31,2.17l4.12,3.15q1.31-1.54,1.85-2.25a6,6,0,0,0,1.31-2.93A3,3,0,0,0,33.27,42.21Z"/><path class="cls-1" d="M47.78,32.8a8.08,8.08,0,0,1,2.24,5,6.39,6.39,0,0,1-7.31,6.6A8.14,8.14,0,0,1,38,41.66a8.12,8.12,0,0,1-2.27-5A6.43,6.43,0,0,1,43,30.05,8.11,8.11,0,0,1,47.78,32.8Zm-.94.85a8.38,8.38,0,0,0-4-2.59,4.83,4.83,0,0,0-6.11,5.52,8.56,8.56,0,0,0,2.19,4.22,8.45,8.45,0,0,0,4,2.59A4.81,4.81,0,0,0,49,37.87,8.34,8.34,0,0,0,46.84,33.65Z"/><path class="cls-1" d="M63.1,28.37q1.61,2.78-.06,3.78-1.28.78-3.12-1.24-.94-1-1.24-1.32a5.69,5.69,0,0,0-1.45-1.09,3.48,3.48,0,0,0-3.48.4q-.52.32-1.66,1.08l2.69,4.44q.43.7.87.78a1.77,1.77,0,0,0,1.15-.35l.61-.37.33.54-4.64,2.81-.33-.54.6-.36a1.28,1.28,0,0,0,.53-2l-5.31-8.77a1.73,1.73,0,0,0-.91-.85,1.58,1.58,0,0,0-1.15.3L45.9,26l-.33-.54,6.19-3.75a6.13,6.13,0,0,1,3.45-1,3,3,0,0,1,2.56,1.51q1.55,2.56-1.93,5.33,2.29-.37,4.43,2a8,8,0,0,0,1.48,1.35.87.87,0,0,0,.91,0,.92.92,0,0,0,.39-.9,3,3,0,0,0-.38-1.37Zm-6.4-5.45q-1.53-2.53-4.67-.63l-2.08,1.26a1.34,1.34,0,0,0-.48,2.09l2.23,3.68q1.27-.67,2-1.1a10.09,10.09,0,0,0,2.9-2.34A2.46,2.46,0,0,0,56.69,22.92Z"/><path class="cls-1" d="M79.58,25.48l-4.73,1.63-.2-.58.52-.18q1.24-.42,1-1.2a3.83,3.83,0,0,0-.59-.82l-1.73-2.06-5.83,2-.07,2.08A5.11,5.11,0,0,0,68,27.83a.73.73,0,0,0,.67.53A4.58,4.58,0,0,0,70.34,28l.2.58L66,30.15l-.2-.58A2.88,2.88,0,0,0,67,28.64a3.44,3.44,0,0,0,.25-1.42l.43-13,.62-.21L76.92,24.3a2.06,2.06,0,0,0,2.46.6Zm-6.2-3.76-5.11-6.12-.25,8Z"/><path class="cls-1" d="M146.74,93.22l-.33-.05h0c-5.48-.64-10.27-1.27-14.46-2l-2.18-.4-.51-.1-2-.42a47.55,47.55,0,0,1-11-3.63l-.79-.41-.9-.51-.59-.36q-.9-.57-1.72-1.2l-.3-.23c-7.85-6.23-10.26-17-12.67-37.82h0a3,3,0,0,0-3.08-2.74h0a3,3,0,0,0-3.08,2.74h0c-4.43,38.24-8.85,42.66-47.09,47.09h0a3.1,3.1,0,0,0,0,6.16h0c38.24,4.43,42.66,8.85,47.09,47.09h0a3,3,0,0,0,3.08,2.74,3.14,3.14,0,0,0,2.2-.87,3.06,3.06,0,0,0,.88-1.87h0c4.43-38.24,8.85-42.66,47.09-47.09h0A3.1,3.1,0,0,0,146.74,93.22Zm-62,14.52C78.82,101.81,70.31,99.17,56,97.1a.87.87,0,0,1,0-1.71c14.3-2.07,22.81-4.71,28.73-10.64,5.14-5.14,7.81-12.23,9.78-23.35a.86.86,0,0,1,1.72.15v22a5.08,5.08,0,0,0,3.21,4.71,8.62,8.62,0,0,1,0,16A5.08,5.08,0,0,0,96.24,109v22a.86.86,0,0,1-1.72.15C92.56,120,89.89,112.88,84.75,107.74Z"/><path class="cls-1" d="M91.57,96.24a4.67,4.67,0,0,1,3.28-4.46,2,2,0,0,0,1.39-1.88h0A2,2,0,0,0,93.72,88a8.62,8.62,0,0,0,0,16.49,2,2,0,0,0,2.52-1.9h0a2,2,0,0,0-1.39-1.88A4.67,4.67,0,0,1,91.57,96.24Z"/><path class="cls-1" d="M96.24,92.58V99.9a.9.9,0,0,0,1.11.88,4.67,4.67,0,0,0,0-9.07A.9.9,0,0,0,96.24,92.58Z"/><path class="cls-1" d="M96.24,31.77a64.27,64.27,0,1,1-25.1,5.07,64.07,64.07,0,0,1,25.1-5.07m0-1.6a66.07,66.07,0,1,0,66.07,66.07A66.07,66.07,0,0,0,96.24,30.17Z"/><path class="cls-1" d="M96.24,1.6a94.67,94.67,0,0,1,36.84,181.85A94.67,94.67,0,0,1,59.4,9,94,94,0,0,1,96.24,1.6m0-1.6a96.24,96.24,0,1,0,96.24,96.24A96.24,96.24,0,0,0,96.24,0Z"/><path class="cls-1" d="M96,10.44a6.08,6.08,0,1,1-6.08,6.08A6.09,6.09,0,0,1,96,10.44m0-1.6a7.68,7.68,0,1,0,7.68,7.68A7.68,7.68,0,0,0,96,8.84Z"/></g></g></svg>