<svg xmlns="http://www.w3.org/2000/svg" viewBox="0 0 1084.09 519.97"><defs><style>.cls-1{fill:#ff7461;}.cls-2{fill:#fff;}</style></defs><title>rides_logo_1</title><g id="Layer_2" data-name="Layer 2"><g id="Layer_1-2" data-name="Layer 1"><rect class="cls-1" width="1084.09" height="519.97"/><path class="cls-2" d="M298.28,246.16a68.92,68.92,0,0,0-97.46,0h0a68.92,68.92,0,0,0,0,97.46h0a68.92,68.92,0,0,0,97.46,0L347,294.89ZM253,321.46a26.8,26.8,0,1,1,23.09-23.09A26.81,26.81,0,0,1,253,321.46Z"/><circle class="cls-2" cx="182.74" cy="218.19" r="22.35"/><circle class="cls-2" cx="238.72" cy="182.38" r="29.27"/><circle class="cls-2" cx="320.62" cy="204.02" r="36.19"/><path class="cls-2" d="M479.34,273.82A53.05,53.05,0,0,0,467,272.54c-15.68,0-29.81,9.25-29.81,34.7V363H398.13V235.27h37.78v17.22c6.68-14.39,22.87-18.5,33.15-18.5a38.58,38.58,0,0,1,10.28,1.29Z"/><path class="cls-2" d="M509.41,173.34a22.87,22.87,0,1,1-22.62,22.87A23,23,0,0,1,509.41,173.34ZM490.13,363V235.27H529.2V363Z"/><path class="cls-2" d="M676.2,340.13c0,11.56.77,20,1,22.87H639.71a87.91,87.91,0,0,1-1-12.34c-5.91,8.74-18.76,15.16-34.18,15.16-36,0-63.22-27.76-63.22-67.08,0-38,25.7-66.56,61.94-66.56,21.85,0,31.35,8.22,34.44,13.11V176.93H676.2Zm-66.82-9.25c15.16,0,28.78-10.79,28.78-31.87,0-21.33-13.62-31.61-28.78-31.61S580.6,277.68,580.6,299C580.6,320.09,594.22,330.88,609.38,330.88Z"/><path class="cls-2" d="M814.72,326.25c-6.17,22.1-26.47,40.61-58.85,40.61-35.21,0-66.56-25.19-66.56-68.11,0-41.12,30.58-67.33,63.74-67.33,39.58,0,64,24.42,64,65.54a81.49,81.49,0,0,1-.77,12.08H727.34c.77,14.39,13.88,24.67,29,24.67,14.14,0,22.1-6.68,25.7-16.71Zm-35.47-42.41c-.51-9.77-7.2-21.59-25.7-21.59-16.45,0-24.67,12.08-25.44,21.59Z"/><path class="cls-2" d="M852,320.86c.51,8.74,6.68,17.22,20,17.22,10,0,14.91-5.4,14.91-11.05,0-4.63-3.08-8.48-12.59-10.54l-14.65-3.34c-27.24-5.91-38-21.33-38-39.32,0-23.39,20.56-42.41,49.09-42.41,37,0,49.86,23.13,51.14,38l-32.38,5.91c-1-8.48-6.42-15.68-18.25-15.68-7.45,0-13.88,4.37-13.88,11.05,0,5.4,4.37,8.48,10,9.51l17,3.34c26.47,5.4,39.32,21.33,39.32,40.09,0,21.84-16.71,43.18-50.89,43.18-40.09,0-52.94-26-54-40.09Z"/></g></g></svg>