<?xml version="1.0" encoding="utf-8"?>
<!-- Generator: Adobe Illustrator 21.1.0, SVG Export Plug-In . SVG Version: 6.00 Build 0)  -->
<svg version="1.1" id="Layer_1" xmlns="http://www.w3.org/2000/svg" xmlns:xlink="http://www.w3.org/1999/xlink" x="0px" y="0px"
	 viewBox="0 0 1200 675" style="enable-background:new 0 0 1200 675;" xml:space="preserve">
<style type="text/css">
	.st0{fill:#FF7461;}
	.st1{fill:#FFFFFF;}
</style>
<rect class="st0" width="1200" height="675"/>
<title>rides_logo_1</title>
<g>
	<g>
		<path class="st1" d="M318.6,325.2c-29.9-29.9-78.5-29.9-108.4,0l0,0c-29.9,29.9-29.9,78.5,0,108.4l0,0
			c29.9,29.9,78.5,29.9,108.4,0l54.2-54.2L318.6,325.2z M268.2,409c-16.3,2.1-31.3-9.4-33.4-25.7s9.4-31.3,25.7-33.4
			c16.3-2.1,31.3,9.4,33.4,25.7c0.3,2.6,0.3,5.2,0,7.8C292.1,396.7,281.6,407.2,268.2,409z"/>
		<circle class="st1" cx="190.7" cy="294.4" r="25.1"/>
		<circle class="st1" cx="253.8" cy="256" r="32.4"/>
		<circle class="st1" cx="343.9" cy="279" r="40.1"/>
	</g>
	<path class="st1" d="M526.4,355.7c-4.6-1-9.2-1.5-13.9-1.4c-17.7,0-33.6,10.4-33.6,39.1v62.9h-44v-144h42.6v19.4
		c7.5-16.2,25.8-20.9,37.4-20.9c3.9,0,7.8,0.5,11.6,1.5V355.7z"/>
	<path class="st1" d="M559.3,242.4c14.2-0.2,25.9,11.3,26.1,25.5s-11.3,25.9-25.5,26.1c-14.2,0.2-25.9-11.3-26.1-25.5
		c0-0.1,0-0.2,0-0.3C533.9,254,545.2,242.6,559.3,242.4z M537.6,456.2v-144h44.1v144H537.6z"/>
	<path class="st1" d="M745.4,430.4c0,13,0.9,22.6,1.1,25.8h-42.3c-0.7-4.6-1.1-9.3-1.1-13.9c-6.7,9.9-21.2,17.1-38.5,17.1
		c-40.6,0-71.3-31.3-71.3-75.6c0-42.8,29-75.1,69.8-75.1c24.6,0,35.3,9.3,38.8,14.8v-77.1h43.4V430.4z M670.1,420
		c17.1,0,32.5-12.2,32.5-35.9c0-24.1-15.4-35.6-32.5-35.6s-32.5,11.6-32.5,35.6C637.6,407.8,653,420,670.1,420z"/>
	<path class="st1" d="M898.6,414.8c-7,24.9-29.8,45.8-66.4,45.8c-39.7,0-75.1-28.4-75.1-76.8c0-46.4,34.5-75.9,71.9-75.9
		c44.6,0,72.2,27.5,72.2,73.9c0,4.6-0.2,9.1-0.9,13.6H800.1c0.9,16.2,15.7,27.8,32.7,27.8c15.9,0,24.9-7.5,29-18.8L898.6,414.8z
		 M858.6,367c-0.6-11-8.1-24.3-29-24.3c-18.5,0-27.8,13.6-28.7,24.3H858.6z"/>
	<path class="st1" d="M946.1,408.7c0.6,9.9,7.5,19.4,22.6,19.4c11.3,0,16.8-6.1,16.8-12.5c0-5.2-3.5-9.6-14.2-11.9l-16.5-3.8
		c-30.7-6.7-42.8-24.1-42.8-44.3c0-26.4,23.2-47.8,55.4-47.8c41.7,0,56.2,26.1,57.7,42.8l-36.5,6.7c-1.1-9.6-7.2-17.7-20.6-17.7
		c-8.4,0-15.7,4.9-15.7,12.5c0,6.1,4.9,9.6,11.3,10.7l19.2,3.8c29.8,6.1,44.3,24.1,44.3,45.2c0,24.6-18.8,48.7-57.4,48.7
		c-45.2,0-59.7-29.3-60.9-45.2L946.1,408.7z"/>
</g>
</svg>
