<svg xmlns="http://www.w3.org/2000/svg" viewBox="0 0 395.33 206.22"><defs><style>.cls-1{fill:none;}</style></defs><title>shuffle_logo_1</title><g id="Layer_2" data-name="Layer 2"><g id="Layer_1-2" data-name="Layer 1"><path d="M109,103.61a68.25,68.25,0,0,0-9.08-1.78c-6-.9-11.69-1.75-13.61-5.08a10.61,10.61,0,0,1-.7-8.94,12.17,12.17,0,0,1,7.78-7.07c4.56-1.57,11.46-2.16,17.12.84a14.25,14.25,0,0,1,7.24,9.27l1-.26A15.21,15.21,0,0,0,111,80.71c-5.95-3.16-13.15-2.54-17.92-.91a13.14,13.14,0,0,0-8.39,7.66,11.62,11.62,0,0,0,.77,9.79c2.16,3.75,8.07,4.63,14.33,5.57a67.65,67.65,0,0,1,8.94,1.75c9.57,2.84,9.57,7.23,9.57,11.1,0,5.66-2.14,11.44-18,11.44-15,0-16.74-9.93-16.81-10.35l-1,.15a12.12,12.12,0,0,0,2.89,5.64c2.23,2.54,6.62,5.56,14.9,5.56,13.16,0,19-3.84,19-12.44C119.33,111.87,119.33,106.66,109,103.61Z"/><path d="M146.26,79.16c-6.7,0-12,2.27-15.65,6.75a23.57,23.57,0,0,0-4.34,9.49v-37h-1v69.16h1V103.28c0-.11.06-10.6,5.11-16.74,3.49-4.24,8.49-6.39,14.9-6.39.12,0,11.86-.36,15.52,9.28a26.25,26.25,0,0,1,.91,7.15v31h1v-31a27.1,27.1,0,0,0-1-7.5C158.83,78.77,146.37,79.16,146.26,79.16Z"/><path d="M207.26,108.75a18,18,0,0,1-5.56,12.92c-2.79,2.67-7.84,5.78-16.07,5.44-13.94-.58-14-13.43-14-14V80.27h-1v32.85c0,.14,0,14.36,15,15l1.28,0c7.83,0,12.74-3.08,15.52-5.75a19.13,19.13,0,0,0,4.86-7.69v12.91h1V80.27h-1Z"/><path d="M306.46,84.42c-3.35-3.52-7.88-5.3-13.48-5.3-13.58,0-21.06,8.86-21.06,25h0c0,.47-.33,11.62,6.43,18.64,3.47,3.6,8.19,5.42,14,5.42h.15c1.58,0,14.95-.32,19.77-10.86l-.91-.42c-4.83,10.55-18.83,10.29-19,10.28-5.55,0-10-1.72-13.3-5.12-5.7-5.91-6.14-15.22-6.16-17.43h39.88l0-.47C312.84,103.61,313.35,91.67,306.46,84.42Zm-33.54,19.17c.1-9,2.92-23.48,20.06-23.48,5.31,0,9.6,1.68,12.75,5,5.85,6.15,6.12,16.2,6.1,18.49Z"/><path d="M243.67,100.48v28.39h1V81.58h20.1v47.29h1V61.69H256A12.33,12.33,0,0,0,243.67,74v6.58h-8.79A12.33,12.33,0,0,0,222.56,92.9v6.58h-7.68v1h7.68v47.29h1V100.48Zm-20.1-1V92.9a11.33,11.33,0,0,1,11.31-11.31h8.79v17.9Zm41.2-18.9h-20.1V74A11.33,11.33,0,0,1,256,62.69h8.79Z"/><rect class="cls-1" width="395.33" height="206.22"/></g></g></svg>