<svg xmlns="http://www.w3.org/2000/svg" viewBox="0 0 1200 675"><defs><style>.cls-1{fill:#fff;}.cls-2{stroke:#000;stroke-miterlimit:10;stroke-width:0.75px;}</style></defs><title>tgo_hero</title><g id="Layer_2" data-name="Layer 2"><g id="Layer_2-2" data-name="Layer 2"><rect class="cls-1" width="1200" height="675"/><path class="cls-2" d="M567.44,181.47v72c0,9.3-3.41,15.59-13.36,15.59v1.7h39v-1.7c-11.53,0-18.6-2.49-18.6-15.46V218.28h60.91v35.37c0,13-7.07,15.46-18.6,15.46v1.7h39.42l-.13-1.83c-10.74,0-13.75-3.54-13.75-11.92V185c0-9.3,3.4-15.59,13.36-15.59v-1.7h-38.9v1.7c11.53,0,18.6,2.49,18.6,15.46V213.3H574.51V184c.26-12.18,7.33-14.54,18.6-14.54v-1.7H553.56l.13,1.83C564.43,169.56,567.44,173.09,567.44,181.47Z"/><path class="cls-2" d="M738.5,252.47l-.92-.39c-2.36,4.45-6.16,9.69-16.24,12.71-8,2.36-20.83,3.54-43,3.54l-.26-46.24h32.22c11.53,0,11.13,11.27,11.13,16.77h1.83l-.52-39.69h-1.83c0,8.64-.13,17.68-10.61,17.68H678.12V172.17s28.95.13,38.64.13c14,0,14.93,12,14.93,24.89h1.7L733,167.72H660.7v1.7c7.47,0,10.35,6.16,10.35,13.75L670.91,258c0,6.42-3.67,11.13-10.22,11.13v1.7s37.07.52,55.4.52C736.27,271.33,738.24,254.43,738.5,252.47Z"/><path class="cls-2" d="M414,309.58v76.49c0,8.25-2.36,12.18-13,12.18v1.57H440.5v-2.1l-18.6-2.1V352l16.24-.13c2.36,6.55,21,48.46,58.55,63.79l.39-1.18a106.59,106.59,0,0,1-18.27-15H590v.28h39.43v-2.1l-18.6-2.1V352l12.71-.13c29.73,0,35.89-15.46,35.89-29.34,0-21.74-18.73-25.8-39.16-25.8H590v1.57c10.61,0,13,5.24,13,11.26v76.49c0,6.5-1.46,10.31-7.26,11.64l-16.2-28.07c1-.62,2-1.2,2.8-1.72,3,1.41,5.19.4,6.22-1a5.18,5.18,0,0,0-.83-6.69,6.77,6.77,0,0,1-1.27-3,1.55,1.55,0,0,0,0-.94l-.2.07a14.86,14.86,0,0,0-.66-2.35c-2.15-5-4.58-8.79-7.44-11.48a29.08,29.08,0,0,0-12.54-6.69h0l-.22-.06c-2-.55-4-1-6.26-1.39l-22.2-38.46-24,41.54q-2.2.84-4.35,1.8h0l-.18.08h0a70.5,70.5,0,0,0-27.46,21.9l-.26.34.32.28a85.83,85.83,0,0,0,12.62,9.08l-15.87,27.48c-18.5-19.22-28.64-41.94-30.64-47.55,19.12-3.8,23.45-16.63,23.45-28.29,0-21.74-18.73-25.8-39.16-25.8H401.08v1.57C411.69,298.31,414,303.55,414,309.58Zm195.74-8.78h9.82c17.94,0,29.86,5.5,29.86,22.66,0,21.09-12.84,25.67-27.51,25.67H609.78Zm-23.77,60a4.34,4.34,0,0,1,.73,5.52c-1.07,1.49-3,1.74-5.2.69-.29-.57-1.35-3,0-4.7.4-.51.84-1,1.27-1.51a26,26,0,0,0,1.93-2.43A5.64,5.64,0,0,0,586,360.84ZM508.11,340l.71-.31.82-.35.81-.33.83-.34.82-.31.48-.18c.65-.24,1.3-.48,2-.7l.06,0c.67-.23,1.35-.45,2-.66l.55-.17,1.56-.46L519,336l.33-.09,1.32-.34A19.48,19.48,0,1,0,556,346.9a19.36,19.36,0,0,0-4.73-12.72l2,.29c1.57.24,3,.48,4.49.74l1,.17h0l.29.05.65.13.66.13.6.13.67.15.57.13.67.16.55.14.55.14A29.24,29.24,0,1,1,508.11,340Zm5.11-3,22.65-39.23,21,36.45-.52-.09-3.06-.48c-.95-.14-2-.3-3.19-.45a80.75,80.75,0,0,0-19-.31,75.23,75.23,0,0,0-7.75,1.22l-.12,0-1.6.36-.15,0h0l-.11,0-.27.06-.08,0-1.65.42-.15,0-.54.15-1.36.39-.61.19-1.28.4-.63.21-1.27.44Zm-17,9.75a71.06,71.06,0,0,1,10.88-6.25,30.14,30.14,0,1,0,57.86-3.57,27.79,27.79,0,0,1,11.53,6.28c2.76,2.6,5.13,6.25,7.22,11.17a14.57,14.57,0,0,1,.62,2.25l.13.59a15.33,15.33,0,0,1-2.29,3.11c-.43.51-.88,1-1.29,1.53a4.17,4.17,0,0,0-.89,2.78c-1.36.68-8.06,4-12.2,6-4.61,2.2-17.36,5.92-22.49,7.14-8.71,2.07-23.62.37-23.75.35a84.46,84.46,0,0,1-24.67-9c-10.51-5.79-13.65-9.9-13.68-9.94l-.73.54c.13.17,3.26,4.29,14,10.19a85.38,85.38,0,0,0,25,9.15,123.1,123.1,0,0,0,12.46.68,53.3,53.3,0,0,0,11.61-1c5.3-1.26,17.93-4.95,22.67-7.21,3.9-1.86,10.05-4.92,11.92-5.85a7.55,7.55,0,0,0,.55,1.71c-1,.66-2.24,1.4-3.62,2.19l-.21.12-1.15.64,0,0c-1.69.93-3.59,1.9-5.69,2.87l-.15.07-1.42.64-.24.11-1.4.6-.29.12-1.45.59-.28.11-1.58.6-.2.08c-1.85.68-3.8,1.32-5.83,1.92l-.1,0-1.88.52-.47.12L553,379l-.63.15-1.47.33-.73.15-1.43.28L548,380l-1.45.24-.79.13-1.54.21-.75.1-1.81.2-.51.05q-1.17.11-2.36.19l-.62,0-1.77.08-1,0-1.48,0h-1.06l-1.42,0-1.12,0-1.41-.07-1.15-.08L526.4,381l-1.15-.11-1.5-.18-1.1-.14-1.69-.26-.95-.15c-.88-.15-1.77-.32-2.66-.51s-2.08-.46-3.11-.72l-.69-.19c-.78-.2-1.56-.41-2.33-.64L510,377.7c-.59-.18-1.17-.36-1.75-.56l-1.41-.5-1.45-.53-1.51-.6-1.26-.52-1.56-.69-1.13-.51-1.59-.77-1-.51-1.62-.84-.77-.43a85,85,0,0,1-14.13-9.81A71.25,71.25,0,0,1,496.2,346.68Zm-2.87,24.69,1.11.61.85.47,1.69.89.9.45c.58.29,1.15.57,1.73.84l.93.42c.59.27,1.19.54,1.78.79l1,.39c.61.25,1.22.5,1.84.74l1,.34q2,.74,4.09,1.38l.78.25c.54.16,1.08.3,1.62.44s1,.27,1.46.4q1.56.39,3.13.73c.79.17,1.57.32,2.35.46l.74.12,1.59.26.87.12,1.45.19.89.1,1.42.14.86.08,1.52.1.73,0,2.14.08H535l1.06,0,1.15,0,1,0,1.19-.08.91-.07,1.22-.11.82-.08,1.26-.14.71-.09,1.33-.18.54-.08,1.46-.23.17,0a87.5,87.5,0,0,0,8.75-2l.07,0,1.57-.46.13,0,1.51-.48.13,0,1.5-.5.07,0a94.07,94.07,0,0,0,12.24-5.22h0l1.08-.56.08,0,1-.53L576,371l.9-.5.15-.09.58-.33,16,27.79a28.33,28.33,0,0,1-4.77.35v.39H477.59ZM420.9,300.8h9.82c17.94,0,29.86,5.5,29.86,22.66,0,21.09-12.84,25.67-27.51,25.67H420.9Z"/><path class="cls-2" d="M761.07,298.44v-1.7h-38.9v1.7c11.53,0,18.6,2.49,18.6,15.46v28.42H679.86V313c.26-12.18,7.33-14.54,18.6-14.54v-1.7H658.9l.13,1.83c10.74,0,13.75,3.54,13.75,11.92v72c0,9.3-3.41,15.59-13.36,15.59v1.7h39v-1.7c-11.53,0-18.6-2.49-18.6-15.46V347.3h60.91v35.37c0,13-7.07,15.46-18.6,15.46v1.7h39.43l-.13-1.83c-10.74,0-13.75-3.54-13.75-11.92V314C747.71,304.73,751.12,298.44,761.07,298.44Z"/><path class="cls-2" d="M527,474.93c19.12-3.8,23.45-16.63,23.45-28.29,0-21.74-18.73-25.8-39.16-25.8H481v1.57c10.61,0,13,5.24,13,11.26v76.49c0,8.25-2.36,12.18-13,12.18v1.57h39.43v-2.1l-18.6-2.1V476.11l16.24-.13c2.36,6.55,21,48.46,58.55,63.79l.39-1.18C546.08,518.81,529.58,482.27,527,474.93Zm-13-1.7H501.81V424.9h9.82c17.94,0,29.86,5.5,29.86,22.66C541.5,468.65,528.66,473.23,514,473.23Z"/><path class="cls-2" d="M593.6,421l-31.83-.13v1.57c10.61,0,13,5.24,13,11.26v76.49c0,8.25-2.36,12.18-13,12.18v1.57h43.09c28,0,57-13.75,57-52.65S635.12,421,593.6,421Zm11.53,99.54H582.46l.13-95.48h17.29c26.72,0,53,8.12,53,46.76C652.93,508.86,627.26,520.51,605.12,520.51Z"/><path class="cls-2" d="M800.23,474.93c19.12-3.8,23.44-16.63,23.44-28.29,0-21.74-18.73-25.8-39.16-25.8H754.25v1.57c10.61,0,13,5.24,13,11.26v76.49c0,8.25-2.36,12.18-13,12.18v1.57h39.43v-2.1l-18.6-2.1V476.11l16.24-.13c2.36,6.55,21,48.46,58.55,63.79l.39-1.18C819.35,518.81,802.85,482.27,800.23,474.93Zm-13-1.7H775.08V424.9h9.82c17.94,0,29.86,5.5,29.86,22.66C814.77,468.65,801.93,473.23,787.26,473.23Z"/><path class="cls-2" d="M398.9,389.31c-4.78-4-4.07-7.21-4.07-11.5V333.53c0-5.06,1.59-7.36,4.25-9.51h-17c2.12,1.38,4.42,4,4.42,9.81V378c0,3.68-.35,6.9-3,10-3.54,4.14-12.57,10.73-29.56,10.73-26.91,0-56.29-21.77-56.29-54,0-18.86,14-46,54.52-46,13.28,0,27.79,4.45,36.29,13.19l2.12-1.84c-3.72-3.37-7.79-8.43-9.38-13.34a9,9,0,0,1-5.31,1.69c-5.84,0-10.09-2.91-25.85-2.91-30.8,0-60.89,20.08-60.89,51.82,0,25.91,18.23,54.28,64.61,54.28,16.64,0,28.68-6.29,36.11-12.27Z"/><path class="cls-2" d="M309.14,347.59c0,21.31,17.07,32.81,34.73,32.81,23.58,0,35.22-19.72,35.22-35.68,0-21.31-17-32.71-35.22-32.71C320.78,312,309.14,331.64,309.14,347.59Zm5.59-3.69a28.8,28.8,0,0,1,11.78-23.48l32.29,53.29a31.38,31.38,0,0,1-14.92,3.51C328.39,377.22,314.72,362.72,314.72,343.9Zm58.78,4.61a28.37,28.37,0,0,1-14.27,25l.35-.21-32.32-53.35-.25.15a29.6,29.6,0,0,1,16.87-4.88C359.83,315.19,373.5,329.69,373.5,348.51Z"/><path class="cls-2" d="M769.47,383.44c.28,1.22,1.72,7.6,1.93,9.75l0,.24.22.11s4.65,2.42,6.62,4.85a9.7,9.7,0,0,0,6.78,3h.56a9.8,9.8,0,0,0,7.09-3c4.4-4.4,6.17-3.36,6.17-3.35l.67.5.05-.83c0-.47.67-11.17.39-13.63,1.06-.91,1.7-2.91,2.49-5.41a42.49,42.49,0,0,1,3.1-7.83c3-5.47,2.14-8.63,2-9.1-.09-.67-1.18-8.53-.92-11.58.28-3.32,0-5.35-1.17-7.49-1-2-2-9.07-2-9.15l0-.08c0-.09-.69-2.13-2.16-2.34-1-.14-2,.61-3.11,2.23a7.22,7.22,0,0,0-.67,1.29,27.72,27.72,0,0,0-1-4.59c.14-1.46,1-10.52-.06-13,1.26-2,1.26-6.32,1.26-11.26,0-2.14-.49-3.5-1.46-4a3.09,3.09,0,0,0-3,.39,6.62,6.62,0,0,0-1.61,2.71,11.6,11.6,0,0,0-.92-2.85c-.17-.39-.34-.78-.49-1.2a2.24,2.24,0,0,0-2.05-1.65h0c-1.34,0-2.64,1.28-3.42,3.34a45.65,45.65,0,0,1-3.17,6.12,25.77,25.77,0,0,0-2.11,4.05c-.58,1.95-.3,6.36,0,8.29.22,1.47-.61,8.93-1.16,13.36a6.11,6.11,0,0,0-3.29-.6c-1.34,0-3.48,1.5-4.25,2.08-1.9-1.14-4.08.49-5.6,1.63l-.33.24c-1.91,1.42-2.1,6.53-2.11,7.12v28a24.46,24.46,0,0,0,2.7,9.85A8.7,8.7,0,0,0,769.47,383.44ZM793.7,300c.3-.19,1.33-.76,2.05-.37s1,1.48,1,3.24c0,5,0,9.27-1.24,11a3.15,3.15,0,0,1-2.94,1.27l-.16.89a3.21,3.21,0,0,0,.52,0,4.05,4.05,0,0,0,2.77-1.08c.53,2.18.22,8.21-.17,12.14v.09l0,.09a21.9,21.9,0,0,1,1.19,7.43h0a19.05,19.05,0,0,0,0,3.41,28.41,28.41,0,0,0-6.59-.18A46.23,46.23,0,0,0,788.61,326a79.3,79.3,0,0,0-.36-12.53,26.28,26.28,0,0,0,3.24-7.87c.07-.38.12-.73.16-1.07C792.17,302.84,793.14,300.33,793.7,300Zm-13.38,17.9c-.32-2.18-.51-6.25,0-7.89a26.35,26.35,0,0,1,2-3.86,46.18,46.18,0,0,0,3.23-6.26c.76-2,1.86-2.75,2.57-2.75h0c.53,0,1,.38,1.21,1.06.16.44.33.85.51,1.25a8.83,8.83,0,0,1,.74,6,26.12,26.12,0,0,1-3.2,7.69l-.08.13,0,.16c0,.08.83,8.1.36,12.58v.09l0,.09A45,45,0,0,1,789.33,338c-1.74.11-3.16.25-3.52.29l.09.9c3.73-.38,9.67-.7,11-.08a31.28,31.28,0,0,0,1.12,5.14,19,19,0,0,0-1.72,6.37c-2,.14-2.71.59-5.62,2.36l-1.31.8a2.26,2.26,0,0,0-.28-1.67,24.18,24.18,0,0,1-1.58-4.69l7.32-3.6-.4-.81-7.15,3.51c-.14-.58-.24-1.1-.3-1.48a5.11,5.11,0,0,0-2.13-3.46l-.07-.06c-.61-.54-3-4.56-4.36-7-.62-1.05-1.11-1.91-1.38-2.33C779.27,330.71,780.62,319.87,780.33,317.88Zm-2.09,14.69c.21.32.78,1.3,1.44,2.43,2.09,3.59,3.88,6.61,4.55,7.19l.07.07a4.26,4.26,0,0,1,1.83,2.91c.24,1.73,1.6,6.54,2.25,7.46a1.75,1.75,0,0,1,0,1.41,2.39,2.39,0,0,1-.27.54,8.72,8.72,0,0,0-.71.58c-1,.29-3.63,1-5.65-3.09a45.32,45.32,0,0,1-1.25-4.86,5.63,5.63,0,0,1,1.41-2.49l-.13-.89c-.65.09-1.24,1-1.65,1.91a5.23,5.23,0,0,0-.95-1.75c-.35-.49-5.62-7.93-7.48-10.26-.08-.1-.17-.19-.26-.28.94-.68,2.62-1.76,3.52-1.76C776.36,331.68,777.65,331.68,778.24,332.57Zm-14.63,9.3c0-1.45.43-5.43,1.75-6.41l.33-.25c2.14-1.61,3.9-2.71,5.33-.92,1.9,2.38,7.41,10.16,7.47,10.24l0,.06a5.39,5.39,0,0,1,1.08,2.66c.33,1.89,1.54,6.44,2.25,7.43a2.51,2.51,0,0,1,.48,1.8.6.6,0,0,1-.32.43,4.4,4.4,0,0,1-5-1.22c-1.85-2.08-2.26-6.53-1.47-9.23l-.87-.25a11.84,11.84,0,0,0-.42,3.31L772,348.22c-2.81-1.55-4.72-8.35-4.73-8.42l-.87.24c.08.29,2,7.23,5.17,9l2.8,1.55a10,10,0,0,0,2,5.72,5.34,5.34,0,0,0,6.1,1.42,1.5,1.5,0,0,0,.78-1,2.76,2.76,0,0,0-.08-1.41,4.62,4.62,0,0,0,2.88,1l.37,0c-3,3.73-4,9.5-4,9.8l.89.14c0-.08,1.1-6.87,4.64-10.26a2.11,2.11,0,0,0,.91-.75l.4-.26,2-1.18c2.73-1.67,3.43-2.09,5.07-2.22a32.81,32.81,0,0,0,.51,8.3l.88-.19c0-.09-1.86-9,1.29-15.16l.09-.17-.06-.18c0-.09-2.92-8.9-.05-13.25.83-1.26,1.62-1.91,2.23-1.83s1.26,1.21,1.41,1.68c.09.65,1,7.37,2.1,9.41s1.34,3.83,1.07,7,.88,11.48.93,11.83l0,.1s1.07,3-1.91,8.39a43.14,43.14,0,0,0-3.17,8c-.76,2.41-1.42,4.49-2.36,5.12-.4.27-.81.57-1.24.88-1.68,1.24-3.58,2.65-5.52,2.12l-.24.87a4.24,4.24,0,0,0,1.12.15c1.91,0,3.63-1.27,5.17-2.41l.57-.42c.11,2.42-.22,9.09-.4,12.35-1-.17-3.12.15-6.67,3.7a9.36,9.36,0,0,1-13.09,0c-1.86-2.3-5.72-4.45-6.69-5-.26-2.12-1.32-7-1.77-8.95a19.74,19.74,0,0,0,5.16,1.37,6.05,6.05,0,0,0,.67,0,7.22,7.22,0,0,0,5.16-2.49l-.7-.57a6.25,6.25,0,0,1-5,2.13c-3-.34-8.05-2-9.54-5.06a23.9,23.9,0,0,1-2.61-9.46Z"/><path class="cls-2" d="M777,354.19l-.46-.78a18.8,18.8,0,0,0-4.1,3.59l.69.58A18.23,18.23,0,0,1,777,354.19Z"/><path class="cls-2" d="M781.49,360.08l-.55-.72c-4.24,3.27-8.39,9.86-8.56,10.14l.77.48C773.19,369.91,777.38,363.25,781.49,360.08Z"/><path class="cls-2" d="M457.68,420.39a17.66,17.66,0,0,0-12.46,5.13,51.74,51.74,0,0,0-44.07.09,17.71,17.71,0,1,0-24.94,25.15,51.71,51.71,0,0,0,.09,43.69,17.71,17.71,0,1,0,25,25,51.71,51.71,0,0,0,43.69.09,17.71,17.71,0,1,0,25.15-24.94,51.74,51.74,0,0,0,.09-44.07,17.71,17.71,0,0,0-12.59-30.18Zm6.81,20.66a52.29,52.29,0,0,0-9.75-9.75,7.56,7.56,0,0,1,9.75,9.75Zm.49,65.57a7.56,7.56,0,0,1-10.25,7.08,52.29,52.29,0,0,0,9.75-9.75A7.52,7.52,0,0,1,465,506.62ZM441.92,513a16.73,16.73,0,0,1-1.06-5.87v-.1h8.08a8.43,8.43,0,0,0,.27,1.73A44.65,44.65,0,0,1,441.92,513Zm-44.57-4.25a8.43,8.43,0,0,0,.27-1.73h7.8v.1a16.74,16.74,0,0,1-1,5.76A44.67,44.67,0,0,1,397.35,508.8ZM382.08,504a52.29,52.29,0,0,0,9.75,9.75,7.56,7.56,0,0,1-9.75-9.75Zm-.49-65.57a7.56,7.56,0,0,1,10.25-7.08,52.29,52.29,0,0,0-9.75,9.75A7.53,7.53,0,0,1,381.59,438.38Zm22.73-6.28a16.72,16.72,0,0,1,1.11,5.82h-7.8a8.43,8.43,0,0,0-.27-1.73A44.64,44.64,0,0,1,404.31,432.11Zm18.52,6.73v16.09h-16.5V438.83Zm.9-11a44.36,44.36,0,0,1,17.46,3.75,17.61,17.61,0,0,0-1.23,6.31H423.74Zm25.21,11A8.43,8.43,0,0,0,451.1,444l-10.24,10.24V438.83Zm6.2,64.89L452.38,501a7.54,7.54,0,0,1,4.57-1.89v2.7C456.37,502.43,455.77,503.09,455.15,503.72Zm-.64.64q-1,.93-2,1.81h-2.7a7.54,7.54,0,0,1,1.9-4.57Zm-3,2.71c-.49.4-1,.79-1.48,1.17a7.61,7.61,0,0,1-.16-1.17Zm6.37-8a7.57,7.57,0,0,1,1.17.15c-.38.5-.77,1-1.17,1.48Zm-.9-.9a8.43,8.43,0,0,0-5.21,2.16l-10-10H457ZM423.74,465a7.53,7.53,0,0,1,4.57,1.83l-4.57,4.57Zm-.9,6.4-4.5-4.5a7.54,7.54,0,0,1,4.5-1.89Zm-.64.64H415.8a7.53,7.53,0,0,1,1.89-4.5Zm0,.9-4.57,4.57a7.54,7.54,0,0,1-1.83-4.57Zm.64.64v6.53a7.54,7.54,0,0,1-4.57-2Zm.9,0,4.64,4.64a7.54,7.54,0,0,1-4.64,1.9Zm.64-.64h6.54a7.54,7.54,0,0,1-1.9,4.64Zm0-.9,4.57-4.57a7.54,7.54,0,0,1,2,4.57Zm4.57-5.84a8.43,8.43,0,0,0-5.2-2.1v-8.28h15.59Zm-6.11-2.09a8.44,8.44,0,0,0-5.14,2.16l-10.45-10.45h15.59Zm-5.78,2.79a8.43,8.43,0,0,0-2.16,5.14h-8.57V456.18Zm-2.16,6a8.43,8.43,0,0,0,2.1,5.21l-10.66,10.66V473Zm2.73,5.85a8.44,8.44,0,0,0,5.21,2.22v8.43H407Zm6.12,2.23a8.43,8.43,0,0,0,5.28-2.16l10.59,10.59H423.74Zm5.92-2.8a8.44,8.44,0,0,0,2.16-5.28H440v15.59Zm2.16-6.18a8.43,8.43,0,0,0-2.22-5.21L440,456.46v15.59Zm19.93-27.37a8.43,8.43,0,0,0,5.21,2.16v8.08H441.5Zm3.4-3.4q.93,1,1.81,2v2.7a7.54,7.54,0,0,1-4.57-1.9Zm2.71,3c.4.49.79,1,1.17,1.48a7.57,7.57,0,0,1-1.17.15Zm-5.31-5.47q1,.88,2,1.81l-2.76,2.76a7.54,7.54,0,0,1-1.9-4.57Zm-2.7-.9a7.6,7.6,0,0,1,.16-1.17c.5.38,1,.77,1.48,1.17Zm-9.89.9v16.09H423.74V438.83ZM405.42,454l-10-10a8.44,8.44,0,0,0,2.16-5.21h7.8Zm-16.71-8.07a7.57,7.57,0,0,1-1.17-.15c.38-.5.77-1,1.17-1.48Zm.9-2.7q.88-1,1.81-2l2.76,2.76a7.53,7.53,0,0,1-4.57,1.9Zm2.45-2.6q1-.93,2-1.81h2.7a7.54,7.54,0,0,1-1.89,4.57Zm3-2.71c.49-.4,1-.79,1.48-1.17a7.53,7.53,0,0,1,.16,1.17Zm-8.1,8.64a8.43,8.43,0,0,0,1.73.27v8.08h-.1a16.73,16.73,0,0,1-5.87-1.06A44.62,44.62,0,0,1,387,446.57Zm2.63.27a8.43,8.43,0,0,0,5.21-2.16l10.24,10.24H389.62Zm15.81,9v16.22H389.62V455.83Zm0,17.13v16.5H389.62V473Zm-.64,17.41-10,10a8.43,8.43,0,0,0-5.21-2.16v-7.8Zm-13.36,13.36c-.62-.63-1.22-1.29-1.81-2v-2.7a7.54,7.54,0,0,1,4.57,1.89Zm-2.71-3c-.4-.49-.79-1-1.17-1.48a7.56,7.56,0,0,1,1.17-.15Zm5.31,5.47q-1-.88-2-1.81l2.76-2.76a7.54,7.54,0,0,1,1.89,4.57Zm2.7.9a7.52,7.52,0,0,1-.16,1.17c-.5-.38-1-.77-1.48-1.17Zm-8-8.91a8.43,8.43,0,0,0-1.73.27,44.66,44.66,0,0,1-4.14-7.06,16.74,16.74,0,0,1,5.76-1h.1Zm8.91,8a8.44,8.44,0,0,0-2.16-5.21l10-10v15.17Zm8.71-15.81h16.5v15.81h-16.5Zm17.41,0H440v15.81H423.74Zm17.13.36L451.1,501a8.43,8.43,0,0,0-2.16,5.21h-8.08Zm18.72,7.72a8.43,8.43,0,0,0-1.73-.27v-7.8a16.73,16.73,0,0,1,5.82,1.11A44.65,44.65,0,0,1,459.58,498.43Zm-2.63-9H440.88l0,0V473H457Zm-16.09-17.41V455.83H457v16.22Zm17-16.23a17.61,17.61,0,0,0,6.31-1.23,44.36,44.36,0,0,1,3.75,17.46H457.86Zm0-.9v-8.08a8.43,8.43,0,0,0,1.73-.27,44.62,44.62,0,0,1,4.2,7.2A16.71,16.71,0,0,1,457.86,454.92Zm-8.91-17h-8.08A16.71,16.71,0,0,1,442,432a44.64,44.64,0,0,1,7.2,4.2A8.43,8.43,0,0,0,448.94,437.93Zm-26.11-10.06v10.06H406.32a17.61,17.61,0,0,0-1.19-6.2A44.36,44.36,0,0,1,422.83,427.87Zm-51,10.23A16.8,16.8,0,0,1,400.29,426a52,52,0,0,0-7.62,4.64,8.46,8.46,0,0,0-11.22,11.22,52,52,0,0,0-4.83,8A16.76,16.76,0,0,1,371.79,438.11Zm16.82,17.72h.1v16.22H378.66a44.37,44.37,0,0,1,3.71-17.36A17.63,17.63,0,0,0,388.61,455.83Zm-10,17.13h10.06v16.5h-.1a17.64,17.64,0,0,0-6.14,1.1A44.36,44.36,0,0,1,378.66,473Zm10,51a16.81,16.81,0,0,1-11.9-28.69,51.92,51.92,0,0,0,4.74,7.81,8.46,8.46,0,0,0,11.22,11.22,51.93,51.93,0,0,0,7.81,4.74A16.76,16.76,0,0,1,388.61,524Zm17.72-16.82v-.1h16.5v10.06a44.35,44.35,0,0,1-17.6-3.82A17.64,17.64,0,0,0,406.33,507.18Zm17.41,10V507.07H440v.1a17.63,17.63,0,0,0,1.14,6.24A44.36,44.36,0,0,1,423.74,517.13Zm50.76-10a16.81,16.81,0,0,1-28.59,12,51.94,51.94,0,0,0,8-4.83,8.46,8.46,0,0,0,11.22-11.22,52,52,0,0,0,4.64-7.62A16.76,16.76,0,0,1,474.5,507.18Zm-16.64-17.72V473h10.06a44.35,44.35,0,0,1-3.86,17.69A17.62,17.62,0,0,0,457.86,489.46Zm7.26-47.57a8.46,8.46,0,0,0-11.22-11.22,51.91,51.91,0,0,0-7.8-4.73,16.8,16.8,0,0,1,23.76,23.76A52,52,0,0,0,465.12,441.89Z"/><path class="cls-2" d="M752.17,483.16c-2-8.61-11.78-11.63-17.38-12.08l1.3-1.36c2.88-3,6.15-6.38,7.65-11,1.24-3.85.85-8.32-1-10.87a4.86,4.86,0,0,0-3.93-2.19c-.92,0-2.1,1.31-3.71,3.19-.39.46-.73.86-.95,1.07s-.65.73-1.09,1.27c-.69.86-2.32,2.86-2.85,2.86h0v.45h0v.45h0a3.93,3.93,0,0,1,3.15,1.74c1.59,2.16,2,6.07,1.08,9.5-1.48,5.28-5.31,9.14-8.69,12.54-.93.94-1.81,1.82-2.63,2.72-1.12,1.22-2.33,2.44-3.51,3.63a60.73,60.73,0,0,0-7.74,8.91c-2.22,3.33-1.9,5.79-1.25,7.26a6.93,6.93,0,0,0,5.49,3.78h.12c.77,0,1.83-1.08,3.72-3.28.37-.44.7-.81.88-1s.58-.65,1-1.19c.71-.87,2.38-2.9,2.87-2.95l.13-.89a6.27,6.27,0,0,1-4.84-3.19c-.77-1.65-.47-3.69.87-5.9a41.19,41.19,0,0,1,5.08-6.5l0,.23h0c5.51.4,12.53,2.91,15.75,8.8,1.83,3.35,1.45,8,.84,12a24.73,24.73,0,0,1-1.53,6,10.67,10.67,0,0,1-1,1.72l-.15.24a38.78,38.78,0,0,1-11.64,5.1,45.23,45.23,0,0,1-18,.74c-15.13-2.26-24.92-8.55-29.92-19.24a23.71,23.71,0,0,1-2.56-10.79,14.94,14.94,0,0,1,1.12-5.19,6.63,6.63,0,0,1,.34-.69,39.34,39.34,0,0,1,4.6-2.27,37.62,37.62,0,0,1,9.43-2.48,42.69,42.69,0,0,0,13-1.91c1.08-.31,2.3-1.74,3.38-3,.42-.49.81-.95,1.13-1.26s.81-.9,1.27-1.46c.9-1.1,2-2.46,2.8-2.69l-.25-.87h0a42.58,42.58,0,0,1-12.3,1.88v-.08h0l-.29,0-.17,0a20.19,20.19,0,0,1-11-3.31c-3.14-2.16-6.31-6.63-8.07-11.38-2.09-5.64-2-10.86.34-14.7a23.12,23.12,0,0,1,2.64-3.43c.36-.2.72-.42,1.06-.65a12.91,12.91,0,0,1,1.23-.73c3.91-1.93,8.05-1.79,11.94-1.34a45.62,45.62,0,0,1,11.53,2.59l.67.25c2.9,1.09,7.74,2.9,8,6.92h0l.9-.06a.27.27,0,0,1,0,.11,28.52,28.52,0,0,1,3.38-3.18c.41-.35.71-.61.82-.72s.37-.33.72-.62c2.83-2.36,3.72-3.33,3.68-4-.34-5.38-7.56-7.55-11-8.6l-.52-.16a46.22,46.22,0,0,0-14.52-2.15c-8.48.23-15.22,7.29-21.73,14.12l-1.58,1.66-1,1c-2.89,2.95-6.49,6.62-7.43,11.56-1.28,6.75,2.78,14.06,5.31,17.81a17.91,17.91,0,0,0,7,6.18,65.52,65.52,0,0,0-12,11.18,16.22,16.22,0,0,0-3.72,13.34c1.2,8.39,7.84,16.87,13.49,20.58a47.5,47.5,0,0,0,26,7.59,49.86,49.86,0,0,0,8.87-.79c11.94-2.16,21.06-10.28,29.14-18.73C750.59,500.68,754.12,491.54,752.17,483.16ZM703.7,420.78a45,45,0,0,1,14.23,2.11l.52.16c3.27,1,10.09,3,10.39,7.76-.11.56-2.55,2.6-3.36,3.27-.37.31-.66.55-.78.66s-.39.35-.78.68c-1.5,1.29-2.41,2.11-3,2.66-1-3.84-5.75-5.62-8.41-6.62l-.66-.25a46.45,46.45,0,0,0-11.75-2.65,38.37,38.37,0,0,0-4.39-.29,17.75,17.75,0,0,0-8,1.72,13.48,13.48,0,0,0-1.32.79l-.21.14C691.49,425.59,697.09,421,703.7,420.78Zm13.09,102.45a47.41,47.41,0,0,1-34.25-6.66c-5.48-3.61-11.93-11.83-13.09-20A15.35,15.35,0,0,1,673,484a63.73,63.73,0,0,1,12.45-11.47l.68-.46-.75-.33a17,17,0,0,1-7.34-6.19c-2.45-3.64-6.39-10.7-5.17-17.13.89-4.67,4.38-8.24,7.19-11.1l1-1,1.59-1.66.51-.53c-.24.34-.47.69-.7,1.06-5.66,9.42,2.06,23.21,8,27.29a20.38,20.38,0,0,0,9.79,3.37l-.15.06,1.83,0h.27a40.64,40.64,0,0,0,10.59-1.32c-.45.48-.89,1-1.3,1.52s-.87,1.06-1.21,1.39-.76.81-1.19,1.32c-.95,1.1-2.13,2.47-2.95,2.71a41.81,41.81,0,0,1-12.79,1.87h-.07a38.54,38.54,0,0,0-9.69,2.54,40.25,40.25,0,0,0-4.82,2.38l-.1.06-.06.1a7.83,7.83,0,0,0-.46.9,15.81,15.81,0,0,0-1.19,5.51,24.59,24.59,0,0,0,2.64,11.21c5.14,11,15.15,17.45,30.6,19.75a46.14,46.14,0,0,0,18.31-.76A39.71,39.71,0,0,0,740.22,510C733.53,516.24,726,521.56,716.79,523.23Zm28.64-18.47c-1.54,1.62-3.13,3.22-4.76,4.77l.1-.16a11.63,11.63,0,0,0,1.06-1.86,25.58,25.58,0,0,0,1.59-6.17c.64-4.23,1-9-.94-12.62-3.13-5.72-9.61-8.42-15.1-9.13a25.05,25.05,0,0,0,2.18-2.46c.42-.51.78-1,1-1.16s.58-.63,1-1.1c.68-.79,2.48-2.91,3-2.91,5.32.38,14.84,3.21,16.75,11.4C753.15,491.34,749.66,500.34,745.44,504.76Z"/><path class="cls-2" d="M915.14,362.63a38.64,38.64,0,0,1-47.23,18.64v1a39.69,39.69,0,0,0,45-14.22,51,51,0,0,1-48.75,29.48,9.08,9.08,0,0,1-.79.87l-.06.07c1.08.07,2.16.12,3.26.12A52.1,52.1,0,0,0,916,363Z"/><path class="cls-2" d="M850.86,396.16a8.2,8.2,0,0,0,1.06-.69,51.08,51.08,0,0,1,6.56-99.31v-1a52,52,0,0,0-7.63,101Z"/><path class="cls-2" d="M858.41,313.64v-1.22a39.76,39.76,0,0,0-8.49,7.95,39.45,39.45,0,0,0,6.29,55.5c.63.5,1.28,1,1.93,1.44v-1.2c-.45-.33-.89-.66-1.33-1A38.46,38.46,0,0,1,850.69,321,38.81,38.81,0,0,1,858.41,313.64Z"/><path class="cls-2" d="M893.13,307.4a39.73,39.73,0,0,0-13.74-1.91v1a38.68,38.68,0,0,1,13,1.7Z"/><path class="cls-2" d="M896.81,305.14l-2.94,2.91-.47.47h0l-47.16,46.72a38.17,38.17,0,0,0,3.47,7.57l17.51-17.3L901,312l.63-.63h0l1-1h0L903,310l5.06-5-5.51-5.56-5.23,5.18h0Z"/><path class="cls-2" d="M901.81,312.59a38.33,38.33,0,0,1,8.51,7.49l.79-.57a52,52,0,0,0-7.09-9.11l-.7.69a51.09,51.09,0,0,1,3.64,4.17,39.16,39.16,0,0,0-4.44-3.38Z"/><path class="cls-2" d="M898.67,304a52.39,52.39,0,0,0-28.27-9.47v1A51.39,51.39,0,0,1,898,304.73Z"/><polygon class="cls-2" points="848.27 302.21 848.24 310.03 859.4 310.07 859.4 311.77 859.4 311.77 859.39 312.95 859.39 312.95 859.28 340.24 867.13 332.47 867.22 310.11 878.39 310.15 878.4 306.52 878.4 306.52 878.41 305.93 878.42 302.34 867.25 302.29 867.28 295.52 867.28 295.52 867.28 294.54 867.28 294.54 867.3 290.19 859.49 290.16 859.47 295.04 859.47 295.04 859.46 296.03 859.46 296.03 859.44 302.26 848.27 302.21"/><path class="cls-2" d="M866.92,382.53v-1.62h0l.14-33.24-7.85,7.75-.09,21.37h0v2c0,10.14-3.57,14.91-6,17a10.94,10.94,0,0,1-1,.75,8,8,0,0,1-1,.59l-.15.07a13.1,13.1,0,0,1-17.56-8.47,52.48,52.48,0,0,1-8-7.21,21,21,0,0,0,20.41,24.52h.09a21.5,21.5,0,0,0,16.32-7.63h0c.17-.2.34-.4.5-.61l.05-.06.25-.26h0C867.25,393,866.92,382.64,866.92,382.53Z"/><path class="cls-2" d="M465.24,231.42l30.53,30.53a34.27,34.27,0,0,1-22.51,8.41v.9h31.82l.09.09.09-.09H511l.09.09.09-.09H543v-.9a34.15,34.15,0,0,1-22.52-8.4L551,231.42a34.27,34.27,0,0,1,8.41,22.51h.9V184.16h-.9a34.16,34.16,0,0,1-8.6,22.76l-30.58-30.58a34.16,34.16,0,0,1,22.76-8.6v-.9H473.26v.9A34.28,34.28,0,0,1,496,176.34l-30.57,30.57a34.16,34.16,0,0,1-8.6-22.76h-.9v69.77h.9A34.28,34.28,0,0,1,465.24,231.42Zm30.53-39.36a34.17,34.17,0,0,1,2.68-13.33,34.3,34.3,0,0,1,9.24,23.44v16.43H491.26a34.16,34.16,0,0,1-23.34-9.13,34.33,34.33,0,0,1,37.25,7.47l.64-.64A34,34,0,0,1,495.77,192.05Zm15.35,24.87a34,34,0,0,1,24.22-10h0a34.19,34.19,0,0,1,13,2.55A34.16,34.16,0,0,1,525,218.59H508.6V202.16a34.16,34.16,0,0,1,9.22-23.43,34.32,34.32,0,0,1-7.33,37.56Zm6.83,42.57a34.17,34.17,0,0,1-9.35-23.57V219.72h4.94v-.22H525A34.3,34.3,0,0,1,548.69,229a34.17,34.17,0,0,1-13.32,2.68h0a34,34,0,0,1-24.22-10l-.64.64A34.33,34.33,0,0,1,517.95,259.49ZM505.17,221.6a34.32,34.32,0,0,1-37.56,7.34,34.3,34.3,0,0,1,23.65-9.44h12.45v.22h4v16.21a34.3,34.3,0,0,1-9.37,23.57,34.36,34.36,0,0,1,7.49-37.26Zm-39.34,9.14q.52-.57,1.06-1.12a35.3,35.3,0,0,0,34.59-3.7,35.29,35.29,0,0,0-3.85,34.29q-.58.59-1.19,1.14Zm54,30.62c-.39-.36-.77-.72-1.15-1.09l-.06-.06a35.29,35.29,0,0,0-3.83-34.29,34.89,34.89,0,0,0,20.54,6.62h0a35.05,35.05,0,0,0,14-2.91q.54.54,1.05,1.1Zm30.42-53.78c-.29.31-.57.62-.87.92l-.28.26A35.07,35.07,0,0,0,535.37,206h0a34.89,34.89,0,0,0-20.54,6.62,35.29,35.29,0,0,0,3.7-34.6l.19-.2c.3-.3.61-.59.92-.87Zm-53.57-30.63q.56.52,1.1,1.06a35.29,35.29,0,0,0,3.71,34.59,35.27,35.27,0,0,0-34.29-3.83l-.28-.26c-.3-.3-.59-.61-.87-.92Z"/></g></g></svg>