<svg xmlns="http://www.w3.org/2000/svg" viewBox="0 0 1600.65 886.83"><defs><style>.cls-1{fill:#fff;}.cls-2{stroke:#fff;stroke-miterlimit:10;stroke-width:1.5px;}</style></defs><title>tgo_logo_1</title><g id="Layer_2" data-name="Layer 2"><g id="Layer_2-2" data-name="Layer 2"><rect width="1600.65" height="886.83"/><path class="cls-1" d="M1232.41,358.26a76.82,76.82,0,0,1,8.66-.49l1.08,0V356.3a78.31,78.31,0,0,0-9.91.48c-.68.08-1.34.19-2,.28v1.51C1231,358.46,1231.68,358.35,1232.41,358.26Z"/><path class="cls-1" d="M1220.52,510.85A16.73,16.73,0,0,1,1219,512a78.73,78.73,0,0,0,15.31,2.87c.26-.31.52-.61.77-.94l.08-.09c.13-.13.26-.26.39-.4A77.28,77.28,0,0,1,1220.52,510.85Z"/><path class="cls-1" d="M1256,373.34a60,60,0,0,0-25.92,9.26v1.8a58.45,58.45,0,0,1,26.1-9.57c1-.11,1.95-.19,2.92-.25v-1.51C1258.11,373.13,1257.07,373.22,1256,373.34Z"/><path class="cls-1" d="M1315.19,460.22a59,59,0,0,1-72.08,28.45v1.6a60.58,60.58,0,0,0,68.75-21.7,77.83,77.83,0,0,1-74.4,45,13.8,13.8,0,0,1-1.2,1.32l-.09.1c1.65.1,3.3.18,5,.18a79.51,79.51,0,0,0,75.44-54.37Z"/><path class="cls-1" d="M1217.09,511.39a12.54,12.54,0,0,0,1.62-1.06,78,78,0,0,1,10-151.56v-1.51a79.43,79.43,0,0,0-11.64,154.14Z"/><path class="cls-1" d="M1202.88,440.05a59.89,59.89,0,0,0,22.38,40.37c1,.77,2,1.49,2.95,2.19v-1.83c-.68-.5-1.36-1-2-1.53a58.7,58.7,0,0,1-9.36-82.6,59.26,59.26,0,0,1,11.78-11.2v-1.86a60.7,60.7,0,0,0-13,12.13A59.88,59.88,0,0,0,1202.88,440.05Z"/><path class="cls-1" d="M1229.71,481.82v1.81a60.23,60.23,0,0,0,11.9,6.08v-1.6A58.86,58.86,0,0,1,1229.71,481.82Z"/><path class="cls-1" d="M819.93,305.25c19.14,0,30.88-4.13,30.88-25.66V220.86H749.68v58.73c0,21.53,11.75,25.66,30.89,25.66v2.83H715.75v-2.83c16.53,0,22.18-10.44,22.18-25.88V159.75c0-13.92-5-19.79-22.84-19.79l-.22-3h65.69v2.83c-18.71,0-30.45,3.92-30.89,24.14V212.6H850.82V165.4c0-21.53-11.74-25.67-30.88-25.67v-2.83h64.6v2.83c-16.53,0-22.18,10.44-22.18,25.88V285.24c0,13.92,5,19.79,22.84,19.79l.22,3H819.93Z"/><path class="cls-1" d="M973.56,218.47c17.4,0,17.62-15,17.62-29.36h3l.87,65.9h-3c0-9.13.65-27.84-18.49-27.84h-53.5l.43,76.78c36.76,0,58.07-2,71.34-5.87,16.75-5,23.06-13.7,27-21.1l1.52.65c-.44,3.26-3.7,31.32-37.19,31.32-30.45,0-92-.87-92-.87v-2.83c10.88,0,17-7.83,17-18.49l.22-124.19c0-12.61-4.78-22.84-17.18-22.84v-2.83h120.06l.65,48.94H1009c0-21.32-1.52-41.32-24.79-41.32-16.1,0-64.16-.22-64.16-.22v74.17Z"/><path class="cls-1" d="M516.86,354.42c33.93,0,65,6.74,65,42.85,0,19.36-7.18,40.67-38.93,47,4.35,12.18,31.75,72.86,83.08,105.7l-.65,2c-62.42-25.45-93.31-95-97.22-105.92l-27,.22v72.43l30.88,3.48v3.48H466.62V523c17.62,0,21.53-6.53,21.53-20.23v-127c0-10-3.92-18.7-21.53-18.7v-2.61Zm-15.66,87h20.23c24.36,0,45.67-7.61,45.67-42.63,0-28.49-19.79-37.63-49.59-37.63H501.2Z"/><path class="cls-1" d="M830.5,354.42c33.93,0,65,6.74,65,42.85,0,23.05-10.22,48.72-59.59,48.72l-21.1.22v72.43l30.88,3.48v3.48H780.26V523c17.62,0,21.53-6.53,21.53-20.23v-127c0-10-3.92-18.7-21.53-18.7v-2.61Zm-15.66,87h20.23c24.36,0,45.67-7.61,45.67-42.63,0-28.49-19.79-37.63-49.59-37.63H814.84Z"/><path class="cls-1" d="M1001.46,522.76c19.14,0,30.88-4.13,30.88-25.66V438.37H931.2v58.73c0,21.53,11.75,25.66,30.89,25.66v2.83H897.28v-2.83c16.53,0,22.18-10.44,22.18-25.88V377.25c0-13.92-5-19.79-22.84-19.79l-.22-3h65.69v2.83c-18.71,0-30.45,3.92-30.89,24.14v48.72h101.14v-47.2c0-21.53-11.74-25.67-30.88-25.67v-2.83h64.6v2.83c-16.53,0-22.18,10.44-22.18,25.88V502.75c0,13.92,5,19.79,22.84,19.79l.22,3h-65.47Z"/><path class="cls-1" d="M651.26,571.92c33.93,0,65,6.74,65,42.85,0,19.36-7.18,40.67-38.93,47,4.35,12.18,31.75,72.86,83.08,105.7l-.65,2c-62.42-25.45-93.31-95-97.22-105.92l-27,.22v72.43l30.88,3.48v3.48H601v-2.61c17.62,0,21.53-6.53,21.53-20.23v-127c0-10-3.92-18.7-21.53-18.7v-2.61Zm-15.66,87h20.23c24.36,0,45.67-7.61,45.67-42.63,0-28.49-19.79-37.63-49.59-37.63H635.6Z"/><path class="cls-1" d="M738.48,743.09v-2.61c17.62,0,21.53-6.53,21.53-20.23v-127c0-10-3.92-18.7-21.53-18.7v-2.61l52.85.22c68.95,0,113.32,18.92,113.32,83.52S856.58,743.09,810,743.09Zm34.58-164.21-.22,158.55h37.63c36.76,0,79.39-19.36,79.39-80.91,0-64.16-43.72-77.65-88.09-77.65Z"/><path class="cls-1" d="M1101.71,571.92c33.93,0,65,6.74,65,42.85,0,19.36-7.18,40.67-38.93,47,4.35,12.18,31.75,72.86,83.08,105.7l-.65,2c-62.42-25.45-93.31-95-97.22-105.92l-27,.22v72.43l30.88,3.48v3.48h-65.47v-2.61c17.62,0,21.53-6.53,21.53-20.23v-127c0-10-3.92-18.7-21.53-18.7v-2.61Zm-15.66,87h20.23c24.36,0,45.67-7.61,45.67-42.63,0-28.49-19.79-37.63-49.59-37.63H1086Z"/><path class="cls-1" d="M466.62,401.37c-4.41,3.57-7.05,7.38-7.05,15.79V490.7c0,7.13-1.18,12.48,6.76,19.09h-15c-12.35,9.93-32.33,20.37-60,20.37-77,0-107.29-47.1-107.29-90.13,0-52.7,50-86.05,101.12-86.05,26.16,0,33.22,4.84,42.92,4.84a15,15,0,0,0,8.82-2.8c2.65,8.15,9.41,16.55,15.58,22.15L449,381.22c-14.11-14.51-38.21-21.89-60.26-21.89-67.31,0-90.53,45.06-90.53,76.38,0,53.46,48.79,89.62,93.47,89.62,28.22,0,43.21-10.95,49.09-17.82,4.41-5.09,5-10.44,5-16.55V417.67c0-9.67-3.82-14-7.35-16.29Z"/><path class="cls-1" d="M622.91,309l-81.55-81.55,1.06-1.06a57,57,0,0,0,80.49,0l1.06,1.06a56.92,56.92,0,0,0,0,80.49ZM551.75,235.7l62.86,62.86a58.54,58.54,0,0,1,2.2-65A58.59,58.59,0,0,1,551.75,235.7Z"/><path class="cls-1" d="M713.28,218.62A56.51,56.51,0,0,0,673.06,202h0a56.51,56.51,0,0,0-40.22,16.67l-1.06-1.06a57,57,0,0,0,0-80.49l1.06-1.06,81.55,81.55Zm-72.23-72.23a58.58,58.58,0,0,1-2.15,65.05,57.94,57.94,0,0,1,34.11-11h0a58,58,0,0,1,30.85,8.8Z"/><path class="cls-1" d="M632.79,309l-1.06-1.06a57,57,0,0,0,0-80.49l1.06-1.06A56.51,56.51,0,0,0,673,243h.05a56.5,56.5,0,0,0,40.22-16.67l1.06,1.06Zm6.11-75.43a58.58,58.58,0,0,1,2.15,65.05l62.86-62.86a58,58,0,0,1-30.85,8.8H673A57.93,57.93,0,0,1,638.9,233.55Z"/><path class="cls-1" d="M622.91,218.62a57,57,0,0,0-80.49,0l-1.06-1.06L622.91,136l1.06,1.06a56.92,56.92,0,0,0,0,80.49Zm-40.24-18.17a58,58,0,0,1,34.12,11,58.54,58.54,0,0,1-2.18-65L551.8,209.25A58,58,0,0,1,582.67,200.45Z"/><path class="cls-1" d="M433.42,435.75c0,26.5-19.33,59.25-58.48,59.25-29.32,0-57.66-19.09-57.66-54.48,0-26.5,19.33-59.08,57.66-59.08C405.25,381.44,433.42,400.36,433.42,435.75Zm-106.87-1.36c0,31.25,22.69,55.32,48.4,55.32,32.21,0,49.19-24.07,49.19-47.67,0-31.25-22.69-55.32-49.19-55.32C343.53,386.72,326.55,410.79,326.55,434.39Z"/><rect class="cls-1" x="372.8" y="387.46" width="1.5" height="103.58" transform="translate(-173.55 257.16) rotate(-31.21)"/><path class="cls-1" d="M1094.72,501.5a10.05,10.05,0,0,1-1.11-.06c-4.6-.51-14.08-3.1-17-9.24-2.85-5.92-4.48-11.88-4.48-16.36V429.32c0-1,.34-9.47,3.51-11.83l.54-.41c3-2.23,7.45-5.6,10.92-1.27,3.09,3.87,11.85,16.22,12.43,17a10.43,10.43,0,0,1,2.16,5.16c.63,3.59,2.61,10.51,3.48,11.72a5.68,5.68,0,0,1,1,4.21,2.49,2.49,0,0,1-1.3,1.69,8.87,8.87,0,0,1-10.12-2.36c-3.45-3.87-4.21-11.79-2.77-16.75l1.44.42c-1.31,4.48-.62,11.88,2.45,15.33a7.31,7.31,0,0,0,8.32,2,1,1,0,0,0,.53-.71,4.17,4.17,0,0,0-.8-3c-1.18-1.65-3.18-9.19-3.74-12.34a8.94,8.94,0,0,0-1.8-4.42l-.08-.09c-.09-.13-9.25-13.06-12.4-17-2.37-3-5.28-1.15-8.84,1.53l-.55.41c-2.19,1.63-2.84,8.24-2.9,10.65v46.49c0,4.2,1.62,10.08,4.34,15.71,2.48,5.15,10.83,7.84,15.85,8.4s8.33-3.5,8.36-3.54l1.16.95A12,12,0,0,1,1094.72,501.5Z"/><path class="cls-1" d="M1091.71,444l-5-2.77c-5.22-2.88-8.45-14.4-8.58-14.89l1.45-.4c0,.11,3.2,11.4,7.86,14l5,2.77Z"/><path class="cls-1" d="M1086,455.45l-1.15-1a31.21,31.21,0,0,1,6.8-6l.76,1.29A30.27,30.27,0,0,0,1086,455.45Z"/><path class="cls-1" d="M1086.1,476l-1.27-.79c.29-.46,7.18-11.4,14.22-16.84l.92,1.19C1093.14,464.86,1086.17,475.92,1086.1,476Z"/><path class="cls-1" d="M1110.81,453.26c-4.28,0-6.89-3.29-8.41-6.35l1.35-.66c3.45,7,8,5.58,9.53,5.12a2.75,2.75,0,0,0,1.49-1.82,2.91,2.91,0,0,0,0-2.34c-1.09-1.53-3.33-9.51-3.74-12.38-.35-2.48-1.54-3.51-3-4.82l-.12-.11c-1.11-1-4.08-6-7.55-11.95-1.1-1.88-2-3.5-2.4-4-1-1.48-3.13-1.48-5.39-1.48-1.76,0-5.33,2.5-6.56,3.46l-.93-1.18c.49-.39,4.89-3.78,7.48-3.78,2.44,0,5.21,0,6.64,2.14.38.57,1.29,2.13,2.45,4.11,2.33,4,6.23,10.68,7.25,11.57l.12.11c1.6,1.4,3.1,2.71,3.53,5.74.41,2.87,2.59,10.47,3.48,11.72a4.3,4.3,0,0,1,.23,3.7,4.13,4.13,0,0,1-2.43,2.76A10,10,0,0,1,1110.81,453.26Z"/><path class="cls-1" d="M1101.62,438.39l-1.42-.49c.53-1.52,1.93-5.07,3.61-5.31l.21,1.48C1103.52,434.19,1102.37,436.24,1101.62,438.39Z"/><path class="cls-1" d="M1106.25,469.73l-1.48-.23c.09-.6,2.38-14.84,10.6-19.77l3.23-2c5.13-3.13,6.2-3.78,9.95-4l.07,1.5c-3.37.16-4.26.71-9.24,3.74l-3.24,2C1108.51,455.59,1106.27,469.59,1106.25,469.73Z"/><path class="cls-1" d="M1117.79,424.13l-1.5,0a74,74,0,0,0-2.67-20.81l0-.15,0-.15c.78-7.45-.59-20.76-.6-20.89l0-.26.14-.22c0-.07,4.15-6.57,5.31-12.77a14.66,14.66,0,0,0-1.24-10c-.29-.67-.58-1.35-.84-2.08-.41-1.12-1.12-1.75-2-1.75h0c-1.18,0-3,1.19-4.27,4.57a76.68,76.68,0,0,1-5.37,10.39,43.76,43.76,0,0,0-3.36,6.41c-.82,2.74-.51,9.49,0,13.11.51,3.47-2,23.23-2.1,24.07l-1.49-.19c.9-7,2.49-21,2.11-23.66-.47-3.2-.95-10.53,0-13.76a42.8,42.8,0,0,1,3.5-6.73,75.8,75.8,0,0,0,5.26-10.16c1.28-3.42,3.46-5.54,5.67-5.54h0a3.72,3.72,0,0,1,3.4,2.74c.25.7.53,1.35.81,2a16.11,16.11,0,0,1,1.33,10.83c-1.11,5.9-4.62,11.84-5.38,13.07.19,1.94,1.31,13.67.59,20.8A76,76,0,0,1,1117.79,424.13Z"/><path class="cls-1" d="M1110.61,424.86l-.15-1.49c1.64-.17,16.15-1.58,19.27.08l-.71,1.32C1127,423.67,1116.89,424.22,1110.61,424.86Z"/><path class="cls-1" d="M1122.3,386.42a5.32,5.32,0,0,1-.87-.06l.26-1.48a5.24,5.24,0,0,0,4.88-2.11c2.06-2.81,2.06-9.94,2.06-18.2,0-2.92-.57-4.79-1.66-5.39s-2.91.3-3.41.61c-.94.59-2.57,4.8-3.42,7.61l-1.44-.44c.37-1.22,2.31-7.35,4.06-8.44.86-.54,3.07-1.68,4.93-.65,1.61.89,2.43,3.15,2.43,6.7,0,8.52,0,15.88-2.35,19.09A6.66,6.66,0,0,1,1122.3,386.42Z"/><path class="cls-1" d="M1130.13,417.55l-1.5-.12a36.36,36.36,0,0,0-2-12.35l0-.15,0-.15c.71-7.31,1.28-19-.09-21.18l1.27-.79c2,3.25.57,19.45.33,22C1130.51,412.37,1130.15,417.34,1130.13,417.55Z"/><path class="cls-1" d="M1123,500.27a7,7,0,0,1-1.86-.25l.4-1.45c3.22.88,6.38-1.45,9.16-3.51.71-.52,1.39-1,2.05-1.47,1.57-1,2.66-4.5,3.92-8.5a71.64,71.64,0,0,1,5.26-13.27c4.94-9,3.18-13.88,3.17-13.93l0-.17c-.08-.58-2-14.21-1.55-19.64.45-5.25,0-8.29-1.78-11.61s-3.33-14.53-3.48-15.62c-.26-.77-1.13-2.62-2.35-2.79-1-.13-2.33.94-3.71,3-4.76,7.23,0,21.86.08,22l.1.3-.14.28c-5.23,10.26-2.17,25-2.14,25.17l-1.47.31c-.13-.62-3.15-15.17,2.13-25.88-.71-2.24-4.63-15.68.18-23,1.77-2.69,3.51-3.93,5.17-3.7,2.44.34,3.54,3.74,3.59,3.88l0,.13c0,.12,1.61,11.93,3.33,15.19,1.89,3.56,2.42,6.94,1.95,12.44-.43,5.07,1.37,18.12,1.53,19.23.26.78,1.72,6-3.28,15.1a70.55,70.55,0,0,0-5.15,13c-1.4,4.45-2.51,8-4.52,9.3-.64.43-1.31.92-2,1.42C1129,498.16,1126.19,500.27,1123,500.27Z"/><path class="cls-1" d="M1110.11,528.19l-.94,0c-5.23-.27-9.42-2.68-11.25-4.95-3.27-4-10.91-8-11-8.05l-.36-.19,0-.41c-.39-3.95-3.25-16.41-3.28-16.53l1.46-.34c.12.5,2.74,11.93,3.27,16.32,1.6.86,8,4.44,11.11,8.25,1.57,1.94,5.42,4.14,10.17,4.39a14.87,14.87,0,0,0,11.58-4.45c5.89-5.9,9.41-6.43,11.07-6.14.35-6.12,1-19.5.56-21.71l1.47-.3c.61,3-.54,22.27-.59,23.09l-.08,1.38-1.11-.82s-2.95-1.74-10.25,5.57A16.28,16.28,0,0,1,1110.11,528.19Z"/><rect class="cls-1" x="1111.74" y="434.27" width="14.15" height="1.5" transform="translate(-77.12 538.62) rotate(-26.2)"/><path class="cls-1" d="M688.44,496.37a132.66,132.66,0,0,1-27.39-2.85,138.57,138.57,0,0,1-61.82-31l-.53-.46.43-.56A117.18,117.18,0,0,1,645.06,425a130.8,130.8,0,0,1,22.61-7.78l.44-.11.41-.1a129.48,129.48,0,0,1,47.3-2.16c2,.25,3.72.51,5.29.75a155.45,155.45,0,0,1,18.27,3.6c9,2.48,15.7,6,21.19,11.21,4.74,4.46,8.78,10.69,12.35,19.06a25.21,25.21,0,0,1,1.11,4c.54,2.39,1.15,5.1,2.42,6.37a8.61,8.61,0,0,1,1.37,11.11c-1.72,2.39-5.32,4.05-10.33,1.72C754.89,480.72,725.77,496.37,688.44,496.37Zm-87.7-34.54A137,137,0,0,0,661.36,492c50.05,10.54,90.56-11.12,105.65-20.92l.36-.23.38.19c3.71,1.86,7,1.46,8.83-1.06a7.2,7.2,0,0,0-1.22-9.17c-1.57-1.57-2.21-4.38-2.82-7.1a24.19,24.19,0,0,0-1-3.73c-3.48-8.17-7.41-14.24-12-18.55-5.31-5-11.84-8.44-20.56-10.86a153.78,153.78,0,0,0-18-3.55c-1.61-.24-3.36-.5-5.31-.75a126.73,126.73,0,0,0-46.75,2.13l-.43.1-.41.1a129.39,129.39,0,0,0-22.36,7.69,115.63,115.63,0,0,0-44.92,35.5Z"/><path class="cls-1" d="M791.48,525.12H592.74l28.19-48.83.65.38A133.78,133.78,0,0,0,661.36,492c44.79,9.42,81.92-6.9,100.06-17.48l.65-.38Zm-196.15-1.5H788.88l-27.35-47.38c-18.56,10.69-55.72,26.7-100.47,17.27a135.2,135.2,0,0,1-39.58-15.17Z"/><path class="cls-1" d="M651.11,424l41-71L730,418.57l-1.59-.28c-2.41-.43-4.85-.83-7.45-1.23-1.61-.24-3.36-.5-5.31-.75a126.73,126.73,0,0,0-46.75,2.13l-.43.1-.41.1h0a128.9,128.9,0,0,0-15,4.63Zm41-68-37.61,65.15a130.17,130.17,0,0,1,13.17-4l.44-.11.41-.1a129.48,129.48,0,0,1,47.3-2.16c2,.25,3.72.51,5.29.75,2.09.32,4,.63,6,1Z"/><path class="cls-1" d="M766.77,472.13c-.13-.23-3.17-5.65.07-9.69.68-.85,1.42-1.71,2.14-2.55,1.93-2.25,4.33-5.05,3.94-6.17l1.41-.5c.68,1.94-1.59,4.58-4.21,7.65-.71.83-1.43,1.67-2.1,2.51-2.6,3.25,0,8,.07,8Z"/><path class="cls-1" d="M688.83,492.06a204.41,204.41,0,0,1-20.7-1.12,141.77,141.77,0,0,1-41.48-15.19c-17.79-9.8-23-16.63-23.2-16.92l1.2-.9c.05.07,5.28,6.89,22.72,16.5a140.25,140.25,0,0,0,41,15c.22,0,25,2.84,39.43-.59,8.51-2,29.68-8.21,37.34-11.86s20.54-10.1,20.67-10.16l.67,1.34c-.13.06-13,6.53-20.7,10.18-7.87,3.75-28.84,9.88-37.64,12C702.53,491.65,695.46,492.06,688.83,492.06Z"/><path class="cls-1" d="M693.18,487.76a50.09,50.09,0,0,1-48.54-62.3l.09-.35.33-.15a130.76,130.76,0,0,1,22.61-7.78l.44-.11.41-.1a129.48,129.48,0,0,1,47.3-2.16c2,.25,3.72.51,5.29.75a155.51,155.51,0,0,1,18.27,3.6l.36.1.14.35a50.08,50.08,0,0,1-46.7,68.14ZM646,426.18a48.56,48.56,0,1,0,92.6-5.67,156.87,156.87,0,0,0-17.68-3.45c-1.61-.24-3.36-.5-5.31-.75a126.73,126.73,0,0,0-46.75,2.13l-.43.1-.41.1A129.4,129.4,0,0,0,646,426.18Z"/><path class="cls-1" d="M693.18,470.06a32.36,32.36,0,0,1-25.05-52.83l.16-.2.25-.06a129.5,129.5,0,0,1,47.28-2.15l.26,0,.18.18a32.35,32.35,0,0,1-23.08,55Z"/><polyline class="cls-1" points="627.85 250.16 627.85 195.53 627.85 194.09"/><rect class="cls-1" x="627.1" y="194.09" width="1.5" height="56.06"/><path class="cls-1" d="M685.78,136.17a57.93,57.93,0,0,0-57.93,57.93,57.92,57.92,0,0,0-57.93-57.93Z"/><path class="cls-1" d="M628.6,194.09h-1.5a57.24,57.24,0,0,0-57.17-57.17v-1.5H685.78v1.5a57.18,57.18,0,0,0-57.18,57.17Zm-45.46-57.17a58.85,58.85,0,0,1,44.71,47.76,58.8,58.8,0,0,1,44.65-47.76Z"/><path class="cls-1" d="M685.78,308.08a57.93,57.93,0,0,1-57.93-57.93,57.92,57.92,0,0,1-57.93,57.93Z"/><path class="cls-1" d="M685.78,308.83H569.93v-1.5a57.24,57.24,0,0,0,57.17-57.18h1.5a57.18,57.18,0,0,0,57.18,57.18Zm-102.64-1.5H672.5a58.8,58.8,0,0,1-44.65-47.76A58.85,58.85,0,0,1,583.14,307.33Z"/><polyline class="cls-1" points="655.88 222.13 601.26 222.13 599.82 222.13"/><rect class="cls-1" x="599.82" y="221.38" width="56.06" height="1.5"/><path class="cls-1" d="M541.9,164.2a57.93,57.93,0,0,0,57.93,57.93,57.92,57.92,0,0,0-57.93,57.93Z"/><path class="cls-1" d="M542.65,280.05h-1.5V164.2h1.5a57.18,57.18,0,0,0,57.17,57.17v1.5A57.24,57.24,0,0,0,542.65,280.05Zm0-102.57v89.36a58.85,58.85,0,0,1,47.76-44.71,58.8,58.8,0,0,1-47.76-44.65Z"/><path class="cls-1" d="M713.81,164.2a57.93,57.93,0,0,1-57.93,57.93,57.92,57.92,0,0,1,57.93,57.93Z"/><path class="cls-1" d="M714.56,280.05h-1.5a57.24,57.24,0,0,0-57.17-57.18v-1.5a57.18,57.18,0,0,0,57.17-57.17h1.5ZM665.3,222.13a58.85,58.85,0,0,1,47.76,44.71V177.48a58.8,58.8,0,0,1-47.76,44.65Z"/><line class="cls-1" x1="627.85" y1="231.46" x2="627.85" y2="215.15"/><rect class="cls-1" x="627.1" y="215.15" width="1.5" height="16.31"/><line class="cls-1" x1="636.81" y1="222.5" x2="620.5" y2="222.5"/><rect class="cls-1" x="620.5" y="221.75" width="16.31" height="1.5"/><rect class="cls-1" x="504.46" y="577.59" width="1.5" height="160.25" transform="translate(-317.1 549.87) rotate(-45)"/><rect class="cls-1" x="504.46" y="577.59" width="1.5" height="160.25"/><rect class="cls-1" x="425.08" y="656.96" width="160.25" height="1.5" transform="translate(-317.1 549.87) rotate(-45)"/><rect class="cls-1" x="425.08" y="656.96" width="160.25" height="1.5"/><path class="cls-1" d="M562.61,715.12H447.8V600.3H562.61Zm-113.31-1.5H561.11V601.8H449.3Z"/><path class="cls-1" d="M505.21,743.83a86.12,86.12,0,1,1,86.12-86.12A86.22,86.22,0,0,1,505.21,743.83Zm0-160.25a74.12,74.12,0,1,0,74.12,74.12A74.21,74.21,0,0,0,505.21,583.59Z"/><path class="cls-1" d="M448.55,615.14a14.08,14.08,0,1,1,14.08-14.08A14.1,14.1,0,0,1,448.55,615.14Zm0-26.67a12.58,12.58,0,1,0,12.58,12.58A12.6,12.6,0,0,0,448.55,588.47Z"/><path class="cls-1" d="M448.55,728.45a14.08,14.08,0,1,1,14.08-14.08A14.1,14.1,0,0,1,448.55,728.45Zm0-26.67a12.58,12.58,0,1,0,12.58,12.58A12.6,12.6,0,0,0,448.55,701.78Z"/><path class="cls-1" d="M561.86,728.45a14.08,14.08,0,1,1,14.08-14.08A14.1,14.1,0,0,1,561.86,728.45Zm0-26.67a12.58,12.58,0,1,0,12.58,12.58A12.6,12.6,0,0,0,561.86,701.78Z"/><path class="cls-1" d="M505.32,671.91a14.08,14.08,0,1,1,14.08-14.08A14.1,14.1,0,0,1,505.32,671.91Zm0-26.67a12.58,12.58,0,1,0,12.58,12.58A12.6,12.6,0,0,0,505.32,645.24Z"/><path class="cls-1" d="M561.86,615.14a14.08,14.08,0,1,1,14.08-14.08A14.1,14.1,0,0,1,561.86,615.14Zm0-26.67a12.58,12.58,0,1,0,12.58,12.58A12.6,12.6,0,0,0,561.86,588.47Z"/><path class="cls-1" d="M477.05,630H447.63a29.42,29.42,0,1,1,29.42-29.42Zm-29.42-57.35a27.92,27.92,0,1,0,0,55.85h27.92V600.59A28,28,0,0,0,447.63,572.67Z"/><path class="cls-1" d="M534.4,687.36H475.55V628.52H534.4Zm-57.35-1.5H532.9V630H477.05Z"/><path class="cls-1" d="M562.32,630H532.9V600.59A29.42,29.42,0,1,1,562.32,630Zm-27.92-1.5h27.92a27.92,27.92,0,1,0-27.92-27.92Z"/><path class="cls-1" d="M447.63,744.71a29.42,29.42,0,0,1,0-58.85h29.42v29.42A29.46,29.46,0,0,1,447.63,744.71Zm0-57.35a27.92,27.92,0,1,0,27.92,27.92V687.36Z"/><path class="cls-1" d="M562.32,744.71a29.46,29.46,0,0,1-29.42-29.42V685.86h29.42a29.42,29.42,0,0,1,0,58.85ZM534.4,687.36v27.92a27.92,27.92,0,1,0,27.92-27.92Z"/><path class="cls-1" d="M979.79,744.74a78.87,78.87,0,0,1-43.25-12.61c-9.37-6.17-20.4-20.25-22.39-34.18a26.94,26.94,0,0,1,6.17-22.14,108.8,108.8,0,0,1,19.89-18.57A29.73,29.73,0,0,1,928.57,647c-4.2-6.23-10.94-18.36-8.81-29.57,1.56-8.21,7.53-14.3,12.34-19.2l1.65-1.69,2.63-2.75c10.81-11.34,22-23.07,36.08-23.45a76.75,76.75,0,0,1,24.11,3.56l.86.26c5.76,1.74,17.75,5.35,18.32,14.27.07,1.1-1.41,2.71-6.11,6.63-.58.48-1,.85-1.2,1s-.69.61-1.37,1.19c-1.45,1.24-5.29,4.53-5.62,5.29a.45.45,0,0,0,0-.19l-1.5.1h0c-.43-6.67-8.48-9.68-13.28-11.49l-1.11-.42a75.75,75.75,0,0,0-19.14-4.31c-6.45-.75-13.32-1-19.82,2.22a21.43,21.43,0,0,0-2,1.22c-.57.37-1.15.75-1.75,1.07a38.39,38.39,0,0,0-4.39,5.7c-3.83,6.38-4,15-.57,24.41,2.92,7.89,8.18,15.31,13.4,18.89,5,3.42,11.12,5.27,18.24,5.5l.28,0,.49-.07h0l0,.13a70.7,70.7,0,0,0,20.42-3.12h0l.42,1.44c-1.31.38-3.17,2.64-4.66,4.46-.77.93-1.49,1.82-2.11,2.43s-1.19,1.28-1.88,2.09c-1.79,2.08-3.82,4.45-5.62,5a70.88,70.88,0,0,1-21.65,3.17,62.48,62.48,0,0,0-15.66,4.11,65.33,65.33,0,0,0-7.65,3.76,11,11,0,0,0-.57,1.14,24.81,24.81,0,0,0-1.86,8.62c-.2,5.42,1.23,11.45,4.25,17.92,8.3,17.75,24.55,28.2,49.68,31.95a75.1,75.1,0,0,0,29.82-1.24,64.4,64.4,0,0,0,19.32-8.47l.26-.39a17.72,17.72,0,0,0,1.63-2.85,41.06,41.06,0,0,0,2.54-9.89c1-6.78,1.65-14.45-1.39-20-5.34-9.77-17-14-26.15-14.61h0l.11-1.5c.85,0,3.58-3.37,4.75-4.8.72-.89,1.34-1.65,1.76-2.06s.89-1,1.53-1.73c2.73-3.2,4.74-5.43,6.23-5.35,9.25.66,25.79,5.64,29.16,20.09h0c3.24,13.91-2.62,29.1-10.09,36.91-13.42,14-28.56,27.52-48.38,31.1A82.8,82.8,0,0,1,979.79,744.74ZM938.31,593.93l-.84.88-2.63,2.75-1.66,1.7c-4.66,4.75-10.47,10.67-11.94,18.43-2,10.68,4.51,22.41,8.58,28.45A28.18,28.18,0,0,0,942,656.42l1.24.54-1.12.76a105.83,105.83,0,0,0-20.67,19,25.5,25.5,0,0,0-5.83,21c1.93,13.49,12.64,27.15,21.73,33.14,16.16,10.65,36.89,14.68,56.88,11.06,15.29-2.76,27.8-11.61,38.89-22a65.94,65.94,0,0,1-19.52,8.5,76.61,76.61,0,0,1-30.41,1.27c-25.67-3.83-42.29-14.55-50.82-32.79-3.12-6.68-4.6-12.95-4.39-18.61a26.26,26.26,0,0,1,2-9.14,13,13,0,0,1,.76-1.49l.1-.17.17-.1a66.83,66.83,0,0,1,8-4,64,64,0,0,1,16.09-4.22h.12a69.42,69.42,0,0,0,21.25-3.11c1.36-.39,3.32-2.67,4.9-4.5.72-.83,1.39-1.62,2-2.19s1.26-1.4,2-2.3,1.42-1.73,2.16-2.53a67.49,67.49,0,0,1-17.59,2.2h-.44l-3-.07.25-.1A33.84,33.84,0,0,1,950.42,641c-9.84-6.76-22.66-29.67-13.27-45.31C937.52,595.07,937.91,594.49,938.31,593.93Zm73.54,75.56c9.12,1.18,19.89,5.66,25.08,15.16,3.25,5.95,2.61,13.93,1.55,21a42.47,42.47,0,0,1-2.64,10.25,19.3,19.3,0,0,1-1.76,3.09l-.17.26c2.71-2.57,5.34-5.24,7.9-7.92,7-7.34,12.8-22.29,9.71-35.54h0c-3.17-13.6-19-18.3-27.81-18.93-.87,0-3.86,3.51-5,4.83-.67.78-1.24,1.46-1.62,1.83s-1,1.08-1.64,1.93A41.6,41.6,0,0,1,1011.85,669.49Zm-52.52-85.22a63.71,63.71,0,0,1,7.3.48,77.12,77.12,0,0,1,19.51,4.4l1.1.42c4.41,1.66,12.31,4.62,14,11,.9-.92,2.42-2.29,4.91-4.42.64-.55,1.12-1,1.29-1.12s.67-.59,1.29-1.1c1.33-1.11,5.39-4.5,5.58-5.43-.51-7.84-11.82-11.25-17.26-12.89l-.87-.26a74.67,74.67,0,0,0-23.63-3.5c-11,.3-20.28,8-29.09,16.83l.35-.23a22.38,22.38,0,0,1,2.2-1.3A29.48,29.48,0,0,1,959.33,584.27Z"/><path class="cls-1" d="M1024.31,647.4c-3.16,11.3-12.41,18.49-19,25.65-6.08,6.64-13.34,12.81-18.61,20.72-6.26,9.41-.82,16.08,6.53,17.18,1.49.22,5.93-5.65,7.18-6.87s5.57-7.3,7.08-7.07c-6.64-1-12.85-6.82-7.12-16.23,5.85-9.61,15.07-17.13,22.2-24.92,5.49-6,12.69-12.09,15.66-21.3,2.83-8.79.47-20.5-7.42-20.71-1.71,0-5.77,5.49-7.18,6.87s-5.35,7.12-7.08,7.07C1024,628,1026.74,638.73,1024.31,647.4Z"/><path class="cls-1" d="M993.34,711.71h-.19c-4.25-.64-7.66-3-9.12-6.27-1.09-2.45-1.61-6.53,2.07-12.06s8.35-10.24,12.86-14.79c1.95-2,4-4,5.82-6,1.37-1.5,2.83-3,4.37-4.52,5.61-5.65,12-12.06,14.43-20.83h0c1.59-5.7.86-12.19-1.79-15.77a6.52,6.52,0,0,0-5.23-2.89h0l0-1.5h0c.88,0,3.57-3.32,4.73-4.75.73-.9,1.36-1.68,1.81-2.11s.92-1,1.58-1.78c2.66-3.13,4.63-5.32,6.15-5.3a8.07,8.07,0,0,1,6.52,3.64c3,4.23,3.65,11.65,1.59,18.05-2.48,7.7-7.91,13.32-12.7,18.29-1.07,1.11-2.12,2.2-3.12,3.29-2.16,2.35-4.45,4.63-6.88,7-5.5,5.46-11.19,11.12-15.24,17.76-2.23,3.67-2.73,7.05-1.45,9.8s4.35,4.75,8,5.3h0l-.22,1.48c-.82.08-3.58,3.46-4.76,4.9-.73.89-1.31,1.6-1.69,2s-.84.92-1.46,1.65C996.39,709.91,994.61,711.71,993.34,711.71Zm7.27-32.67-.58.59c-4.46,4.49-9.07,9.14-12.68,14.56-2.62,3.93-3.29,7.6-2,10.62,1.25,2.82,4.23,4.84,8,5.4.84-.07,3.86-3.6,5-4.93.67-.78,1.2-1.4,1.55-1.74s.9-1,1.57-1.84a41.27,41.27,0,0,1,3.93-4.39,11.16,11.16,0,0,1-7.19-5.71c-1.05-2.25-1.64-6,1.53-11.21Q1000.18,679.71,1000.62,679ZM1025,647.61a33.23,33.23,0,0,1-4,8.88l1.06-1.14c1-1.1,2.06-2.2,3.15-3.32,4.91-5.08,10-10.34,12.35-17.71,1.9-5.88,1.31-12.92-1.39-16.72a6.54,6.54,0,0,0-5.34-3h0c-.9,0-3.74,3.34-5,4.78-.68.8-1.26,1.49-1.67,1.88s-1,1.12-1.69,2a37.47,37.47,0,0,1-3.71,4.16,8.39,8.39,0,0,1,4.21,3.13c3,4,3.77,10.86,2,17.07Z"/><path class="cls-2" d="M1201.86,502.91"/><path class="cls-1" d="M1283.2,376.45l-1.2,1.19a58.46,58.46,0,0,1,11.53,5.4l1.1-1.09A59.94,59.94,0,0,0,1283.2,376.45Z"/><path class="cls-1" d="M1260.64,373v1.49a59,59,0,0,1,19.79,2.6l1.18-1.17A60.63,60.63,0,0,0,1260.64,373Z"/><path class="cls-1" d="M1288,371.66l-1.08,1.07a78.52,78.52,0,0,1,9.15,7.76l1.06-1.05A80,80,0,0,0,1288,371.66Z"/><path class="cls-1" d="M1298.23,380.49l-1.06,1.06a78,78,0,0,1,5.56,6.37,59.76,59.76,0,0,0-6.78-5.16l-1.1,1.09a58.49,58.49,0,0,1,13,11.43l1.21-.87A79.4,79.4,0,0,0,1298.23,380.49Z"/><path class="cls-1" d="M1286.8,370.78a80,80,0,0,0-43.14-14.46v1.5a78.43,78.43,0,0,1,42.07,14Z"/><path class="cls-1" d="M1296,363.76l-86,85.17a58.25,58.25,0,0,0,5.3,11.56l26.72-26.4,62.37-61.85Z"/><polygon class="cls-1" points="1259.16 368.2 1242.11 368.13 1242.18 349.66 1230.26 349.61 1230.18 368.08 1213.13 368.01 1213.09 379.94 1230.13 380 1229.94 426.04 1241.92 414.18 1242.06 380.05 1259.11 380.13 1259.16 368.2"/><path class="cls-1" d="M1229.85,449.22l-.15,35.69c0,21.15-10.19,27-12.24,28l-.23.1a20,20,0,0,1-26.8-12.92,80.09,80.09,0,0,1-12.28-11,32.06,32.06,0,0,0,31.15,37.42h.13a32.49,32.49,0,0,0,12.32-2.47,32.17,32.17,0,0,0,13.36-10.11l.08-.09c7-6.59,6.44-23.08,6.43-23.25l.22-53.2Z"/><polyline class="cls-1" points="627.85 250.16 627.85 195.53 627.85 194.09"/><rect class="cls-1" x="627.1" y="194.09" width="1.5" height="56.06"/><path class="cls-1" d="M685.78,136.17a57.93,57.93,0,0,0-57.93,57.93,57.92,57.92,0,0,0-57.93-57.93Z"/><path class="cls-1" d="M628.6,194.09h-1.5a57.24,57.24,0,0,0-57.17-57.17v-1.5H685.78v1.5a57.18,57.18,0,0,0-57.18,57.17Zm-45.46-57.17a58.85,58.85,0,0,1,44.71,47.76,58.8,58.8,0,0,1,44.65-47.76Z"/><path class="cls-1" d="M685.78,308.08a57.93,57.93,0,0,1-57.93-57.93,57.92,57.92,0,0,1-57.93,57.93Z"/><path class="cls-1" d="M685.78,308.83H569.93v-1.5a57.24,57.24,0,0,0,57.17-57.18h1.5a57.18,57.18,0,0,0,57.18,57.18Zm-102.64-1.5H672.5a58.8,58.8,0,0,1-44.65-47.76A58.85,58.85,0,0,1,583.14,307.33Z"/><polyline class="cls-1" points="655.88 222.13 601.26 222.13 599.82 222.13"/><rect class="cls-1" x="599.82" y="221.38" width="56.06" height="1.5"/><path class="cls-1" d="M541.9,164.2a57.93,57.93,0,0,0,57.93,57.93,57.92,57.92,0,0,0-57.93,57.93Z"/><path class="cls-1" d="M542.65,280.05h-1.5V164.2h1.5a57.18,57.18,0,0,0,57.17,57.17v1.5A57.24,57.24,0,0,0,542.65,280.05Zm0-102.57v89.36a58.85,58.85,0,0,1,47.76-44.71,58.8,58.8,0,0,1-47.76-44.65Z"/><path class="cls-1" d="M713.81,164.2a57.93,57.93,0,0,1-57.93,57.93,57.92,57.92,0,0,1,57.93,57.93Z"/><path class="cls-1" d="M714.56,280.05h-1.5a57.24,57.24,0,0,0-57.17-57.18v-1.5a57.18,57.18,0,0,0,57.17-57.17h1.5ZM665.3,222.13a58.85,58.85,0,0,1,47.76,44.71V177.48a58.8,58.8,0,0,1-47.76,44.65Z"/></g></g></svg>