<svg width="600" height="339" viewBox="0 0 600 339" fill="none" xmlns="http://www.w3.org/2000/svg">
<rect width="600" height="338.053" fill="black"/>
<path d="M190.501 177.966V127H178V178.674C178 198.14 191.692 211 209.551 211C218.242 211 225.981 207.697 231.577 201.916V209.584H243.959V127H231.458V177.966C231.458 191.062 222.529 199.91 210.98 199.91C199.312 199.91 190.501 191.298 190.501 177.966Z" fill="white"/>
<path d="M253.769 209.584H265.675V202.034C271.152 207.579 278.891 211 287.344 211C305.203 211 319.252 196.961 319.252 179.618C319.252 162.157 305.203 148.118 287.344 148.118C278.891 148.118 271.271 151.539 265.794 157.084V127H253.769V209.584ZM265.556 179.618C265.556 167.938 274.962 158.736 286.511 158.736C297.941 158.736 307.346 167.938 307.346 179.618C307.346 191.18 297.941 200.5 286.511 200.5C274.843 200.5 265.556 191.18 265.556 179.618Z" fill="white"/>
<path d="M323.904 179.5C323.904 197.433 337.953 210.882 356.17 210.882C367.242 210.882 376.291 206.045 382.363 198.022L373.672 191.652C369.147 197.669 363.194 200.5 356.17 200.5C345.93 200.5 337.715 193.185 336.048 183.393H385.459V179.5C385.459 161.567 372.6 148.236 355.098 148.236C337.358 148.236 323.904 162.511 323.904 179.5ZM354.86 158.618C363.79 158.618 371.29 164.753 373.314 173.955H336.287C338.43 164.753 345.93 158.618 354.86 158.618Z" fill="white"/>
<path d="M423 160.034V148.944H418.833C412.166 148.944 407.284 152.011 404.308 156.848V149.416H392.401V209.584H404.427V175.371C404.427 166.051 410.141 160.034 417.999 160.034H423Z" fill="white"/>
</svg>
