<svg xmlns="http://www.w3.org/2000/svg" viewBox="0 0 273.95 544.54" preserveAspectRatio="none"><defs><style>.cls-1{fill:#fff;}</style></defs><title>vase_2</title><g id="Layer_2" data-name="Layer 2"><g id="Layer_1-2" data-name="Layer 1"><path class="cls-1" d="M221.9,327.85l.77,1.05c2.08-3,4.15-6,6.3-8.95,5.79-7.78,11.64-15.71,17.87-23.22q6.71-7.87,13.73-15.59l.75-3.4Q243.82,298,227.8,318.51C225.65,321.35,223.84,324.73,221.9,327.85Z"/><path class="cls-1" d="M160.74,220q2.87-2.75,5.78-5.52a13.85,13.85,0,0,1-1.62.05c-2.25-.05-4.56-.54-6.89-.59a11.07,11.07,0,0,0-6.32,1.55Z"/><path class="cls-1" d="M219,307.45a134.53,134.53,0,0,0,12.57-13.94c8.37-10.83,16.71-22.1,25.53-33.07,1.74-2.13,3.89-3.69,5.8-5.63,1.33-1.34,2.61-2.77,3.91-4.19l.32-1.71C247.91,264.93,235.15,289.44,219,307.45Zm43.51-53.32c-.74.75-1.53,1.46-2.31,2.15-.44.4-.89.79-1.33,1.21q2.52-2.58,5.18-5C263.59,253.06,263.07,253.6,262.56,254.13Z"/><path class="cls-1" d="M253.22,312.39l.95-3.87c-9.3,11.84-17.68,24.74-25.73,37.67C236.31,334.73,244.5,323.34,253.22,312.39Z"/><path class="cls-1" d="M265.65,211.23c-2.89,7.41-5.13,15.08-8.33,22.3-5.17,11.95-12.28,21.72-22,27.42-2.82,1.68-5.89,2.26-8.73,3.77-3.88,2.08-7.17,8.7-6.77,13.89.3,4-.77,7.18-2.4,10.79a64.86,64.86,0,0,0-6,24.32c1.26-1.42,2.11-2.24,2.87-3.23,4.39-5.64,8.88-11.26,13.37-17,1.4-1.77,2.57-3.9,3.89-5.83A329.68,329.68,0,0,1,267.88,245c3-17,5.11-32.37,5.83-45.14C269.53,201.73,267.46,206.67,265.65,211.23Z"/><path class="cls-1" d="M246.29,237c-5.34,4.81-10.55,9.58-15.68,14.34l1,1.6C236.41,247.6,241.28,242.31,246.29,237Z"/><path class="cls-1" d="M239.87,205.38q-1-8.73-2-17.46A29.08,29.08,0,0,0,239.87,205.38Z"/><path class="cls-1" d="M220.52,264.65a54,54,0,0,0-3.59,4.19,8,8,0,0,0-1.19,8.06c2.78-9.53,3.28-8.57,8.19-14.06,2.78-3.07,3.09-5.2.72-9A14.45,14.45,0,0,1,220.52,264.65Z"/><path class="cls-1" d="M234.9,223.12c-1.65,4.91-3.27,9.78-5.13,15.46C233.94,233.53,234.83,228.37,234.9,223.12Zm-2.32,9.3.69-2.07A19.68,19.68,0,0,1,232.57,232.41Z"/><path class="cls-1" d="M240.4,223.53q.12-6.25.21-12.51h-1.13q0,6.34-.06,12.68Z"/><path class="cls-1" d="M257.08,179.88c-6.22.87-10.31,5.93-10.78,12.94a18.74,18.74,0,0,0,0,3.59c1,7.74,3.94,14.83,1.3,23.68l1.32.11c1.09-2.23,2.32-4.4,3.26-6.69,1.05-2.56,1.84-5.24,2.74-7.87,3.6-10.32,10.4-16.82,19-18.4,0-1.12-.07-2.21-.13-3.27-.13-2.24-.33-4.45-.58-6.62-1.29,1.34-3.24,1.87-6.27,2C263.67,179.48,260.38,179.42,257.08,179.88Z"/><path class="cls-1" d="M231.47,0h-189L96.59,69.74s-74.72,36.79-90.81,85c3.21,1.06,6.16,2.36,8.07,7.08,2.34-2.95,5.15-4.42,8.42-4.34a14.06,14.06,0,0,1,5.48,1.39c1.61.74,4,2.54,4.28,3.86a4.84,4.84,0,0,1-2.17,4.39c-1.81,1-4.25.9-7.36,1.43l1.34-3.77-.53-.87c-1.55.63-3.65.74-4.5,2a8.07,8.07,0,0,0-.53,5.75c.3,1.16,2.38,2.73,3.73,3.27,3.21,1.28,6.47,2,9.69,3.06,1.24.4,2.47,1,3.7,1.57l-.07,1-4.85-1c6.52,4.8,12.93,6.54,19,9.54a30.57,30.57,0,0,0,12.94,3.29,29.56,29.56,0,0,0,6.23-.52c5.51-1,10.5-3,12.11-10.12,1-4.47-1.17-9.39-5.72-12.6a6.68,6.68,0,0,0-3.7-1.16,8.23,8.23,0,0,0-6.93,3.58l3.84-1.75c-2.56,3.72.78,3.07,1.94,4.39A3.75,3.75,0,0,1,66.49,177a6.67,6.67,0,0,1-2.23-.49,7.42,7.42,0,0,1-3.55-3.75c-1.12-3.1.45-5,2.68-5.84a15.93,15.93,0,0,1,6.28-1.13,22.17,22.17,0,0,1,11.67,4.12c4.79,3.22,6.44,9.44,4.53,15.29C83.07,194,77.82,199,68.51,198.8l-.66,0c-10.16-.49-19.9-5.09-29.89-9.85a102.62,102.62,0,0,0-15.76-6.39,30.72,30.72,0,0,0-7.5-1.17A19.6,19.6,0,0,0,.05,186.92c-.14,4.78,0,10.14.43,16a3,3,0,0,1,2.74-1.68,7.79,7.79,0,0,1,4,1.73c.42-.85.78-1.51,1.09-2.2.88-1.94,2.19-2.85,3.66-2.82,1.93,0,4.11,1.73,5.87,4.88a11.4,11.4,0,0,0,3.34,3.87,13.63,13.63,0,0,1,6.47,9.74c.24,1.73.33,3.44.6,6.34a7.48,7.48,0,0,1,5.43-2.29c3.62.08,7.23,2.89,10.66,5.94,2.12,1.89,3.48,5.35,4.71,7.35l-5.37,3.45c4.13,10.36,10.94,14.79,17.37,19.44a11.16,11.16,0,0,0,6.36,2.3c4.23.1,8.24-2.52,11.06-6.5,3.26-4.51,2.95-13.66-.6-19.56-2.48-4.07-5.69-6.76-9.46-6.84-.25,0-.5,0-.75,0a4.89,4.89,0,0,0-3.48,2.36c-.41.68.26,2.71.78,4,.14.36,1.46.16,2.24.37s1.94.34,2.52,1a5,5,0,0,1,1,3.18c-.49,2.7-2,3.71-4,3.66a7.13,7.13,0,0,1-1.15-.13c-3.44-.64-6.71-3.74-8.09-7.54-1.83-5-1.12-10.16,1.85-13.17a10.38,10.38,0,0,1,7.8-2.91c3.87.09,8.23,1.82,12.33,5.11A26.54,26.54,0,0,1,89,239a77.17,77.17,0,0,1,1.14,11c.12,6.06-.6,11.66-4.79,14.63-.7.5-1,1.73-1.89,3.22.76,0,1.27.12,1.62.12a.74.74,0,0,0,.47-.11,31.41,31.41,0,0,1,19.35-6.14,36.38,36.38,0,0,1,10.07,1.72,56.05,56.05,0,0,1,9.67,4.6,9,9,0,0,0,4.12,1.24c2.13,0,4.09-.94,5.94-3,3.37-3.73,7.41-5.5,11.53-5.4a17,17,0,0,1,11.14,5c2.25,2.13,5.25,3,8,3.88,5.72,1.83,11.48,3.27,17.19,4.87l-.2,1.84c-1.75,0-3.5-.13-5.25-.17-1.19,0-2.37,0-3.56,0a13.29,13.29,0,0,0-5.62,1,8.45,8.45,0,0,1-4.05,1.06,7.53,7.53,0,0,1-4.72-2,47.94,47.94,0,0,0-6.37-4.52,8.62,8.62,0,0,0-4.13-1.34c-2.9-.07-5.3,2-7.35,5.94-1.89,3.73-5.61,7.21-10.23,7.11a10.68,10.68,0,0,1-5.1-1.54,40,40,0,0,0-12.13-4.8,11.57,11.57,0,0,0-1.88-.2c-5.64-.13-9.68,4.14-13.19,9.16l.35,1.17c1.71-.33,3.42-.71,5.14-1a37.77,37.77,0,0,1,6.75-.47c9.16.22,17.78,4.07,25.43,13.22,2.66,3.26,5.16,6.75,7.6,10.26,2.13,3.09,4.84,4.79,7.65,4.86a8,8,0,0,0,4.18-1.12c3.34-1.9,6.57-4.71,10.25-4.62a7.22,7.22,0,0,1,2.8.65l.11,0c.5,0,1.32-1.14,1.89-1.83a47,47,0,0,1,3.67-4.53c3.17-2.85,7-4.14,9-9.71a7.1,7.1,0,0,1,3.89-3.6c5.79-2.31,8-12.71,2.89-19.36a55.58,55.58,0,0,0-5.07-5.33c-3.09-3-5.8-6.39-6.95-11.6-.2-.91-1.13-1.6-1.83-2.18-2-1.59-4.26-2.66-5.92-4.66-3-3.58-5.66-7.69-8.6-11.69,1.15-1.91,2.73-4.5,4.7-7.71a61.86,61.86,0,0,0-6.55,1.84,3.08,3.08,0,0,1-1.24.27c-1.59,0-2.06-1.95-2.53-3.91-1.63.7-1.07,4.33-3,4.28a2.64,2.64,0,0,1-1.06-.3c-1.66-.8-3.55-.83-5.34-1.21a11.42,11.42,0,0,0-1.92-.48l-.29,0a3.74,3.74,0,0,1-.69.05c-2.37-.05-2.94-2.71-4.18-4.8a38.19,38.19,0,0,0-5.88-7,.78.78,0,0,0-.56-.2c-.53,0-1.24.24-1.8.28l-.16,1.07a40.72,40.72,0,0,1,4.89,2.6c.75.53,1.2,1.78,1.78,2.7l-1.54,1.28,3.28,5.28-.77,1a43.23,43.23,0,0,1-3.23-3.27c-2.11-2.6-4.36-4.29-7.05-4.35a7.49,7.49,0,0,0-2.43.36c-2.08.65-3.1,1.61-2.82,4.6.13,1.44-.68,2.93-1.34,5.5,3.64,2,8.16,4.53,12.64,7q0,.91,0,1.83l-4.54.66v0a8.7,8.7,0,0,1-5.64,1.57,18.18,18.18,0,0,1-11.06-4.42,9.3,9.3,0,0,0-3.16-1.82c-1.9-.61-3.12-1.61-3.45-4.38-.15-1.25-1.32-2.4-1.83-3.7s-1.3-3.08-1.14-4.34a3,3,0,0,1,2.42-2.1c3.93-.1,6.69-1.39,6.52-7.16a2.83,2.83,0,0,1,1.65-2.34c4.29-.53,8.63-.88,13-1h.1c1.09,0,2.25,1,3.39,1.33h0c.16,0,.45-.75.83-1.4l-2.27-1.08c.4-3.67,1-7.12,1.08-10.63,0-3-3.71-5.63-7-5.7h-.54c-.37,0-.75,0-1.13,0-1.57,0-3.17-.32-4.76-.45l-.74-1.4c-1.73,4.7-3.42,9.4-5.37,14.88-.93-1.87-2.12-3.36-2.4-5-.79-4.54-1.13-9.13-1.81-13.68a5.76,5.76,0,0,0-1.5-3.12c-2-1.75-2.17-3.34-.6-5,3.27-3.39,7-5.9,11.79-6h.36a5.63,5.63,0,0,1,5.52,3.87c1.69,4.17,2.58,5.68,5.12,5.74a13.89,13.89,0,0,0,2.79-.31,7.26,7.26,0,0,1,1.51-.14c2.93.07,4.37,2.27,5.64,5.31a3.17,3.17,0,0,1,.27,1.11c.08,4.69,1.13,6.17,4.82,6.79a5.72,5.72,0,0,0,.81.08,8.83,8.83,0,0,0,7.61-4.71c1.76-3.69.47-6.75-1.7-9.6a52.27,52.27,0,0,0-3.87-4.51l3.81-2.49-.41-1.48-15.95,2.48c.55-2.67,2.29-4.3,7.64-6.61,3.29-1.41,7.24-1.26,9.58-5.15.22-.37.94-.53,1.64-.52a3.15,3.15,0,0,1,1.07.2c3.31,1.36,6.77,2.54,9.71,4.61,2.64,1.87,2.81,5.85.82,8.54-1.35,1.83-1.21,2.91.4,4.25a12.78,12.78,0,0,1,2.69,3.11c1.28,2.11,1.42,4-1.24,4.9a9.8,9.8,0,0,0-2.93,1.92c-2.67,2.32-2.55,5.19.16,7.51a10.47,10.47,0,0,0,6.7,2.71,13.7,13.7,0,0,0,8.8-3.39c1-.82,1.65-2.24,3.08-4.25l-2.59-1.73,3.06-2.94a40.2,40.2,0,0,0-2.8-6.16c-1.12-1.68-2.8-2.87-4.06-4.63h.82c4.53.11,8.28,2.41,11.85,5.14,2.9,2.23,5.8,4.45,8.47,7a4.67,4.67,0,0,1,1.19,3.71c-.89,2.68-.13,6.65-3.69,7.57a10.13,10.13,0,0,1-2.71.44l-.31,0-.8,0c-2.23-.05-3.93.7-5.49,3.51-.89,1.62-3.63,2-5.6,2.5a6.13,6.13,0,0,1-1.63.14l-1.55-.07a5.79,5.79,0,0,0-1.75.18,4.37,4.37,0,0,0-2.64,2.64,4.56,4.56,0,0,0,1.13,3.67,97.27,97.27,0,0,0,9.3,5.25c1.12.58,2.37.78,3.5,1.39-2,.36-3,1.15-4.61,1.11-1.79,0-4.3-1.11-9.66-5a7.53,7.53,0,0,0,5.19,6.32c4.22,1.14,8.42,2.31,12.63,3.47l-.71-3.11c3.45.74,6.63,1.19,9.67,2.17,1.73.56,3.88,1.3,3.23,4.74l-.08-.11h0l.07.1h0c1.9,2.64,3.8,5.26,5.61,8,.39.58.28,2.34.82,2.36.25,0,.63-.35,1.26-1.34a.1.1,0,0,1,.09,0,3.5,3.5,0,0,1,.76.27,12.31,12.31,0,0,0,4.21.9c4.73.11,8.85-3.08,12.06-9.53,2.22-4.4,3.9-9,3.19-14.07s-3.89-8.06-7.61-8.15a8.21,8.21,0,0,0-5.26,1.92,6.4,6.4,0,0,0-1.83,4.55c.14,1,.46,1.34.86,1.35.6,0,1.41-.73,2.16-1.22a1.26,1.26,0,0,1,.7-.15c.64,0,1.39.29,1.44.59.37,2.15,1,4.59.42,6.63-.6,2.22-2.07,3.38-3.81,3.34a4.35,4.35,0,0,1-1.38-.27c-4.22-1.52-8-3.89-8.84-9.83-.75-5,.3-10,4.14-13.2,2.28-1.88,5.34-3.55,7.89-3.49h.05c5.27.17,10.39,1.59,14.65,2.34,0-4.43-.54-10.18.23-15.87,1.34-9.86,6.69-19.08,18.84-19.08l1.55,0c2.46.06,4.9.25,7.32.49l.57,0c2.13.05,3.73-.91,5.07-3.32a12.25,12.25,0,0,1,4.18-4.76C256,108.84,177.39,69.74,177.39,69.74ZM133.21,216.72l-.3-.14a3,3,0,0,1,.6-.08h.1l.48.49.29.29Z"/><path class="cls-1" d="M190.72,191.47c-.95-3.36-6-7.44-9.06-7.52h-.23c2.22,4.68,4.4,9.36,6.71,14.39C190.25,196.56,191.58,194.55,190.72,191.47Z"/><path class="cls-1" d="M154.23,169.16a23.77,23.77,0,0,0-3.07.16,20.81,20.81,0,0,0-11.38,5c.74,0,1.47-.12,2.19-.2,2.32-.28,4.58-.7,6.86-1,1.15-.17,2.31-.32,3.47-.46l5.44-.62.44-1C156.87,170.38,155.58,169.18,154.23,169.16Z"/><path class="cls-1" d="M130.31,242l.05.12.1-.08Z"/><path class="cls-1" d="M153.69,179.44c.77.09,1.59.32,2.35.34,1.46,0,2.71-.7,2.9-4.61l-5.79,2.91Z"/><path class="cls-1" d="M225.56,399.63c-1,4.13-.21,7.2,1.82,7.26l.2,0q2.6-8.92,5.2-18c-.69.47-1.38,1-2.06,1.45C228.13,392.2,226.57,395.51,225.56,399.63Z"/><path class="cls-1" d="M211.75,296.22q-1.48,6.14-2.94,12.28l.91.28q1.4-6.16,2.83-12.32Z"/><path class="cls-1" d="M129.07,239.42a17.84,17.84,0,0,0-3.87-1.93c-4.81-2.11-8.5-6.14-11.13-11.94-3.44,4.76-2,10.79,3,12.89,4.3,1.79,8.8,2.44,13.2,3.57C129.93,241.08,129.66,239.87,129.07,239.42Z"/><path class="cls-1" d="M220.81,361.84c-2.21,3.59-4.49,7-6.7,10.52a4.14,4.14,0,0,0,.32.67h0a5.34,5.34,0,0,1,3.53-1.46c1.83,0,3.39,1.42,5,3.11a5.9,5.9,0,0,0,4.23,2.09c2.69.07,5.61-1.79,8.48-4.39.82-.73,1.61-1.51,2.38-2.32,5-18.18,9.92-36.57,14.38-54.5q-4.39,5.45-8.6,11.08C235.71,338.1,228.21,350.12,220.81,361.84Z"/><path class="cls-1" d="M193.29,227.55A5.5,5.5,0,0,0,189.5,229c9.17.88,12.49,9,15.52,17.11l4.43.1a70.53,70.53,0,0,1-5.11-6.36,72,72,0,0,1-3.7-7.44C198.4,229.36,195.78,227.61,193.29,227.55Z"/><path class="cls-1" d="M220.49,329.83q-3.56,5.1-7,10.21l.44.82c2.31-3.48,5.32-5.95,7.13-10.23Z"/><path class="cls-1" d="M163.13,414.87c4.24.13,8.49-1.35,12.72-3.76,3.22-1.82,6.3-4.89,9.45-7.82a14.47,14.47,0,0,1-3.16,2.16,128.2,128.2,0,0,1-16.3,6.49,7.71,7.71,0,0,1-2.46.3,21.18,21.18,0,0,1-5.3-1.11c-1.51-.45-2.91-2.22-4.42-3.43-.52,3.72-.52,3.71,1.17,4.69A17.26,17.26,0,0,0,163.13,414.87Z"/><path class="cls-1" d="M205,370.13c1.27.1,2.54.29,3.79.32,2.83.08,5.59-.64,8.16-5,3.09-5.2,6.37-10.2,9.64-15.29l-.47-.74c-2.82,4-5.71,7.83-8.32,12-3,4.91-6.29,7.29-10.1,7.46C206.78,368.89,205.85,369.68,205,370.13Z"/><path class="cls-1" d="M183.18,422.32l-.43-1.12q-4.19,5.86-8.23,11.71l.38,1Q179,428.11,183.18,422.32Z"/><path class="cls-1" d="M193.71,367.12c-.62.41-1.53.55-1.82,1.27-1.54,3.94-4,5.26-6.26,6.9-.77.55-1.67.65-2.35,1.39-4.31,4.69-8.62,7.91-13.74,8.67a51.31,51.31,0,0,1-8.86.85,16.74,16.74,0,0,1-9.86-3.34C144.06,378,139,371,138.14,358a10.59,10.59,0,0,0-.37-2.79,11.94,11.94,0,0,0-1.5-2.34c-.3.94-1,2-.85,2.8,1.16,7.2,2.36,14.4,6,19.72,4.63,6.86,9.66,11.53,15.64,13a34.79,34.79,0,0,0,7.17,1.14,15.12,15.12,0,0,0,8.8-2.32,122.49,122.49,0,0,0,13.73-10.33c2.52-2.1,4.79-5.32,7.21-8Z"/><path class="cls-1" d="M178.51,436c4.77-6.67,10.56-11.36,14.45-21.73C187.76,421.82,183.06,428.89,178.51,436Z"/><path class="cls-1" d="M193.11,394.26c-1,5.52-1.93,11-3.07,17.64,3.38-5.79,2.91-11.82,3.67-17.46Z"/><path class="cls-1" d="M163.26,439.74c.43.06.86.09,1.28.11,3.24.11,6-1.1,8.58-4.91C169.94,436.48,166.78,438,163.26,439.74Z"/><path class="cls-1" d="M165.67,445.37l6.95-2.15-.06-1.37-6.86,2.74Z"/><path class="cls-1" d="M191.8,391q-1.79,4.85-3.54,9.69C190.78,399,192.12,395.89,191.8,391Zm-.88,4,.26-.7a8.13,8.13,0,0,1-1.42,3.87Z"/><path class="cls-1" d="M183.9,419c3.06-3.69,5.51-8.1,6.33-15.87-1.2.89-2,1.51-2.77,2.05-4.49,3.15-8.82,7.21-13.29,9.2a28.07,28.07,0,0,1-12.28,2.85,19,19,0,0,1-7-1.56,2.81,2.81,0,0,0-1-.28c-.65,0-1.11.52-1.18,2.57-.26,7.76,1.81,14.58,5.58,17.15a10.67,10.67,0,0,0,5.68,2.07c3.64.12,7.19-2.13,10.68-6.54C177.75,426.85,180.77,422.82,183.9,419Z"/><path class="cls-1" d="M188.26,400.68l-.12.08c-1,.81-1.9,1.66-2.84,2.53,1-.81,1.92-1.68,2.9-2.42Z"/><path class="cls-1" d="M195,346.35l.61.67q3.59-6.46,7.3-12.91l-.67-.8Q198.53,339.83,195,346.35Z"/><path class="cls-1" d="M206.5,351c-3.26.5-10.92,11.17-11,15.29C199.59,362.19,203.4,357.93,206.5,351Z"/><path class="cls-1" d="M205.61,380.26a5.37,5.37,0,0,0-4.67,3.52l6.43-2.87A2.85,2.85,0,0,0,205.61,380.26Z"/><path class="cls-1" d="M201,378l-.29-.49q-3,4.74-6,9.49l.69,1Q198.17,383,201,378Z"/><path class="cls-1" d="M192,263.84c-5.1-2.13-8.51-7.16-12-12.47a16.61,16.61,0,0,0,2.49,5.9c4.75,6.76,12.13,10.36,13.21,21.17C197.15,272,192.64,268.86,192,263.84Z"/><path class="cls-1" d="M151.59,422.63c.16-5.09.37-10.18.48-15.29.16-6.91-1.53-12.3-5-16.3,4.79,9.42,4,20.74,3.75,31.85Z"/><path class="cls-1" d="M148.67,422c-.78-7.18.83-14.82-1.82-21.65C148.07,407.49,145.79,415.27,148.67,422Z"/><path class="cls-1" d="M148.59,341.29a3.56,3.56,0,0,0,1.83.73c.77,0,1.46-.43,2.16-1.45a50,50,0,0,0,3.42-4.92c1.69-3.1,3.2-6.44,5-10.11-3.73.75-6.78,1.19-9.77,2s-4.2,3.86-4.22,8.82C147,338.34,146.85,340.11,148.59,341.29Z"/><path class="cls-1" d="M174.47,356.46c-2-.05-4.91,2.25-5.68,5,2.26-1.53,4.58-3.09,6.84-4.59A1.88,1.88,0,0,0,174.47,356.46Z"/><path class="cls-1" d="M189.69,356.76l-.33-1.43c-.21,0-.42-.06-.62-.07a.77.77,0,0,0-.35.06c-4.94,2.27-8.83,7.35-12.54,12.65-.37.53-.07,2.32-.08,3.53l.76.46Q183,364.36,189.69,356.76Z"/><path class="cls-1" d="M3.22,203a2.55,2.55,0,0,0-.57-.08c-1.85,0-2.27,2.42-1.55,4.89.81,2.8,2.56,5.54,4.93,5.6h.24a1.62,1.62,0,0,0,1.16-.85A5.33,5.33,0,0,0,6.86,206C5.49,204.48,4.32,203.28,3.22,203Z"/><path class="cls-1" d="M63.75,275.75c-.77,0-1.46.44-2,1.81l-1.12-2.42c-1.08,1.69-1.32,3,.8,3.91a47,47,0,0,0,7.21,2.67,23.22,23.22,0,0,0,4.72.69,10,10,0,0,0,7-2.31c3.75-3.15,4.2-9.45.4-14.07.1,5.09-.93,8.78-4.46,9.45a75.8,75.8,0,0,1-8.68.71l2.69,1.55a2,2,0,0,1-1.08.27C67.41,278,65.4,275.79,63.75,275.75Z"/><path class="cls-1" d="M58.42,273.08c-2.52,2.54-4.49,4.55-6.45,6.56l.89,1.36C55,279.21,58.58,279.64,58.42,273.08Z"/><path class="cls-1" d="M47.82,284.85c-.73-3.12-6.65-11-9.05-12a3.79,3.79,0,0,0,.17.79,14.52,14.52,0,0,0,1,1.31c3.87,4.38,7.16,8.9,7.92,15.53.2,1.75,2.31,3.86,3.54,5.81l.61-.84A26.21,26.21,0,0,1,49,290.85C48.32,289,48.29,286.85,47.82,284.85ZM46.34,283a9.35,9.35,0,0,1,.77,1.81Q46.76,283.83,46.34,283Z"/><path class="cls-1" d="M72.3,272.16l2.68-5.1C73.94,269,73.17,270.49,72.3,272.16Z"/><path class="cls-1" d="M72.3,272.16c2.21,0,4.2-.06,4.78-3.21a3.68,3.68,0,0,0-.19-1.09L75,267.07C76,268.15,72.3,272.16,72.3,272.16Z"/><path class="cls-1" d="M34.91,287.88a.89.89,0,0,1-.46.1c-1.07,0-2.87-1.37-4.11-2.45-.55-.47-.56-2.64-.82-4-.46,1.4-.67,3.88-.06,4.5,1.72,1.75,3.86,3.46,5.62,3.75h.07c.91,0,1.94-2.46,1.94-4.18,0-2.9-5.25-8.29-8-8.72a69.29,69.29,0,0,1,5,5.24C35.64,284.09,36.58,286.95,34.91,287.88Z"/><path class="cls-1" d="M31.44,337.93a6.27,6.27,0,0,0-1,.05c2.56,2.17,4.87,4.14,7.41,6.32C38,340.91,34.9,338,31.44,337.93Z"/><path class="cls-1" d="M27.28,338q1.91,7.31,3.89,14.65a2.71,2.71,0,0,0,.86.22c1.47,0,1.77-1.9,1-5C31.92,343.1,30,339.77,27.28,338Z"/><path class="cls-1" d="M85.31,252.45c-2.89,3.36-5.76,6.75-8.6,10.15C80.55,260.57,85.61,260.27,85.31,252.45Z"/><path class="cls-1" d="M55.54,423.33a3.83,3.83,0,0,0,3.18-1.9c1.4-2.11,3.13-3.05,5.09-3a9.69,9.69,0,0,1,5.11,2c4.31,3.08,8.54,7.12,12.71,10.75A77.21,77.21,0,0,0,88.22,437a5.79,5.79,0,0,0,3,1.05,4.31,4.31,0,0,0,1.19-.12c2.09-.52,2.17-3.62.61-7.49-1.2-2.94-2.14-6.16-3.3-9.18a6.49,6.49,0,0,0-1.65-2.61c-3.51-2.4-7.07-5.08-10.63-6.72-4.61-2.12-9.11-4.29-13.66-9.9-1.84-2.24-4-3.57-6-5.14-3.13-2.39-6.3-4.74-9.5-6.92-2.52-1.7-5.06-3-7.61-4.69l-.59-.39c3.62,12.77,7.28,25.35,10.88,37.5a28.51,28.51,0,0,0,4.34,1Z"/><path class="cls-1" d="M4.52,235.7a1.4,1.4,0,0,0,.16-.26c.89-2,.16-4.19-1.16-6.17Q4,232.44,4.52,235.7Z"/><path class="cls-1" d="M124,371.85c-.51-3.48-1.1-7.48-1.68-11.34C121.15,365.1,121.95,369.64,124,371.85Zm-1-3.07a12,12,0,0,1-.6-4Z"/><path class="cls-1" d="M127.32,417.4l-.13-1.2-7.64,1.45a6,6,0,0,0,3.8,1.91A5.1,5.1,0,0,0,127.32,417.4Z"/><path class="cls-1" d="M87.5,308.64a1.16,1.16,0,0,0,.42-.06c3.5-1.24,7.16-2.23,10.34-4.38,4.66-3.12,9.44-5.57,14.75-5.44a17.39,17.39,0,0,1,6.39,1.41,1.51,1.51,0,0,0,.56.11c.55,0,1.12-.2,1.68-.24a4.57,4.57,0,0,0-1.91-2.47,15.85,15.85,0,0,0-7.24-2c-4.46-.11-8.59,1.82-12.59,4.42A76.52,76.52,0,0,1,91,304.85,53.27,53.27,0,0,1,84.91,307v.73A12.14,12.14,0,0,0,87.5,308.64Z"/><path class="cls-1" d="M218.69,423.77c-1.2-.6-2.13-2.19-3.15-3.43-.32-.39-.41-1.38-.76-1.61-2.93-1.87-2.14-6.62-2-11.43a90.12,90.12,0,0,0-1.19-16.71c-.29-1.74-1.12-2.54-2.12-2.57s-2.46.91-3.5,2.58-2.29,2.49-3.4,3.84a9.48,9.48,0,0,0-1.94,3,80.73,80.73,0,0,0-2.67,10.1,61.9,61.9,0,0,1-12.82,28.82c-6,8-12,13.14-18.78,14a11.72,11.72,0,0,1-2,.1c-6-.22-11.11-5.19-15.79-13.14-1.16-1.93-1.82-5.28-2.43-8.17-1-4.76-2.4-8.22-5.29-8.31a4,4,0,0,0-.54,0h-.37a6.87,6.87,0,0,1-2.7-.91,9.65,9.65,0,0,0-4-1.12,7.9,7.9,0,0,0-5.36,2,7,7,0,0,1-4.78,1.7,12.4,12.4,0,0,1-5.76-2,6.42,6.42,0,0,0-3.08-1c-2.36-.08-4.39,1.45-6.28,3.5s-1.59,9.13,0,13.12c2,5,5.47,8.6,8.38,8.7a3.37,3.37,0,0,0,.76-.06c1.18-.23,2.48-.68,1.9-3.89-.37-2.07-1-3-1.73-3a2,2,0,0,0-1.31.64.41.41,0,0,1-.3.09,2.64,2.64,0,0,1-1.87-1.58,10.18,10.18,0,0,1,0-4.88c.61-1.39,1.43-1.85,2.34-1.82a6.12,6.12,0,0,1,2.6,1c2.87,1.63,5.13,5.63,5.45,9.48.42,5.12-1,9.5-3.73,10.89a8.06,8.06,0,0,1-4,.94c-3.81-.14-7.63-3.19-11.5-8.39-.83-1.1-1.6-2.4-2.56-3.83-.75,7.26-3.48,8.9-6.56,8.79a13.85,13.85,0,0,1-3-.51c-3.31-.87-7-4.21-10.49-7.17-4.1-3.41-8.19-7.88-12.41-11.37a7.41,7.41,0,0,0-4.14-2c-1.54-.05-2.82.92-3.7,3.23-.41,1.09-1,1.51-1.76,1.48A4.84,4.84,0,0,1,58.1,432c-1.74-1.14-3.5-2.25-5.26-3.35C72.21,493.5,89.49,544.54,89.49,544.54h95S202.62,491,222.56,423.92a5.44,5.44,0,0,1-2,.33A4.59,4.59,0,0,1,218.69,423.77Z"/><path class="cls-1" d="M128.85,323.14c-1-2.5-2.34-3.74-3.87-3.77a4.13,4.13,0,0,0-2.54.94,22.59,22.59,0,0,0-3.39,3.45c-4,4.77-8.14,9-13.68,8.9a11.22,11.22,0,0,1-1.7-.18c-5-.9-10-1.64-15.07-2.43-.84-.13-1.67-.21-2.51-.32L85.91,331c1,1.37,1.9,3.12,3,4,4.71,3.95,9.52,7.8,14.32,7.93a8.85,8.85,0,0,0,2.76-.36,105.56,105.56,0,0,0,17.51-7.51c2-1,3.83-3.43,5.23-5.9C129.43,328,129.46,324.73,128.85,323.14Z"/><path class="cls-1" d="M107.94,309.24l-7.75,3.3a5,5,0,0,0,2.57.87C104.7,313.47,106.5,312.05,107.94,309.24Z"/><path class="cls-1" d="M118.28,388.24l8.24,2.25c-1.73-2.42-3.73-3.69-5.44-3.74A3.17,3.17,0,0,0,118.28,388.24Zm5.72.61-3.79-1a2.91,2.91,0,0,1,.95-.12A5.06,5.06,0,0,1,124,388.86Z"/><path class="cls-1" d="M108.47,287.32c-4.1-.1-8.69,2.07-9.63,4.64l12.25-4.22A9.09,9.09,0,0,0,108.47,287.32Zm-2.91,1.3-3,1a13,13,0,0,1,3.27-1.13Z"/><path class="cls-1" d="M88.79,279a27.16,27.16,0,0,0-4.89,2.55,49.77,49.77,0,0,1-6.45,3.53,11.16,11.16,0,0,1-4.44.77A19.34,19.34,0,0,1,65.83,284a21.27,21.27,0,0,0-4.71-1c5.85,2.37,10.34,3.55,14,3.64C81,286.82,84.88,284.1,88.79,279Z"/><path class="cls-1" d="M131.41,189.69a12.71,12.71,0,0,0-2.48-.54c-1,0-2,.44-2.55,2.32l6.6,2.3,1-.59C133.15,192,132.38,189.91,131.41,189.69Z"/><path class="cls-1" d="M41.17,360.49a.6.6,0,0,1-.24,0,10,10,0,0,1-2.25-1c.88,3.68,2.22,6.17,4.48,7,6.34,2.43,12.59,4.33,18.83,7.24,5.16,2.43,10.28,6.21,15.34,9,4.14,2.31,8.16,4.09,11.91,4.2,3.26.09,6.35-1.07,9.21-4.26,1.83-2,4.28-2.86,6.61-3.61,2.73-.87,5.71-.65,8.42-1.65s5.09-2.89,7.72-4.44c-.63-4.54-1.28-9.16-2-14.14a17.86,17.86,0,0,1-7.64,1.42c-4.43-.12-9-1.65-13.52-3.54-9.68-4-18.16-13.37-26.69-23.8-6.57-7.8-13.31-15.83-21.71-19.47.73,8,1.24,15.6,7.23,22a11,11,0,0,0,8.29,3.9c4.61.17,8,3.63,10.52,10.05,2.77,7.22,6.59,11,11.27,13,4,1.73,8,4.08,12.28,6.32a7.12,7.12,0,0,1-4.59,1.61,8.11,8.11,0,0,1-2.81-.62,10.2,10.2,0,0,0-2.9-1.09,1.58,1.58,0,0,0-.35,0,6.91,6.91,0,0,1-1.54.13c-4.43-.12-8.15-4.64-11.76-10.22-2.37-3.62-4.94-5.9-7.82-6h-.39c-7.45-.2-13.68-6.44-19.21-16.77-2.36-4.33-4.63-8.76-7.12-13.41-.39,2.31-.43,4.49-1,6-1.49,3.77-3.32,5.62-5.88,5.56-1.66,0-3.63-.89-6-2.54-.94-.64-1.85-1.33-2.75-2.05l1,3.79a4.1,4.1,0,0,1,.85-.07,5.59,5.59,0,0,1,1.61.29c3.05,1,6.12,2.18,9.17,3.52,2.55,1.12,8,9.69,8.43,13.21a3.54,3.54,0,0,1-1,2.56c-1.19,1.33-2.84,1.91-1.85,5.76C43.38,359.13,42,360.16,41.17,360.49Z"/><path class="cls-1" d="M96.3,389.35q2.91-2.39,5.86-4.79l-.34-.94q-3,2.28-6,4.56Z"/><path class="cls-1" d="M4.65,178.12l19.94-1.21a47.21,47.21,0,0,0-7.84-.9A29.89,29.89,0,0,0,4.65,178.12Z"/><path class="cls-1" d="M4.61,164.26a8.08,8.08,0,0,0-1.19-1.46A112.63,112.63,0,0,0,.57,179.1c3.08-1.59,6.16-3.19,9.25-4.77C8.21,171.13,6.63,167.58,4.61,164.26Z"/><path class="cls-1" d="M117.81,222.84l6.48-3.46-.57-1.38-6.57,3.46Z"/><path class="cls-1" d="M144.63,201.21l-3.71.19-4.65-4.49c-.17,4.36.32,7.55,3,8a2.5,2.5,0,0,0,.4,0c1.73,0,3.62-1.62,5.43-2.43Z"/><path class="cls-1" d="M116.55,182.78c-2.24.78-5.55,1-6.34,2.87a19.68,19.68,0,0,0,.41,15.12c2.42-5.18,4.83-10.06,7.05-15.08.25-.57-1-2.91-1.12-2.91Z"/><path class="cls-1" d="M169.45,206l-4.95,1.34c-.25-1.39-.52-2.93-.9-5-.79.5-2.42,1.23-2.36,1.55.25,1.42.68,3.21,1.57,4a4,4,0,0,0,2.54,1.16C166.84,209.06,168.23,208,169.45,206Zm-4,2.07,1.19-.32A2.5,2.5,0,0,1,165.42,208.07Z"/><path class="cls-1" d="M168.42,227.81c.17-.14.33-.36.52-.41a7.54,7.54,0,0,1,1.23-.12l-.9-1.43L168,223.78a7.26,7.26,0,0,0-1,2.3c-.11,2.17,0,4.35,0,6.67C168.13,232.23,168.13,232.23,168.42,227.81Z"/><path class="cls-1" d="M13.85,173.15c-2.08-2.25-3.9-4.21-6.16-6.63C9.24,171.39,10.51,172.8,13.85,173.15Zm-3.8-3,1.19,1.29A4.06,4.06,0,0,1,10.05,170.19Z"/><path class="cls-1" d="M24.66,278.71c-2-2.11-3.91-3.75-5.25-5.71a52.65,52.65,0,0,1-3.4-6.77l-.95.3c2.73,4.76,5.44,9.52,8.73,15.36Z"/><path class="cls-1" d="M30.11,314.3A31.54,31.54,0,0,0,21.28,299c-1.61-1.57-3.23-3.12-4.86-4.68q1.15,4.92,2.35,9.92a15.43,15.43,0,0,1,2.9,5.69,12.68,12.68,0,0,1-.11,3.76l-.62-.55q.86,3.47,1.74,7a19,19,0,0,0,1.6,1.33,5.36,5.36,0,0,0,2.95,1.21C29.92,322.68,31.31,319.2,30.11,314.3Z"/><path class="cls-1" d="M148,219.21l-5.19,1.18-.23.71,4.71,2.21Z"/><path class="cls-1" d="M22.53,162.57a10.65,10.65,0,0,1,3.84.92,8.8,8.8,0,0,0-4.88-1.72c-3.7-.09-6.66,2.64-6,7C17,164.87,19.1,162.49,22.53,162.57Z"/></g></g></svg>