<svg width="600" height="339" viewBox="0 0 600 339" fill="none" xmlns="http://www.w3.org/2000/svg">
<rect width="600" height="338.053" fill="#2F2F2F"/>
<path d="M429.466 123C430.711 123.516 430.694 123.516 430.677 124.927C430.556 139.778 430.452 154.628 430.348 169.478C430.331 170.803 430.711 171.148 432.078 171.113C434.482 171.079 436.644 170.339 438.357 168.652C440.605 166.433 442.802 164.144 444.981 161.855C445.431 161.391 445.794 160.823 446.123 160.238C446.624 159.36 446.451 158.913 445.465 158.672C444.358 158.397 443.2 158.259 442.058 158.104C441.038 157.966 440.501 157.244 440.588 156.091C440.674 154.972 441.176 154.473 442.266 154.49C449.392 154.542 456.501 154.129 463.575 153.423C464.267 153.355 464.959 153.286 465.633 153.148C466.377 152.993 466.879 153.286 467.034 153.94C467.173 154.594 467.225 155.299 467.086 155.953C467.017 156.263 466.481 156.607 466.1 156.693C463.558 157.209 460.981 157.571 458.663 158.81C454.65 160.943 451.018 163.593 447.576 166.536C446.538 167.413 446.503 168.05 447.42 169.306C450.499 173.488 453.595 177.669 456.743 181.799C457.919 183.348 459.268 184.776 460.462 186.325C462.485 188.958 465.184 190.369 468.435 190.799C469.214 190.902 469.958 191.091 470.736 191.178C471.549 191.264 471.86 191.745 471.964 192.468C472.172 194 471.48 194.757 469.94 194.757C460.86 194.74 451.779 194.757 442.715 194.757C441.643 194.757 441.159 194.327 441.02 193.174C440.882 192.038 441.28 191.401 442.248 191.178C442.957 191.023 443.649 190.868 444.358 190.696C444.895 190.558 445.068 190.231 444.756 189.732C444.341 189.044 443.943 188.338 443.459 187.702C440.588 183.899 437.699 180.096 434.828 176.31C434.084 175.346 433.168 174.744 431.905 174.727C431.196 174.727 430.746 175.054 430.573 175.708C430.469 176.121 430.4 176.551 430.4 176.981C430.435 180.285 430.469 183.572 430.538 186.876C430.556 187.495 430.711 188.115 430.85 188.734C431.127 189.835 431.853 190.558 432.943 190.782C434.015 191.005 435.105 191.178 436.177 191.246C436.956 191.298 437.267 191.728 437.371 192.348C437.44 192.795 437.44 193.277 437.353 193.707C437.215 194.413 436.852 194.791 435.987 194.774C427.079 194.74 418.171 194.74 409.281 194.757C408.226 194.757 407.793 194.327 407.741 193.088C407.69 191.917 408.122 191.367 409.125 191.264C410.267 191.143 411.408 191.005 412.55 190.799C413.899 190.558 414.695 189.698 414.92 188.39C415.11 187.202 415.266 185.998 415.266 184.811C415.283 169.031 415.283 153.269 415.283 137.489C415.283 137.145 415.266 136.801 415.266 136.457C415.266 134.546 414.47 133.153 412.654 132.413C412.29 132.258 411.945 132.051 411.581 131.862C410.578 131.329 410.301 130.812 410.44 129.711C410.526 129.023 410.82 128.61 411.599 128.438C417.22 127.164 422.634 125.22 428.048 123.258C428.203 123.206 428.324 123.086 428.463 123C428.774 123 429.12 123 429.466 123Z" fill="white"/>
<path d="M171.383 171.836C170.362 173.678 169.376 175.398 168.46 177.136C165.329 182.97 162.216 188.821 159.137 194.671C158.791 195.308 158.341 195.773 157.649 195.824C156.629 195.91 155.591 195.91 154.57 195.824C153.844 195.773 153.394 195.256 153.066 194.568C147.617 183.865 142.151 173.161 136.686 162.475C136.392 161.89 136.011 161.34 135.665 160.789C134.852 159.516 133.676 158.741 132.206 158.414C131.652 158.294 131.082 158.139 130.528 158.001C129.075 157.64 128.487 155.764 129.525 154.646C129.75 154.405 130.234 154.302 130.597 154.302C134.402 154.37 138.208 154.56 142.013 154.543C156.854 154.491 171.694 154.37 186.535 154.284C187.123 154.284 187.797 154.13 188.091 154.87C188.455 155.764 188.472 156.676 187.953 157.502C187.797 157.726 187.365 157.812 187.054 157.881C185.635 158.208 184.182 158.466 182.764 158.862C181.64 159.171 181.501 159.464 181.847 160.565C182.21 161.684 182.643 162.785 183.144 163.835C185.48 168.653 187.866 173.454 190.236 178.255C190.305 178.375 190.374 178.496 190.547 178.771C191.481 176.689 192.415 174.745 193.228 172.748C194.716 169.083 196.152 165.401 197.587 161.718C197.604 161.667 197.639 161.615 197.656 161.563C198.366 159.24 198.175 158.879 195.806 158.294C195.166 158.139 194.508 157.984 193.851 157.915C193.177 157.846 192.848 157.502 192.796 156.883C192.761 156.349 192.761 155.799 192.848 155.283C192.969 154.577 193.401 154.25 194.197 154.267C198.884 154.353 203.589 154.422 208.277 154.457C209.349 154.457 210.404 154.388 211.476 154.284C212.359 154.198 212.791 154.629 212.912 155.403C212.998 155.919 212.964 156.487 212.895 157.003C212.808 157.52 212.462 157.864 211.892 157.898C211.684 157.915 211.494 157.967 211.286 157.984C208 158.277 205.959 160.066 204.54 162.992C199.455 173.523 194.249 183.985 189.129 194.499C188.662 195.48 187.97 195.859 187.002 195.945C186.535 195.979 186.085 195.962 185.618 195.962C184.321 195.979 183.508 195.463 182.885 194.207C179.218 186.842 175.43 179.546 171.677 172.215C171.625 172.163 171.538 172.06 171.383 171.836ZM161.506 178.961C163.444 175.244 165.277 171.768 167.024 168.274C167.439 167.448 167.681 166.502 167.837 165.573C168.425 162.131 166.228 159.017 162.752 158.604C160.555 158.346 158.324 158.397 156.11 158.38C155.228 158.38 154.328 158.518 153.463 158.724C152.166 159.034 151.941 159.447 152.305 160.703C152.495 161.357 152.702 162.028 152.996 162.63C155.262 167.122 157.563 171.613 159.863 176.104C160.33 176.999 160.866 177.842 161.506 178.961Z" fill="white"/>
<path d="M291.162 171.854C290.124 173.729 289.103 175.519 288.135 177.326C285.039 183.108 281.943 188.907 278.864 194.706C278.518 195.36 278.051 195.807 277.376 195.859C276.373 195.945 275.37 195.945 274.367 195.876C273.64 195.807 273.19 195.342 272.827 194.654C267.396 183.968 261.948 173.299 256.482 162.647C256.153 162.011 255.755 161.408 255.375 160.806C254.562 159.567 253.42 158.81 251.985 158.466C251.431 158.328 250.86 158.191 250.307 158.053C248.889 157.692 248.266 155.919 249.217 154.766C249.442 154.491 249.961 154.336 250.324 154.353C254.13 154.405 257.935 154.611 261.74 154.594C276.563 154.542 291.369 154.422 306.175 154.336C306.781 154.336 307.507 154.112 307.818 154.921C308.164 155.816 308.182 156.728 307.663 157.554C307.524 157.778 307.075 157.864 306.763 157.932C305.328 158.259 303.892 158.518 302.474 158.913C301.367 159.223 301.194 159.533 301.592 160.617C302.249 162.389 302.958 164.144 303.771 165.848C305.777 169.995 307.87 174.125 309.929 178.255C309.998 178.41 310.101 178.547 310.257 178.806C310.845 177.549 311.416 176.396 311.918 175.209C313.665 170.993 315.377 166.777 317.089 162.561C317.349 161.907 317.539 161.202 317.695 160.496C317.937 159.43 317.764 159.068 316.743 158.741C315.74 158.414 314.702 158.156 313.647 157.984C312.904 157.864 312.575 157.485 312.54 156.814C312.506 156.384 312.488 155.954 312.558 155.541C312.696 154.646 313.111 154.336 314.028 154.353C318.784 154.405 323.541 154.474 328.28 154.508C329.284 154.508 330.304 154.439 331.307 154.336C332.051 154.267 332.501 154.594 332.622 155.265C332.726 155.816 332.743 156.401 332.691 156.952C332.622 157.554 332.259 157.932 331.601 157.95C331.463 157.95 331.324 158.001 331.169 158.001C327.831 158.294 325.72 160.083 324.285 163.078C319.234 173.592 314.028 184.037 308.925 194.516C308.458 195.48 307.784 195.91 306.798 195.979C306.244 196.013 305.708 195.996 305.155 195.996C303.978 195.979 303.252 195.48 302.699 194.361C299.032 187.031 295.278 179.735 291.559 172.439C291.456 172.249 291.335 172.094 291.162 171.854ZM281.13 178.668C281.251 178.685 281.354 178.702 281.476 178.72C283.395 174.934 285.385 171.2 287.183 167.362C287.668 166.347 287.72 165.074 287.702 163.921C287.668 161.563 285.298 158.862 283.101 158.655C280.87 158.449 278.622 158.363 276.373 158.363C275.214 158.363 274.021 158.586 272.879 158.844C272.014 159.034 271.789 159.533 272.032 160.41C272.205 161.099 272.395 161.804 272.706 162.441C274.937 166.898 277.203 171.337 279.486 175.777C279.988 176.758 280.576 177.704 281.13 178.668Z" fill="white"/>
<path d="M350.265 195.892C344.955 195.823 339.178 194.808 334.024 191.573C327.503 187.495 324.562 181.506 324.943 173.935C325.306 166.69 328.765 161.115 334.992 157.57C345.63 151.496 356.665 151.306 367.475 157.019C375.484 161.235 378.511 168.91 377.455 177.273C376.348 186.066 370.9 191.229 362.84 194.051C359 195.393 355.004 195.875 350.265 195.892ZM360.747 179.975C360.989 177.153 360.903 174.296 360.557 171.474C360.418 170.442 360.263 169.323 360.055 168.222C359.502 165.245 358.464 162.405 356.336 160.134C353.188 156.761 348.138 156.796 345.163 160.323C344.142 161.545 343.329 163.059 342.828 164.574C341.184 169.53 341.323 174.623 342.205 179.699C342.706 182.642 343.64 185.43 345.509 187.821C347.601 190.506 350.334 191.762 353.759 191.143C356.924 190.575 358.602 188.389 359.623 185.567C360.263 183.812 360.574 182.022 360.747 179.975Z" fill="white"/>
<path d="M232.423 170.786C228.669 170.786 224.933 170.786 221.18 170.786C220.868 170.786 220.54 170.803 220.228 170.82C219.052 170.906 218.793 171.182 218.758 172.369C218.603 179.665 223.792 185.739 231.246 186.996C233.945 187.46 236.626 187.529 239.307 186.858C241.832 186.221 243.856 184.845 245.447 182.797C246.07 182.005 246.883 181.919 247.92 182.59C248.872 183.21 249.166 184.139 248.664 185C246.018 189.422 242.282 192.657 237.387 194.275C228.687 197.165 220.263 196.426 212.618 191.229C206.633 187.15 204.108 181.145 204.54 173.986C205.128 164.178 212.341 156.142 222.84 153.802C228.341 152.563 233.841 152.614 239.134 154.817C243.769 156.744 246.934 160.031 247.92 165.09C248.093 165.985 248.163 166.914 248.128 167.826C248.059 169.581 247.229 170.407 245.482 170.631C244.859 170.717 244.219 170.751 243.579 170.751C239.86 170.786 236.141 170.786 232.423 170.786ZM226.49 166.209C226.49 166.26 226.49 166.295 226.49 166.346C227.701 166.346 228.911 166.432 230.122 166.329C231.264 166.226 232.388 165.968 233.495 165.727C234.291 165.555 234.654 164.97 234.81 164.212C235.415 161.287 233.754 158.585 230.814 157.949C227.13 157.14 223.965 158.276 221.457 161.012C220.713 161.821 220.177 162.922 219.813 163.972C219.329 165.434 219.831 166.105 221.37 166.191C223.1 166.277 224.795 166.209 226.49 166.209Z" fill="white"/>
<path d="M388.023 194.499C383.716 194.62 379.029 194.723 374.324 194.878C373.632 194.895 373.217 194.62 373.113 194.052C373.01 193.432 373.01 192.761 373.096 192.124C373.165 191.591 373.563 191.35 374.151 191.316C375.154 191.264 376.158 191.161 377.161 191.006C378.752 190.748 379.513 190.025 379.773 188.459C379.98 187.255 380.084 186.016 380.101 184.777C380.136 178.702 380.118 172.611 380.136 166.536C380.136 166.45 380.118 166.364 380.136 166.278C380.309 163.714 379.357 161.856 376.849 160.858C375.864 160.462 375.535 159.67 375.691 158.707C375.794 158.036 376.106 157.606 376.867 157.416C381.831 156.126 386.709 154.577 391.396 152.478C391.863 152.271 392.33 152.03 392.797 151.806C393.541 151.445 394.457 151.548 395.011 152.168C395.184 152.357 395.27 152.719 395.253 152.994C395.167 154.164 394.959 155.334 394.924 156.504C394.907 156.917 395.132 157.502 395.461 157.709C395.72 157.881 396.343 157.76 396.689 157.571C398.384 156.59 399.992 155.472 401.705 154.543C403.919 153.321 406.271 152.65 408.848 153.131C411.668 153.665 413.536 155.627 413.812 158.328C414.106 161.15 412.705 163.594 410.059 164.661C407.257 165.796 404.593 165.676 402.068 163.749C400.996 162.923 399.733 162.252 398.47 161.753C397.087 161.202 396.152 161.701 395.772 163.146C395.478 164.265 395.27 165.452 395.27 166.622C395.218 172.852 395.236 179.064 395.27 185.293C395.27 186.257 395.374 187.237 395.547 188.201C395.893 190.094 396.671 190.799 398.609 191.006C399.923 191.144 401.255 191.299 402.57 191.333C403.417 191.35 403.798 191.763 403.867 192.503C403.919 193.002 403.901 193.536 403.78 194.035C403.642 194.654 403.244 194.947 402.518 194.929C397.813 194.723 393.108 194.62 388.023 194.499Z" fill="white"/>
</svg>
