<svg xmlns="http://www.w3.org/2000/svg" viewBox="0 0 881.22 806.77"><title>ya_tou</title><g id="Layer_2" data-name="Layer 2"><g id="Layer_1-2" data-name="Layer 1"><path d="M881.22,415.48c0-54.47-37.54-98.78-83.68-98.78a71.36,71.36,0,0,0-15,1.58c-4-27.71-15.35-81.83-47-136.43C703.25,126.11,644.31,62,539.19,36.78a118.78,118.78,0,0,0-165.59-6.1c-125.1,19-192.52,90.09-228,151.18-31.67,54.6-43,108.72-47,136.43a71.36,71.36,0,0,0-15-1.58C37.54,316.7,0,361,0,415.48c0,54.18,37.14,98.32,82.95,98.78-3,7.42-6.17,16.12-9.1,25.73-6.78,22.33-25.94,100.18,12.39,164.51,24.41,41,66.55,67.82,125.25,79.79.1,0,.2,0,.3,0l.17,0c.1,0,.18.06.28.07l55.92,8.37c62.2,9.31,117.43,14,172.82,14,53.65,0,107.44-4.36,167.8-13.06,35.42-5.11,65.43-10.33,65.73-10.38l.18-.05.44-.07.18,0h.05c56.06-12.4,96.44-39,120-79.06,37.57-63.87,19-140.8,12.38-162.85-3-10.11-6.34-19.22-9.47-27C844.08,513.8,881.22,469.67,881.22,415.48Zm-83.68,69.94a43.78,43.78,0,0,1-18.34-4.06,14.42,14.42,0,0,0-18.57,20.17,251.56,251.56,0,0,1,15,34.26A182.31,182.31,0,0,0,653.06,708.22c0,9.13.8,31.88,2.62,49-12,2-30.58,5-51,7.91-119.66,17.25-212.81,17-332.23-.87l-41.61-6.23c1.91-17.48,2.76-40.57,2.76-49.83a182.51,182.51,0,0,0-127.41-174,249.13,249.13,0,0,1,14.42-32.7A14.42,14.42,0,0,0,102,481.37a43.8,43.8,0,0,1-18.34,4.05c-30.24,0-54.84-31.38-54.84-69.94s24.6-69.94,54.84-69.94a44.11,44.11,0,0,1,20.62,5.23,14.43,14.43,0,0,0,21.09-12c0-.72,4.46-72.74,45.75-143.37C211,127.22,270.07,83.6,347.35,65a118.29,118.29,0,0,0-12.92,53.86c0,1.28.06,2.55.1,3.82,0,60.58-16.64,99-33.18,122.27-10.37,14.57-.7,34.82,17.17,35.6,86.08,3.76,253.6-8.16,253.6-157.87H572c0-1.27.1-2.54.1-3.82a118.46,118.46,0,0,0-9-45.31c63.06,21.86,112.27,62.57,146.93,121.87C751.38,266,755.8,338.06,755.84,338.76a14.42,14.42,0,0,0,21.09,12,44.09,44.09,0,0,1,20.62-5.23c30.24,0,54.84,31.37,54.84,69.94S827.79,485.43,797.55,485.43Z"/><path d="M379.16,593.72a14.42,14.42,0,0,0,4.71,19.84l20.37,12.56a14.42,14.42,0,1,0,15.14-24.55L399,589A14.42,14.42,0,0,0,379.16,593.72Z"/><path d="M469.44,628.26a14.34,14.34,0,0,0,7.55-2.15l20.37-12.56A14.42,14.42,0,1,0,482.22,589l-20.37,12.56a14.42,14.42,0,0,0,7.58,26.7Z"/><path d="M531.74,679.24c-2.08-.23-51.32-5.39-85.95,17.3a9.45,9.45,0,0,1-10.37,0c-34.62-22.68-83.86-17.52-85.94-17.3a14.42,14.42,0,0,0,3.18,28.67c11.3-1.26,45.34-1.41,67,12.75a38.29,38.29,0,0,0,42,0c25.82-16.92,66.43-12.81,67-12.75a14.42,14.42,0,0,0,3.16-28.67Z"/><circle cx="199.12" cy="214.9" r="13.19"/><circle cx="225.5" cy="173.86" r="13.19"/><circle cx="251.89" cy="132.82" r="13.19"/><circle cx="304.66" cy="132.82" r="13.19"/><circle cx="251.89" cy="214.9" r="13.19"/><circle cx="278.28" cy="173.86" r="13.19"/><circle cx="680.67" cy="214.9" r="13.19"/><circle cx="654.28" cy="173.86" r="13.19"/><circle cx="627.89" cy="132.82" r="13.19"/><circle cx="627.89" cy="214.9" r="13.19"/><circle cx="575.12" cy="214.9" r="13.19"/><circle cx="601.51" cy="173.86" r="13.19"/><path d="M693.2,352.47c-.06.07-6.07,6.62-18.37,15.28A217.09,217.09,0,0,1,638.74,388c-30.78,13.74-65.91,21.91-104.4,24.27-13.09.78-26.48.92-39.8.39a14.42,14.42,0,0,0-15,15.2c.11,2.08,3.25,51.2,41.26,79.18,16.65,12.25,37,18.39,60.73,18.39A178.56,178.56,0,0,0,625,519.56c73-18.39,80.78-90.81,74-133.81a124.09,124.09,0,0,0,15.68-14,14.42,14.42,0,0,0-21.47-19.25ZM625,433.66a13.19,13.19,0,1,1-13.19,13.19A13.19,13.19,0,0,1,625,433.66Zm-7,57.93c-34.23,8.63-61.1,6.06-79.87-7.65-15.9-11.61-23.38-29.38-26.84-42.12q6.15,0,12.28-.2a62.44,62.44,0,0,0,19.22,29.85c11.29,9.49,25.65,14.27,42.81,14.27a103,103,0,0,0,12.19-.75c20.54-2.43,36.44-10.92,47.27-25.22C657.71,443,659.77,422.44,659.64,410c4.14-2,8.2-4.13,12.11-6.32C673.29,431.64,668.08,479,618,491.59Z"/><path d="M406.82,427.86a14.42,14.42,0,0,0-15-15.2c-13.32.52-26.72.39-39.79-.39-38.51-2.36-73.64-10.53-104.41-24.26a217.3,217.3,0,0,1-35.84-20.08l-.52-.37c-12.13-8.56-18.05-15-18.07-15a14.42,14.42,0,0,0-21.52,19.2,124.22,124.22,0,0,0,15.68,14c-6.8,43,1,115.42,74,133.81a178.47,178.47,0,0,0,43.46,5.88c23.75,0,44.08-6.14,60.73-18.39C403.58,479.07,406.71,429.94,406.82,427.86ZM330,433.66a13.19,13.19,0,1,1-13.19,13.19A13.19,13.19,0,0,1,330,433.66Zm18.47,50.16c-18.78,13.82-45.71,16.43-80,7.78-50.11-12.62-55.32-59.95-53.78-87.91,3.91,2.19,8,4.29,12.11,6.32-.13,12.44,1.93,33,14.61,49.77,10.83,14.3,26.74,22.79,47.27,25.22a103,103,0,0,0,12.19.75c17.16,0,31.52-4.78,42.81-14.27a62.44,62.44,0,0,0,19.22-29.85q6.16.18,12.35.2C371.8,454.47,364.4,472.09,348.47,483.81Z"/></g></g></svg>