<svg width="1398" height="718" viewBox="0 0 1398 718" fill="none" xmlns="http://www.w3.org/2000/svg">
<rect width="1398" height="718" fill="#F1F1F1"/>
<path d="M954.917 309.962C954.917 325.187 954.917 340.239 954.917 355.464C954.917 359.097 955.61 359.789 959.421 359.443C963.753 359.097 967.738 357.367 970.683 354.253C975.014 349.754 978.999 345.256 983.157 340.585C984.197 339.547 984.89 338.163 985.583 336.952C986.622 335.395 986.103 334.184 984.37 333.838C982.291 333.319 980.039 333.145 977.786 332.626C975.534 332.28 974.495 330.896 974.841 328.128C975.014 326.052 975.881 325.36 978.306 325.187C992.167 324.495 1006.03 323.63 1019.71 322.938C1020.93 322.938 1022.14 322.592 1023.35 322.592C1025.43 322.419 1026.3 323.284 1026.64 325.533C1026.99 327.955 1026.12 329.339 1024.22 329.858C1022.14 330.204 1020.06 330.377 1018.15 331.069C1014.17 332.626 1010.01 333.838 1006.72 336.087C1000.48 340.239 994.765 344.91 988.875 349.581C986.276 351.658 986.103 352.869 988.182 355.637C996.671 367.402 1005.33 378.993 1013.82 390.758C1017.81 396.121 1023.18 398.716 1029.59 399.754C1030.98 399.928 1032.19 400.274 1033.4 400.447C1035.48 400.793 1036.17 402.177 1035.83 404.599C1035.48 407.021 1034.61 407.713 1032.36 407.713C1014.52 407.713 996.671 407.713 978.826 407.886C976.92 407.886 975.881 407.021 975.534 404.945C975.188 402.523 975.881 400.966 977.613 400.62C978.826 400.274 979.865 400.101 981.078 399.754C983.331 399.235 983.677 398.716 982.464 396.64C981.598 395.083 980.559 393.526 979.519 392.142C974.148 384.876 968.95 377.436 963.58 370.17C962.194 368.44 960.807 367.056 958.382 366.883C956.823 366.71 955.61 367.402 955.263 368.959C955.09 369.651 954.917 370.516 954.917 371.208C955.09 378.301 954.917 385.395 955.263 392.661C955.437 398.024 957.342 399.754 962.887 400.447C963.753 400.62 964.446 400.793 965.312 400.793C966.525 400.966 968.084 400.793 968.257 402.35C968.431 404.08 968.084 405.81 967.738 407.54C967.738 407.886 966.525 408.232 965.832 408.232C950.759 408.232 935.686 408.059 920.439 408.059C918.187 408.059 915.935 408.232 913.509 408.405C912.123 408.578 911.43 407.886 911.083 406.675C909.871 403.388 911.257 401.139 914.722 400.966C916.281 400.793 917.84 400.62 919.4 400.447C922.518 399.928 924.424 398.024 924.771 394.91C925.117 391.796 925.29 388.509 925.29 385.395C925.29 353.907 925.117 322.419 925.29 290.931C925.29 285.222 923.558 281.588 918.187 279.512C915.761 278.647 915.068 276.571 915.935 274.322C916.281 273.63 917.147 272.765 917.84 272.419C928.582 268.786 939.151 265.325 949.892 261.692C950.932 261.346 952.145 261.173 953.358 261.346C954.744 261.519 955.437 262.384 955.263 263.941C955.263 278.993 955.263 294.564 954.917 309.962C954.917 309.962 955.09 309.962 954.917 309.962Z" fill="black"/>
<path d="M443.642 361.347C438.272 371.727 433.247 381.762 428.05 391.796C425.277 397.16 422.505 402.696 419.907 408.059C419.04 409.789 417.827 410.654 416.095 410.827C414.709 411 413.15 411 411.764 410.827C410.031 410.654 408.818 409.789 407.952 408.059C397.383 386.26 386.815 364.461 376.246 342.661C373.821 337.471 370.182 334.184 364.292 333.146C361.173 332.627 359.96 328.821 362.039 326.398C362.559 325.879 363.772 325.533 364.638 325.533C378.845 325.706 393.225 325.879 407.432 325.879C429.436 325.879 451.439 325.533 473.269 325.36C475.695 325.36 476.214 325.879 476.561 328.302C476.907 330.897 476.041 332.281 474.135 332.8C471.19 333.492 468.418 334.184 465.472 334.876C463.913 335.222 463.393 336.26 463.913 337.644C464.433 339.201 464.779 340.931 465.472 342.315C470.324 353.042 475.348 363.596 480.372 374.322C480.546 374.495 480.719 374.841 480.892 375.187C481.239 374.495 481.585 373.803 481.932 373.284C486.09 363.077 490.075 352.696 494.06 342.488C494.753 340.758 495.099 339.028 495.446 337.298C495.792 335.914 495.272 334.876 493.886 334.53C491.807 333.838 489.555 333.319 487.476 332.8C485.57 332.281 484.704 330.897 485.05 328.302C485.397 326.052 486.09 325.36 488.342 325.36C499.43 325.36 510.692 325.36 521.78 325.36C522.647 325.36 523.686 326.052 524.033 326.744C525.592 329.859 524.206 332.454 520.914 332.8C514.85 333.492 511.038 336.779 508.44 342.142C498.391 363.942 488.169 385.568 478.293 407.367C476.907 410.308 474.828 410.654 472.056 410.654C469.457 410.654 467.378 410.308 465.992 407.367C458.889 392.488 451.612 377.609 444.335 362.731C444.335 362.731 444.162 362.212 443.642 361.347ZM424.065 375.36C424.238 375.36 424.584 375.36 424.758 375.36C428.396 367.748 432.208 360.308 435.673 352.523C436.712 350.101 436.885 347.333 436.712 344.565C436.539 339.72 431.861 334.53 427.183 334.184C422.332 333.838 417.308 333.838 412.457 333.838C410.897 333.838 409.338 334.357 407.779 334.876C406.393 335.222 405.7 336.26 406.219 337.817C406.739 339.72 407.259 341.623 408.125 343.353C412.803 353.215 417.827 362.904 422.505 372.765C423.025 373.63 423.718 374.495 424.065 375.36Z" fill="black"/>
<path d="M679.615 361.173C678.576 363.076 677.536 364.806 676.67 366.709C669.74 380.377 662.81 393.872 656.053 407.54C654.667 410.481 652.414 410.654 649.642 410.654C647.043 410.654 644.964 410.135 643.578 407.367C633.183 385.74 622.614 364.287 612.219 342.661C611.526 341.277 610.66 339.893 609.794 338.508C607.715 335.048 604.249 333.837 600.438 332.972C597.319 332.28 596.453 330.723 597.146 327.609C597.493 325.879 598.359 325.187 600.265 325.187C618.456 325.36 636.648 325.706 654.667 325.706C672.858 325.706 691.05 325.36 709.068 325.014C711.321 325.014 712.014 325.706 712.187 327.955C712.36 330.896 711.667 332.107 709.588 332.626C706.989 333.145 704.391 333.664 701.965 334.356C699.193 335.221 698.673 335.74 699.713 338.508C701.619 343.526 703.698 348.37 705.95 353.214C709.069 360.135 712.36 366.882 715.652 373.63C715.825 373.976 716.172 374.495 716.518 375.187C718.251 371.034 720.157 367.055 721.543 363.249C724.488 355.637 727.433 348.024 730.032 340.412C731.938 335.221 731.418 334.702 725.874 333.318C725.008 333.145 724.315 332.972 723.449 332.799C722.236 332.626 720.677 332.453 720.85 330.723C720.85 328.993 721.196 327.263 721.889 325.706C722.063 325.36 723.449 325.187 724.142 325.187C732.111 325.36 739.908 325.533 747.878 325.533C750.996 325.533 754.115 325.187 757.233 325.187C759.139 325.187 760.005 325.879 760.352 328.128C760.698 330.377 759.832 332.107 758.273 332.453C757.58 332.626 756.887 332.799 756.194 332.799C750.303 333.491 746.838 336.778 744.412 341.969C734.537 363.768 724.488 385.567 714.439 407.367C713.4 409.789 711.841 410.654 709.415 410.654C708.722 410.654 708.029 410.654 707.336 410.654C704.91 410.654 703.351 409.616 702.312 407.367C695.208 392.315 687.931 377.436 680.655 362.557C680.308 362.211 680.135 361.865 679.615 361.173ZM660.211 375.187C660.384 375.187 660.73 375.36 660.904 375.36C664.715 367.401 668.527 359.443 672.165 351.484C673.032 349.754 673.032 347.505 673.032 345.602C673.032 340.412 668.527 334.702 663.503 334.183C658.478 333.664 653.281 333.837 648.256 333.837C647.043 333.837 645.657 334.183 644.445 334.529C642.885 335.048 642.192 336.086 642.539 337.643C642.885 339.201 643.405 340.758 644.098 342.142C648.603 351.657 653.281 361.173 657.958 370.688C658.478 372.073 659.344 373.63 660.211 375.187Z" fill="black"/>
<path d="M789.285 410.136C781.316 408.925 773.519 406.676 766.416 402.004C754.634 394.392 748.051 380.897 748.397 366.883C748.744 348.89 757.753 336.26 773.866 328.648C791.538 320.344 809.556 320.517 827.228 328.648C845.073 336.953 852.004 353.043 850.791 369.998C849.405 391.278 835.198 404.081 816.313 408.579C815.274 408.752 814.234 409.098 813.195 409.271C805.398 411.001 797.255 411.347 789.285 410.136ZM818.219 370.863C818.392 370.69 818.046 370.863 818.219 370.863C818.219 364.98 817.526 358.752 816.313 352.696C815.274 346.987 813.195 341.451 809.21 337.126C803.319 330.724 794.31 330.551 788.246 336.78C785.474 339.721 783.741 343.181 782.702 347.16C779.756 358.406 780.103 369.652 782.528 380.897C783.914 386.78 785.994 392.143 790.325 396.468C797.948 404.254 809.729 402.35 814.581 392.662C815.274 391.451 815.793 390.067 816.14 388.683C817.872 382.627 818.219 376.745 818.219 370.863Z" fill="black"/>
<path d="M566.48 359.443C558.857 359.443 551.234 359.443 543.61 359.443C539.799 359.443 539.452 359.962 539.625 363.769C539.799 379.685 551.927 392.488 567.866 393.18C571.504 393.353 575.143 393.18 578.781 392.488C583.979 391.623 588.137 388.509 591.429 384.357C592.815 382.454 594.374 382.281 596.28 383.492C598.186 384.876 598.879 386.779 597.839 388.682C592.815 397.333 585.884 404.08 576.355 407.367C558.51 413.769 541.358 412.038 526.285 400.274C514.677 391.277 510.692 378.474 512.078 364.115C514.33 341.277 532.522 325.706 554.352 323.457C563.361 322.592 572.024 323.111 580.34 327.263C590.562 332.281 596.453 340.585 596.799 352.177C596.973 357.194 595.067 359.097 590.043 359.27C586.058 359.443 582.073 359.443 578.261 359.443C574.103 359.27 570.292 359.27 566.48 359.443ZM554.179 350.447C556.258 350.274 558.164 350.447 560.243 350.274C562.842 349.928 565.614 349.582 568.212 348.89C569.079 348.717 570.118 347.506 570.465 346.467C572.197 341.45 569.425 335.395 564.574 333.319C555.911 329.685 543.784 336.087 541.531 345.083C540.838 348.198 541.704 349.582 544.823 349.755C547.942 350.274 551.06 350.274 554.179 350.447Z" fill="black"/>
<path d="M871.754 407.886C863.438 408.059 854.602 408.405 845.593 408.578C843.168 408.578 842.474 407.886 842.301 405.291C842.128 402.869 842.994 401.658 845.073 401.311C846.806 401.138 848.365 400.965 850.098 400.792C853.563 400.273 855.122 399.062 855.642 395.602C856.162 392.315 856.335 389.028 856.335 385.741C856.335 374.322 856.335 362.903 856.335 351.484C856.335 350.619 856.162 349.754 856.335 349.062C856.508 344.391 854.602 341.104 850.271 339.201C848.538 338.509 847.672 337.125 847.672 335.049C847.672 333.318 848.365 332.28 850.271 331.761C860.839 328.82 871.235 325.36 881.11 320.343C881.977 319.824 883.536 320.343 884.749 320.689C886.135 321.208 885.788 322.419 885.615 323.457C885.268 325.706 885.095 327.955 885.095 330.204C885.095 332.453 886.481 333.318 888.56 332.107C891.332 330.377 894.104 328.301 896.876 326.571C900.515 324.322 904.5 322.592 909.004 322.592C915.588 322.419 920.959 326.571 921.825 332.28C923.038 339.547 919.399 345.429 912.469 347.332C907.618 348.716 903.287 348.024 899.129 344.737C897.05 343.18 894.797 341.796 892.372 340.585C889.427 339.201 887.521 340.239 886.654 343.353C885.961 345.775 885.615 348.197 885.615 350.792C885.615 364.46 885.788 378.128 885.788 391.623C885.788 392.488 885.961 393.353 886.135 394.045C887.001 398.716 888.387 400.1 893.238 400.446C895.49 400.619 897.743 400.792 899.995 400.965C901.901 401.138 902.594 402.523 902.421 405.118C902.247 407.54 901.554 408.232 899.475 408.232C890.639 408.405 881.457 408.059 871.754 407.886Z" fill="black"/>
</svg>
