<?xml version="1.0" encoding="utf-8"?>
<!-- Generator: Adobe Illustrator 21.1.0, SVG Export Plug-In . SVG Version: 6.00 Build 0)  -->
<svg version="1.1" id="Layer_1" xmlns="http://www.w3.org/2000/svg" xmlns:xlink="http://www.w3.org/1999/xlink" x="0px" y="0px"
	 viewBox="0 0 251 251" style="enable-background:new 0 0 251 251;" xml:space="preserve">
<style type="text/css">
	.st0{fill:url(#SVGID_1_);}
	.st1{fill:url(#SVGID_2_);}
</style>
<title>flare_icon</title>
<g>
	<g id="Layer_2">
		<g id="Layer_1-2">
			
				<image style="overflow:visible;opacity:0.5;enable-background:new    ;" width="251" height="251" xlink:href="B27F0475CDCB0B6D.png" >
			</image>
			
				<radialGradient id="SVGID_1_" cx="23" cy="31" r="281.12" gradientTransform="matrix(1 0 0 -1 0 251)" gradientUnits="userSpaceOnUse">
				<stop  offset="0" style="stop-color:#FFA488"/>
				<stop  offset="0.29" style="stop-color:#FF7D70"/>
				<stop  offset="1" style="stop-color:#FF1F35"/>
			</radialGradient>
			<path class="st0" d="M59.1,8.2H190c28,0,50.7,22.7,50.7,50.7v130.9c0,28-22.7,50.7-50.7,50.7H59.1c-28,0-50.7-22.7-50.7-50.7V59
				C8.3,30.9,31,8.2,59.1,8.2z"/>
			
				<radialGradient id="SVGID_2_" cx="77.69" cy="83.88" r="127.82" gradientTransform="matrix(1 0 0 -1 0 251)" gradientUnits="userSpaceOnUse">
				<stop  offset="0" style="stop-color:#FFEEEB"/>
				<stop  offset="0.53" style="stop-color:#FFFFFF"/>
				<stop  offset="1" style="stop-color:#FFF2EF"/>
			</radialGradient>
			<path class="st1" d="M170,78.2l-45.5-45.5L78.6,78.5c-12.3,12.2-19.2,28.9-19,46.3c0.2,17.2,7.1,33.7,19.4,45.8l45.5,45.5
				l17.6-17.6l-37-37.1l26.9-26.9c5.6-5.6,5.6-14.7,0-20.3l-7.4-7.4l-35.7,35.7c-3.2-6.2-4.6-13.1-4.3-20.1
				c0.5-10.1,4.8-19.6,12-26.7l28-28l28.1,28.1c7.3,7.2,11.6,16.9,12,27.1c0.4,11.1-3.8,21.9-11.7,29.8l-8.8,8.8l17.6,17.6l8.8-8.8
				c12.3-12.2,19.2-28.9,19-46.3C189.2,106.8,182.3,90.3,170,78.2z"/>
		</g>
	</g>
</g>
</svg>
