<?xml version="1.0" encoding="utf-8"?>
<!-- Generator: Adobe Illustrator 21.1.0, SVG Export Plug-In . SVG Version: 6.00 Build 0)  -->
<svg version="1.1" id="Layer_1" xmlns="http://www.w3.org/2000/svg" xmlns:xlink="http://www.w3.org/1999/xlink" x="0px" y="0px"
	 viewBox="0 0 1200 675" style="enable-background:new 0 0 1200 675;" xml:space="preserve">
<style type="text/css">
	.st0{fill:url(#SVGID_1_);}
	.st1{fill:url(#SVGID_2_);}
	.st2{fill:url(#SVGID_3_);}
	.st3{fill:url(#SVGID_4_);}
	.st4{fill:url(#SVGID_5_);}
	.st5{fill:url(#SVGID_6_);}
	.st6{fill:url(#SVGID_7_);}
</style>
<radialGradient id="SVGID_1_" cx="7.989" cy="673.2673" r="1366.9766" gradientUnits="userSpaceOnUse">
	<stop  offset="0" style="stop-color:#FFA488"/>
	<stop  offset="0.29" style="stop-color:#FF7D70"/>
	<stop  offset="1" style="stop-color:#FF1F35"/>
</radialGradient>
<rect x="0" class="st0" width="1200" height="675"/>
<g>
	
		<radialGradient id="SVGID_2_" cx="232.4313" cy="2504.9917" r="765.3331" gradientTransform="matrix(1 0 0 -1 0 675)" gradientUnits="userSpaceOnUse">
		<stop  offset="0" style="stop-color:#FFEEEB"/>
		<stop  offset="0.53" style="stop-color:#FFFFFF"/>
		<stop  offset="1" style="stop-color:#FFF2EF"/>
	</radialGradient>
	<path class="st1" d="M963,203.4l-65-65l-65.4,65.5c-17.6,17.5-27.3,41.3-27.1,66c0.2,24.6,10.2,48.1,27.6,65.4l65,65l25-25l-53-53
		l38.5-38.5c8-8,8-21,0-29c0,0,0,0,0,0l-10.6-10.6l-51,51c-4.5-8.9-6.6-18.7-6.1-28.6c0.8-14.4,6.8-27.9,17.1-38.1l40-40l40,40
		c10.4,10.3,16.5,24.1,17.1,38.7c0.6,15.9-5.4,31.3-16.7,42.5L926,322.3l25,25l12.5-12.5c17.6-17.5,27.3-41.3,27.1-66
		C990.4,244.2,980.5,220.7,963,203.4z"/>
	
		<radialGradient id="SVGID_3_" cx="232.4313" cy="2508.5725" r="765.3331" gradientTransform="matrix(1 0 0 -1 0 675)" gradientUnits="userSpaceOnUse">
		<stop  offset="0" style="stop-color:#FFEEEB"/>
		<stop  offset="0.53" style="stop-color:#FFFFFF"/>
		<stop  offset="1" style="stop-color:#FFF2EF"/>
	</radialGradient>
	<path class="st2" d="M623,333.8h-7.2c-34.3-0.1-62.2,27.7-62.3,62v87.8h-0.2v36.5h65.8v-36.5h-29.2v-87.8
		c0.1-14.2,11.7-25.6,25.8-25.5h7.2c14,0.1,25.4,11.4,25.5,25.5v36.5H685v-36.5c0-34.2-27.7-61.9-61.9-62
		C623.1,333.8,623.1,333.8,623,333.8z"/>
	
		<radialGradient id="SVGID_4_" cx="232.4313" cy="2508.5725" r="765.3331" gradientTransform="matrix(1 0 0 -1 0 675)" gradientUnits="userSpaceOnUse">
		<stop  offset="0" style="stop-color:#FFEEEB"/>
		<stop  offset="0.53" style="stop-color:#FFFFFF"/>
		<stop  offset="1" style="stop-color:#FFF2EF"/>
	</radialGradient>
	<path class="st3" d="M524.9,479.8v-87.4c0-36.5-29.9-58.5-62-58.5h-3.8c-38.1,0-62.3,25.7-62.3,68.6h25.8h11v-11
		c0.1-14.1,10.4-21.2,24.4-21.2h4.9c16.2,0,25.5,7.9,25.5,20.3c0,13.4-36.1,18.6-42.3,20.3c-23.8,7.2-52.7,18.2-52.7,54.4v7.2
		c0,29.6,24.1,51.3,54.7,51.3h7.2c15.1-0.3,29.7-5.1,42-13.8c6.2,6.4,14.8,9.9,23.7,10h18.2v-36.5h-10.8
		C526.4,483.5,524.8,481.8,524.9,479.8z M488.4,461.5c0,15.5-15.2,25.8-33,25.8h-7.2c-13.1,0-18.2-9.6-18.2-16.5v-5.5
		c0-7.6,5.2-16.2,15.8-20.7c13.8-5.8,26.5-6.2,42.7-14.5L488.4,461.5z"/>
	
		<radialGradient id="SVGID_5_" cx="232.4313" cy="2508.5725" r="765.3331" gradientTransform="matrix(1 0 0 -1 0 675)" gradientUnits="userSpaceOnUse">
		<stop  offset="0" style="stop-color:#FFEEEB"/>
		<stop  offset="0.53" style="stop-color:#FFFFFF"/>
		<stop  offset="1" style="stop-color:#FFF2EF"/>
	</radialGradient>
	<path class="st4" d="M769.4,333.8h-7.6c-34.2,0.1-61.9,27.8-62,62v65.7c-0.1,34.3,27.7,62.2,62,62.3h7.6
		c28.1-0.1,52.6-19,59.9-46.1l2.1-9.3h-37.5c-0.3,2.1-6.2,18.9-24.4,18.9h-7.6c-14.2-0.1-25.5-11.7-25.5-25.8v-14.5h95v-51.3
		C831.3,361.6,803.6,333.9,769.4,333.8z M794.8,410.6h-58.5v-14.8c0-14,11.3-25.4,25.3-25.5c0,0,0.1,0,0.1,0h7.6
		c14,0,25.4,11.3,25.5,25.3c0,0,0,0.1,0,0.1L794.8,410.6z"/>
	
		<radialGradient id="SVGID_6_" cx="232.4313" cy="2508.5725" r="765.3331" gradientTransform="matrix(1 0 0 -1 0 675)" gradientUnits="userSpaceOnUse">
		<stop  offset="0" style="stop-color:#FFEEEB"/>
		<stop  offset="0.53" style="stop-color:#FFFFFF"/>
		<stop  offset="1" style="stop-color:#FFF2EF"/>
	</radialGradient>
	<polygon class="st5" points="349.8,269.4 342.9,269.4 342.9,305.9 342.9,487.5 325.6,487.5 325.6,524 342.9,524 379.3,524 
		379.3,490.9 379.3,487.5 379.3,280.1 379.3,269.4 368.3,269.4 	"/>
	
		<radialGradient id="SVGID_7_" cx="232.4313" cy="2508.5725" r="765.3331" gradientTransform="matrix(1 0 0 -1 0 675)" gradientUnits="userSpaceOnUse">
		<stop  offset="0" style="stop-color:#FFEEEB"/>
		<stop  offset="0.53" style="stop-color:#FFFFFF"/>
		<stop  offset="1" style="stop-color:#FFF2EF"/>
	</radialGradient>
	<path class="st6" d="M263.1,331.3c0.2-14.1,11.7-25.5,25.8-25.4h32v-36.5h-32c-34.3-0.1-62.2,27.7-62.3,62v30.4h-17.3v36.5h17.3
		v89.3h-17.3v36.5h71.4v-36.6h-17.6v-89.3h12.4V398h44.8v-36.4h-57.2V331.3z"/>
</g>
</svg>
