<svg xmlns="http://www.w3.org/2000/svg" xmlns:xlink="http://www.w3.org/1999/xlink" viewBox="0 0 583.27 351.2"><defs><style>.cls-1{fill:url(#grad_sat);}.cls-2{fill:none;}</style><radialGradient id="grad_sat" cx="59.67" cy="279.12" r="442.64" gradientUnits="userSpaceOnUse"><stop offset="0" stop-color="#ffa488"/><stop offset="0.29" stop-color="#ff7d70"/><stop offset="1" stop-color="#ff1f35"/></radialGradient></defs><title>flare_logo_1</title><g id="Layer_2" data-name="Layer 2"><g id="Layer_1-2" data-name="Layer 1"><path class="cls-1" d="M515.19,85.66l-40-40L434.92,86a56.64,56.64,0,0,0-16.7,40.67,57.61,57.61,0,0,0,17,40.28l40,40,15.42-15.42L458,158.9l23.68-23.68a12.61,12.61,0,0,0,0-17.84l-6.5-6.5-31.38,31.38a35.1,35.1,0,0,1-3.78-17.64,35.61,35.61,0,0,1,10.51-23.44l24.65-24.65,24.65,24.65A35.59,35.59,0,0,1,510.39,125a35,35,0,0,1-10.29,26.17l-7.71,7.71,15.42,15.42,7.71-7.71a56.64,56.64,0,0,0,16.7-40.67A57.61,57.61,0,0,0,515.19,85.66Z"/><path class="cls-1" d="M305.82,168.2h-4.45A38.3,38.3,0,0,0,263,206.35V260.4h-.1v22.47h40.53V260.4h-18V206.35a15.82,15.82,0,0,1,15.9-15.69h4.45a15.78,15.78,0,0,1,15.69,15.69v22.47H344V206.35A38.12,38.12,0,0,0,305.82,168.2Z"/><path class="cls-1" d="M245.37,258.06V204.23c0-22.47-18.44-36-38.15-36h-2.33c-23.44,0-38.35,15.8-38.35,42.27h15.89l6.78,0v-6.76c.06-8.66,6.38-13.06,15-13.06h3c10,0,15.69,4.88,15.69,12.51,0,8.27-22.26,11.45-26.07,12.51-14.63,4.45-32.43,11.23-32.43,33.49v4.45c0,18.23,14.84,31.58,33.7,31.58h4.45a46.47,46.47,0,0,0,25.86-8.48A20.5,20.5,0,0,0,243,282.87h11.23V260.4H247.6A2.29,2.29,0,0,1,245.37,258.06ZM222.9,246.83c0,9.54-9.33,15.9-20.35,15.9H198.1c-8.05,0-11.23-5.94-11.23-10.17v-3.39c0-4.66,3.18-10,9.75-12.72,8.48-3.6,16.32-3.82,26.28-8.9Z"/><path class="cls-1" d="M395.92,168.2h-4.66a38.26,38.26,0,0,0-38.15,38.15v40.48a38.31,38.31,0,0,0,38.15,38.37h4.66a38.41,38.41,0,0,0,36.88-28.4l1.27-5.72H411c-.21,1.27-3.82,11.66-15,11.66h-4.66a15.83,15.83,0,0,1-15.69-15.9v-8.9h58.5V206.35A38.27,38.27,0,0,0,395.92,168.2Zm15.69,47.27h-36v-9.11a15.65,15.65,0,0,1,15.69-15.69h4.66a15.65,15.65,0,0,1,15.69,15.69Z"/><polygon class="cls-1" points="137.59 128.51 133.29 128.51 133.29 150.98 133.29 262.84 122.66 262.84 122.66 285.31 133.29 285.31 155.75 285.31 155.75 264.94 155.75 262.84 155.75 135.08 155.75 128.51 148.97 128.51 137.59 128.51"/><path class="cls-1" d="M84.16,166.66A15.83,15.83,0,0,1,100.05,151h19.73V128.51H100.05a38.3,38.3,0,0,0-38.36,38.15v18.75H51.05v22.47H61.69v55H51.05v22.47H95V262.84H84.16v-55h7.61v-.1h27.59V185.31H84.16Z"/><rect class="cls-2" width="583.27" height="351.2"/></g></g></svg>