<svg xmlns="http://www.w3.org/2000/svg" viewBox="0 0 192.36 192.36"><defs><style>.cls-1{fill:red;}.cls-2{fill:none;}</style></defs><title>flare</title><g id="Layer_2" data-name="Layer 2"><g id="Layer_1-2" data-name="Layer 1"><path class="cls-1" d="M143.74,47.56,96.18,0,48.09,48.09a68,68,0,0,0,0,96.19l48.08,48.08,18.4-18.4L75.69,135.08l29.69-29.69a13,13,0,0,0,0-18.4l-9.2-9.2L58.74,115.22a42,42,0,0,1,7.75-48.74L96.18,36.8l29.69,29.69a41.72,41.72,0,0,1,12.3,29.29,42.89,42.89,0,0,1-12.78,30.59l-8.72,8.72,18.4,18.4,9.2-9.2a67.58,67.58,0,0,0,19.92-48.75A69,69,0,0,0,143.74,47.56Z"/><rect class="cls-2" width="192.36" height="192.36"/></g></g></svg>