<svg width="804" height="452" viewBox="0 0 804 452" fill="none" xmlns="http://www.w3.org/2000/svg">
<rect width="804" height="452" fill="#D9D9D9"/>
<rect width="804" height="452" fill="url(#paint0_radial_132_236)"/>
<path d="M295.731 188.681L258.501 152L221.271 188.681C210.835 198.962 205.476 212.578 206.04 227.306C206.604 240.645 212.527 253.427 222.117 262.875L258.783 299L272.039 285.94L250.322 264.543C247.501 261.764 246.373 258.151 246.655 254.261C246.937 251.204 248.629 248.425 250.604 246.202L264.142 232.864C268.372 228.696 268.372 222.026 264.142 217.858L258.501 212.301L237.065 233.42C233.963 236.476 231.707 239.811 230.014 243.701C226.348 238.422 224.655 232.03 224.655 225.639C224.655 216.747 228.04 208.41 234.527 202.019L258.501 178.399L281.911 201.463C287.834 207.299 291.782 215.079 292.346 223.416C292.91 233.142 289.526 242.312 282.475 248.981L275.706 255.65L288.962 268.711L294.885 262.875C304.474 253.427 310.679 240.645 310.961 227.306C311.525 212.856 305.885 198.962 295.731 188.681Z" fill="white"/>
<path d="M343 266.724H360.447V233.768H394.358V219.901H360.447V197.447H397.593V183H343V266.724Z" fill="white"/>
<path d="M406.894 266.724H423.763V183H406.894V266.724Z" fill="white"/>
<path d="M453.573 267.71C461.719 267.71 468.305 263.823 471.829 257.44H472.175V266.724H489.044V224.078C489.044 211.546 478.703 203.249 462.701 203.249C446.352 203.249 436.531 211.488 435.606 222.976L435.549 223.672H450.973L451.089 223.15C451.898 219.147 455.711 216.188 462.008 216.188C468.594 216.188 472.175 219.611 472.175 225.123V228.952L456.866 229.881C441.499 230.867 432.776 237.481 432.776 248.795V248.911C432.776 259.877 441.152 267.71 453.573 267.71ZM449.471 248.041V247.925C449.471 243.515 452.88 240.73 459.408 240.324L472.175 239.512V243.98C472.175 250.478 466.629 255.352 459.061 255.352C453.227 255.352 449.471 252.625 449.471 248.041Z" fill="white"/>
<path d="M499.963 266.724H516.832V231.911C516.832 222.86 521.685 217.87 530.004 217.87C532.43 217.87 534.741 218.218 536.128 218.799V203.887C534.857 203.539 533.123 203.249 531.275 203.249C524.053 203.249 519.027 207.717 517.179 215.375H516.832V204.526H499.963V266.724Z" fill="white"/>
<path d="M569.172 268C586.85 268 595.4 257.498 597.307 248.331L597.48 247.693H581.998L581.882 248.041C580.669 251.522 576.452 255.352 569.519 255.352C560.911 255.352 555.539 249.549 555.365 239.628H598V234.406C598 215.608 586.619 203.249 568.479 203.249C550.339 203.249 538.727 215.898 538.727 235.683V235.741C538.727 255.642 550.224 268 569.172 268ZM568.768 215.898C575.758 215.898 580.784 220.365 581.824 228.952H555.539C556.636 220.539 561.836 215.898 568.768 215.898Z" fill="white"/>
<defs>
<radialGradient id="paint0_radial_132_236" cx="0" cy="0" r="1" gradientUnits="userSpaceOnUse" gradientTransform="translate(2.39611e-05 452) rotate(-29.3442) scale(922.345 788.009)">
<stop stop-color="#FF8A00"/>
<stop offset="0.717924" stop-color="#FF7369"/>
<stop offset="1" stop-color="#FF4748"/>
</radialGradient>
</defs>
</svg>
