<svg width="897" height="378" viewBox="0 0 897 378" fill="none" xmlns="http://www.w3.org/2000/svg">
<rect width="897" height="378" fill="white"/>
<path d="M179 266C124 266 79 221 79 166C79 139.333 89.4167 114.333 108.167 95.1667C126.917 76 152.333 66 179 66C205.667 66 230.667 76.4167 249.833 95.1667C268.583 113.917 279 139.333 279 166C279 192.667 268.583 217.667 249.833 236.833C231.083 256 205.667 266 179 266ZM179 70.1667C153.167 70.1667 129.417 80.1667 111.083 98.5C92.75 116.833 83.1667 140.583 83.1667 166C83.1667 218.917 126.083 261.833 179 261.833C204.417 261.833 228.583 251.833 246.917 233.917C265.25 216 274.833 191.833 274.833 166C274.833 140.583 264.833 116.417 246.917 98.0833C228.583 80.1667 204.417 70.1667 179 70.1667Z" fill="#FF1F35"/>
<path d="M212.321 111.854H193.994H163.589H145.263C134.017 111.854 124.854 121.017 124.854 132.263V146.841V151.006V181.411V185.576V199.737C124.854 206.818 128.602 213.066 134.017 216.814C137.349 218.897 141.098 220.146 145.679 220.146H164.006H194.411H212.737C223.983 220.146 233.146 210.983 233.146 199.737V185.576V181.411V151.006V146.841V132.679C232.73 121.017 223.567 111.854 212.321 111.854ZM193.578 116.019V146.841H163.173V116.435H193.578V116.019ZM144.846 215.981C141.514 215.981 138.182 215.148 135.683 213.066C131.518 210.15 128.602 205.152 128.602 199.321V185.16H159.007V215.981H144.846ZM128.602 181.411V151.006H159.007V181.411H128.602ZM163.173 151.006H193.578V181.411H163.173V151.006ZM159.007 116.435V146.841H128.602V132.679C128.602 123.516 136.099 116.435 144.846 116.435H159.007ZM163.173 215.981V185.576H193.578V215.981H163.173ZM228.565 199.737C228.565 208.901 221.068 215.981 212.321 215.981H198.159V185.576H228.565V199.737ZM228.565 181.411H198.159V151.006H228.565V181.411ZM198.159 146.841V116.435H212.321C221.484 116.435 228.565 123.933 228.565 132.679V146.841H198.159Z" fill="#FF1F35"/>
<path d="M449 266C422.333 266 397.333 255.583 378.167 236.833C359.417 218.083 349 192.667 349 166C349 111 394 66 449 66C504 66 549 111 549 166C549 192.667 538.583 217.667 519.833 236.833C501.083 255.583 475.667 266 449 266ZM449 70.1667C396.083 70.1667 353.167 113.083 353.167 166C353.167 191.417 363.167 215.583 381.083 233.917C399 251.833 423.167 261.833 449 261.833C474.417 261.833 498.583 251.833 516.917 233.917C534.833 216 544.833 191.833 544.833 166C544.833 113.083 501.917 70.1667 449 70.1667Z" fill="#FF1F35"/>
<path d="M407.397 202.585C400.707 202.585 394.854 197.176 394.854 190.101V145.575C394.854 138.916 400.289 133.091 407.397 133.091H415.76C418.687 133.091 421.195 131.842 422.45 129.345L428.303 120.19C430.812 116.861 434.575 114.781 438.756 114.781H459.244C463.425 114.781 467.188 116.861 469.697 120.19L475.551 129.345C477.223 131.842 479.732 133.091 482.241 133.091H490.603C497.293 133.091 503.146 138.5 503.146 145.575V190.101C503.146 196.759 497.711 202.585 490.603 202.585H407.397ZM407.397 137.668C402.798 137.668 399.035 141.413 399.035 145.991V190.517C399.035 195.095 402.798 198.84 407.397 198.84H491.021C495.62 198.84 499.383 195.095 499.383 190.517V145.991C499.383 141.413 495.62 137.668 491.021 137.668H482.659C478.477 137.668 474.714 135.587 472.206 132.258L466.352 123.103C464.68 120.606 462.171 119.358 459.662 119.358H439.174C436.248 119.358 433.739 120.606 432.484 123.103L426.631 132.258C424.122 135.587 420.359 137.668 416.178 137.668H407.397V137.668Z" fill="#FF1F35"/>
<path d="M449.488 188.927C437.022 188.927 427.049 178.954 427.049 166.488C427.049 154.022 437.022 144.049 449.488 144.049C455.305 144.049 461.123 146.542 465.278 150.697C469.434 154.853 471.927 160.67 471.927 166.488C471.927 178.954 461.538 188.927 449.488 188.927ZM449.488 148.204C439.515 148.204 431.204 156.515 431.204 166.488C431.204 176.461 439.515 184.772 449.488 184.772C459.461 184.772 467.771 176.461 467.771 166.488C467.771 161.501 465.694 156.93 462.37 153.606C458.63 150.282 454.059 148.204 449.488 148.204Z" fill="#FF1F35"/>
<path d="M758.493 119.943C764.355 119.943 768.96 124.548 768.96 130.409V191.114C768.96 196.975 764.355 201.58 758.493 201.58H747.608C745.934 201.58 744.678 201.999 743.422 203.254C742.166 204.51 741.747 205.766 741.747 207.441V220.001V220.419H741.329H740.91L727.094 206.604C723.745 203.254 719.14 201.58 714.535 201.58H678.949C673.088 201.58 668.483 196.975 668.483 191.114V130.409C668.483 127.478 669.739 124.966 671.414 123.292C673.088 121.617 676.019 120.361 678.531 120.361L758.493 119.943ZM758.493 115.756H678.531C670.576 115.756 663.878 122.036 663.878 130.409V191.114C663.878 199.068 670.158 205.766 678.531 205.766H714.116C717.884 205.766 721.233 207.022 723.745 209.953L737.561 223.768C738.398 224.606 739.654 225.024 740.91 225.024C743.422 225.024 745.934 222.931 745.934 220.001V207.441C745.934 206.604 746.771 205.766 747.608 205.766H758.493C766.448 205.766 773.146 199.487 773.146 191.114V130.409C773.146 122.036 766.448 115.756 758.493 115.756Z" fill="#FF1F35"/>
<path d="M719 266C664 266 619 221 619 166C619 139.333 629.417 114.333 648.167 95.1667C666.917 76 692.333 66 719 66C774 66 819 111 819 166C819 221 774 266 719 266ZM719 70.1667C693.583 70.1667 669.417 80.1667 651.083 98.0833C633.167 116 623.167 140.167 623.167 166C623.167 218.917 666.083 261.833 719 261.833C771.917 261.833 814.833 218.917 814.833 166C814.833 113.083 771.5 70.1667 719 70.1667Z" fill="#FF1F35"/>
<path d="M152.973 309.098V306.941H145.871V309.602H149.539L149.527 309.906C149.457 311.945 147.852 313.316 145.531 313.316C142.742 313.316 140.984 311.113 140.984 307.492C140.984 303.941 142.66 301.773 145.391 301.773C147.359 301.773 148.777 302.77 149.305 304.48H152.82C152.328 300.965 149.387 298.656 145.391 298.656C140.469 298.656 137.363 302.078 137.363 307.527C137.363 313.059 140.445 316.434 145.473 316.434C150.09 316.434 152.973 313.621 152.973 309.098ZM160.578 313.633C159.395 313.633 158.562 313.047 158.562 312.086C158.562 311.16 159.277 310.633 160.742 310.527L163.355 310.363V311.312C163.355 312.625 162.16 313.633 160.578 313.633ZM159.453 316.199C161.129 316.199 162.535 315.496 163.203 314.312H163.414V316H166.719V307.176C166.719 304.41 164.785 302.793 161.363 302.793C158.117 302.793 155.926 304.293 155.703 306.684H158.844C159.125 305.91 159.945 305.488 161.176 305.488C162.582 305.488 163.355 306.098 163.355 307.176V308.23L160.227 308.418C157.016 308.605 155.223 309.965 155.223 312.309C155.223 314.676 156.969 316.199 159.453 316.199ZM170.188 316H173.598V298.141H170.188V316ZM177.266 316H180.676V298.141H177.266V316ZM189.816 305.406C191.41 305.406 192.441 306.473 192.512 308.184H187.004C187.121 306.508 188.234 305.406 189.816 305.406ZM192.582 312.32C192.219 313.176 191.293 313.656 189.945 313.656C188.164 313.656 187.039 312.461 186.992 310.539V310.363H195.863V309.32C195.863 305.219 193.613 302.793 189.805 302.793C185.961 302.793 183.594 305.395 183.594 309.602C183.594 313.797 185.914 316.281 189.852 316.281C193.016 316.281 195.242 314.758 195.758 312.32H192.582ZM198.664 316H202.074V308.84C202.074 307.023 203.352 305.922 205.215 305.922C205.766 305.922 206.562 306.027 206.832 306.133V303.027C206.539 302.922 205.965 302.863 205.496 302.863C203.855 302.863 202.52 303.848 202.18 305.137H201.969V303.074H198.664V316ZM210.91 320.699C214.133 320.699 215.715 319.527 216.816 316.199L221.27 303.074H217.66L214.941 312.871H214.73L212.012 303.074H208.25L212.785 316.082L212.668 316.551C212.387 317.535 211.66 317.945 210.383 317.945C210.242 317.945 209.727 317.945 209.609 317.922V320.664C209.75 320.688 210.781 320.699 210.91 320.699Z" fill="black"/>
<path d="M411.723 316.434C415.801 316.434 418.777 313.914 419.07 310.258H415.625C415.285 312.121 413.762 313.316 411.734 313.316C409.062 313.316 407.41 311.102 407.41 307.539C407.41 303.977 409.062 301.773 411.723 301.773C413.738 301.773 415.273 303.051 415.613 304.996H419.059C418.801 301.316 415.73 298.656 411.723 298.656C406.812 298.656 403.789 302.043 403.789 307.539C403.789 313.047 406.824 316.434 411.723 316.434ZM426.652 313.633C425.469 313.633 424.637 313.047 424.637 312.086C424.637 311.16 425.352 310.633 426.816 310.527L429.43 310.363V311.312C429.43 312.625 428.234 313.633 426.652 313.633ZM425.527 316.199C427.203 316.199 428.609 315.496 429.277 314.312H429.488V316H432.793V307.176C432.793 304.41 430.859 302.793 427.438 302.793C424.191 302.793 422 304.293 421.777 306.684H424.918C425.199 305.91 426.02 305.488 427.25 305.488C428.656 305.488 429.43 306.098 429.43 307.176V308.23L426.301 308.418C423.09 308.605 421.297 309.965 421.297 312.309C421.297 314.676 423.043 316.199 425.527 316.199ZM436.145 316H439.555V308.219C439.555 306.777 440.504 305.734 441.84 305.734C443.176 305.734 443.973 306.52 443.973 307.891V316H447.254V308.09C447.254 306.719 448.145 305.734 449.527 305.734C450.969 305.734 451.684 306.496 451.684 308.031V316H455.094V307.129C455.094 304.469 453.488 302.793 450.91 302.793C449.105 302.793 447.617 303.742 447.02 305.184H446.809C446.293 303.684 445.051 302.793 443.234 302.793C441.535 302.793 440.188 303.707 439.66 305.184H439.449V303.074H436.145V316ZM464 305.406C465.594 305.406 466.625 306.473 466.695 308.184H461.188C461.305 306.508 462.418 305.406 464 305.406ZM466.766 312.32C466.402 313.176 465.477 313.656 464.129 313.656C462.348 313.656 461.223 312.461 461.176 310.539V310.363H470.047V309.32C470.047 305.219 467.797 302.793 463.988 302.793C460.145 302.793 457.777 305.395 457.777 309.602C457.777 313.797 460.098 316.281 464.035 316.281C467.199 316.281 469.426 314.758 469.941 312.32H466.766ZM472.848 316H476.258V308.84C476.258 307.023 477.535 305.922 479.398 305.922C479.949 305.922 480.746 306.027 481.016 306.133V303.027C480.723 302.922 480.148 302.863 479.68 302.863C478.039 302.863 476.703 303.848 476.363 305.137H476.152V303.074H472.848V316ZM487.73 313.633C486.547 313.633 485.715 313.047 485.715 312.086C485.715 311.16 486.43 310.633 487.895 310.527L490.508 310.363V311.312C490.508 312.625 489.312 313.633 487.73 313.633ZM486.605 316.199C488.281 316.199 489.688 315.496 490.355 314.312H490.566V316H493.871V307.176C493.871 304.41 491.938 302.793 488.516 302.793C485.27 302.793 483.078 304.293 482.855 306.684H485.996C486.277 305.91 487.098 305.488 488.328 305.488C489.734 305.488 490.508 306.098 490.508 307.176V308.23L487.379 308.418C484.168 308.605 482.375 309.965 482.375 312.309C482.375 314.676 484.121 316.199 486.605 316.199Z" fill="black"/>
<path d="M673.707 316V299.09H669.547L664.859 310.457H664.648L659.973 299.09H655.801V316H659.082V304.691H659.27L663.582 315.027H665.938L670.238 304.691H670.426V316H673.707ZM683.059 305.406C684.652 305.406 685.684 306.473 685.754 308.184H680.246C680.363 306.508 681.477 305.406 683.059 305.406ZM685.824 312.32C685.461 313.176 684.535 313.656 683.188 313.656C681.406 313.656 680.281 312.461 680.234 310.539V310.363H689.105V309.32C689.105 305.219 686.855 302.793 683.047 302.793C679.203 302.793 676.836 305.395 676.836 309.602C676.836 313.797 679.156 316.281 683.094 316.281C686.258 316.281 688.484 314.758 689 312.32H685.824ZM691.613 306.871C691.613 308.863 692.832 310.059 695.34 310.609L697.684 311.137C698.82 311.383 699.312 311.77 699.312 312.402C699.312 313.234 698.398 313.785 697.074 313.785C695.715 313.785 694.883 313.281 694.625 312.402H691.297C691.531 314.887 693.594 316.281 697.004 316.281C700.391 316.281 702.699 314.594 702.699 312.016C702.699 310.082 701.574 309.027 699.066 308.477L696.641 307.949C695.445 307.68 694.895 307.293 694.895 306.66C694.895 305.84 695.797 305.289 697.016 305.289C698.281 305.289 699.066 305.805 699.242 306.637H702.395C702.207 304.164 700.273 302.793 696.992 302.793C693.77 302.793 691.613 304.422 691.613 306.871ZM704.973 306.871C704.973 308.863 706.191 310.059 708.699 310.609L711.043 311.137C712.18 311.383 712.672 311.77 712.672 312.402C712.672 313.234 711.758 313.785 710.434 313.785C709.074 313.785 708.242 313.281 707.984 312.402H704.656C704.891 314.887 706.953 316.281 710.363 316.281C713.75 316.281 716.059 314.594 716.059 312.016C716.059 310.082 714.934 309.027 712.426 308.477L710 307.949C708.805 307.68 708.254 307.293 708.254 306.66C708.254 305.84 709.156 305.289 710.375 305.289C711.641 305.289 712.426 305.805 712.602 306.637H715.754C715.566 304.164 713.633 302.793 710.352 302.793C707.129 302.793 704.973 304.422 704.973 306.871ZM723.523 313.633C722.34 313.633 721.508 313.047 721.508 312.086C721.508 311.16 722.223 310.633 723.688 310.527L726.301 310.363V311.312C726.301 312.625 725.105 313.633 723.523 313.633ZM722.398 316.199C724.074 316.199 725.48 315.496 726.148 314.312H726.359V316H729.664V307.176C729.664 304.41 727.73 302.793 724.309 302.793C721.062 302.793 718.871 304.293 718.648 306.684H721.789C722.07 305.91 722.891 305.488 724.121 305.488C725.527 305.488 726.301 306.098 726.301 307.176V308.23L723.172 308.418C719.961 308.605 718.168 309.965 718.168 312.309C718.168 314.676 719.914 316.199 722.398 316.199ZM738.758 313.117C736.906 313.117 735.852 311.699 735.852 309.414C735.852 307.152 736.918 305.723 738.758 305.723C740.598 305.723 741.711 307.152 741.711 309.426C741.711 311.699 740.609 313.117 738.758 313.117ZM738.711 320.898C742.613 320.898 745.086 318.988 745.086 315.953V303.074H741.781V305.148H741.57C740.879 303.73 739.391 302.863 737.645 302.863C734.363 302.863 732.348 305.418 732.348 309.426C732.348 313.316 734.352 315.812 737.574 315.812C739.391 315.812 740.75 315.086 741.465 313.727H741.676V316.117C741.676 317.57 740.609 318.414 738.781 318.414C737.305 318.414 736.344 317.91 736.168 317.113H732.793C733.004 319.387 735.277 320.898 738.711 320.898ZM748.531 316H751.941V303.074H748.531V316ZM750.242 301.27C751.461 301.27 752.258 300.555 752.258 299.547C752.258 298.527 751.461 297.824 750.242 297.824C749.012 297.824 748.227 298.527 748.227 299.547C748.227 300.555 749.012 301.27 750.242 301.27ZM755.398 316H758.809V308.547C758.809 306.848 759.781 305.734 761.363 305.734C762.98 305.734 763.742 306.672 763.742 308.453V316H767.152V307.645C767.152 304.551 765.605 302.793 762.734 302.793C760.824 302.793 759.512 303.695 758.914 305.148H758.703V303.074H755.398V316ZM776.211 313.117C774.359 313.117 773.305 311.699 773.305 309.414C773.305 307.152 774.371 305.723 776.211 305.723C778.051 305.723 779.164 307.152 779.164 309.426C779.164 311.699 778.062 313.117 776.211 313.117ZM776.164 320.898C780.066 320.898 782.539 318.988 782.539 315.953V303.074H779.234V305.148H779.023C778.332 303.73 776.844 302.863 775.098 302.863C771.816 302.863 769.801 305.418 769.801 309.426C769.801 313.316 771.805 315.812 775.027 315.812C776.844 315.812 778.203 315.086 778.918 313.727H779.129V316.117C779.129 317.57 778.062 318.414 776.234 318.414C774.758 318.414 773.797 317.91 773.621 317.113H770.246C770.457 319.387 772.73 320.898 776.164 320.898Z" fill="black"/>
</svg>
