<svg xmlns="http://www.w3.org/2000/svg" xmlns:xlink="http://www.w3.org/1999/xlink" viewBox="0 0 583.27 351.2"><defs><style>.cls-1,.cls-4{fill:none;}.cls-1,.cls-3{stroke:#ff1f35;stroke-miterlimit:10;}.cls-2{fill:url(#grad_sat);}.cls-3{fill:#ff1f35;}</style><radialGradient id="grad_sat" cx="485.29" cy="253.44" r="159.56" gradientUnits="userSpaceOnUse"><stop offset="0" stop-color="#ffa488"/><stop offset="0.29" stop-color="#ff7d70"/><stop offset="1" stop-color="#ff1f35"/></radialGradient></defs><title>flare_logo_parts_1</title><g id="Layer_2" data-name="Layer 2"><g id="Layer_1-2" data-name="Layer 1"><path class="cls-1" d="M137.51,134.64,97.22,94.35,56.6,135a57.09,57.09,0,0,0-16.83,41,58.07,58.07,0,0,0,17.16,40.6l40.28,40.28,15.54-15.54L79.91,208.46l23.86-23.86a12.72,12.72,0,0,0,0-18l-6.55-6.55L65.59,191.69a35.38,35.38,0,0,1-3.81-17.78,35.89,35.89,0,0,1,10.59-23.63l24.84-24.84,24.85,24.85a35.88,35.88,0,0,1,10.6,24,35.27,35.27,0,0,1-10.37,26.38l-7.77,7.77L130.07,224l7.77-7.77a57.09,57.09,0,0,0,16.83-41A58.07,58.07,0,0,0,137.51,134.64Z"/><path class="cls-2" d="M526.34,134.64,486,94.35,445.42,135a57.09,57.09,0,0,0-16.83,41,58.07,58.07,0,0,0,17.16,40.6L486,256.85l15.54-15.54-32.85-32.85,23.86-23.86a12.72,12.72,0,0,0,0-18L486,160.06l-31.63,31.63a35.38,35.38,0,0,1-3.81-17.78,35.89,35.89,0,0,1,10.59-23.63L486,125.43l24.85,24.85a35.88,35.88,0,0,1,10.6,24,35.27,35.27,0,0,1-10.37,26.38l-7.77,7.77L518.9,224l7.77-7.77a57.09,57.09,0,0,0,16.83-41A58.07,58.07,0,0,0,526.34,134.64Z"/><path class="cls-3" d="M81.68,109.89,56.6,135a57.09,57.09,0,0,0-16.83,41,58.07,58.07,0,0,0,17.16,40.6l40.28,40.28,15.54-15.54L79.91,208.46l23.86-23.86a12.72,12.72,0,0,0,0-18l-6.55-6.55L65.59,191.69a35.38,35.38,0,0,1-3.81-17.78,35.89,35.89,0,0,1,10.59-23.63l24.84-24.84Z"/><path class="cls-1" d="M331.92,134.64,291.63,94.35,251,135a57.09,57.09,0,0,0-16.83,41,58.07,58.07,0,0,0,17.16,40.6l40.28,40.28,15.54-15.54-32.85-32.85,23.86-23.86a12.72,12.72,0,0,0,0-18l-6.55-6.55L260,191.69a35.38,35.38,0,0,1-3.81-17.78,35.89,35.89,0,0,1,10.59-23.63l24.84-24.84,24.85,24.85a35.88,35.88,0,0,1,10.6,24,35.27,35.27,0,0,1-10.37,26.38l-7.77,7.77L324.49,224l7.77-7.77a57.09,57.09,0,0,0,16.83-41A58.07,58.07,0,0,0,331.92,134.64Z"/><path class="cls-3" d="M324.49,224l-15.54-15.54,7.77-7.77a35.27,35.27,0,0,0,10.37-26.38,35.88,35.88,0,0,0-10.6-24l-24.85-24.85-24.84,24.84A35.89,35.89,0,0,0,256.2,173.9,35.38,35.38,0,0,0,260,191.69l31.63-31.63,6.55,6.55a12.72,12.72,0,0,1,0,18l-23.86,23.86,32.85,32.85Z"/><rect class="cls-4" width="583.27" height="351.2"/></g></g></svg>