<?xml version="1.0" encoding="utf-8"?>
<!-- Generator: Adobe Illustrator 21.1.0, SVG Export Plug-In . SVG Version: 6.00 Build 0)  -->
<svg version="1.1" id="Layer_1" xmlns="http://www.w3.org/2000/svg" xmlns:xlink="http://www.w3.org/1999/xlink" x="0px" y="0px"
	 viewBox="0 0 1200 675" style="enable-background:new 0 0 1200 675;" xml:space="preserve">
<style type="text/css">
	.st0{fill:#FFFFFF;}
	.st1{stroke:#000000;stroke-width:0.75;stroke-miterlimit:10;}
</style>
<title>tgo_hero</title>
<g id="Layer_2">
	<g id="Layer_2-2">
		<rect class="st0" width="1200" height="675"/>
		<path class="st1" d="M567.4,181.5v72c0,9.3-3.4,15.6-13.4,15.6v1.7h39v-1.7c-11.5,0-18.6-2.5-18.6-15.5v-35.3h60.9v35.4
			c0,13-7.1,15.5-18.6,15.5v1.7h39.4l-0.1-1.8c-10.7,0-13.8-3.5-13.8-11.9V185c0-9.3,3.4-15.6,13.4-15.6v-1.7h-38.9v1.7
			c11.5,0,18.6,2.5,18.6,15.5v28.4h-60.9V184c0.3-12.2,7.3-14.5,18.6-14.5v-1.7h-39.5l0.1,1.8C564.4,169.6,567.4,173.1,567.4,181.5z
			"/>
		<path class="st1" d="M738.5,252.5l-0.9-0.4c-2.4,4.4-6.2,9.7-16.2,12.7c-8,2.4-20.8,3.5-43,3.5l-0.3-46.2h32.2
			c11.5,0,11.1,11.3,11.1,16.8h1.8l-0.5-39.7h-1.8c0,8.6-0.1,17.7-10.6,17.7h-32.2v-44.7c0,0,29,0.1,38.6,0.1
			c14,0,14.9,12,14.9,24.9h1.7l-0.4-29.5h-72.3v1.7c7.5,0,10.3,6.2,10.3,13.8l-0.1,74.8c0,6.4-3.7,11.1-10.2,11.1v1.7
			c0,0,37.1,0.5,55.4,0.5C736.3,271.3,738.2,254.4,738.5,252.5z"/>
		<path class="st1" d="M414,309.6v76.5c0,8.2-2.4,12.2-13,12.2v1.6h39.5v-2.1l-18.6-2.1V352l16.2-0.1c2.4,6.5,21,48.5,58.5,63.8
			l0.4-1.2c-6.6-4.3-12.8-9.3-18.3-15H590v0.3h39.4v-2.1l-18.6-2.1V352l12.7-0.1c29.7,0,35.9-15.5,35.9-29.3
			c0-21.7-18.7-25.8-39.2-25.8H590v1.6c10.6,0,13,5.2,13,11.3v76.5c0,6.5-1.5,10.3-7.3,11.6l-16.2-28.1c1-0.6,2-1.2,2.8-1.7
			c3,1.4,5.2,0.4,6.2-1c1.4-2.1,1.1-5-0.8-6.7c-0.7-0.9-1.1-1.9-1.3-3c0.1-0.3,0.1-0.6,0-0.9l-0.2,0.1c-0.2-0.8-0.4-1.6-0.7-2.4
			c-2.2-5-4.6-8.8-7.4-11.5c-3.6-3.2-7.9-5.5-12.5-6.7l0,0l-0.2-0.1c-2-0.5-4-1-6.3-1.4l-22.2-38.5l-24,41.5
			c-1.5,0.6-2.9,1.2-4.4,1.8l0,0l-0.2,0.1l0,0c-10.9,4.9-20.3,12.4-27.5,21.9l-0.3,0.3l0.3,0.3c3.9,3.4,8.1,6.4,12.6,9.1l-15.9,27.5
			c-18.5-19.2-28.6-41.9-30.6-47.5c19.1-3.8,23.5-16.6,23.5-28.3c0-21.7-18.7-25.8-39.2-25.8h-30.3v1.6
			C411.7,298.3,414,303.5,414,309.6z M609.7,300.8h9.8c17.9,0,29.9,5.5,29.9,22.7c0,21.1-12.8,25.7-27.5,25.7h-12.1L609.7,300.8z
			 M586,360.8c1.5,1.4,1.9,3.7,0.7,5.5c-1.1,1.5-3,1.7-5.2,0.7c-0.3-0.6-1.3-3,0-4.7c0.4-0.5,0.8-1,1.3-1.5c0.7-0.8,1.3-1.6,1.9-2.4
			C584.9,359.3,585.4,360.1,586,360.8L586,360.8z M508.1,340l0.7-0.3l0.8-0.4l0.8-0.3l0.8-0.3l0.8-0.3l0.5-0.2
			c0.7-0.2,1.3-0.5,2-0.7h0.1c0.7-0.2,1.3-0.5,2-0.7l0.5-0.2l1.6-0.5l0.3-0.2l0.3-0.1l1.3-0.3c-6.2,8.8-4.2,20.9,4.6,27.2
			c8.8,6.2,20.9,4.2,27.2-4.6c2.3-3.3,3.6-7.2,3.6-11.3c0-4.7-1.7-9.2-4.7-12.7l2,0.3c1.6,0.2,3,0.5,4.5,0.7l1,0.2l0,0l0.3,0
			l0.7,0.1l0.7,0.1l0.6,0.1l0.7,0.1l0.6,0.1l0.7,0.2l0.5,0.1l0.5,0.1c5.6,15.1-2.1,32-17.2,37.6c-15.1,5.6-32-2.1-37.6-17.2
			C507.1,351.5,506.8,345.6,508.1,340z M513.2,337l22.7-39.2l21,36.5l-0.5-0.1l-3.1-0.5c-1-0.1-2-0.3-3.2-0.5
			c-6.3-0.9-12.7-1-19-0.3c-2.6,0.3-5.2,0.7-7.8,1.2h-0.1l-1.6,0.4h-0.2l0,0h-0.1l-0.3,0.1H521l-1.7,0.4h-0.2l-0.5,0.1l-1.4,0.4
			l-0.6,0.2l-1.3,0.4l-0.6,0.2l-1.3,0.4L513.2,337z M496.2,346.8c3.4-2.4,7.1-4.5,10.9-6.2c-3.6,16.3,6.7,32.3,23,35.9
			s32.3-6.7,35.9-23c1.2-5.5,0.9-11.2-1-16.5c4.3,1.1,8.2,3.3,11.5,6.3c2.8,2.6,5.1,6.2,7.2,11.2c0.3,0.7,0.5,1.5,0.6,2.2l0.1,0.6
			c-0.6,1.1-1.4,2.2-2.3,3.1c-0.4,0.5-0.9,1-1.3,1.5c-0.6,0.8-0.9,1.8-0.9,2.8c-1.4,0.7-8.1,4-12.2,6c-4.6,2.2-17.4,5.9-22.5,7.1
			c-8.7,2.1-23.6,0.4-23.8,0.4c-8.6-1.7-17-4.7-24.7-9c-10.5-5.8-13.6-9.9-13.7-9.9l-0.7,0.5c0.1,0.2,3.3,4.3,14,10.2
			c7.8,4.3,16.2,7.4,25,9.1c4.1,0.4,8.3,0.7,12.5,0.7c3.9,0.1,7.8-0.2,11.6-1c5.3-1.3,17.9-5,22.7-7.2c3.9-1.9,10-4.9,11.9-5.9
			c0.1,0.6,0.3,1.2,0.5,1.7c-1,0.7-2.2,1.4-3.6,2.2l-0.2,0.1l-1.2,0.6l0,0c-1.7,0.9-3.6,1.9-5.7,2.9l-0.2,0.1l-1.4,0.6l-0.2,0.1
			l-1.4,0.6l-0.3,0.1l-1.5,0.6l-0.3,0.1l-1.6,0.6l-0.2,0.1c-1.8,0.7-3.8,1.3-5.8,1.9h-0.1l-1.9,0.5l-0.5,0.1L553,379l-0.6,0.1
			l-1.5,0.3l-0.7,0.1l-1.4,0.3L548,380l-1.5,0.2l-0.8,0.1l-1.5,0.2l-0.8,0.1l-1.8,0.2l-0.5,0c-0.8,0.1-1.6,0.1-2.4,0.2h-0.6
			l-1.8,0.1h-1h-1.5h-1.1h-1.4h-1.1l-1.4-0.1l-1.2-0.1l-1.4,0l-1.2-0.1l-1.5-0.2l-1.1-0.1l-1.7-0.3l-1-0.1c-0.9-0.1-1.8-0.3-2.7-0.5
			s-2.1-0.5-3.1-0.7l-0.7-0.2c-0.8-0.2-1.6-0.4-2.3-0.6l-1.2-0.4c-0.6-0.2-1.2-0.4-1.8-0.6l-1.4-0.5l-1.5-0.5l-1.5-0.6l-1.3-0.5
			l-1.6-0.7l-1.1-0.5l-1.6-0.8l-1-0.5l-1.6-0.8l-0.8-0.4c-5-2.8-9.8-6.1-14.1-9.8C485.2,355.8,490.4,350.8,496.2,346.8L496.2,346.8z
			 M493.3,371.4l1.1,0.6l0.9,0.5l1.7,0.9l0.9,0.5c0.6,0.3,1.1,0.6,1.7,0.8l0.9,0.4c0.6,0.3,1.2,0.5,1.8,0.8l1,0.4
			c0.6,0.2,1.2,0.5,1.8,0.7l1,0.3c1.3,0.5,2.7,1,4.1,1.4l0.8,0.2c0.5,0.2,1.1,0.3,1.6,0.4s1,0.3,1.5,0.4c1,0.3,2.1,0.5,3.1,0.7
			c0.8,0.2,1.6,0.3,2.3,0.5l0.7,0.1l1.6,0.3l0.9,0.1l1.5,0.2l0.9,0.1l1.4,0.1l0.9,0.1l1.5,0.1h0.7l2.1,0.1h3.2h1.1h1.2h1l1.2-0.1
			l0.9-0.1l1.2-0.1l0.8-0.1l1.3-0.1l0.7-0.1l1.3-0.2l0.5-0.1l1.5-0.2h0.2c2.9-0.5,5.9-1.2,8.8-2h0.1l1.6-0.5h0.1l1.5-0.5h0.1
			l1.5-0.5h0.1c4.2-1.4,8.3-3.2,12.2-5.2l0,0l1.1-0.6h0.1l1-0.5l0-0.4l0.9-0.5l0.2-0.1l0.6-0.3l16,27.8c-1.6,0.3-3.2,0.4-4.8,0.4
			v0.4H477.6L493.3,371.4z M420.9,300.8h9.8c17.9,0,29.9,5.5,29.9,22.7c0,21.1-12.8,25.7-27.5,25.7h-12.2V300.8z"/>
		<path class="st1" d="M761.1,298.4v-1.7h-38.9v1.7c11.5,0,18.6,2.5,18.6,15.5v28.4h-60.9V313c0.3-12.2,7.3-14.5,18.6-14.5v-1.7
			h-39.6l0.1,1.8c10.7,0,13.8,3.5,13.8,11.9v72c0,9.3-3.4,15.6-13.4,15.6v1.7h39v-1.7c-11.5,0-18.6-2.5-18.6-15.5v-35.3h60.9v35.4
			c0,13-7.1,15.5-18.6,15.5v1.7h39.4l-0.1-1.8c-10.7,0-13.8-3.5-13.8-11.9V314C747.7,304.7,751.1,298.4,761.1,298.4z"/>
		<path class="st1" d="M527,474.9c19.1-3.8,23.5-16.6,23.5-28.3c0-21.7-18.7-25.8-39.2-25.8H481v1.6c10.6,0,13,5.2,13,11.3v76.5
			c0,8.3-2.4,12.2-13,12.2v1.6h39.4v-2.1l-18.6-2.1v-43.6l16.2-0.1c2.4,6.5,21,48.5,58.5,63.8l0.4-1.2
			C546.1,518.8,529.6,482.3,527,474.9z M514,473.2h-12.2v-48.3h9.8c17.9,0,29.9,5.5,29.9,22.7C541.5,468.6,528.7,473.2,514,473.2
			L514,473.2z"/>
		<path class="st1" d="M593.6,421l-31.8-0.1v1.6c10.6,0,13,5.2,13,11.3v76.5c0,8.2-2.4,12.2-13,12.2v1.6h43.1c28,0,57-13.8,57-52.6
			S635.1,421,593.6,421z M605.1,520.5h-22.7l0.1-95.5h17.3c26.7,0,53,8.1,53,46.8C652.9,508.9,627.3,520.5,605.1,520.5L605.1,520.5z
			"/>
		<path class="st1" d="M800.2,474.9c19.1-3.8,23.4-16.6,23.4-28.3c0-21.7-18.7-25.8-39.2-25.8h-30.3v1.6c10.6,0,13,5.2,13,11.3v76.5
			c0,8.3-2.4,12.2-13,12.2v1.6h39.4v-2.1l-18.6-2.1v-43.6l16.2-0.1c2.4,6.5,21,48.5,58.5,63.8l0.4-1.2
			C819.3,518.8,802.8,482.3,800.2,474.9z M787.2,473.2h-12.1v-48.3h9.8c17.9,0,29.9,5.5,29.9,22.7
			C814.8,468.6,801.9,473.2,787.2,473.2L787.2,473.2z"/>
		<path class="st1" d="M398.9,389.3c-4.8-4-4.1-7.2-4.1-11.5v-44.3c0-5.1,1.6-7.4,4.2-9.5h-17c2.1,1.4,4.4,4,4.4,9.8V378
			c0,3.7-0.4,6.9-3,10c-3.5,4.1-12.6,10.7-29.6,10.7c-26.9,0-56.3-21.8-56.3-54c0-18.9,14-46,54.5-46c13.3,0,27.8,4.5,36.3,13.2
			l2.1-1.8c-3.7-3.4-7.8-8.4-9.4-13.3c-1.5,1.1-3.4,1.7-5.3,1.7c-5.8,0-10.1-2.9-25.9-2.9c-30.8,0-60.9,20.1-60.9,51.8
			c0,25.9,18.2,54.3,64.6,54.3c16.6,0,28.7-6.3,36.1-12.3L398.9,389.3z"/>
		<path class="st1" d="M309.1,347.6c0,21.3,17.1,32.8,34.7,32.8c23.6,0,35.2-19.7,35.2-35.7c0-21.3-17-32.7-35.2-32.7
			C320.8,312,309.1,331.6,309.1,347.6z M314.7,343.9c-0.1-9.3,4.3-18,11.8-23.5l32.3,53.3c-4.6,2.4-9.7,3.6-14.9,3.5
			C328.4,377.2,314.7,362.7,314.7,343.9L314.7,343.9z M373.5,348.5c0.1,10.3-5.3,19.9-14.3,25l0.4-0.2l-32.3-53.4l-0.2,0.1
			c5-3.3,10.9-5,16.9-4.9C359.8,315.2,373.5,329.7,373.5,348.5L373.5,348.5z"/>
		<path class="st1" d="M769.5,383.4c0.3,1.2,1.7,7.6,1.9,9.8v0.2l0.2,0.1c0,0,4.7,2.4,6.6,4.9c1.8,1.9,4.2,2.9,6.8,3h0.6
			c2.7,0,5.2-1.1,7.1-3c4.4-4.4,6.2-3.4,6.2-3.4l0.7,0.5l0-0.8c0-0.5,0.7-11.2,0.4-13.6c1.1-0.9,1.7-2.9,2.5-5.4
			c0.8-2.7,1.8-5.3,3.1-7.8c3-5.5,2.1-8.6,2-9.1c-0.1-0.7-1.2-8.5-0.9-11.6c0.3-3.3,0-5.4-1.2-7.5c-1-2-2-9.1-2-9.1v-0.1
			c0-0.1-0.7-2.1-2.2-2.3c-1-0.1-2,0.6-3.1,2.2c-0.3,0.4-0.5,0.8-0.7,1.3c-0.2-1.6-0.5-3.1-1-4.6c0.1-1.5,1-10.5-0.1-13
			c1.3-2,1.3-6.3,1.3-11.3c0-2.1-0.5-3.5-1.5-4c-1-0.4-2.1-0.3-3,0.4c-0.7,0.8-1.3,1.7-1.6,2.7c-0.2-1-0.5-1.9-0.9-2.9
			c-0.2-0.4-0.3-0.8-0.5-1.2c-0.3-0.9-1.1-1.6-2-1.6l0,0c-1.3,0-2.6,1.3-3.4,3.3c-0.9,2.1-2,4.2-3.2,6.1c-0.8,1.3-1.5,2.6-2.1,4
			c-0.6,2-0.3,6.4,0,8.3c0.2,1.5-0.6,8.9-1.2,13.4c-1-0.5-2.2-0.7-3.3-0.6c-1.3,0-3.5,1.5-4.2,2.1c-1.9-1.1-4.1,0.5-5.6,1.6
			l-0.3,0.2c-1.9,1.4-2.1,6.5-2.1,7.1v28c0.2,3.4,1.1,6.8,2.7,9.9C766.3,381.3,767.8,382.6,769.5,383.4z M793.7,300
			c0.3-0.2,1.3-0.8,2-0.4s1,1.5,1,3.2c0,5,0,9.3-1.2,11c-0.7,0.9-1.8,1.4-2.9,1.3l-0.2,0.9c0.2,0,0.3,0,0.5,0c1,0,2-0.4,2.8-1.1
			c0.5,2.2,0.2,8.2-0.2,12.1v0.1v0.1c0.8,2.4,1.2,4.9,1.2,7.4l0,0c-0.1,1.1-0.1,2.3,0,3.4c-2.2-0.3-4.4-0.4-6.6-0.2
			c0-4-0.5-8-1.5-11.9c0.2-4.2,0.1-8.4-0.4-12.5c1.5-2.4,2.6-5.1,3.2-7.9c0.1-0.4,0.1-0.7,0.2-1.1
			C792.2,302.8,793.1,300.3,793.7,300z M780.3,317.9c-0.3-2.2-0.5-6.2,0-7.9c0.6-1.3,1.2-2.6,2-3.9c1.2-2,2.3-4.1,3.2-6.3
			c0.8-2,1.9-2.8,2.6-2.8l0,0c0.5,0,1,0.4,1.2,1.1c0.2,0.4,0.3,0.9,0.5,1.2c0.9,1.9,1.2,4,0.7,6c-0.6,2.7-1.7,5.3-3.2,7.7l-0.1,0.1
			v0.2c0,0.1,0.8,8.1,0.4,12.6v0.1v0.1c1.1,3.8,1.6,7.8,1.7,11.8c-1.7,0.1-3.2,0.2-3.5,0.3l0.1,0.9c3.7-0.4,9.7-0.7,11-0.1
			c0.2,1.7,0.6,3.5,1.1,5.1c-0.9,2-1.5,4.2-1.7,6.4c-2,0.1-2.7,0.6-5.6,2.4l-1.3,0.8c0.1-0.6,0-1.2-0.3-1.7
			c-0.7-1.5-1.2-3.1-1.6-4.7l7.3-3.6l-0.4-0.8l-7.2,3.5c-0.1-0.6-0.2-1.1-0.3-1.5c-0.2-1.4-1-2.7-2.1-3.5l-0.1-0.1
			c-0.6-0.5-3-4.6-4.4-7c-0.6-1-1.1-1.9-1.4-2.3C779.3,330.7,780.6,319.9,780.3,317.9L780.3,317.9z M778.2,332.6
			c0.2,0.3,0.8,1.3,1.4,2.4c2.1,3.6,3.9,6.6,4.5,7.2l0.1,0.1c1,0.7,1.7,1.7,1.8,2.9c0.2,1.7,1.6,6.5,2.2,7.5c0.2,0.4,0.2,1,0,1.4
			c-0.1,0.2-0.2,0.4-0.3,0.5c-0.2,0.2-0.5,0.4-0.7,0.6c-1,0.3-3.6,1-5.7-3.1c-0.5-1.6-0.9-3.2-1.2-4.9c0.2-0.9,0.7-1.8,1.4-2.5
			l-0.1-0.9c-0.7,0.1-1.2,1-1.7,1.9c-0.2-0.6-0.5-1.2-1-1.8c-0.3-0.5-5.6-7.9-7.5-10.3c-0.1-0.1-0.2-0.2-0.3-0.3
			c0.9-0.7,2.6-1.8,3.5-1.8C776.4,331.7,777.7,331.7,778.2,332.6L778.2,332.6z M763.6,341.9c0-1.5,0.4-5.4,1.8-6.4l0.3-0.2
			c2.1-1.6,3.9-2.7,5.3-0.9c1.9,2.4,7.4,10.2,7.5,10.2v0.1c0.6,0.8,1,1.7,1.1,2.7c0.3,1.9,1.5,6.4,2.2,7.4c0.4,0.5,0.6,1.2,0.5,1.8
			c0,0.2-0.2,0.3-0.3,0.4c-1.8,0.7-3.8,0.2-5-1.2c-1.8-2.1-2.3-6.5-1.5-9.2l-0.9-0.2c-0.3,1.1-0.4,2.2-0.4,3.3l-2.2-1.3
			c-2.8-1.5-4.7-8.4-4.7-8.4l-0.9,0.2c0.1,0.3,2,7.2,5.2,9l2.8,1.5c0.1,2.1,0.8,4.1,2,5.7c1.5,1.7,4,2.3,6.1,1.4
			c0.4-0.2,0.7-0.6,0.8-1c0.1-0.5,0.1-1-0.1-1.4c0.8,0.6,1.8,1,2.9,1h0.4c-3,3.7-4,9.5-4,9.8l0.9,0.1c0-0.1,1.1-6.9,4.6-10.3
			c0.4-0.2,0.7-0.4,0.9-0.8l0.4-0.3l2-1.2c2.7-1.7,3.4-2.1,5.1-2.2c-0.2,2.8,0,5.6,0.5,8.3l0.9-0.2c0-0.1-1.9-9,1.3-15.2l0.1-0.2
			l-0.1-0.2c0-0.1-2.9-8.9,0-13.2c0.8-1.3,1.6-1.9,2.2-1.8s1.3,1.2,1.4,1.7c0.1,0.6,1,7.4,2.1,9.4s1.3,3.8,1.1,7s0.9,11.5,0.9,11.8
			v0.1c0,0,1.1,3-1.9,8.4c-1.3,2.6-2.4,5.2-3.2,8c-0.8,2.4-1.4,4.5-2.4,5.1c-0.4,0.3-0.8,0.6-1.2,0.9c-1.7,1.2-3.6,2.6-5.5,2.1
			l-0.2,0.9c0.4,0.1,0.7,0.2,1.1,0.1c1.9,0,3.6-1.3,5.2-2.4l0.6-0.4c0.1,2.4-0.2,9.1-0.4,12.4c-1-0.2-3.1,0.1-6.7,3.7
			c-3.6,3.6-9.5,3.6-13.1,0c-1.9-2.3-5.7-4.5-6.7-5c-0.3-2.1-1.3-7-1.8-9c1.7,0.7,3.4,1.1,5.2,1.4c0.2,0,0.4,0,0.7,0
			c2-0.1,3.9-1,5.2-2.5l-0.7-0.6c-1.3,1.4-3.1,2.2-5,2.1c-3-0.3-8-2-9.5-5.1c-1.5-2.9-2.4-6.2-2.6-9.5L763.6,341.9z"/>
		<path class="st1" d="M777,354.2l-0.5-0.8c-1.5,1-2.9,2.2-4.1,3.6l0.7,0.6C774.3,356.3,775.6,355.1,777,354.2z"/>
		<path class="st1" d="M781.5,360.1l-0.5-0.7c-4.2,3.3-8.4,9.9-8.6,10.1l0.8,0.5C773.2,369.9,777.4,363.2,781.5,360.1z"/>
		<path class="st1" d="M457.7,420.4c-4.7,0-9.1,1.8-12.5,5.1c-14-6.5-30.1-6.5-44.1,0.1c-6.9-6.9-18.1-7-25-0.1s-7,18.1-0.1,25
			c0.1,0.1,0.1,0.1,0.2,0.2c-6.4,13.9-6.4,29.9,0.1,43.7c-7.3,6.5-8,17.7-1.5,25s17.7,8,25,1.5c0.5-0.5,1-1,1.5-1.5
			c13.8,6.5,29.8,6.5,43.7,0.1c6.8,7,18.1,7.1,25,0.3c7-6.8,7.1-18.1,0.3-25c-0.1-0.1-0.1-0.1-0.2-0.2c6.6-13.9,6.6-30.1,0.1-44.1
			c6.9-6.9,6.8-18.2-0.1-25C466.8,422.2,462.3,420.3,457.7,420.4L457.7,420.4z M464.5,441.1c-2.8-3.7-6.1-6.9-9.8-9.8
			c3.9-1.5,8.3,0.5,9.8,4.4C465.1,437.4,465.1,439.3,464.5,441.1z M465,506.6c0,4.2-3.4,7.6-7.5,7.6c-0.9,0-1.8-0.2-2.7-0.5
			c3.7-2.8,6.9-6.1,9.8-9.8C464.8,504.8,465,505.7,465,506.6L465,506.6z M441.9,513c-0.7-1.9-1.1-3.9-1.1-5.9V507h8.1
			c0,0.6,0.1,1.2,0.3,1.7C446.9,510.4,444.5,511.8,441.9,513z M397.4,508.8c0.1-0.6,0.2-1.1,0.3-1.7h7.8v0.1c0,2-0.3,3.9-1,5.8
			C401.9,511.7,399.6,510.4,397.4,508.8L397.4,508.8z M382.1,504c2.8,3.7,6.1,6.9,9.8,9.8c-3.9,1.5-8.3-0.5-9.8-4.4
			C381.4,507.6,381.4,505.7,382.1,504z M381.6,438.4c0-4.2,3.4-7.6,7.5-7.6c0.9,0,1.8,0.2,2.7,0.5c-3.7,2.8-6.9,6.1-9.8,9.8
			C381.8,440.2,381.6,439.3,381.6,438.4L381.6,438.4z M404.3,432.1c0.7,1.9,1.1,3.8,1.1,5.8h-7.8c0-0.6-0.1-1.2-0.3-1.7
			C399.5,434.7,401.9,433.3,404.3,432.1L404.3,432.1z M422.8,438.9V455h-16.5v-16.1L422.8,438.9z M423.7,427.9
			c6,0.1,12,1.3,17.5,3.8c-0.8,2-1.2,4.1-1.2,6.3h-16.2V427.9z M448.9,438.9c0.1,1.9,0.9,3.7,2.2,5.1l-10.2,10.2v-15.4L448.9,438.9z
			 M455.1,503.8l-2.8-2.8c1.3-1.1,2.9-1.8,4.6-1.9v2.7C456.4,502.4,455.8,503.1,455.1,503.8L455.1,503.8z M454.5,504.4
			c-0.7,0.6-1.3,1.2-2,1.8h-2.7c0.1-1.7,0.8-3.3,1.9-4.6L454.5,504.4z M451.5,507.1c-0.5,0.4-1,0.8-1.5,1.2
			c-0.1-0.4-0.1-0.8-0.2-1.2H451.5z M457.9,499.1c0.4,0,0.8,0.1,1.2,0.1c-0.4,0.5-0.8,1-1.2,1.5V499.1z M457,498.2
			c-1.9,0.1-3.8,0.9-5.2,2.2l-10-10H457L457,498.2z M423.7,465c1.7,0.1,3.3,0.7,4.6,1.8l-4.6,4.6V465z M422.8,471.4l-4.5-4.5
			c1.2-1.1,2.8-1.8,4.5-1.9V471.4z M422.2,472h-6.4c0.1-1.7,0.8-3.3,1.9-4.5L422.2,472z M422.2,472.9l-4.6,4.6
			c-1.1-1.3-1.7-2.9-1.8-4.6H422.2z M422.8,473.6v6.5c-1.7-0.1-3.3-0.8-4.6-2L422.8,473.6z M423.7,473.6l4.6,4.6
			c-1.3,1.1-2.9,1.8-4.6,1.9V473.6z M424.4,472.9h6.5c-0.1,1.7-0.8,3.4-1.9,4.6L424.4,472.9z M424.4,472l4.6-4.6
			c1.2,1.3,1.9,2.9,2,4.6H424.4z M429,466.2c-1.4-1.3-3.3-2-5.2-2.1v-8.3h15.6L429,466.2z M422.8,464.1c-1.9,0.1-3.7,0.9-5.1,2.2
			l-10.5-10.5h15.6L422.8,464.1z M417.1,466.9c-1.3,1.4-2,3.2-2.2,5.1h-8.6v-15.9L417.1,466.9z M414.9,472.9
			c0.1,1.9,0.8,3.8,2.1,5.2l-10.7,10.7V473L414.9,472.9z M417.6,478.8c1.4,1.3,3.3,2.1,5.2,2.2v8.4H407L417.6,478.8z M423.8,481
			c2-0.1,3.8-0.8,5.3-2.2l10.6,10.6h-15.9L423.8,481z M429.7,478.2c1.3-1.5,2.1-3.3,2.2-5.3h8.2v15.6L429.7,478.2z M431.8,472
			c-0.1-1.9-0.9-3.8-2.2-5.2l10.4-10.3V472L431.8,472z M451.8,444.6c1.4,1.3,3.3,2.1,5.2,2.2v8.1h-15.5L451.8,444.6z M455.2,441.2
			c0.6,0.7,1.2,1.3,1.8,2v2.7c-1.7-0.1-3.3-0.8-4.6-1.9L455.2,441.2z M457.9,444.2c0.4,0.5,0.8,1,1.2,1.5c-0.4,0.1-0.8,0.1-1.2,0.1
			V444.2z M452.6,438.8c0.7,0.6,1.3,1.2,2,1.8l-2.8,2.8c-1.1-1.3-1.8-2.9-1.9-4.6H452.6z M449.9,437.9c0-0.4,0.1-0.8,0.2-1.2
			c0.5,0.4,1,0.8,1.5,1.2H449.9z M440,438.8v16.1h-16.2v-16L440,438.8z M405.4,454l-10-10c1.3-1.4,2.1-3.3,2.2-5.2h7.8L405.4,454z
			 M388.7,445.9c-0.4,0-0.8-0.1-1.2-0.1c0.4-0.5,0.8-1,1.2-1.5V445.9z M389.6,443.2c0.6-0.7,1.2-1.3,1.8-2l2.8,2.8
			c-1.3,1.1-2.9,1.8-4.6,1.9V443.2z M392.1,440.6c0.7-0.6,1.3-1.2,2-1.8h2.7c-0.1,1.7-0.8,3.3-1.9,4.6L392.1,440.6z M395.1,437.9
			c0.5-0.4,1-0.8,1.5-1.2c0.1,0.4,0.1,0.8,0.2,1.2H395.1z M387,446.6c0.6,0.1,1.1,0.2,1.7,0.3v8.1h-0.1c-2,0-4-0.4-5.9-1.1
			C383.9,451.3,385.3,448.9,387,446.6L387,446.6z M389.6,446.8c1.9-0.1,3.8-0.9,5.2-2.2l10.2,10.2h-15.4L389.6,446.8z M405.4,455.8
			V472h-15.8v-16.2H405.4z M405.4,473v16.5h-15.8V473L405.4,473z M404.8,490.4l-10,10c-1.4-1.3-3.3-2.1-5.2-2.2v-7.8L404.8,490.4z
			 M391.4,503.7c-0.6-0.6-1.2-1.3-1.8-2V499c1.7,0.1,3.3,0.8,4.6,1.9L391.4,503.7z M388.7,500.7c-0.4-0.5-0.8-1-1.2-1.5
			c0.4-0.1,0.8-0.1,1.2-0.1V500.7z M394,506.2c-0.7-0.6-1.3-1.2-2-1.8l2.8-2.8c1.1,1.3,1.8,2.9,1.9,4.6H394z M396.7,507.1
			c0,0.4-0.1,0.8-0.2,1.2c-0.5-0.4-1-0.8-1.5-1.2H396.7z M388.7,498.2c-0.6,0-1.2,0.1-1.7,0.3c-1.6-2.2-3-4.6-4.1-7.1
			c1.8-0.7,3.8-1,5.8-1h0.1L388.7,498.2z M397.6,506.2c-0.1-1.9-0.9-3.8-2.2-5.2l10-10v15.2L397.6,506.2z M406.3,490.4h16.5v15.8
			h-16.5V490.4z M423.7,490.4H440v15.8h-16.3L423.7,490.4z M440.9,490.7l10.2,10.3c-1.3,1.4-2.1,3.3-2.2,5.2h-8.1L440.9,490.7z
			 M459.6,498.5c-0.6-0.1-1.1-0.2-1.7-0.3v-7.8c2,0,4,0.4,5.8,1.1C462.5,493.9,461.1,496.2,459.6,498.5L459.6,498.5z M457,489.5
			h-16.1l0,0V473H457L457,489.5z M440.9,472v-16.2H457V472L440.9,472z M457.9,455.8c2.2,0,4.3-0.4,6.3-1.2
			c2.4,5.5,3.7,11.4,3.8,17.5h-10.1L457.9,455.8z M457.9,454.9v-8.1c0.6,0,1.2-0.1,1.7-0.3c1.6,2.3,3,4.7,4.2,7.2
			C461.9,454.5,459.9,454.9,457.9,454.9L457.9,454.9z M449,437.9h-8.1c0-2,0.4-4,1.1-5.9c2.5,1.2,4.9,2.6,7.2,4.2
			C449.1,436.8,449,437.3,449,437.9L449,437.9z M422.8,427.9v10.1h-16.5c0-2.1-0.4-4.2-1.2-6.2C410.7,429.2,416.7,427.9,422.8,427.9
			L422.8,427.9z M371.8,438.1c0-9.3,7.5-16.8,16.8-16.8c4.3,0,8.5,1.7,11.6,4.7c-2.7,1.3-5.2,2.9-7.6,4.6c-4.2-2-9.3-0.1-11.2,4.2
			c-1,2.2-1,4.8,0,7.1c-1.8,2.5-3.5,5.2-4.8,8C373.5,446.7,371.8,442.5,371.8,438.1L371.8,438.1z M388.7,455.8h0.1V472h-10.1
			c0.1-6,1.3-11.9,3.7-17.4C384.4,455.4,386.5,455.8,388.7,455.8L388.7,455.8z M378.7,472.9h10.1v16.5h-0.1c-2.1,0-4.2,0.4-6.1,1.1
			C380,485,378.7,479,378.7,472.9L378.7,472.9z M388.7,523.9c-9.3,0-16.8-7.5-16.8-16.8c0-4.5,1.8-8.7,4.9-11.9
			c1.3,2.7,2.9,5.4,4.7,7.8c-2,4.2-0.1,9.3,4.2,11.2c2.2,1,4.8,1,7.1,0c2.5,1.8,5.1,3.4,7.8,4.7C397.4,522.2,393.1,524,388.7,523.9
			L388.7,523.9z M406.4,507.1V507h16.5v10.1c-6.1-0.1-12.1-1.4-17.6-3.8C406,511.3,406.3,509.3,406.4,507.1L406.4,507.1z
			 M423.8,517.1v-10H440v0.1c0,2.1,0.4,4.2,1.1,6.2C435.7,515.8,429.7,517.1,423.8,517.1L423.8,517.1z M474.6,507.1
			c0,9.3-7.5,16.8-16.8,16.8c-4.4,0-8.6-1.7-11.8-4.8c2.8-1.4,5.5-3,8-4.8c4.2,2,9.3,0.1,11.2-4.2c1-2.2,1-4.8,0-7.1
			c1.8-2.4,3.3-5,4.6-7.6C472.8,498.6,474.5,502.8,474.6,507.1L474.6,507.1z M457.9,489.4V473H468c-0.1,6.1-1.4,12.1-3.9,17.7
			C462.1,489.9,460,489.5,457.9,489.4L457.9,489.4z M465.2,441.8c2-4.2,0.1-9.3-4.2-11.2c-2.2-1-4.8-1-7.1,0
			c-2.5-1.8-5.1-3.4-7.8-4.7c6.6-6.6,17.2-6.6,23.8,0s6.6,17.2,0,23.8C468.5,446.9,466.9,444.3,465.2,441.8L465.2,441.8z"/>
		<path class="st1" d="M752.2,483.2c-2-8.6-11.8-11.6-17.4-12.1l1.3-1.4c2.9-3,6.2-6.4,7.7-11c1.2-3.9,0.8-8.3-1-10.9
			c-0.9-1.3-2.3-2.1-3.9-2.2c-0.9,0-2.1,1.3-3.7,3.2c-0.4,0.5-0.7,0.9-1,1.1s-0.7,0.7-1.1,1.3c-0.7,0.9-2.3,2.9-2.8,2.9l0,0v0.5l0,0
			v0.5l0,0c1.3,0,2.4,0.7,3.2,1.7c1.6,2.2,2,6.1,1.1,9.5c-1.5,5.3-5.3,9.1-8.7,12.5c-0.9,0.9-1.8,1.8-2.6,2.7
			c-1.1,1.2-2.3,2.4-3.5,3.6c-2.9,2.7-5.5,5.7-7.7,8.9c-2.2,3.3-1.9,5.8-1.2,7.3c1.1,2.1,3.1,3.5,5.5,3.8h0.1c0.8,0,1.8-1.1,3.7-3.3
			c0.4-0.4,0.7-0.8,0.9-1s0.6-0.6,1-1.2c0.7-0.9,2.4-2.9,2.9-3l0.1-0.9c-2-0.2-3.8-1.4-4.8-3.2c-0.8-1.6-0.5-3.7,0.9-5.9
			c1.5-2.3,3.2-4.5,5.1-6.5v0.2l0,0c5.5,0.4,12.5,2.9,15.8,8.8c1.8,3.4,1.5,8,0.8,12c-0.3,2.1-0.8,4.1-1.5,6c-0.3,0.6-0.6,1.2-1,1.7
			l-0.2,0.2c-3.6,2.3-7.5,4.1-11.6,5.1c-5.9,1.5-12,1.7-18,0.7c-15.1-2.3-24.9-8.5-29.9-19.2c-1.7-3.3-2.6-7-2.6-10.8
			c0.1-1.8,0.4-3.5,1.1-5.2c0.1-0.2,0.2-0.5,0.3-0.7c1.5-0.9,3-1.6,4.6-2.3c3-1.2,6.2-2.1,9.4-2.5c4.4,0,8.8-0.6,13-1.9
			c1.1-0.3,2.3-1.7,3.4-3c0.4-0.5,0.8-1,1.1-1.3s0.8-0.9,1.3-1.5c0.9-1.1,2-2.5,2.8-2.7l-0.2-0.9l0,0c-4,1.2-8.1,1.9-12.3,1.9v-0.1
			l0,0H702h-0.2c-3.9,0-7.7-1.2-11-3.3c-3.1-2.2-6.3-6.6-8.1-11.4c-2.1-5.6-2-10.9,0.3-14.7c0.8-1.2,1.7-2.4,2.6-3.4
			c0.4-0.2,0.7-0.4,1.1-0.6c0.4-0.3,0.8-0.5,1.2-0.7c3.9-1.9,8-1.8,11.9-1.3c3.9,0.4,7.8,1.2,11.5,2.6l0.7,0.2
			c2.9,1.1,7.7,2.9,8,6.9l0,0l0.9-0.1c0,0,0,0.1,0,0.1c1-1.2,2.2-2.2,3.4-3.2c0.4-0.4,0.7-0.6,0.8-0.7s0.4-0.3,0.7-0.6
			c2.8-2.4,3.7-3.3,3.7-4c-0.3-5.4-7.6-7.5-11-8.6l-0.5-0.2c-4.7-1.5-9.6-2.2-14.5-2.1c-8.5,0.2-15.2,7.3-21.7,14.1l-1.6,1.7l-1,1
			c-2.9,3-6.5,6.6-7.4,11.6c-1.3,6.8,2.8,14.1,5.3,17.8c1.7,2.6,4.2,4.8,7,6.2c-4.5,3.2-8.5,7-12,11.2c-3.2,3.7-4.5,8.6-3.7,13.3
			c1.2,8.4,7.8,16.9,13.5,20.6c7.7,5,16.8,7.6,26,7.6c3,0,5.9-0.3,8.9-0.8c11.9-2.2,21.1-10.3,29.1-18.7
			C750.6,500.7,754.1,491.5,752.2,483.2z M703.7,420.8c4.8-0.1,9.6,0.6,14.2,2.1l0.5,0.2c3.3,1,10.1,3,10.4,7.8
			c-0.1,0.6-2.5,2.6-3.4,3.3c-0.4,0.3-0.7,0.5-0.8,0.7s-0.4,0.4-0.8,0.7c-1.5,1.3-2.4,2.1-3,2.7c-1-3.8-5.8-5.6-8.4-6.6l-0.7-0.2
			c-3.8-1.4-7.7-2.3-11.8-2.6c-1.5-0.2-2.9-0.3-4.4-0.3c-2.8-0.1-5.5,0.5-8,1.7c-0.5,0.2-0.9,0.5-1.3,0.8l-0.2,0.1
			C691.5,425.6,697.1,421,703.7,420.8z M716.8,523.2c-11.8,2.2-24.1-0.2-34.2-6.7c-5.5-3.6-11.9-11.8-13.1-20
			c-0.7-4.5,0.6-9.1,3.5-12.6c3.6-4.4,7.8-8.2,12.5-11.5l0.7-0.5l-0.8-0.3c-3-1.3-5.5-3.5-7.3-6.2c-2.5-3.6-6.4-10.7-5.2-17.1
			c0.9-4.7,4.4-8.2,7.2-11.1l1-1l1.6-1.7l0.5-0.5c-0.2,0.3-0.5,0.7-0.7,1.1c-5.7,9.4,2.1,23.2,8,27.3c2.9,1.9,6.3,3.1,9.8,3.4
			l-0.2,0.1h1.8h0.3c3.6,0,7.1-0.4,10.6-1.3c-0.5,0.5-0.9,1-1.3,1.5s-0.9,1.1-1.2,1.4s-0.8,0.8-1.2,1.3c-1,1.1-2.1,2.5-3,2.7
			c-4.1,1.3-8.5,1.9-12.8,1.9h-0.1c-3.3,0.4-6.6,1.3-9.7,2.5c-1.7,0.7-3.3,1.5-4.8,2.4l-0.1,0.1l-0.1,0.1c-0.2,0.3-0.3,0.6-0.5,0.9
			c-0.7,1.8-1.1,3.6-1.2,5.5c0,3.9,0.9,7.7,2.6,11.2c5.1,11,15.2,17.4,30.6,19.7c6.1,1,12.3,0.7,18.3-0.8c4.2-1.1,8.1-2.8,11.7-5.1
			C733.5,516.2,726,521.6,716.8,523.2L716.8,523.2z M745.4,504.8c-1.5,1.6-3.1,3.2-4.8,4.8l0.1-0.2c0.4-0.6,0.8-1.2,1.1-1.9
			c0.8-2,1.3-4.1,1.6-6.2c0.6-4.2,1-9-0.9-12.6c-3.1-5.7-9.6-8.4-15.1-9.1c0.8-0.8,1.5-1.6,2.2-2.5c0.4-0.5,0.8-1,1-1.2
			s0.6-0.6,1-1.1c0.7-0.8,2.5-2.9,3-2.9c5.3,0.4,14.8,3.2,16.8,11.4C753.2,491.3,749.7,500.3,745.4,504.8L745.4,504.8z"/>
		<path class="st1" d="M915.1,362.6c-8.9,17.1-29,25.1-47.2,18.6v1c16.5,5.7,34.8-0.1,45-14.2c-8.7,18.8-28,30.5-48.8,29.5
			c-0.2,0.3-0.5,0.6-0.8,0.9l-0.1,0.1c1.1,0.1,2.2,0.1,3.3,0.1c22.4,0,42.3-14.3,49.4-35.6L915.1,362.6z"/>
		<path class="st1" d="M850.9,396.2c0.4-0.2,0.7-0.4,1.1-0.7c-27-8.2-42.3-36.7-34.1-63.7c5.6-18.7,21.4-32.5,40.7-35.6v-1
			c-28.4,4.4-47.8,31-43.4,59.3C818.1,374.1,832,390.2,850.9,396.2L850.9,396.2z"/>
		<path class="st1" d="M858.4,313.6v-1.2c-3.2,2.2-6.1,4.9-8.5,8c-13.6,17-10.8,41.9,6.2,55.4c0,0,0,0,0.1,0.1
			c0.6,0.5,1.3,1,1.9,1.4v-1.2c-0.5-0.3-0.9-0.7-1.3-1c-16.6-13.2-19.4-37.4-6.2-54c0,0,0,0,0.1-0.1
			C852.9,318.2,855.5,315.7,858.4,313.6z"/>
		<path class="st1" d="M893.1,307.4c-4.4-1.4-9.1-2.1-13.7-1.9v1c4.4-0.2,8.8,0.4,13,1.7L893.1,307.4z"/>
		<path class="st1" d="M896.8,305.1l-2.9,2.9l-0.5,0.5l0,0l-47.2,46.7c0.9,2.6,2,5.2,3.5,7.6l17.5-17.3L901,312l0.6-0.6l0,0l1-1l0,0
			l0.4-0.4l5.1-5l-5.5-5.6l-5.2,5.2l0,0L896.8,305.1z"/>
		<path class="st1" d="M901.8,312.6c3.2,2.1,6.1,4.6,8.5,7.5l0.8-0.6c-2-3.3-4.4-6.3-7.1-9.1l-0.7,0.7c1.3,1.3,2.5,2.7,3.6,4.2
			c-1.4-1.2-2.9-2.4-4.4-3.4L901.8,312.6z"/>
		<path class="st1" d="M898.7,304c-8.3-5.8-18.1-9.1-28.3-9.5v1c9.9,0.3,19.5,3.5,27.6,9.2L898.7,304z"/>
		<polygon class="st1" points="848.3,302.2 848.2,310 859.4,310.1 859.4,311.8 859.4,311.8 859.4,313 859.4,313 859.3,340.2 
			867.1,332.5 867.2,310.1 878.4,310.1 878.4,306.5 878.4,306.5 878.4,305.9 878.4,302.3 867.2,302.3 867.3,295.5 867.3,295.5 
			867.3,294.5 867.3,294.5 867.3,290.2 859.5,290.2 859.5,295 859.5,295 859.5,296 859.5,296 859.4,302.3 		"/>
		<path class="st1" d="M866.9,382.5v-1.6l0,0l0.1-33.2l-7.8,7.8l-0.1,21.4l0,0v2c0,10.1-3.6,14.9-6,17c-0.3,0.3-0.7,0.5-1,0.8
			c-0.3,0.2-0.7,0.4-1,0.6l-0.2,0.1c-6.7,2.7-14.3-0.4-17.1-7.1c-0.2-0.4-0.3-0.9-0.5-1.3c-2.9-2.1-5.6-4.5-8-7.2
			c-1.9,11.4,5.7,22.3,17.2,24.2c1.1,0.2,2.1,0.3,3.2,0.3h0.1c6.3,0,12.3-2.8,16.3-7.6l0,0c0.2-0.2,0.3-0.4,0.5-0.6l0-0.1l0.2-0.3
			l0,0C867.2,393,866.9,382.6,866.9,382.5z"/>
		<path class="st1" d="M465.2,231.4l30.5,30.5c-6.2,5.4-14.2,8.4-22.5,8.4v0.9h31.8l0.1,0.1l0.1-0.1h5.7l0.1,0.1l0.1-0.1H543v-0.9
			c-8.3,0-16.3-3-22.5-8.4l30.5-30.5c5.4,6.2,8.4,14.2,8.4,22.5h0.9v-69.8h-0.9c0,8.4-3,16.5-8.6,22.8l-30.6-30.6
			c6.3-5.6,14.4-8.6,22.8-8.6v-0.9h-69.7v0.9c8.4,0,16.5,3.1,22.7,8.6l-30.6,30.6c-5.6-6.3-8.6-14.4-8.6-22.8h-0.9v69.8h0.9
			C456.8,245.7,459.8,237.7,465.2,231.4z M495.8,192.1c0-4.6,0.9-9.1,2.7-13.3c5.9,6.4,9.2,14.7,9.2,23.4v16.4h-16.4
			c-8.7,0-17-3.2-23.3-9.1c12.8-5.2,27.5-2.3,37.2,7.5l0.6-0.6C499.4,209.9,495.7,201.2,495.8,192.1L495.8,192.1z M511.1,216.9
			c6.4-6.4,15.1-10,24.2-10l0,0c4.5,0,8.9,0.9,13,2.6c-6.3,5.9-14.7,9.1-23.3,9.1h-16.4v-16.4c0-8.7,3.3-17.1,9.2-23.4
			c5.4,12.8,2.5,27.7-7.3,37.6L511.1,216.9z M518,259.5c-6-6.4-9.4-14.8-9.4-23.6v-16.2h4.9v-0.2H525c8.8,0,17.3,3.4,23.7,9.5
			c-4.2,1.8-8.7,2.7-13.3,2.7l0,0c-9.1,0-17.8-3.6-24.2-10l-0.6,0.6C520.2,232.1,523.2,246.7,518,259.5L518,259.5z M505.2,221.6
			c-9.9,9.8-24.7,12.7-37.6,7.3c6.4-6.1,14.8-9.4,23.6-9.4h12.5v0.2h4v16.2c0,8.8-3.3,17.2-9.4,23.6c-5.2-12.8-2.3-27.5,7.5-37.3
			L505.2,221.6z M465.8,230.7c0.3-0.4,0.7-0.8,1.1-1.1c11.4,4.9,24.5,3.5,34.6-3.7c-7.2,10-8.6,23-3.9,34.3
			c-0.4,0.4-0.8,0.8-1.2,1.1L465.8,230.7z M519.8,261.4c-0.4-0.4-0.8-0.7-1.2-1.1l-0.1-0.1c4.8-11.3,3.3-24.3-3.8-34.3
			c6,4.3,13.2,6.6,20.5,6.6l0,0c4.8,0,9.6-1,14-2.9c0.4,0.4,0.7,0.7,1,1.1L519.8,261.4z M550.2,207.6c-0.3,0.3-0.6,0.6-0.9,0.9
			l-0.3,0.3c-4.3-1.8-9-2.8-13.7-2.8l0,0c-7.4,0-14.6,2.3-20.5,6.6c7.2-10.1,8.6-23.2,3.7-34.6l0.2-0.2c0.3-0.3,0.6-0.6,0.9-0.9
			L550.2,207.6z M496.7,177c0.4,0.3,0.7,0.7,1.1,1.1c-4.9,11.4-3.5,24.5,3.7,34.6c-10-7.2-23-8.6-34.3-3.8l-0.3-0.3
			c-0.3-0.3-0.6-0.6-0.9-0.9L496.7,177z"/>
	</g>
</g>
</svg>
