<?xml version="1.0" encoding="utf-8"?>
<!-- Generator: Adobe Illustrator 21.1.0, SVG Export Plug-In . SVG Version: 6.00 Build 0)  -->
<svg version="1.1" id="Layer_1" xmlns="http://www.w3.org/2000/svg" xmlns:xlink="http://www.w3.org/1999/xlink" x="0px" y="0px"
	 viewBox="0 0 1600.7 886.8" style="enable-background:new 0 0 1600.7 886.8;" xml:space="preserve">
<style type="text/css">
	.st0{fill:#FFFFFF;}
	.st1{fill:none;}
	.st2{stroke:#FFFFFF;stroke-width:1.5;stroke-miterlimit:10;}
</style>
<title>tgo_logo_1</title>
<g id="Layer_2">
	<g id="Layer_2-2">
		<rect width="1600.7" height="886.8"/>
		<path class="st0" d="M1152.4,375.7c2.3-0.3,4.7-0.4,7.1-0.4h0.9v-1.2c-2.7,0-5.4,0.1-8.1,0.4c-0.6,0.1-1.1,0.2-1.6,0.2v1.2
			C1151.3,375.9,1151.8,375.8,1152.4,375.7z"/>
		<path class="st0" d="M1142.7,500c-0.4,0.3-0.8,0.6-1.2,0.9c4.1,1.2,8.3,2,12.5,2.3c0.2-0.3,0.4-0.5,0.6-0.8l0.1-0.1
			c0.1-0.1,0.2-0.2,0.3-0.3C1150.8,501.9,1146.7,501.1,1142.7,500z"/>
		<path class="st0" d="M1171.7,388c-7.5,0.8-14.8,3.4-21.1,7.5v1.5c6.4-4.3,13.7-6.9,21.3-7.8c0.8-0.1,1.6-0.2,2.4-0.2v-1.2
			C1173.4,387.8,1172.5,387.9,1171.7,388z"/>
		<path class="st0" d="M1219.9,458.8c-11,21.3-36.1,31.2-58.7,23.2v1.3c20.5,7.1,43.3-0.1,56-17.7c-10.9,23.4-34.8,37.9-60.6,36.7
			c-0.3,0.4-0.6,0.7-1,1.1l-0.1,0.1c1.3,0.1,2.7,0.1,4.1,0.1c27.9,0,52.7-17.8,61.5-44.3L1219.9,458.8z"/>
		<path class="st0" d="M1139.9,500.5c0.5-0.3,0.9-0.5,1.3-0.9c-33.6-10.2-52.5-45.8-42.3-79.3c7-23.1,26.6-40.2,50.4-44.2v-1.2
			c-35.3,5.6-59.4,38.8-53.8,74.1C1099.5,473.1,1116.6,493.1,1139.9,500.5L1139.9,500.5z"/>
		<path class="st0" d="M1128.4,442.3c1.4,13,8,24.8,18.2,32.9c0.8,0.6,1.6,1.2,2.4,1.8v-1.5c-0.6-0.4-1.1-0.8-1.6-1.2
			c-20.7-16.4-24.1-46.5-7.7-67.2c0,0,0.1-0.1,0.1-0.1c2.8-3.5,6-6.5,9.6-9.1v-1.5c-4,2.8-7.6,6.1-10.6,9.9
			C1130.6,416.4,1126.9,429.4,1128.4,442.3z"/>
		<path class="st0" d="M1150.2,476.4v1.5c3,2,6.3,3.7,9.7,5v-1.3C1156.5,480.2,1153.3,478.5,1150.2,476.4z"/>
		<path class="st0" d="M816.3,332.5c15.6,0,25.2-3.4,25.2-20.9v-47.9h-82.4v47.9c0,17.5,9.6,20.9,25.2,20.9v2.3h-52.8v-2.3
			c13.5,0,18.1-8.5,18.1-21.1v-97.5c0-11.3-4.1-16.1-18.6-16.1l-0.2-2.4h53.5v2.3c-15.2,0-24.8,3.2-25.2,19.7V257h82.4v-38.5
			c0-17.5-9.6-20.9-25.2-20.9v-2.3H869v2.3c-13.5,0-18.1,8.5-18.1,21.1v97.5c0,11.3,4.1,16.1,18.6,16.1l0.2,2.4h-53.4V332.5z"/>
		<path class="st0" d="M941.5,261.8c14.2,0,14.4-12.2,14.4-23.9h2.4l0.7,53.7h-2.4c0-7.4,0.5-22.7-15.1-22.7h-43.6l0.4,62.6
			c30,0,47.3-1.6,58.1-4.8c13.6-4.1,18.8-11.2,22-17.2l1.2,0.5c-0.4,2.7-3,25.5-30.3,25.5c-24.8,0-75-0.7-75-0.7v-2.3
			c8.9,0,13.9-6.4,13.9-15.1l0.2-101.2c0-10.3-3.9-18.6-14-18.6v-2.3h97.8l0.5,39.9h-2.4c0-17.4-1.2-33.7-20.2-33.7
			c-13.1,0-52.3-0.2-52.3-0.2v60.4L941.5,261.8z"/>
		<path class="st0" d="M569.3,372.6c27.6,0,53,5.5,53,34.9c0,15.8-5.9,33.1-31.7,38.3c3.5,9.9,25.9,59.4,67.7,86.1l-0.5,1.6
			c-50.9-20.7-76-77.4-79.2-86.3l-22,0.2v59l25.2,2.8v2.8h-53.3v-2.2c14.4,0,17.5-5.3,17.5-16.5V390c0-8.1-3.2-15.2-17.5-15.2v-2.1
			L569.3,372.6z M556.6,443.5h16.5c19.9,0,37.2-6.2,37.2-34.7c0-23.2-16.1-30.7-40.4-30.7h-13.3L556.6,443.5z"/>
		<path class="st0" d="M824.9,372.6c27.6,0,53,5.5,53,34.9c0,18.8-8.3,39.7-48.6,39.7l-17.2,0.2v59l25.2,2.8v2.8H784v-2.1
			c14.4,0,17.5-5.3,17.5-16.5V390c0-8.1-3.2-15.2-17.5-15.2v-2.1L824.9,372.6z M812.2,443.5h16.5c19.9,0,37.2-6.2,37.2-34.7
			c0-23.2-16.1-30.7-40.4-30.7h-13.3V443.5z"/>
		<path class="st0" d="M964.2,509.7c15.6,0,25.2-3.4,25.2-20.9V441H907v47.9c0,17.5,9.6,20.9,25.2,20.9v2.3h-52.8v-2.3
			c13.5,0,18.1-8.5,18.1-21.1v-97.5c0-11.3-4.1-16.1-18.6-16.1l-0.2-2.4h53.5v2.3c-15.2,0-24.8,3.2-25.2,19.7v39.7h82.4v-38.5
			c0-17.5-9.6-20.9-25.2-20.9v-2.3h52.6v2.3c-13.5,0-18.1,8.5-18.1,21.1v97.5c0,11.3,4.1,16.1,18.6,16.1l0.2,2.4h-53.4L964.2,509.7z
			"/>
		<path class="st0" d="M678.9,549.8c27.6,0,53,5.5,53,34.9c0,15.8-5.9,33.1-31.7,38.3c3.5,9.9,25.9,59.4,67.7,86.1l-0.5,1.6
			c-50.9-20.7-76-77.4-79.2-86.3l-22,0.2v59l25.2,2.8v2.8h-53.3v-2.1c14.4,0,17.5-5.3,17.5-16.5V567.2c0-8.1-3.2-15.2-17.5-15.2
			v-2.1L678.9,549.8z M666.1,620.7h16.5c19.9,0,37.2-6.2,37.2-34.7c0-23.2-16.1-30.7-40.4-30.7h-13.3L666.1,620.7z"/>
		<path class="st0" d="M749.9,689.3v-2.1c14.4,0,17.5-5.3,17.5-16.5V567.2c0-8.1-3.2-15.2-17.5-15.2v-2.1L793,550
			c56.2,0,92.3,15.4,92.3,68.1s-39.2,71.2-77.1,71.2H749.9z M778.1,555.5l-0.2,129.2h30.7c30,0,64.7-15.8,64.7-65.9
			c0-52.3-35.6-63.3-71.8-63.3L778.1,555.5z"/>
		<path class="st0" d="M1045.9,549.8c27.6,0,53,5.5,53,34.9c0,15.8-5.9,33.1-31.7,38.3c3.5,9.9,25.9,59.4,67.7,86.1l-0.5,1.6
			c-50.9-20.7-76-77.4-79.2-86.3l-22,0.2v59l25.2,2.8v2.8h-53.4v-2.1c14.4,0,17.5-5.3,17.5-16.5V567.2c0-8.1-3.2-15.2-17.5-15.2
			v-2.1L1045.9,549.8z M1033.2,620.7h16.5c19.9,0,37.2-6.2,37.2-34.7c0-23.2-16.1-30.7-40.4-30.7h-13.3L1033.2,620.7z"/>
		<path class="st0" d="M528.4,410.8c-3.6,2.9-5.7,6-5.7,12.9v59.9c0,5.8-1,10.2,5.5,15.6h-12.2c-10.1,8.1-26.3,16.6-48.9,16.6
			c-62.7,0-87.4-38.4-87.4-73.4c0-42.9,40.7-70.1,82.4-70.1c21.3,0,27.1,3.9,35,3.9c2.6,0,5.1-0.8,7.2-2.3
			c2.2,6.6,7.7,13.5,12.7,18.1l-2.8,2.5c-11.5-11.8-31.1-17.8-49.1-17.8c-54.9,0-73.8,36.7-73.8,62.2c0,43.6,39.8,73,76.2,73
			c23,0,35.2-8.9,40-14.5c3.6-4.1,4.1-8.5,4.1-13.5v-59.7c0-7.9-3.1-11.4-6-13.3L528.4,410.8z"/>
		<path class="st0" d="M655.7,335.6l-66.5-66.5l0.9-0.9c18.1,18.1,47.5,18.1,65.6,0l0.9,0.9c-18.1,18.1-18.1,47.5,0,65.6
			L655.7,335.6z M597.8,275.8L649,327c-10.2-16.4-9.5-37.3,1.8-53C635.1,285.3,614.2,286,597.8,275.8z"/>
		<path class="st0" d="M729.4,261.9c-8.7-8.7-20.5-13.6-32.8-13.5l0,0c-12.3,0-24.1,4.9-32.8,13.6l-0.9-0.9
			c18.1-18.1,18.1-47.5,0-65.6l0.9-0.9l66.5,66.5L729.4,261.9z M670.5,203c10.2,16.4,9.5,37.3-1.8,53c8.1-5.9,17.8-9,27.8-9l0,0
			c8.9,0,17.6,2.5,25.1,7.2L670.5,203z"/>
		<path class="st0" d="M663.8,335.6l-0.9-0.9c18.1-18.1,18.1-47.5,0-65.6l0.9-0.9c8.7,8.7,20.5,13.6,32.8,13.5h0
			c12.3,0,24.1-4.9,32.8-13.6l0.9,0.9L663.8,335.6z M668.8,274.1c11.2,15.7,11.9,36.6,1.8,53l51.2-51.2c-7.5,4.7-16.3,7.2-25.1,7.2
			h0C686.6,283.1,676.9,279.9,668.8,274.1L668.8,274.1z"/>
		<path class="st0" d="M655.7,261.9c-18.1-18.1-47.5-18.1-65.6,0l-0.9-0.9l66.5-66.5l0.9,0.9c-18.1,18.1-18.1,47.5,0,65.6
			L655.7,261.9z M623,247.1c10,0,19.7,3.1,27.8,9c-11.2-15.7-11.9-36.6-1.8-53l-51.2,51.2C605.3,249.6,614.1,247.1,623,247.1z"/>
		<path class="st0" d="M501.3,438.8c0,21.6-15.8,48.3-47.7,48.3c-23.9,0-47-15.6-47-44.4c0-21.6,15.8-48.1,47-48.1
			C478.4,394.6,501.3,410,501.3,438.8z M414.2,437.7c0,25.5,18.5,45.1,39.4,45.1c26.2,0,40.1-19.6,40.1-38.8
			c0-25.5-18.5-45.1-40.1-45.1C428.1,398.9,414.2,418.5,414.2,437.7L414.2,437.7z"/>
		
			<rect x="451.9" y="399.5" transform="matrix(0.8553 -0.5182 0.5182 0.8553 -163.3902 298.4235)" class="st0" width="1.2" height="84.4"/>
		<path class="st0" d="M1040.2,492.4c-0.3,0-0.6,0-0.9,0c-3.7-0.4-11.5-2.5-13.9-7.5c-2.3-4.8-3.7-9.7-3.7-13.3v-37.9
			c0-0.8,0.3-7.7,2.9-9.6l0.4-0.3c2.4-1.8,6.1-4.6,8.9-1c2.5,3.2,9.7,13.2,10.1,13.9c1,1.2,1.6,2.7,1.8,4.2c0.5,2.9,2.1,8.6,2.8,9.6
			c0.7,1,1,2.2,0.8,3.4c-0.1,0.6-0.5,1.1-1.1,1.4c-2.9,1.2-6.2,0.4-8.2-1.9c-2.8-3.2-3.4-9.6-2.3-13.6l1.2,0.3
			c-1.1,3.7-0.5,9.7,2,12.5c1.7,1.9,4.4,2.6,6.8,1.6c0.2-0.1,0.4-0.3,0.4-0.6c0.1-0.9-0.1-1.7-0.7-2.4c-1-1.3-2.6-7.5-3-10.1
			c-0.2-1.3-0.7-2.6-1.5-3.6l-0.1-0.1c-0.1-0.1-7.5-10.6-10.1-13.9c-1.9-2.4-4.3-0.9-7.2,1.2l-0.4,0.3c-1.8,1.3-2.3,6.7-2.4,8.7
			v37.9c0,3.4,1.3,8.2,3.5,12.8c2,4.2,8.8,6.4,12.9,6.8c4.1,0.5,6.8-2.9,6.8-2.9l0.9,0.8C1045.5,491,1042.9,492.3,1040.2,492.4z"/>
		<path class="st0" d="M1037.8,445.6l-4.1-2.3c-4.3-2.3-6.9-11.7-7-12.1l1.2-0.3c0,0.1,2.6,9.3,6.4,11.4l4.1,2.3L1037.8,445.6z"/>
		<path class="st0" d="M1033.1,454.9l-0.9-0.8c1.6-1.9,3.5-3.5,5.5-4.9l0.6,1.1C1036.4,451.5,1034.6,453.1,1033.1,454.9z"/>
		<path class="st0" d="M1033.2,471.6l-1-0.6c0.2-0.4,5.9-9.3,11.6-13.7l0.7,1C1038.9,462.6,1033.3,471.6,1033.2,471.6z"/>
		<path class="st0" d="M1053.3,453.1c-3.5,0-5.6-2.7-6.9-5.2l1.1-0.5c2.8,5.7,6.5,4.5,7.8,4.2c0.6-0.3,1.1-0.8,1.2-1.5
			c0.3-0.6,0.3-1.3,0-1.9c-0.9-1.2-2.7-7.7-3-10.1c-0.3-2-1.3-2.9-2.4-3.9l-0.1-0.1c-0.9-0.8-3.3-4.9-6.2-9.7
			c-0.9-1.5-1.6-2.9-2-3.3c-0.8-1.2-2.6-1.2-4.4-1.2c-1.4,0-4.3,2-5.3,2.8l-0.8-1c0.4-0.3,4-3.1,6.1-3.1c2,0,4.2,0,5.4,1.7
			c0.3,0.5,1.1,1.7,2,3.3c1.9,3.3,5.1,8.7,5.9,9.4l0.1,0.1c1.3,1.1,2.5,2.2,2.9,4.7c0.3,2.3,2.1,8.5,2.8,9.6c0.5,0.9,0.6,2,0.2,3
			c-0.3,1-1,1.9-2,2.2C1055,453,1054.2,453.1,1053.3,453.1z"/>
		<path class="st0" d="M1045.9,441l-1.2-0.4c0.4-1.2,1.6-4.1,2.9-4.3l0.2,1.2C1047.4,437.6,1046.5,439.2,1045.9,441z"/>
		<path class="st0" d="M1049.6,466.5l-1.2-0.2c0.1-0.5,1.9-12.1,8.6-16.1l2.6-1.6c4.2-2.6,5.1-3.1,8.1-3.3l0.1,1.2
			c-2.7,0.1-3.5,0.6-7.5,3l-2.6,1.6C1051.5,455,1049.6,466.4,1049.6,466.5z"/>
		<path class="st0" d="M1059,429.4h-1.2c0.1-5.7-0.6-11.4-2.2-17v-0.1v-0.1c0.6-6.1-0.5-16.9-0.5-17v-0.2l0.1-0.2
			c0-0.1,3.4-5.4,4.3-10.4c0.6-2.8,0.3-5.6-1-8.1c-0.2-0.5-0.5-1.1-0.7-1.7c-0.3-0.9-0.9-1.4-1.6-1.4l0,0c-1,0-2.4,1-3.5,3.7
			c-1.2,2.9-2.7,5.8-4.4,8.5c-1.1,1.7-2,3.4-2.7,5.2c-0.7,2.2-0.4,7.7,0,10.7c0.4,2.8-1.6,18.9-1.7,19.6l-1.2-0.2
			c0.7-5.7,2-17.1,1.7-19.3c-0.4-2.6-0.8-8.6,0-11.2c0.8-1.9,1.7-3.7,2.9-5.5c1.6-2.6,3.1-5.4,4.3-8.3c1-2.8,2.8-4.5,4.6-4.5l0,0
			c1.3,0.1,2.4,1,2.8,2.2c0.2,0.6,0.4,1.1,0.7,1.6c1.4,2.7,1.8,5.8,1.1,8.8c-0.9,4.8-3.8,9.6-4.4,10.7c0.2,1.6,1.1,11.1,0.5,17
			C1058.4,417.8,1059.1,423.6,1059,429.4z"/>
		<path class="st0" d="M1053.2,430l-0.1-1.2c1.3-0.1,13.2-1.3,15.7,0.1l-0.6,1.1C1066.5,429,1058.3,429.4,1053.2,430z"/>
		<path class="st0" d="M1062.7,398.6c-0.2,0-0.5,0-0.7,0l0.2-1.2c1.5,0.2,3.1-0.5,4-1.7c1.7-2.3,1.7-8.1,1.7-14.8
			c0-2.4-0.5-3.9-1.4-4.4c-0.9-0.5-2.4,0.2-2.8,0.5c-0.8,0.5-2.1,3.9-2.8,6.2l-1.2-0.4c0.3-1,1.9-6,3.3-6.9c0.7-0.4,2.5-1.4,4-0.5
			c1.3,0.7,2,2.6,2,5.5c0,6.9,0,12.9-1.9,15.6C1066.1,397.8,1064.5,398.7,1062.7,398.6z"/>
		<path class="st0" d="M1069.1,424l-1.2-0.1c0-3.4-0.5-6.8-1.6-10.1v-0.1v-0.1c0.6-6,1-15.5-0.1-17.3l1-0.6
			c1.6,2.6,0.5,15.8,0.3,17.9C1069.4,419.8,1069.1,423.8,1069.1,424z"/>
		<path class="st0" d="M1063.3,491.4c-0.5,0-1-0.1-1.5-0.2l0.3-1.2c2.6,0.7,5.2-1.2,7.5-2.9c0.6-0.4,1.1-0.8,1.7-1.2
			c1.3-0.8,2.2-3.7,3.2-6.9c1.1-3.7,2.5-7.4,4.3-10.8c4-7.3,2.6-11.3,2.6-11.4v-0.1c-0.1-0.5-1.6-11.6-1.3-16c0.4-4.3,0-6.8-1.5-9.5
			c-1.5-2.7-2.7-11.8-2.8-12.7c-0.2-0.6-0.9-2.1-1.9-2.3c-0.8-0.1-1.9,0.8-3,2.4c-3.9,5.9,0,17.8,0.1,17.9l0.1,0.2l-0.1,0.2
			c-4.3,8.4-1.8,20.4-1.7,20.5l-1.2,0.3c-0.1-0.5-2.6-12.4,1.7-21.1c-0.6-1.8-3.8-12.8,0.1-18.7c1.4-2.2,2.9-3.2,4.2-3
			c2,0.3,2.9,3,2.9,3.2v0.1c0,0.1,1.3,9.7,2.7,12.4c1.5,2.9,2,5.7,1.6,10.1c-0.4,4.1,1.1,14.8,1.2,15.7c0.2,0.6,1.4,4.9-2.7,12.3
			c-1.7,3.4-3.2,6.9-4.2,10.6c-1.1,3.6-2,6.5-3.7,7.6c-0.5,0.4-1.1,0.7-1.6,1.2C1068.2,489.7,1065.9,491.4,1063.3,491.4z"/>
		<path class="st0" d="M1052.8,514.2h-0.8c-4.3-0.2-7.7-2.2-9.2-4c-2.7-3.3-8.9-6.5-9-6.6l-0.3-0.2v-0.3c-0.3-3.2-2.6-13.4-2.7-13.5
			l1.2-0.3c0.1,0.4,2.2,9.7,2.7,13.3c1.3,0.7,6.5,3.6,9.1,6.7c1.3,1.6,4.4,3.4,8.3,3.6c3.5,0.2,7-1.1,9.4-3.6c4.8-4.8,7.7-5.2,9-5
			c0.3-5,0.8-15.9,0.5-17.7l1.2-0.2c0.5,2.4-0.4,18.1-0.5,18.8l-0.1,1.1l-0.9-0.7c0,0-2.4-1.4-8.4,4.5
			C1059.9,512.8,1056.4,514.2,1052.8,514.2z"/>
		
			<rect x="1054.1" y="437.6" transform="matrix(0.8973 -0.4415 0.4415 0.8973 -84.5824 512.9572)" class="st0" width="11.5" height="1.2"/>
		<path class="st0" d="M709.1,488.2c-7.5,0-15-0.8-22.3-2.3c-18.7-4-36-12.7-50.4-25.3l-0.4-0.4l0.4-0.5
			c9.8-12.9,22.6-23.2,37.4-29.7c5.9-2.7,12.1-4.8,18.4-6.3l0.4-0.1l0.3-0.1c12.6-3,25.7-3.5,38.5-1.8c1.6,0.2,3,0.4,4.3,0.6
			c5,0.7,10,1.7,14.9,2.9c7.3,2,12.8,4.9,17.3,9.1c3.9,3.6,7.2,8.7,10.1,15.5c0.4,1.1,0.7,2.2,0.9,3.3c0.4,1.9,0.9,4.2,2,5.2
			c2.6,2.3,3,6.2,1.1,9.1c-1.4,1.9-4.3,3.3-8.4,1.4C763.3,475.5,739.6,488.2,709.1,488.2z M637.7,460.1
			c14.1,12.2,31.1,20.7,49.4,24.6c40.8,8.6,73.8-9.1,86.1-17l0.3-0.2l0.3,0.2c3,1.5,5.7,1.2,7.2-0.9c1.5-2.4,1.1-5.6-1-7.5
			c-1.3-1.3-1.8-3.6-2.3-5.8c-0.2-1-0.5-2-0.8-3c-2.8-6.7-6-11.6-9.8-15.1c-4.3-4.1-9.6-6.9-16.8-8.8c-4.8-1.3-9.7-2.2-14.7-2.9
			c-1.3-0.2-2.7-0.4-4.3-0.6c-12.7-1.8-25.6-1.2-38.1,1.7l-0.4,0.1l-0.3,0.1c-6.3,1.5-12.4,3.6-18.2,6.3
			C659.9,437.6,647.3,447.5,637.7,460.1L637.7,460.1z"/>
		<path class="st0" d="M793.1,511.7h-162l23-39.8l0.5,0.3c10.1,5.9,21,10.1,32.4,12.5c36.5,7.7,66.8-5.6,81.5-14.2l0.5-0.3
			L793.1,511.7z M633.3,510.4H791l-22.3-38.6c-15.1,8.7-45.4,21.8-81.9,14.1c-11.3-2.4-22.2-6.6-32.3-12.4L633.3,510.4z"/>
		<path class="st0" d="M678.7,429.3l33.4-57.9l30.9,53.4l-1.3-0.2c-2-0.4-4-0.7-6.1-1c-1.3-0.2-2.7-0.4-4.3-0.6
			c-12.7-1.8-25.6-1.2-38.1,1.7l-0.4,0.1l-0.3,0.1l0,0c-4.1,1-8.2,2.3-12.2,3.8L678.7,429.3z M712.1,373.9l-30.6,53.1
			c3.5-1.3,7.1-2.4,10.7-3.3l0.4-0.1l0.3-0.1c12.6-3,25.7-3.5,38.5-1.8c1.6,0.2,3,0.4,4.3,0.6c1.7,0.3,3.3,0.5,4.9,0.8L712.1,373.9z
			"/>
		<path class="st0" d="M773,468.5c-0.1-0.2-2.6-4.6,0.1-7.9c0.6-0.7,1.2-1.4,1.7-2.1c1.6-1.8,3.5-4.1,3.2-5l1.1-0.4
			c0.6,1.6-1.3,3.7-3.4,6.2c-0.6,0.7-1.2,1.4-1.7,2c-2.1,2.6,0,6.5,0.1,6.5L773,468.5z"/>
		<path class="st0" d="M709.5,484.7c-5.6,0-11.3-0.3-16.9-0.9c-11.8-2.3-23.3-6.5-33.8-12.4c-14.5-8-18.7-13.6-18.9-13.8l1-0.7
			c0,0.1,4.3,5.6,18.5,13.4c10.4,5.8,21.7,9.9,33.4,12.2c0.2,0,20.4,2.3,32.1-0.5c6.9-1.6,24.2-6.7,30.4-9.7s16.7-8.2,16.8-8.3
			l0.5,1.1c-0.1,0-10.6,5.3-16.9,8.3c-6.4,3.1-23.5,8.1-30.7,9.8C720.6,484.4,714.9,484.7,709.5,484.7z"/>
		<path class="st0" d="M713,481.2c-22.5,0-40.8-18.3-40.8-40.9c0-3.3,0.4-6.7,1.2-9.9l0.1-0.3l0.3-0.1c5.9-2.7,12.1-4.8,18.4-6.3
			l0.4-0.1l0.3-0.1c12.6-3,25.7-3.5,38.5-1.8c1.6,0.2,3,0.4,4.3,0.6c5,0.7,10,1.7,14.9,2.9l0.3,0.1l0.1,0.3
			c8.1,21-2.3,44.7-23.3,52.8C723,480.3,718,481.2,713,481.2L713,481.2z M674.6,431c-5.2,21.2,7.8,42.6,29.1,47.8
			s42.6-7.8,47.8-29.1c1.9-7.8,1.4-15.9-1.4-23.4c-4.7-1.2-9.6-2.2-14.4-2.8c-1.3-0.2-2.7-0.4-4.3-0.6c-12.7-1.8-25.6-1.2-38.1,1.7
			l-0.4,0.1l-0.3,0.1C686.4,426.4,680.3,428.5,674.6,431z"/>
		<path class="st0" d="M713,466.8c-14.6,0-26.4-11.8-26.4-26.4c0-6.1,2.1-12,5.9-16.7l0.1-0.2l0.2,0c12.6-2.9,25.7-3.5,38.5-1.8h0.2
			l0.1,0.1c10.2,10.4,10,27.1-0.4,37.3C726.5,464,719.9,466.7,713,466.8L713,466.8z"/>
		<polyline class="st0" points="659.8,287.6 659.8,243.1 659.8,241.9 		"/>
		<rect x="659.2" y="241.9" class="st0" width="1.2" height="45.7"/>
		<path class="st0" d="M707,194.7c-26.1,0-47.2,21.1-47.2,47.2c0-26.1-21.1-47.2-47.2-47.2c0,0,0,0,0,0L707,194.7z"/>
		<path class="st0" d="M660.4,241.9h-1.2c0-25.7-20.9-46.6-46.6-46.6v-1.2H707v1.2C681.3,195.3,660.4,216.2,660.4,241.9L660.4,241.9
			z M623.3,195.3c18.9,4.4,33.3,19.8,36.4,38.9c3.1-19.1,17.5-34.5,36.4-38.9H623.3z"/>
		<path class="st0" d="M707,334.8c-26.1,0-47.2-21.1-47.2-47.2c0,26.1-21.1,47.2-47.2,47.2c0,0,0,0,0,0H707z"/>
		<path class="st0" d="M707,335.4h-94.4v-1.2c25.7,0,46.6-20.9,46.6-46.6h1.2c0,25.7,20.9,46.6,46.6,46.6V335.4z M623.3,334.2h72.8
			c-18.9-4.4-33.3-19.8-36.4-38.9C656.6,314.4,642.2,329.8,623.3,334.2z"/>
		<polyline class="st0" points="682.6,264.8 638.1,264.8 636.9,264.8 		"/>
		<rect x="636.9" y="264.1" class="st0" width="45.7" height="1.2"/>
		<path class="st0" d="M589.7,217.6c0,26.1,21.1,47.2,47.2,47.2c-26.1,0-47.2,21.1-47.2,47.2c0,0,0,0,0,0V217.6z"/>
		<path class="st0" d="M590.3,312h-1.2v-94.4h1.2c0,25.7,20.9,46.6,46.6,46.6v1.2C611.2,265.4,590.4,286.2,590.3,312z M590.3,228.4
			v72.8c4.4-18.9,19.8-33.3,38.9-36.4C610.1,261.6,594.8,247.3,590.3,228.4z"/>
		<path class="st0" d="M729.8,217.6c0,26.1-21.1,47.2-47.2,47.2c26.1,0,47.2,21.1,47.2,47.2c0,0,0,0,0,0V217.6z"/>
		<path class="st0" d="M730.4,312h-1.2c0-25.7-20.9-46.6-46.6-46.6v-1.2c25.7,0,46.6-20.9,46.6-46.6h1.2V312z M690.3,264.8
			c19.2,3.2,34.5,17.5,38.9,36.4v-72.8C724.8,247.3,709.4,261.6,690.3,264.8z"/>
		<line class="st1" x1="659.8" y1="272.4" x2="659.8" y2="259.1"/>
		<rect x="659.2" y="259.1" class="st0" width="1.2" height="13.3"/>
		<line class="st1" x1="667.1" y1="265.1" x2="653.8" y2="265.1"/>
		<rect x="653.8" y="264.5" class="st0" width="13.3" height="1.2"/>
		
			<rect x="559.2" y="554.4" transform="matrix(0.7071 -0.7071 0.7071 0.7071 -274.2318 577.3741)" class="st0" width="1.2" height="130.6"/>
		<rect x="559.2" y="554.4" class="st0" width="1.2" height="130.6"/>
		
			<rect x="494.5" y="619.1" transform="matrix(0.7071 -0.7071 0.7071 0.7071 -274.2335 577.3701)" class="st0" width="130.6" height="1.2"/>
		<rect x="494.5" y="619.1" class="st0" width="130.6" height="1.2"/>
		<path class="st0" d="M606.6,666.5h-93.6v-93.6h93.6V666.5z M514.3,665.3h91.1v-91.1h-91.1V665.3z"/>
		<path class="st0" d="M559.8,689.9c-38.8,0-70.2-31.4-70.2-70.2c0-38.8,31.4-70.2,70.2-70.2S630,581,630,619.7
			C630,658.5,598.6,689.9,559.8,689.9z M559.8,559.3c-33.4,0-60.4,27-60.4,60.4c0,33.4,27,60.4,60.4,60.4s60.4-27,60.4-60.4
			C620.2,586.4,593.2,559.4,559.8,559.3L559.8,559.3z"/>
		<path class="st0" d="M513.7,585c-6.3,0-11.5-5.1-11.5-11.5s5.1-11.5,11.5-11.5c6.3,0,11.5,5.1,11.5,11.5
			C525.1,579.9,520,585,513.7,585z M513.7,563.3c-5.7,0-10.3,4.6-10.3,10.3c0,5.7,4.6,10.3,10.3,10.3c5.7,0,10.3-4.6,10.3-10.3
			C523.9,567.9,519.3,563.3,513.7,563.3L513.7,563.3z"/>
		<path class="st0" d="M513.7,677.4c-6.3,0-11.5-5.1-11.5-11.5c0-6.3,5.1-11.5,11.5-11.5c6.3,0,11.5,5.1,11.5,11.5
			C525.1,672.2,520,677.4,513.7,677.4z M513.7,655.6c-5.7,0-10.3,4.6-10.3,10.3c0,5.7,4.6,10.3,10.3,10.3c5.7,0,10.3-4.6,10.3-10.3
			C523.9,660.2,519.3,655.6,513.7,655.6z"/>
		<path class="st0" d="M606,677.4c-6.3,0-11.5-5.1-11.5-11.5c0-6.3,5.1-11.5,11.5-11.5c6.3,0,11.5,5.1,11.5,11.5
			C617.5,672.2,612.3,677.4,606,677.4z M606,655.6c-5.7,0-10.3,4.6-10.3,10.3c0,5.7,4.6,10.3,10.3,10.3s10.3-4.6,10.3-10.3
			C616.2,660.2,611.7,655.6,606,655.6z"/>
		<path class="st0" d="M559.9,631.3c-6.3,0-11.5-5.1-11.5-11.5c0-6.3,5.1-11.5,11.5-11.5c6.3,0,11.5,5.1,11.5,11.5
			C571.4,626.1,566.3,631.3,559.9,631.3z M559.9,609.6c-5.7,0-10.3,4.6-10.3,10.3c0,5.7,4.6,10.3,10.3,10.3
			c5.7,0,10.3-4.6,10.3-10.3C570.2,614.1,565.6,609.6,559.9,609.6z"/>
		<path class="st0" d="M606,585c-6.3,0-11.5-5.1-11.5-11.5c0-6.3,5.1-11.5,11.5-11.5c6.3,0,11.5,5.1,11.5,11.5
			C617.5,579.9,612.3,585,606,585z M606,563.3c-5.7,0-10.3,4.6-10.3,10.3c0,5.7,4.6,10.3,10.3,10.3s10.3-4.6,10.3-10.3
			C616.2,567.9,611.7,563.3,606,563.3L606,563.3z"/>
		<path class="st0" d="M536.9,597.1h-24c-13.2,0-24-10.7-24-24c0-13.2,10.7-24,24-24c13.2,0,24,10.7,24,24l0,0L536.9,597.1z
			 M512.9,550.4c-12.6,0-22.8,10.2-22.8,22.8c0,12.6,10.2,22.8,22.8,22.8h22.8v-22.7C535.6,560.6,525.5,550.5,512.9,550.4
			L512.9,550.4z"/>
		<path class="st0" d="M583.6,643.9h-48v-47.9h48V643.9z M536.9,642.7h45.5v-45.5h-45.5L536.9,642.7z"/>
		<path class="st0" d="M606.4,597.1h-24v-24c0-13.2,10.7-24,24-24c13.2,0,24,10.7,24,24C630.4,586.4,619.6,597.1,606.4,597.1
			C606.4,597.1,606.4,597.1,606.4,597.1z M583.6,595.9h22.8c12.6,0,22.8-10.2,22.8-22.8c0-12.6-10.2-22.8-22.8-22.8
			c-12.6,0-22.8,10.2-22.8,22.8c0,0,0,0,0,0V595.9z"/>
		<path class="st0" d="M512.9,690.6c-13.2,0-24-10.7-24-24c0-13.2,10.7-24,24-24h24v24C536.9,679.9,526.1,690.6,512.9,690.6z
			 M512.9,643.9c-12.6,0-22.8,10.2-22.8,22.8c0,12.6,10.2,22.8,22.8,22.8c12.6,0,22.8-10.2,22.8-22.8l0,0v-22.8L512.9,643.9z"/>
		<path class="st0" d="M606.4,690.6c-13.2,0-24-10.7-24-24v-24h24c13.2,0,24,10.7,24,24S619.6,690.6,606.4,690.6L606.4,690.6z
			 M583.6,643.9v22.8c0,12.6,10.2,22.8,22.8,22.8c12.6,0,22.8-10.2,22.8-22.8c0-12.6-10.2-22.8-22.8-22.8c0,0,0,0,0,0H583.6z"/>
		<path class="st0" d="M946.6,690.6c-12.5,0.1-24.7-3.5-35.2-10.3c-7.6-5-16.6-16.5-18.2-27.9c-1.1-6.5,0.7-13.1,5-18
			c4.7-5.7,10.2-10.8,16.2-15.1c-3.8-1.9-7.1-4.8-9.5-8.3c-3.4-5.1-8.9-15-7.2-24.1c1.3-6.7,6.1-11.7,10.1-15.6l1.3-1.4l2.1-2.2
			c8.8-9.2,17.9-18.8,29.4-19.1c6.7-0.1,13.3,0.9,19.6,2.9l0.7,0.2c4.7,1.4,14.5,4.4,14.9,11.6c0.1,0.9-1.1,2.2-5,5.4
			c-0.5,0.4-0.8,0.7-1,0.8c-0.2,0.1-0.6,0.5-1.1,1c-1.2,1-4.3,3.7-4.6,4.3c0-0.1,0-0.1,0-0.2l-1.2,0.1l0,0
			c-0.4-5.4-6.9-7.9-10.8-9.4l-0.9-0.3c-5-1.8-10.3-3-15.6-3.5c-5.3-0.6-10.9-0.8-16.2,1.8c-0.6,0.3-1.1,0.6-1.6,1
			c-0.5,0.3-0.9,0.6-1.4,0.9c-1.3,1.4-2.5,3-3.6,4.6c-3.1,5.2-3.3,12.2-0.5,19.9c2.4,6.4,6.7,12.5,10.9,15.4
			c4.1,2.8,9.1,4.3,14.9,4.5h0.2l0.4-0.1l0,0v0.1c5.6,0,11.2-0.9,16.6-2.5l0,0l0.3,1.2c-1.1,0.3-2.6,2.2-3.8,3.6
			c-0.6,0.8-1.2,1.5-1.7,2s-1,1-1.5,1.7c-1.5,1.7-3.1,3.6-4.6,4.1c-5.7,1.8-11.7,2.6-17.6,2.6c-4.4,0.6-8.7,1.7-12.8,3.3
			c-2.1,0.9-4.2,1.9-6.2,3.1c-0.2,0.3-0.3,0.6-0.5,0.9c-0.9,2.2-1.4,4.6-1.5,7c-0.2,4.4,1,9.3,3.5,14.6c6.8,14.5,20,23,40.5,26
			c8.1,1.3,16.3,0.9,24.3-1c5.6-1.4,10.9-3.8,15.7-6.9l0.2-0.3c0.5-0.7,1-1.5,1.3-2.3c1-2.6,1.7-5.3,2.1-8.1
			c0.8-5.5,1.3-11.8-1.1-16.3c-4.4-8-13.9-11.4-21.3-11.9l0,0l0.1-1.2c0.7,0,2.9-2.7,3.9-3.9c0.6-0.7,1.1-1.3,1.4-1.7
			c0.3-0.3,0.7-0.8,1.2-1.4c2.2-2.6,3.9-4.4,5.1-4.4c7.5,0.5,21,4.6,23.8,16.4l0,0c2.6,11.3-2.1,23.7-8.2,30.1
			c-10.9,11.4-23.3,22.4-39.4,25.3C954.6,690.3,950.6,690.7,946.6,690.6z M912.8,567.7l-0.7,0.7l-2.1,2.2l-1.4,1.4
			c-3.8,3.9-8.5,8.7-9.7,15c-1.6,8.7,3.7,18.3,7,23.2c2.4,3.7,5.9,6.6,9.9,8.4l1,0.4l-0.9,0.6c-6.3,4.4-11.9,9.6-16.8,15.5
			c-4.1,4.7-5.8,11-4.8,17.1c1.6,11,10.3,22.1,17.7,27c13.2,8.7,30.1,12,46.4,9c12.5-2.2,22.7-9.5,31.7-17.9
			c-4.9,3.2-10.3,5.5-15.9,6.9c-8.1,2-16.5,2.4-24.8,1c-20.9-3.1-34.5-11.9-41.4-26.7c-2.5-5.4-3.7-10.6-3.6-15.2
			c0.1-2.6,0.6-5.1,1.6-7.4c0.2-0.4,0.4-0.8,0.6-1.2l0.1-0.1l0.1-0.1c2.1-1.2,4.3-2.3,6.5-3.3c4.2-1.7,8.6-2.9,13.1-3.4h0.1
			c5.9,0.1,11.7-0.8,17.3-2.5c1.1-0.3,2.7-2.2,4-3.7c0.6-0.7,1.1-1.3,1.6-1.8c0.5-0.5,1-1.1,1.6-1.9s1.2-1.4,1.8-2.1
			c-4.7,1.2-9.5,1.8-14.3,1.8h-0.4l-2.4-0.1l0.2-0.1c-4.8-0.3-9.3-1.9-13.3-4.5c-8-5.5-18.5-24.2-10.8-36.9
			C912.1,568.7,912.4,568.2,912.8,567.7z M972.7,629.3c7.4,1,16.2,4.6,20.4,12.4c2.6,4.8,2.1,11.4,1.3,17.1
			c-0.4,2.9-1.1,5.7-2.2,8.4c-0.4,0.9-0.9,1.7-1.4,2.5l-0.1,0.2c2.2-2.1,4.4-4.3,6.4-6.5c5.7-6,10.4-18.2,7.9-29l0,0
			c-2.6-11.1-15.5-14.9-22.7-15.4c-0.7,0-3.1,2.9-4.1,3.9c-0.5,0.6-1,1.2-1.3,1.5c-0.3,0.3-0.8,0.9-1.3,1.6
			C974.7,627.2,973.7,628.3,972.7,629.3z M929.9,559.9c2,0,4,0.1,5.9,0.4c5.4,0.5,10.8,1.7,15.9,3.6l0.9,0.3c3.6,1.4,10,3.8,11.4,9
			c0.7-0.7,2-1.9,4-3.6c0.5-0.4,0.9-0.8,1.1-0.9c0.1-0.1,0.5-0.5,1.1-0.9c1.1-0.9,4.4-3.7,4.5-4.4c-0.4-6.4-9.6-9.2-14.1-10.5
			l-0.7-0.2c-6.2-2-12.7-2.9-19.3-2.9c-9,0.2-16.5,6.5-23.7,13.7l0.3-0.2c0.6-0.4,1.2-0.7,1.8-1.1
			C922.4,560.6,926.1,559.8,929.9,559.9L929.9,559.9z"/>
		<path class="st0" d="M982.9,611.3c-2.6,9.2-10.1,15.1-15.5,20.9c-5,5.4-10.9,10.4-15.2,16.9c-5.1,7.7-0.7,13.1,5.3,14
			c1.2,0.2,4.8-4.6,5.9-5.6s4.5-5.9,5.8-5.8c-5.4-0.8-10.5-5.6-5.8-13.2c4.8-7.8,12.3-14,18.1-20.3c4.5-4.9,10.3-9.9,12.8-17.4
			c2.3-7.2,0.4-16.7-6-16.9c-1.4,0-4.7,4.5-5.9,5.6s-4.4,5.8-5.8,5.8C982.6,595.5,984.8,604.2,982.9,611.3z"/>
		<path class="st0" d="M957.6,663.7h-0.2c-3.5-0.5-6.2-2.4-7.4-5.1c-0.9-2-1.3-5.3,1.7-9.8s6.8-8.3,10.5-12.1
			c1.6-1.6,3.3-3.3,4.7-4.9c1.1-1.2,2.3-2.4,3.6-3.7c4.6-4.6,9.8-9.8,11.8-17l0,0c1.3-4.6,0.7-9.9-1.5-12.9c-1-1.4-2.5-2.3-4.3-2.4
			l0,0v-1.2l0,0c0.7,0,2.9-2.7,3.9-3.9c0.6-0.7,1.1-1.4,1.5-1.7c0.4-0.4,0.7-0.8,1.3-1.5c2.2-2.6,3.8-4.3,5-4.3
			c2.1,0.1,4.1,1.2,5.3,3c2.4,3.4,3,9.5,1.3,14.7c-2,6.3-6.4,10.9-10.3,14.9c-0.9,0.9-1.7,1.8-2.5,2.7c-1.8,1.9-3.6,3.8-5.6,5.7
			c-4.5,4.4-9.1,9.1-12.4,14.5c-1.8,3-2.2,5.7-1.2,8s3.5,3.9,6.5,4.3l0,0l-0.2,1.2c-0.7,0.1-2.9,2.8-3.9,4c-0.6,0.7-1.1,1.3-1.4,1.6
			c-0.3,0.3-0.7,0.7-1.2,1.3C960.1,662.3,958.6,663.7,957.6,663.7z M963.5,637.1l-0.5,0.5c-3.6,3.7-7.4,7.4-10.3,11.9
			c-2.1,3.2-2.7,6.2-1.6,8.7c1,2.3,3.4,3.9,6.5,4.4c0.7-0.1,3.1-2.9,4.1-4c0.5-0.6,1-1.1,1.3-1.4s0.7-0.8,1.3-1.5
			c1-1.3,2.1-2.5,3.2-3.6c-2.5-0.6-4.7-2.3-5.9-4.7c-0.9-1.8-1.3-4.9,1.2-9.1C963.1,637.8,963.3,637.5,963.5,637.1L963.5,637.1z
			 M983.4,611.5c-0.7,2.6-1.8,5-3.3,7.2l0.9-0.9c0.8-0.9,1.7-1.8,2.6-2.7c4-4.1,8.1-8.4,10.1-14.4c1.5-4.8,1.1-10.5-1.1-13.6
			c-1-1.5-2.6-2.4-4.4-2.4l0,0c-0.7,0-3,2.7-4.1,3.9c-0.6,0.7-1,1.2-1.4,1.5c-0.3,0.3-0.8,0.9-1.4,1.6c-0.9,1.2-1.9,2.3-3,3.4
			c1.4,0.5,2.6,1.4,3.4,2.6C984.2,600.8,984.8,606.4,983.4,611.5L983.4,611.5z"/>
		<path class="st2" d="M1127.5,493.6"/>
		<path class="st0" d="M1193.8,390.5l-1,1c3.3,1.1,6.4,2.6,9.4,4.4l0.9-0.9C1200.2,393.2,1197.1,391.7,1193.8,390.5z"/>
		<path class="st0" d="M1175.4,387.7v1.2c5.5-0.2,10.9,0.5,16.1,2.1l1-1C1187,388.3,1181.2,387.5,1175.4,387.7z"/>
		<path class="st0" d="M1197.7,386.6l-0.9,0.9c2.6,1.9,5.1,4,7.5,6.3l0.9-0.9C1202.9,390.7,1200.4,388.5,1197.7,386.6z"/>
		<path class="st0" d="M1206.1,393.8l-0.9,0.9c1.6,1.6,3.1,3.4,4.5,5.2c-1.7-1.5-3.6-2.9-5.5-4.2l-0.9,0.9c4,2.6,7.5,5.7,10.6,9.3
			l1-0.7C1212.4,401.1,1209.4,397.3,1206.1,393.8z"/>
		<path class="st0" d="M1196.8,385.9c-10.3-7.2-22.5-11.3-35.2-11.8v1.2c12.3,0.4,24.2,4.4,34.3,11.4L1196.8,385.9z"/>
		<path class="st0" d="M1204.3,380.2l-70.1,69.4c1.1,3.3,2.5,6.4,4.3,9.4l21.8-21.5l50.8-50.4L1204.3,380.2z"/>
		<polygon class="st0" points="1174.2,383.8 1160.3,383.7 1160.4,368.7 1150.7,368.6 1150.6,383.7 1136.7,383.6 1136.7,393.4 
			1150.6,393.4 1150.4,430.9 1160.2,421.3 1160.3,393.5 1174.2,393.5 		"/>
		<path class="st0" d="M1150.3,449.8l-0.1,29.1c0,17.2-8.3,22-10,22.8l-0.2,0.1c-8.3,3.4-17.8-0.6-21.3-8.9
			c-0.2-0.5-0.4-1.1-0.6-1.6c-3.6-2.6-7-5.6-10-9c-2.4,14.2,7.2,27.7,21.4,30.1c1.3,0.2,2.7,0.3,4,0.4h0.1c3.4,0,6.9-0.7,10-2
			c4.3-1.7,8-4.6,10.9-8.2l0.1-0.1c5.7-5.4,5.2-18.8,5.2-18.9l0.2-43.4L1150.3,449.8z"/>
		<polyline class="st0" points="659.8,287.6 659.8,243.1 659.8,241.9 		"/>
		<rect x="659.2" y="241.9" class="st0" width="1.2" height="45.7"/>
		<path class="st0" d="M707,194.7c-26.1,0-47.2,21.1-47.2,47.2c0-26.1-21.1-47.2-47.2-47.2c0,0,0,0,0,0L707,194.7z"/>
		<path class="st0" d="M660.4,241.9h-1.2c0-25.7-20.9-46.6-46.6-46.6v-1.2H707v1.2C681.3,195.3,660.4,216.2,660.4,241.9L660.4,241.9
			z M623.3,195.3c18.9,4.4,33.3,19.8,36.4,38.9c3.1-19.1,17.5-34.5,36.4-38.9H623.3z"/>
		<path class="st0" d="M707,334.8c-26.1,0-47.2-21.1-47.2-47.2c0,26.1-21.1,47.2-47.2,47.2c0,0,0,0,0,0H707z"/>
		<path class="st0" d="M707,335.4h-94.4v-1.2c25.7,0,46.6-20.9,46.6-46.6h1.2c0,25.7,20.9,46.6,46.6,46.6V335.4z M623.3,334.2h72.8
			c-18.9-4.4-33.3-19.8-36.4-38.9C656.6,314.4,642.2,329.8,623.3,334.2z"/>
		<polyline class="st0" points="682.6,264.8 638.1,264.8 636.9,264.8 		"/>
		<rect x="636.9" y="264.1" class="st0" width="45.7" height="1.2"/>
		<path class="st0" d="M589.7,217.6c0,26.1,21.1,47.2,47.2,47.2c-26.1,0-47.2,21.1-47.2,47.2c0,0,0,0,0,0V217.6z"/>
		<path class="st0" d="M590.3,312h-1.2v-94.4h1.2c0,25.7,20.9,46.6,46.6,46.6v1.2C611.2,265.4,590.4,286.2,590.3,312z M590.3,228.4
			v72.8c4.4-18.9,19.8-33.3,38.9-36.4C610.1,261.6,594.8,247.3,590.3,228.4z"/>
		<path class="st0" d="M729.8,217.6c0,26.1-21.1,47.2-47.2,47.2c26.1,0,47.2,21.1,47.2,47.2c0,0,0,0,0,0V217.6z"/>
		<path class="st0" d="M730.4,312h-1.2c0-25.7-20.9-46.6-46.6-46.6v-1.2c25.7,0,46.6-20.9,46.6-46.6h1.2V312z M690.3,264.8
			c19.2,3.2,34.5,17.5,38.9,36.4v-72.8C724.8,247.3,709.4,261.6,690.3,264.8z"/>
	</g>
</g>
</svg>
