<svg width="1200" height="675" viewBox="0 0 1200 675" fill="none" xmlns="http://www.w3.org/2000/svg">
<rect width="1200" height="675" fill="black"/>
<path d="M403.066 493.907L540.238 241.744V465.556L501.86 492.597H611.112L572.734 465.089V234.913L607.283 199.919H553.404L422.209 442.632L290.919 199.919H216.217L252.448 234.913V465.089L208 492.597H306.514L265.894 465.556V245.58L403.066 493.907Z" fill="white"/>
<path d="M971.083 472.292V174L924.395 199.918H947.926V472.012L925.048 493.906H992L971.083 472.292Z" fill="white"/>
<path d="M928.783 359.731H934.386V314.725L933.452 314.164C897.875 293.392 852.12 299.754 821.959 329.602V301.906L774.71 329.415H801.883V466.585L774.71 493.813H849.038L821.866 466.585V372.082C821.866 361.228 824.013 350.374 828.775 340.737C834.845 328.479 843.342 320.807 854.921 316.503C868.368 311.637 884.055 312.479 897.035 318.935C911.415 326.047 922.247 339.707 928.223 358.327L928.783 359.731Z" fill="white"/>
<path d="M782.647 382.187L782.273 379.661L756.968 392.105L757.248 393.602C765.278 430.842 752.206 465.556 725.406 478C693.378 492.971 651.544 472.667 629.881 431.871L777.324 362.912L776.671 361.228C761.823 325.205 727.087 302 688.148 302C635.297 302 592.343 345.041 592.343 398C592.343 450.959 635.297 494 688.148 494C741 494 783.954 450.959 783.954 398C783.954 392.667 783.487 387.333 782.647 382.187ZM746.416 364.035L624.838 420.83C607.47 377.977 618.955 332.784 650.891 317.813C657.987 314.444 665.644 312.947 673.395 312.947C700.568 312.947 729.608 332.316 746.416 364.035Z" fill="white"/>
</svg>
