<svg width="724" height="316" viewBox="0 0 724 316" fill="none" xmlns="http://www.w3.org/2000/svg">
<g clip-path="url(#clip0_55_216)">
<rect x="32" y="32" width="660" height="252" fill="#F2F9FF"/>
<g clip-path="url(#clip1_55_216)">
<mask id="path-3-inside-1_55_216" fill="white">
<path d="M32 32H346.47V256.622H32V32Z"/>
</mask>
<path d="M32 32H346.47V256.622H32V32Z" fill="#5B616A"/>
<path d="M302.27 211.386H76.1085C70.9651 211.386 66.0234 205.738 66.0234 201.301V89.9891C66.0234 85.6342 70.9651 79.9041 76.1085 79.9041H302.27C307.505 80.1333 312.09 84.7174 312.355 89.9891V201.301C312.355 205.738 307.505 211.386 302.27 211.386Z" fill="white"/>
<path d="M301.125 212.788H77.2549C70.2871 212.788 64.6211 207.122 64.6211 200.154V91.135C64.6211 84.1672 70.2871 78.5012 77.2549 78.5012H301.125C308.093 78.5012 313.759 84.1672 313.759 91.135V200.154C313.759 207.122 308.093 212.788 301.125 212.788ZM77.2549 81.3067C71.8365 81.3067 67.4266 85.7166 67.4266 91.135V200.154C67.4266 205.573 71.8365 209.983 77.2549 209.983H301.125C306.543 209.983 310.953 205.573 310.953 200.154V91.135C310.953 85.7166 306.543 81.3067 301.125 81.3067H77.2549Z" fill="#112E51"/>
<path d="M294.898 95.8293H182.716C181.895 95.8293 181.23 96.4943 181.23 97.3146V110.517C181.23 111.337 181.895 112.002 182.716 112.002H294.898C295.718 112.002 296.383 111.337 296.383 110.517V97.3146C296.383 96.4943 295.718 95.8293 294.898 95.8293Z" fill="#5B616A"/>
<path d="M294.369 153.956H260.63C259.809 153.956 259.145 154.621 259.145 155.441V193.609C259.145 194.429 259.809 195.094 260.63 195.094H294.369C295.189 195.094 295.854 194.429 295.854 193.609V155.441C295.854 154.621 295.189 153.956 294.369 153.956Z" fill="#5B616A"/>
<path d="M232.656 121.28H182.817C181.997 121.28 181.332 121.945 181.332 122.766V128.899C181.332 129.719 181.997 130.384 182.817 130.384H232.656C233.476 130.384 234.141 129.719 234.141 128.899V122.766C234.141 121.945 233.476 121.28 232.656 121.28Z" fill="#5B616A"/>
<path d="M294.751 121.28H244.913C244.093 121.28 243.428 121.945 243.428 122.766V128.899C243.428 129.719 244.093 130.384 244.913 130.384H294.751C295.572 130.384 296.237 129.719 296.237 128.899V122.766C296.237 121.945 295.572 121.28 294.751 121.28Z" fill="#5B616A"/>
<path d="M250.966 139.479H182.681C181.86 139.479 181.195 140.144 181.195 140.964V147.098C181.195 147.918 181.86 148.583 182.681 148.583H250.966C251.786 148.583 252.451 147.918 252.451 147.098V140.964C252.451 140.144 251.786 139.479 250.966 139.479Z" fill="#5B616A"/>
<path d="M241.568 157.687H182.681C181.86 157.687 181.195 158.352 181.195 159.173V165.306C181.195 166.126 181.86 166.791 182.681 166.791H241.568C242.388 166.791 243.053 166.126 243.053 165.306V159.173C243.053 158.352 242.388 157.687 241.568 157.687Z" fill="#5B616A"/>
<path d="M206.022 175.96H182.487C181.667 175.96 181.002 176.625 181.002 177.445V183.579C181.002 184.399 181.667 185.064 182.487 185.064H206.022C206.842 185.064 207.507 184.399 207.507 183.579V177.445C207.507 176.625 206.842 175.96 206.022 175.96Z" fill="#5B616A"/>
<path d="M241.909 175.749H218.374C217.554 175.749 216.889 176.414 216.889 177.234V183.368C216.889 184.188 217.554 184.853 218.374 184.853H241.909C242.729 184.853 243.394 184.188 243.394 183.368V177.234C243.394 176.414 242.729 175.749 241.909 175.749Z" fill="#5B616A"/>
<path d="M161.292 96.1687H83.527C82.5143 96.1687 81.6934 96.9897 81.6934 98.0023V195.424C81.6934 196.437 82.5143 197.258 83.527 197.258H161.292C162.305 197.258 163.126 196.437 163.126 195.424V98.0023C163.126 96.9897 162.305 96.1687 161.292 96.1687Z" fill="#EBF3FA"/>
<path fill-rule="evenodd" clip-rule="evenodd" d="M129.443 160.003V166.817H130.931C145.734 166.817 157.71 178.742 157.71 193.481V196.814H83.3242V193.481C83.3242 178.742 95.3003 166.817 110.103 166.817H111.591V160.003C105.194 156.966 100.582 150.782 99.8006 143.449C97.6434 143.153 95.9697 141.301 95.9697 139.042V133.858C95.9697 131.673 97.569 129.821 99.689 129.488V127.192C99.689 115.749 109.024 106.453 120.517 106.453C132.009 106.453 141.345 115.749 141.345 127.192V129.488C143.465 129.858 145.064 131.673 145.064 133.858V139.042C145.064 141.301 143.39 143.153 141.233 143.449C140.452 150.782 135.84 156.966 129.443 160.003Z" fill="#D0C6AC"/>
<mask id="mask0_55_216" style="mask-type:alpha" maskUnits="userSpaceOnUse" x="83" y="106" width="75" height="91">
<path fill-rule="evenodd" clip-rule="evenodd" d="M129.443 160.004V166.818H130.931C145.734 166.818 157.71 178.743 157.71 193.482V196.815H83.3242V193.482C83.3242 178.743 95.3003 166.818 110.103 166.818H111.591V160.004C105.194 156.967 100.582 150.783 99.8006 143.45C97.6434 143.154 95.9697 141.302 95.9697 139.043V133.859C95.9697 131.674 97.569 129.822 99.689 129.489V127.193C99.689 115.75 109.024 106.454 120.517 106.454C132.009 106.454 141.345 115.75 141.345 127.193V129.489C143.465 129.859 145.064 131.674 145.064 133.859V139.043C145.064 141.302 143.39 143.154 141.233 143.45C140.452 150.783 135.84 156.967 129.443 160.004Z" fill="white"/>
</mask>
<g mask="url(#mask0_55_216)">
<path d="M181.513 106.454H83.3242V210.146H181.513V106.454Z" fill="#D08B5B"/>
</g>
<mask id="mask1_55_216" style="mask-type:alpha" maskUnits="userSpaceOnUse" x="83" y="106" width="75" height="91">
<path fill-rule="evenodd" clip-rule="evenodd" d="M129.443 160.004V166.818H130.931C145.734 166.818 157.71 178.743 157.71 193.482V196.815H83.3242V193.482C83.3242 178.743 95.3003 166.818 110.103 166.818H111.591V160.004C105.194 156.967 100.582 150.783 99.8006 143.45C97.6434 143.154 95.9697 141.302 95.9697 139.043V133.859C95.9697 131.674 97.569 129.822 99.689 129.489V127.193C99.689 115.75 109.024 106.454 120.517 106.454C132.009 106.454 141.345 115.75 141.345 127.193V129.489C143.465 129.859 145.064 131.674 145.064 133.859V139.043C145.064 141.302 143.39 143.154 141.233 143.45C140.452 150.783 135.84 156.967 129.443 160.004Z" fill="white"/>
</mask>
<g mask="url(#mask1_55_216)">
<path fill-rule="evenodd" clip-rule="evenodd" d="M141.345 135.709V144.227C141.345 155.67 132.01 164.965 120.517 164.965C109.025 164.965 99.6895 155.67 99.6895 144.227V135.709V141.264C99.6895 152.708 109.025 162.003 120.517 162.003C132.01 162.003 141.345 152.708 141.345 141.264V135.709Z" fill="black" fill-opacity="0.1"/>
</g>
<path fill-rule="evenodd" clip-rule="evenodd" d="M133.162 166.923C146.924 168.034 157.71 179.514 157.71 193.513V196.809H83.3242V193.513C83.3242 179.403 94.3333 167.849 108.243 166.886C108.243 167.034 108.243 167.145 108.243 167.293C108.243 171.7 113.822 175.255 120.703 175.255C127.584 175.255 133.162 171.7 133.162 167.293C133.162 167.182 133.162 167.034 133.162 166.923Z" fill="#E6E6E6"/>
<mask id="mask2_55_216" style="mask-type:alpha" maskUnits="userSpaceOnUse" x="83" y="166" width="75" height="31">
<path fill-rule="evenodd" clip-rule="evenodd" d="M133.162 166.923C146.924 168.034 157.71 179.514 157.71 193.512V196.808H83.3242V193.512C83.3242 179.403 94.3333 167.848 108.243 166.885C108.243 167.034 108.243 167.145 108.243 167.293C108.243 171.7 113.822 175.255 120.703 175.255C127.584 175.255 133.162 171.7 133.162 167.293C133.162 167.182 133.162 167.034 133.162 166.923Z" fill="white"/>
</mask>
<g mask="url(#mask2_55_216)">
<path d="M169.611 156.072H71.4219V196.808H169.611V156.072Z" fill="#262E33"/>
</g>
<mask id="mask3_55_216" style="mask-type:alpha" maskUnits="userSpaceOnUse" x="83" y="166" width="75" height="31">
<path fill-rule="evenodd" clip-rule="evenodd" d="M133.162 166.923C146.924 168.034 157.71 179.514 157.71 193.512V196.808H83.3242V193.512C83.3242 179.403 94.3333 167.848 108.243 166.885C108.243 167.034 108.243 167.145 108.243 167.293C108.243 171.7 113.822 175.255 120.703 175.255C127.584 175.255 133.162 171.7 133.162 167.293C133.162 167.182 133.162 167.034 133.162 166.923Z" fill="white"/>
</mask>
<g mask="url(#mask3_55_216)">
<g opacity="0.6">
<g opacity="0.6">
<path opacity="0.6" d="M120.703 177.812C128.837 177.812 135.431 173.352 135.431 167.85C135.431 162.348 128.837 157.888 120.703 157.888C112.569 157.888 105.975 162.348 105.975 167.85C105.975 173.352 112.569 177.812 120.703 177.812Z" fill="black" fill-opacity="0.16"/>
</g>
</g>
</g>
<path fill-rule="evenodd" clip-rule="evenodd" d="M108.913 166.851C94.668 167.48 83.3242 179.183 83.3242 193.514V196.81H109.136C107.871 192.329 107.128 187.071 107.128 181.442C107.128 176.146 107.76 171.146 108.913 166.851ZM132.27 196.81H157.71V193.514C157.71 179.331 146.552 167.702 132.493 166.888C133.609 171.183 134.278 176.146 134.278 181.442C134.278 187.071 133.534 192.329 132.27 196.81Z" fill="#3A4C5A"/>
<path fill-rule="evenodd" clip-rule="evenodd" d="M138.74 187.923L142.311 185.256C142.831 184.849 143.575 184.849 144.133 185.256L146.551 187.182L138.74 187.923Z" fill="#E6E6E6"/>
<path fill-rule="evenodd" clip-rule="evenodd" d="M108.988 166.443C107.5 173.591 108.132 183.738 110.847 196.81H104.896L99.6895 183.478L101.921 180.146L99.6895 177.924L106.756 166.814C107.5 166.591 108.244 166.443 108.988 166.443Z" fill="#2F4351"/>
<path fill-rule="evenodd" clip-rule="evenodd" d="M132.045 166.443C133.533 173.591 132.901 183.738 130.186 196.81H136.136L141.343 183.478L139.112 180.146L141.343 177.924L134.277 166.814C133.533 166.591 132.789 166.443 132.045 166.443Z" fill="#2F4351"/>
<path fill-rule="evenodd" clip-rule="evenodd" d="M115.309 148.297C115.309 151.149 117.652 153.482 120.516 153.482C123.379 153.482 125.723 151.149 125.723 148.297" fill="black" fill-opacity="0.7"/>
<path fill-rule="evenodd" clip-rule="evenodd" d="M116.053 141.262C116.053 142.891 118.061 144.225 120.516 144.225C122.971 144.225 124.979 142.891 124.979 141.262" fill="black" fill-opacity="0.16"/>
<path d="M110.845 136.817C112.077 136.817 113.076 135.822 113.076 134.595C113.076 133.367 112.077 132.373 110.845 132.373C109.612 132.373 108.613 133.367 108.613 134.595C108.613 135.822 109.612 136.817 110.845 136.817Z" fill="black" fill-opacity="0.6"/>
<path d="M130.185 136.817C131.417 136.817 132.416 135.822 132.416 134.595C132.416 133.368 131.417 132.373 130.185 132.373C128.952 132.373 127.953 133.368 127.953 134.595C127.953 135.822 128.952 136.817 130.185 136.817Z" fill="black" fill-opacity="0.6"/>
<path d="M105.491 129.856C106.942 127.82 110.921 126.672 114.38 127.523C114.789 127.634 115.199 127.375 115.273 126.968C115.385 126.561 115.124 126.153 114.715 126.079C110.735 125.079 106.124 126.412 104.301 128.968C104.041 129.301 104.115 129.782 104.45 130.005C104.785 130.227 105.268 130.19 105.491 129.856Z" fill="black" fill-opacity="0.6"/>
<path d="M135.542 129.855C134.091 127.818 130.112 126.67 126.653 127.522C126.244 127.633 125.835 127.374 125.76 126.967C125.686 126.559 125.909 126.152 126.318 126.078C130.298 125.115 134.947 126.411 136.769 129.003C136.992 129.337 136.918 129.781 136.583 130.04C136.249 130.3 135.765 130.188 135.542 129.855Z" fill="black" fill-opacity="0.6"/>
<mask id="mask4_55_216" style="mask-type:alpha" maskUnits="userSpaceOnUse" x="71" y="93" width="99" height="104">
<path d="M169.611 93.1184H71.4219V196.81H169.611V93.1184Z" fill="white"/>
</mask>
<g mask="url(#mask4_55_216)">
<path fill-rule="evenodd" clip-rule="evenodd" d="M93.7382 157V124.226C93.7382 122.93 93.887 121.634 94.1845 120.412C95.3003 113.005 99.6146 107.117 104.524 103.488C111.925 98.0068 124.385 96.4514 128.699 102.932C131.935 101.525 136.696 102.821 140.229 106.08C143.8 109.561 146.626 117.264 144.953 123.559C144.99 124.041 145.027 124.485 145.027 124.967V133.077C144.692 131.225 143.242 129.781 141.382 129.485V129.411C139.15 121.449 132.53 117.782 128.513 114.153C122.191 121.152 102.59 121.152 95.9698 134.966V138.669C95.9698 140.891 97.6062 142.742 99.7634 143.076C100.396 150.556 105.082 156.926 111.591 160V160.148C112.669 176.405 109.136 196.736 85.9277 190.515C90.9859 187.552 93.6638 168.703 93.7382 157ZM129.443 160C135.952 156.926 140.601 150.556 141.27 143.076C143.167 142.78 144.655 141.335 144.99 139.447V139.965C144.99 145.816 146.403 151.593 149.081 156.815L159.086 176.331C161.689 181.368 160.908 187.256 157.635 191.441C156.594 177.664 145.027 166.814 130.931 166.814H129.443V160Z" fill="#272C2E"/>
<mask id="mask5_55_216" style="mask-type:alpha" maskUnits="userSpaceOnUse" x="85" y="98" width="76" height="94">
<path fill-rule="evenodd" clip-rule="evenodd" d="M93.7382 157.001V124.227C93.7382 122.93 93.887 121.634 94.1845 120.412C95.3003 113.006 99.6146 107.117 104.524 103.488C111.925 98.0073 124.385 96.4519 128.699 102.933C131.935 101.525 136.696 102.822 140.229 106.08C143.8 109.562 146.626 117.264 144.953 123.56C144.99 124.041 145.027 124.486 145.027 124.967V133.077C144.692 131.226 143.242 129.781 141.382 129.485V129.411C139.15 121.449 132.53 117.783 128.513 114.154C122.191 121.153 102.59 121.153 95.9698 134.966V138.669C95.9698 140.891 97.6062 142.743 99.7634 143.076C100.396 150.557 105.082 156.927 111.591 160V160.148C112.669 176.406 109.136 196.737 85.9277 190.515C90.9859 187.553 93.6638 168.703 93.7382 157.001ZM129.443 160C135.952 156.927 140.601 150.557 141.27 143.076C143.167 142.78 144.655 141.336 144.99 139.447V139.965C144.99 145.817 146.403 151.594 149.081 156.815L159.086 176.332C161.689 181.368 160.908 187.256 157.635 191.441C156.594 177.665 145.027 166.814 130.931 166.814H129.443V160Z" fill="white"/>
</mask>
<g mask="url(#mask5_55_216)">
<path d="M184.116 98.6746H85.9277V202.367H184.116V98.6746Z" fill="#4A312C"/>
</g>
<path fill-rule="evenodd" clip-rule="evenodd" d="M95.9707 134.967C102.591 123.005 122.192 122.968 128.477 116.894C132.494 120.042 139.077 122.486 141.309 129.375C139.04 121.45 132.457 117.783 128.477 114.154C122.192 121.153 102.591 121.153 95.9707 134.967Z" fill="black" fill-opacity="0.16"/>
</g>
<path d="M83.4396 65.0002H52.3809V96.059" stroke="white" stroke-width="3.88235"/>
<path d="M52.3809 197V228.059H83.4396" stroke="white" stroke-width="3.88235"/>
<path d="M294.058 228.059H325.117V197" stroke="white" stroke-width="3.88235"/>
<path d="M325.117 96.059V65.0002H294.058" stroke="white" stroke-width="3.88235"/>
<path d="M345.526 32.0269V255.678H32.0264V32.0269H345.526Z" stroke="#ADADAD" stroke-width="0.970587"/>
</g>
<path d="M346.47 256.622V248.857H32V256.622V264.386H346.47V256.622Z" fill="#18852E" mask="url(#path-3-inside-1_55_216)"/>
<path fill-rule="evenodd" clip-rule="evenodd" d="M39.7647 268.269C35.4786 268.269 32 271.747 32 276.033C32 280.319 35.4786 283.798 39.7647 283.798C44.0508 283.798 47.5294 280.319 47.5294 276.033C47.5294 271.747 44.0508 268.269 39.7647 268.269ZM38.2118 279.916L34.3294 276.033L35.4242 274.938L38.2118 277.718L44.1052 271.825L45.2 272.927L38.2118 279.916Z" fill="#18852E"/>
<path d="M56.5528 281.386V270.159C56.6097 270.159 56.7676 270.159 57.0264 270.159C57.2904 270.159 57.5984 270.159 57.9504 270.159C58.3076 270.159 58.6622 270.161 59.0142 270.166C59.3714 270.166 59.669 270.169 59.9072 270.174C61.2686 270.205 62.3789 270.449 63.2382 270.904C64.0975 271.36 64.7264 271.996 65.125 272.814C65.5288 273.632 65.7307 274.6 65.7307 275.718C65.7307 276.883 65.5184 277.89 65.094 278.739C64.6695 279.582 64.0199 280.235 63.145 280.695C62.2754 281.156 61.1702 281.386 59.8295 281.386H56.5528ZM58.8356 279.554H59.8761C60.518 279.554 61.1003 279.43 61.6232 279.181C62.1511 278.933 62.573 278.526 62.8888 277.962C63.2046 277.398 63.3624 276.645 63.3624 275.703C63.3624 274.828 63.2227 274.119 62.9431 273.575C62.6636 273.026 62.265 272.625 61.7474 272.372C61.2297 272.118 60.6163 271.991 59.9072 271.991H58.8356V279.554ZM72.3963 281.542C71.3351 281.542 70.4163 281.311 69.6398 280.851C68.8685 280.385 68.2707 279.725 67.8462 278.871C67.4269 278.011 67.2172 276.986 67.2172 275.796C67.2172 274.6 67.4295 273.57 67.854 272.706C68.2836 271.841 68.8867 271.176 69.6631 270.71C70.4396 270.239 71.3507 270.003 72.3963 270.003C73.4368 270.003 74.3427 270.236 75.1139 270.702C75.8852 271.168 76.4805 271.833 76.8998 272.698C77.3243 273.562 77.5365 274.595 77.5365 275.796C77.5365 276.981 77.3269 278.004 76.9076 278.863C76.4935 279.722 75.9008 280.385 75.1295 280.851C74.3582 281.311 73.4471 281.542 72.3963 281.542ZM72.3963 279.678C72.945 279.678 73.4187 279.549 73.8172 279.29C74.221 279.026 74.5316 278.612 74.749 278.048C74.9664 277.478 75.0751 276.738 75.0751 275.827C75.0751 274.89 74.9638 274.132 74.7412 273.552C74.5238 272.972 74.2132 272.548 73.8095 272.278C73.4109 272.004 72.9398 271.867 72.3963 271.867C71.8528 271.867 71.3791 272.004 70.9754 272.278C70.5716 272.548 70.2584 272.975 70.0358 273.56C69.8132 274.139 69.702 274.895 69.702 275.827C69.702 276.743 69.8132 277.483 70.0358 278.048C70.2584 278.612 70.5716 279.026 70.9754 279.29C71.3791 279.549 71.8528 279.678 72.3963 279.678Z" fill="#18852E"/>
<path d="M79.1398 275.501V273.676H80.8558V275.501H79.1398ZM79.1398 281.34V279.531H80.8558V281.34H79.1398ZM86.9572 281.386L86.9649 270.159H88.4325V280.098H93.7358V281.386H86.9572ZM95.6637 281.386V273.358H97.0536V281.386H95.6637ZM95.6249 271.657V270.166H97.0924V271.657H95.6249ZM99.5527 281.386V273.358H100.943V274.522C101.072 274.3 101.251 274.09 101.478 273.894C101.711 273.697 101.991 273.539 102.317 273.42C102.648 273.301 103.029 273.241 103.458 273.241C103.966 273.241 104.432 273.342 104.856 273.544C105.286 273.746 105.627 274.062 105.881 274.491C106.14 274.916 106.269 275.465 106.269 276.138V281.386H104.833V276.277C104.833 275.651 104.667 275.188 104.336 274.887C104.01 274.582 103.585 274.429 103.062 274.429C102.7 274.429 102.361 274.489 102.045 274.608C101.729 274.722 101.473 274.898 101.276 275.136C101.08 275.369 100.981 275.664 100.981 276.021V281.386H99.5527ZM111.909 281.542C111.163 281.542 110.506 281.379 109.936 281.053C109.367 280.726 108.922 280.258 108.601 279.647C108.28 279.036 108.119 278.304 108.119 277.45C108.119 276.606 108.264 275.866 108.554 275.229C108.844 274.592 109.263 274.095 109.812 273.738C110.366 273.381 111.031 273.202 111.808 273.202C112.563 273.202 113.203 273.366 113.726 273.692C114.248 274.018 114.644 274.478 114.914 275.074C115.188 275.664 115.325 276.365 115.325 277.178V277.706H109.571C109.571 278.213 109.654 278.674 109.82 279.088C109.991 279.497 110.247 279.823 110.589 280.066C110.93 280.31 111.363 280.431 111.885 280.431C112.398 280.431 112.838 280.312 113.205 280.074C113.578 279.836 113.816 279.492 113.92 279.042H115.271C115.178 279.585 114.96 280.043 114.619 280.416C114.282 280.789 113.876 281.071 113.399 281.262C112.928 281.449 112.431 281.542 111.909 281.542ZM109.579 276.735H113.943C113.943 276.275 113.865 275.861 113.71 275.493C113.555 275.12 113.317 274.828 112.996 274.616C112.68 274.398 112.281 274.29 111.8 274.29C111.298 274.29 110.881 274.411 110.55 274.654C110.219 274.893 109.973 275.201 109.812 275.578C109.652 275.951 109.574 276.337 109.579 276.735ZM123.947 281.542C123.528 281.537 123.132 281.477 122.759 281.363C122.392 281.244 122.066 281.071 121.781 280.843C121.496 280.615 121.271 280.333 121.105 279.997C120.945 279.655 120.865 279.259 120.865 278.809V273.358H122.301V278.661C122.301 279.184 122.462 279.608 122.783 279.934C123.109 280.261 123.598 280.424 124.25 280.424C124.84 280.424 125.314 280.271 125.671 279.966C126.033 279.655 126.215 279.194 126.215 278.583V273.358H127.643V281.386H126.502L126.354 279.849C126.256 280.253 126.088 280.579 125.85 280.827C125.617 281.076 125.335 281.26 125.003 281.379C124.677 281.493 124.325 281.547 123.947 281.542ZM130.096 283.887V273.358H131.525L131.54 274.755C131.633 274.59 131.752 274.416 131.897 274.235C132.047 274.054 132.229 273.886 132.441 273.73C132.658 273.575 132.909 273.448 133.194 273.35C133.484 273.252 133.813 273.202 134.18 273.202C134.822 273.202 135.386 273.35 135.873 273.645C136.365 273.935 136.748 274.38 137.022 274.981C137.296 275.581 137.434 276.342 137.434 277.263C137.434 278.185 137.299 278.964 137.03 279.601C136.766 280.232 136.383 280.714 135.881 281.045C135.378 281.376 134.773 281.542 134.064 281.542C133.706 281.542 133.388 281.49 133.109 281.386C132.834 281.288 132.594 281.159 132.386 280.998C132.185 280.833 132.014 280.657 131.874 280.47C131.739 280.284 131.628 280.105 131.54 279.934V283.887H130.096ZM133.792 280.424C134.454 280.424 134.995 280.173 135.415 279.67C135.834 279.163 136.044 278.376 136.044 277.31C136.044 276.394 135.852 275.666 135.469 275.128C135.086 274.59 134.527 274.321 133.792 274.321C133.046 274.321 132.482 274.598 132.099 275.151C131.716 275.7 131.525 276.42 131.525 277.31C131.525 277.885 131.61 278.407 131.781 278.878C131.952 279.35 132.205 279.725 132.542 280.004C132.878 280.284 133.295 280.424 133.792 280.424ZM143.741 283.949C143.27 283.949 142.946 283.915 142.77 283.848C142.594 283.781 142.506 283.747 142.506 283.747V282.815L143.329 282.831C143.624 282.841 143.87 282.82 144.067 282.769C144.264 282.717 144.421 282.647 144.541 282.559C144.66 282.471 144.75 282.373 144.812 282.264C144.88 282.155 144.934 282.052 144.975 281.953L145.255 281.192L142.118 273.358H143.57L145.938 279.554L148.291 273.358H149.696L146.319 281.992C146.106 282.499 145.871 282.895 145.612 283.18C145.358 283.465 145.074 283.664 144.758 283.778C144.447 283.892 144.108 283.949 143.741 283.949ZM154.315 281.542C153.574 281.542 152.927 281.384 152.373 281.068C151.825 280.747 151.398 280.279 151.092 279.663C150.787 279.047 150.634 278.294 150.634 277.403C150.634 276.565 150.776 275.83 151.061 275.198C151.346 274.566 151.763 274.077 152.311 273.73C152.86 273.378 153.53 273.202 154.322 273.202C155.063 273.202 155.704 273.366 156.248 273.692C156.792 274.013 157.213 274.486 157.514 275.113C157.819 275.739 157.972 276.502 157.972 277.403C157.972 278.221 157.832 278.941 157.552 279.562C157.273 280.183 156.861 280.67 156.318 281.022C155.78 281.368 155.112 281.542 154.315 281.542ZM154.322 280.408C154.799 280.408 155.202 280.286 155.534 280.043C155.865 279.8 156.116 279.45 156.287 278.995C156.463 278.539 156.551 277.998 156.551 277.372C156.551 276.798 156.473 276.282 156.318 275.827C156.168 275.366 155.93 275.001 155.604 274.732C155.277 274.463 154.85 274.328 154.322 274.328C153.836 274.328 153.424 274.45 153.088 274.693C152.751 274.931 152.495 275.278 152.319 275.734C152.148 276.189 152.063 276.735 152.063 277.372C152.063 277.936 152.138 278.449 152.288 278.91C152.443 279.37 152.687 279.735 153.018 280.004C153.354 280.274 153.789 280.408 154.322 280.408ZM162.801 281.542C162.382 281.537 161.986 281.477 161.613 281.363C161.246 281.244 160.919 281.071 160.635 280.843C160.35 280.615 160.125 280.333 159.959 279.997C159.799 279.655 159.718 279.259 159.718 278.809V273.358H161.155V278.661C161.155 279.184 161.315 279.608 161.636 279.934C161.962 280.261 162.452 280.424 163.104 280.424C163.694 280.424 164.168 280.271 164.525 279.966C164.887 279.655 165.068 279.194 165.068 278.583V273.358H166.497V281.386H165.356L165.208 279.849C165.11 280.253 164.942 280.579 164.703 280.827C164.47 281.076 164.188 281.26 163.857 281.379C163.531 281.493 163.179 281.547 162.801 281.542ZM168.95 281.386V273.358H170.316V274.903C170.451 274.52 170.64 274.204 170.883 273.956C171.126 273.702 171.403 273.513 171.714 273.389C172.03 273.265 172.356 273.202 172.692 273.202C172.811 273.202 172.928 273.21 173.042 273.226C173.156 273.241 173.244 273.267 173.306 273.303V274.693C173.228 274.657 173.127 274.634 173.003 274.623C172.884 274.608 172.783 274.6 172.7 274.6C172.379 274.579 172.079 274.6 171.799 274.662C171.52 274.719 171.274 274.82 171.062 274.965C170.849 275.11 170.681 275.302 170.557 275.54C170.438 275.773 170.378 276.057 170.378 276.394V281.386H168.95ZM179.087 281.386V270.159H180.524V281.386H179.087ZM183.485 281.386V270.159C183.521 270.159 183.63 270.161 183.811 270.166C183.998 270.166 184.223 270.166 184.487 270.166C184.751 270.161 185.025 270.161 185.31 270.166C185.595 270.166 185.856 270.169 186.094 270.174C187.471 270.195 188.587 270.42 189.441 270.85C190.3 271.274 190.929 271.893 191.327 272.706C191.731 273.518 191.933 274.517 191.933 275.703C191.933 276.945 191.716 277.988 191.281 278.832C190.851 279.676 190.194 280.312 189.309 280.742C188.429 281.172 187.308 281.386 185.947 281.386H183.485ZM184.96 280.152H185.947C186.873 280.152 187.67 280.01 188.338 279.725C189.006 279.435 189.518 278.966 189.875 278.319C190.238 277.672 190.419 276.808 190.419 275.726C190.419 274.644 190.243 273.787 189.891 273.156C189.544 272.524 189.042 272.074 188.385 271.805C187.727 271.53 186.935 271.393 186.009 271.393H184.96V280.152ZM199.343 281.386L196.858 273.358H198.194L200.026 279.531H200.151L201.96 273.358H203.047L204.926 279.515H205.058L206.813 273.358H208.164L205.726 281.386H204.313L202.488 275.462L200.741 281.386H199.343ZM209.799 281.386V273.358H211.189V281.386H209.799ZM209.76 271.657V270.166H211.227V271.657H209.76ZM216.54 281.425C215.986 281.425 215.556 281.35 215.251 281.2C214.945 281.05 214.73 280.827 214.606 280.532C214.487 280.237 214.428 279.875 214.428 279.445V274.406H213.123V273.358H214.466L214.816 271.021H215.872V273.35H217.681V274.406H215.872V279.399C215.872 279.683 215.9 279.893 215.957 280.028C216.019 280.157 216.12 280.24 216.26 280.276C216.4 280.312 216.596 280.33 216.85 280.33H217.728V281.293C217.629 281.33 217.479 281.361 217.277 281.386C217.08 281.412 216.835 281.425 216.54 281.425ZM219.633 281.386V269.848H221.03V274.538C221.165 274.315 221.346 274.108 221.574 273.917C221.801 273.72 222.078 273.562 222.405 273.443C222.731 273.319 223.109 273.257 223.538 273.257C224.061 273.257 224.535 273.355 224.959 273.552C225.384 273.743 225.72 274.018 225.969 274.375C226.217 274.732 226.341 275.157 226.341 275.648V281.386H224.905V275.936C224.905 275.454 224.739 275.084 224.408 274.825C224.082 274.561 223.655 274.429 223.127 274.429C222.769 274.429 222.433 274.489 222.117 274.608C221.801 274.722 221.545 274.898 221.349 275.136C221.157 275.369 221.061 275.666 221.061 276.029V281.386H219.633ZM235.299 281.425C234.745 281.425 234.316 281.35 234.01 281.2C233.705 281.05 233.49 280.827 233.366 280.532C233.247 280.237 233.187 279.875 233.187 279.445V274.406H231.883V273.358H233.226L233.575 271.021H234.631V273.35H236.441V274.406H234.631V279.399C234.631 279.683 234.66 279.893 234.717 280.028C234.779 280.157 234.88 280.24 235.02 280.276C235.159 280.312 235.356 280.33 235.61 280.33H236.487V281.293C236.389 281.33 236.239 281.361 236.037 281.386C235.84 281.412 235.594 281.425 235.299 281.425ZM238.392 281.386V269.848H239.79V274.538C239.924 274.315 240.106 274.108 240.333 273.917C240.561 273.72 240.838 273.562 241.164 273.443C241.49 273.319 241.868 273.257 242.298 273.257C242.821 273.257 243.294 273.355 243.719 273.552C244.143 273.743 244.48 274.018 244.728 274.375C244.977 274.732 245.101 275.157 245.101 275.648V281.386H243.664V275.936C243.664 275.454 243.499 275.084 243.167 274.825C242.841 274.561 242.414 274.429 241.886 274.429C241.529 274.429 241.193 274.489 240.877 274.608C240.561 274.722 240.305 274.898 240.108 275.136C239.917 275.369 239.821 275.666 239.821 276.029V281.386H238.392ZM250.733 281.542C249.988 281.542 249.33 281.379 248.761 281.053C248.191 280.726 247.746 280.258 247.425 279.647C247.104 279.036 246.944 278.304 246.944 277.45C246.944 276.606 247.089 275.866 247.379 275.229C247.668 274.592 248.088 274.095 248.636 273.738C249.19 273.381 249.856 273.202 250.632 273.202C251.388 273.202 252.027 273.366 252.55 273.692C253.073 274.018 253.469 274.478 253.738 275.074C254.012 275.664 254.149 276.365 254.149 277.178V277.706H248.396C248.396 278.213 248.479 278.674 248.644 279.088C248.815 279.497 249.071 279.823 249.413 280.066C249.755 280.31 250.187 280.431 250.71 280.431C251.222 280.431 251.662 280.312 252.03 280.074C252.402 279.836 252.64 279.492 252.744 279.042H254.095C254.002 279.585 253.784 280.043 253.443 280.416C253.106 280.789 252.7 281.071 252.224 281.262C251.753 281.449 251.256 281.542 250.733 281.542ZM248.404 276.735H252.767C252.767 276.275 252.69 275.861 252.534 275.493C252.379 275.12 252.141 274.828 251.82 274.616C251.504 274.398 251.106 274.29 250.624 274.29C250.122 274.29 249.705 274.411 249.374 274.654C249.043 274.893 248.797 275.201 248.636 275.578C248.476 275.951 248.398 276.337 248.404 276.735ZM263.214 284.042C261.956 284.042 260.975 283.858 260.271 283.491C259.567 283.128 259.215 282.608 259.215 281.93C259.215 281.64 259.283 281.394 259.417 281.192C259.552 280.985 259.712 280.814 259.899 280.68C260.085 280.545 260.258 280.439 260.419 280.362C260.579 280.279 260.685 280.219 260.737 280.183C260.644 280.131 260.533 280.066 260.403 279.989C260.274 279.911 260.157 279.808 260.054 279.678C259.956 279.549 259.906 279.381 259.906 279.174C259.906 278.92 260.025 278.687 260.264 278.475C260.502 278.262 260.856 278.105 261.327 278.001C260.856 277.763 260.489 277.447 260.225 277.054C259.961 276.66 259.829 276.233 259.829 275.773C259.829 275.255 259.968 274.805 260.248 274.422C260.528 274.038 260.929 273.746 261.452 273.544C261.974 273.337 262.598 273.234 263.323 273.234C263.846 273.234 264.283 273.296 264.635 273.42C264.992 273.539 265.324 273.71 265.629 273.932C265.712 273.896 265.844 273.842 266.025 273.769C266.206 273.692 266.403 273.609 266.615 273.521C266.832 273.433 267.034 273.35 267.221 273.272C267.412 273.19 267.565 273.127 267.679 273.086L267.671 274.414L266.266 274.678C266.348 274.843 266.413 275.025 266.46 275.221C266.506 275.418 266.53 275.602 266.53 275.773C266.53 276.244 266.405 276.671 266.157 277.054C265.914 277.437 265.544 277.742 265.047 277.97C264.55 278.198 263.928 278.312 263.183 278.312C263.121 278.312 263.041 278.312 262.942 278.312C262.849 278.306 262.769 278.301 262.702 278.296C262.153 278.312 261.775 278.374 261.568 278.482C261.366 278.586 261.265 278.702 261.265 278.832C261.265 278.982 261.382 279.086 261.615 279.142C261.848 279.199 262.241 279.249 262.795 279.29C262.997 279.3 263.245 279.313 263.54 279.329C263.84 279.344 264.174 279.365 264.542 279.391C265.38 279.443 266.028 279.658 266.483 280.035C266.939 280.413 267.166 280.923 267.166 281.565C267.166 282.295 266.84 282.89 266.188 283.351C265.541 283.812 264.55 284.042 263.214 284.042ZM263.47 283.118C264.211 283.118 264.777 283.007 265.171 282.784C265.569 282.562 265.769 282.225 265.769 281.775C265.769 281.454 265.647 281.192 265.404 280.99C265.16 280.783 264.793 280.664 264.301 280.633L262.049 280.486C261.848 280.475 261.638 280.527 261.42 280.641C261.203 280.75 261.019 280.902 260.869 281.099C260.719 281.296 260.644 281.518 260.644 281.767C260.644 282.191 260.874 282.523 261.335 282.761C261.796 282.999 262.508 283.118 263.47 283.118ZM263.23 277.388C263.804 277.388 264.268 277.253 264.62 276.984C264.977 276.715 265.155 276.316 265.155 275.788C265.155 275.245 264.977 274.83 264.62 274.546C264.268 274.261 263.804 274.119 263.23 274.119C262.64 274.119 262.163 274.264 261.801 274.554C261.444 274.838 261.265 275.25 261.265 275.788C261.265 276.295 261.436 276.689 261.778 276.968C262.124 277.248 262.608 277.388 263.23 277.388ZM272.204 281.542C271.785 281.537 271.389 281.477 271.016 281.363C270.649 281.244 270.323 281.071 270.038 280.843C269.753 280.615 269.528 280.333 269.363 279.997C269.202 279.655 269.122 279.259 269.122 278.809V273.358H270.558V278.661C270.558 279.184 270.719 279.608 271.04 279.934C271.366 280.261 271.855 280.424 272.507 280.424C273.097 280.424 273.571 280.271 273.928 279.966C274.291 279.655 274.472 279.194 274.472 278.583V273.358H275.9V281.386H274.759L274.611 279.849C274.513 280.253 274.345 280.579 274.107 280.827C273.874 281.076 273.592 281.26 273.26 281.379C272.934 281.493 272.582 281.547 272.204 281.542ZM278.392 281.386V273.358H279.782V281.386H278.392ZM278.353 271.657V270.166H279.821V271.657H278.353ZM285.117 281.542C284.072 281.542 283.243 281.185 282.633 280.47C282.027 279.756 281.724 278.713 281.724 277.341C281.724 276.508 281.846 275.78 282.089 275.159C282.332 274.538 282.697 274.057 283.184 273.715C283.67 273.373 284.276 273.202 285.001 273.202C285.389 273.202 285.731 273.252 286.026 273.35C286.321 273.448 286.577 273.573 286.794 273.723C287.012 273.873 287.188 274.028 287.322 274.189C287.462 274.349 287.566 274.497 287.633 274.631V269.848H289.085V281.386H287.982L287.827 279.74C287.775 279.896 287.693 280.077 287.579 280.284C287.465 280.486 287.304 280.685 287.097 280.882C286.895 281.073 286.631 281.231 286.305 281.355C285.979 281.48 285.583 281.542 285.117 281.542ZM285.373 280.439C286.181 280.439 286.758 280.193 287.105 279.702C287.457 279.205 287.633 278.394 287.633 277.271C287.628 276.645 287.55 276.112 287.4 275.672C287.25 275.232 287.012 274.898 286.686 274.67C286.365 274.437 285.935 274.321 285.397 274.321C284.739 274.321 284.204 274.556 283.789 275.027C283.375 275.498 283.168 276.246 283.168 277.271C283.168 278.275 283.355 279.054 283.727 279.608C284.1 280.162 284.649 280.439 285.373 280.439ZM294.849 281.542C294.104 281.542 293.446 281.379 292.877 281.053C292.308 280.726 291.862 280.258 291.541 279.647C291.22 279.036 291.06 278.304 291.06 277.45C291.06 276.606 291.205 275.866 291.495 275.229C291.785 274.592 292.204 274.095 292.753 273.738C293.307 273.381 293.972 273.202 294.748 273.202C295.504 273.202 296.143 273.366 296.666 273.692C297.189 274.018 297.585 274.478 297.854 275.074C298.128 275.664 298.266 276.365 298.266 277.178V277.706H292.512C292.512 278.213 292.595 278.674 292.76 279.088C292.931 279.497 293.188 279.823 293.529 280.066C293.871 280.31 294.303 280.431 294.826 280.431C295.338 280.431 295.778 280.312 296.146 280.074C296.519 279.836 296.757 279.492 296.86 279.042H298.211C298.118 279.585 297.901 280.043 297.559 280.416C297.223 280.789 296.816 281.071 296.34 281.262C295.869 281.449 295.372 281.542 294.849 281.542ZM292.52 276.735H296.884C296.884 276.275 296.806 275.861 296.651 275.493C296.495 275.12 296.257 274.828 295.936 274.616C295.62 274.398 295.222 274.29 294.74 274.29C294.238 274.29 293.822 274.411 293.49 274.654C293.159 274.893 292.913 275.201 292.753 275.578C292.592 275.951 292.515 276.337 292.52 276.735ZM302.279 281.487C301.844 281.487 301.492 281.428 301.223 281.309C300.959 281.19 300.754 281.029 300.609 280.827C300.469 280.626 300.374 280.395 300.322 280.136C300.275 279.872 300.252 279.601 300.252 279.321V269.848H301.665V279.181C301.665 279.585 301.743 279.888 301.898 280.09C302.059 280.292 302.281 280.403 302.566 280.424L303.001 280.431V281.363C302.882 281.399 302.757 281.428 302.628 281.449C302.499 281.474 302.382 281.487 302.279 281.487ZM304.916 281.386V273.358H306.306V281.386H304.916ZM304.877 271.657V270.166H306.345V271.657H304.877ZM308.805 281.386V273.358H310.195V274.522C310.325 274.3 310.503 274.09 310.731 273.894C310.964 273.697 311.243 273.539 311.569 273.42C311.901 273.301 312.281 273.241 312.711 273.241C313.218 273.241 313.684 273.342 314.109 273.544C314.538 273.746 314.88 274.062 315.133 274.491C315.392 274.916 315.522 275.465 315.522 276.138V281.386H314.085V276.277C314.085 275.651 313.92 275.188 313.588 274.887C313.262 274.582 312.838 274.429 312.315 274.429C311.953 274.429 311.613 274.489 311.298 274.608C310.982 274.722 310.726 274.898 310.529 275.136C310.332 275.369 310.234 275.664 310.234 276.021V281.386H308.805ZM321.161 281.542C320.416 281.542 319.758 281.379 319.189 281.053C318.62 280.726 318.174 280.258 317.853 279.647C317.532 279.036 317.372 278.304 317.372 277.45C317.372 276.606 317.517 275.866 317.807 275.229C318.097 274.592 318.516 274.095 319.065 273.738C319.619 273.381 320.284 273.202 321.06 273.202C321.816 273.202 322.455 273.366 322.978 273.692C323.501 274.018 323.897 274.478 324.166 275.074C324.44 275.664 324.578 276.365 324.578 277.178V277.706H318.824C318.824 278.213 318.907 278.674 319.072 279.088C319.243 279.497 319.5 279.823 319.841 280.066C320.183 280.31 320.615 280.431 321.138 280.431C321.65 280.431 322.09 280.312 322.458 280.074C322.831 279.836 323.069 279.492 323.172 279.042H324.523C324.43 279.585 324.213 280.043 323.871 280.416C323.535 280.789 323.128 281.071 322.652 281.262C322.181 281.449 321.684 281.542 321.161 281.542ZM318.832 276.735H323.196C323.196 276.275 323.118 275.861 322.963 275.493C322.807 275.12 322.569 274.828 322.248 274.616C321.932 274.398 321.534 274.29 321.052 274.29C320.55 274.29 320.134 274.411 319.802 274.654C319.471 274.893 319.225 275.201 319.065 275.578C318.904 275.951 318.827 276.337 318.832 276.735ZM329.407 281.542C328.848 281.542 328.328 281.456 327.846 281.286C327.37 281.11 326.974 280.838 326.658 280.47C326.342 280.098 326.146 279.624 326.068 279.049H327.373C327.44 279.365 327.569 279.629 327.761 279.841C327.952 280.048 328.188 280.206 328.467 280.315C328.752 280.418 329.063 280.47 329.399 280.47C329.943 280.47 330.38 280.369 330.711 280.167C331.043 279.966 331.208 279.655 331.208 279.236C331.208 278.941 331.12 278.705 330.944 278.529C330.774 278.348 330.504 278.216 330.137 278.133L328.475 277.722C327.828 277.566 327.31 277.323 326.922 276.992C326.539 276.66 326.345 276.197 326.34 275.602C326.34 275.131 326.454 274.717 326.682 274.359C326.909 274.002 327.248 273.72 327.699 273.513C328.154 273.306 328.721 273.202 329.399 273.202C330.274 273.202 330.978 273.399 331.511 273.793C332.044 274.181 332.324 274.753 332.35 275.509H331.076C331.025 275.126 330.854 274.823 330.564 274.6C330.274 274.372 329.881 274.258 329.384 274.258C328.876 274.258 328.46 274.362 328.134 274.569C327.813 274.771 327.652 275.087 327.652 275.516C327.652 275.801 327.766 276.026 327.994 276.192C328.227 276.352 328.563 276.487 329.003 276.596L330.618 276.999C330.986 277.098 331.291 277.227 331.534 277.388C331.778 277.548 331.969 277.727 332.109 277.923C332.249 278.12 332.347 278.327 332.404 278.545C332.466 278.757 332.497 278.961 332.497 279.158C332.497 279.65 332.376 280.074 332.132 280.431C331.889 280.783 331.537 281.058 331.076 281.254C330.616 281.446 330.059 281.542 329.407 281.542Z" fill="#454545"/>
<g clip-path="url(#clip2_55_216)">
<mask id="path-48-inside-2_55_216" fill="white">
<path d="M377.529 32H691.529V256H377.529V32Z"/>
</mask>
<path d="M377.529 32H691.529V256H377.529V32Z" fill="white"/>
<path d="M728.825 257H344.233C332.263 257 322.529 247.253 322.529 235.267V47.7326C322.529 35.7466 332.263 26 344.233 26H728.825C740.796 26 750.529 35.7466 750.529 47.7326V235.267C750.529 247.253 740.796 257 728.825 257ZM344.233 30.826C334.925 30.826 327.349 38.4119 327.349 47.7326V235.267C327.349 244.588 334.925 252.174 344.233 252.174H728.825C738.134 252.174 745.71 244.588 745.71 235.267V47.7326C745.71 38.4119 738.134 30.826 728.825 30.826H344.233Z" fill="#112E51"/>
<path d="M713.544 60.9849H525.896C524.524 60.9849 523.412 62.0971 523.412 63.4692V85.5526C523.412 86.9247 524.524 88.037 525.896 88.037H713.544C714.916 88.037 716.028 86.9247 716.028 85.5526V63.4692C716.028 62.0971 714.916 60.9849 713.544 60.9849Z" fill="#5B616A"/>
<path d="M712.656 158.214H656.221C654.849 158.214 653.736 159.326 653.736 160.698V224.541C653.736 225.913 654.849 227.025 656.221 227.025H712.656C714.028 227.025 715.14 225.913 715.14 224.541V160.698C715.14 159.326 714.028 158.214 712.656 158.214Z" fill="#5B616A"/>
<path d="M609.429 103.557H526.064C524.692 103.557 523.58 104.669 523.58 106.041V116.301C523.58 117.673 524.692 118.785 526.064 118.785H609.429C610.801 118.785 611.914 117.673 611.914 116.301V106.041C611.914 104.669 610.801 103.557 609.429 103.557Z" fill="#5B616A"/>
<path d="M713.3 103.557H629.936C628.563 103.557 627.451 104.669 627.451 106.041V116.301C627.451 117.673 628.563 118.785 629.936 118.785H713.3C714.672 118.785 715.785 117.673 715.785 116.301V106.041C715.785 104.669 714.672 103.557 713.3 103.557Z" fill="#5B616A"/>
<path d="M640.056 133.997H525.836C524.464 133.997 523.352 135.109 523.352 136.481V146.741C523.352 148.113 524.464 149.225 525.836 149.225H640.056C641.428 149.225 642.54 148.113 642.54 146.741V136.481C642.54 135.109 641.428 133.997 640.056 133.997Z" fill="#5B616A"/>
<path d="M624.337 164.453H525.836C524.464 164.453 523.352 165.565 523.352 166.937V177.197C523.352 178.569 524.464 179.681 525.836 179.681H624.337C625.709 179.681 626.821 178.569 626.821 177.197V166.937C626.821 165.565 625.709 164.453 624.337 164.453Z" fill="#5B616A"/>
<path d="M564.88 195.019H525.514C524.142 195.019 523.029 196.132 523.029 197.504V207.763C523.029 209.135 524.142 210.248 525.514 210.248H564.88C566.252 210.248 567.365 209.135 567.365 207.763V197.504C567.365 196.132 566.252 195.019 564.88 195.019Z" fill="#5B616A"/>
<path d="M624.906 194.666H585.539C584.167 194.666 583.055 195.778 583.055 197.15V207.409C583.055 208.782 584.167 209.894 585.539 209.894H624.906C626.278 209.894 627.39 208.782 627.39 207.409V197.15C627.39 195.778 626.278 194.666 624.906 194.666Z" fill="#5B616A"/>
<path d="M490.056 61.5503H359.979C358.285 61.5503 356.912 62.9235 356.912 64.6174V227.574C356.912 229.268 358.285 230.641 359.979 230.641H490.056C491.75 230.641 493.124 229.268 493.124 227.574V64.6174C493.124 62.9235 491.75 61.5503 490.056 61.5503Z" fill="#EBF3FA"/>
<path fill-rule="evenodd" clip-rule="evenodd" d="M436.79 168.318V179.716H439.278C464.038 179.716 484.071 199.662 484.071 224.316V229.891H359.646V224.316C359.646 199.662 379.679 179.716 404.439 179.716H406.928V168.318C396.227 163.239 388.513 152.894 387.206 140.629C383.598 140.133 380.799 137.036 380.799 133.258V124.585C380.799 120.931 383.474 117.833 387.02 117.276V113.435C387.02 94.2942 402.635 78.7461 421.859 78.7461C441.082 78.7461 456.697 94.2942 456.697 113.435V117.276C460.244 117.895 462.919 120.931 462.919 124.585V133.258C462.919 137.036 460.119 140.133 456.511 140.629C455.204 152.894 447.49 163.239 436.79 168.318Z" fill="#D0C6AC"/>
<mask id="mask6_55_216" style="mask-type:alpha" maskUnits="userSpaceOnUse" x="359" y="78" width="126" height="152">
<path fill-rule="evenodd" clip-rule="evenodd" d="M436.79 168.318V179.715H439.278C464.038 179.715 484.071 199.662 484.071 224.316V229.891H359.646V224.316C359.646 199.662 379.679 179.715 404.439 179.715H406.928V168.318C396.227 163.238 388.513 152.893 387.206 140.628C383.598 140.133 380.799 137.035 380.799 133.257V124.585C380.799 120.93 383.474 117.833 387.02 117.275V113.434C387.02 94.2935 402.635 78.7454 421.859 78.7454C441.082 78.7454 456.697 94.2935 456.697 113.434V117.275C460.244 117.894 462.919 120.93 462.919 124.585V133.257C462.919 137.035 460.119 140.133 456.511 140.628C455.204 152.893 447.49 163.238 436.79 168.318Z" fill="white"/>
</mask>
<g mask="url(#mask6_55_216)">
<path d="M523.887 78.7454H359.646V252.191H523.887V78.7454Z" fill="#D08B5B"/>
</g>
<mask id="mask7_55_216" style="mask-type:alpha" maskUnits="userSpaceOnUse" x="359" y="78" width="126" height="152">
<path fill-rule="evenodd" clip-rule="evenodd" d="M436.79 168.318V179.715H439.278C464.038 179.715 484.071 199.662 484.071 224.316V229.891H359.646V224.316C359.646 199.662 379.679 179.715 404.439 179.715H406.928V168.318C396.227 163.238 388.513 152.893 387.206 140.628C383.598 140.133 380.799 137.035 380.799 133.257V124.585C380.799 120.93 383.474 117.833 387.02 117.275V113.434C387.02 94.2935 402.635 78.7454 421.859 78.7454C441.082 78.7454 456.697 94.2935 456.697 113.434V117.275C460.244 117.894 462.919 120.93 462.919 124.585V133.257C462.919 137.035 460.119 140.133 456.511 140.628C455.204 152.893 447.49 163.238 436.79 168.318Z" fill="white"/>
</mask>
<g mask="url(#mask7_55_216)">
<path fill-rule="evenodd" clip-rule="evenodd" d="M456.699 127.687V141.934C456.699 161.075 441.084 176.623 421.86 176.623C402.637 176.623 387.021 161.075 387.021 141.934V127.687V136.978C387.021 156.119 402.637 171.667 421.86 171.667C441.084 171.667 456.699 156.119 456.699 136.978V127.687Z" fill="black" fill-opacity="0.1"/>
</g>
<path fill-rule="evenodd" clip-rule="evenodd" d="M443.011 179.902C466.029 181.76 484.071 200.963 484.071 224.378V229.891H359.646V224.378C359.646 200.777 378.061 181.451 401.329 179.84C401.329 180.088 401.329 180.274 401.329 180.521C401.329 187.893 410.66 193.84 422.17 193.84C433.679 193.84 443.011 187.893 443.011 180.521C443.011 180.336 443.011 180.088 443.011 179.902Z" fill="#E6E6E6"/>
<mask id="mask8_55_216" style="mask-type:alpha" maskUnits="userSpaceOnUse" x="359" y="179" width="126" height="51">
<path fill-rule="evenodd" clip-rule="evenodd" d="M443.019 179.943C466.037 181.802 484.079 201.005 484.079 224.42V229.933H359.654V224.42C359.654 200.819 378.069 181.492 401.336 179.881C401.336 180.129 401.336 180.315 401.336 180.563C401.336 187.934 410.668 193.881 422.178 193.881C433.687 193.881 443.019 187.934 443.019 180.563C443.019 180.377 443.019 180.129 443.019 179.943Z" fill="white"/>
</mask>
<g mask="url(#mask8_55_216)">
<path d="M503.978 161.811H339.738V229.95H503.978V161.811Z" fill="#262E33"/>
</g>
<mask id="mask9_55_216" style="mask-type:alpha" maskUnits="userSpaceOnUse" x="359" y="179" width="126" height="51">
<path fill-rule="evenodd" clip-rule="evenodd" d="M443.019 179.943C466.037 181.802 484.079 201.005 484.079 224.42V229.933H359.654V224.42C359.654 200.819 378.069 181.492 401.336 179.881C401.336 180.129 401.336 180.315 401.336 180.563C401.336 187.934 410.668 193.881 422.178 193.881C433.687 193.881 443.019 187.934 443.019 180.563C443.019 180.377 443.019 180.129 443.019 179.943Z" fill="white"/>
</mask>
<g mask="url(#mask9_55_216)">
<g opacity="0.6">
<g opacity="0.6">
<path opacity="0.6" d="M422.169 198.112C435.775 198.112 446.805 190.652 446.805 181.449C446.805 172.246 435.775 164.786 422.169 164.786C408.563 164.786 397.533 172.246 397.533 181.449C397.533 190.652 408.563 198.112 422.169 198.112Z" fill="black" fill-opacity="0.16"/>
</g>
</g>
</g>
<path fill-rule="evenodd" clip-rule="evenodd" d="M402.448 179.778C378.621 180.831 359.646 200.406 359.646 224.379V229.892H402.822C400.707 222.396 399.462 213.6 399.462 204.185C399.462 195.326 400.52 186.964 402.448 179.778ZM441.518 229.892H484.071V224.379C484.071 200.654 465.407 181.203 441.891 179.84C443.757 187.026 444.877 195.326 444.877 204.185C444.877 213.6 443.633 222.396 441.518 229.892Z" fill="#3A4C5A"/>
<path fill-rule="evenodd" clip-rule="evenodd" d="M452.344 215.025L458.316 210.565C459.187 209.883 460.431 209.883 461.365 210.565L465.408 213.786L452.344 215.025Z" fill="#E6E6E6"/>
<path fill-rule="evenodd" clip-rule="evenodd" d="M402.575 179.1C400.086 191.055 401.144 208.028 405.685 229.895H395.731L387.021 207.594L390.754 202.019L387.021 198.303L398.842 179.719C400.086 179.348 401.33 179.1 402.575 179.1Z" fill="#2F4351"/>
<path fill-rule="evenodd" clip-rule="evenodd" d="M441.144 179.1C443.632 191.055 442.575 208.028 438.033 229.895H447.987L456.697 207.594L452.964 202.019L456.697 198.303L444.877 179.719C443.632 179.348 442.388 179.1 441.144 179.1Z" fill="#2F4351"/>
<path fill-rule="evenodd" clip-rule="evenodd" d="M413.148 148.744C413.148 153.514 417.068 157.416 421.858 157.416C426.648 157.416 430.568 153.514 430.568 148.744" fill="black" fill-opacity="0.7"/>
<path fill-rule="evenodd" clip-rule="evenodd" d="M414.387 137.039C414.387 139.764 417.746 141.994 421.852 141.994C425.958 141.994 429.318 139.764 429.318 137.039" fill="black" fill-opacity="0.16"/>
<path d="M405.684 129.54C407.745 129.54 409.417 127.876 409.417 125.824C409.417 123.771 407.745 122.107 405.684 122.107C403.622 122.107 401.951 123.771 401.951 125.824C401.951 127.876 403.622 129.54 405.684 129.54Z" fill="black" fill-opacity="0.6"/>
<path d="M438.032 129.541C440.093 129.541 441.764 127.877 441.764 125.824C441.764 123.771 440.093 122.107 438.032 122.107C435.97 122.107 434.299 123.771 434.299 125.824C434.299 127.877 435.97 129.541 438.032 129.541Z" fill="black" fill-opacity="0.6"/>
<path d="M396.725 117.897C399.152 114.49 405.808 112.569 411.594 113.994C412.278 114.18 412.963 113.746 413.087 113.065C413.274 112.383 412.838 111.702 412.154 111.578C405.497 109.906 397.783 112.136 394.735 116.41C394.299 116.967 394.423 117.773 394.983 118.144C395.543 118.516 396.352 118.454 396.725 117.897Z" fill="black" fill-opacity="0.6"/>
<path d="M446.993 117.895C444.567 114.488 437.91 112.568 432.124 113.993C431.44 114.178 430.756 113.745 430.631 113.063C430.507 112.382 430.88 111.701 431.564 111.577C438.221 109.966 445.998 112.134 449.046 116.47C449.419 117.028 449.295 117.771 448.735 118.205C448.175 118.638 447.366 118.453 446.993 117.895Z" fill="black" fill-opacity="0.6"/>
<mask id="mask10_55_216" style="mask-type:alpha" maskUnits="userSpaceOnUse" x="339" y="56" width="165" height="174">
<path d="M503.978 56.4451H339.738V229.891H503.978V56.4451Z" fill="white"/>
</mask>
<g mask="url(#mask10_55_216)">
<path fill-rule="evenodd" clip-rule="evenodd" d="M377.063 163.35V108.529C377.063 106.361 377.311 104.193 377.809 102.148C379.676 89.7595 386.892 79.9103 395.104 73.8397C407.484 64.6719 428.325 62.0702 435.542 72.9105C440.954 70.5566 448.918 72.7247 454.828 78.1758C460.8 83.9986 465.528 96.8832 462.729 107.414C462.791 108.219 462.853 108.962 462.853 109.768V123.334C462.293 120.236 459.867 117.82 456.756 117.325V117.201C453.024 103.883 441.95 97.7504 435.231 91.6798C424.655 103.387 391.869 103.387 380.795 126.493V132.687C380.795 136.404 383.533 139.501 387.141 140.059C388.199 152.572 396.037 163.226 406.924 168.367V168.615C408.729 195.809 402.818 229.817 363.998 219.41C372.459 214.454 376.938 182.924 377.063 163.35ZM436.786 168.367C447.673 163.226 455.45 152.572 456.57 140.059C459.743 139.563 462.231 137.147 462.791 133.988V134.855C462.791 144.643 465.155 154.306 469.634 163.04L486.369 195.685C490.724 204.11 489.418 213.959 483.943 220.959C482.201 197.915 462.853 179.765 439.275 179.765H436.786V168.367Z" fill="#272C2E"/>
<mask id="mask11_55_216" style="mask-type:alpha" maskUnits="userSpaceOnUse" x="363" y="65" width="126" height="157">
<path fill-rule="evenodd" clip-rule="evenodd" d="M377.063 163.312V108.49C377.063 106.322 377.311 104.154 377.809 102.11C379.676 89.7212 386.892 79.872 395.104 73.8014C407.484 64.6335 428.325 62.0319 435.542 72.8722C440.954 70.5183 448.918 72.6864 454.828 78.1375C460.8 83.9603 465.528 96.8448 462.729 107.375C462.791 108.181 462.853 108.924 462.853 109.729V123.295C462.293 120.198 459.867 117.782 456.756 117.287V117.163C453.024 103.845 441.95 97.7121 435.231 91.6415C424.655 103.349 391.869 103.349 380.795 126.454V132.649C380.795 136.366 383.533 139.463 387.141 140.02C388.199 152.533 396.037 163.188 406.924 168.329V168.577C408.729 195.771 402.818 229.778 363.998 219.372C372.459 214.416 376.938 182.886 377.063 163.312ZM436.786 168.329C447.673 163.188 455.45 152.533 456.57 140.02C459.743 139.525 462.231 137.109 462.791 133.95V134.817C462.791 144.604 465.155 154.268 469.634 163.002L486.369 195.647C490.724 204.071 489.418 213.92 483.943 220.92C482.201 197.877 462.853 179.727 439.275 179.727H436.786V168.329Z" fill="white"/>
</mask>
<g mask="url(#mask11_55_216)">
<path d="M528.24 65.7412H364V239.187H528.24V65.7412Z" fill="#4A312C"/>
</g>
<path fill-rule="evenodd" clip-rule="evenodd" d="M380.797 126.446C391.871 106.437 424.656 106.375 435.17 96.2165C441.889 101.482 452.901 105.57 456.633 117.092C452.839 103.836 441.827 97.7032 435.17 91.6326C424.656 103.34 391.871 103.34 380.797 126.446Z" fill="black" fill-opacity="0.16"/>
</g>
<rect x="378.015" y="32.4853" width="313.029" height="222.029" stroke="#ADADAD" stroke-width="0.970587"/>
</g>
<path d="M691.529 256V248.235H377.529V256V263.765H691.529V256Z" fill="#E21C3D" mask="url(#path-48-inside-2_55_216)"/>
<path fill-rule="evenodd" clip-rule="evenodd" d="M385.294 267.647C381 267.647 377.529 271.118 377.529 275.412C377.529 279.706 381 283.176 385.294 283.176C389.588 283.176 393.059 279.706 393.059 275.412C393.059 271.118 389.588 267.647 385.294 267.647ZM389.176 278.199L388.082 279.294L385.294 276.506L382.506 279.294L381.412 278.199L384.199 275.412L381.412 272.624L382.506 271.529L385.294 274.317L388.082 271.529L389.176 272.624L386.389 275.412L389.176 278.199Z" fill="#E21C3D"/>
<path d="M402.082 280.765V269.537C402.139 269.537 402.297 269.537 402.556 269.537C402.82 269.537 403.128 269.537 403.48 269.537C403.837 269.537 404.192 269.539 404.544 269.545C404.901 269.545 405.198 269.547 405.436 269.552C406.798 269.583 407.908 269.827 408.768 270.282C409.627 270.738 410.256 271.375 410.654 272.192C411.058 273.01 411.26 273.978 411.26 275.096C411.26 276.261 411.048 277.268 410.623 278.117C410.199 278.961 409.549 279.613 408.674 280.074C407.805 280.534 406.7 280.765 405.359 280.765H402.082ZM404.365 278.932H405.405C406.047 278.932 406.63 278.808 407.152 278.559C407.68 278.311 408.102 277.905 408.418 277.34C408.734 276.776 408.892 276.023 408.892 275.081C408.892 274.206 408.752 273.497 408.472 272.953C408.193 272.405 407.794 272.003 407.277 271.75C406.759 271.496 406.146 271.369 405.436 271.369H404.365V278.932ZM417.926 280.92C416.864 280.92 415.946 280.69 415.169 280.229C414.398 279.763 413.8 279.103 413.375 278.249C412.956 277.39 412.747 276.365 412.747 275.174C412.747 273.978 412.959 272.948 413.383 272.084C413.813 271.219 414.416 270.554 415.192 270.088C415.969 269.617 416.88 269.382 417.926 269.382C418.966 269.382 419.872 269.615 420.643 270.08C421.415 270.546 422.01 271.211 422.429 272.076C422.854 272.94 423.066 273.973 423.066 275.174C423.066 276.359 422.856 277.382 422.437 278.241C422.023 279.1 421.43 279.763 420.659 280.229C419.887 280.69 418.976 280.92 417.926 280.92ZM417.926 279.056C418.474 279.056 418.948 278.927 419.347 278.668C419.75 278.404 420.061 277.99 420.278 277.426C420.496 276.856 420.604 276.116 420.604 275.205C420.604 274.268 420.493 273.51 420.271 272.93C420.053 272.35 419.743 271.926 419.339 271.657C418.94 271.382 418.469 271.245 417.926 271.245C417.382 271.245 416.908 271.382 416.505 271.657C416.101 271.926 415.788 272.353 415.565 272.938C415.343 273.518 415.231 274.273 415.231 275.205C415.231 276.121 415.343 276.862 415.565 277.426C415.788 277.99 416.101 278.404 416.505 278.668C416.908 278.927 417.382 279.056 417.926 279.056ZM425.073 280.765V269.537H427.317L432.442 276.968V269.537H434.709V280.765H432.667L427.332 273.039V280.765H425.073ZM436.739 273.901L437.64 271.789L436.848 271.711V269.537H439.138V271.455L437.578 273.901H436.739ZM443.715 280.765V271.556H440.322V269.537H449.306V271.556H445.99V280.765H443.715ZM450.365 275.36V272.93H452.85V275.36H450.365ZM450.365 280.718V278.295H452.85V280.718H450.365Z" fill="#E21C3D"/>
<path d="M463.172 280.92C462.163 280.92 461.301 280.69 460.586 280.229C459.877 279.768 459.334 279.106 458.956 278.241C458.583 277.377 458.397 276.334 458.397 275.112C458.397 273.895 458.583 272.86 458.956 272.006C459.328 271.152 459.869 270.502 460.579 270.057C461.293 269.607 462.157 269.382 463.172 269.382C463.964 269.382 464.665 269.547 465.276 269.879C465.887 270.205 466.379 270.642 466.751 271.191C467.124 271.739 467.344 272.343 467.411 273H465.882C465.799 272.56 465.641 272.161 465.408 271.804C465.175 271.447 464.87 271.162 464.492 270.95C464.114 270.738 463.661 270.632 463.133 270.632C462.455 270.632 461.88 270.792 461.409 271.113C460.943 271.429 460.589 271.918 460.346 272.581C460.107 273.243 459.988 274.092 459.988 275.127C459.988 276.691 460.255 277.84 460.788 278.575C461.327 279.305 462.108 279.67 463.133 279.67C463.661 279.67 464.114 279.559 464.492 279.336C464.87 279.113 465.175 278.816 465.408 278.443C465.641 278.07 465.799 277.667 465.882 277.232H467.411C467.355 277.708 467.225 278.169 467.023 278.614C466.827 279.054 466.555 279.447 466.208 279.794C465.861 280.141 465.434 280.415 464.927 280.617C464.425 280.819 463.84 280.92 463.172 280.92ZM469.438 280.765V272.736H470.804V274.281C470.939 273.898 471.128 273.582 471.371 273.334C471.614 273.08 471.891 272.891 472.202 272.767C472.518 272.643 472.844 272.581 473.18 272.581C473.299 272.581 473.416 272.588 473.53 272.604C473.644 272.619 473.732 272.645 473.794 272.682V274.071C473.716 274.035 473.615 274.012 473.491 274.002C473.372 273.986 473.271 273.978 473.188 273.978C472.867 273.958 472.567 273.978 472.287 274.04C472.008 274.097 471.762 274.198 471.55 274.343C471.337 274.488 471.169 274.68 471.045 274.918C470.926 275.151 470.866 275.435 470.866 275.772V280.765H469.438ZM478.597 280.92C477.857 280.92 477.21 280.762 476.656 280.446C476.107 280.125 475.68 279.657 475.375 279.041C475.069 278.425 474.917 277.672 474.917 276.781C474.917 275.943 475.059 275.208 475.344 274.576C475.628 273.945 476.045 273.455 476.594 273.109C477.143 272.757 477.813 272.581 478.605 272.581C479.345 272.581 479.987 272.744 480.531 273.07C481.074 273.391 481.496 273.864 481.796 274.491C482.102 275.117 482.254 275.881 482.254 276.781C482.254 277.599 482.115 278.319 481.835 278.94C481.555 279.561 481.144 280.048 480.6 280.4C480.062 280.747 479.394 280.92 478.597 280.92ZM478.605 279.786C479.081 279.786 479.485 279.665 479.816 279.421C480.147 279.178 480.399 278.829 480.569 278.373C480.745 277.918 480.833 277.377 480.833 276.75C480.833 276.176 480.756 275.661 480.6 275.205C480.45 274.744 480.212 274.379 479.886 274.11C479.56 273.841 479.133 273.707 478.605 273.707C478.118 273.707 477.707 273.828 477.37 274.071C477.034 274.31 476.778 274.656 476.602 275.112C476.431 275.567 476.345 276.114 476.345 276.75C476.345 277.315 476.42 277.827 476.571 278.288C476.726 278.748 476.969 279.113 477.3 279.383C477.637 279.652 478.072 279.786 478.605 279.786ZM484.163 283.265V272.736H485.592L485.608 274.134C485.701 273.968 485.82 273.795 485.965 273.613C486.115 273.432 486.296 273.264 486.508 273.109C486.726 272.953 486.977 272.827 487.261 272.728C487.551 272.63 487.88 272.581 488.248 272.581C488.889 272.581 489.454 272.728 489.94 273.023C490.432 273.313 490.815 273.758 491.089 274.359C491.364 274.959 491.501 275.72 491.501 276.642C491.501 277.563 491.366 278.342 491.097 278.979C490.833 279.61 490.45 280.092 489.948 280.423C489.446 280.754 488.84 280.92 488.131 280.92C487.774 280.92 487.456 280.868 487.176 280.765C486.902 280.666 486.661 280.537 486.454 280.376C486.252 280.211 486.081 280.035 485.941 279.848C485.807 279.662 485.696 279.483 485.608 279.313V283.265H484.163ZM487.859 279.802C488.522 279.802 489.063 279.551 489.482 279.049C489.901 278.541 490.111 277.755 490.111 276.688C490.111 275.772 489.92 275.045 489.536 274.506C489.153 273.968 488.594 273.699 487.859 273.699C487.114 273.699 486.55 273.976 486.167 274.53C485.784 275.078 485.592 275.798 485.592 276.688C485.592 277.263 485.677 277.786 485.848 278.257C486.019 278.728 486.273 279.103 486.609 279.383C486.946 279.662 487.362 279.802 487.859 279.802ZM500.042 280.803C499.488 280.803 499.059 280.728 498.753 280.578C498.448 280.428 498.233 280.206 498.109 279.911C497.99 279.615 497.93 279.253 497.93 278.823V273.784H496.626V272.736H497.969L498.318 270.399H499.374V272.728H501.184V273.784H499.374V278.777C499.374 279.062 499.403 279.271 499.46 279.406C499.522 279.535 499.623 279.618 499.763 279.654C499.902 279.691 500.099 279.709 500.353 279.709H501.23V280.671C501.132 280.708 500.982 280.739 500.78 280.765C500.583 280.791 500.337 280.803 500.042 280.803ZM503.135 280.765V269.226H504.533V273.916C504.667 273.694 504.849 273.487 505.076 273.295C505.304 273.098 505.581 272.94 505.907 272.821C506.233 272.697 506.611 272.635 507.041 272.635C507.564 272.635 508.037 272.733 508.462 272.93C508.886 273.122 509.223 273.396 509.471 273.753C509.72 274.11 509.844 274.535 509.844 275.027V280.765H508.407V275.314C508.407 274.832 508.242 274.462 507.911 274.203C507.584 273.939 507.157 273.807 506.629 273.807C506.272 273.807 505.936 273.867 505.62 273.986C505.304 274.1 505.048 274.276 504.851 274.514C504.66 274.747 504.564 275.045 504.564 275.407V280.765H503.135ZM515.476 280.92C514.731 280.92 514.073 280.757 513.504 280.431C512.934 280.105 512.489 279.636 512.168 279.025C511.847 278.415 511.687 277.682 511.687 276.828C511.687 275.984 511.832 275.244 512.122 274.607C512.412 273.971 512.831 273.474 513.38 273.116C513.933 272.759 514.599 272.581 515.375 272.581C516.131 272.581 516.77 272.744 517.293 273.07C517.816 273.396 518.212 273.857 518.481 274.452C518.755 275.042 518.893 275.743 518.893 276.556V277.084H513.139C513.139 277.591 513.222 278.052 513.387 278.466C513.558 278.875 513.814 279.201 514.156 279.445C514.498 279.688 514.93 279.81 515.453 279.81C515.965 279.81 516.405 279.691 516.773 279.452C517.145 279.214 517.384 278.87 517.487 278.42H518.838C518.745 278.963 518.528 279.421 518.186 279.794C517.849 280.167 517.443 280.449 516.967 280.64C516.496 280.827 515.999 280.92 515.476 280.92ZM513.147 276.114H517.51C517.51 275.653 517.433 275.239 517.277 274.871C517.122 274.499 516.884 274.206 516.563 273.994C516.247 273.776 515.849 273.668 515.367 273.668C514.865 273.668 514.449 273.789 514.117 274.033C513.786 274.271 513.54 274.579 513.38 274.957C513.219 275.329 513.141 275.715 513.147 276.114ZM527.76 280.92C527.015 280.92 526.357 280.757 525.788 280.431C525.218 280.105 524.773 279.636 524.452 279.025C524.131 278.415 523.971 277.682 523.971 276.828C523.971 275.984 524.116 275.244 524.406 274.607C524.696 273.971 525.115 273.474 525.664 273.116C526.217 272.759 526.883 272.581 527.659 272.581C528.415 272.581 529.054 272.744 529.577 273.07C530.1 273.396 530.496 273.857 530.765 274.452C531.039 275.042 531.176 275.743 531.176 276.556V277.084H525.423C525.423 277.591 525.506 278.052 525.671 278.466C525.842 278.875 526.098 279.201 526.44 279.445C526.782 279.688 527.214 279.81 527.737 279.81C528.249 279.81 528.689 279.691 529.057 279.452C529.429 279.214 529.668 278.87 529.771 278.42H531.122C531.029 278.963 530.812 279.421 530.47 279.794C530.133 280.167 529.727 280.449 529.251 280.64C528.78 280.827 528.283 280.92 527.76 280.92ZM525.431 276.114H529.794C529.794 275.653 529.717 275.239 529.561 274.871C529.406 274.499 529.168 274.206 528.847 273.994C528.531 273.776 528.133 273.668 527.651 273.668C527.149 273.668 526.732 273.789 526.401 274.033C526.07 274.271 525.824 274.579 525.664 274.957C525.503 275.329 525.425 275.715 525.431 276.114ZM536.09 280.92C535.044 280.92 534.216 280.563 533.605 279.848C533 279.134 532.697 278.091 532.697 276.719C532.697 275.886 532.819 275.159 533.062 274.537C533.305 273.916 533.67 273.435 534.157 273.093C534.643 272.751 535.249 272.581 535.974 272.581C536.362 272.581 536.704 272.63 536.999 272.728C537.294 272.827 537.55 272.951 537.767 273.101C537.985 273.251 538.161 273.406 538.295 273.567C538.435 273.727 538.539 273.875 538.606 274.009V269.226H540.058V280.765H538.955L538.8 279.119C538.748 279.274 538.665 279.455 538.552 279.662C538.438 279.864 538.277 280.063 538.07 280.26C537.868 280.451 537.604 280.609 537.278 280.734C536.952 280.858 536.556 280.92 536.09 280.92ZM536.346 279.817C537.154 279.817 537.731 279.571 538.078 279.08C538.43 278.583 538.606 277.773 538.606 276.649C538.601 276.023 538.523 275.49 538.373 275.05C538.223 274.61 537.985 274.276 537.659 274.048C537.338 273.815 536.908 273.699 536.37 273.699C535.712 273.699 535.176 273.934 534.762 274.405C534.348 274.876 534.141 275.624 534.141 276.649C534.141 277.654 534.328 278.433 534.7 278.987C535.073 279.54 535.622 279.817 536.346 279.817ZM545.792 283.42C544.534 283.42 543.553 283.236 542.849 282.869C542.145 282.507 541.793 281.986 541.793 281.308C541.793 281.018 541.86 280.772 541.995 280.571C542.129 280.363 542.29 280.193 542.476 280.058C542.663 279.923 542.836 279.817 542.996 279.74C543.157 279.657 543.263 279.597 543.315 279.561C543.222 279.509 543.11 279.445 542.981 279.367C542.851 279.289 542.735 279.186 542.631 279.056C542.533 278.927 542.484 278.759 542.484 278.552C542.484 278.298 542.603 278.065 542.841 277.853C543.079 277.641 543.434 277.483 543.905 277.379C543.434 277.141 543.066 276.825 542.802 276.432C542.538 276.039 542.406 275.611 542.406 275.151C542.406 274.633 542.546 274.183 542.826 273.8C543.105 273.417 543.506 273.124 544.029 272.922C544.552 272.715 545.176 272.612 545.9 272.612C546.423 272.612 546.861 272.674 547.213 272.798C547.57 272.917 547.901 273.088 548.207 273.311C548.289 273.274 548.421 273.22 548.603 273.147C548.784 273.07 548.98 272.987 549.193 272.899C549.41 272.811 549.612 272.728 549.798 272.651C549.99 272.568 550.143 272.506 550.256 272.464L550.249 273.792L548.843 274.056C548.926 274.222 548.991 274.403 549.037 274.599C549.084 274.796 549.107 274.98 549.107 275.151C549.107 275.622 548.983 276.049 548.735 276.432C548.491 276.815 548.121 277.12 547.624 277.348C547.127 277.576 546.506 277.69 545.761 277.69C545.699 277.69 545.618 277.69 545.52 277.69C545.427 277.685 545.347 277.679 545.279 277.674C544.731 277.69 544.353 277.752 544.146 277.861C543.944 277.964 543.843 278.081 543.843 278.21C543.843 278.36 543.959 278.464 544.192 278.521C544.425 278.578 544.819 278.627 545.372 278.668C545.574 278.679 545.823 278.691 546.118 278.707C546.418 278.723 546.752 278.743 547.119 278.769C547.958 278.821 548.605 279.036 549.061 279.414C549.516 279.791 549.744 280.301 549.744 280.943C549.744 281.673 549.418 282.268 548.766 282.729C548.119 283.19 547.127 283.42 545.792 283.42ZM546.048 282.496C546.788 282.496 547.355 282.385 547.748 282.162C548.147 281.94 548.346 281.603 548.346 281.153C548.346 280.832 548.225 280.571 547.981 280.369C547.738 280.162 547.371 280.043 546.879 280.011L544.627 279.864C544.425 279.854 544.215 279.905 543.998 280.019C543.781 280.128 543.597 280.281 543.447 280.477C543.297 280.674 543.222 280.897 543.222 281.145C543.222 281.57 543.452 281.901 543.913 282.139C544.373 282.377 545.085 282.496 546.048 282.496ZM545.807 276.766C546.382 276.766 546.845 276.631 547.197 276.362C547.554 276.093 547.733 275.694 547.733 275.166C547.733 274.623 547.554 274.209 547.197 273.924C546.845 273.639 546.382 273.497 545.807 273.497C545.217 273.497 544.741 273.642 544.379 273.932C544.021 274.216 543.843 274.628 543.843 275.166C543.843 275.674 544.014 276.067 544.355 276.347C544.702 276.626 545.186 276.766 545.807 276.766ZM555.209 280.92C554.464 280.92 553.807 280.757 553.237 280.431C552.668 280.105 552.223 279.636 551.902 279.025C551.581 278.415 551.42 277.682 551.42 276.828C551.42 275.984 551.565 275.244 551.855 274.607C552.145 273.971 552.564 273.474 553.113 273.116C553.667 272.759 554.332 272.581 555.109 272.581C555.864 272.581 556.504 272.744 557.026 273.07C557.549 273.396 557.945 273.857 558.214 274.452C558.489 275.042 558.626 275.743 558.626 276.556V277.084H552.872C552.872 277.591 552.955 278.052 553.121 278.466C553.292 278.875 553.548 279.201 553.889 279.445C554.231 279.688 554.663 279.81 555.186 279.81C555.699 279.81 556.139 279.691 556.506 279.452C556.879 279.214 557.117 278.87 557.221 278.42H558.572C558.478 278.963 558.261 279.421 557.919 279.794C557.583 280.167 557.177 280.449 556.7 280.64C556.229 280.827 555.732 280.92 555.209 280.92ZM552.88 276.114H557.244C557.244 275.653 557.166 275.239 557.011 274.871C556.856 274.499 556.617 274.206 556.297 273.994C555.981 273.776 555.582 273.668 555.101 273.668C554.599 273.668 554.182 273.789 553.851 274.033C553.519 274.271 553.273 274.579 553.113 274.957C552.953 275.329 552.875 275.715 552.88 276.114ZM563.455 280.92C562.896 280.92 562.376 280.835 561.894 280.664C561.418 280.488 561.022 280.216 560.706 279.848C560.391 279.476 560.194 279.002 560.116 278.427H561.421C561.488 278.743 561.618 279.007 561.809 279.219C562.001 279.427 562.236 279.584 562.516 279.693C562.8 279.797 563.111 279.848 563.447 279.848C563.991 279.848 564.428 279.747 564.76 279.546C565.091 279.344 565.257 279.033 565.257 278.614C565.257 278.319 565.169 278.083 564.993 277.907C564.822 277.726 564.553 277.594 564.185 277.511L562.523 277.1C561.876 276.944 561.359 276.701 560.97 276.37C560.587 276.039 560.393 275.575 560.388 274.98C560.388 274.509 560.502 274.095 560.73 273.738C560.958 273.38 561.297 273.098 561.747 272.891C562.202 272.684 562.769 272.581 563.447 272.581C564.322 272.581 565.026 272.777 565.559 273.171C566.093 273.559 566.372 274.131 566.398 274.887H565.125C565.073 274.504 564.902 274.201 564.612 273.978C564.322 273.751 563.929 273.637 563.432 273.637C562.925 273.637 562.508 273.74 562.182 273.947C561.861 274.149 561.7 274.465 561.7 274.895C561.7 275.179 561.814 275.404 562.042 275.57C562.275 275.731 562.611 275.865 563.051 275.974L564.666 276.378C565.034 276.476 565.339 276.605 565.583 276.766C565.826 276.926 566.018 277.105 566.157 277.302C566.297 277.498 566.395 277.705 566.452 277.923C566.514 278.135 566.546 278.339 566.546 278.536C566.546 279.028 566.424 279.452 566.181 279.81C565.937 280.162 565.585 280.436 565.125 280.633C564.664 280.824 564.107 280.92 563.455 280.92ZM575.155 280.92C574.415 280.92 573.768 280.762 573.214 280.446C572.665 280.125 572.238 279.657 571.933 279.041C571.628 278.425 571.475 277.672 571.475 276.781C571.475 275.943 571.617 275.208 571.902 274.576C572.187 273.945 572.603 273.455 573.152 273.109C573.701 272.757 574.371 272.581 575.163 272.581C575.903 272.581 576.545 272.744 577.089 273.07C577.632 273.391 578.054 273.864 578.354 274.491C578.66 275.117 578.813 275.881 578.813 276.781C578.813 277.599 578.673 278.319 578.393 278.94C578.114 279.561 577.702 280.048 577.159 280.4C576.62 280.747 575.953 280.92 575.155 280.92ZM575.163 279.786C575.639 279.786 576.043 279.665 576.374 279.421C576.706 279.178 576.957 278.829 577.128 278.373C577.304 277.918 577.392 277.377 577.392 276.75C577.392 276.176 577.314 275.661 577.159 275.205C577.009 274.744 576.77 274.379 576.444 274.11C576.118 273.841 575.691 273.707 575.163 273.707C574.677 273.707 574.265 273.828 573.929 274.071C573.592 274.31 573.336 274.656 573.16 275.112C572.989 275.567 572.904 276.114 572.904 276.75C572.904 277.315 572.979 277.827 573.129 278.288C573.284 278.748 573.527 279.113 573.859 279.383C574.195 279.652 574.63 279.786 575.163 279.786ZM581.475 280.765V273.784H579.774V272.736H581.475V271.494C581.475 270.857 581.635 270.373 581.956 270.042C582.282 269.705 582.769 269.537 583.416 269.537H584.93L584.938 270.554H583.742C583.411 270.554 583.185 270.642 583.066 270.818C582.947 270.994 582.888 271.261 582.888 271.618V272.736H584.86V273.784H582.911V280.765H581.475ZM591.03 283.327C590.559 283.327 590.235 283.293 590.059 283.226C589.883 283.159 589.795 283.125 589.795 283.125V282.193L590.619 282.209C590.914 282.219 591.159 282.199 591.356 282.147C591.553 282.095 591.711 282.025 591.83 281.937C591.949 281.849 592.039 281.751 592.102 281.642C592.169 281.533 592.223 281.43 592.265 281.331L592.544 280.571L589.407 272.736H590.859L593.227 278.932L595.58 272.736H596.986L593.608 281.37C593.396 281.878 593.16 282.274 592.901 282.558C592.648 282.843 592.363 283.042 592.047 283.156C591.737 283.27 591.398 283.327 591.03 283.327ZM601.604 280.92C600.864 280.92 600.217 280.762 599.663 280.446C599.114 280.125 598.687 279.657 598.382 279.041C598.076 278.425 597.923 277.672 597.923 276.781C597.923 275.943 598.066 275.208 598.35 274.576C598.635 273.945 599.052 273.455 599.601 273.109C600.149 272.757 600.82 272.581 601.612 272.581C602.352 272.581 602.994 272.744 603.537 273.07C604.081 273.391 604.503 273.864 604.803 274.491C605.108 275.117 605.261 275.881 605.261 276.781C605.261 277.599 605.121 278.319 604.842 278.94C604.562 279.561 604.151 280.048 603.607 280.4C603.069 280.747 602.401 280.92 601.604 280.92ZM601.612 279.786C602.088 279.786 602.492 279.665 602.823 279.421C603.154 279.178 603.405 278.829 603.576 278.373C603.752 277.918 603.84 277.377 603.84 276.75C603.84 276.176 603.762 275.661 603.607 275.205C603.457 274.744 603.219 274.379 602.893 274.11C602.567 273.841 602.14 273.707 601.612 273.707C601.125 273.707 600.714 273.828 600.377 274.071C600.041 274.31 599.784 274.656 599.608 275.112C599.438 275.567 599.352 276.114 599.352 276.75C599.352 277.315 599.427 277.827 599.577 278.288C599.733 278.748 599.976 279.113 600.307 279.383C600.644 279.652 601.078 279.786 601.612 279.786ZM610.09 280.92C609.671 280.915 609.275 280.855 608.902 280.741C608.535 280.622 608.209 280.449 607.924 280.221C607.639 279.993 607.414 279.711 607.248 279.375C607.088 279.033 607.008 278.637 607.008 278.187V272.736H608.444V278.039C608.444 278.562 608.605 278.987 608.926 279.313C609.252 279.639 609.741 279.802 610.393 279.802C610.983 279.802 611.457 279.649 611.814 279.344C612.176 279.033 612.358 278.572 612.358 277.962V272.736H613.786V280.765H612.645L612.497 279.227C612.399 279.631 612.231 279.957 611.993 280.206C611.76 280.454 611.478 280.638 611.146 280.757C610.82 280.871 610.468 280.925 610.09 280.92ZM616.239 280.765V272.736H617.606V274.281C617.74 273.898 617.929 273.582 618.172 273.334C618.416 273.08 618.693 272.891 619.003 272.767C619.319 272.643 619.645 272.581 619.982 272.581C620.101 272.581 620.217 272.588 620.331 272.604C620.445 272.619 620.533 272.645 620.595 272.682V274.071C620.517 274.035 620.416 274.012 620.292 274.002C620.173 273.986 620.072 273.978 619.989 273.978C619.668 273.958 619.368 273.978 619.089 274.04C618.809 274.097 618.563 274.198 618.351 274.343C618.139 274.488 617.971 274.68 617.846 274.918C617.727 275.151 617.668 275.435 617.668 275.772V280.765H616.239ZM626.376 280.765V269.537H627.813V280.765H626.376ZM630.774 280.765V269.537C630.811 269.537 630.919 269.539 631.101 269.545C631.287 269.545 631.512 269.545 631.776 269.545C632.04 269.539 632.314 269.539 632.599 269.545C632.884 269.545 633.145 269.547 633.383 269.552C634.76 269.573 635.876 269.798 636.73 270.228C637.589 270.652 638.218 271.271 638.617 272.084C639.021 272.896 639.222 273.895 639.222 275.081C639.222 276.323 639.005 277.366 638.57 278.21C638.141 279.054 637.483 279.691 636.598 280.12C635.718 280.55 634.597 280.765 633.236 280.765H630.774ZM632.25 279.53H633.236C634.162 279.53 634.96 279.388 635.627 279.103C636.295 278.813 636.808 278.345 637.165 277.698C637.527 277.051 637.708 276.186 637.708 275.104C637.708 274.022 637.532 273.166 637.18 272.534C636.833 271.903 636.331 271.452 635.674 271.183C635.017 270.909 634.225 270.771 633.298 270.771H632.25V279.53Z" fill="#454545"/>
</g>
<rect x="16" y="16" width="692" height="284" stroke="#F2F9FF" stroke-width="32"/>
<defs>
<clipPath id="clip0_55_216">
<rect x="32" y="32" width="660" height="252" fill="white"/>
</clipPath>
<clipPath id="clip1_55_216">
<path d="M32 32H346.47V256.622H32V32Z" fill="white"/>
</clipPath>
<clipPath id="clip2_55_216">
<path d="M377.529 32H691.529V256H377.529V32Z" fill="white"/>
</clipPath>
</defs>
</svg>
