<svg width="1400" height="718" viewBox="0 0 1400 718" fill="none" xmlns="http://www.w3.org/2000/svg">
<rect width="1400" height="718" fill="black"/>
<path d="M466.552 378.249V270H440V379.752C440 421.097 469.081 448.41 507.012 448.41C525.472 448.41 541.909 441.394 553.794 429.116V445.403H580.093V270H553.541V378.249C553.541 406.063 534.575 424.856 510.046 424.856C485.265 424.856 466.552 406.564 466.552 378.249Z" fill="white"/>
<path d="M600.928 445.403H626.216V429.366C637.848 441.143 654.285 448.41 672.239 448.41C710.17 448.41 740.01 418.591 740.01 381.757C740.01 344.672 710.17 314.853 672.239 314.853C654.285 314.853 638.101 322.12 626.469 333.897V270H600.928V445.403ZM625.963 381.757C625.963 356.95 645.94 337.405 670.469 337.405C694.745 337.405 714.722 356.95 714.722 381.757C714.722 406.313 694.745 426.109 670.469 426.109C645.687 426.109 625.963 406.313 625.963 381.757Z" fill="white"/>
<path d="M749.89 381.506C749.89 419.594 779.729 448.159 818.419 448.159C841.937 448.159 861.155 437.886 874.052 420.847L855.592 407.315C845.983 420.095 833.339 426.109 818.419 426.109C796.672 426.109 779.224 410.573 775.683 389.775H880.627V381.506C880.627 343.419 853.316 315.104 816.143 315.104C778.465 315.104 749.89 345.423 749.89 381.506ZM815.638 337.154C834.603 337.154 850.534 350.184 854.833 369.729H776.189C780.741 350.184 796.672 337.154 815.638 337.154Z" fill="white"/>
<path d="M960.362 340.161V316.607H951.511C937.35 316.607 926.983 323.122 920.661 333.396V317.609H895.373V445.403H920.913V372.736C920.913 352.941 933.052 340.161 949.741 340.161H960.362Z" fill="white"/>
</svg>
