<svg width="1440" height="648" viewBox="0 0 1440 648" fill="none" xmlns="http://www.w3.org/2000/svg">
<rect width="1440" height="648" fill="black"/>
<path d="M435.861 277.483C443.908 241.523 453.879 201.796 460.276 183.355C471.5 151 482.476 138.235 505.006 138.235C525.005 138.235 525.003 157.297 525.001 175.04L525.001 175.575C525.001 195.023 520.64 204.358 509.668 204.358C491.022 204.358 496.46 183.355 507.337 175.575C518.103 167.875 526.76 141.347 505.006 141.347C489.468 141.347 477.5 149 466.161 183.355C456.889 211.444 440.005 283.447 433.53 316.379H428.869H427.315L377.118 173.122C375.088 183.44 372.953 193.918 370.712 204.554C368.213 216.971 365.639 229.165 362.993 241.139C360.346 252.964 357.625 263.976 354.832 274.176C352.038 284.375 349.244 293.244 346.45 300.783C343.656 308.174 340.936 313.643 338.289 317.19C335.643 320.738 332.481 323.916 328.805 326.725C325.276 329.681 320.571 331.159 314.689 331.159C309.542 331.159 306.087 329.977 304.322 327.612C302.411 325.394 301.455 322.734 301.455 319.629C301.455 315.934 302.558 312.386 304.764 308.987C306.969 305.587 310.204 303.887 314.468 303.887C317.85 303.887 320.056 304.848 321.085 306.769C322.262 308.691 322.85 310.613 322.85 312.534C322.85 315.047 322.115 317.56 320.644 320.073C319.321 322.586 317.703 324.729 315.792 326.503H316.453C320.424 326.355 323.879 325.247 326.82 323.177C329.908 321.255 332.555 318.521 334.76 314.973C339.025 308.174 343.289 297.531 347.553 283.045C351.964 268.559 356.376 251.042 360.787 230.496C364.192 215.148 367.597 198.686 371.002 181.11L370.933 181.273C372.109 175.804 372.477 171.813 372.036 169.3C371.742 166.639 370.271 164.865 367.624 163.978C365.125 162.943 361.007 162.352 355.273 162.204L356.376 157.77C358.728 157.918 361.596 158.066 364.978 158.213C368.507 158.361 372.183 158.435 376.006 158.435C382.917 158.435 390.426 158.213 395.425 157.77L435.861 277.483Z" fill="#E6DCD1"/>
<path d="M360.523 236.408L349.635 277.982C349.606 277.716 349.574 277.444 349.533 277.165C349.14 274.464 348.187 271.189 346.676 267.339L330.685 224.648H267.68L257.048 252.241C254.269 259.183 252.618 265.083 252.097 269.942C251.576 274.628 252.01 278.359 253.399 281.136C254.963 283.912 257.482 285.907 260.956 287.122C264.604 288.337 269.119 289.032 274.504 289.205V294.411C269.64 294.064 264.516 293.891 259.132 293.891C253.921 293.717 249.057 293.63 244.541 293.63C240.199 293.63 236.464 293.717 233.338 293.891C230.385 293.891 227.605 294.064 225 294.411V289.205C228.474 288.337 232.035 286.341 235.683 283.218C239.33 279.921 242.63 274.367 245.583 266.558L306.812 108.811H310.98L360.523 236.408ZM269.686 219.442H328.734L299.626 141.734L269.686 219.442Z" fill="#E6DCD1"/>
<path fill-rule="evenodd" clip-rule="evenodd" d="M580.5 114.158H702.546V128.835H693.908C688.059 128.835 684.571 135.367 687.815 140.243L769.061 262.369V143.511C769.061 135.405 762.504 128.835 754.416 128.835H745.873V114.158H806.896V128.835H798.353C790.264 128.835 783.707 135.405 783.707 143.511V264.59C783.707 272.696 790.264 279.267 798.353 279.267H806.896V293.943H684.85V279.267H698.659C702.558 279.267 704.884 274.912 702.721 271.661L690.084 252.666H618.945V264.59C618.945 272.696 625.502 279.267 633.59 279.267H641.523V293.943H580.5V279.267H589.653C597.742 279.267 604.299 272.696 604.299 264.59V143.511C604.299 135.405 597.742 128.835 589.653 128.835H580.5V114.158ZM718.136 268.375C722.663 275.179 730.285 279.267 738.446 279.267H753.58C757.479 279.267 759.804 274.912 757.642 271.661L673.865 145.733V201.829L718.136 268.375ZM625.304 128.835L644.311 128.492C652.501 128.344 659.22 134.957 659.22 143.166V179.814L625.304 128.835ZM680.32 237.99H618.945V145.733L680.32 237.99Z" fill="#E6DCD1"/>
<path fill-rule="evenodd" clip-rule="evenodd" d="M939.572 288.536L1004.68 116.684L1011.06 119.778L945.956 291.63L939.572 288.536Z" fill="#E6DCD1"/>
<path fill-rule="evenodd" clip-rule="evenodd" d="M932.871 288.536L997.979 116.684L1004.36 119.778L939.254 291.63L932.871 288.536Z" fill="#E6DCD1"/>
<path fill-rule="evenodd" clip-rule="evenodd" d="M1075.86 288.57L1011.35 116.684L1004.93 119.744L1069.43 291.63L1075.86 288.57Z" fill="#E6DCD1"/>
<path fill-rule="evenodd" clip-rule="evenodd" d="M1168.01 288.502L1085.33 116.054L1079.21 119.815L1161.89 292.263L1168.01 288.502Z" fill="#E6DCD1"/>
<path d="M979.229 290.369H923.377C923.377 290.369 947.365 274.68 960.109 243.729C960.73 242.012 961.32 240.486 961.847 239.211C961.296 240.752 960.715 242.258 960.109 243.729C956.819 252.836 952.684 267.311 952.684 278.071C952.684 287.122 959.665 290.369 979.229 290.369Z" fill="#E6DCD1"/>
<path fill-rule="evenodd" clip-rule="evenodd" d="M956.94 241.93C950.83 256.775 942.014 268.017 934.676 275.571C931.007 279.348 927.729 282.181 925.381 284.06C924.208 284.999 923.27 285.699 922.634 286.157C922.316 286.387 922.074 286.555 921.916 286.664C921.837 286.718 921.779 286.757 921.744 286.781L921.705 286.807L921.703 286.808C921.703 286.808 921.703 286.808 921.706 286.813L923.454 294.157H979.231V286.275C969.465 286.275 963.462 285.433 959.975 283.812C958.32 283.043 957.464 282.199 956.99 281.418C956.525 280.651 956.207 279.583 956.207 277.9C956.207 267.963 960.084 254.121 963.334 245.078C963.951 243.572 964.543 242.031 965.105 240.455L958.712 237.315C958.168 238.637 957.567 240.195 956.94 241.93ZM951.493 286.275C951.407 286.145 951.323 286.013 951.242 285.879C949.789 283.486 949.235 280.749 949.235 277.9C949.235 275.063 949.497 272.015 949.94 268.895C946.345 273.8 942.703 277.968 939.37 281.399C937.591 283.23 935.897 284.855 934.338 286.275H951.493Z" fill="#E6DCD1"/>
<path d="M972.526 290.369H916.674C916.674 290.369 940.662 274.68 953.406 243.729C954.027 242.012 954.617 240.486 955.144 239.211C954.593 240.752 954.012 242.258 953.406 243.729C950.116 252.836 945.981 267.311 945.981 278.071C945.981 287.122 952.962 290.369 972.526 290.369Z" fill="#E6DCD1"/>
<path fill-rule="evenodd" clip-rule="evenodd" d="M950.237 241.93C944.127 256.775 935.311 268.017 927.973 275.571C924.304 279.348 921.026 282.181 918.678 284.06C917.505 284.999 916.567 285.699 915.931 286.157C915.613 286.387 915.371 286.555 915.213 286.664C915.134 286.718 915.076 286.757 915.041 286.781L915.002 286.807L915 286.808C915 286.808 915 286.808 915.003 286.813L916.751 294.157H972.528V286.275C962.762 286.275 956.759 285.433 953.272 283.812C951.617 283.043 950.761 282.199 950.287 281.418C949.822 280.651 949.504 279.583 949.504 277.9C949.504 267.963 953.381 254.121 956.631 245.078C957.248 243.572 957.84 242.031 958.402 240.455L952.009 237.315C951.465 238.637 950.864 240.195 950.237 241.93ZM944.79 286.275C944.704 286.145 944.62 286.013 944.539 285.879C943.086 283.486 942.532 280.749 942.532 277.9C942.532 275.063 942.793 272.015 943.237 268.895C939.642 273.8 936 277.968 932.667 281.399C930.888 283.23 929.194 284.855 927.635 286.275H944.79Z" fill="#E6DCD1"/>
<path d="M1035.64 290.368H1102.1C1102.1 290.368 1086.46 290.368 1081.25 282.085C1078.05 276.499 1075.31 257.769 1074.1 248.338C1073.81 245.106 1073.43 242.814 1073.43 242.814C1073.43 242.814 1073.67 244.99 1074.1 248.338C1074.76 255.626 1074.99 267.695 1069.51 269.068C1064.71 270.272 1061.54 263.74 1058.83 255.684C1057.24 249.335 1055.35 243.606 1053.81 239.842C1055.51 244.644 1057.08 250.482 1058.83 255.684C1060.65 262.981 1062.07 271.097 1062.07 277.984C1062.07 287.099 1050.77 290.368 1035.64 290.368Z" fill="#E6DCD1"/>
<path fill-rule="evenodd" clip-rule="evenodd" d="M1055.53 257.152C1054.72 254.772 1053.96 252.275 1053.22 249.874C1053.15 249.651 1053.08 249.429 1053.02 249.208C1052.19 246.516 1051.4 243.974 1050.59 241.702L1056.96 238.578C1058.58 242.486 1060.51 248.286 1062.13 254.666C1063.45 258.538 1064.75 261.601 1066.11 263.534C1067.44 265.428 1068.22 265.463 1068.77 265.326C1068.95 265.28 1069.25 265.153 1069.63 264.411C1070.06 263.591 1070.43 262.294 1070.67 260.507C1071.15 256.977 1070.97 252.624 1070.65 249.127C1070.44 247.491 1070.27 246.138 1070.16 245.189C1070.1 244.706 1070.06 244.327 1070.03 244.067C1070.01 243.938 1070 243.838 1070 243.769L1069.98 243.663C1069.98 243.663 1069.98 243.662 1073.43 243.176L1069.98 243.663L1076.85 242.454L1073.43 243.176C1076.85 242.454 1076.85 242.454 1076.85 242.454L1076.85 242.459L1076.85 242.467L1076.85 242.494L1076.87 242.586C1076.88 242.664 1076.9 242.776 1076.92 242.918C1076.96 243.202 1077.02 243.609 1077.09 244.118C1077.23 245.118 1077.4 246.518 1077.55 248.156C1078.15 252.786 1079.12 259.613 1080.33 265.944C1080.93 269.131 1081.59 272.136 1082.27 274.647C1082.96 277.182 1083.61 278.907 1084.12 279.821C1084.96 281.103 1086.32 282.251 1088.17 283.22C1090.04 284.198 1092.19 284.889 1094.31 285.364C1096.41 285.837 1098.38 286.076 1099.83 286.196C1100.55 286.256 1101.14 286.285 1101.53 286.3C1101.73 286.307 1101.88 286.31 1101.98 286.312C1102.03 286.313 1102.06 286.313 1102.08 286.313L1102.1 286.314H1102.1C1102.1 286.314 1102.1 286.314 1102.1 290.235V294.157H1102.1L1102.1 294.157L1035.64 294.157V286.314C1043.08 286.314 1049.2 285.505 1053.34 283.805C1057.49 282.102 1058.59 280.049 1058.59 277.98C1058.59 271.734 1057.29 264.171 1055.53 257.152ZM1065.3 272.552C1066.75 273.212 1068.41 273.446 1070.26 272.987C1071.85 272.591 1073.13 271.709 1074.13 270.589C1074.59 272.837 1075.1 275.001 1075.63 276.955C1076.37 279.676 1077.26 282.317 1078.34 284.186L1078.38 284.256L1078.43 284.325C1078.89 285.045 1079.39 285.706 1079.94 286.314H1062.66C1064.43 284.164 1065.54 281.425 1065.54 277.98C1065.54 276.223 1065.45 274.404 1065.3 272.552Z" fill="#E6DCD1"/>
<path d="M1119.98 117.949H1047.37C1047.37 117.949 1062.18 118.845 1067.68 126.78C1072.44 133.637 1073.73 146.395 1073.73 166.512H1079.35C1079.35 151.301 1078.05 139.397 1085.4 137.563C1089.08 136.646 1092.76 141.059 1096.34 147.357C1098.33 151.735 1101.03 156.846 1104.2 163.419C1105 165.163 1105.8 166.865 1106.58 168.475C1105.76 166.696 1104.97 165.014 1104.2 163.419C1101.68 157.981 1099.04 152.128 1096.34 147.357C1092.94 139.893 1091.61 134.56 1093.61 127.749C1096.49 117.949 1104.92 117.949 1119.98 117.949Z" fill="#E6DCD1"/>
<path fill-rule="evenodd" clip-rule="evenodd" d="M1070.02 171.001H1082.62V167.046C1082.62 164.774 1082.59 162.641 1082.57 160.643C1082.51 155.575 1082.46 151.369 1082.86 147.925C1083.13 145.594 1083.57 144.109 1084.08 143.196C1084.51 142.44 1085.03 141.974 1085.97 141.74C1086.27 141.664 1087.03 141.657 1088.5 143.09C1089.92 144.479 1091.5 146.739 1093.2 149.732C1094.33 152.2 1095.72 154.989 1097.26 158.078C1098.45 160.475 1099.73 163.051 1101.05 165.797C1101.86 167.551 1102.67 169.283 1103.47 170.93L1109.59 167.191C1108.76 165.385 1107.96 163.678 1107.18 162.06C1106.91 161.477 1106.64 160.886 1106.36 160.289C1104.13 155.428 1101.71 150.178 1099.23 145.766C1096.03 138.697 1095.22 134.552 1096.78 129.24C1097.33 127.353 1098.08 126.15 1098.96 125.296C1099.87 124.415 1101.13 123.707 1102.97 123.187C1106.84 122.097 1112.23 122.069 1119.98 122.069V114.159L1119.55 114.159C1119.26 114.159 1118.98 114.159 1118.69 114.159H1047L1046.81 122.024C1046.81 122.064 1046.81 122.064 1046.81 122.064L1046.81 122.064L1046.83 122.065C1046.85 122.066 1046.88 122.069 1046.93 122.072C1047.02 122.079 1047.16 122.091 1047.35 122.11C1047.73 122.146 1048.29 122.207 1048.98 122.305C1050.37 122.501 1052.26 122.84 1054.31 123.408C1058.62 124.604 1062.69 126.581 1064.68 129.459C1066.54 132.142 1067.93 136.306 1068.81 142.64C1069.69 148.935 1070.02 156.965 1070.02 167.046V171.001ZM1068.02 122.069H1092.21C1091.36 123.444 1090.69 125.002 1090.18 126.739C1089.39 129.433 1089.05 131.943 1089.06 134.369C1087.66 133.806 1086.12 133.603 1084.48 134.014C1081.72 134.704 1079.64 136.43 1078.23 138.921C1077.14 140.865 1076.52 143.144 1076.16 145.477C1076.02 144.06 1075.86 142.701 1075.68 141.398C1074.72 134.51 1073.07 128.793 1070.14 124.567C1069.51 123.653 1068.8 122.823 1068.02 122.069Z" fill="#E6DCD1"/>
<path d="M1128.35 290.368H1184.21C1184.21 290.368 1157.52 273.666 1141.81 241.736C1145.13 249.76 1154.9 265.315 1154.9 278.087C1154.9 287.126 1147.92 290.368 1128.35 290.368Z" fill="#E6DCD1"/>
<path fill-rule="evenodd" clip-rule="evenodd" d="M1172.62 286.25H1156.17C1156.23 286.146 1156.3 286.041 1156.37 285.935C1157.83 283.549 1158.38 280.816 1158.38 277.974C1158.38 275.942 1158.17 273.88 1157.8 271.819C1160.86 275.274 1163.86 278.32 1166.66 280.952C1168.78 282.952 1170.79 284.719 1172.62 286.25ZM1128.35 286.25V294.157H1184.2L1185.88 286.746C1185.88 286.741 1185.88 286.741 1185.88 286.741L1185.88 286.74L1185.87 286.736L1185.83 286.708C1185.79 286.682 1185.72 286.639 1185.63 286.58C1185.45 286.463 1185.18 286.282 1184.82 286.037C1184.1 285.547 1183.03 284.804 1181.71 283.809C1179.05 281.82 1175.33 278.832 1171.12 274.873C1162.7 266.936 1152.43 255.186 1144.85 239.842L1138.65 243.456C1139.52 245.542 1140.77 248.052 1142.07 250.671C1142.12 250.765 1142.17 250.86 1142.21 250.954C1143.6 253.736 1145.09 256.739 1146.47 259.87C1149.3 266.252 1151.4 272.598 1151.4 277.974C1151.4 279.632 1151.09 280.678 1150.63 281.429C1150.16 282.198 1149.3 283.036 1147.64 283.802C1144.15 285.415 1138.13 286.25 1128.35 286.25Z" fill="#E6DCD1"/>
<path fill-rule="evenodd" clip-rule="evenodd" d="M1187 121.737H968.619V114.158H1187V121.737Z" fill="#E6DCD1"/>
<path fill-rule="evenodd" clip-rule="evenodd" d="M1048.18 226.958L992.471 226.958L995.654 219.758L1048.18 219.758L1048.18 226.958Z" fill="#E6DCD1"/>
<path fill-rule="evenodd" clip-rule="evenodd" d="M1069.71 290.368L1069.71 117.947L1076.97 117.947L1076.97 290.368L1069.71 290.368Z" fill="#E6DCD1"/>
<path fill-rule="evenodd" clip-rule="evenodd" d="M1075.85 290.368L1075.85 117.947L1082.55 117.947L1082.55 290.368L1075.85 290.368Z" fill="#E6DCD1"/>
<path d="M1161.93 157.737C1161.93 129.486 1176.04 119.439 1183.09 117.947H1141.21C1156.06 117.947 1161.21 144.473 1161.93 157.737Z" fill="#E6DCD1"/>
<path fill-rule="evenodd" clip-rule="evenodd" d="M1161.96 136.159C1164.08 130.087 1167.04 125.457 1170.23 122.037H1155.24C1157.3 124.798 1158.95 128.021 1160.24 131.255C1160.87 132.848 1161.45 134.493 1161.96 136.159ZM1141.21 122.037C1146.56 122.037 1150.74 126.659 1153.86 134.485C1156.91 142.127 1158.34 151.474 1158.69 157.737L1165.67 157.491C1165.67 131.349 1178.8 123.093 1184.21 121.972L1183.58 114.158H1141.21V122.037Z" fill="#E6DCD1"/>
<path d="M1014.97 117.947C1008.25 118.714 995.181 134.648 989.514 149.288C989.211 150.185 988.883 151.106 988.529 152.052C988.825 151.139 989.155 150.216 989.514 149.288C997.922 124.394 987.055 117.947 972.525 117.947H1014.97Z" fill="#E6DCD1"/>
<path fill-rule="evenodd" clip-rule="evenodd" d="M986.376 147.559C986.001 148.515 985.655 149.472 985.34 150.426L991.815 153.316C992.174 152.372 992.509 151.448 992.82 150.544C995.487 143.801 999.939 136.638 1004.55 131.076C1006.85 128.292 1009.13 125.994 1011.16 124.379C1013.28 122.686 1014.76 122.043 1015.53 121.957L1015.18 114.158H972.525V121.976C979.667 121.976 984.608 123.602 987.039 126.845C989.268 129.82 990.432 135.702 986.376 147.559ZM992.494 121.976C994.244 124.371 995.339 127.216 995.794 130.505C996.986 128.833 998.211 127.24 999.441 125.755C1000.55 124.415 1001.68 123.147 1002.81 121.976H992.494Z" fill="#E6DCD1"/>
<path d="M1027.82 117.947C1021.06 118.714 1012.36 124.132 1015.92 138.242C1016.22 139.272 1016.52 140.3 1016.85 141.316C1016.48 140.248 1016.17 139.224 1015.92 138.242C1013.03 128.177 1010.93 117.947 997.104 117.947H1027.82Z" fill="#E6DCD1"/>
<path fill-rule="evenodd" clip-rule="evenodd" d="M1012.39 139.257C1012.67 140.334 1013 141.441 1013.4 142.579L1019.89 139.799C1019.59 138.879 1019.31 137.935 1019.03 136.963C1017.57 131.1 1018.75 127.777 1020.34 125.795C1022.12 123.571 1025.02 122.306 1027.82 121.988L1027.48 114.158H997.104V122.008C1003.04 122.008 1005.89 124.113 1007.72 126.778C1009.62 129.551 1010.66 133.19 1011.96 137.748C1012.1 138.24 1012.24 138.743 1012.39 139.257ZM1013.23 122.008C1013.4 122.244 1013.55 122.483 1013.7 122.727C1013.84 122.482 1013.98 122.243 1014.13 122.008H1013.23Z" fill="#E6DCD1"/>
<path d="M1079.27 250.578C1079.27 278.828 1093.38 288.875 1100.43 290.367H1058.54C1073.4 290.367 1078.55 263.841 1079.27 250.578Z" fill="#E6DCD1"/>
<path fill-rule="evenodd" clip-rule="evenodd" d="M1079.29 272.157C1081.42 278.229 1084.38 282.86 1087.56 286.279H1072.57C1074.64 283.518 1076.29 280.295 1077.58 277.061C1078.21 275.468 1078.78 273.824 1079.29 272.157ZM1058.54 286.279C1063.9 286.279 1068.08 281.657 1071.2 273.831C1074.25 266.189 1075.67 256.843 1076.02 250.579L1083 250.825C1083 276.967 1096.13 285.224 1101.55 286.344L1100.92 294.158H1058.54V286.279Z" fill="#E6DCD1"/>
<path fill-rule="evenodd" clip-rule="evenodd" d="M364.307 354.908L444.219 516.196V354.908H462.375V533.783H444.698L364.577 372.073V533.783H346.796L306.037 451.52L266.782 472.044V533.783H248.625V354.908H266.405L306.775 436.388L346.421 415.659V354.908H364.307ZM249.61 532.79H265.797L249.613 532.789V355.902H249.61V532.79ZM349.606 532.79H363.593L349.608 532.789L349.606 532.79ZM461.387 532.789H447.511L447.508 532.79H461.391V355.902H461.387V532.789ZM347.406 532.789L347.407 532.786L347.406 532.784V532.789ZM306.912 451.061L346.421 530.803V530.796L306.915 451.06L306.912 451.061ZM364.577 357.679L444.219 518.422V518.418L364.577 357.675V357.679ZM347.406 429.89V518.395L347.407 518.398L347.406 429.89ZM312.577 448.099L346.421 516.406V430.405L312.577 448.099ZM266.782 458.417V458.419L300.676 440.697L300.675 440.696L266.782 458.417ZM266.782 457.298L300.235 439.808L266.782 372.288V457.298ZM301.549 440.239L301.55 440.24L301.554 440.238L301.552 440.237L301.549 440.239ZM266.782 370.067L301.109 439.351L301.112 439.348L266.782 370.059V370.067ZM307.215 437.277L307.216 437.278L346.421 416.78V416.778L307.215 437.277Z" fill="#E6DCD1"/>
<path d="M662.811 354.908L606.089 533.783H573.373L630.095 354.908H662.811Z" fill="#E6DCD1"/>
<path d="M811.873 354.908L755.151 533.783H722.436L779.158 354.908H811.873Z" fill="#E6DCD1"/>
<path fill-rule="evenodd" clip-rule="evenodd" d="M721.694 533.783L653.494 354.908H663.463L731.752 533.783H721.694Z" fill="#E6DCD1"/>
<path fill-rule="evenodd" clip-rule="evenodd" d="M606.912 479.747H705.666V487.2H606.912V479.747Z" fill="#E6DCD1"/>
<path fill-rule="evenodd" clip-rule="evenodd" d="M974.215 354.908L949.5 354.908V354.908C952.255 358.78 953.736 363.414 953.736 368.166V520.209C953.736 524.961 952.255 529.595 949.5 533.467H975.076V492.529H1053.73L1081.05 533.467H1093.33L1032.76 442.671V374.667L1125.78 514.061V533.467H1152.36C1149.6 529.595 1148.12 524.961 1148.12 520.209V368.166C1148.12 363.414 1149.6 358.78 1152.36 354.908L1121.54 354.908V354.908C1124.3 358.78 1125.78 363.414 1125.78 368.166V495.895L1031.9 354.908L1006.85 354.908C1009.6 358.78 1011.08 363.414 1011.08 368.166V410.708L974.215 354.908ZM1046.89 482.284H975.076V374.667L1046.89 482.284Z" fill="#E6DCD1"/>
<g opacity="0.3">
<line x1="-4.37114e-08" y1="293.657" x2="1440" y2="293.657" stroke="url(#paint0_linear_93_3)"/>
<line x1="-4.37114e-08" y1="113.657" x2="1440" y2="113.657" stroke="url(#paint1_linear_93_3)"/>
<line x1="-4.37114e-08" y1="534.407" x2="1440" y2="534.407" stroke="url(#paint2_linear_93_3)"/>
<line x1="-4.37114e-08" y1="354.407" x2="1440" y2="354.407" stroke="url(#paint3_linear_93_3)"/>
</g>
<defs>
<linearGradient id="paint0_linear_93_3" x1="4.37114e-08" y1="294.657" x2="1440" y2="294.657" gradientUnits="userSpaceOnUse">
<stop/>
<stop offset="0.192308" stop-color="#E6DCD1"/>
<stop offset="0.822115" stop-color="#E6DCD1"/>
<stop offset="1"/>
</linearGradient>
<linearGradient id="paint1_linear_93_3" x1="4.37114e-08" y1="114.657" x2="1440" y2="114.657" gradientUnits="userSpaceOnUse">
<stop/>
<stop offset="0.192308" stop-color="#E6DCD1"/>
<stop offset="0.822115" stop-color="#E6DCD1"/>
<stop offset="1"/>
</linearGradient>
<linearGradient id="paint2_linear_93_3" x1="4.37114e-08" y1="535.407" x2="1440" y2="535.407" gradientUnits="userSpaceOnUse">
<stop/>
<stop offset="0.192308" stop-color="#E6DCD1"/>
<stop offset="0.822115" stop-color="#E6DCD1"/>
<stop offset="1"/>
</linearGradient>
<linearGradient id="paint3_linear_93_3" x1="4.37114e-08" y1="355.407" x2="1440" y2="355.407" gradientUnits="userSpaceOnUse">
<stop/>
<stop offset="0.192308" stop-color="#E6DCD1"/>
<stop offset="0.822115" stop-color="#E6DCD1"/>
<stop offset="1"/>
</linearGradient>
</defs>
</svg>
