<svg width="1440" height="648" viewBox="0 0 1440 648" fill="none" xmlns="http://www.w3.org/2000/svg">
<rect width="1440" height="648" fill="black"/>
<g opacity="0.5">
<line x1="-4.37114e-08" y1="215.5" x2="1440" y2="215.5" stroke="url(#paint0_linear_94_54)"/>
<line x1="-4.37114e-08" y1="215.5" x2="1440" y2="215.5" stroke="url(#paint1_linear_94_54)"/>
<line x1="720.5" y1="-2.18557e-08" x2="720.5" y2="648" stroke="url(#paint2_linear_94_54)"/>
<line x1="-4.37114e-08" y1="431.5" x2="1440" y2="431.5" stroke="url(#paint3_linear_94_54)"/>
</g>
<path d="M501.552 78.41H509.104C509.005 79.1111 508.863 79.7755 508.824 80.4469C508.696 82.635 508.517 84.8231 508.515 87.0136C508.492 106.12 508.501 125.227 508.501 144.331V145.042C507.887 145.211 507.5 145.062 507.115 144.597C498.417 134.071 489.701 123.557 480.99 113.042C475.867 106.858 470.748 100.674 465.625 94.4899C465.508 94.3478 465.38 94.2149 465.171 93.9812C465.153 94.2905 465.132 94.4876 465.132 94.6846C465.132 107.804 465.116 120.922 465.144 134.041C465.149 136.612 465.307 139.185 465.412 141.756C465.43 142.21 465.543 142.659 465.604 143.112C465.648 143.445 465.68 143.779 465.719 144.146H458.146C458.208 143.697 458.284 143.291 458.314 142.883C458.444 141.192 458.628 139.504 458.667 137.81C458.74 134.495 458.749 131.175 458.751 127.857C458.758 111.326 458.754 94.7923 458.754 78.261V77.5095C459.329 77.3812 459.723 77.4568 460.119 77.938C468.888 88.5808 477.675 99.2053 486.459 109.834C491.514 115.95 496.568 122.067 501.623 128.183C501.737 128.322 501.863 128.451 502.056 128.664C502.07 128.414 502.083 128.27 502.083 128.125C502.079 113.787 502.092 99.4481 502.049 85.1073C502.042 83.1139 501.751 81.1228 501.593 79.1317C501.575 78.9072 501.565 78.6849 501.549 78.4077L501.552 78.41Z" fill="#E6DCD1"/>
<path d="M291.125 144.172H288.055C286.68 144.172 285.305 144.154 283.933 144.183C283.5 144.193 283.316 144.055 283.154 143.654C279.825 135.383 276.473 127.118 273.148 118.845C272.969 118.402 272.752 118.304 272.316 118.304C265.465 118.318 258.612 118.318 251.761 118.304C251.34 118.304 251.143 118.409 250.978 118.822C247.658 127.098 244.317 135.364 240.995 143.64C240.837 144.032 240.667 144.188 240.227 144.183C238.129 144.158 236.03 144.172 233.869 144.172C233.853 143.427 233.839 142.795 234.259 142.069C235.434 140.025 236.575 137.94 237.487 135.77C244.661 118.689 251.78 101.582 258.915 84.4851C259.831 82.2924 260.748 80.0997 261.653 77.9001C261.77 77.6137 261.873 77.435 262.246 77.4327C262.64 77.4281 262.759 77.6252 262.885 77.9276C268.895 92.4128 274.908 106.898 280.929 121.379C283.124 126.655 285.298 131.944 287.59 137.181C288.426 139.092 289.567 140.868 290.584 142.699C290.832 143.143 291.416 143.434 291.127 144.172H291.125ZM262.1 91.4528C259.162 98.661 256.282 105.727 253.384 112.839H270.646C267.8 105.718 264.98 98.6587 262.1 91.4528Z" fill="#E6DCD1"/>
<path d="M559.428 99.3743C559.428 99.2804 559.428 99.0925 559.428 98.9046C559.428 93.8524 559.44 88.8003 559.424 83.7481C559.415 80.9253 559.332 78.107 558.766 75.3278C558.679 74.8993 558.569 74.4754 558.482 74.0493C558.464 73.9622 558.493 73.8637 558.503 73.7354H565.615V74.5075C565.615 93.6691 565.603 112.829 565.626 131.99C565.631 135.191 565.77 138.392 565.874 141.593C565.894 142.198 566.048 142.798 566.13 143.401C566.162 143.637 566.169 143.877 566.19 144.131C564.781 144.214 563.433 144.308 562.084 144.37C559.091 144.505 556.099 144.688 553.104 144.732C548.868 144.794 544.787 144.033 541 142.046C536.647 139.762 533.492 136.369 531.613 131.816C529.929 127.731 529.619 123.48 530.089 119.129C530.485 115.459 531.695 112.082 533.732 109.014C535.714 106.03 538.374 103.787 541.554 102.142C545.113 100.3 548.925 99.4637 552.894 99.3285C555.043 99.2552 557.197 99.356 559.431 99.3789L559.428 99.3743ZM559.401 104.825C559.291 104.789 559.204 104.745 559.112 104.731C554.534 103.943 550.053 104.257 545.77 106.127C542.404 107.595 539.758 109.964 538.276 113.342C535.755 119.081 535.739 124.938 538.179 130.709C539.598 134.066 542.116 136.465 545.431 138C548.041 139.208 550.813 139.65 553.664 139.643C555.586 139.638 557.504 139.544 559.399 139.086V104.827L559.401 104.825Z" fill="#E6DCD1"/>
<path d="M594.526 98.3665C599.954 98.4651 604.864 100.032 609.112 103.451C611.88 105.678 613.933 108.469 615.381 111.708C617.168 115.704 617.681 119.913 617.363 124.225C616.944 129.917 614.843 134.923 610.796 139.004C607.625 142.203 603.774 144.214 599.345 145.076C592.952 146.32 586.963 145.275 581.491 141.715C577.915 139.387 575.31 136.179 573.612 132.272C571.314 126.986 571.016 121.506 572.221 115.922C573.076 111.96 574.911 108.48 577.681 105.52C581.427 101.515 586.081 99.2808 591.506 98.6186C592.51 98.4971 593.52 98.4467 594.528 98.3643L594.526 98.3665ZM610.86 121.65C610.854 119.272 610.48 116.628 609.527 114.075C608.404 111.071 606.615 108.547 604.081 106.59C600.554 103.87 596.52 102.963 592.157 103.575C587.19 104.271 583.485 106.913 580.889 111.163C579.104 114.084 578.325 117.297 578.167 120.676C577.96 125.11 578.673 129.337 581.088 133.161C582.444 135.308 584.167 137.095 586.385 138.353C589.758 140.266 593.381 140.917 597.207 140.269C602.61 139.352 606.438 136.314 608.858 131.457C610.343 128.478 610.863 125.279 610.858 121.65H610.86Z" fill="#E6DCD1"/>
<path d="M414.66 118.725H385.486C385.486 119.9 385.46 121.018 385.49 122.139C385.57 125.032 385.974 127.871 387.099 130.566C388.631 134.241 391.234 136.91 394.886 138.461C399.487 140.413 404.141 140.333 408.726 138.377C409.727 137.948 410.595 137.21 411.535 136.633C411.773 136.486 412.057 136.413 412.449 136.253C412.449 136.617 412.449 136.818 412.449 137.018C412.449 138.716 412.433 140.411 412.46 142.109C412.467 142.531 412.314 142.744 411.968 142.961C409.86 144.288 407.507 144.822 405.08 145.051C400.974 145.438 396.926 145.156 392.994 143.798C389.172 142.478 386.15 140.086 383.733 136.896C381.962 134.562 380.947 131.879 380.223 129.074C379.249 125.305 379.027 121.488 379.478 117.622C379.847 114.451 380.646 111.409 382.088 108.556C383.966 104.835 386.677 101.93 390.517 100.177C392.689 99.1849 394.996 98.7862 397.363 98.7931C400.177 98.7999 402.897 99.2811 405.442 100.576C407.282 101.513 408.803 102.814 410.073 104.413C412.575 107.564 413.865 111.207 414.339 115.162C414.477 116.312 414.55 117.471 414.662 118.731L414.66 118.725ZM408.549 113.869C408.244 112.772 408.018 111.711 407.651 110.698C406.867 108.535 405.582 106.7 403.685 105.373C400.768 103.334 397.512 103.227 394.197 103.999C391.312 104.67 389.307 106.544 387.919 109.104C387.115 110.584 386.599 112.172 386.23 113.867H408.549V113.869Z" fill="#E6DCD1"/>
<path d="M344.846 118.71H315.741C315.704 119.164 315.645 119.576 315.642 119.987C315.642 122.947 315.784 125.896 316.653 128.755C318.284 134.13 321.776 137.684 327.199 139.206C331.124 140.308 335.029 140.074 338.782 138.431C339.815 137.977 340.725 137.242 341.701 136.653C341.96 136.497 342.26 136.415 342.645 136.257V136.965C342.645 138.681 342.635 140.397 342.651 142.113C342.656 142.491 342.555 142.713 342.214 142.931C340.298 144.143 338.168 144.679 335.959 144.968C332.657 145.401 329.365 145.266 326.109 144.613C322.402 143.868 319.146 142.228 316.362 139.625C313.53 136.978 311.752 133.745 310.689 130.066C309.639 126.439 309.231 122.745 309.532 118.985C309.919 114.137 311.156 109.552 314.1 105.588C316.845 101.895 320.449 99.5396 325.096 98.9667C328.856 98.5039 332.478 98.9347 335.881 100.699C337.673 101.629 339.134 102.956 340.365 104.537C342.89 107.774 344.134 111.511 344.585 115.544C344.7 116.563 344.755 117.59 344.846 118.71ZM338.646 113.874C338.431 112.155 337.904 110.609 337.13 109.156C335.824 106.707 333.94 104.908 331.225 104.072C329.417 103.515 327.582 103.517 325.728 103.728C324.324 103.888 323 104.308 321.808 105.066C318.596 107.11 317.258 110.311 316.41 113.874H338.644H338.646Z" fill="#E6DCD1"/>
<path d="M291.899 81.3353H298.702V99.7775H308.722V105.231C305.411 105.05 302.114 104.869 298.782 104.685C298.752 104.985 298.725 105.13 298.725 105.276C298.734 113.513 298.73 121.75 298.766 129.988C298.775 131.827 299.101 133.633 299.882 135.319C300.796 137.292 302.313 138.557 304.453 139.029C305.791 139.324 307.129 139.425 308.458 138.958C308.646 138.891 308.866 138.921 309.109 138.903V144.159C307.214 144.386 305.335 144.431 303.447 144.232C301.807 144.058 300.21 143.737 298.72 142.986C296.438 141.831 295.018 139.927 294.042 137.636C292.953 135.079 292.736 132.361 292.605 129.635C292.529 128.035 292.504 126.434 292.502 124.832C292.484 112.611 292.502 100.387 292.442 88.1655C292.431 86.1194 292.085 84.0733 291.892 82.0273C291.881 81.8944 291.856 81.7638 291.854 81.6309C291.854 81.5415 291.879 81.4499 291.897 81.333L291.899 81.3353Z" fill="#E6DCD1"/>
<path d="M350.389 73.7217H357.593V74.5351C357.593 92.7802 357.586 111.025 357.6 129.271C357.602 132.393 357.675 135.519 358.218 138.607C358.507 140.241 358.892 141.843 359.698 143.316C359.817 143.536 359.824 143.815 359.895 144.12C359.682 144.143 359.538 144.17 359.396 144.17C357.563 144.173 355.732 144.187 353.899 144.157C353.67 144.152 353.306 143.971 353.239 143.79C352.802 142.56 352.231 141.329 352.075 140.055C351.734 137.262 351.443 134.444 351.432 131.637C351.372 115.851 351.409 100.066 351.397 84.2797C351.397 81.5188 351.386 78.7532 350.886 76.0221C350.751 75.2774 350.565 74.5442 350.387 73.724L350.389 73.7217Z" fill="#E6DCD1"/>
<path d="M427.303 104.348C427.303 104.676 427.303 104.882 427.303 105.086C427.303 114.753 427.28 124.419 427.317 134.086C427.326 136.753 427.498 139.418 427.629 142.082C427.661 142.756 427.819 143.423 427.924 144.138H420.523C420.606 143.537 420.72 142.951 420.757 142.36C420.885 140.268 421.078 138.176 421.085 136.082C421.119 126.701 421.105 117.319 421.096 107.938C421.094 105.42 421.025 102.907 420.567 100.421C420.533 100.24 420.562 100.047 420.562 99.8435C420.656 99.8251 420.73 99.7976 420.801 99.7999C424.959 99.8664 429.122 99.8435 433.276 100.041C435.685 100.155 438.095 100.538 440.368 101.47C440.748 101.626 440.87 101.825 440.865 102.229C440.844 104.153 440.856 106.08 440.856 108.005C440.856 108.174 440.842 108.344 440.828 108.653C440.537 108.523 440.256 108.481 440.111 108.319C437.992 105.94 435.215 104.951 432.163 104.612C430.577 104.435 428.976 104.431 427.306 104.343L427.303 104.348Z" fill="#E6DCD1"/>
<path d="M517.198 99.8232H523.946V100.563C523.946 111.946 523.939 123.329 523.95 134.712C523.952 137.663 523.92 140.619 524.484 143.538C524.518 143.719 524.489 143.911 524.489 144.134H517.141C517.241 143.375 517.383 142.651 517.429 141.92C517.555 139.849 517.72 137.775 517.727 135.704C517.759 126.628 517.764 117.553 517.727 108.477C517.716 105.835 517.716 103.18 517.202 100.566C517.159 100.348 517.198 100.112 517.198 99.8255V99.8232Z" fill="#E6DCD1"/>
<path d="M373.67 144.148H366.309C366.409 143.502 366.556 142.895 366.59 142.281C366.723 139.943 366.902 137.606 366.913 135.267C366.95 126.405 366.946 117.542 366.918 108.679C366.909 105.941 366.916 103.194 366.375 100.486C366.336 100.287 366.37 100.076 366.37 99.833H373.132C373.132 100.099 373.132 100.339 373.132 100.582C373.132 112.208 373.118 123.834 373.141 135.462C373.146 138.143 373.136 140.832 373.668 143.483C373.707 143.683 373.673 143.896 373.673 144.148H373.67Z" fill="#E6DCD1"/>
<path d="M520.609 91.2495C518.263 91.167 516.432 89.2699 516.514 87.0084C516.599 84.763 518.538 82.9071 520.721 82.9827C523.113 83.0652 524.939 84.9394 524.864 87.233C524.788 89.5104 522.861 91.3297 520.609 91.2495Z" fill="#E6DCD1"/>
<path d="M374.043 87.1535C374.034 89.4493 372.142 91.2869 369.816 91.2525C367.55 91.2204 365.669 89.3233 365.69 87.0939C365.713 84.8737 367.603 82.9926 369.823 82.9834C372.174 82.9743 374.05 84.8279 374.041 87.1535H374.043Z" fill="#E6DCD1"/>
<path d="M205.437 59C203.78 61.6497 202.902 64.7113 202.902 67.8359V150.11C202.902 153.684 203.772 157.205 205.437 160.367H99C100.664 157.205 101.534 153.684 101.534 150.11V67.8359C101.534 64.7114 100.656 61.6497 99 59H205.437ZM108.031 65.498C109.237 67.4228 109.876 69.6487 109.876 71.9199V147.447C109.876 149.719 109.237 151.944 108.031 153.869H119.173V133.608H153.437L165.338 153.869H170.686L144.301 108.933V75.2764L184.824 144.265V153.869H196.403C195.198 151.944 194.558 149.719 194.558 147.447V71.9199C194.558 69.6486 195.198 67.4229 196.403 65.498H182.979C184.185 67.4228 184.824 69.6487 184.824 71.9199V135.274L143.926 65.498H133.014C134.219 67.4229 134.859 69.6486 134.859 71.9199V93.1143L118.798 65.498H108.031ZM150.458 128.538H119.173V75.2764L150.458 128.538Z" fill="#E6DCD1"/>
<path d="M901.261 58C903.47 58 905.261 59.7909 905.261 62V156.261C905.261 158.47 903.47 160.261 901.261 160.261H807C804.791 160.261 803 158.47 803 156.261V62C803 59.7909 804.791 58 807 58H901.261ZM811.269 66.1797L813.998 69.0986V149.161L811.183 152.079H825.623L822.874 149.161V115.897H846.462L872.375 152.079H897.082L894.353 149.161V69.0986L897.082 66.1797H882.812L885.476 69.0986L885.37 135.21L836.2 66.1797H811.269ZM885.37 145.717H875.314L822.99 72.543H833.252L885.37 145.717ZM841.916 109.534H822.874V82.8682L841.916 109.534Z" fill="#E6DCD1"/>
<path d="M1298.81 108.86C1298.79 104.971 1299.72 100.141 1301.9 95.6039C1303.77 91.7125 1306.37 88.3588 1309.7 85.5894C1313.62 82.3286 1318.11 80.2004 1323.08 79.1437C1327.44 78.2156 1331.83 78.1777 1336.21 79.0298C1342.56 80.2658 1348.07 83.1196 1352.55 87.7978C1356.34 91.7568 1358.86 96.4455 1360.11 101.799C1360.77 104.631 1361.03 107.508 1361 110.415C1360.97 113.269 1360.65 116.08 1359.95 118.852C1358.93 122.853 1357.15 126.479 1354.64 129.75C1350.25 135.464 1344.47 139.018 1337.52 140.699C1332.92 141.81 1328.27 141.859 1323.62 140.971C1318.89 140.068 1314.57 138.178 1310.75 135.255C1306.07 131.671 1302.7 127.08 1300.71 121.511C1299.37 117.786 1298.81 113.935 1298.81 108.865L1298.81 108.86ZM1354.62 110.006C1354.6 109.48 1354.57 108.953 1354.55 108.428C1354.38 103.452 1353.14 98.8015 1350.43 94.5831C1347.89 90.6515 1344.49 87.7303 1340.22 85.8383C1335.89 83.9147 1331.34 83.3326 1326.64 83.9168C1321.54 84.5496 1317.05 86.5112 1313.25 89.9871C1310.18 92.7966 1308.04 96.2198 1306.71 100.145C1305.65 103.279 1305.22 106.519 1305.21 109.824C1305.19 114.032 1305.83 118.107 1307.53 121.982C1309.04 125.413 1311.19 128.387 1314.08 130.771C1317.72 133.783 1321.94 135.538 1326.64 136.094C1331.94 136.721 1337 135.955 1341.74 133.443C1346.6 130.872 1350.04 126.985 1352.27 122.005C1353.98 118.191 1354.58 114.152 1354.62 110.006Z" fill="#E6DCD1"/>
<path d="M1177.98 78.9156C1178.57 78.7658 1178.93 78.9219 1179.3 79.367C1188.05 89.9889 1196.82 100.594 1205.58 111.203C1209.58 116.048 1213.58 120.891 1217.59 125.734C1217.65 125.814 1217.73 125.886 1217.85 126.023C1217.87 125.845 1217.89 125.736 1217.89 125.626C1217.89 112.971 1217.9 100.314 1217.86 87.6583C1217.85 85.3824 1217.61 83.1066 1217.47 80.8308C1217.45 80.4848 1217.38 80.1432 1217.33 79.7572H1224.29C1224.29 79.9322 1224.32 80.0904 1224.28 80.236C1223.76 82.6046 1223.78 85.0154 1223.78 87.4157C1223.76 105.057 1223.77 122.699 1223.77 140.34V141.095C1223.26 141.213 1222.89 141.173 1222.52 140.726C1214.51 131.019 1206.48 121.328 1198.46 111.632C1193.71 105.899 1188.97 100.164 1184.22 94.433C1184.14 94.3297 1184.04 94.2348 1183.88 94.0639C1183.87 94.2643 1183.86 94.3782 1183.86 94.49C1183.86 106.97 1183.85 119.45 1183.88 131.933C1183.89 134.175 1184.06 136.419 1184.19 138.661C1184.22 139.18 1184.34 139.694 1184.43 140.256H1177.47C1177.47 140.068 1177.46 139.897 1177.47 139.726C1177.63 137.665 1177.93 135.605 1177.93 133.544C1177.98 118.501 1177.97 103.458 1177.98 88.4134C1177.98 85.4478 1177.98 82.4802 1177.98 79.5146C1177.98 79.3248 1177.98 79.1328 1177.98 78.9156H1177.98Z" fill="#E6DCD1"/>
<path d="M1246.57 140.267C1246.68 139.482 1246.82 138.759 1246.86 138.031C1246.97 136.228 1247.11 134.422 1247.11 132.617C1247.13 117.538 1247.14 102.459 1247.11 87.3806C1247.1 85.263 1246.89 83.1432 1246.76 81.0256C1246.73 80.6143 1246.63 80.2072 1246.56 79.72C1246.82 79.72 1247.01 79.72 1247.2 79.72C1252.16 79.72 1257.13 79.7284 1262.1 79.7179C1267.82 79.7052 1273.3 80.7936 1278.44 83.371C1282.28 85.3031 1285.57 87.9375 1288.26 91.327C1290.92 94.6869 1292.71 98.4582 1293.67 102.62C1294.3 105.33 1294.5 108.093 1294.43 110.877C1294.36 113.786 1293.98 116.644 1293.12 119.43C1291.66 124.176 1289.12 128.257 1285.52 131.674C1281.05 135.916 1275.68 138.402 1269.69 139.596C1267.27 140.077 1264.82 140.282 1262.36 140.286C1257.25 140.294 1252.14 140.288 1247.03 140.288C1246.91 140.288 1246.79 140.277 1246.58 140.267H1246.57ZM1253.21 84.8011V135.23C1253.35 135.239 1253.45 135.251 1253.55 135.251C1256.55 135.251 1259.55 135.26 1262.56 135.247C1267.79 135.226 1272.71 134.07 1277.18 131.265C1280.45 129.215 1282.99 126.471 1284.88 123.13C1286.59 120.109 1287.52 116.844 1287.87 113.396C1288.22 109.964 1288.08 106.562 1287.3 103.198C1286.09 97.9583 1283.44 93.5754 1279.24 90.2133C1275.21 86.9862 1270.53 85.2187 1265.4 84.9234C1261.41 84.6935 1257.4 84.8053 1253.39 84.7652C1253.34 84.7652 1253.29 84.7842 1253.21 84.8011Z" fill="#E6DCD1"/>
<path d="M1165.08 140.29H1160.32C1159.49 140.29 1158.67 140.258 1157.84 140.302C1157.37 140.328 1157.09 140.148 1156.81 139.777C1149.3 129.685 1141.78 119.601 1134.27 109.506C1134.02 109.173 1133.77 109.04 1133.36 109.048C1132.02 109.073 1130.69 109.057 1129.29 109.057C1129.28 109.255 1129.27 109.421 1129.27 109.59C1129.27 117.787 1129.25 125.985 1129.31 134.181C1129.32 136.031 1129.61 137.879 1129.78 139.727C1129.79 139.895 1129.78 140.066 1129.78 140.26H1122.69C1122.69 140.043 1122.68 139.853 1122.69 139.668C1122.85 137.887 1123.14 136.107 1123.14 134.327C1123.17 118.143 1123.17 101.959 1123.14 85.7773C1123.13 83.9613 1122.84 82.1473 1122.69 80.3313C1122.67 80.1584 1122.67 79.9833 1122.66 79.7196H1123.23C1128.11 79.7196 1132.99 79.7154 1137.87 79.7196C1140.88 79.7239 1143.79 80.171 1146.5 81.5462C1151.12 83.8917 1153.82 87.5743 1154.27 92.8073C1154.48 95.1822 1154.23 97.496 1153.42 99.7466C1152.69 101.738 1151.51 103.398 1149.96 104.823C1147.5 107.07 1144.59 108.291 1141.34 108.787C1141.21 108.808 1141.08 108.841 1140.9 108.882C1141 109.04 1141.06 109.158 1141.14 109.263C1147.4 117.47 1153.64 125.686 1159.91 133.88C1161.43 135.856 1162.94 137.839 1164.84 139.492C1164.99 139.63 1164.98 139.956 1165.07 140.286L1165.08 140.29ZM1129.3 104.18C1129.44 104.195 1129.53 104.21 1129.62 104.21C1132.13 104.21 1134.63 104.224 1137.14 104.205C1139.02 104.191 1140.85 103.946 1142.59 103.189C1144.83 102.212 1146.49 100.635 1147.36 98.3376C1148.13 96.2938 1148.22 94.1614 1147.82 92.0142C1147.4 89.7616 1146.31 87.9329 1144.42 86.5936C1142.74 85.404 1140.84 84.7607 1138.82 84.6805C1135.68 84.5561 1132.54 84.6004 1129.4 84.5772C1129.37 84.5772 1129.34 84.6109 1129.3 84.6362V104.176V104.18Z" fill="#E6DCD1"/>
<path d="M988.659 140.289H984.88C983.915 140.289 982.947 140.268 981.984 140.3C981.617 140.312 981.478 140.175 981.347 139.855C978.591 133.002 975.821 126.155 973.056 119.307C972.721 118.48 972.403 117.645 972.04 116.83C971.971 116.674 971.726 116.499 971.562 116.499C965.136 116.482 958.71 116.489 952.284 116.476C951.93 116.476 951.854 116.657 951.751 116.913C949.021 123.7 946.288 130.485 943.554 137.273C943.194 138.165 942.848 139.066 942.467 139.947C942.403 140.095 942.188 140.274 942.041 140.276C940.041 140.297 938.041 140.291 935.99 140.291C935.973 139.601 935.969 139.017 936.35 138.351C937.432 136.469 938.479 134.55 939.318 132.55C945.917 116.824 952.465 101.075 959.028 85.3336C959.863 83.3299 960.699 81.3283 961.53 79.3224C961.639 79.0566 961.717 78.8436 962.097 78.8457C962.466 78.8478 962.565 79.0355 962.678 79.3097C968.377 93.0512 974.074 106.793 979.784 120.528C981.634 124.983 983.464 129.448 985.405 133.862C986.178 135.619 987.223 137.256 988.161 138.939C988.389 139.348 988.926 139.618 988.659 140.291V140.289ZM953.94 111.444H969.821C967.199 104.88 964.601 98.3706 961.96 91.7541C959.26 98.3812 956.613 104.882 953.943 111.444H953.94Z" fill="#E6DCD1"/>
<path d="M1021.11 79.7451H1046.66V85.2607C1040.36 84.3664 1034.04 84.9401 1027.69 84.7228V104.157C1033.43 104.039 1039.18 104.414 1044.93 103.596V109.666C1039.19 108.854 1033.45 109.236 1027.68 109.107V135.291C1034.88 135.042 1042.07 135.673 1049.27 134.768V140.246H1021.07C1021.15 139.583 1021.27 138.932 1021.31 138.278C1021.42 136.422 1021.59 134.563 1021.59 132.707C1021.61 117.557 1021.61 102.406 1021.6 87.256C1021.6 84.9401 1021.55 82.6221 1021.11 80.3336C1021.08 80.1522 1021.11 79.9603 1021.11 79.7493L1021.11 79.7451Z" fill="#E6DCD1"/>
<path d="M1088.95 79.7472H1114.5V85.2965C1111.35 84.746 1108.18 84.7524 1105.01 84.7608C1101.86 84.7671 1098.7 84.7608 1095.52 84.7608V104.157C1101.28 104.05 1107.04 104.404 1112.81 103.602V109.664C1107.05 108.863 1101.3 109.23 1095.52 109.109V135.293C1102.73 135.046 1109.92 135.671 1117.12 134.772V140.248H1088.91C1088.99 139.579 1089.11 138.929 1089.15 138.273C1089.27 136.417 1089.43 134.559 1089.43 132.703C1089.46 117.555 1089.45 102.406 1089.44 87.256C1089.44 84.9401 1089.4 82.6221 1088.96 80.3336C1088.92 80.1522 1088.95 79.9581 1088.95 79.7451L1088.95 79.7472Z" fill="#E6DCD1"/>
<path d="M1001.32 140.263H994.262C994.262 140.054 994.248 139.868 994.264 139.683C994.418 137.902 994.709 136.124 994.713 134.344C994.758 117.951 994.755 101.557 994.764 85.1639C994.764 85.0584 994.753 84.9551 994.743 84.7484C989.567 84.8707 984.382 84.4531 979.197 85.2883V79.7559H1016.36V85.1196C1013.79 84.9993 1011.22 84.8327 1008.64 84.7737C1006.06 84.7125 1003.49 84.761 1000.87 84.761C1000.86 84.9529 1000.84 85.1048 1000.84 85.2567C1000.84 101.51 1000.83 117.764 1000.87 134.017C1000.87 135.886 1001.15 137.755 1001.29 139.624C1001.31 139.828 1001.31 140.033 1001.32 140.265L1001.32 140.263Z" fill="#E6DCD1"/>
<path d="M1054.83 79.7472H1061.88C1061.88 79.9539 1061.91 80.1459 1061.88 80.3273C1061.47 82.601 1061.42 84.8979 1061.42 87.1969C1061.42 103.014 1061.42 118.829 1061.42 134.646V135.249C1064.9 135.249 1068.35 135.249 1071.8 135.249C1075.24 135.249 1078.68 135.329 1082.13 134.705V140.256H1054.82C1054.82 140.083 1054.8 139.925 1054.83 139.777C1055.36 136.983 1055.33 134.154 1055.33 131.33C1055.34 116.304 1055.34 101.278 1055.3 86.252C1055.29 84.2609 1054.99 82.2719 1054.83 80.2809C1054.82 80.1121 1054.83 79.9392 1054.83 79.7451L1054.83 79.7472Z" fill="#E6DCD1"/>
<path d="M1238.96 140.261H1231.88C1231.96 139.6 1232.08 138.97 1232.13 138.335C1232.24 136.745 1232.4 135.154 1232.4 133.562C1232.43 118.715 1232.44 103.866 1232.42 89.0195C1232.42 86.5159 1232.24 84.0122 1232.12 81.5086C1232.09 80.937 1231.96 80.3696 1231.87 79.7559H1238.96C1238.96 79.9647 1238.98 80.184 1238.96 80.4013C1238.82 82.0929 1238.55 83.7823 1238.55 85.4739C1238.5 101.445 1238.49 117.414 1238.51 133.385C1238.52 135.462 1238.81 137.538 1238.97 139.615C1238.98 139.82 1238.97 140.029 1238.97 140.261H1238.96Z" fill="#E6DCD1"/>
<path d="M1072.44 79.7461H1079.28C1079.19 80.3282 1079.06 80.8703 1079.03 81.4208C1078.91 83.3824 1078.74 85.3439 1078.73 87.3055C1078.69 94.5021 1078.68 106.777 1078.74 113.974C1078.75 116.214 1079 118.452 1079.15 120.692C1079.16 120.848 1079.22 120.999 1079.24 121.156C1079.26 121.272 1079.24 121.392 1079.24 121.535H1072.45C1072.54 120.902 1072.67 120.308 1072.71 119.707C1072.83 117.798 1072.99 115.887 1073 113.978C1073.03 106.781 1073.03 94.5063 1073 87.3097C1072.99 85.346 1072.82 83.3845 1072.7 81.4229C1072.66 80.8745 1072.54 80.3325 1072.45 79.7503L1072.44 79.7461Z" fill="#E6DCD1"/>
<path d="M185 362.756C185 364.923 177.092 369.999 175.648 370H99.0039V283.776C99.0039 283.776 98.9005 282.279 99.8145 281.67C101.392 280.619 109.956 277 109.956 277H184.448L185 362.756ZM104.594 333.924V366.262H166.896C158.702 355.225 150.466 344.231 142.067 333.349L104.594 333.924ZM136.995 311.335L137.567 312.056C149.838 327.526 162.099 342.987 174.359 358.449C174.425 358.42 174.493 358.392 174.561 358.365L174.562 358.364C174.629 358.337 174.696 358.31 174.762 358.281V283.075H114.582C122.057 292.5 129.527 301.92 136.995 311.335ZM104.594 327.334C104.594 327.783 104.957 328.146 105.405 328.146H138.032C127.265 314.333 116.202 300.718 104.594 287.442V327.334Z" fill="#E6DCD1"/>
<path d="M185 362.756C185 364.923 177.092 369.999 175.648 370H99.0039V283.776C99.0039 283.776 98.9005 282.279 99.8145 281.67C101.392 280.619 109.956 277 109.956 277H184.448L185 362.756ZM104.594 333.924V366.262H166.896C158.702 355.225 150.466 344.231 142.067 333.349L104.594 333.924ZM136.995 311.335L137.567 312.056C149.838 327.526 162.099 342.987 174.359 358.449C174.425 358.42 174.493 358.392 174.561 358.365L174.562 358.364C174.629 358.337 174.696 358.31 174.762 358.281V283.075H114.582C122.057 292.5 129.527 301.92 136.995 311.335ZM104.594 327.334C104.594 327.783 104.957 328.146 105.405 328.146H138.032C127.265 314.333 116.202 300.718 104.594 287.442V327.334Z" stroke="black"/>
<path d="M576.078 291.787C578.2 291.57 580.231 291.362 582.371 291.146V351.539C582.289 351.574 582.193 351.647 582.098 351.647C576.255 351.734 570.404 351.851 564.652 350.586C560.953 349.776 557.48 348.373 554.452 346.073C548.064 341.222 545.994 334.739 547.661 327.046C549.125 320.29 553.486 315.894 559.667 313.152C564.479 311.017 569.577 310.181 574.809 310.016C575.203 310.003 575.593 310.016 576.086 310.016V291.787H576.078ZM576.06 311.931C571.591 311.978 567.329 312.676 563.361 314.672C558.809 316.968 556.059 320.788 554.604 325.544C552.889 331.157 553.279 336.584 556.761 341.508C559.667 345.614 563.899 347.693 568.697 348.646C571.071 349.118 573.518 349.231 576.056 349.521V311.931H576.06Z" fill="#E6DCD1"/>
<path d="M517.006 351.236C504.662 334.535 492.21 317.968 478.467 302.207V350.946H475.474C475.461 350.686 475.44 350.443 475.435 350.205C475.431 333.469 475.435 316.734 475.396 299.998C475.396 299.132 475.665 298.712 476.423 298.383C478.134 297.633 479.81 296.81 481.529 296.005C494.298 312.151 507.044 328.263 519.786 344.38C519.864 344.345 519.947 344.315 520.025 344.28V296.59H522.485C522.485 296.953 522.485 297.27 522.485 297.59C522.476 314.252 522.459 330.918 522.472 347.58C522.472 348.33 522.273 348.728 521.567 349.04C520.055 349.703 518.591 350.469 517.01 351.24L517.006 351.236Z" fill="#E6DCD1"/>
<path d="M245.191 295.606C253.29 313.369 261.372 331.083 269.493 348.888C267.37 349.551 265.114 350.253 262.792 350.976C261.359 347.819 259.934 344.722 258.539 341.612C256.876 337.905 255.226 334.193 253.593 330.477C253.29 329.784 252.9 329.415 252.06 329.428C244.164 329.515 236.268 329.567 228.373 329.606C227.623 329.606 227.238 329.862 226.917 330.568C223.946 337.073 220.914 343.552 217.93 350.058C217.605 350.768 217.229 351.141 216.406 351.041C215.769 350.967 215.115 351.028 214.262 351.028C215.02 349.43 215.717 347.961 216.414 346.485C224.158 330.022 231.911 313.568 239.629 297.096C239.984 296.343 240.418 296.009 241.24 295.97C242.605 295.901 243.96 295.723 245.191 295.606ZM240.314 300.505C239.855 301.479 239.508 302.185 239.183 302.904C235.917 310.142 232.647 317.375 229.403 324.621C228.771 326.037 229.005 326.332 230.556 326.332C237.368 326.332 244.181 326.332 250.994 326.332C251.332 326.332 251.67 326.288 252.151 326.254C248.192 317.643 244.311 309.202 240.314 300.505Z" fill="#E6DCD1"/>
<path d="M632.999 330.313C632.986 342.851 623.713 352.111 611.213 352.068C598.566 352.02 589.501 342.838 589.531 330.118C589.566 317.813 598.895 308.631 611.365 308.631C623.955 308.631 633.007 317.705 632.994 330.317L632.999 330.313ZM626.779 330.555C626.623 325.34 625.281 320.416 622.158 315.985C617.251 309.029 605.851 308.375 600.524 315.907C597.769 319.801 596.171 324.093 595.924 328.831C595.612 334.821 596.842 340.422 600.636 345.255C606.081 352.181 616.497 352.194 621.898 345.246C625.22 340.972 626.662 336.038 626.779 330.559V330.555Z" fill="#E6DCD1"/>
<path d="M418.816 329.164C418.093 329.164 417.664 329.164 417.236 329.164C406.741 329.164 396.247 329.164 385.752 329.164C384.098 329.164 384.042 329.207 384.145 330.883C384.765 340.845 391.379 348.645 402.224 349.459C406.087 349.75 409.994 349.494 413.883 349.49C414.238 349.49 414.594 349.49 414.953 349.49C414.884 351.079 414.429 351.603 412.995 351.638C407.733 351.777 402.466 351.98 397.243 351.062C391.573 350.066 386.476 347.961 382.5 343.599C375.154 335.543 375.994 322.888 382.552 315.417C386.757 310.626 392.076 308.638 398.282 308.643C402.445 308.643 406.473 309.327 410.106 311.505C414.918 314.394 417.413 318.812 418.297 324.217C418.557 325.798 418.639 327.405 418.816 329.159V329.164ZM398.148 326.881C402.367 326.881 406.585 326.881 410.804 326.881C412.129 326.881 412.285 326.747 412.047 325.43C411.15 320.484 408.902 316.283 404.987 313.047C403.051 311.449 400.855 310.397 398.282 310.427C394.341 310.479 391.37 312.406 389.009 315.404C386.766 318.253 385.415 321.523 384.553 325.014C384.102 326.842 384.124 326.877 386.03 326.881C390.07 326.881 394.107 326.881 398.148 326.881Z" fill="#E6DCD1"/>
<path d="M336.837 329.164C336.218 329.164 335.793 329.164 335.373 329.164C324.874 329.164 314.376 329.164 303.881 329.164C302.171 329.164 302.14 329.207 302.257 330.957C302.708 337.661 305.493 343.041 311.288 346.679C314.06 348.42 317.148 349.355 320.387 349.477C324.272 349.624 328.162 349.494 332.051 349.485C332.406 349.485 332.766 349.485 333.125 349.485C332.662 351.534 332.584 351.612 330.535 351.66C325.451 351.777 320.361 351.95 315.316 351.062C309.369 350.018 304.033 347.796 300.083 343.019C293.422 334.967 293.824 323 300.919 315.096C305.059 310.479 310.326 308.647 316.364 308.643C319.781 308.643 323.133 309.097 326.273 310.527C332.454 313.333 335.551 318.357 336.469 324.884C336.664 326.257 336.712 327.648 336.837 329.164ZM316.242 326.881C320.5 326.881 324.753 326.877 329.011 326.885C329.821 326.885 330.375 326.721 330.197 325.725C329.362 321.056 327.369 316.989 323.865 313.732C318.863 309.084 312.626 309.331 307.979 314.351C305.059 317.504 303.492 321.337 302.508 325.443C302.201 326.738 302.339 326.877 303.695 326.877C307.879 326.881 312.063 326.877 316.247 326.877L316.242 326.881Z" fill="#E6DCD1"/>
<path d="M352.84 350.985H346.465C346.465 350.53 346.465 350.114 346.465 349.694C346.478 330.797 346.491 311.905 346.487 293.008C346.487 292.224 346.616 291.873 347.509 291.808C349.263 291.683 351.004 291.393 352.845 291.163V350.985H352.84Z" fill="#E6DCD1"/>
<path d="M268.969 311.476V309.661C270.758 309.661 272.512 309.661 274.266 309.661C275.808 309.661 275.825 309.64 275.825 308.089C275.825 305.893 275.808 303.702 275.847 301.506C275.851 301.194 276.106 300.648 276.301 300.622C278.185 300.371 280.078 300.206 282.118 300.003C282.118 301.792 282.118 303.438 282.118 305.083C282.118 306.196 282.166 307.318 282.105 308.427C282.053 309.371 282.413 309.687 283.353 309.679C287.355 309.644 291.356 309.666 295.358 309.666C295.779 309.666 296.203 309.666 296.671 309.666V311.424C296.277 311.446 295.9 311.48 295.523 311.48C291.447 311.48 287.376 311.502 283.301 311.467C282.4 311.459 282.105 311.784 282.105 312.663C282.075 320.684 281.98 328.705 281.984 336.727C281.984 339.317 282.335 341.885 283.443 344.293C284.73 347.096 286.921 348.772 289.901 349.317C291.556 349.621 293.262 349.616 294.951 349.729C295.48 349.764 296.012 349.733 296.602 349.733C296.385 350.738 295.948 351.197 294.904 351.219C291.43 351.284 287.983 351.228 284.639 350.14C278.848 348.261 275.76 344.194 275.725 338.078C275.686 331.066 275.808 324.05 275.855 317.033C275.864 315.556 275.821 314.084 275.842 312.607C275.855 311.784 275.535 311.446 274.686 311.467C272.819 311.511 270.948 311.48 268.973 311.48L268.969 311.476Z" fill="#E6DCD1"/>
<path d="M432.667 350.967H426.365V310.185C428.388 310.016 430.419 309.852 432.55 309.674V315.928C437.735 312.71 442.954 310.042 448.935 308.847C449.342 310.726 449.732 312.537 450.152 314.486C449.03 314.581 447.999 314.785 446.977 314.737C442.07 314.503 437.613 316.041 433.234 317.998C432.572 318.293 432.576 318.739 432.58 319.289C432.611 329.363 432.637 339.438 432.667 349.508C432.667 349.967 432.667 350.426 432.667 350.959V350.967Z" fill="#E6DCD1"/>
<path d="M362.857 310.411C364.958 310.172 366.994 309.943 369.133 309.7V350.963H362.857V310.411Z" fill="#E6DCD1"/>
<path d="M538.54 350.985H532.277V310.406C534.317 310.177 536.405 309.943 538.54 309.7V350.985Z" fill="#E6DCD1"/>
<path d="M369.551 294.81V301.722H362.539V294.81H369.551Z" fill="#E6DCD1"/>
<path d="M531.92 294.787H538.928V301.704H531.92V294.787Z" fill="#E6DCD1"/>
<path d="M933.84 358.601L954.327 291.971H956.198L976.498 358.601H967.611L960.969 336.139H943.382L936.74 358.601H933.84ZM944.037 334.053H960.314L952.175 306.567L944.037 334.053Z" fill="#E6DCD1"/>
<path d="M985.635 358.601V294.341H970.293V292.255H1009.3V294.341H994.054V358.601H985.635Z" fill="#E6DCD1"/>
<path d="M1015.36 358.601V292.255H1044.17V294.341H1023.78V321.542H1040.8V323.722H1023.78V356.516H1044.17V358.601H1015.36Z" fill="#E6DCD1"/>
<path d="M1051.9 358.601V292.255H1060.32V356.516H1079.03V358.601H1051.9Z" fill="#E6DCD1"/>
<path d="M1085.97 358.601V292.255H1094.39V358.601H1085.97Z" fill="#E6DCD1"/>
<path d="M1106.71 358.601V292.255H1135.52V294.341H1115.13V321.542H1132.16V323.722H1115.13V356.516H1135.52V358.601H1106.71Z" fill="#E6DCD1"/>
<path d="M1143.25 358.601V292.255H1158.69C1169.26 292.255 1177.87 297.279 1177.87 307.894C1177.87 317.372 1171.04 322.68 1162.34 324.386V324.86C1168.98 325.334 1173.56 329.694 1175.62 337.371L1179.27 350.924C1180.3 355 1181.98 357.18 1183.67 357.464V358.601H1174.22C1172.72 357.748 1171.6 355.568 1170.76 351.872L1166.64 336.518C1164.77 329.125 1162.15 325.523 1156.07 325.523H1151.58V358.601H1143.25ZM1151.58 323.533H1157.01C1164.4 323.533 1168.89 316.993 1168.89 308.273C1168.89 299.174 1164.77 294.341 1157.1 294.341H1151.58V323.533Z" fill="#E6DCD1"/>
<path d="M1244.11 359.265L1211.65 302.302V358.601H1209.12V298.795L1205.38 292.729V292.255H1215.67L1242.61 339.645V292.255H1245.14V359.265H1244.11Z" fill="#E6DCD1"/>
<path d="M1257.08 358.601V292.255H1265.5V358.601H1257.08Z" fill="#E6DCD1"/>
<path d="M1277.82 358.601V292.255H1292.51C1308.97 292.255 1320.57 304.577 1320.57 325.334C1320.57 346.185 1308.97 358.601 1292.51 358.601H1277.82ZM1292.23 356.611C1305.42 356.611 1311.31 345.237 1311.31 325.523C1311.31 305.714 1305.42 294.246 1292.23 294.246H1286.24V356.611H1292.23Z" fill="#E6DCD1"/>
<path d="M1349.92 359.454C1337.19 359.454 1326.53 346.944 1326.53 326.092C1326.53 304.956 1338.13 291.402 1350.67 291.402C1363.39 291.402 1374.05 303.913 1374.05 324.765C1374.05 345.901 1362.45 359.454 1349.92 359.454ZM1350.85 357.085C1360.11 357.085 1364.88 343.816 1364.88 326.661C1364.88 308.937 1359.18 293.772 1349.73 293.772C1340.56 293.772 1335.7 307.041 1335.7 324.196C1335.7 341.92 1341.4 357.085 1350.85 357.085Z" fill="#E6DCD1"/>
<path d="M924.084 273.962C926.836 273.962 928.766 276.675 927.863 279.274L895.19 373.329C894.631 374.938 893.114 376.017 891.411 376.017H806.952C804.201 376.017 802.271 373.303 803.174 370.704L835.847 276.649C836.406 275.041 837.922 273.962 839.625 273.962H924.084ZM845.368 281.376L814.578 368.602H817.751L828.082 339.307H841.059V368.602H851.772L875.079 302.507L875.003 368.602H885.808L916.467 281.376H913.375L885.922 359.313V281.376H879.407L859.833 336.884H851.883V281.376H845.368ZM858.979 339.307L851.883 359.428V339.307H858.979ZM841.059 336.884H828.937L841.059 302.507V336.884Z" fill="#E6DCD1"/>
<path fill-rule="evenodd" clip-rule="evenodd" d="M803 490.665H831.064L886.811 546.412V500.722H855.487L845.43 490.665H896.869V584.534H868.804L845.232 560.962H813.057V574.477H844.487L854.544 584.534H803V490.665ZM813.057 550.905H835.175L813.057 528.787V550.905ZM813.057 514.564L872.97 574.477H886.811V560.636L826.899 500.722H813.057V514.564Z" fill="#E6DCD1"/>
<path d="M939.848 552.347L934.861 565.181H925.475L947.767 510.912H955.614L977.54 565.181H968.154L963.02 552.347H939.848ZM960.674 545.38L951.361 520.959L942.194 545.38H960.674Z" fill="#E6DCD1"/>
<path d="M983.722 565.181V518.539H971.255V510.912H1004.84V518.539H992.375V565.181H983.722Z" fill="#E6DCD1"/>
<path d="M1008.41 565.181V510.912H1038.77V518.539H1017.06V533.94H1038.47V541.493H1017.06V557.554H1038.77V565.181H1008.41Z" fill="#E6DCD1"/>
<path d="M1045.81 565.181V510.912H1054.47V557.554H1073.61V565.181H1045.81Z" fill="#E6DCD1"/>
<path d="M1076.98 565.181V510.912H1085.63V565.181H1076.98Z" fill="#E6DCD1"/>
<path d="M1093.9 565.181V510.912H1124.26V518.539H1102.55V533.94H1123.97V541.493H1102.55V557.554H1124.26V565.181H1093.9Z" fill="#E6DCD1"/>
<path d="M1130.8 565.181V510.912H1146.12C1154.63 510.912 1159.03 512.086 1161.89 514.066C1166.36 516.999 1169.07 522.646 1169.07 528.733C1169.07 532.546 1167.97 536.213 1165.99 539.073C1163.21 542.96 1159.69 544.28 1155.51 545.013L1168.27 565.181H1159.1L1144.22 540.687H1146.12C1149.86 540.687 1154.41 540.54 1156.97 538.34C1159.47 536.14 1160.71 532.986 1160.71 529.466C1160.71 525.8 1158.95 522.206 1156.09 520.299C1153.75 518.833 1150.74 518.539 1146.86 518.539H1139.45V565.181H1130.8Z" fill="#E6DCD1"/>
<path d="M1201.14 510.912L1229.3 552.2L1229.15 510.912H1237.51V565.181H1229.59L1201.22 523.819L1201.36 565.181H1193V510.912H1201.14Z" fill="#E6DCD1"/>
<path d="M1245.8 565.181V510.912H1254.45V565.181H1245.8Z" fill="#E6DCD1"/>
<path d="M1262.72 565.181V510.912H1279.51C1286.77 510.912 1295.79 512.012 1301.81 519.713C1305.91 524.626 1307.75 530.86 1307.75 537.973C1307.75 553.814 1299.17 565.181 1280.1 565.181H1262.72ZM1271.37 518.539V557.554H1280.54C1293.3 557.554 1299.17 549.414 1299.17 538.12C1299.17 532.913 1297.77 527.926 1294.77 524.259C1291.91 520.959 1287.58 518.539 1280.61 518.539H1271.37Z" fill="#E6DCD1"/>
<path d="M1311.17 538.413V538.34C1311.17 521.253 1324.29 509.886 1339.55 509.886C1355.75 509.886 1368 522.426 1368 538.047C1368 553.667 1355.75 566.207 1339.47 566.207C1323.12 566.207 1311.17 553.374 1311.17 538.413ZM1319.75 537.973V538.047C1319.75 549.34 1328.11 558.581 1339.69 558.581C1351.5 558.581 1359.35 548.68 1359.35 538.12C1359.35 527.486 1351.5 517.513 1339.62 517.513C1327.81 517.513 1319.75 527.046 1319.75 537.973Z" fill="#E6DCD1"/>
<path fill-rule="evenodd" clip-rule="evenodd" d="M96.9995 494H185.043V582.043H96.9995V494ZM177.039 561.089V502.004H147.497L177.039 561.089ZM174.566 574.04L141.021 506.951L107.477 574.04H174.566Z" fill="#E6DCD1"/>
<path d="M166.701 542.058H132.609L128.182 550.128H170.736L166.701 542.058Z" fill="#E6DCD1"/>
<path d="M500.002 566.604C487.303 552.7 474.726 538.932 462.011 525.012V563.721H455.506V508.587C468.207 522.573 480.797 536.437 493.512 550.438V511.745H500.002V566.602V566.604Z" fill="#E6DCD1"/>
<path d="M591.204 564.979C585.089 564.921 578.786 562.984 573.433 558.428C568.56 554.278 565.646 548.983 564.582 542.701C563.607 536.947 564.135 531.342 566.58 525.984C568.6 521.557 571.809 518.143 575.74 515.364C581.264 511.46 587.487 510.175 594.135 510.521C598.438 510.744 602.57 511.681 606.306 513.869C614.449 518.635 619.259 525.603 620.054 535.129C620.49 540.368 619.752 545.419 617.388 550.148C613.726 557.476 607.748 561.951 599.887 564.012C597.321 564.685 594.696 564.967 591.201 564.979H591.204ZM613.464 537.464C613.416 532.451 612.015 527.656 608.611 523.605C603.743 517.81 597.356 515.521 589.95 516.224C582.132 516.965 576.294 520.877 572.953 528.05C570.278 533.797 570.098 539.784 572.237 545.749C574.225 551.29 577.971 555.298 583.406 557.634C587.906 559.57 592.584 559.811 597.328 558.74C602.611 557.55 606.829 554.732 609.845 550.217C612.373 546.43 613.411 542.191 613.464 537.459V537.464Z" fill="#E6DCD1"/>
<path d="M519.834 511.693C520.08 511.693 520.268 511.693 520.456 511.693C525.931 511.693 531.409 511.693 536.884 511.693C540.947 511.693 544.889 512.356 548.603 514.046C554.355 516.663 558.264 521.016 560.261 526.979C562.404 533.373 562.68 539.929 561.04 546.458C558.878 555.057 553.256 560.34 544.742 562.639C542.074 563.36 539.351 563.721 536.594 563.738C531.183 563.776 525.769 563.756 520.357 563.759C520.194 563.759 520.029 563.738 519.834 563.726V511.693ZM526.337 517.351C526.322 517.575 526.299 517.78 526.299 517.983C526.299 531.134 526.299 544.285 526.286 557.438C526.286 557.987 526.423 558.159 526.992 558.154C530.226 558.126 533.462 558.177 536.693 558.124C538.125 558.101 539.572 558.002 540.983 557.758C545.986 556.89 549.979 554.438 552.621 550.021C554.707 546.534 555.456 542.688 555.527 538.685C555.593 534.964 555.235 531.281 553.725 527.837C550.849 521.28 545.514 518.07 538.605 517.47C534.658 517.128 530.662 517.344 526.69 517.308C526.588 517.308 526.487 517.333 526.337 517.351Z" fill="#E6DCD1"/>
<path d="M406.406 511.728C406.546 511.713 406.63 511.695 406.713 511.695C412.105 511.703 417.496 511.678 422.887 511.736C425.144 511.759 427.339 512.226 429.393 513.213C432.109 514.518 434.058 516.566 435.084 519.389C436.551 523.425 436.848 527.547 435.185 531.58C433.393 535.926 429.964 538.36 425.385 539.2C424.233 539.411 423.047 539.446 421.755 539.576C427.964 547.635 434.127 555.633 440.361 563.725C440.056 563.74 439.879 563.758 439.698 563.758C437.373 563.758 435.046 563.748 432.721 563.771C432.271 563.776 431.992 563.634 431.726 563.273C425.639 555.059 419.539 546.856 413.442 538.652C413.308 538.472 413.166 538.299 412.897 537.961V563.72H406.406V511.728ZM412.914 534.593C413.161 534.593 413.366 534.593 413.572 534.593C415.557 534.593 417.544 534.626 419.529 534.58C420.666 534.555 421.814 534.481 422.933 534.291C425.372 533.872 427.416 532.801 428.576 530.471C429.357 528.897 429.538 527.202 429.512 525.483C429.489 523.932 429.266 522.412 428.54 521.008C427.18 518.376 424.839 517.219 422.04 517.051C419.093 516.876 416.128 516.957 413.171 516.929C413.092 516.929 413.013 516.972 412.914 517.003V534.593Z" fill="#E6DCD1"/>
<path d="M264.116 563.759C261.796 563.759 259.601 563.772 257.402 563.736C257.222 563.733 256.968 563.452 256.885 563.244C255.633 560.2 254.405 557.144 253.169 554.093C252.361 552.098 251.542 550.108 250.75 548.105C250.59 547.702 250.399 547.527 249.93 547.529C243.483 547.547 237.033 547.544 230.585 547.529C230.162 547.529 229.966 547.653 229.804 548.054C227.786 553.088 225.737 558.111 223.719 563.145C223.534 563.609 223.313 563.779 222.801 563.772C220.899 563.736 218.996 563.759 217.092 563.759H216.346C224.402 545.12 232.418 526.581 240.503 507.876C248.407 526.581 256.237 545.113 264.116 563.759ZM232.002 542.417H248.384C245.632 535.82 242.914 529.297 240.114 522.585C237.365 529.302 234.695 535.83 232.002 542.417Z" fill="#E6DCD1"/>
<path d="M303.96 532.546C304.259 532.546 304.529 532.546 304.798 532.546C311.438 532.546 318.075 532.556 324.715 532.531C325.363 532.531 325.54 532.701 325.518 533.343C325.467 534.815 325.502 536.287 325.502 537.836H303.973V558.36C304.252 558.36 304.516 558.36 304.782 558.36C311.422 558.36 318.06 558.368 324.7 558.347C325.322 558.347 325.548 558.474 325.518 559.144C325.459 560.452 325.502 561.761 325.5 563.071C325.5 563.277 325.48 563.482 325.467 563.724H297.475V511.734H325.457V517.075H303.955V532.548L303.96 532.546Z" fill="#E6DCD1"/>
<path d="M373.202 511.722H401.2C401.212 511.97 401.233 512.194 401.233 512.417C401.235 513.641 401.238 514.867 401.233 516.09C401.228 517.179 401.365 517.088 400.263 517.088C394.471 517.088 388.678 517.088 382.883 517.088C382.018 517.088 381.15 517.108 380.284 517.08C379.837 517.065 379.647 517.171 379.647 517.669C379.665 522.441 379.667 527.21 379.645 531.982C379.642 532.586 379.959 532.546 380.36 532.546C387.041 532.543 393.722 532.543 400.403 532.546C400.954 532.546 401.231 532.818 401.233 533.363C401.233 534.818 401.233 536.272 401.233 537.808C400.931 537.823 400.667 537.851 400.403 537.851C393.742 537.851 387.084 537.861 380.424 537.841C379.822 537.841 379.639 537.988 379.642 538.607C379.665 544.94 379.665 551.273 379.642 557.609C379.642 558.231 379.832 558.378 380.429 558.375C387.089 558.355 393.747 558.363 400.408 558.363C400.956 558.363 401.23 558.638 401.23 559.19C401.23 560.685 401.23 562.18 401.23 563.716H373.197V511.722H373.202Z" fill="#E6DCD1"/>
<path d="M270.85 563.759V517.108H255.896V511.747H292.369V517.088H277.348V518.042C277.348 532.97 277.348 547.897 277.348 562.825C277.348 563.919 277.419 563.757 276.386 563.759C274.571 563.767 272.756 563.759 270.85 563.759Z" fill="#E6DCD1"/>
<path d="M356.229 563.723H331.156V511.736H337.581C337.581 512.054 337.581 512.343 337.581 512.632C337.581 527.578 337.581 542.521 337.581 557.466C337.581 558.062 337.876 558.36 338.467 558.36C344.132 558.36 349.797 558.37 355.46 558.344C356.092 558.342 356.306 558.489 356.278 559.149C356.224 560.433 356.262 561.723 356.26 563.012C356.26 563.238 356.24 563.464 356.227 563.723H356.229Z" fill="#E6DCD1"/>
<path d="M360.918 511.727H367.33V563.708H360.918V511.727Z" fill="#E6DCD1"/>
<path d="M506.617 563.758V511.749H513.054C513.067 511.965 513.09 512.186 513.09 512.409C513.09 529.278 513.09 546.145 513.105 563.015C513.105 563.639 512.912 563.786 512.318 563.774C510.44 563.738 508.562 563.761 506.617 563.761V563.758Z" fill="#E6DCD1"/>
<defs>
<linearGradient id="paint0_linear_94_54" x1="4.37114e-08" y1="216.5" x2="1440" y2="216.5" gradientUnits="userSpaceOnUse">
<stop/>
<stop offset="0.110577" stop-color="#E6DCD1"/>
<stop offset="0.899038" stop-color="#E6DCD1"/>
<stop offset="1"/>
</linearGradient>
<linearGradient id="paint1_linear_94_54" x1="4.37114e-08" y1="216.5" x2="1440" y2="216.5" gradientUnits="userSpaceOnUse">
<stop/>
<stop offset="0.110577" stop-color="#E6DCD1"/>
<stop offset="0.899038" stop-color="#E6DCD1"/>
<stop offset="1"/>
</linearGradient>
<linearGradient id="paint2_linear_94_54" x1="719.5" y1="2.18557e-08" x2="719.5" y2="648" gradientUnits="userSpaceOnUse">
<stop/>
<stop offset="0.110577" stop-color="#E6DCD1"/>
<stop offset="0.899038" stop-color="#E6DCD1"/>
<stop offset="1"/>
</linearGradient>
<linearGradient id="paint3_linear_94_54" x1="4.37114e-08" y1="432.5" x2="1440" y2="432.5" gradientUnits="userSpaceOnUse">
<stop/>
<stop offset="0.110577" stop-color="#E6DCD1"/>
<stop offset="0.899038" stop-color="#E6DCD1"/>
<stop offset="1"/>
</linearGradient>
</defs>
</svg>
