<svg width="1440" height="648" viewBox="0 0 1440 648" fill="none" xmlns="http://www.w3.org/2000/svg">
<rect width="1440" height="648" fill="black"/>
<path d="M487.001 369.834C490.565 378.344 493.754 385.153 496.756 388.178V389.691H481.186L460.364 337.684H417.031L396.208 389.691H381.201V388.178C384.39 384.963 387.579 378.155 390.956 369.834L438.228 255.417H439.916L487.001 369.834ZM421.345 326.715H455.861L438.791 283.596L421.345 326.715Z" fill="#E6DCD1"/>
<path d="M508.622 388.557C509.56 385.153 509.748 377.21 509.748 369.834V268.277H495.679C488.363 268.277 480.859 268.466 477.107 269.412H475.982V257.308H556.645V269.412H555.519C551.767 268.466 544.264 268.277 536.948 268.277H522.879V369.834C522.879 377.21 523.066 385.153 524.004 388.557V389.691H508.622V388.557Z" fill="#E6DCD1"/>
<path d="M566.811 388.557C567.749 384.774 567.937 377.21 567.937 369.834V277.166C567.937 269.79 567.749 261.847 566.811 258.443V257.308H622.337V269.412H621.212C617.46 268.466 609.957 268.277 602.641 268.277H581.068V310.64H598.889C606.205 310.64 614.083 310.451 617.46 309.505H618.586V322.743H617.46C614.083 321.798 606.205 321.609 598.889 321.609H581.068V378.723H608.268C615.584 378.723 623.088 378.533 626.839 377.588H627.965V389.691H566.811V388.557Z" fill="#E6DCD1"/>
<path d="M639.905 388.557C640.843 384.774 641.03 377.21 641.03 369.834V277.166C641.03 269.79 640.843 261.847 639.905 258.443V257.308H655.287V258.443C654.349 261.847 654.161 269.79 654.161 277.166V378.723H679.486C686.802 378.723 694.305 378.533 698.057 377.588H699.183V389.691H639.905V388.557ZM678.173 336.549C679.111 333.145 679.298 325.202 679.298 317.826V277.166C679.298 269.79 679.111 261.847 678.173 258.443V257.308H692.805V258.443C691.867 261.847 691.679 269.79 691.679 277.166V317.826C691.679 325.202 691.867 333.145 692.805 336.549V337.684H678.173V336.549Z" fill="#E6DCD1"/>
<path d="M713.914 388.557C714.852 384.774 715.04 377.21 715.04 369.834V277.166C715.04 269.79 714.852 261.847 713.914 258.443V257.308H769.44V269.412H768.315C764.563 268.466 757.06 268.277 749.744 268.277H728.171V310.64H745.992C753.308 310.64 761.187 310.451 764.563 309.505H765.689V322.743H764.563C761.187 321.798 753.308 321.609 745.992 321.609H728.171V378.723H755.371C762.687 378.723 770.191 378.533 773.943 377.588H775.068V389.691H713.914V388.557Z" fill="#E6DCD1"/>
<path d="M802.39 389.691H787.008V388.557C787.946 385.153 788.133 377.21 788.133 369.834V277.166C788.133 269.79 787.946 262.226 787.008 258.443V257.308H820.399C840.095 257.308 855.665 269.034 855.665 289.269C855.665 307.614 842.909 318.961 826.401 321.041L864.669 371.725C871.798 381.181 876.112 386.476 878.739 388.178V389.691H861.856L811.394 321.42H801.264V369.834C801.264 377.21 801.452 385.153 802.39 388.557V389.691ZM818.523 310.829C831.841 310.829 841.971 303.642 841.971 289.269C841.971 274.896 831.841 267.899 818.523 267.899H801.264V310.829H818.523Z" fill="#E6DCD1"/>
<path d="M908.718 255.417L993.32 358.676V277.166C993.32 269.79 993.132 261.847 992.194 258.443V257.308H1007.2V258.443C1006.26 261.847 1006.08 269.79 1006.08 277.166V391.583H1004.2L919.598 288.513V369.834C919.598 377.21 919.785 385.153 920.723 388.557V389.691H905.716V388.557C906.654 385.153 906.842 377.21 906.842 369.834V255.417H908.718Z" fill="#E6DCD1"/>
<path d="M1037.95 369.834C1037.95 377.21 1038.14 385.153 1039.07 388.557V389.691H1023.69V388.557C1024.63 385.153 1024.82 377.21 1024.82 369.834V277.166C1024.82 269.79 1024.63 261.847 1023.69 258.443V257.308H1039.07V258.443C1038.14 261.847 1037.95 269.79 1037.95 277.166V369.834Z" fill="#E6DCD1"/>
<path d="M1055.57 388.557C1056.51 384.774 1056.69 377.21 1056.69 369.834V277.166C1056.69 269.79 1056.51 262.226 1055.57 258.443V257.308H1089.71C1128.16 257.308 1159.3 282.65 1159.3 323.5C1159.3 364.35 1128.16 389.691 1089.71 389.691H1055.57V388.557ZM1089.9 378.723C1121.6 378.723 1145.42 357.73 1145.42 323.5C1145.42 289.269 1121.6 268.277 1089.9 268.277H1069.82V378.723H1089.9Z" fill="#E6DCD1"/>
<path d="M1236.22 392.528C1200.39 392.528 1168.69 366.052 1168.69 323.5C1168.69 280.948 1200.39 254.472 1236.22 254.472C1272.05 254.472 1303.57 280.948 1303.57 323.5C1303.57 366.052 1272.05 392.528 1236.22 392.528ZM1236.22 380.992C1264.92 380.992 1289.69 359.811 1289.69 323.5C1289.69 287.189 1264.92 266.008 1236.22 266.008C1207.33 266.008 1182.57 287.189 1182.57 323.5C1182.57 359.811 1207.33 380.992 1236.22 380.992Z" fill="#E6DCD1"/>
<g opacity="0.25">
<line x1="1440" y1="242.5" y2="242.5" stroke="#683F38" stroke-width="0.746251"/>
<line x1="1440" y1="242.5" y2="242.5" stroke="url(#paint0_linear_95_136)" stroke-width="0.746251"/>
</g>
<g opacity="0.25">
<line x1="1440" y1="257.5" y2="257.5" stroke="#683F38" stroke-width="0.746251"/>
<line x1="1440" y1="257.5" y2="257.5" stroke="url(#paint1_linear_95_136)" stroke-width="0.746251"/>
</g>
<g opacity="0.25">
<line x1="1440" y1="390.5" y2="390.5" stroke="#683F38" stroke-width="0.746251"/>
<line x1="1440" y1="390.5" y2="390.5" stroke="url(#paint2_linear_95_136)" stroke-width="0.746251"/>
</g>
<g opacity="0.25">
<line x1="1440" y1="404.5" y2="404.5" stroke="#683F38" stroke-width="0.746251"/>
<line x1="1440" y1="404.5" y2="404.5" stroke="url(#paint3_linear_95_136)" stroke-width="0.746251"/>
</g>
<g opacity="0.25">
<line x1="381.576" y1="-1.63098e-08" x2="381.576" y2="647" stroke="#683F38" stroke-width="0.746251"/>
<line x1="381.576" y1="-1.63098e-08" x2="381.576" y2="647" stroke="url(#paint4_linear_95_136)" stroke-width="0.746251"/>
</g>
<g opacity="0.25">
<line x1="1303.94" y1="-1.63098e-08" x2="1303.94" y2="647" stroke="#683F38" stroke-width="0.746251"/>
<line x1="1303.94" y1="-1.63098e-08" x2="1303.94" y2="647" stroke="url(#paint5_linear_95_136)" stroke-width="0.746251"/>
</g>
<g opacity="0.25">
<line x1="136.805" y1="-1.63098e-08" x2="136.805" y2="647" stroke="#683F38" stroke-width="0.746251"/>
<line x1="136.805" y1="-1.63098e-08" x2="136.805" y2="647" stroke="url(#paint6_linear_95_136)" stroke-width="0.746251"/>
</g>
<g opacity="0.25">
<line x1="299.488" y1="-1.63098e-08" x2="299.488" y2="647" stroke="#683F38" stroke-width="0.746251"/>
<line x1="299.488" y1="-1.63098e-08" x2="299.488" y2="647" stroke="url(#paint7_linear_95_136)" stroke-width="0.746251"/>
</g>
<path d="M186.769 295.793V266.45C186.769 257.566 186.541 247.999 185.405 243.898V242.531H202.462L282.311 372.986V266.45C282.311 257.566 282.083 247.999 280.947 243.898V242.531H299.115V243.898C297.98 247.999 297.752 257.566 297.752 266.45V380.55C297.752 389.434 297.98 399.001 299.115 403.102V404.469H280.947V403.102C281.707 400.359 282.058 395.172 282.209 389.379L202.069 258.542L202.06 259.502C202.141 261.792 202.21 264.144 202.21 266.45V320.44L253.681 404.469H243.45L220.685 367.341H153.982V380.55C153.982 389.434 154.209 399.001 155.345 403.102V404.469H137.178V403.102C138.313 399.001 138.54 389.434 138.54 380.55V266.45C138.54 257.566 138.313 247.999 137.178 243.898V242.531H154.425L186.769 295.793ZM153.982 358.051H214.987L153.982 258.545V358.051Z" fill="#351712"/>
<path d="M186.769 295.793V266.45C186.769 257.566 186.541 247.999 185.405 243.898V242.531H202.462L282.311 372.986V266.45C282.311 257.566 282.083 247.999 280.947 243.898V242.531H299.115V243.898C297.98 247.999 297.752 257.566 297.752 266.45V380.55C297.752 389.434 297.98 399.001 299.115 403.102V404.469H280.947V403.102C281.707 400.359 282.058 395.172 282.209 389.379L202.069 258.542L202.06 259.502C202.141 261.792 202.21 264.144 202.21 266.45V320.44L253.681 404.469H243.45L220.685 367.341H153.982V380.55C153.982 389.434 154.209 399.001 155.345 403.102V404.469H137.178V403.102C138.313 399.001 138.54 389.434 138.54 380.55V266.45C138.54 257.566 138.313 247.999 137.178 243.898V242.531H154.425L186.769 295.793ZM153.982 358.051H214.987L153.982 258.545V358.051Z" fill="#E6DCD1"/>
<path opacity="0.1" d="M332.776 388.411C333.722 385.015 333.911 377.09 333.911 369.731V268.401H319.724C312.346 268.401 304.78 268.59 300.996 269.534H299.861V257.457H381.203V269.534H380.068C376.284 268.59 368.718 268.401 361.34 268.401H347.153V369.731C347.153 377.09 347.342 385.015 348.288 388.411V389.544H332.776V388.411Z" fill="#E6DCD1"/>
<defs>
<linearGradient id="paint0_linear_95_136" x1="1440" y1="241.627" x2="0" y2="241.627" gradientUnits="userSpaceOnUse">
<stop/>
<stop offset="0.302885" stop-color="#E6DCD1"/>
<stop offset="0.701923" stop-color="#E6DCD1"/>
<stop offset="1"/>
</linearGradient>
<linearGradient id="paint1_linear_95_136" x1="1440" y1="256.627" x2="0" y2="256.627" gradientUnits="userSpaceOnUse">
<stop/>
<stop offset="0.302885" stop-color="#E6DCD1"/>
<stop offset="0.701923" stop-color="#E6DCD1"/>
<stop offset="1"/>
</linearGradient>
<linearGradient id="paint2_linear_95_136" x1="1440" y1="389.627" x2="0" y2="389.627" gradientUnits="userSpaceOnUse">
<stop/>
<stop offset="0.302885" stop-color="#E6DCD1"/>
<stop offset="0.701923" stop-color="#E6DCD1"/>
<stop offset="1"/>
</linearGradient>
<linearGradient id="paint3_linear_95_136" x1="1440" y1="403.627" x2="0" y2="403.627" gradientUnits="userSpaceOnUse">
<stop/>
<stop offset="0.302885" stop-color="#E6DCD1"/>
<stop offset="0.701923" stop-color="#E6DCD1"/>
<stop offset="1"/>
</linearGradient>
<linearGradient id="paint4_linear_95_136" x1="380.703" y1="2.18557e-08" x2="380.703" y2="647" gradientUnits="userSpaceOnUse">
<stop/>
<stop offset="0.302885" stop-color="#E6DCD1"/>
<stop offset="0.701923" stop-color="#E6DCD1"/>
<stop offset="1"/>
</linearGradient>
<linearGradient id="paint5_linear_95_136" x1="1303.07" y1="2.18557e-08" x2="1303.07" y2="647" gradientUnits="userSpaceOnUse">
<stop/>
<stop offset="0.302885" stop-color="#E6DCD1"/>
<stop offset="0.701923" stop-color="#E6DCD1"/>
<stop offset="1"/>
</linearGradient>
<linearGradient id="paint6_linear_95_136" x1="135.932" y1="2.18557e-08" x2="135.932" y2="647" gradientUnits="userSpaceOnUse">
<stop/>
<stop offset="0.302885" stop-color="#E6DCD1"/>
<stop offset="0.701923" stop-color="#E6DCD1"/>
<stop offset="1"/>
</linearGradient>
<linearGradient id="paint7_linear_95_136" x1="298.615" y1="2.18557e-08" x2="298.615" y2="647" gradientUnits="userSpaceOnUse">
<stop/>
<stop offset="0.302885" stop-color="#E6DCD1"/>
<stop offset="0.701923" stop-color="#E6DCD1"/>
<stop offset="1"/>
</linearGradient>
</defs>
</svg>
