<svg width="273" height="220" viewBox="0 0 273 220" fill="none" xmlns="http://www.w3.org/2000/svg">
<path d="M132.118 1.13695C135.691 1.7534 139.117 2.76482 142.465 4.05309C148.943 6.54842 154.819 10.0699 160.043 14.6287C165.864 19.708 170.548 25.7026 174.014 32.6165C180.157 44.879 186.255 57.16 192.382 69.4263C200.348 85.3764 208.325 101.323 216.298 117.269C222.393 129.454 228.409 141.68 234.618 153.81C237.376 159.195 241.975 162.344 247.999 163.219C253.979 164.086 259.162 162.274 263.411 158.055C266.563 154.928 268.29 151.049 268.538 146.571C268.601 145.438 268.663 144.305 268.663 143.171C268.671 113.689 268.708 84.21 268.645 54.7275C268.626 45.4992 266.386 36.784 261.904 28.6742C256.833 19.4975 249.701 12.3696 240.587 7.235C235.065 4.12322 229.144 2.04501 222.869 1.12218C220.211 0.730904 217.509 0.642312 214.825 0.413451C214.589 0.394994 214.353 0.369155 214.124 0.151367C214.442 0.151367 214.763 0.151367 215.08 0.151367C233.865 0.151367 252.647 0.151367 271.432 0.151367C272.239 0.151367 272.644 0.55126 272.646 1.35104C272.654 73.531 272.665 145.715 272.672 217.895C272.672 218.702 272.276 219.105 271.483 219.105C258.143 219.105 244.799 219.094 231.459 219.124C230.628 219.124 230.218 218.873 229.849 218.131C223.256 204.842 216.634 191.572 210.016 178.298C202.917 164.064 195.826 149.83 188.717 135.604C182.242 122.648 175.749 109.699 169.271 96.742C159.814 77.8314 150.368 58.9171 140.914 40.0065C138.076 34.3256 135.233 28.6446 132.406 22.96C132.236 22.6167 132.088 22.2107 132.088 21.8341C132.07 15.1012 132.074 8.36823 132.077 1.63528C132.077 1.48393 132.103 1.33259 132.122 1.13695H132.118Z" fill="#281B16"/>
<path d="M219.847 219.068H0.796875C9.01374 202.605 17.1789 186.256 25.3404 169.904C25.4253 169.941 25.5102 169.974 25.5951 170.011C25.477 170.284 25.3847 170.572 25.2371 170.83C23.2511 174.344 21.9592 178.087 21.5531 182.107C20.9884 187.692 21.878 193.037 24.2958 198.12C26.5623 202.882 29.8512 206.776 34.1811 209.777C38.2084 212.568 42.6638 214.296 47.54 214.842C49.0276 215.008 50.5337 215.089 52.0323 215.093C76.5648 215.108 101.097 215.178 125.63 215.052C132.647 215.015 139.022 212.564 144.666 208.375C152.133 202.834 156.688 195.407 158.191 186.275C159.708 177.047 157.744 168.49 152.344 160.79C147.929 154.496 141.997 150.233 134.721 147.833C131.864 146.892 128.922 146.279 125.896 146.265C115.017 146.213 104.139 146.183 93.2606 146.147C93.0982 146.147 92.9358 146.11 92.7771 145.991C94.4345 145.678 96.0992 145.405 97.7419 145.043C102.928 143.895 107.572 141.588 111.688 138.266C117.889 133.268 121.92 126.856 123.854 119.126C124.692 115.774 125.024 112.36 124.832 108.916C124.522 103.349 122.802 98.2037 120.226 93.2611C116.763 86.6204 113.474 79.8874 110.163 73.1655C106.483 65.6943 104.047 57.8318 102.692 49.6039C101.725 43.7236 101.566 37.8138 101.821 31.904C102.072 26.0865 103.087 20.3539 104.659 14.732C105.992 9.96655 107.672 5.33026 109.86 0.889607C109.979 0.649671 110.111 0.42081 110.34 0C146.87 73.077 183.321 145.999 219.843 219.057L219.847 219.068Z" fill="#281B16"/>
<path d="M126.605 151.418C127.942 151.617 129.167 151.798 130.437 151.99C130.437 153.345 130.437 154.604 130.437 155.859C130.437 161.052 130.348 166.25 130.459 171.44C130.596 177.645 131.836 183.643 134.276 189.379C136.362 194.278 139.182 198.696 142.681 202.698C142.781 202.812 142.866 202.934 143.017 203.133C138.24 207.105 132.799 209.294 126.605 209.885V151.418Z" fill="#281B16"/>
</svg>
