<svg width="1440" height="648" viewBox="0 0 1440 648" fill="none" xmlns="http://www.w3.org/2000/svg">
<rect width="1440" height="648" fill="#E6DCD1"/>
<path d="M612.532 368.018V367.738C612.625 367.505 612.695 367.155 612.742 366.688C612.788 366.221 612.811 365.801 612.811 365.428C612.811 363.981 612.602 362.394 612.183 360.667C611.811 358.894 611.066 356.7 609.949 354.087L601.502 335.044C598.896 334.951 595.428 334.904 591.1 334.904C586.772 334.904 582.095 334.904 577.068 334.904C573.391 334.904 569.831 334.904 566.387 334.904C562.99 334.904 559.918 334.951 557.172 335.044L549.144 353.526C548.446 355.253 547.701 357.144 546.91 359.197C546.119 361.251 545.723 363.328 545.723 365.428C545.723 366.035 545.77 366.548 545.863 366.968C545.956 367.342 546.049 367.598 546.142 367.738V368.018H531.9V367.738C532.738 366.852 533.785 365.288 535.042 363.048C536.298 360.761 537.671 357.914 539.161 354.507L579.162 265.525H584.747L622.655 351.076C623.539 353.083 624.447 355.043 625.377 356.957C626.355 358.824 627.262 360.504 628.1 361.998C628.938 363.491 629.682 364.751 630.334 365.778C630.986 366.805 631.428 367.458 631.66 367.738V368.018H612.532ZM567.295 328.883C569.994 328.883 572.763 328.883 575.602 328.883C578.441 328.837 581.21 328.813 583.91 328.813C586.656 328.767 589.285 328.743 591.798 328.743C594.311 328.696 596.592 328.65 598.64 328.603L579.023 284.147L559.755 328.883H567.295Z" fill="#281B16"/>
<path d="M663.497 363.888C664.893 363.888 666.266 363.631 667.616 363.118C669.012 362.604 670.339 361.904 671.595 361.017C672.898 360.131 674.132 359.127 675.295 358.007C676.505 356.84 677.622 355.627 678.646 354.367L679.344 354.717L674.806 365.988C674.248 366.268 673.55 366.618 672.712 367.038C671.921 367.412 670.944 367.762 669.78 368.088C668.663 368.462 667.337 368.765 665.801 368.999C664.265 369.279 662.45 369.419 660.356 369.419C654.119 369.419 649.256 367.738 645.765 364.378C642.321 360.971 640.599 355.673 640.599 348.486V301.79L628.871 302.21V296.049C630.314 296.142 632.036 296.212 634.037 296.259C636.038 296.306 638.225 296.329 640.599 296.329C640.552 293.015 640.459 290.098 640.32 287.578C640.227 285.011 640.087 282.794 639.901 280.927C639.761 279.013 639.575 277.403 639.342 276.096C639.11 274.789 638.877 273.693 638.644 272.806V272.526H654.771V272.806C654.491 273.693 654.235 274.789 654.003 276.096C653.77 277.403 653.561 278.99 653.374 280.857C653.235 282.724 653.095 284.941 652.956 287.508C652.863 290.028 652.793 292.968 652.746 296.329C655.678 296.282 658.54 296.236 661.333 296.189C664.172 296.096 666.732 296.002 669.012 295.909C671.339 295.769 673.294 295.652 674.876 295.559C676.505 295.419 677.576 295.302 678.088 295.209L676.831 302.35C674.457 302.303 671.967 302.233 669.361 302.14C667.127 302.046 664.568 301.976 661.682 301.93C658.796 301.883 655.818 301.836 652.746 301.79V349.956C652.746 352.85 653.049 355.207 653.654 357.027C654.305 358.8 655.12 360.201 656.097 361.227C657.121 362.254 658.261 362.954 659.518 363.328C660.821 363.701 662.147 363.888 663.497 363.888Z" fill="#281B16"/>
<path d="M721.513 369.279C716.347 369.279 711.507 368.462 706.992 366.828C702.478 365.195 698.545 362.814 695.194 359.687C691.843 356.514 689.19 352.616 687.236 347.996C685.327 343.328 684.373 338.008 684.373 332.034C684.373 326.76 685.258 321.882 687.026 317.402C688.795 312.874 691.238 308.954 694.356 305.64C697.475 302.326 701.105 299.736 705.247 297.869C709.436 296.002 713.95 295.069 718.79 295.069C723.584 295.069 728.029 295.909 732.124 297.589C736.22 299.223 739.757 301.626 742.735 304.8C745.761 307.927 748.134 311.824 749.856 316.492C751.625 321.112 752.579 326.386 752.718 332.314C747.459 332.22 742.2 332.15 736.941 332.104C731.682 332.057 726.213 332.034 720.536 332.034C716.486 332.034 712.531 332.057 708.668 332.104C704.851 332.15 701.407 332.22 698.336 332.314C698.615 337.168 699.36 341.555 700.57 345.475C701.826 349.396 703.525 352.756 705.666 355.557C707.853 358.31 710.483 360.434 713.554 361.928C716.673 363.421 720.186 364.168 724.096 364.168C726.795 364.168 729.332 363.864 731.705 363.258C734.125 362.604 736.313 361.718 738.268 360.597C740.222 359.477 741.968 358.17 743.503 356.677C745.039 355.137 746.342 353.48 747.413 351.706L748.251 352.126L743.085 364.588C740.571 365.895 737.569 367.015 734.079 367.948C730.588 368.835 726.4 369.279 721.513 369.279ZM712.228 326.573C716.882 326.573 721.536 326.573 726.19 326.573C730.891 326.526 735.149 326.433 738.966 326.293C738.547 322.232 737.756 318.592 736.592 315.371C735.429 312.151 733.939 309.421 732.124 307.18C730.309 304.94 728.168 303.213 725.702 302C723.235 300.786 720.512 300.179 717.534 300.179C714.834 300.179 712.344 300.786 710.064 302C707.83 303.166 705.875 304.87 704.2 307.11C702.524 309.351 701.175 312.104 700.151 315.371C699.127 318.592 698.522 322.279 698.336 326.433C700.43 326.526 702.641 326.573 704.968 326.573C707.295 326.573 709.715 326.573 712.228 326.573Z" fill="#281B16"/>
<path d="M765.287 290.728C765.287 286.761 765.217 283.307 765.078 280.367C764.985 277.38 764.845 274.813 764.659 272.666C764.519 270.519 764.31 268.722 764.031 267.275C763.798 265.828 763.542 264.615 763.263 263.635V263.354H779.389V263.635C779.11 264.615 778.854 265.828 778.621 267.275C778.388 268.722 778.179 270.519 777.993 272.666C777.807 274.813 777.667 277.38 777.574 280.367C777.481 283.307 777.434 286.761 777.434 290.728V340.645C777.434 344.612 777.481 348.089 777.574 351.076C777.667 354.017 777.807 356.56 777.993 358.707C778.179 360.854 778.388 362.651 778.621 364.098C778.854 365.545 779.11 366.758 779.389 367.738V368.018H763.263V367.738C763.542 366.758 763.798 365.545 764.031 364.098C764.31 362.651 764.519 360.854 764.659 358.707C764.845 356.56 764.985 354.017 765.078 351.076C765.217 348.089 765.287 344.612 765.287 340.645V290.728Z" fill="#281B16"/>
<path d="M796.914 323.702C796.914 319.735 796.845 316.282 796.705 313.341C796.612 310.354 796.472 307.787 796.286 305.64C796.147 303.493 795.937 301.696 795.658 300.249C795.425 298.803 795.169 297.589 794.89 296.609V296.329H811.016V296.609C810.737 297.589 810.481 298.803 810.248 300.249C810.016 301.696 809.806 303.493 809.62 305.64C809.434 307.787 809.294 310.354 809.201 313.341C809.108 316.282 809.062 319.735 809.062 323.702V340.645C809.062 344.612 809.108 348.089 809.201 351.076C809.294 354.017 809.434 356.56 809.62 358.707C809.806 360.854 810.016 362.651 810.248 364.098C810.481 365.545 810.737 366.758 811.016 367.738V368.018H794.89V367.738C795.169 366.758 795.425 365.545 795.658 364.098C795.937 362.651 796.147 360.854 796.286 358.707C796.472 356.56 796.612 354.017 796.705 351.076C796.845 348.089 796.914 344.612 796.914 340.645V323.702ZM795.448 275.116C795.448 274.089 795.635 273.132 796.007 272.246C796.426 271.312 796.961 270.519 797.613 269.865C798.264 269.165 799.032 268.629 799.916 268.255C800.847 267.835 801.848 267.625 802.918 267.625C803.989 267.625 804.966 267.835 805.85 268.255C806.781 268.629 807.572 269.165 808.224 269.865C808.922 270.519 809.457 271.312 809.829 272.246C810.248 273.132 810.458 274.089 810.458 275.116C810.458 277.263 809.736 279.06 808.294 280.507C806.851 281.954 805.059 282.677 802.918 282.677C801.848 282.677 800.847 282.49 799.916 282.117C799.032 281.697 798.264 281.16 797.613 280.507C796.961 279.807 796.426 279.013 796.007 278.126C795.635 277.193 795.448 276.19 795.448 275.116Z" fill="#281B16"/>
<path d="M859.398 369.279C854.232 369.279 849.392 368.462 844.877 366.828C840.363 365.195 836.43 362.814 833.079 359.687C829.728 356.514 827.076 352.616 825.121 347.996C823.213 343.328 822.259 338.008 822.259 332.034C822.259 326.76 823.143 321.882 824.911 317.402C826.68 312.874 829.123 308.954 832.242 305.64C835.36 302.326 838.99 299.736 843.132 297.869C847.321 296.002 851.835 295.069 856.676 295.069C861.469 295.069 865.914 295.909 870.009 297.589C874.105 299.223 877.642 301.626 880.621 304.8C883.646 307.927 886.019 311.824 887.741 316.492C889.51 321.112 890.464 326.386 890.604 332.314C885.345 332.22 880.085 332.15 874.826 332.104C869.567 332.057 864.099 332.034 858.421 332.034C854.372 332.034 850.416 332.057 846.553 332.104C842.737 332.15 839.293 332.22 836.221 332.314C836.5 337.168 837.245 341.555 838.455 345.475C839.711 349.396 841.41 352.756 843.551 355.557C845.738 358.31 848.368 360.434 851.44 361.928C854.558 363.421 858.072 364.168 861.981 364.168C864.681 364.168 867.217 363.864 869.591 363.258C872.011 362.604 874.198 361.718 876.153 360.597C878.108 359.477 879.853 358.17 881.389 356.677C882.924 355.137 884.228 353.48 885.298 351.706L886.136 352.126L880.97 364.588C878.457 365.895 875.455 367.015 871.964 367.948C868.474 368.835 864.285 369.279 859.398 369.279ZM850.113 326.573C854.767 326.573 859.421 326.573 864.076 326.573C868.776 326.526 873.035 326.433 876.851 326.293C876.432 322.232 875.641 318.592 874.477 315.371C873.314 312.151 871.825 309.421 870.009 307.18C868.194 304.94 866.053 303.213 863.587 302C861.12 300.786 858.398 300.179 855.419 300.179C852.72 300.179 850.23 300.786 847.949 302C845.715 303.166 843.76 304.87 842.085 307.11C840.41 309.351 839.06 312.104 838.036 315.371C837.012 318.592 836.407 322.279 836.221 326.433C838.315 326.526 840.526 326.573 842.853 326.573C845.18 326.573 847.6 326.573 850.113 326.573Z" fill="#281B16"/>
<path d="M902.754 323.702C902.754 319.735 902.684 316.282 902.544 313.341C902.451 310.354 902.311 307.787 902.125 305.64C901.986 303.493 901.776 301.696 901.497 300.249C901.264 298.803 901.008 297.589 900.729 296.609V296.329H916.855V296.609C916.483 297.682 916.157 298.989 915.878 300.529C915.645 302.07 915.459 304.053 915.32 306.48C917.042 305.033 918.833 303.61 920.695 302.21C922.557 300.809 924.465 299.573 926.42 298.499C928.374 297.426 930.352 296.562 932.354 295.909C934.401 295.255 936.449 294.929 938.497 294.929C939.753 294.929 940.847 294.999 941.778 295.139C942.709 295.232 943.547 295.395 944.291 295.629C945.036 295.815 945.711 296.049 946.316 296.329C946.921 296.562 947.503 296.796 948.061 297.029L944.64 310.401L943.453 310.121C942.895 308.067 941.848 306.434 940.312 305.22C938.776 303.96 936.682 303.33 934.029 303.33C932.586 303.33 931.074 303.586 929.491 304.1C927.909 304.613 926.303 305.337 924.674 306.27C923.045 307.157 921.416 308.207 919.788 309.421C918.159 310.587 916.576 311.824 915.04 313.131C914.947 314.485 914.901 315.955 914.901 317.542C914.901 319.129 914.901 320.809 914.901 322.582V340.645C914.901 344.612 914.947 348.089 915.04 351.076C915.133 354.017 915.273 356.56 915.459 358.707C915.645 360.854 915.855 362.651 916.088 364.098C916.32 365.545 916.576 366.758 916.855 367.738V368.018H900.729V367.738C901.008 366.758 901.264 365.545 901.497 364.098C901.776 362.651 901.986 360.854 902.125 358.707C902.311 356.56 902.451 354.017 902.544 351.076C902.684 348.089 902.754 344.612 902.754 340.645V323.702Z" fill="#281B16"/>
<path d="M999.168 267.625L1071.07 344.355V295.069C1071.07 291.102 1071.03 287.648 1070.93 284.707C1070.84 281.72 1070.7 279.153 1070.52 277.006C1070.33 274.813 1070.1 272.992 1069.82 271.546C1069.58 270.099 1069.33 268.885 1069.05 267.905V267.625H1081.48V267.905C1081.2 268.885 1080.94 270.099 1080.71 271.546C1080.47 272.992 1080.27 274.813 1080.08 277.006C1079.89 279.153 1079.75 281.72 1079.66 284.707C1079.57 287.648 1079.52 291.102 1079.52 295.069V369.419H1077.08L1005.17 292.758V340.645C1005.17 344.612 1005.22 348.089 1005.31 351.076C1005.4 354.017 1005.54 356.56 1005.73 358.707C1005.92 360.854 1006.13 362.651 1006.36 364.098C1006.59 365.545 1006.85 366.758 1007.13 367.738V368.018H994.7V367.738C994.98 366.758 995.236 365.545 995.468 364.098C995.748 362.651 995.98 360.854 996.166 358.707C996.353 356.56 996.492 354.017 996.585 351.076C996.678 348.089 996.725 344.612 996.725 340.645V295.069C996.725 291.102 996.678 287.648 996.585 284.707C996.492 281.72 996.353 279.153 996.166 277.006C995.98 274.813 995.748 272.992 995.468 271.546C995.236 270.099 994.98 268.885 994.7 267.905V267.625H999.168Z" fill="#281B16"/>
<path d="M1099.28 323.702C1099.28 319.735 1099.21 316.282 1099.07 313.341C1098.98 310.354 1098.84 307.787 1098.65 305.64C1098.51 303.493 1098.3 301.696 1098.02 300.249C1097.79 298.803 1097.53 297.589 1097.26 296.609V296.329H1113.38V296.609C1113.1 297.589 1112.85 298.803 1112.61 300.249C1112.38 301.696 1112.17 303.493 1111.99 305.64C1111.8 307.787 1111.66 310.354 1111.57 313.341C1111.47 316.282 1111.43 319.735 1111.43 323.702V340.645C1111.43 344.612 1111.47 348.089 1111.57 351.076C1111.66 354.017 1111.8 356.56 1111.99 358.707C1112.17 360.854 1112.38 362.651 1112.61 364.098C1112.85 365.545 1113.1 366.758 1113.38 367.738V368.018H1097.26V367.738C1097.53 366.758 1097.79 365.545 1098.02 364.098C1098.3 362.651 1098.51 360.854 1098.65 358.707C1098.84 356.56 1098.98 354.017 1099.07 351.076C1099.21 348.089 1099.28 344.612 1099.28 340.645V323.702ZM1097.81 275.116C1097.81 274.089 1098 273.132 1098.37 272.246C1098.79 271.312 1099.33 270.519 1099.98 269.865C1100.63 269.165 1101.4 268.629 1102.28 268.255C1103.21 267.835 1104.21 267.625 1105.28 267.625C1106.35 267.625 1107.33 267.835 1108.22 268.255C1109.15 268.629 1109.94 269.165 1110.59 269.865C1111.29 270.519 1111.82 271.312 1112.2 272.246C1112.61 273.132 1112.82 274.089 1112.82 275.116C1112.82 277.263 1112.1 279.06 1110.66 280.507C1109.22 281.954 1107.42 282.677 1105.28 282.677C1104.21 282.677 1103.21 282.49 1102.28 282.117C1101.4 281.697 1100.63 281.16 1099.98 280.507C1099.33 279.807 1098.79 279.013 1098.37 278.126C1098 277.193 1097.81 276.19 1097.81 275.116Z" fill="#281B16"/>
<path d="M1162.32 295.069C1164.23 295.069 1166.14 295.232 1168.05 295.559C1169.96 295.885 1171.82 296.352 1173.63 296.959C1175.45 297.566 1177.17 298.312 1178.8 299.199C1180.43 300.086 1181.89 301.09 1183.2 302.21V290.728C1183.2 286.761 1183.15 283.307 1183.06 280.367C1182.96 277.38 1182.82 274.813 1182.64 272.666C1182.45 270.519 1182.24 268.722 1182.01 267.275C1181.78 265.828 1181.52 264.615 1181.24 263.635V263.354H1197.37V263.635C1197.09 264.615 1196.81 265.828 1196.53 267.275C1196.3 268.722 1196.09 270.519 1195.9 272.666C1195.76 274.813 1195.62 277.38 1195.48 280.367C1195.39 283.307 1195.34 286.761 1195.34 290.728V340.645C1195.34 344.612 1195.39 348.089 1195.48 351.076C1195.62 354.017 1195.76 356.56 1195.9 358.707C1196.09 360.854 1196.3 362.651 1196.53 364.098C1196.81 365.545 1197.09 366.758 1197.37 367.738V368.018H1181.94V367.738C1182.08 367.365 1182.2 366.828 1182.29 366.128C1182.38 365.381 1182.5 364.471 1182.64 363.398C1180.26 364.891 1177.29 366.245 1173.7 367.458C1170.12 368.672 1165.95 369.279 1161.21 369.279C1155.67 369.279 1150.64 368.415 1146.13 366.688C1141.61 364.961 1137.75 362.488 1134.54 359.267C1131.37 356.047 1128.93 352.15 1127.21 347.576C1125.49 342.955 1124.62 337.774 1124.62 332.034C1124.62 326.76 1125.56 321.882 1127.42 317.402C1129.28 312.874 1131.88 308.954 1135.24 305.64C1138.59 302.326 1142.57 299.736 1147.17 297.869C1151.78 296.002 1156.83 295.069 1162.32 295.069ZM1183.2 314.531C1181.33 309.631 1178.66 306.013 1175.17 303.68C1171.72 301.346 1167.84 300.179 1163.51 300.179C1159.88 300.179 1156.53 300.833 1153.46 302.14C1150.38 303.4 1147.76 305.243 1145.57 307.67C1143.38 310.097 1141.66 313.084 1140.4 316.632C1139.19 320.132 1138.59 324.123 1138.59 328.603C1138.59 333.644 1139.15 338.334 1140.26 342.675C1141.38 347.016 1143.01 350.796 1145.15 354.017C1147.34 357.19 1150.04 359.687 1153.25 361.508C1156.46 363.281 1160.16 364.168 1164.35 364.168C1166.53 364.168 1168.58 363.911 1170.49 363.398C1172.4 362.884 1174.14 362.231 1175.73 361.438C1177.31 360.644 1178.7 359.781 1179.91 358.847C1181.12 357.867 1182.13 356.91 1182.92 355.977C1183.01 353.97 1183.08 351.683 1183.13 349.116C1183.17 346.549 1183.2 343.725 1183.2 340.645V314.531Z" fill="#281B16"/>
<path d="M1208.19 332.034C1208.19 326.76 1209.17 321.882 1211.12 317.402C1213.08 312.874 1215.75 308.954 1219.15 305.64C1222.6 302.326 1226.64 299.736 1231.3 297.869C1235.95 296.002 1240.96 295.069 1246.31 295.069C1251.57 295.069 1256.5 295.955 1261.11 297.729C1265.76 299.456 1269.81 301.93 1273.25 305.15C1276.7 308.37 1279.4 312.291 1281.35 316.912C1283.35 321.532 1284.35 326.713 1284.35 332.454C1284.35 337.261 1283.52 341.882 1281.84 346.316C1280.17 350.749 1277.7 354.67 1274.44 358.077C1271.18 361.484 1267.18 364.215 1262.43 366.268C1257.73 368.275 1252.31 369.279 1246.17 369.279C1240.96 369.279 1236.05 368.415 1231.44 366.688C1226.83 364.961 1222.8 362.488 1219.36 359.267C1215.92 356.047 1213.19 352.15 1211.19 347.576C1209.19 342.955 1208.19 337.774 1208.19 332.034ZM1247.77 364.168C1251.08 364.168 1254.1 363.514 1256.85 362.208C1259.64 360.901 1262.04 359.011 1264.04 356.537C1266.04 354.063 1267.6 351.053 1268.72 347.506C1269.83 343.959 1270.39 339.945 1270.39 335.464C1270.39 330.423 1269.86 325.756 1268.79 321.462C1267.72 317.122 1266.11 313.388 1263.97 310.261C1261.88 307.087 1259.22 304.613 1256.01 302.84C1252.8 301.066 1249.05 300.179 1244.77 300.179C1241.47 300.179 1238.44 300.833 1235.7 302.14C1232.95 303.4 1230.55 305.243 1228.51 307.67C1226.5 310.097 1224.95 313.084 1223.83 316.632C1222.71 320.132 1222.15 324.123 1222.15 328.603C1222.15 333.644 1222.69 338.334 1223.76 342.675C1224.88 347.016 1226.5 350.796 1228.65 354.017C1230.79 357.19 1233.44 359.687 1236.6 361.508C1239.82 363.281 1243.54 364.168 1247.77 364.168Z" fill="#281B16"/>
<path d="M307.118 213.137C310.691 213.753 314.117 214.765 317.465 216.053C323.943 218.548 329.819 222.07 335.043 226.629C340.864 231.708 345.548 237.703 349.014 244.616C355.157 256.879 361.255 269.16 367.382 281.426C375.348 297.376 383.325 313.323 391.298 329.269C397.393 341.454 403.409 353.68 409.618 365.81C412.376 371.195 416.975 374.344 422.999 375.219C428.979 376.086 434.162 374.274 438.411 370.055C441.563 366.928 443.29 363.049 443.538 358.571C443.601 357.438 443.663 356.305 443.663 355.171C443.671 325.689 443.708 296.21 443.645 266.727C443.626 257.499 441.386 248.784 436.904 240.674C431.833 231.498 424.701 224.37 415.587 219.235C410.065 216.123 404.144 214.045 397.869 213.122C395.211 212.731 392.509 212.642 389.825 212.413C389.589 212.395 389.353 212.369 389.124 212.151C389.442 212.151 389.763 212.151 390.08 212.151C408.865 212.151 427.647 212.151 446.432 212.151C447.239 212.151 447.644 212.551 447.646 213.351C447.654 285.531 447.665 357.715 447.672 429.895C447.672 430.702 447.276 431.105 446.483 431.105C433.143 431.105 419.799 431.094 406.459 431.124C405.628 431.124 405.218 430.873 404.849 430.131C398.256 416.842 391.634 403.572 385.016 390.298C377.917 376.064 370.826 361.83 363.717 347.604C357.242 334.648 350.749 321.699 344.271 308.742C334.814 289.831 325.368 270.917 315.914 252.006C313.076 246.326 310.233 240.645 307.406 234.96C307.236 234.617 307.088 234.211 307.088 233.834C307.07 227.101 307.074 220.368 307.077 213.635C307.077 213.484 307.103 213.333 307.122 213.137H307.118Z" fill="#281B16"/>
<path d="M394.847 431.068H175.797C184.014 414.605 192.179 398.256 200.34 381.904C200.425 381.941 200.51 381.974 200.595 382.011C200.477 382.284 200.385 382.572 200.237 382.83C198.251 386.344 196.959 390.087 196.553 394.107C195.988 399.692 196.878 405.037 199.296 410.12C201.562 414.882 204.851 418.776 209.181 421.777C213.208 424.568 217.664 426.296 222.54 426.842C224.028 427.008 225.534 427.089 227.032 427.093C251.565 427.108 276.097 427.178 300.63 427.052C307.647 427.015 314.022 424.564 319.666 420.375C327.133 414.834 331.688 407.407 333.191 398.275C334.708 389.047 332.744 380.49 327.344 372.79C322.929 366.496 316.997 362.233 309.721 359.833C306.864 358.892 303.922 358.279 300.896 358.265C290.017 358.213 279.139 358.183 268.261 358.147C268.098 358.147 267.936 358.11 267.777 357.991C269.434 357.678 271.099 357.405 272.742 357.043C277.928 355.895 282.572 353.588 286.688 350.266C292.889 345.268 296.92 338.856 298.854 331.126C299.692 327.774 300.024 324.36 299.832 320.916C299.522 315.349 297.802 310.204 295.226 305.261C291.763 298.62 288.474 291.887 285.163 285.166C281.483 277.694 279.047 269.832 277.692 261.604C276.725 255.724 276.566 249.814 276.821 243.904C277.072 238.087 278.087 232.354 279.659 226.732C280.992 221.967 282.672 217.33 284.86 212.89C284.979 212.65 285.111 212.421 285.34 212C321.87 285.077 358.321 357.999 394.843 431.057L394.847 431.068Z" fill="#281B16"/>
<path d="M301.605 363.418C302.942 363.617 304.167 363.798 305.437 363.99C305.437 365.345 305.437 366.604 305.437 367.859C305.437 373.052 305.348 378.25 305.459 383.44C305.596 389.645 306.836 395.643 309.276 401.379C311.362 406.278 314.182 410.696 317.681 414.698C317.781 414.812 317.866 414.934 318.017 415.133C313.24 419.105 307.799 421.294 301.605 421.885V363.418Z" fill="#281B16"/>
</svg>
